<?xml version="1.0" encoding="UTF-8"?>
<svg id="eeGZQw30iak1" xmlns="http://www.w3.org/2000/svg" viewBox="0 0 300 300">
  <defs>
    <style>
      .cls-1 {
        stroke-linecap: round;
      }

      .cls-1, .cls-2 {
        fill: none;
        stroke: #000;
        stroke-miterlimit: 10;
        stroke-width: 4px;
      }
    </style>
  </defs>
  <path class="cls-2" d="M230.41,254.94H69.59c-4.42,0-8-3.58-8-8V53.06c0-4.42,3.58-8,8-8h87.69c4.42,0,8,3.58,8,8v27.73c0,3.43,2.19,6.48,5.43,7.58l62.26,21.08c3.25,1.1,5.43,4.15,5.43,7.58v129.91c0,4.42-3.58,8-8,8Z"/>
  <rect class="cls-2" x="77.98" y="57.81" width="68.93" height="29.9" rx="8" ry="8"/>
  <g>
    <rect class="cls-2" x="191.83" y="63.53" width="40.8" height="18.47" transform="translate(32.5 -61.52) rotate(17.84)"/>
    <line class="cls-2" x1="196.46" y1="76.11" x2="202.11" y2="58.52"/>
    <line class="cls-2" x1="202.93" y1="78.51" x2="208.59" y2="60.93"/>
    <line class="cls-2" x1="209.4" y1="80.17" x2="215.06" y2="62.59"/>
    <line class="cls-2" x1="215.87" y1="83.55" x2="221.53" y2="65.96"/>
    <line class="cls-2" x1="222.35" y1="84.55" x2="228" y2="66.96"/>
  </g>
  <line class="cls-2" x1="190.91" y1="93.69" x2="196.56" y2="76.11"/>
  <line class="cls-2" x1="216.25" y1="104.09" x2="221.91" y2="86.51"/>
  <g>
    <path class="cls-1" d="M162.26,154.41c0,11.14-6.38,20.18-14.26,20.18s-14.26-9.03-14.26-20.18,14.26-25.44,14.26-25.44c0,0,14.26,14.3,14.26,25.44Z"/>
    <polyline class="cls-1" points="148 151.78 148 183.22 148 217.71"/>
    <g>
      <path class="cls-1" d="M119.71,174.24c10.47,3.81,16.78,12.9,14.08,20.3-2.69,7.4-13.36,10.31-23.84,6.5-10.47-3.81-19.03-22.1-19.03-22.1,0,0,18.32-8.51,28.79-4.7Z"/>
      <line class="cls-1" x1="112.36" y1="186.74" x2="148" y2="199.71"/>
    </g>
    <g>
      <path class="cls-1" d="M186.05,191.04c-10.47,3.81-21.14.9-23.84-6.5-2.69-7.4,3.61-16.49,14.08-20.3,10.47-3.81,28.79,4.7,28.79,4.7,0,0-8.56,18.29-19.03,22.1Z"/>
      <line class="cls-1" x1="183.64" y1="176.74" x2="148" y2="189.71"/>
    </g>
  </g>
</svg>