<?xml version="1.0" encoding="UTF-8"?>
<svg id="eeGZQw30iak1" xmlns="http://www.w3.org/2000/svg" viewBox="0 0 300 300">
  <defs>
    <style>
      .cls-1 {
      stroke-linecap: round;
      }

      .cls-1, .cls-2 {
      fill: none;
      stroke: #fff;
      stroke-miterlimit: 10;
      stroke-width: 4px;
      }
    </style>
  </defs>
  <g>
    <rect class="cls-2" x="109.97" y="82.2" width="74.27" height="160.55" rx="4" ry="4" />
    <rect class="cls-2" x="128.11" y="68.08" width="37.97" height="14.12" />
  </g>
  <g>
    <rect class="cls-2" x="25.77" y="121.43" width="56.12" height="121.32" rx="4" ry="4" />
    <rect class="cls-2" x="39.48" y="110.76" width="28.69" height="10.67" />
  </g>
  <g>
    <rect class="cls-2" x="209.36" y="121.43" width="56.12" height="121.32" rx="4" ry="4" />
    <rect class="cls-2" x="223.07" y="110.76" width="28.69" height="10.67" />
  </g>
  <g>
    <line class="cls-1" x1="147.1" y1="113.48" x2="147.1" y2="151.45" />
    <line class="cls-1" x1="166.09" y1="132.47" x2="128.11" y2="132.47" />
  </g>
  <line class="cls-1" x1="166.09" y1="210.41" x2="128.11" y2="210.41" />
  <polygon class="cls-2"
    points="237.68 177.22 249.24 146.03 219.27 187.46 234.14 187.37 223.07 218.42 255.56 177.46 237.68 177.22" />
  <g>
    <rect class="cls-2" x="37.61" y="197.47" width="32.44" height="14.01" />
    <rect class="cls-2" x="37.61" y="175.93" width="32.44" height="14.01" />
    <rect class="cls-2" x="37.61" y="154.39" width="32.44" height="14.01" />
    <rect class="cls-2" x="37.61" y="132.84" width="32.44" height="14.01" />
    <rect class="cls-2" x="37.61" y="219.01" width="32.44" height="14.01" />
  </g>
</svg>