<?xml version="1.0" encoding="UTF-8"?>
<svg id="eeGZQw30iak1" xmlns="http://www.w3.org/2000/svg" viewBox="0 0 300 300">
  <defs>
    <style>
      .cls-1 {
        stroke-width: 4px;
      }

      .cls-1, .cls-2 {
        fill: none;
        stroke: #000;
        stroke-linecap: round;
      }

      .cls-2 {
        stroke-width: 4.33px;
      }
    </style>
  </defs>
  <path class="cls-1" d="M208.98,59.72v22.79c0,2.52-2.45,4.56-5.48,4.56h-5.86v-15.83h-9.18v15.83h-12.36c-3.03,0-5.48-2.04-5.48-4.56v-26.6l19.18-17.55,19.18,17.55v3.81Z"/>
  <path class="cls-1" d="M275.13,44.05v22.79c0,2.52-2.45,4.56-5.48,4.56h-5.86v-15.83h-9.18v15.83h-12.36c-3.03,0-5.48-2.04-5.48-4.56v-26.6l19.18-17.55,19.18,17.55v3.81Z"/>
  <path class="cls-1" d="M242.42,206.84v22.79c0,2.52-2.45,4.56-5.48,4.56h-5.86v-15.83h-9.18v15.83h-12.36c-3.03,0-5.48-2.04-5.48-4.56v-26.6l19.18-17.55,19.18,17.55v3.81Z"/>
  <path class="cls-1" d="M156.33,173.55v22.79c0,2.52-2.45,4.56-5.48,4.56h-5.86v-15.83h-9.18v15.83h-12.36c-3.03,0-5.48-2.04-5.48-4.56v-26.6l19.18-17.55,19.18,17.55v3.81Z"/>
  <path class="cls-1" d="M131.63,94.78v22.79c0,2.52-2.45,4.56-5.48,4.56h-5.86v-15.83h-9.18v15.83h-12.36c-3.03,0-5.48-2.04-5.48-4.56v-26.6l19.18-17.55,19.18,17.55v3.81Z"/>
  <path class="cls-1" d="M63.22,201.91v22.79c0,2.52-2.45,4.56-5.48,4.56h-5.86v-15.83h-9.18v15.83h-12.36c-3.03,0-5.48-2.04-5.48-4.56v-26.6l19.18-17.55,19.18,17.55v3.81Z"/>
  <path class="cls-1" d="M129.63,249.97v22.79c0,2.52-2.45,4.56-5.48,4.56h-5.86v-15.83h-9.18v15.83h-12.36c-3.03,0-5.48-2.04-5.48-4.56v-26.6l19.18-17.55,19.18,17.55v3.81Z"/>
  <path class="cls-1" d="M66.88,45.35v22.79c0,2.52-2.45,4.56-5.48,4.56h-5.86v-15.83h-9.18v15.83h-12.36c-3.03,0-5.48-2.04-5.48-4.56v-26.6l19.18-17.55,19.18,17.55v3.81Z"/>
  <line class="cls-1" x1="47.7" y1="83.19" x2="106.08" y2="160.68"/>
  <line class="cls-1" x1="119.72" y1="131.86" x2="121.46" y2="145.35"/>
  <line class="cls-1" x1="77.92" y1="213.69" x2="105.59" y2="191.24"/>
  <line class="cls-1" x1="127.47" y1="222.53" x2="132.31" y2="210.98"/>
  <line class="cls-1" x1="178.36" y1="95.63" x2="151.02" y2="144.49"/>
  <line class="cls-1" x1="237.81" y1="77.03" x2="164.38" y2="154.72"/>
  <line class="cls-1" x1="82.55" y1="53.92" x2="154.95" y2="62.71"/>
  <line class="cls-1" x1="51.52" y1="239.55" x2="75.91" y2="257.58"/>
  <line class="cls-2" x1="255.13" y1="82.11" x2="239.5" y2="179"/>
  <line class="cls-2" x1="188.67" y1="205.51" x2="166.05" y2="195.95"/>
</svg>