<?xml version="1.0" encoding="UTF-8"?>
<svg id="eeGZQw30iak1" xmlns="http://www.w3.org/2000/svg" viewBox="0 0 300 300">
  <defs>
    <style>
      .cls-1 {
        fill: none;
        stroke: #000;
        stroke-linecap: round;
        stroke-miterlimit: 10;
        stroke-width: 3.81px;
      }
    </style>
  </defs>
  <path class="cls-1" d="M32.69,243.65l8.98-35.94,12.35,23.58,16.85-40.49,1.69.59c6.13,2.15,12.87-.93,15.26-6.97l8.24-20.83,10.39,27.21,21.28-83.71,6.12,16.25c1.93,5.11,9.15,5.14,11.11.04l25.87-67.06,17.73,59.12,12.32-29.2,7.3,51.69,14.55-31.93,14.65,89.78c.87,7.38,9.37,11.09,15.37,6.71l8.71-6.36,11.56,28.31"/>
  <line class="cls-1" x1="32.69" y1="36.56" x2="32.69" y2="263.44"/>
  <line class="cls-1" x1="14.22" y1="243.99" x2="285.78" y2="243.99"/>
</svg>