<?xml version="1.0" encoding="UTF-8"?>
<svg id="eeGZQw30iak1" xmlns="http://www.w3.org/2000/svg" viewBox="0 0 300 300">
  <defs>
    <style>
      .cls-1 {
        fill: none;
        stroke: #000;
        stroke-miterlimit: 10;
        stroke-width: 4px;
      }
    </style>
  </defs>
  <g>
    <g>
      <path class="cls-1" d="M61.83,90.93c-10.36,0-18.75-8.4-18.75-18.75s8.4-18.75,18.75-18.75,18.75,8.4,18.75,18.75"/>
      <path class="cls-1" d="M61.83,90.93c10.36,0,18.75,8.4,18.75,18.75s-8.4,18.75-18.75,18.75-18.75-8.4-18.75-18.75"/>
    </g>
    <line class="cls-1" x1="56.6" y1="42.18" x2="56.6" y2="140.58"/>
    <line class="cls-1" x1="66.37" y1="42.18" x2="66.37" y2="140.58"/>
  </g>
  <rect class="cls-1" x="42.15" y="222.34" width="37.85" height="47.83"/>
  <rect class="cls-1" x="105.21" y="195.34" width="37.85" height="74.83"/>
  <rect class="cls-1" x="168.26" y="167" width="37.85" height="103.17"/>
  <rect class="cls-1" x="231.32" y="109.83" width="37.85" height="160.35"/>
  <path class="cls-1" d="M253.25,31.63c-29.4,92.25-117.86,159.25-222.42,159.25"/>
  <polyline class="cls-1" points="223.92 41.86 253.93 29.83 265.96 59.83"/>
</svg>