<?xml version="1.0" encoding="UTF-8"?>
<svg id="eeGZQw30iak1" xmlns="http://www.w3.org/2000/svg" viewBox="0 0 300 300">
  <defs>
    <style>
      .cls-1 {
        stroke-linecap: round;
      }

      .cls-1, .cls-2 {
        fill: none;
        stroke: #000;
        stroke-miterlimit: 10;
        stroke-width: 4px;
      }
    </style>
  </defs>
  <path class="cls-2" d="M243.59,254.54H96.41s-20-3.15-20-52.26c0-52.26,20-55.07,20-105.93s-20-50.86-20-50.86h142.18s20-2.8,20,50.86-20,53.66-20,105.93c0,39.9,25,52.26,25,52.26Z"/>
  <path class="cls-2" d="M76.41,45.49c-14.34,0-20,15.35-20,28.37s10.26,22.49,20,22.49,10.87-25.43-2.14-25.43h20.02"/>
  <line class="cls-2" x1="96.25" y1="96.35" x2="76.41" y2="96.35"/>
  <line class="cls-1" x1="115.29" y1="78.72" x2="217.96" y2="78.72"/>
  <line class="cls-1" x1="116.25" y1="96.04" x2="218.82" y2="96.35"/>
  <line class="cls-1" x1="115.37" y1="113.36" x2="218.02" y2="113.36"/>
  <line class="cls-1" x1="112.22" y1="130.68" x2="215.1" y2="130.68"/>
  <line class="cls-1" x1="106.54" y1="148" x2="209.51" y2="148"/>
  <line class="cls-1" x1="100.75" y1="165.32" x2="203.47" y2="165.32"/>
  <line class="cls-1" x1="97.92" y1="182.64" x2="199.95" y2="182.64"/>
  <line class="cls-1" x1="96.25" y1="199.96" x2="198.87" y2="199.96"/>
  <line class="cls-1" x1="96.97" y1="217.28" x2="165.12" y2="217.28"/>
</svg>