<?xml version="1.0" encoding="UTF-8"?>
<svg id="eeGZQw30iak1" xmlns="http://www.w3.org/2000/svg" viewBox="0 0 300 300">
  <defs>
    <style>
      .cls-1, .cls-2 {
      stroke-linecap: round;
      }

      .cls-1, .cls-2, .cls-3 {
      fill: none;
      stroke: #fff;
      stroke-width: 4px;
      }

      .cls-2, .cls-3 {
      stroke-miterlimit: 10;
      }
    </style>
  </defs>
  <rect class="cls-3" x="62.58" y="125.2" width="174.84" height="112.43" rx="8" ry="8" />
  <line class="cls-3" x1="179.14" y1="125.94" x2="179.14" y2="238.37" />
  <line class="cls-3" x1="120.86" y1="125.94" x2="120.86" y2="238.37" />
  <line class="cls-3" x1="150" y1="125.94" x2="150" y2="238.37" />
  <line class="cls-3" x1="208.28" y1="125.94" x2="208.28" y2="238.37" />
  <line class="cls-3" x1="91.72" y1="125.94" x2="91.72" y2="238.37" />
  <line class="cls-3" x1="62.58" y1="182.16" x2="237.42" y2="182.16" />
  <line class="cls-3" x1="62.58" y1="210.26" x2="237.42" y2="210.26" />
  <line class="cls-3" x1="62.58" y1="154.05" x2="237.42" y2="154.05" />
  <path class="cls-3"
    d="M186.88,125.2c3.52-6.18,5.53-13.34,5.53-20.96,0-23.42-18.99-42.41-42.41-42.41s-42.41,18.99-42.41,42.41c0,7.62,2.01,14.78,5.53,20.96" />
  <line class="cls-3" x1="144.23" y1="282.85" x2="144.23" y2="238.37" />
  <line class="cls-3" x1="155.77" y1="238.37" x2="155.77" y2="282.85" />
  <line class="cls-2" x1="208.28" y1="106.06" x2="259.28" y2="106.06" />
  <line class="cls-2" x1="150.06" y1="46.01" x2="150.06" y2="17.15" />
  <line class="cls-2" x1="180.76" y1="54.72" x2="202.19" y2="17.61" />
  <line class="cls-2" x1="201.4" y1="76.71" x2="245.56" y2="51.21" />
  <line class="cls-2" x1="40.72" y1="106.06" x2="91.72" y2="106.06" />
  <line class="cls-2" x1="98.1" y1="17.91" x2="119.3" y2="54.62" />
  <line class="cls-2" x1="54.45" y1="51.15" x2="98.62" y2="76.65" />
  <line class="cls-1" x1="20.48" y1="282.85" x2="279.52" y2="282.85" />
</svg>