<?xml version="1.0" encoding="UTF-8"?>
<svg id="eeGZQw30iak1" xmlns="http://www.w3.org/2000/svg" viewBox="0 0 300 300">
  <defs>
    <style>
      .cls-1 {
      fill: transparent;
      }

      .cls-1, .cls-2, .cls-3 {
      stroke: #fff;
      stroke-width: 4px;
      }

      .cls-1, .cls-3 {
      stroke-miterlimit: 10;
      }

      .cls-2 {
      stroke-linecap: round;
      }

      .cls-2, .cls-3 {
      fill: none;
      }
    </style>
  </defs>
  <g>
    <rect class="cls-3" x="120.33" y="184.09" width="107.81" height="69.33" rx="8" ry="8" />
    <line class="cls-3" x1="192.2" y1="184.55" x2="192.2" y2="253.88" />
    <line class="cls-3" x1="156.27" y1="184.55" x2="156.27" y2="253.88" />
    <line class="cls-3" x1="174.24" y1="184.55" x2="174.24" y2="253.88" />
    <line class="cls-3" x1="210.17" y1="184.55" x2="210.17" y2="253.88" />
    <line class="cls-3" x1="138.3" y1="184.55" x2="138.3" y2="253.88" />
    <line class="cls-3" x1="120.33" y1="219.21" x2="228.14" y2="219.21" />
    <line class="cls-3" x1="120.33" y1="236.54" x2="228.14" y2="236.54" />
    <line class="cls-3" x1="120.33" y1="201.88" x2="228.14" y2="201.88" />
    <polyline class="cls-3" points="170.68 253.88 170.68 281.3 177.79 281.3 177.79 253.88" />
  </g>
  <g>
    <path class="cls-1"
      d="M69.79,88.57l-11.42-19.29c-2.91-3.92-4.4-8.71-4.24-13.58l-1.02-34.81c.08-2.56,3.7-3.03,4.43-.57l19.73,66.02" />
    <path class="cls-1"
      d="M74.55,95.5l-10.99,19.53c-1.94,4.48-5.34,8.17-9.64,10.47l-29.64,18.29c-2.26,1.21-4.47-1.68-2.71-3.55l47.31-50.1" />
    <path class="cls-1"
      d="M78.17,87.91l22.41-.25c4.85-.56,9.74.54,13.89,3.12l30.66,16.53c2.18,1.36.78,4.72-1.72,4.12l-67.04-15.93" />
    <circle class="cls-1" cx="74.17" cy="90.66" r="5.98" />
    <path class="cls-1" d="M85.41,246.5l-8.83-149.78h-4.82l-8.83,149.78h22.48Z" />
  </g>
  <path class="cls-2"
    d="M271.07,83.65v70.1c0,4.42-3.58,8-8,8h-24.37v-45.22h-26.2v45.21h-42.94c-4.42.02-8-3.57-8-7.99v-80.99l54.76-50.13,54.76,50.13v10.89Z" />
</svg>