<?xml version="1.0" encoding="UTF-8"?>
<svg id="eeGZQw30iak1" xmlns="http://www.w3.org/2000/svg" viewBox="0 0 300 300">
  <defs>
    <style>
      .cls-1 {
      fill: transparent;
      }


      .cls-1, .cls-2, .cls-3 {
      stroke: #fff;
      stroke-miterlimit: 10;
      stroke-width: 4px;
      }

      .cls-2 {
      stroke-linecap: round;
      }

      .cls-2, .cls-3 {
      fill: none;
      }
    </style>
  </defs>
  <g>
    <path class="cls-1"
      d="M196.39,116.36l-3.65,22.12c-.29,4.87-2.22,9.5-5.48,13.13l-21.6,27.32c-1.71,1.91-4.78-.05-3.76-2.41l27.33-63.26" />
    <path class="cls-1"
      d="M197.19,107.99l20.98-7.9c4.36-2.18,9.34-2.83,14.11-1.82l34.46,5.04c2.51.53,2.34,4.17-.2,4.46l-68.45,7.96" />
    <path class="cls-1"
      d="M189.54,111.48l-17.33-14.22c-4.07-2.69-7.12-6.68-8.63-11.31l-12.86-32.37c-.8-2.44,2.44-4.11,3.97-2.05l41.12,55.3" />
    <circle class="cls-1" cx="194.37" cy="111.95" r="5.98" />
  </g>
  <g>
    <path class="cls-1"
      d="M71.13,114.44l-11.42-19.29c-2.91-3.92-4.4-8.71-4.24-13.58l-1.02-34.81c.08-2.56,3.7-3.03,4.43-.57l19.73,66.02" />
    <path class="cls-1"
      d="M75.89,121.36l-10.99,19.53c-1.94,4.48-5.34,8.17-9.64,10.47l-29.64,18.29c-2.26,1.21-4.47-1.68-2.71-3.55l47.31-50.1" />
    <path class="cls-1"
      d="M79.5,113.78l22.41-.25c4.85-.56,9.74.54,13.89,3.12l30.66,16.53c2.18,1.36.78,4.72-1.72,4.12l-67.04-15.93" />
    <circle class="cls-1" cx="75.51" cy="116.53" r="5.98" />
  </g>
  <path class="cls-3"
    d="M234.74,278.34c-26.49-6.81-59.88-13.46-89.34-13.46-37.44,0-81.23,10.73-109.15,18.91" />
  <path class="cls-1"
    d="M201.6,270.9h4.26l-9.07-153.89h-4.82l-8.89,150.81c6.23.88,12.43,1.93,18.53,3.08Z" />
  <path class="cls-1"
    d="M86.75,271.37l-8.83-149.78h-4.82l-9.07,153.89h3.66c6.14-1.44,12.53-2.84,19.07-4.11Z" />
  <path class="cls-2" d="M135.46,75.87c-13.01,13.01-34.1,13.01-47.11,0s-13.01-34.1,0-47.11" />
  <path class="cls-2" d="M91.67,60.66c-1.7-10.25,1.4-21.14,9.3-29.04" />
  <path class="cls-2"
    d="M277.74,71.12c-8.71,3.08-19.55,4.91-31.29,4.91-28.76,0-52.07-10.96-52.07-24.49s23.31-24.49,52.07-24.49" />
  <path class="cls-2" d="M190.84,33.26c6.69-9.89,26.38-17.05,49.63-17.05" />
</svg>