<?xml version="1.0" encoding="UTF-8"?>
<svg id="eeGZQw30iak1" xmlns="http://www.w3.org/2000/svg" viewBox="0 0 300 300">
  <defs>
    <style>
      .cls-1 {
        stroke-linecap: round;
      }

      .cls-1, .cls-2 {
        fill: none;
        stroke: #000;
        stroke-miterlimit: 10;
        stroke-width: 4px;
      }
    </style>
  </defs>
  <path class="cls-1" d="M273.66,245.8c6.32-4.16,10.19-9.73,10.19-15.86,0-12.85-17-23.27-37.98-23.27-18.14,0-33.31,7.8-37.07,18.23-6.47-1.11-13.49-1.73-20.85-1.73-31.99,0-57.92,11.56-57.92,25.83s25.93,25.83,57.92,25.83c5.9,0,11.58-.4,16.94-1.13,8.06,2.06,17.74,3.26,28.16,3.26,28.05,0,50.8-8.71,50.8-19.46,0-4.39-3.8-8.44-10.19-11.69Z"/>
  <path class="cls-2" d="M204.91,131.1c3.52-6.18,5.53-13.34,5.53-20.96,0-23.42-18.99-42.41-42.41-42.41-16.1,0-30.11,8.98-37.29,22.2"/>
  <line class="cls-1" x1="226.31" y1="111.96" x2="277.31" y2="111.96"/>
  <line class="cls-1" x1="223.67" y1="144.36" x2="261.76" y2="166.36"/>
  <line class="cls-1" x1="168.09" y1="51.91" x2="168.09" y2="23.05"/>
  <line class="cls-1" x1="198.78" y1="60.62" x2="220.21" y2="23.51"/>
  <line class="cls-1" x1="219.42" y1="82.6" x2="263.59" y2="57.1"/>
  <line class="cls-1" x1="116.13" y1="23.81" x2="137.33" y2="60.52"/>
  <line class="cls-1" x1="219.92" y1="196.48" x2="210.22" y2="179.67"/>
  <line class="cls-1" x1="72.48" y1="57.05" x2="116.65" y2="82.55"/>
  <path class="cls-2" d="M228.83,157.3c0-14.51-19.43-26.67-45.6-29.96-.14-4.12-2.45-8.02-6.51-11.5-10.31-15.41-27.35-25.48-46.64-25.48-10.56,0-20.44,3.03-28.92,8.28-4.78-1.46-10.24-2.3-16.04-2.3-18.74,0-33.93,8.65-33.93,19.33,0,.59.05,1.17.14,1.74-20,2.37-35.19,14.01-35.19,28.03,0,15.73,19.13,28.48,42.73,28.48,6.4,0,12.46-.94,17.91-2.62,8.13,22.61,28.92,38.7,53.31,38.7,8.57,0,16.7-2,23.99-5.57,4.6.85,9.64,1.32,14.93,1.32,21.5,0,38.93-7.77,38.93-17.34,0-2.31-1.02-4.51-2.86-6.52,14.42-5.63,23.75-14.55,23.75-24.6Z"/>
</svg>