<svg xmlns="http://www.w3.org/2000/svg" width="40" height="40" viewBox="0 0 40 40" fill="none">
    <path
        d="M0 20C0 8.95431 8.95431 0 20 0C31.0457 0 40 8.95431 40 20C40 31.0457 31.0457 40 20 40C8.95431 40 0 31.0457 0 20Z"
        fill="#68dcbc"></path>
    <path
        d="M20.1097 1.10999C30.5424 1.10999 38.9998 9.56733 38.9998 20C38.9998 30.4327 30.5424 38.89 20.1097 38.89C9.67708 38.89 1.21973 30.4327 1.21973 20C1.21973 9.56733 9.67708 1.10999 20.1097 1.10999Z"
        fill="#4C5562"></path>
    <path fill-rule="evenodd" clip-rule="evenodd"
        d="M15.9845 26.2531C15.8187 25.1005 15.325 24.5723 14.8079 24.0192C14.117 23.2803 13.334 22.443 13.334 20.1728C13.334 16.7653 16.1062 13.9932 19.5136 13.9932C22.921 13.9932 25.6932 16.7653 25.6932 20.1728C25.6932 22.443 24.9102 23.2804 24.2194 24.0192C23.7022 24.5723 23.2085 25.1005 23.0427 26.2531C22.9665 26.2363 22.8872 26.2274 22.8059 26.2274L16.2214 26.2274C16.1401 26.2274 16.0608 26.2363 15.9845 26.2531ZM15.058 20.4797C14.8885 20.4797 14.751 20.3423 14.751 20.1727C14.751 17.5466 16.8875 15.4102 19.5137 15.4102C19.6833 15.4102 19.8208 15.5476 19.8208 15.7172C19.8208 15.8867 19.6833 16.0242 19.5137 16.0242C17.2262 16.0242 15.365 17.8852 15.365 20.1727C15.365 20.3423 15.2276 20.4797 15.058 20.4797Z"
        fill="white"></path>
    <path fill-rule="evenodd" clip-rule="evenodd"
        d="M22.8058 29.0609H16.2213C15.9528 29.0609 15.7344 28.8425 15.7344 28.5739V27.3278C15.7344 27.0592 15.9528 26.8408 16.2213 26.8408L22.8058 26.8409C23.0743 26.8409 23.2928 27.0592 23.2928 27.3278V28.5739C23.2927 28.8425 23.0743 29.0609 22.8058 29.0609Z"
        fill="white"></path>
    <path fill-rule="evenodd" clip-rule="evenodd"
        d="M22.1902 30.5066H16.8375C16.569 30.5066 16.3506 30.2882 16.3506 30.0197V29.5146H22.6772V30.0197C22.6772 30.2882 22.4587 30.5066 22.1902 30.5066Z"
        fill="white"></path>
    <path fill-rule="evenodd" clip-rule="evenodd"
        d="M19.4128 32.1389C18.611 32.1389 17.9284 31.6189 17.6846 30.8984H21.141C20.8972 31.6189 20.2146 32.1389 19.4128 32.1389Z"
        fill="white"></path>
    <path fill-rule="evenodd" clip-rule="evenodd"
        d="M19.6508 12.0895C19.4812 12.0895 19.3438 11.9521 19.3438 11.7825V8.30702C19.3438 8.13747 19.4812 8 19.6508 8C19.8204 8 19.9578 8.13747 19.9578 8.30702V11.7825C19.9578 11.9521 19.8204 12.0895 19.6508 12.0895Z"
        fill="white"></path>
    <path fill-rule="evenodd" clip-rule="evenodd"
        d="M24.4025 13.4394C24.3503 13.4394 24.2976 13.4261 24.2493 13.3982C24.1024 13.3134 24.0521 13.1256 24.1369 12.9788L25.8746 9.96895C25.9594 9.82205 26.1473 9.7719 26.294 9.85659C26.4408 9.94139 26.4912 10.1292 26.4064 10.276L24.6687 13.2858C24.6118 13.3843 24.5086 13.4394 24.4025 13.4394Z"
        fill="white"></path>
    <path fill-rule="evenodd" clip-rule="evenodd"
        d="M27.8425 16.9837C27.7364 16.9837 27.6332 16.9286 27.5763 16.8301C27.4916 16.6833 27.5419 16.4955 27.6887 16.4107L30.6986 14.673C30.8454 14.5882 31.0333 14.6386 31.118 14.7854C31.2028 14.9322 31.1524 15.12 31.0056 15.2048L27.9957 16.9425C27.9474 16.9704 27.8946 16.9837 27.8425 16.9837Z"
        fill="white"></path>
    <path fill-rule="evenodd" clip-rule="evenodd"
        d="M14.8615 13.2968C14.7553 13.2968 14.6522 13.2418 14.5953 13.1433L12.8576 10.1334C12.7728 9.98655 12.8232 9.79882 12.97 9.71401C13.1167 9.62926 13.3045 9.67959 13.3893 9.82638L15.127 12.8363C15.2118 12.9831 15.1615 13.1709 15.0147 13.2557C14.9663 13.2836 14.9136 13.2968 14.8615 13.2968Z"
        fill="white"></path>
    <path fill-rule="evenodd" clip-rule="evenodd"
        d="M11.3166 16.7366C11.2646 16.7366 11.2117 16.7234 11.1634 16.6954L8.15357 14.9577C8.00667 14.8729 7.95641 14.6851 8.04121 14.5383C8.12601 14.3914 8.31386 14.3412 8.46059 14.4259L11.4704 16.1637C11.6173 16.2485 11.6676 16.4363 11.5828 16.5831C11.5259 16.6815 11.4227 16.7366 11.3166 16.7366Z"
        fill="white"></path>
</svg>