<svg xmlns="http://www.w3.org/2000/svg" width="95" height="96" viewBox="0 0 95 96" fill="none"><circle cx="47.5" cy="48.126" r="47.5" fill="url(#paint0_linear_337_2416)"></circle><path d="M70.0184 63.2219C70.0114 61.7181 69.405 60.2792 68.3336 59.2239L63.479 54.4093C62.417 53.352 60.9795 52.7586 59.481 52.7587C57.9735 52.7752 56.5347 53.3918 55.4831 54.4721L52.9872 56.9965C52.142 57.4591 47.59 55.3345 43.3236 51.1081C39.0573 46.8817 36.8356 42.2727 37.2753 41.4617L39.7883 38.9258C42.0085 36.6861 41.9931 33.0708 39.7541 30.85L34.9051 26.0411C33.8273 24.9825 32.3779 24.3879 30.8672 24.3848C29.3594 24.4 27.9201 25.0168 26.8693 26.0982L21.5006 31.484C19.2789 33.7057 19.5302 38.0063 22.2145 43.5349C24.7218 48.6751 29.0681 54.5121 34.5053 59.8865C42.3984 67.711 52.3533 74.2562 58.71 74.2562C60.3038 74.3374 61.8615 73.7638 63.0221 72.6684L68.3679 67.2769C69.4349 66.1982 70.0287 64.7392 70.0184 63.2219ZM66.7458 65.6492L61.4 71.0407C58.493 73.9706 47.4015 69.4473 36.1159 58.2644C30.8729 53.0671 26.6637 47.4814 24.2706 42.5354C22.106 38.0806 21.6777 34.5395 23.1283 33.0888L28.4741 27.6973C29.1124 27.0552 29.9789 26.6918 30.8843 26.6864C31.786 26.685 32.6512 27.0426 33.2888 27.6802L38.1434 32.4892C39.4683 33.8251 39.4683 35.9793 38.1434 37.3152L35.6305 39.8568C34.5282 40.9648 34.7623 42.9695 36.333 45.8137C37.7787 48.3293 39.562 50.6353 41.6331 52.6673C43.6857 54.7248 46.011 56.4908 48.5438 57.916C51.3995 59.4581 53.4099 59.6808 54.5122 58.5729L57.0251 56.0313C57.6634 55.3892 58.5299 55.0257 59.4353 55.0204C60.3335 55.0227 61.1949 55.3775 61.8341 56.0085L66.6887 60.8231C68.0136 62.159 68.0136 64.3133 66.6887 65.6492H66.7458Z" fill="white"></path><path d="M72.532 47.2522C73.1629 47.2522 73.6743 46.7408 73.6743 46.11C73.6585 32.0443 62.2616 20.6449 48.196 20.626C47.5651 20.626 47.0537 21.1374 47.0537 21.7682C47.0537 22.3991 47.5651 22.9105 48.196 22.9105C61.0012 22.9263 71.3771 33.3047 71.3897 46.11C71.3897 46.7408 71.9011 47.2523 72.532 47.2522Z" fill="white"></path><path d="M63.1997 46.1103C63.1997 46.7412 63.7111 47.2526 64.3419 47.2526C64.9728 47.2526 65.4842 46.7412 65.4842 46.1103C65.4748 36.5653 57.741 28.829 48.196 28.8164C47.5651 28.8164 47.0537 29.3278 47.0537 29.9587C47.0537 30.5895 47.5651 31.1009 48.196 31.1009C56.4793 31.1135 63.1902 37.827 63.1997 46.1103Z" fill="white"></path><path d="M47.0537 38.1491C47.0537 38.78 47.5651 39.2914 48.196 39.2914C51.9522 39.3132 54.9909 42.3545 55.0096 46.1107C55.0096 46.7416 55.521 47.253 56.1519 47.253C56.7827 47.253 57.2942 46.7416 57.2942 46.1107C57.2754 41.0928 53.2139 37.0288 48.196 37.0068C47.5651 37.0068 47.0537 37.5182 47.0537 38.1491Z" fill="white"></path><defs><linearGradient id="paint0_linear_337_2416" x1="13.5" y1="0.624022" x2="79.5" y2="95.624" gradientUnits="userSpaceOnUse"><stop stop-color="#40BCD4"></stop><stop offset="1" stop-color="#B7F275"></stop></linearGradient></defs></svg>