<svg xmlns="http://www.w3.org/2000/svg" width="96" height="96" viewBox="0 0 96 96" fill="none"><circle cx="48.2402" cy="48.2109" r="47.5" fill="url(#paint0_linear_142_3850)"></circle><path d="M30.5642 36.2413C30.3135 35.807 30.4623 35.2517 30.8965 35.001L53.5182 21.9403L51.3442 21.5098C50.8523 21.4124 50.5324 20.9347 50.6298 20.4428C50.7272 19.9508 51.2051 19.6309 51.6969 19.7284L56.2406 20.6281C56.4973 20.6789 56.7196 20.8381 56.8505 21.0648C56.9815 21.2915 57.0081 21.5635 56.9238 21.8114L55.4311 26.1961C55.3026 26.5738 54.9496 26.8117 54.5717 26.8117C54.4746 26.8117 54.3759 26.796 54.279 26.763C53.8043 26.6014 53.5505 26.0856 53.712 25.6108L54.4262 23.5128L31.8044 36.5736C31.6614 36.6561 31.5053 36.6954 31.3512 36.6954C31.0375 36.6955 30.7324 36.5326 30.5642 36.2413ZM27.7495 51.5738V42.6653C27.7495 42.1638 28.1561 41.7573 28.6575 41.7573H33.8727C34.3741 41.7573 34.7807 42.1638 34.7807 42.6653V51.5738C34.7807 52.0754 34.3741 52.4818 33.8727 52.4818H28.6575C28.1561 52.4818 27.7495 52.0754 27.7495 51.5738ZM29.5655 50.6658H32.9647V43.5733H29.5655V50.6658ZM75.2197 70.847C75.2197 71.7327 74.8766 72.5636 74.2535 73.1868C73.6303 73.81 72.7993 74.1532 71.9137 74.1532C71.0279 74.153 70.1969 73.81 69.5738 73.1868L62.175 65.7881C62.0047 65.6176 61.9091 65.3866 61.9091 65.1459C61.9091 64.9051 62.0048 64.6741 62.175 64.5039L62.2708 64.408L61.4883 63.6258C59.3624 65.12 56.7738 65.9986 53.9836 65.9986C49.2336 65.9986 45.0671 63.4537 42.7753 59.6558H21.6482C21.1468 59.6558 20.7402 59.2494 20.7402 58.7478V20.6191C20.7402 20.1177 21.1468 19.7111 21.6482 19.7111H24.8177C25.3191 19.7111 25.7256 20.1177 25.7256 20.6191V54.6704H41.02C40.9427 54.0967 40.902 53.5115 40.902 52.917C40.902 52.7713 40.9053 52.6264 40.91 52.4818H37.7648C37.2633 52.4818 36.8568 52.0754 36.8568 51.5738V37.8913C36.8568 37.3898 37.2633 36.9833 37.7648 36.9833H42.9799C43.4814 36.9833 43.8879 37.3898 43.8879 37.8913V44.607C44.5034 43.8606 45.2002 43.1838 45.9641 42.5893V33.117C45.9641 32.6156 46.3707 32.2091 46.8721 32.2091H52.0873C52.5887 32.2091 52.9953 32.6156 52.9953 33.117V39.8727C53.3216 39.8483 53.6512 39.8355 53.9836 39.8355C54.3499 39.8355 54.7126 39.8515 55.0714 39.8812V28.3429C55.0714 27.8415 55.478 27.4349 55.9794 27.4349H61.1946C61.696 27.4349 62.1026 27.8415 62.1026 28.3429V42.6673C65.124 45.0657 67.0653 48.7688 67.0653 52.9171C67.0653 55.7073 66.1866 58.296 64.6924 60.422L65.4747 61.2043L65.5706 61.1085C65.7408 60.9382 65.9718 60.8425 66.2127 60.8425C66.4534 60.8425 66.6844 60.9382 66.8547 61.1085L74.2535 68.5075C74.8765 69.1303 75.2197 69.9613 75.2197 70.847ZM66.2127 63.0345L64.1011 65.146L64.418 65.4629L66.5295 63.3515L66.2127 63.0345ZM56.8874 40.1607C58.0917 40.4347 59.2332 40.8755 60.2866 41.4572V29.2509H56.8874V40.1607ZM47.7801 41.4024C48.8348 40.8319 49.9765 40.4028 51.1793 40.139V34.0249H47.7801V41.4024ZM41.0965 50.6658C41.289 49.561 41.6202 48.5033 42.0721 47.5116V38.7993H38.6729V50.6658H41.0965ZM41.8644 57.8398C41.685 57.3999 41.5282 56.9485 41.397 56.4864H24.8177C24.3162 56.4864 23.9097 56.0799 23.9097 55.5784V21.5271H22.5562V57.8398L41.8644 57.8398ZM53.9836 64.1826C60.1956 64.1826 65.2493 59.129 65.2493 52.917C65.2493 46.7052 60.1956 41.6514 53.9836 41.6514C47.7718 41.6514 42.718 46.7052 42.718 52.917C42.718 59.1291 47.7718 64.1826 53.9836 64.1826ZM63.5549 63.124L64.1906 62.4883L63.5412 61.839C63.3366 62.058 63.1245 62.2701 62.9054 62.4746L63.5549 63.124ZM73.4037 70.847C73.4037 70.4464 73.2496 70.0714 72.9694 69.7915L67.8135 64.6354L65.7022 66.747L70.858 71.9027C71.138 72.1829 71.513 72.3373 71.9137 72.3373C72.3143 72.3373 72.6893 72.1829 72.9694 71.9027C73.2496 71.6227 73.4037 71.2476 73.4037 70.847ZM64.0276 52.917C64.0276 58.4553 59.5219 62.9608 53.9837 62.9608C48.4455 62.9608 43.9399 58.4552 43.9399 52.917C43.9399 47.3788 48.4456 42.8731 53.9837 42.8731C59.5219 42.8731 64.0276 47.3789 64.0276 52.917ZM62.2116 52.917C62.2116 48.3802 58.5206 44.6891 53.9837 44.6891C49.4469 44.6891 45.7559 48.3802 45.7559 52.917C45.7559 57.4539 49.447 61.1448 53.9837 61.1448C58.5206 61.1449 62.2116 57.4539 62.2116 52.917Z" fill="white"></path><defs><linearGradient id="paint0_linear_142_3850" x1="48.2402" y1="0.710938" x2="48.2402" y2="113.548" gradientUnits="userSpaceOnUse"><stop offset="0" stop-color="#4CBDD3"></stop><stop offset="1" stop-color="#C9EF5F"></stop></linearGradient></defs></svg>