<svg xmlns="http://www.w3.org/2000/svg" width="96" height="96" viewBox="0 0 96 96" fill="none"><circle cx="48" cy="48.126" r="47.5" fill="url(#paint0_linear_337_2433)"></circle><path d="M58.9994 41.0867C62.7673 41.0867 65.8013 36.3975 65.8013 32.5147C65.8013 28.7077 62.75 25.6104 58.9994 25.6104C55.2476 25.6104 52.1963 28.7077 52.1963 32.5147C52.1963 36.3975 55.2304 41.0867 58.9994 41.0867ZM58.9994 27.9658C61.4515 27.9658 63.4459 30.0062 63.4459 32.5146C63.4459 35.229 61.2893 38.7312 58.9994 38.7312C56.7083 38.7312 54.5518 35.229 54.5518 32.5146C54.5518 30.0062 56.5473 27.9658 58.9994 27.9658Z" fill="white"></path><path d="M29.7559 55.5453C29.7559 59.4282 32.7899 64.1179 36.559 64.1179C40.3268 64.1179 43.3609 59.4282 43.3609 55.5453C43.3609 51.7384 40.3096 48.6416 36.559 48.6416C32.8072 48.6416 29.7559 51.7384 29.7559 55.5453ZM41.0054 55.5453C41.0054 58.2603 38.8489 61.7624 36.559 61.7624C34.2679 61.7624 32.1113 58.2603 32.1113 55.5453C32.1113 53.0375 34.1068 50.9971 36.559 50.9971C39.0111 50.9971 41.0054 53.0374 41.0054 55.5453Z" fill="white"></path><path d="M36.5572 76.1542C50.6354 76.1542 58.5655 60.0136 50.1576 48.8638C51.3532 46.1336 54.0632 44.3257 57.1079 44.3257H60.8885C63.7931 44.3257 66.4158 45.9805 67.6832 48.5065C65.3493 50.2222 62.5631 51.2265 59.6302 51.352C58.9804 51.3796 58.4766 51.9288 58.5042 52.5792C58.5307 53.2118 59.0528 53.7063 59.6797 53.7063C59.6969 53.7063 59.7142 53.7057 59.7314 53.7052C74.4128 53.0767 81.5689 35.1389 71.0511 24.622C64.3901 17.961 53.6071 17.9602 46.9453 24.622C40.2986 31.2682 40.2986 42.0824 46.9453 48.7285C46.9502 48.7334 46.9571 48.7348 46.9622 48.7397C52.6718 54.4688 52.6669 63.7744 46.9453 69.496C46.9122 69.5291 46.8751 69.557 46.8418 69.5898C45.026 66.7669 41.8841 65.007 38.4526 65.007H34.6606C31.2162 65.007 28.0763 66.7676 26.2755 69.5915C26.2415 69.5582 26.2039 69.5297 26.1702 69.4961C17.1111 60.4369 23.2708 44.9716 35.9257 44.4321C36.5756 44.4045 37.0793 43.8553 37.0517 43.2055C37.0253 42.5551 36.4766 42.0605 35.8245 42.0789C21.1538 42.7049 13.9785 60.6361 24.5048 71.1615C27.7241 74.3813 32.0049 76.1542 36.5572 76.1542ZM48.6107 26.2875C54.3526 20.5479 63.6442 20.5459 69.3857 26.2875C75.0884 31.9913 75.12 41.1744 69.5105 46.9256C67.7591 43.9104 64.4844 41.9702 60.8885 41.9702H57.1079C53.4999 41.9702 50.2453 43.9123 48.4939 46.934C42.8901 41.1963 42.9244 31.9738 48.6107 26.2875ZM34.6606 67.3625H38.4526C41.1735 67.3625 43.6507 68.8122 45.0087 71.112C42.5506 72.8502 39.6298 73.7987 36.5572 73.7987C33.4871 73.7987 30.5678 72.8513 28.1102 71.1146C29.4521 68.8134 31.9275 67.3625 34.6606 67.3625Z" fill="white"></path><defs><linearGradient id="paint0_linear_337_2433" x1="14" y1="0.624023" x2="74.5" y2="95.624" gradientUnits="userSpaceOnUse"><stop stop-color="#40BCD4"></stop><stop offset="1" stop-color="#B7F275"></stop></linearGradient></defs></svg>