<svg xmlns="http://www.w3.org/2000/svg" width="95" height="95" viewBox="0 0 95 95" fill="none"><circle cx="47.5" cy="47.5" r="47.5" fill="url(#paint0_linear_50_8194)"></circle><path d="M43.7232 27.2187C43.7232 26.6677 44.17 26.2209 44.721 26.2209H60.3261C60.8772 26.2209 61.3239 26.6677 61.3239 27.2187C61.3239 27.7698 60.8772 28.2165 60.3261 28.2165H44.721C44.17 28.2165 43.7232 27.7699 43.7232 27.2187ZM35.4973 29.3467C35.6921 29.5415 35.9474 29.6389 36.2028 29.6389C36.4583 29.6389 36.7136 29.5415 36.9084 29.3467L39.967 26.288C40.3568 25.8984 40.3567 25.2667 39.967 24.877C39.5774 24.4874 38.9456 24.4874 38.556 24.877L36.2029 27.2302L35.3791 26.4064C34.9895 26.0168 34.3578 26.0168 33.9681 26.4064C33.5784 26.796 33.5785 27.4278 33.9681 27.8174L35.4973 29.3467ZM44.721 38.8589H60.3261C60.8772 38.8589 61.3239 38.4122 61.3239 37.8611C61.3239 37.3101 60.8772 36.8633 60.3261 36.8633H44.721C44.17 36.8633 43.7232 37.3101 43.7232 37.8611C43.7232 38.4122 44.17 38.8589 44.721 38.8589ZM35.4973 40.0959C35.6921 40.2908 35.9474 40.3882 36.2028 40.3882C36.4583 40.3882 36.7136 40.2908 36.9084 40.0959L39.967 37.0373C40.3568 36.6477 40.3567 36.016 39.967 35.6263C39.5774 35.2367 38.9456 35.2367 38.556 35.6263L36.2029 37.9795L35.3791 37.1557C34.9895 36.766 34.3578 36.766 33.9681 37.1557C33.5784 37.5453 33.5785 38.1771 33.9681 38.5667L35.4973 40.0959ZM75.0727 57.7965L70.6603 60.3439C70.2033 60.6078 69.6954 60.7426 69.1797 60.7426C68.9199 60.7426 68.6584 60.7085 68.4003 60.6393C67.6303 60.433 66.9876 59.9407 66.5908 59.2536L66.4701 59.0446L64.238 60.1843C64.9054 61.2425 64.8089 62.5473 64.2224 63.5556C63.9276 64.0624 63.5062 64.499 63.0015 64.8006C63.2942 65.2798 63.4497 65.8292 63.4476 66.4143C63.4431 67.627 62.7603 68.7998 61.7078 69.4022C61.1231 69.7368 60.4764 69.8667 59.829 69.7918C59.7958 70.3359 59.6283 70.8705 59.3545 71.3406C58.7756 72.3346 57.7097 73.0536 56.4837 73.0222C56.4706 73.6098 56.2991 74.1914 56.0039 74.6982C55.4384 75.6689 54.4096 76.3809 53.2187 76.3809C52.6763 76.3809 52.1002 76.2331 51.5191 75.8948L48.8839 74.3603L48.3712 75.0892C47.729 76.0022 46.788 76.5093 45.7565 76.5093C45.662 76.5093 45.5667 76.505 45.4708 76.4964C44.2878 76.3903 43.1984 75.6391 42.6748 74.5744C41.5634 75.1488 40.2707 74.9397 39.316 74.2682C38.6995 73.8345 38.2166 73.2032 37.9964 72.4763C37.0798 72.6767 36.1196 72.4346 35.3684 71.9062C34.4327 71.248 33.8054 70.1342 33.936 68.9226C33.3476 68.8609 32.7788 68.6395 32.2961 68.3C30.9585 67.359 30.2512 65.4866 31.4876 63.729L31.5724 63.6084L28.2646 59.4776C27.8647 60.0473 27.2828 60.4563 26.5994 60.6394C26.3415 60.7086 26.0797 60.7427 25.82 60.7427C25.3044 60.7427 24.7964 60.608 24.3392 60.3441L19.927 57.7965C18.5044 56.9754 18.0152 55.1498 18.8365 53.727L26.5804 40.3141C26.8184 39.902 27.1409 39.5687 27.5132 39.3224V19.4885C27.5132 18.9375 27.96 18.4907 28.511 18.4907H66.4885C67.0396 18.4907 67.4864 18.9375 67.4864 19.4885V39.3224C67.8587 39.5686 68.1813 39.9019 68.4192 40.314L76.1631 53.7269C76.9844 55.1498 76.4952 56.9752 75.0727 57.7965ZM29.5088 20.4863V38.8453C29.8999 38.8909 30.288 39.0146 30.6499 39.2236L35.0623 41.7711C35.7496 42.1679 36.2417 42.8105 36.448 43.5806C36.5766 44.0607 36.5842 44.5534 36.4757 45.0228L42.0078 46.999C44.3411 44.9133 46.0623 44.1723 49.6129 44.9539C52.9414 45.6866 55.7334 45.6934 58.5113 44.9623C58.4168 44.5111 58.4282 44.0401 58.5514 43.5805C58.7577 42.8103 59.2499 42.1676 59.9372 41.771L64.3495 39.2235C64.7115 39.0145 65.0996 38.8909 65.4906 38.8453V20.4863H29.5088ZM26.6806 58.2558L34.4245 44.8429C34.5547 44.6172 34.5889 44.3524 34.5205 44.0972C34.4522 43.8421 34.2902 43.6297 34.0645 43.4994L29.6523 40.9519C29.4979 40.8628 29.3289 40.8204 29.1621 40.8204C28.8219 40.8204 28.4907 40.9968 28.3087 41.3119L20.5648 54.7248C20.2937 55.1945 20.4552 55.7972 20.9248 56.0682L25.3372 58.6159C25.5629 58.7462 25.8278 58.7804 26.0829 58.7118C26.3381 58.6434 26.5504 58.4815 26.6806 58.2558ZM35.2393 66.3686L37.5325 63.1085C38.2294 62.1144 37.3828 61.4434 37.206 61.319C37.029 61.1945 36.1109 60.6245 35.4113 61.6191L33.1197 64.8768C32.4199 65.8717 33.2673 66.5431 33.4443 66.6676C33.6211 66.7922 34.5394 67.3617 35.2393 66.3686ZM38.5065 69.6974L41.7099 65.1432L42.197 64.4507C42.8968 63.4558 42.0493 62.7844 41.8723 62.6599C41.6952 62.5353 40.7769 61.9647 40.0769 62.9595L39.1655 64.2553C39.1654 64.2556 39.1657 64.2551 39.1655 64.2553L39.1648 64.2566L36.8716 67.5167L36.192 68.483C35.4921 69.478 36.3396 70.1494 36.5166 70.2739C36.6936 70.3983 37.6121 70.9688 38.3119 69.9742L38.5065 69.6974ZM42.9845 71.3049C42.9852 71.3039 42.986 71.3029 42.9867 71.3019L44.1358 69.6681L45.4613 67.7838C46.1609 66.7891 45.3137 66.1177 45.1369 65.9931C44.9601 65.8689 44.0429 65.2984 43.3432 66.2901L43.3422 66.2916L40.1389 70.8456L40.1383 70.8466C39.4402 71.8408 40.2871 72.5117 40.4641 72.6362C40.641 72.7607 41.5595 73.3314 42.2592 72.3365L42.9845 71.3049ZM47.563 70.5167C47.386 70.3922 46.4682 69.8218 45.7686 70.8156L44.619 72.4501C44.3269 72.8654 44.271 73.2752 44.4531 73.6679C44.6622 74.1187 45.154 74.4647 45.6489 74.5089C46.0799 74.5476 46.4467 74.3565 46.739 73.9412L47.8879 72.3077C48.5875 71.3127 47.74 70.6412 47.563 70.5167ZM62.0446 60.7897L49.7059 53.6476C48.5967 53.007 47.5003 53.4686 45.803 54.2742C45.7206 54.3132 45.6383 54.3524 45.5557 54.3913C45.4319 54.64 45.3069 54.907 45.1768 55.1849C44.536 56.5541 43.8096 58.1059 42.5531 58.7841C41.0742 59.5822 39.7545 59.7041 38.837 59.1268C38.4147 58.8611 37.7165 58.2005 37.7847 56.7614L38.0489 51.2C38.0609 50.9465 38.1691 50.7072 38.3515 50.5306C38.8704 50.028 39.336 49.5692 39.7864 49.1255C39.9923 48.9227 40.1905 48.7275 40.384 48.538L35.5851 46.8236L29.3443 57.633L32.7679 61.9083L33.779 60.4708C35.0149 58.7134 37.0158 58.7461 38.3535 59.686C38.7889 59.992 39.1576 60.3966 39.4142 60.8638C40.5768 60.118 41.9939 60.3054 43.0204 61.0274C43.8818 61.6332 44.4818 62.6254 44.47 63.7242C45.1202 63.7569 45.7549 63.9874 46.2855 64.3608C47.4691 65.1939 48.159 66.756 47.4448 68.3227C47.8987 68.4234 48.3316 68.6171 48.7112 68.8842C49.8506 69.6858 50.5317 71.1627 49.9454 72.669L52.5232 74.1701C53.5745 74.782 54.1707 73.8805 54.2796 73.6935C54.3885 73.5067 54.8781 72.544 53.8296 71.9315L53.8282 71.9306C53.8281 71.9305 53.8285 71.9307 53.8282 71.9306L50.506 69.9964C50.0298 69.7191 49.8686 69.1083 50.1458 68.6321C50.4231 68.1559 51.0339 67.9948 51.5102 68.2719L54.8319 70.206C54.8317 70.2059 54.832 70.2062 54.8319 70.206L54.8327 70.2066C54.8335 70.2069 54.8342 70.2074 54.835 70.2078L55.8737 70.8128C56.9248 71.4246 57.5211 70.5231 57.6301 70.3363C57.739 70.1493 58.2285 69.1867 57.1799 68.5742L57.1784 68.5733C57.1783 68.5733 57.1786 68.5733 57.1784 68.5733C57.1782 68.5732 57.1777 68.5728 57.1774 68.5727L53.1054 66.2016C52.6292 65.9244 52.468 65.3136 52.7452 64.8374C53.0226 64.3612 53.6334 64.2001 54.1096 64.4772L58.1827 66.8488C58.1836 66.8493 58.1845 66.8498 58.1852 66.8503L59.4889 67.6094C59.9279 67.8651 60.3408 67.8854 60.7165 67.6704C61.1478 67.4236 61.4503 66.904 61.452 66.4071C61.4536 65.9741 61.2319 65.625 60.793 65.3695L59.7401 64.7563C59.7398 64.7562 59.7394 64.7561 59.7392 64.7558L59.7383 64.7553C59.7382 64.7552 59.7384 64.7554 59.7383 64.7553L55.7049 62.4069C55.2287 62.1296 55.0675 61.5189 55.3447 61.0426C55.6221 60.5664 56.2328 60.4053 56.7091 60.6824L60.742 63.0305C61.7933 63.6412 62.3887 62.7394 62.4975 62.5524C62.606 62.3654 63.0953 61.4016 62.0446 60.7897ZM65.4709 57.314L59.3948 46.7897C55.2042 47.9727 51.5888 47.4323 49.184 46.9028C45.6708 46.1299 44.8101 46.9779 41.1871 50.5474C40.8337 50.8955 40.4417 51.2817 40.0235 51.6888L39.7781 56.8565C39.762 57.1952 39.8276 57.3927 39.8998 57.4381C40.0686 57.5441 40.6811 57.5271 41.6052 57.0282C42.2817 56.663 42.8595 55.4285 43.3694 54.3392C43.5544 53.9438 43.7458 53.5352 43.9429 53.1639C44.0453 52.9712 44.2081 52.8174 44.4062 52.7258C44.5868 52.6425 44.7672 52.557 44.9472 52.4714C46.6737 51.6517 48.6307 50.7226 50.7047 51.9199L62.5765 58.7917L65.4709 57.314ZM74.4348 54.7247L66.691 41.3119C66.4198 40.8422 65.817 40.6808 65.3474 40.9519L60.935 43.4994C60.7094 43.6297 60.5475 43.8421 60.479 44.0972C60.4107 44.3524 60.4447 44.6172 60.5751 44.8429L68.319 58.2559C68.4492 58.4815 68.6616 58.6434 68.9168 58.7118C69.1722 58.7806 69.4368 58.7462 69.6624 58.6159L74.0749 56.0683C74.5445 55.7972 74.7061 55.1944 74.4348 54.7247Z" fill="white"></path><defs><linearGradient id="paint0_linear_50_8194" x1="47.5" y1="0" x2="47.5" y2="95" gradientUnits="userSpaceOnUse"><stop offset="0" stop-color="#4CBDD3"></stop><stop offset="1" stop-color="#C9EF5F"></stop></linearGradient></defs></svg>