<svg xmlns="http://www.w3.org/2000/svg" width="95" height="95" viewBox="0 0 95 95" fill="none"><circle cx="47.5" cy="47.5" r="47.5" fill="url(#paint0_linear_50_8193)"></circle><path d="M38.0283 38.558V27.8637C38.0283 26.8676 38.8357 26.0602 39.8318 26.0602H57.3397C58.3358 26.0602 59.1432 26.8676 59.1432 27.8637V57.7366" stroke="white" stroke-width="2" stroke-linecap="round" stroke-linejoin="round"></path><line x1="37.0283" y1="60.6407" x2="37.0283" y2="43.8786" stroke="white" stroke-width="2" stroke-linecap="round" stroke-linejoin="round"></line><line x1="25.9307" y1="57.6036" x2="25.9307" y2="60.6407" stroke="white" stroke-width="2" stroke-linecap="round" stroke-linejoin="round"></line><path d="M30.5371 50.9966C30.5371 54.0932 28.0268 56.6036 24.9302 56.6036C21.8336 56.6036 19.3232 54.0932 19.3232 50.9966C19.3232 48.8511 22.0149 43.5042 23.6683 40.4222C24.2086 39.415 25.6517 39.415 26.192 40.4222C27.8455 43.5042 30.5371 48.851 30.5371 50.9966Z" stroke="white" stroke-width="2" stroke-linecap="round" stroke-linejoin="round"></path><line x1="34.1846" y1="58.289" x2="34.1846" y2="60.6407" stroke="white" stroke-width="2" stroke-linecap="round" stroke-linejoin="round"></line><path d="M29.7736 47.9748C30.5162 46.3172 31.4087 44.588 32.0945 43.3097C32.5614 42.4395 33.808 42.4395 34.2749 43.3097C35.7033 45.9724 38.0287 50.5916 38.0287 52.4451C38.0287 55.1204 35.86 57.289 33.1847 57.289C31.391 57.289 29.8251 56.3141 28.9878 54.8653" stroke="white" stroke-width="2" stroke-linecap="round" stroke-linejoin="round"></path><path d="M53.3955 61.6407C53.3955 61.6407 53.7195 58.9155 56.4021 57.9178C57.6894 57.4389 58.7927 57.5913 59.5737 57.863C60.1632 58.0679 60.8155 57.7627 60.9982 57.1659C61.2544 56.3294 61.8489 55.3032 63.217 54.6893C64.5806 54.0774 65.9249 54.393 66.8506 54.7942C67.5289 55.0882 68.3268 54.9119 68.8184 54.3597C69.4127 53.692 70.3966 52.936 71.9026 52.7183C74.9091 52.2841 76.4793 54.1548 76.9839 56.6036V61.6407H53.3955Z" stroke="white" stroke-width="2" stroke-linecap="round" stroke-linejoin="round"></path><path d="M53.3955 61.6407L49.7876 74.7527H37.3604L47.5 61.6407H53.3955Z" stroke="white" stroke-width="2" stroke-linecap="round" stroke-linejoin="round"></path><line x1="54.3955" y1="33.14" x2="54.3955" y2="34.6142" stroke="white" stroke-width="2" stroke-linecap="round" stroke-linejoin="round"></line><line x1="49.5859" y1="33.14" x2="49.5859" y2="34.6142" stroke="white" stroke-width="2" stroke-linecap="round" stroke-linejoin="round"></line><line x1="44.7764" y1="33.14" x2="44.7764" y2="34.6142" stroke="white" stroke-width="2" stroke-linecap="round" stroke-linejoin="round"></line><line x1="54.3955" y1="41.9199" x2="54.3955" y2="43.3941" stroke="white" stroke-width="2" stroke-linecap="round" stroke-linejoin="round"></line><line x1="49.5859" y1="41.9199" x2="49.5859" y2="43.3941" stroke="white" stroke-width="2" stroke-linecap="round" stroke-linejoin="round"></line><line x1="44.7764" y1="41.9199" x2="44.7764" y2="43.3941" stroke="white" stroke-width="2" stroke-linecap="round" stroke-linejoin="round"></line><line x1="54.3955" y1="50.6999" x2="54.3955" y2="52.1741" stroke="white" stroke-width="2" stroke-linecap="round" stroke-linejoin="round"></line><line x1="49.5859" y1="50.6999" x2="49.5859" y2="52.1741" stroke="white" stroke-width="2" stroke-linecap="round" stroke-linejoin="round"></line><line x1="44.7764" y1="50.6999" x2="44.7764" y2="52.1741" stroke="white" stroke-width="2" stroke-linecap="round" stroke-linejoin="round"></line><line x1="73.873" y1="40.7335" x2="73.873" y2="40.7035" stroke="white" stroke-width="2" stroke-linecap="round" stroke-linejoin="round"></line><line x1="69.0635" y1="40.7335" x2="69.0635" y2="40.7035" stroke="white" stroke-width="2" stroke-linecap="round" stroke-linejoin="round"></line><line x1="64.2539" y1="40.7335" x2="64.2539" y2="40.7035" stroke="white" stroke-width="2" stroke-linecap="round" stroke-linejoin="round"></line><path d="M63.5811 34.6296H75.1807C76.1767 34.6296 76.9841 35.437 76.9841 36.433V56.6036" stroke="white" stroke-width="2" stroke-linecap="round" stroke-linejoin="round"></path><line x1="73.8735" y1="48.0848" x2="73.8735" y2="48.0548" stroke="white" stroke-width="2" stroke-linecap="round" stroke-linejoin="round"></line><line x1="69.064" y1="48.0848" x2="69.064" y2="48.0548" stroke="white" stroke-width="2" stroke-linecap="round" stroke-linejoin="round"></line><line x1="64.2539" y1="48.0848" x2="64.2539" y2="48.0548" stroke="white" stroke-width="2" stroke-linecap="round" stroke-linejoin="round"></line><line x1="68.1592" y1="23.7905" x2="69.4998" y2="23.7905" stroke="white" stroke-width="2" stroke-linecap="round" stroke-linejoin="round"></line><line x1="24.2598" y1="22.3651" x2="25.6004" y2="22.3651" stroke="white" stroke-width="2" stroke-linecap="round" stroke-linejoin="round"></line><line x1="31.5371" y1="19.2473" x2="32.8778" y2="19.2473" stroke="white" stroke-width="2" stroke-linecap="round" stroke-linejoin="round"></line><path d="M76.9841 74.7523H37.3604L47.5 61.6404H76.9841" stroke="white" stroke-width="2" stroke-linecap="round" stroke-linejoin="round"></path><path d="M18.0161 61.6404H47.5002L37.3605 74.7523H18.0161" stroke="white" stroke-width="2" stroke-linecap="round" stroke-linejoin="round"></path><defs><linearGradient id="paint0_linear_50_8193" x1="47.5" y1="0" x2="47.5" y2="95" gradientUnits="userSpaceOnUse"><stop offset="0" stop-color="#4CBDD3"></stop><stop offset="1" stop-color="#C9EF5F"></stop></linearGradient></defs></svg>