<svg xmlns="http://www.w3.org/2000/svg" width="95" height="96" viewBox="0 0 95 96" fill="none"><circle cx="47.5" cy="48.2109" r="47.5" fill="url(#paint0_linear_142_3846)"></circle><path d="M72.025 28.5563C72.028 27.8901 71.7629 27.2508 71.2892 26.7823L68.9284 24.4213C68.462 23.9499 67.8264 23.685 67.1633 23.6855H67.1552C66.4961 23.686 65.8649 23.9511 65.4032 24.4213L54.6939 35.1306H33.6022V26.1381C33.6022 24.7835 32.5042 23.6855 31.1497 23.6855H29.5147C25.9044 23.6896 22.9786 26.6153 22.9746 30.2256V66.4011C23.1792 69.9839 26.1634 72.7733 29.7518 72.736H69.5726C70.927 72.736 72.025 71.638 72.025 70.2835V37.5832C72.025 36.2287 70.927 35.1306 69.5726 35.1306H66.466L71.2893 30.3074C71.7586 29.8454 72.0236 29.2148 72.025 28.5563ZM52.2251 44.1233C52.052 44.1468 51.8781 44.086 51.7574 43.9598C51.6357 43.8389 51.5756 43.6692 51.5939 43.4987L51.9038 40.7192C51.9168 40.6611 51.9331 40.6037 51.9528 40.5475L55.173 43.7677C55.1199 43.7791 55.0716 43.8053 55.016 43.8118L52.2251 44.1233ZM56.5079 42.7882L52.9305 39.21L61.8414 30.2992L65.4171 33.8741L56.5079 42.7882ZM62.9941 29.1424L64.2064 27.9308L67.7806 31.5058L66.569 32.7181L62.9941 29.1424ZM24.6096 30.2256C24.6124 27.5178 26.8068 25.3232 29.5147 25.3206H31.1497C31.6011 25.3206 31.9672 25.6866 31.9672 26.138V58.8383C31.9672 59.2898 31.6012 59.6558 31.1497 59.6558H29.5147C27.6366 59.6552 25.8493 60.4636 24.6096 61.8745V30.2256ZM69.5725 36.7657C70.024 36.7657 70.3901 37.1317 70.3901 37.5832V70.2835C70.3901 70.735 70.0241 71.101 69.5725 71.101H29.7518C27.053 71.1464 24.7921 69.0688 24.6096 66.3758V66.1959C24.6124 63.4881 26.8068 61.2936 29.5147 61.2909H31.1497C32.5042 61.2909 33.6022 60.1929 33.6022 58.8384V36.7657H53.0588L51.2023 38.6222C50.684 39.1329 50.3579 39.8069 50.2793 40.5303L49.9695 43.3155C49.944 43.5871 49.9698 43.8611 50.0455 44.1232H36.0547C35.6033 44.1232 35.2372 44.4892 35.2372 44.9407C35.2372 45.3922 35.6032 45.7582 36.0547 45.7582H38.5073V67.8309C38.5073 68.2824 38.8733 68.6485 39.3248 68.6485C39.7764 68.6485 40.1424 68.2825 40.1424 67.8309V56.3858H49.1349V62.9259H43.4123C42.9609 62.9259 42.5949 63.2919 42.5949 63.7434C42.5949 64.1948 42.9609 64.5609 43.4123 64.5609H59.7625C60.6655 64.5609 61.3975 63.8289 61.3975 62.9259V50.6633C61.3975 50.2119 61.0315 49.8458 60.58 49.8458C60.1285 49.8458 59.7625 50.2118 59.7625 50.6633V54.7508H40.1423V45.7583H52.1662C52.246 45.7584 52.3257 45.7541 52.4049 45.7452L55.1983 45.4272C55.9073 45.3468 56.5691 45.0317 57.0786 44.532L64.8351 36.7657L69.5725 36.7657ZM59.7625 56.3858V62.9259H50.7698V56.3858H59.7625ZM70.1366 29.1481L68.9365 30.349L65.3624 26.7749L66.5633 25.574C66.7204 25.4127 66.9357 25.3214 67.1609 25.3206C67.3901 25.3211 67.6095 25.4136 67.7699 25.5773L70.1342 27.9366C70.2986 28.0985 70.3908 28.3198 70.3901 28.5506C70.3894 28.7757 70.298 28.9911 70.1366 29.1481Z" fill="white"></path><defs><linearGradient id="paint0_linear_142_3846" x1="47.5" y1="0.710938" x2="47.5" y2="113.548" gradientUnits="userSpaceOnUse"><stop offset="0" stop-color="#4CBDD3"></stop><stop offset="1" stop-color="#C9EF5F"></stop></linearGradient></defs></svg>