<svg xmlns="http://www.w3.org/2000/svg" width="95" height="96" viewBox="0 0 95 96" fill="none"><circle cx="47.5" cy="48.126" r="47.5" fill="url(#paint0_linear_337_2450)"></circle><path d="M65.5327 38.29H52.4128V28.9313C52.4128 27.405 51.8193 25.9767 50.7456 24.914C49.6705 23.8388 48.2437 23.2468 46.7276 23.2468H28.6852C25.5505 23.2468 23 25.7973 23 28.9321V40.9603C23 44.095 25.5505 46.6455 28.6852 46.6455H29.0141V49.9815C29.0141 51.0794 29.6696 52.0543 30.6829 52.4647C31.0094 52.5962 31.3485 52.6604 31.6845 52.6604C32.3861 52.6604 33.0697 52.3825 33.5701 51.8633L37.3901 48.0645V59.2415C37.3901 62.8633 40.3368 65.8101 43.9586 65.8101H53.5052L59.835 72.1053C60.4043 72.6927 61.1678 73.0051 61.9485 73.0051C62.3213 73.0051 62.6972 72.9338 63.0574 72.7882C64.1827 72.3332 64.9086 71.2494 64.9086 70.0294V65.8101H65.5319C69.1537 65.8101 72.1005 62.8633 72.1005 59.2415V44.8585C72.1013 41.2367 69.1545 38.29 65.5327 38.29ZM37.3955 44.7465L31.8975 50.2133C31.8019 50.3127 31.6899 50.3386 31.5639 50.2861C31.4722 50.2493 31.3634 50.1663 31.3634 49.9807V45.4701C31.3634 44.8209 30.8379 44.2955 30.1888 44.2955H28.6852C26.8458 44.2955 25.3493 42.799 25.3493 40.9595V28.9313C25.3493 27.0918 26.8458 25.5953 28.6852 25.5953H46.7276C47.6156 25.5953 48.4528 25.943 49.0886 26.5789C49.7174 27.2014 50.0636 28.037 50.0636 28.9313V38.29H43.9586C42.2076 38.29 40.5592 38.9744 39.3165 40.2164C38.1011 41.4317 37.4245 43.0371 37.3955 44.7465ZM69.752 59.2407C69.752 61.5673 67.8593 63.46 65.5327 63.46H63.7347C63.0863 63.46 62.5601 63.9863 62.5601 64.6347V70.0286C62.5601 70.4131 62.2915 70.5642 62.1764 70.6104C62.0644 70.6551 61.7762 70.7318 61.5076 70.4546L54.8193 63.8022C54.5992 63.5838 54.3016 63.46 53.9908 63.46H43.9586C41.632 63.46 39.7393 61.5673 39.7393 59.2407V44.8585C39.7393 43.734 40.1794 42.6761 40.9774 41.8781C41.7761 41.0793 42.8349 40.6392 43.9586 40.6392H65.5327C67.8593 40.6392 69.752 42.532 69.752 44.8585L69.752 59.2407Z" fill="white"></path><path d="M47.4732 50.3347C46.5178 50.3347 45.7402 51.1131 45.7402 52.0677C45.7402 53.0223 46.5186 53.8007 47.4732 53.8007C48.4294 53.8007 49.2078 53.0223 49.2078 52.0677C49.2078 51.1131 48.4294 50.3347 47.4732 50.3347Z" fill="white"></path><path d="M54.7447 50.3347C53.7893 50.3347 53.0117 51.1131 53.0117 52.0677C53.0117 53.0223 53.7901 53.8007 54.7447 53.8007C55.7008 53.8007 56.4792 53.0223 56.4792 52.0677C56.4792 51.1131 55.7016 50.3347 54.7447 50.3347Z" fill="white"></path><path d="M62.0162 50.3347C61.0608 50.3347 60.2832 51.1131 60.2832 52.0677C60.2832 53.0223 61.0616 53.8007 62.0162 53.8007C62.9723 53.8007 63.7507 53.0223 63.7507 52.0677C63.7507 51.1131 62.9723 50.3347 62.0162 50.3347Z" fill="white"></path><defs><linearGradient id="paint0_linear_337_2450" x1="18.5" y1="9.12402" x2="77" y2="87.624" gradientUnits="userSpaceOnUse"><stop stop-color="#40BCD4"></stop><stop offset="1" stop-color="#B7F275"></stop></linearGradient></defs></svg>