<svg xmlns="http://www.w3.org/2000/svg" width="95" height="95" viewBox="0 0 95 95" fill="none"><g clip-path="url(#clip0_251_8615)"><path d="M47.5 95C73.7335 95 95 73.7335 95 47.5C95 21.2665 73.7335 0 47.5 0C21.2665 0 0 21.2665 0 47.5C0 73.7335 21.2665 95 47.5 95Z" fill="url(#paint0_linear_251_8615)"></path><path d="M68.2108 19H55.3398C54.6086 19.0008 53.9075 19.2916 53.3905 19.8087C52.8734 20.3257 52.5826 21.0268 52.5818 21.758V23.6C51.6065 23.6 50.6711 23.9875 49.9814 24.6771C49.2917 25.3668 48.9043 26.3022 48.9043 27.2775C48.9043 28.2528 49.2917 29.1882 49.9814 29.8779C50.6711 30.5675 51.6065 30.955 52.5818 30.955V35.555H59.9368V33.71C59.948 33.2298 60.1466 32.7731 60.4902 32.4374C60.8337 32.1018 61.295 31.9139 61.7753 31.9139C62.2556 31.9139 62.7169 32.1018 63.0604 32.4374C63.404 32.7731 63.6026 33.2298 63.6138 33.71V35.549H68.2138C68.945 35.5482 69.6461 35.2574 70.1631 34.7403C70.6802 34.2233 70.971 33.5222 70.9718 32.791V21.758C70.971 21.0263 70.6798 20.3248 70.1621 19.8076C69.6444 19.2905 68.9425 19 68.2108 19ZM69.1298 32.79C69.1295 33.0337 69.0326 33.2673 68.8603 33.4395C68.688 33.6118 68.4544 33.7087 68.2108 33.709H65.4528C65.4528 32.7337 65.0653 31.7983 64.3757 31.1086C63.686 30.419 62.7506 30.0315 61.7753 30.0315C60.8 30.0315 59.8646 30.419 59.1749 31.1086C58.4852 31.7983 58.0978 32.7337 58.0978 33.709H54.4208V29.109H52.5818C52.1016 29.0978 51.6449 28.8992 51.3092 28.5556C50.9736 28.2121 50.7857 27.7508 50.7857 27.2705C50.7857 26.7902 50.9736 26.3289 51.3092 25.9854C51.6449 25.6418 52.1016 25.4432 52.5818 25.432H54.4208V21.758C54.4211 21.5143 54.518 21.2807 54.6903 21.1085C54.8625 20.9362 55.0961 20.8393 55.3398 20.839H68.2108C68.4544 20.8393 68.688 20.9362 68.8603 21.1085C69.0326 21.2807 69.1295 21.5143 69.1298 21.758V32.79Z" fill="white"></path><path d="M52.5817 37.3871C51.6061 37.3871 50.6705 37.7744 49.9803 38.4638C49.2901 39.1533 48.9018 40.0885 48.9007 41.0641H45.2267V36.4641H43.3877C42.9075 36.4529 42.4508 36.2543 42.1151 35.9107C41.7795 35.5672 41.5916 35.1059 41.5916 34.6256C41.5916 34.1453 41.7795 33.6841 42.1151 33.3405C42.4508 32.9969 42.9075 32.7983 43.3877 32.7871H45.2267V24.5161H42.7617C39.0981 24.5164 35.5243 25.6495 32.5299 27.7603C29.5355 29.8711 27.2671 32.8562 26.0356 36.3065C24.804 39.7569 24.6696 43.5036 25.6506 47.0334C26.6317 50.5631 28.6803 53.7031 31.5157 56.0231L35.1157 58.9681V61.4601C34.5613 61.6532 34.0835 62.0192 33.7527 62.5041C33.4218 62.9891 33.2553 63.5674 33.2777 64.1541C33.3001 64.7407 33.5102 65.3047 33.8771 65.763C34.2439 66.2213 34.7482 66.5498 35.3157 66.7001C35.1737 67.0478 35.105 67.4211 35.1138 67.7966C35.1226 68.1721 35.2087 68.5418 35.3669 68.8824C35.525 69.2231 35.7517 69.5275 36.0329 69.7766C36.314 70.0257 36.6435 70.2141 37.0007 70.3301C37.1866 71.8932 37.9393 73.3338 39.1162 74.3791C40.2932 75.4243 41.8126 76.0017 43.3867 76.0017C44.9608 76.0017 46.4802 75.4243 47.6572 74.3791C48.8341 73.3338 49.5868 71.8932 49.7727 70.3301C50.1301 70.2141 50.4597 70.0257 50.7409 69.7765C51.0221 69.5274 51.249 69.2229 51.4072 68.8821C51.5654 68.5414 51.6517 68.1716 51.6605 67.796C51.6694 67.4204 51.6007 67.047 51.4587 66.6991C52.0262 66.5488 52.5305 66.2203 52.8974 65.762C53.2642 65.3037 53.4743 64.7397 53.4967 64.1531C53.5191 63.5664 53.3526 62.9881 53.0217 62.5031C52.6909 62.0182 52.2131 61.6522 51.6587 61.4591V58.9671L55.2587 56.0221C57.2985 54.3597 58.9417 52.2633 60.0688 49.8855C61.1958 47.5077 61.7783 44.9085 61.7737 42.2771V41.0641H56.2587C56.2576 40.0892 55.8699 39.1546 55.1806 38.4653C54.4912 37.7759 53.5566 37.3882 52.5817 37.3871ZM42.7617 26.3551H43.3877V30.9551C42.4124 30.9551 41.477 31.3426 40.7873 32.0322C40.0977 32.7219 39.7102 33.6573 39.7102 34.6326C39.7102 35.6079 40.0977 36.5433 40.7873 37.233C41.477 37.9227 42.4124 38.3101 43.3877 38.3101V41.0681H39.7107C39.7107 40.0928 39.3233 39.1574 38.6336 38.4677C37.9439 37.7781 37.0085 37.3906 36.0332 37.3906C35.0579 37.3906 34.1225 37.7781 33.4328 38.4677C32.7432 39.1574 32.3557 40.0928 32.3557 41.0681H26.8857C27.1952 37.068 29.0015 33.3317 31.9442 30.6045C34.8869 27.8774 38.7496 26.36 42.7617 26.3551ZM32.6787 54.6001C30.9316 53.1762 29.5082 51.3961 28.5034 49.3786C27.4986 47.361 26.9355 45.1524 26.8517 42.9001H34.1937V41.0641C34.2049 40.5839 34.4035 40.1272 34.7471 39.7916C35.0907 39.4559 35.5519 39.268 36.0322 39.268C36.5125 39.268 36.9738 39.4559 37.3173 39.7916C37.6609 40.1272 37.8595 40.5839 37.8707 41.0641V42.9031H43.3867V46.5801C42.4114 46.5801 41.476 46.9676 40.7863 47.6572C40.0967 48.3469 39.7092 49.2823 39.7092 50.2576C39.7092 51.2329 40.0967 52.1683 40.7863 52.858C41.476 53.5477 42.4114 53.9351 43.3867 53.9351V61.2901H36.9527V58.0961L32.6787 54.6001ZM43.3877 74.1611C42.3293 74.1587 41.304 73.7918 40.4845 73.1221C39.6649 72.4524 39.101 71.5208 38.8877 70.4841H47.8957C47.6821 71.5221 47.1171 72.4547 46.2958 73.1246C45.4746 73.7944 44.4475 74.1605 43.3877 74.1611ZM48.9007 68.6451H37.8717C37.6278 68.6451 37.394 68.5482 37.2215 68.3758C37.0491 68.2034 36.9522 67.9695 36.9522 67.7256C36.9522 67.4817 37.0491 67.2479 37.2215 67.0754C37.394 66.903 37.6278 66.8061 37.8717 66.8061H48.9007C49.1446 66.8061 49.3785 66.903 49.5509 67.0754C49.7233 67.2479 49.8202 67.4817 49.8202 67.7256C49.8202 67.9695 49.7233 68.2034 49.5509 68.3758C49.3785 68.5482 49.1446 68.6451 48.9007 68.6451ZM50.7397 64.9681H36.0327C35.7888 64.9681 35.555 64.8712 35.3825 64.6988C35.2101 64.5264 35.1132 64.2925 35.1132 64.0486C35.1132 63.8047 35.2101 63.5709 35.3825 63.3984C35.555 63.226 35.7888 63.1291 36.0327 63.1291H50.7427C50.9866 63.1291 51.2205 63.226 51.3929 63.3984C51.5653 63.5709 51.6622 63.8047 51.6622 64.0486C51.6622 64.2925 51.5653 64.5264 51.3929 64.6988C51.2205 64.8712 50.9866 64.9681 50.7427 64.9681H50.7397ZM54.1007 54.6001L49.8277 58.1001V61.2941H45.2277V52.0971H43.3877C42.9075 52.0859 42.4508 51.8873 42.1151 51.5437C41.7795 51.2002 41.5916 50.7389 41.5916 50.2586C41.5916 49.7783 41.7795 49.3171 42.1151 48.9735C42.4508 48.6299 42.9075 48.4313 43.3877 48.4201H45.2267V42.9031H50.7427V41.0641C50.737 40.8191 50.7803 40.5754 50.8701 40.3473C50.96 40.1192 51.0945 39.9114 51.2658 39.7361C51.437 39.5608 51.6417 39.4215 51.8676 39.3263C52.0935 39.2312 52.3361 39.1822 52.5812 39.1822C52.8263 39.1822 53.069 39.2312 53.2949 39.3263C53.5208 39.4215 53.7254 39.5608 53.8966 39.7361C54.0679 39.9114 54.2024 40.1192 54.2923 40.3473C54.3821 40.5754 54.4254 40.8191 54.4197 41.0641V42.9031H59.9197C59.8365 45.1543 59.2745 47.3619 58.2711 49.3789C57.2677 51.3958 55.846 53.1758 54.1007 54.6001Z" fill="white"></path></g><defs><linearGradient id="paint0_linear_251_8615" x1="47.5" y1="0" x2="99.56" y2="112.86" gradientUnits="userSpaceOnUse"><stop stop-color="#4CBDD3"></stop><stop offset="1" stop-color="#C9EF5F"></stop></linearGradient><clipPath id="clip0_251_8615"><rect width="95" height="95" fill="white"></rect></clipPath></defs></svg>