<svg xmlns="http://www.w3.org/2000/svg" width="95" height="95" viewBox="0 0 95 95" fill="none"><circle cx="47.5" cy="47.5" r="47.5" fill="url(#paint0_linear_50_7214)"></circle><path d="M76.9003 35.3209H74.5939C74.5664 35.2952 74.538 35.2705 74.5067 35.2476L66.8163 29.6872C66.6652 29.5776 66.4833 29.5188 66.2962 29.5188H58.076L55.6306 27.8524C54.6848 27.2078 53.6853 28.6742 54.6311 29.3188L63.4316 35.3162H31.709L47.4882 24.6627C47.5195 24.666 47.5517 24.6683 47.5838 24.6683C47.6062 24.6683 47.6281 24.6664 47.6501 24.665L50.74 26.6915C51.697 27.3193 52.6709 25.8352 51.7133 25.2075L48.4709 23.0811V21.0453C48.6295 21.0649 48.7871 21.0742 48.9429 21.0742C50.385 21.0742 52.2352 19.8159 53.5967 20.6008C54.1713 20.931 54.9273 20.4992 54.9273 19.8317V16.3883C54.9273 16.0707 54.7575 15.7778 54.4828 15.6192C53.4749 15.039 52.3635 15.0838 51.2689 15.3426C50.3846 15.5525 49.3963 16.0394 48.4709 15.8011C48.408 14.6724 46.6963 14.6239 46.6963 15.7839V23.056L37.1239 29.5188H28.8215C28.635 29.5188 28.4531 29.5781 28.3015 29.6872L20.6115 35.2476C20.5803 35.2705 20.5518 35.2952 20.5243 35.3209H18.1C17.6098 35.3209 17.2124 35.7182 17.2124 36.2084V41.2861C17.2124 41.7763 17.6098 42.1737 18.1 42.1737H18.6027V65.2487C18.6027 66.3933 20.3774 66.3933 20.3774 65.2487V42.1737H31.2324V46.2598C31.2324 46.75 31.6297 47.1473 32.1194 47.1473H34.0718V71.0969H32.1194C31.6297 71.0969 31.2324 71.4943 31.2324 71.9845V74.2913H20.3774V69.5079C20.3774 68.3634 18.6027 68.3634 18.6027 69.5079V75.1788C18.6027 75.6686 18.9996 76.0659 19.4898 76.0659H75.6284C76.9833 76.0659 76.5155 73.0936 76.5155 72.3021C76.5155 69.624 76.5155 44.1036 76.5155 43.1265C76.5155 42.7534 76.2902 41.9801 76.9003 42.1737C77.3905 42.1737 77.7874 41.7763 77.7874 41.2861V36.2084C77.7874 35.7182 77.3905 35.3209 76.9003 35.3209ZM48.4709 17.6028C49.4047 17.7171 50.2946 17.4606 51.0571 17.2409C51.9386 16.9867 52.572 16.8244 53.1526 16.9736V18.6172C52.2189 18.503 51.329 18.759 50.5665 18.9792C49.685 19.2329 49.0516 19.3957 48.4709 19.2459V17.6028ZM60.6803 31.2935H66.0094L71.5791 35.3209H66.5901L60.6803 31.2935ZM29.1088 31.2935H34.4953L28.5305 35.3209H23.5391L29.1088 31.2935ZM40.3421 74.2913H33.007V72.8716H40.3421V74.2913ZM35.8464 71.0969V47.3838H37.6211V71.0969H35.8464ZM49.5702 74.0035H45.548V63.6835C45.548 63.0954 45.8041 62.539 46.2504 62.1561C47.0088 61.5064 48.1099 61.5059 48.8683 62.1561C49.3142 62.539 49.5707 63.0954 49.5707 63.6835L49.5702 74.0035ZM53.0015 71.984V74.2913H51.3449V63.6835C51.3449 62.5767 50.8631 61.5292 50.0231 60.8091C48.5955 59.5853 46.5228 59.5853 45.0951 60.8091C44.2551 61.5292 43.7734 62.5767 43.7734 63.6835V74.2913H42.1167V71.984C42.1167 71.4943 41.7193 71.0969 41.2296 71.0969H39.3957V47.1473H49.5702C50.7152 47.1473 50.7152 45.3727 49.5702 45.3727H33.007V42.1783H62.1112V45.3727H54.3028C53.1582 45.3727 53.1582 47.1473 54.3028 47.1473H55.841V71.0969H53.8886C53.3984 71.0969 53.0015 71.4943 53.0015 71.984ZM59.3903 47.3838V71.0969H57.6156V47.3838H59.3903ZM62.1112 74.2913H54.7762V72.8716H62.1112V74.2913ZM74.7409 74.2913H63.8859V71.984C63.8859 71.4943 63.489 71.0969 62.9988 71.0969H61.1649V47.1473H62.9988C63.489 47.1473 63.8859 46.75 63.8859 46.2598V42.1732H74.7409V74.2913ZM76.0127 40.3985H18.9871V37.0955H76.0127V40.3985Z" fill="white"></path><path d="M47.5594 49.7498C45.635 49.7498 44.0693 51.3155 44.0693 53.2403C44.0693 55.1647 45.635 56.7303 47.5594 56.7303C49.4837 56.7303 51.0494 55.1647 51.0494 53.2403C51.0494 51.3155 49.4837 49.7498 47.5594 49.7498ZM47.5594 54.9557C46.6135 54.9557 45.844 54.1862 45.844 53.2403C45.844 52.2944 46.6135 51.5244 47.5594 51.5244C48.5052 51.5244 49.2748 52.2944 49.2748 53.2403C49.2748 54.1862 48.5052 54.9557 47.5594 54.9557Z" fill="white"></path><path d="M66.3012 56.9618H69.5156C70.0058 56.9618 70.4027 56.5644 70.4027 56.0742V49.6001C70.4027 48.2247 69.2838 47.1058 67.9084 47.1058C66.533 47.1058 65.4141 48.2247 65.4141 49.6001V56.0742C65.4141 56.5644 65.811 56.9618 66.3012 56.9618ZM67.1887 49.6001C67.1887 49.2032 67.5115 48.8805 67.9084 48.8805C68.3053 48.8805 68.628 49.2032 68.628 49.6001V55.1871H67.1887V49.6001Z" fill="white"></path><path d="M66.3012 69.8576H69.5156C70.0058 69.8576 70.4027 69.4603 70.4027 68.9701V62.496C70.4027 61.1206 69.2838 60.0017 67.9084 60.0017C66.533 60.0017 65.4141 61.1206 65.4141 62.496V68.9701C65.4141 69.4603 65.811 69.8576 66.3012 69.8576ZM67.1887 62.496C67.1887 62.0991 67.5115 61.7763 67.9084 61.7763C68.3053 61.7763 68.628 62.0991 68.628 62.496V68.083H67.1887V62.496Z" fill="white"></path><path d="M28.58 56.9618C29.0702 56.9618 29.4676 56.5644 29.4676 56.0742V49.6001C29.4676 48.2247 28.3487 47.1058 26.9733 47.1058C25.5979 47.1058 24.479 48.2247 24.479 49.6001V56.0742C24.479 56.5644 24.8759 56.9618 25.3661 56.9618H28.58ZM26.2536 49.6001C26.2536 49.2032 26.5764 48.8805 26.9733 48.8805C27.3702 48.8805 27.693 49.2032 27.693 49.6001V55.1871H26.2536V49.6001Z" fill="white"></path><path d="M24.479 68.9701C24.479 69.4603 24.8764 69.8576 25.3661 69.8576H28.58C29.0702 69.8576 29.4676 69.4603 29.4676 68.9701V62.496C29.4676 61.1206 28.3487 60.0017 26.9733 60.0017C25.5979 60.0017 24.479 61.1206 24.479 62.496V68.9701ZM26.2536 62.496C26.2536 62.0991 26.5764 61.7763 26.9733 61.7763C27.3702 61.7763 27.693 62.0991 27.693 62.496V68.083H26.2536V62.496Z" fill="white"></path><defs><linearGradient id="paint0_linear_50_7214" x1="47.5" y1="0" x2="47.5" y2="95" gradientUnits="userSpaceOnUse"><stop offset="0" stop-color="#4CBDD3"></stop><stop offset="1" stop-color="#C9EF5F"></stop></linearGradient></defs></svg>