<svg xmlns="http://www.w3.org/2000/svg" width="95" height="96" viewBox="0 0 95 96" fill="none"><circle cx="47.5" cy="48.2109" r="47.5" fill="url(#paint0_linear_142_3848)"></circle><path d="M77.49 34.107C77.23 26.697 71.17 20.577 63.7 20.187C59.6 19.967 55.74 21.387 52.8 24.177C50.52 26.337 49.06 29.097 48.53 32.107H22.03C19.53 32.107 17.5 34.137 17.5 36.637V63.407C17.5 65.907 19.53 67.937 22.03 67.937H24.86C25.58 67.937 26.23 68.367 26.52 69.027L28.68 74.057C29.14 75.137 30.11 75.927 31.26 76.177C31.51 76.227 31.76 76.257 32.01 76.257C32.92 76.257 33.8 75.917 34.48 75.287L41.88 68.407C42.21 68.097 42.65 67.927 43.11 67.927H59.29C61.79 67.927 63.82 65.897 63.82 63.397V59.417C66.47 58.977 68.5 56.677 68.5 53.907V53.157H70.19C70.69 53.157 71.1 52.747 71.1 52.247C71.1 51.747 70.69 51.337 70.19 51.337H68.57C68.82 49.327 69.9 47.477 71.57 46.267C75.44 43.437 77.66 38.887 77.49 34.107ZM60.1 35.747H58.31C57.33 35.747 56.52 34.947 56.52 33.957V33.447C56.52 32.467 57.32 31.657 58.31 31.657C59.29 31.657 60.1 32.457 60.1 33.447V35.747ZM63.88 51.347H61.91V37.567H63.88V51.347ZM65.7 51.347V37.567H67.49C69.48 37.567 71.09 35.947 71.09 33.967V33.457C71.09 31.467 69.47 29.857 67.49 29.857C65.5 29.857 63.89 31.477 63.89 33.457V35.757H61.92V33.457C61.92 31.467 60.3 29.857 58.32 29.857C56.33 29.857 54.72 31.477 54.72 33.457V33.967C54.72 35.957 56.34 37.567 58.32 37.567H60.11V51.337H59.08C58.82 48.767 57.44 46.357 55.28 44.767C52 42.357 50.13 38.657 50.13 34.617C50.13 31.137 51.53 27.897 54.07 25.487C56.65 23.047 60.03 21.797 63.63 21.997C70.17 22.347 75.47 27.687 75.7 34.167C75.85 38.347 73.91 42.317 70.51 44.807C68.38 46.367 67.01 48.767 66.75 51.347L65.7 51.347ZM65.7 35.747V33.447C65.7 32.467 66.5 31.657 67.49 31.657C68.47 31.657 69.28 32.457 69.28 33.447V33.957C69.28 34.937 68.48 35.747 67.49 35.747L65.7 35.747ZM59.28 66.117H43.1C42.18 66.117 41.31 66.457 40.63 67.087L33.23 73.967C32.79 74.367 32.21 74.527 31.63 74.407C31.05 74.287 30.58 73.897 30.35 73.357L28.19 68.317C27.62 66.987 26.31 66.117 24.86 66.117H22.03C20.54 66.117 19.32 64.897 19.32 63.407V36.627C19.32 35.137 20.54 33.917 22.03 33.917H48.33C48.32 34.147 48.29 34.387 48.29 34.617C48.29 39.237 50.44 43.467 54.18 46.227C55.87 47.477 56.97 49.337 57.23 51.337H55.61C55.11 51.337 54.7 51.747 54.7 52.247C54.7 52.747 55.11 53.157 55.61 53.157H57.29V53.907C57.29 56.687 59.33 58.987 61.98 59.427V63.397C61.99 64.897 60.77 66.117 59.28 66.117ZM66.67 53.917C66.67 55.997 64.98 57.697 62.89 57.697C60.81 57.697 59.11 56.007 59.11 53.917V53.167H61H64.79H66.67L66.67 53.917Z" fill="white"></path><path d="M24.2498 40.6069H43.8098C44.3098 40.6069 44.7198 40.1969 44.7198 39.6969C44.7198 39.1969 44.3098 38.7869 43.8098 38.7869H24.2498C23.7498 38.7869 23.3398 39.1969 23.3398 39.6969C23.3498 40.1969 23.7498 40.6069 24.2498 40.6069Z" fill="white"></path><path d="M24.2498 47.3666H49.1998C49.6998 47.3666 50.1098 46.9566 50.1098 46.4566C50.1098 45.9566 49.6998 45.5466 49.1998 45.5466H24.2498C23.7498 45.5466 23.3398 45.9566 23.3398 46.4566C23.3498 46.9566 23.7498 47.3666 24.2498 47.3666Z" fill="white"></path><path d="M24.2498 54.1264H49.1998C49.6998 54.1264 50.1098 53.7164 50.1098 53.2164C50.1098 52.7164 49.6998 52.3064 49.1998 52.3064H24.2498C23.7498 52.3064 23.3398 52.7164 23.3398 53.2164C23.3498 53.7164 23.7498 54.1264 24.2498 54.1264Z" fill="white"></path><path d="M53.9598 59.0671H24.2498C23.7498 59.0671 23.3398 59.4771 23.3398 59.9771C23.3398 60.4771 23.7498 60.8871 24.2498 60.8871H53.9498C54.4498 60.8871 54.8598 60.4771 54.8598 59.9771C54.8598 59.4671 54.4598 59.0671 53.9598 59.0671Z" fill="white"></path><defs><linearGradient id="paint0_linear_142_3848" x1="47.5" y1="0.710938" x2="47.5" y2="113.548" gradientUnits="userSpaceOnUse"><stop offset="0" stop-color="#4CBDD3"></stop><stop offset="1" stop-color="#C9EF5F"></stop></linearGradient></defs></svg>