<svg xmlns="http://www.w3.org/2000/svg" width="98" height="99" viewBox="0 0 98 99" fill="none"><path d="M49 98.9092C76.062 98.9092 98 76.9711 98 49.9092C98 22.8472 76.062 0.90918 49 0.90918C21.938 0.90918 0 22.8472 0 49.9092C0 76.9711 21.938 98.9092 49 98.9092Z" fill="url(#paint0_linear_173_11961)"></path><path d="M62.2394 63.1481C62.4454 62.9485 62.678 62.7782 62.9304 62.6421L59.0774 58.7871C58.9986 58.7083 58.9051 58.6458 58.8022 58.6032C58.6992 58.5605 58.5889 58.5386 58.4774 58.5386C58.366 58.5386 58.2557 58.5605 58.1527 58.6032C58.0498 58.6458 57.9562 58.7083 57.8774 58.7871C57.7986 58.8659 57.7361 58.9594 57.6935 59.0624C57.6509 59.1653 57.6289 59.2757 57.6289 59.3871C57.6289 59.4985 57.6509 59.6089 57.6935 59.7118C57.7361 59.8148 57.7986 59.9083 57.8774 59.9871L61.7224 63.8321C61.8651 63.5842 62.0381 63.3551 62.2374 63.1501L62.2394 63.1481Z" fill="white"></path><path d="M70.5591 75.7C70.0031 75.7013 69.4524 75.5924 68.9387 75.3798C68.425 75.1671 67.9585 74.8549 67.5661 74.461L61.6401 68.535C60.8463 67.741 60.4004 66.6642 60.4004 65.5415C60.4004 64.4187 60.8463 63.342 61.6401 62.548C62.4609 61.8074 63.5271 61.3975 64.6326 61.3975C65.7381 61.3975 66.8043 61.8074 67.6251 62.548L73.5511 68.474C74.1435 69.0657 74.547 69.8199 74.7106 70.641C74.8742 71.4622 74.7905 72.3134 74.4702 73.087C74.1499 73.8606 73.6073 74.5218 72.9111 74.9869C72.2149 75.452 71.3964 75.7002 70.5591 75.7ZM64.6341 63.037C64.1337 63.0318 63.6431 63.176 63.2251 63.4511C62.807 63.7262 62.4805 64.1197 62.2873 64.5813C62.094 65.043 62.0428 65.5517 62.1402 66.0426C62.2377 66.5335 62.4792 66.9841 62.8341 67.337L68.7601 73.263C69.2438 73.7248 69.8868 73.9825 70.5556 73.9825C71.2244 73.9825 71.8674 73.7248 72.3511 73.263C72.5871 73.0271 72.7743 72.747 72.902 72.4388C73.0298 72.1305 73.0955 71.8001 73.0955 71.4665C73.0955 71.1328 73.0298 70.8024 72.902 70.4942C72.7743 70.1859 72.5871 69.9059 72.3511 69.67L66.4301 63.746C65.9477 63.2831 65.3026 63.0284 64.6341 63.037Z" fill="white"></path><path d="M44.3179 61.2251C44.0984 61.2176 43.8905 61.1251 43.7379 60.9672C43.5853 60.8093 43.5 60.5982 43.5 60.3786C43.5 60.159 43.5853 59.948 43.7379 59.7901C43.8905 59.6322 44.0984 59.5397 44.3179 59.5321C46.7872 59.543 49.2173 58.9154 51.3725 57.7101C53.5276 56.5048 55.3346 54.7628 56.6179 52.6531C56.674 52.5544 56.7494 52.468 56.8396 52.399C56.9297 52.33 57.0329 52.2798 57.1428 52.2514C57.2528 52.2231 57.3673 52.2171 57.4796 52.2339C57.5919 52.2507 57.6997 52.2899 57.7965 52.3492C57.8934 52.4085 57.9773 52.4867 58.0434 52.579C58.1094 52.6714 58.1562 52.7761 58.1809 52.887C58.2057 52.9978 58.2079 53.1124 58.1875 53.2241C58.167 53.3358 58.1243 53.4423 58.0619 53.5371C56.6284 55.895 54.6095 57.842 52.2012 59.1891C49.793 60.5362 47.0773 61.2376 44.3179 61.2251Z" fill="white"></path><path d="M44.3165 65.5421C38.9282 65.5421 33.7606 63.4016 29.9506 59.5915C26.1405 55.7815 24 50.6139 24 45.2256C24 39.8373 26.1405 34.6698 29.9506 30.8597C33.7606 27.0496 38.9282 24.9091 44.3165 24.9091C47.0665 24.8979 49.7897 25.4504 52.318 26.5324C54.8462 27.6144 57.1259 29.2029 59.0165 31.2001C59.1713 31.3627 59.2551 31.5801 59.2496 31.8045C59.244 32.0288 59.1496 32.2418 58.987 32.3966C58.8244 32.5514 58.607 32.6352 58.3826 32.6297C58.1583 32.6241 57.9453 32.5297 57.7905 32.3671C55.6633 30.1381 53.0163 28.4718 50.0868 27.5173C47.1573 26.5628 44.0367 26.35 41.0047 26.8981C37.9728 27.4461 35.1241 28.7378 32.7141 30.6574C30.3041 32.577 28.4079 35.0646 27.1956 37.8972C25.9833 40.7297 25.4927 43.8188 25.7677 46.8876C26.0428 49.9564 27.0749 52.909 28.7716 55.4809C30.4683 58.0527 32.7765 60.1635 35.4895 61.6239C38.2025 63.0844 41.2354 63.849 44.3165 63.8491C47.9056 63.8458 51.4175 62.8074 54.4314 60.8585C57.4452 58.9096 59.833 56.1328 61.3085 52.8611C61.4005 52.6564 61.5701 52.4966 61.78 52.4168C61.9898 52.3371 62.2228 52.3441 62.4275 52.4361C62.6322 52.5281 62.792 52.6977 62.8718 52.9076C62.9515 53.1174 62.9445 53.3504 62.8525 53.5551C61.2432 57.1244 58.6386 60.1538 55.3508 62.2799C52.0631 64.4061 48.2318 65.5387 44.3165 65.5421Z" fill="white"></path><path d="M72.2533 46.9181C72.0288 46.9181 71.8135 46.829 71.6547 46.6704C71.4959 46.5118 71.4065 46.2966 71.4062 46.0721V32.5281C71.4138 32.3086 71.5063 32.1007 71.6642 31.9481C71.8221 31.7955 72.0332 31.7102 72.2528 31.7102C72.4724 31.7102 72.6834 31.7955 72.8413 31.9481C72.9992 32.1007 73.0917 32.3086 73.0993 32.5281V46.0721C73.099 46.2964 73.0098 46.5114 72.8512 46.67C72.6926 46.8286 72.4775 46.9178 72.2533 46.9181Z" fill="white"></path><path d="M62.0931 46.9182C61.8686 46.9182 61.6533 46.8291 61.4945 46.6705C61.3357 46.5118 61.2464 46.2967 61.2461 46.0722V40.9932C61.2536 40.7737 61.3461 40.5658 61.5041 40.4132C61.662 40.2606 61.873 40.1753 62.0926 40.1753C62.3122 40.1753 62.5232 40.2606 62.6811 40.4132C62.8391 40.5658 62.9316 40.7737 62.9391 40.9932V46.0722C62.9388 46.2965 62.8496 46.5115 62.691 46.6701C62.5324 46.8287 62.3174 46.9179 62.0931 46.9182Z" fill="white"></path><path d="M51.9368 46.9182C51.7124 46.9182 51.4971 46.8291 51.3383 46.6705C51.1795 46.5118 51.0901 46.2966 51.0898 46.0722V44.3792C51.0974 44.1597 51.1899 43.9517 51.3478 43.7992C51.5057 43.6466 51.7167 43.5613 51.9363 43.5613C52.1559 43.5613 52.367 43.6466 52.5249 43.7992C52.6828 43.9517 52.7753 44.1597 52.7828 44.3792V46.0722C52.7826 46.2965 52.6934 46.5115 52.5348 46.6701C52.3762 46.8287 52.1611 46.9179 51.9368 46.9182Z" fill="white"></path><path d="M41.7772 46.9182C41.5527 46.9182 41.3374 46.8291 41.1786 46.6704C41.0198 46.5118 40.9305 46.2966 40.9302 46.0722V39.3002C40.9263 39.1866 40.9453 39.0733 40.9861 38.9672C41.0269 38.8611 41.0886 38.7643 41.1676 38.6825C41.2466 38.6008 41.3412 38.5358 41.4458 38.4914C41.5505 38.447 41.663 38.4241 41.7767 38.4241C41.8904 38.4241 42.0029 38.447 42.1075 38.4914C42.2122 38.5358 42.3068 38.6008 42.3858 38.6825C42.4648 38.7643 42.5265 38.8611 42.5673 38.9672C42.6081 39.0733 42.6271 39.1866 42.6232 39.3002V46.0722C42.6229 46.2965 42.5337 46.5115 42.3751 46.6701C42.2165 46.8287 42.0015 46.9179 41.7772 46.9182Z" fill="white"></path><path d="M31.6191 46.9193C31.4514 46.921 31.287 46.8724 31.1472 46.7798C31.0073 46.6872 30.8984 46.5547 30.8346 46.3996C30.7708 46.2445 30.7549 46.0738 30.789 45.9096C30.8232 45.7453 30.9058 45.5951 31.0261 45.4783C31.185 45.3245 31.3975 45.2385 31.6186 45.2385C31.8398 45.2385 32.0522 45.3245 32.2111 45.4783C32.3276 45.5966 32.4067 45.7466 32.4386 45.9095C32.4705 46.0724 32.4539 46.2411 32.3907 46.3947C32.3275 46.5482 32.2206 46.6798 32.0832 46.7731C31.9459 46.8663 31.7851 46.9172 31.6191 46.9193Z" fill="white"></path><path d="M72.2509 29.9882C71.7486 29.9882 71.2575 29.8392 70.8398 29.5601C70.4221 29.281 70.0965 28.8843 69.9043 28.4202C69.712 27.9561 69.6617 27.4454 69.7597 26.9527C69.8578 26.46 70.0997 26.0074 70.4549 25.6522C70.8101 25.2969 71.2627 25.055 71.7554 24.957C72.2481 24.859 72.7588 24.9093 73.223 25.1016C73.6871 25.2938 74.0838 25.6194 74.3629 26.0371C74.642 26.4548 74.7909 26.9458 74.7909 27.4482C74.7901 28.1216 74.5223 28.7672 74.0461 29.2434C73.5699 29.7195 72.9243 29.9874 72.2509 29.9882ZM72.2509 26.6022C72.0834 26.6022 71.9197 26.6519 71.7804 26.7449C71.6411 26.838 71.5325 26.9703 71.4684 27.1251C71.4043 27.2798 71.3875 27.4501 71.4202 27.6144C71.4529 27.7787 71.5336 27.9297 71.652 28.0481C71.7705 28.1666 71.9214 28.2472 72.0857 28.2799C72.25 28.3126 72.4203 28.2958 72.5751 28.2317C72.7298 28.1676 72.8621 28.0591 72.9552 27.9198C73.0483 27.7805 73.0979 27.6167 73.0979 27.4492C73.0977 27.2246 73.0084 27.0094 72.8496 26.8506C72.6908 26.6918 72.4755 26.6025 72.2509 26.6022Z" fill="white"></path><path d="M62.0927 38.4533C61.5904 38.4533 61.0993 38.3043 60.6816 38.0252C60.2639 37.7461 59.9383 37.3494 59.7461 36.8853C59.5538 36.4212 59.5035 35.9105 59.6015 35.4178C59.6995 34.9251 59.9415 34.4725 60.2967 34.1172C60.6519 33.762 61.1045 33.5201 61.5972 33.4221C62.0899 33.3241 62.6006 33.3744 63.0648 33.5666C63.5289 33.7589 63.9256 34.0844 64.2047 34.5021C64.4838 34.9198 64.6327 35.4109 64.6327 35.9133C64.6319 36.5867 64.3641 37.2323 63.8879 37.7085C63.4117 38.1846 62.7661 38.4525 62.0927 38.4533ZM62.0927 35.0673C61.9252 35.0673 61.7615 35.117 61.6222 35.21C61.4829 35.3031 61.3743 35.4354 61.3102 35.5902C61.2461 35.7449 61.2293 35.9152 61.262 36.0795C61.2947 36.2438 61.3754 36.3948 61.4938 36.5132C61.6123 36.6317 61.7632 36.7123 61.9275 36.745C62.0918 36.7777 62.2621 36.7609 62.4169 36.6968C62.5716 36.6327 62.7039 36.5241 62.797 36.3849C62.8901 36.2456 62.9397 36.0818 62.9397 35.9143C62.9395 35.6897 62.8501 35.4745 62.6914 35.3157C62.5326 35.1569 62.3173 35.0676 62.0927 35.0673Z" fill="white"></path><path d="M51.9345 41.8393C51.4322 41.8393 50.9411 41.6903 50.5234 41.4112C50.1057 41.1321 49.7801 40.7354 49.5879 40.2713C49.3956 39.8072 49.3453 39.2965 49.4433 38.8037C49.5413 38.311 49.7833 37.8585 50.1385 37.5032C50.4937 37.148 50.9463 36.9061 51.439 36.8081C51.9317 36.7101 52.4424 36.7604 52.9065 36.9526C53.3707 37.1449 53.7674 37.4704 54.0465 37.8881C54.3256 38.3058 54.4745 38.7969 54.4745 39.2993C54.4737 39.9727 54.2059 40.6183 53.7297 41.0945C53.2535 41.5706 52.6079 41.8385 51.9345 41.8393ZM51.9345 38.4533C51.767 38.4533 51.6033 38.503 51.464 38.596C51.3247 38.6891 51.2161 38.8214 51.152 38.9761C51.0879 39.1309 51.0711 39.3012 51.1038 39.4655C51.1365 39.6298 51.2172 39.7807 51.3356 39.8992C51.4541 40.0177 51.605 40.0983 51.7693 40.131C51.9336 40.1637 52.1039 40.1469 52.2587 40.0828C52.4134 40.0187 52.5457 39.9101 52.6388 39.7708C52.7319 39.6316 52.7815 39.4678 52.7815 39.3003C52.7813 39.0757 52.6919 38.8604 52.5332 38.7017C52.3744 38.5429 52.1591 38.4535 51.9345 38.4533Z" fill="white"></path><path d="M41.7763 36.7602C41.274 36.7602 40.7829 36.6112 40.3652 36.3321C39.9475 36.053 39.6219 35.6563 39.4297 35.1922C39.2374 34.7281 39.1871 34.2174 39.2851 33.7246C39.3831 33.2319 39.6251 32.7794 39.9803 32.4241C40.3355 32.0689 40.7881 31.827 41.2808 31.729C41.7735 31.631 42.2842 31.6813 42.7483 31.8735C43.2125 32.0658 43.6092 32.3913 43.8883 32.809C44.1674 33.2267 44.3163 33.7178 44.3163 34.2202C44.3155 34.8936 44.0477 35.5392 43.5715 36.0154C43.0953 36.4915 42.4497 36.7594 41.7763 36.7602ZM41.7763 33.3742C41.6088 33.3742 41.4451 33.4239 41.3058 33.5169C41.1665 33.61 41.0579 33.7423 40.9938 33.897C40.9297 34.0518 40.9129 34.2221 40.9456 34.3864C40.9783 34.5507 41.059 34.7016 41.1774 34.8201C41.2959 34.9386 41.4468 35.0192 41.6111 35.0519C41.7754 35.0846 41.9457 35.0678 42.1005 35.0037C42.2552 34.9396 42.3875 34.831 42.4806 34.6917C42.5737 34.5525 42.6233 34.3887 42.6233 34.2212C42.6231 33.9966 42.5337 33.7813 42.375 33.6225C42.2162 33.4638 42.0009 33.3744 41.7763 33.3742Z" fill="white"></path><path d="M40.1025 34.3194L32.3535 39.4844C32.6207 39.6153 32.8484 39.8148 33.0132 40.0625C33.178 40.3103 33.274 40.5973 33.2915 40.8944L41.0405 35.7274C40.7723 35.598 40.5438 35.399 40.3788 35.1511C40.2138 34.9033 40.1184 34.6167 40.1025 34.3194Z" fill="white"></path><path d="M60.3981 35.9143C60.4087 35.7947 60.4325 35.6766 60.4691 35.5623L53.0371 38.0413C53.2204 38.1964 53.3679 38.3893 53.4696 38.6068C53.5712 38.8243 53.6246 39.0612 53.6261 39.3013C53.6155 39.4209 53.5917 39.5389 53.5551 39.6533L60.9851 37.1703C60.8018 37.0152 60.6543 36.8222 60.5526 36.6047C60.451 36.3873 60.3976 36.1503 60.3961 35.9103L60.3981 35.9143Z" fill="white"></path><path d="M51.0328 37.9033L43.4438 34.1113C43.4438 34.1483 43.4658 34.1823 43.4658 34.2213C43.4634 34.5027 43.3894 34.7788 43.2508 35.0237C43.1123 35.2686 42.9137 35.4743 42.6738 35.6213L50.2598 39.4133C50.2598 39.3763 50.2378 39.3423 50.2378 39.3033C50.2407 39.022 50.3148 38.746 50.4533 38.5012C50.5918 38.2564 50.7902 38.0507 51.0298 37.9033H51.0328Z" fill="white"></path><path d="M70.6327 27.8333L62.6797 34.3393C62.9575 34.4454 63.2018 34.6241 63.387 34.8568C63.5722 35.0895 63.6916 35.3677 63.7327 35.6623L71.8097 29.0543C71.5214 28.9763 71.2596 28.8216 71.0523 28.6065C70.845 28.3915 70.7 28.1242 70.6327 27.8333Z" fill="white"></path><path d="M31.6181 43.5321C31.1158 43.5321 30.6247 43.3832 30.207 43.1041C29.7893 42.825 29.4637 42.4283 29.2715 41.9642C29.0792 41.5 29.0289 40.9893 29.1269 40.4966C29.2249 40.0039 29.4668 39.5513 29.8221 39.1961C30.1773 38.8409 30.6299 38.599 31.1226 38.501C31.6153 38.4029 32.126 38.4532 32.5901 38.6455C33.0543 38.8377 33.451 39.1633 33.7301 39.581C34.0092 39.9987 34.1581 40.4898 34.1581 40.9921C34.1573 41.6656 33.8895 42.3112 33.4133 42.7873C32.9371 43.2635 32.2915 43.5314 31.6181 43.5321ZM31.6181 40.1461C31.4506 40.1461 31.2868 40.1958 31.1476 40.2889C31.0083 40.382 30.8997 40.5142 30.8356 40.669C30.7715 40.8238 30.7547 40.9941 30.7874 41.1584C30.8201 41.3227 30.9008 41.4736 31.0192 41.5921C31.1377 41.7105 31.2886 41.7912 31.4529 41.8239C31.6172 41.8566 31.7875 41.8398 31.9423 41.7757C32.097 41.7116 32.2293 41.603 32.3224 41.4637C32.4155 41.3244 32.4651 41.1607 32.4651 40.9931C32.4649 40.7686 32.3755 40.5533 32.2168 40.3945C32.058 40.2357 31.8427 40.1464 31.6181 40.1461Z" fill="white"></path><path d="M73.9437 50.3041H31.6187C31.3992 50.2966 31.1913 50.2041 31.0387 50.0461C30.8861 49.8882 30.8008 49.6772 30.8008 49.4576C30.8008 49.238 30.8861 49.027 31.0387 48.8691C31.1913 48.7111 31.3992 48.6186 31.6187 48.6111H73.9437C74.0573 48.6072 74.1705 48.6262 74.2766 48.667C74.3828 48.7078 74.4796 48.7695 74.5613 48.8485C74.6431 48.9275 74.7081 49.0221 74.7525 49.1268C74.7969 49.2314 74.8198 49.3439 74.8198 49.4576C74.8198 49.5713 74.7969 49.6838 74.7525 49.7884C74.7081 49.8931 74.6431 49.9877 74.5613 50.0667C74.4796 50.1457 74.3828 50.2074 74.2766 50.2482C74.1705 50.289 74.0573 50.308 73.9437 50.3041Z" fill="white"></path><defs><linearGradient id="paint0_linear_173_11961" x1="49" y1="0.90918" x2="102.704" y2="117.333" gradientUnits="userSpaceOnUse"><stop stop-color="#4CBDD3"></stop><stop offset="1" stop-color="#C9EF5F"></stop></linearGradient></defs></svg>