<svg width="262" height="274" viewBox="0 0 262 274" fill="none" xmlns="http://www.w3.org/2000/svg">
  <path
    d="M177.39 103.36L173.74 125.48C173.45 130.35 171.52 134.98 168.26 138.61L146.66 165.93C144.95 167.84 141.88 165.88 142.9 163.52L170.23 100.26"
    stroke="#4c5562" stroke-width="6" stroke-miterlimit="10" />
  <path
    d="M178.19 94.9899L199.17 87.0899C203.53 84.9099 208.51 84.2599 213.28 85.2699L247.74 90.3099C250.25 90.8399 250.08 94.4799 247.54 94.7699L179.09 102.73"
    stroke="#4c5562" stroke-width="6" stroke-miterlimit="10" />
  <path
    d="M170.54 98.48L153.21 84.26C149.14 81.57 146.09 77.58 144.58 72.95L131.72 40.58C130.92 38.14 134.16 36.47 135.69 38.53L176.81 93.83"
    stroke="#4c5562" stroke-width="6" stroke-miterlimit="10" />
  <path
    d="M175.37 104.93C178.673 104.93 181.35 102.253 181.35 98.95C181.35 95.6473 178.673 92.97 175.37 92.97C172.067 92.97 169.39 95.6473 169.39 98.95C169.39 102.253 172.067 104.93 175.37 104.93Z"
    stroke="#4c5562" stroke-width="6" stroke-miterlimit="10" />
  <path
    d="M52.1299 101.44L40.7099 82.15C37.7999 78.23 36.31 73.44 36.47 68.57L35.45 33.76C35.53 31.2 39.15 30.73 39.88 33.19L59.61 99.21"
    stroke="#4c5562" stroke-width="6" stroke-miterlimit="10" />
  <path
    d="M56.8899 108.36L45.8999 127.89C43.9599 132.37 40.5599 136.06 36.2599 138.36L6.61993 156.65C4.35993 157.86 2.14992 154.97 3.90992 153.1L51.2199 103"
    stroke="#4c5562" stroke-width="6" stroke-miterlimit="10" />
  <path
    d="M60.5 100.78L82.91 100.53C87.76 99.97 92.65 101.07 96.8 103.65L127.46 120.18C129.64 121.54 128.24 124.9 125.74 124.3L58.7 108.37"
    stroke="#4c5562" stroke-width="6" stroke-miterlimit="10" />
  <path
    d="M56.51 109.51C59.8127 109.51 62.49 106.833 62.49 103.53C62.49 100.227 59.8127 97.5499 56.51 97.5499C53.2074 97.5499 50.53 100.227 50.53 103.53C50.53 106.833 53.2074 109.51 56.51 109.51Z"
    stroke="#4c5562" stroke-width="6" stroke-miterlimit="10" />
  <path
    d="M215.74 265.34C189.25 258.53 155.86 251.88 126.4 251.88C88.96 251.88 45.17 262.61 17.25 270.79"
    stroke="#4c5562" stroke-width="6" stroke-miterlimit="10" />
  <path
    d="M182.6 257.9H186.86L177.79 104.01H172.97L164.08 254.82C170.31 255.7 176.51 256.75 182.61 257.9H182.6Z"
    stroke="#4c5562" stroke-width="6" stroke-miterlimit="10" />
  <path
    d="M67.75 258.37L58.92 108.59H54.1L45.03 262.48H48.69C54.83 261.04 61.22 259.64 67.76 258.37H67.75Z"
    stroke="#4c5562" stroke-width="6" stroke-miterlimit="10" />
  <path d="M116.46 62.87C103.45 75.88 82.36 75.88 69.35 62.87C56.34 49.86 56.34 28.77 69.35 15.76"
    stroke="#4c5562" stroke-width="6" stroke-miterlimit="10" stroke-linecap="round" />
  <path d="M72.6701 47.66C70.9701 37.41 74.0701 26.52 81.9701 18.62" stroke="#4c5562"
    stroke-width="6"
    stroke-miterlimit="10" stroke-linecap="round" />
  <path
    d="M258.74 58.1201C250.03 61.2001 239.19 63.03 227.45 63.03C198.69 63.03 175.38 52.0701 175.38 38.5401C175.38 25.0101 198.69 14.05 227.45 14.05"
    stroke="#4c5562" stroke-width="6" stroke-miterlimit="10" stroke-linecap="round" />
  <path d="M171.84 20.26C178.53 10.37 198.22 3.20996 221.47 3.20996" stroke="#4c5562"
    stroke-width="6"
    stroke-miterlimit="10" stroke-linecap="round" />
</svg>