<svg width="266" height="274" viewBox="0 0 266 274" fill="none" xmlns="http://www.w3.org/2000/svg">
  <path
    d="M79.9538 193.472C66.3962 193.472 55.4182 185.705 55.4182 176.145C55.4182 166.585 66.4162 158.818 79.9538 158.818C93.4914 158.818 104.489 166.585 104.489 176.145"
    stroke="white" stroke-width="6" stroke-miterlimit="10" stroke-linecap="round" />
  <path
    d="M79.9538 193.472C93.5114 193.472 104.489 201.238 104.489 210.799C104.489 220.359 93.4914 228.125 79.9538 228.125C66.4162 228.125 55.4182 220.359 55.4182 210.799"
    stroke="white" stroke-width="6" stroke-miterlimit="10" stroke-linecap="round" />
  <path d="M70.9517 148.411V239.351" stroke="white" stroke-width="6" stroke-miterlimit="10"
    stroke-linecap="round" stroke-linejoin="round" />
  <path d="M90.7212 148.411V239.351" stroke="white" stroke-width="6" stroke-miterlimit="10"
    stroke-linecap="round" stroke-linejoin="round" />
  <path
    d="M79 270.798C120.974 270.798 155 236.548 155 194.298C155 152.049 120.974 117.798 79 117.798C37.0264 117.798 3 152.049 3 194.298C3 236.548 37.0264 270.798 79 270.798Z"
    stroke="white" stroke-width="6" stroke-miterlimit="10" />
  <path d="M123.2 130.053L156.511 80.1601L191.658 98.088L252.696 9.10327" stroke="white"
    stroke-width="6" stroke-miterlimit="10" stroke-linecap="round" stroke-linejoin="round" />
  <path d="M224.979 13.3937L254.811 3.43067L263 33.1361" stroke="white" stroke-width="6"
    stroke-miterlimit="10" stroke-linecap="round" stroke-linejoin="round" />
</svg>