<svg width="281" height="245" viewBox="0 0 281 245" fill="none" xmlns="http://www.w3.org/2000/svg">
  <path
    d="M267.63 210.13C273.95 205.97 277.82 200.4 277.82 194.27C277.82 181.42 260.82 171 239.84 171C221.7 171 206.53 178.8 202.77 189.23C196.3 188.12 189.28 187.5 181.92 187.5C149.93 187.5 124 199.06 124 213.33C124 227.6 149.93 239.16 181.92 239.16C187.82 239.16 193.5 238.76 198.86 238.03C206.92 240.09 216.6 241.29 227.02 241.29C255.07 241.29 277.82 232.58 277.82 221.83C277.82 217.44 274.02 213.39 267.63 210.14V210.13Z"
    stroke="white" stroke-width="6" stroke-miterlimit="10" stroke-linecap="round"
    stroke-linejoin="round" />
  <path
    d="M191.91 98.1C195.43 91.92 197.44 84.76 197.44 77.14C197.44 53.72 178.45 34.73 155.03 34.73C138.93 34.73 124.92 43.71 117.74 56.93"
    stroke="white" stroke-width="6" stroke-miterlimit="10" />
  <path d="M211.749 88.8225L229.389 92.4044" stroke="white" stroke-width="6" stroke-miterlimit="10"
    stroke-linecap="round" />
  <path d="M167.338 21.5498L171.013 3" stroke="white" stroke-width="6" stroke-miterlimit="10"
    stroke-linecap="round" />
  <path d="M195.821 36.6087L211.546 24.4956" stroke="white" stroke-width="6" stroke-miterlimit="10"
    stroke-linecap="round" />
  <path d="M211.043 62.1485L227.534 56.3134" stroke="white" stroke-width="6" stroke-miterlimit="10"
    stroke-linecap="round" />
  <path d="M127.465 6.40222L135.061 24.2711" stroke="white" stroke-width="6" stroke-miterlimit="10"
    stroke-linecap="round" />
  <path d="M97.5919 27.8876L113.64 39.3094" stroke="white" stroke-width="6" stroke-miterlimit="10"
    stroke-linecap="round" />
  <path
    d="M215.83 124.3C215.83 109.79 196.4 97.63 170.23 94.34C170.09 90.22 167.78 86.32 163.72 82.84C153.41 67.43 136.37 57.36 117.08 57.36C106.52 57.36 96.64 60.39 88.16 65.64C83.38 64.18 77.92 63.34 72.12 63.34C53.38 63.34 38.19 71.99 38.19 82.67C38.19 83.26 38.24 83.84 38.33 84.41C18.33 86.78 3.14001 98.42 3.14001 112.44C3.14001 128.17 22.27 140.92 45.87 140.92C52.27 140.92 58.33 139.98 63.78 138.3C71.91 160.91 92.7 177 117.09 177C125.66 177 133.79 175 141.08 171.43C145.68 172.28 150.72 172.75 156.01 172.75C177.51 172.75 194.94 164.98 194.94 155.41C194.94 153.1 193.92 150.9 192.08 148.89C206.5 143.26 215.83 134.34 215.83 124.29V124.3Z"
    stroke="white" stroke-width="6" stroke-miterlimit="10" stroke-linejoin="round" />
</svg>