<svg width="182" height="258" viewBox="0 0 182 258" fill="none" xmlns="http://www.w3.org/2000/svg">
  <path
    d="M170.42 97.2H11.5801C7.1618 97.2 3.58008 100.782 3.58008 105.2V201.63C3.58008 206.048 7.1618 209.63 11.5801 209.63H170.42C174.838 209.63 178.42 206.048 178.42 201.63V105.2C178.42 100.782 174.838 97.2 170.42 97.2Z"
    stroke="white" stroke-width="6" stroke-miterlimit="10" stroke-linejoin="round" />
  <path d="M120.14 97.9399V210.37" stroke="white" stroke-width="6" stroke-miterlimit="10"
    stroke-linejoin="round" />
  <path d="M61.8601 97.9399V210.37" stroke="white" stroke-width="6" stroke-miterlimit="10"
    stroke-linejoin="round" />
  <path d="M91 97.9399V210.37" stroke="white" stroke-width="6" stroke-miterlimit="10"
    stroke-linejoin="round" />
  <path d="M149.28 97.9399V210.37" stroke="white" stroke-width="6" stroke-miterlimit="10"
    stroke-linejoin="round" />
  <path d="M32.72 97.9399V210.37" stroke="white" stroke-width="6" stroke-miterlimit="10"
    stroke-linejoin="round" />
  <path d="M3.58008 154.16H178.42" stroke="white" stroke-width="6" stroke-miterlimit="10"
    stroke-linejoin="round" />
  <path d="M3.58008 182.26H178.42" stroke="white" stroke-width="6" stroke-miterlimit="10"
    stroke-linejoin="round" />
  <path d="M3.58008 126.05H178.42" stroke="white" stroke-width="6" stroke-miterlimit="10"
    stroke-linejoin="round" />
  <path
    d="M127.88 97.2C131.4 91.02 133.41 83.86 133.41 76.24C133.41 52.82 114.42 33.83 91.0001 33.83C67.5801 33.83 48.5901 52.82 48.5901 76.24C48.5901 83.86 50.6001 91.02 54.1201 97.2"
    stroke="white" stroke-width="6" stroke-miterlimit="10" stroke-linejoin="round" />
  <path d="M85.23 254.85V210.37" stroke="white" stroke-width="6" stroke-miterlimit="10"
    stroke-linejoin="round" />
  <path d="M96.77 210.37V254.85" stroke="white" stroke-width="6" stroke-miterlimit="10"
    stroke-linejoin="round" />
  <path d="M147 78.0601L163 78" stroke="white" stroke-width="6" stroke-miterlimit="10"
    stroke-linecap="round" stroke-linejoin="round" />
  <path d="M91.0601 18.01L91 3" stroke="white" stroke-width="6" stroke-miterlimit="10"
    stroke-linecap="round" stroke-linejoin="round" />
  <path d="M122 27L133 16" stroke="white" stroke-width="6" stroke-miterlimit="10"
    stroke-linecap="round" stroke-linejoin="round" />
  <path d="M142 49L156 41" stroke="white" stroke-width="6" stroke-miterlimit="10"
    stroke-linecap="round" stroke-linejoin="round" />
  <path d="M17 78L34.72 78.0601" stroke="white" stroke-width="6" stroke-miterlimit="10"
    stroke-linecap="round" stroke-linejoin="round" />
  <path d="M49 14L60 27" stroke="white" stroke-width="6" stroke-miterlimit="10"
    stroke-linecap="round" stroke-linejoin="round" />
  <path d="M25 41L40 49" stroke="white" stroke-width="6" stroke-miterlimit="10"
    stroke-linecap="round" stroke-linejoin="round" />
  <path d="M23 255H159" stroke="white" stroke-width="6" stroke-linecap="round"
    stroke-linejoin="round" />
</svg>