<svg width="194" height="216" viewBox="0 0 194 216" fill="none" xmlns="http://www.w3.org/2000/svg">
  <path
    d="M190.59 212.54H43.41C43.41 212.54 23.41 209.39 23.41 160.28C23.41 108.02 43.41 105.21 43.41 54.3501C43.41 3.49009 23.41 3.49009 23.41 3.49009H165.59C165.59 3.49009 185.59 0.69009 185.59 54.3501C185.59 108.01 165.59 108.01 165.59 160.28C165.59 200.18 190.59 212.54 190.59 212.54Z"
    stroke="#4c5562" stroke-width="6" stroke-miterlimit="10" stroke-linejoin="round" />
  <path
    d="M23.41 3.48999C9.07004 3.48999 3.41003 18.84 3.41003 31.86C3.41003 44.88 13.67 54.35 23.41 54.35C33.15 54.35 34.28 28.92 21.27 28.92H41.29"
    stroke="#4c5562" stroke-width="6" stroke-miterlimit="10" stroke-linejoin="round" />
  <path d="M43.25 54.35H23.41" stroke="#4c5562" stroke-width="6" stroke-miterlimit="10" />
  <path d="M62.29 36.72H164.96" stroke="#4c5562" stroke-width="6" stroke-miterlimit="10"
    stroke-linecap="round" stroke-linejoin="round" />
  <path d="M63.25 54.04L165.82 54.35" stroke="#4c5562" stroke-width="6" stroke-miterlimit="10"
    stroke-linecap="round" stroke-linejoin="round" />
  <path d="M62.37 71.36H165.02" stroke="#4c5562" stroke-width="6" stroke-miterlimit="10"
    stroke-linecap="round" stroke-linejoin="round" />
  <path d="M59.22 88.6799H162.1" stroke="#4c5562" stroke-width="6" stroke-miterlimit="10"
    stroke-linecap="round" stroke-linejoin="round" />
  <path d="M53.54 106H156.51" stroke="#4c5562" stroke-width="6" stroke-miterlimit="10"
    stroke-linecap="round" stroke-linejoin="round" />
  <path d="M47.75 123.32H150.47" stroke="#4c5562" stroke-width="6" stroke-miterlimit="10"
    stroke-linecap="round" stroke-linejoin="round" />
  <path d="M44.92 140.64H146.95" stroke="#4c5562" stroke-width="6" stroke-miterlimit="10"
    stroke-linecap="round" stroke-linejoin="round" />
  <path d="M43.25 157.96H145.87" stroke="#4c5562" stroke-width="6" stroke-miterlimit="10"
    stroke-linecap="round" stroke-linejoin="round" />
  <path d="M43.97 175.28H112.12" stroke="#4c5562" stroke-width="6" stroke-miterlimit="10"
    stroke-linecap="round" stroke-linejoin="round" />
</svg>