<svg width="332" height="250" viewBox="0 0 332 250" fill="none" xmlns="http://www.w3.org/2000/svg">
    <path
        d="M85.6001 141.41C85.6001 126.77 74.9701 114.91 61.8601 114.91C48.7501 114.91 38.1201 126.78 38.1201 141.41C38.1201 152.77 46.1401 158.44 52.0501 166.2C53.5301 168.15 53.5301 171.07 53.5301 174.03V183.42C53.5301 186.9 56.3501 189.71 59.8201 189.71H63.9001C67.3801 189.71 70.1901 186.89 70.1901 183.42V175.51C70.1901 171.07 70.1901 168.14 71.6701 166.2C77.5701 158.44 85.6001 152.77 85.6001 141.41Z"
        stroke="#ffffff" stroke-width="6" stroke-miterlimit="10" />
    <path d="M51.8203 174.891H71.8803" stroke="#ffffff" stroke-width="6" stroke-miterlimit="10" />
    <path
        d="M61.85 211.88C94.7441 211.88 121.41 185.214 121.41 152.32C121.41 119.426 94.7441 92.7598 61.85 92.7598C28.956 92.7598 2.29004 119.426 2.29004 152.32C2.29004 185.214 28.956 211.88 61.85 211.88Z"
        stroke="#ffffff" stroke-width="6" stroke-miterlimit="10" />
    <path
        d="M269.57 146.37L283.26 109.33L247.76 158.53L265.37 158.42L252.26 195.3L290.74 146.66L269.56 146.37H269.57Z"
        stroke="#ffffff" stroke-width="6" stroke-linecap="round" stroke-linejoin="round" />
    <path
        d="M269.26 211.88C302.154 211.88 328.82 185.214 328.82 152.32C328.82 119.426 302.154 92.7598 269.26 92.7598C236.366 92.7598 209.7 119.426 209.7 152.32C209.7 185.214 236.366 211.88 269.26 211.88Z"
        stroke="#ffffff" stroke-width="6" stroke-miterlimit="10" />
    <path d="M165.551 29.8789V247.189" stroke="#ffffff" stroke-width="6" stroke-miterlimit="10"
        stroke-linecap="round" />
    <path
        d="M269.26 92.2487V37.4587C269.26 33.2787 265.87 29.8887 261.69 29.8887H69.4304C65.2504 29.8887 61.8604 33.2787 61.8604 37.4587V92.2487"
        stroke="#ffffff" stroke-width="6" stroke-miterlimit="10" stroke-linecap="round" />
    <path
        d="M137.96 29.8793C137.96 14.6393 150.31 2.2793 165.56 2.2793C180.81 2.2793 193.16 14.6293 193.16 29.8793"
        stroke="#ffffff" stroke-width="6" stroke-miterlimit="10" />
    <path d="M115.57 247.189H215.54" stroke="#ffffff" stroke-width="6" stroke-miterlimit="10"
        stroke-linecap="round" />
</svg>