<svg width="537" height="450" viewBox="0 0 537 450" fill="none" xmlns="http://www.w3.org/2000/svg">
    <mask id="mask0_251_8936" style="mask-type:luminance" maskUnits="userSpaceOnUse" x="0" y="0"
        width="537" height="450">
        <path d="M536.888 0.000793457H0.859375V449.699H536.888V0.000793457Z" fill="white" />
    </mask>
    <g mask="url(#mask0_251_8936)">
        <mask id="mask1_251_8936" style="mask-type:luminance" maskUnits="userSpaceOnUse" x="0" y="0"
            width="537" height="450">
            <path d="M536.888 0.000793457H0.859375V449.699H536.888V0.000793457Z" fill="white" />
        </mask>
        <g mask="url(#mask1_251_8936)">
            <path
                d="M434.225 417.357C424.84 399.43 418.8 389.275 404.625 375.767C399.67 371.048 394.506 366.201 388.299 364.301C383.98 362.978 379.437 363.181 374.971 363.39C354.426 364.36 105.324 362.406 77.4712 362.084C70.8102 362.006 56.2022 364.742 47.7842 371.831C40.7002 377.789 33.1672 389.311 27.2102 397.257C18.2012 409.274 9.06016 420.272 2.77616 434.414C2.77616 434.414 -10.5158 449.479 32.9052 449.479C76.3262 449.479 408.193 450.364 423.258 448.594C438.323 446.824 444.713 437.394 434.225 417.356"
                fill="#666C75" />
            <path
                d="M406.018 438.26H373.759C373.523 438.271 373.3 438.372 373.137 438.543C372.974 438.714 372.883 438.941 372.883 439.178C372.883 439.414 372.974 439.641 373.137 439.812C373.3 439.983 373.523 440.085 373.759 440.096H406.019C406.255 440.085 406.478 439.983 406.641 439.812C406.804 439.641 406.895 439.414 406.895 439.178C406.895 438.941 406.804 438.714 406.641 438.543C406.478 438.372 406.255 438.271 406.019 438.26"
                fill="#C1C1C1" />
            <path
                d="M423.285 439.841C424.669 440.027 426.077 439.799 427.331 439.184C430.309 438.061 430.862 434.584 430.45 431.866C430.14 430.255 429.685 428.675 429.089 427.147C428.611 425.76 428.112 424.381 427.594 423.009C426.556 420.255 425.438 417.528 424.24 414.829C419.534 403.921 413.163 393.81 405.355 384.857C400.903 379.852 395.885 375.38 390.403 371.532C389.603 370.974 388.838 372.232 389.626 372.782C399.104 379.571 407.189 388.119 413.442 397.959C419.63 407.656 424.561 418.099 428.118 429.039C428.699 430.786 429.335 432.72 428.909 434.561C428.617 435.82 427.746 437.579 426.423 438.068C426.423 438.068 419.933 438.922 423.283 439.84"
                fill="#C1C1C1" />
            <path
                d="M46.7433 440.529H319.943C320.179 440.518 320.402 440.416 320.565 440.245C320.728 440.074 320.819 439.847 320.819 439.611C320.819 439.374 320.728 439.147 320.565 438.976C320.402 438.805 320.179 438.704 319.943 438.693H46.7433C46.5073 438.704 46.2845 438.805 46.1214 438.976C45.9582 439.147 45.8672 439.374 45.8672 439.611C45.8672 439.847 45.9582 440.074 46.1214 440.245C46.2845 440.416 46.5073 440.518 46.7433 440.529Z"
                fill="#C1C1C1" />
            <path
                d="M8.57549 430.692C7.64901 431.727 7.0633 433.021 6.89782 434.4C6.73235 435.78 6.99512 437.176 7.65049 438.401C8.3443 439.577 9.37767 440.516 10.6149 441.094C11.852 441.672 13.2352 441.862 14.5825 441.64C14.8162 441.574 15.0145 441.419 15.1343 441.207C15.2542 440.996 15.2858 440.746 15.2225 440.512C15.1535 440.28 14.9977 440.084 14.7875 439.964C14.5774 439.844 14.3291 439.81 14.0945 439.869C13.1258 440.015 12.1356 439.858 11.2596 439.42C10.3837 438.981 9.66505 438.282 9.20234 437.418C8.73963 436.555 8.55554 435.569 8.67535 434.597C8.79516 433.625 9.213 432.713 9.87149 431.988C10.6605 431.112 9.36549 429.811 8.57149 430.688"
                fill="#C1C1C1" />
            <path
                d="M111.193 420.135H135.393C135.629 420.124 135.851 420.022 136.014 419.851C136.178 419.68 136.269 419.453 136.269 419.217C136.269 418.98 136.178 418.753 136.014 418.582C135.851 418.411 135.629 418.31 135.393 418.299H111.193C110.956 418.31 110.734 418.411 110.571 418.582C110.407 418.753 110.316 418.98 110.316 419.217C110.316 419.453 110.407 419.68 110.571 419.851C110.734 420.022 110.956 420.124 111.193 420.135Z"
                fill="#C1C1C1" />
            <path
                d="M112.2 412.07H125.306C125.542 412.059 125.765 411.957 125.928 411.786C126.091 411.615 126.182 411.388 126.182 411.152C126.182 410.915 126.091 410.688 125.928 410.517C125.765 410.346 125.542 410.245 125.306 410.234H112.2C111.964 410.245 111.742 410.346 111.578 410.517C111.415 410.688 111.324 410.915 111.324 411.152C111.324 411.388 111.415 411.615 111.578 411.786C111.742 411.957 111.964 412.059 112.2 412.07Z"
                fill="#C1C1C1" />
            <path
                d="M385.748 434.86H394.825C395.061 434.849 395.284 434.747 395.447 434.576C395.61 434.405 395.701 434.178 395.701 433.942C395.701 433.705 395.61 433.478 395.447 433.307C395.284 433.136 395.061 433.035 394.825 433.024H385.751C385.515 433.035 385.292 433.136 385.129 433.307C384.966 433.478 384.875 433.705 384.875 433.942C384.875 434.178 384.966 434.405 385.129 434.576C385.292 434.747 385.515 434.849 385.751 434.86"
                fill="#C1C1C1" />
            <path
                d="M388.773 423.769H400.873C401.109 423.758 401.331 423.656 401.495 423.485C401.658 423.314 401.749 423.087 401.749 422.851C401.749 422.614 401.658 422.387 401.495 422.216C401.331 422.045 401.109 421.944 400.873 421.933H388.773C388.537 421.944 388.314 422.045 388.151 422.216C387.988 422.387 387.896 422.614 387.896 422.851C387.896 423.087 387.988 423.314 388.151 423.485C388.314 423.656 388.537 423.758 388.773 423.769Z"
                fill="#C1C1C1" />
            <path
                d="M354.095 400.16H368.211C368.447 400.149 368.67 400.047 368.833 399.876C368.996 399.705 369.087 399.478 369.087 399.242C369.087 399.005 368.996 398.778 368.833 398.607C368.67 398.436 368.447 398.335 368.211 398.324H354.095C353.859 398.335 353.636 398.436 353.473 398.607C353.31 398.778 353.219 399.005 353.219 399.242C353.219 399.478 353.31 399.705 353.473 399.876C353.636 400.047 353.859 400.149 354.095 400.16Z"
                fill="#C1C1C1" />
            <path
                d="M353.867 407.617H369.73C369.996 407.605 370.247 407.491 370.431 407.299C370.614 407.107 370.717 406.852 370.717 406.586C370.717 406.32 370.614 406.064 370.431 405.872C370.247 405.68 369.996 405.566 369.73 405.555H353.867C353.602 405.566 353.351 405.68 353.167 405.872C352.983 406.064 352.881 406.32 352.881 406.586C352.881 406.852 352.983 407.107 353.167 407.299C353.351 407.491 353.602 407.605 353.867 407.617Z"
                fill="#C1C1C1" />
            <path
                d="M317.168 191.335C319.449 187.731 321.73 184.126 324.011 180.521C324.712 179.617 325.135 178.529 325.23 177.39C325.211 176.11 324.38 175.01 323.804 173.869C319.604 165.569 328.648 155.109 323.597 146.614C323.24 146.036 323.03 145.381 322.983 144.704C322.936 144.027 323.055 143.349 323.329 142.728C324.791 139.611 328.891 141.699 329.767 144.453C330.631 147.162 329.867 150.185 330.892 152.877C330.983 153.132 331.127 153.365 331.315 153.561C331.502 153.757 331.729 153.91 331.98 154.012C332.839 154.332 333.418 153.772 333.896 153.235C341.033 145.235 342.909 133.077 350.524 125.86C350.667 125.721 350.851 125.632 351.048 125.606C351.246 125.579 351.446 125.617 351.621 125.713C351.795 125.809 351.934 125.958 352.018 126.138C352.102 126.319 352.125 126.522 352.085 126.717C350.216 135.543 346.985 144.025 342.509 151.859C343.085 150.676 343.803 149.568 344.646 148.559C345.215 147.886 345.973 147.399 346.821 147.162C347.67 146.924 348.57 146.947 349.406 147.227C350.241 147.507 350.973 148.032 351.507 148.733C352.041 149.434 352.352 150.279 352.4 151.159C352.448 151.969 352.457 152.78 352.428 153.593C352.247 151.3 356.046 150.502 357.399 152.362C358.752 154.222 357.899 156.969 356.267 158.593L356.667 158.468C357.029 158.354 357.415 158.338 357.786 158.422C358.156 158.507 358.497 158.688 358.774 158.948C359.051 159.208 359.254 159.537 359.362 159.901C359.47 160.265 359.479 160.651 359.388 161.02C357.567 168.5 353.359 175.184 347.4 180.06C344.954 182.042 342.219 183.718 340.188 186.121C338.648 188.113 337.37 190.296 336.388 192.615L326.605 213.195C320.719 209.076 315.087 204.605 309.74 199.806L317.168 191.335Z"
                fill="#E5A37F" />
            <path
                d="M152.656 230.006C191.219 227.37 229.701 236.196 263.261 255.373L316.936 186.673C323.873 190.54 336.8 198.685 341.649 204.973C325.549 238.836 286.272 293.933 282.226 296.715C276.395 300.724 239.433 295.632 224.493 288.945C220.251 287.045 206.703 273.245 202.185 272.153C197.642 271.053 192.918 271.007 188.285 270.399C179.329 269.146 170.788 265.824 163.339 260.696C155.89 255.568 149.737 248.776 145.369 240.858L152.656 230.006Z"
                fill="#62E0C1" />
            <path
                d="M276.073 366.18C257.724 328.295 219.184 317.97 177.321 313.571C176.972 313.534 176.626 313.477 176.283 313.402C149.218 307.539 121.183 317.262 104.783 339.57C100.814 344.97 95.4953 357.033 92.5293 361.861"
                fill="#8DBF00" />
            <path
                d="M114.759 339.407L119.582 334.054C119.734 333.895 119.819 333.684 119.819 333.464C119.819 333.245 119.734 333.034 119.582 332.875C119.425 332.721 119.214 332.635 118.994 332.635C118.774 332.635 118.563 332.721 118.405 332.875L113.582 338.23C113.431 338.388 113.346 338.599 113.346 338.818C113.346 339.038 113.431 339.249 113.582 339.407C113.74 339.561 113.951 339.647 114.171 339.647C114.391 339.647 114.602 339.561 114.759 339.407Z"
                fill="#B23E32" />
            <path
                d="M121.696 339.206L122.55 337.506C122.657 337.31 122.686 337.082 122.632 336.866C122.59 336.707 122.501 336.565 122.377 336.457C122.254 336.349 122.101 336.28 121.939 336.259C121.776 336.237 121.611 336.265 121.463 336.337C121.316 336.41 121.194 336.524 121.111 336.666L120.257 338.366C120.149 338.561 120.119 338.789 120.172 339.006C120.216 339.164 120.305 339.306 120.428 339.414C120.552 339.522 120.705 339.591 120.867 339.612C121.03 339.633 121.196 339.606 121.343 339.534C121.49 339.462 121.614 339.347 121.696 339.206Z"
                fill="#B23E32" />
            <path
                d="M122.333 346.139L124.885 343.587C125.041 343.431 125.13 343.22 125.131 342.999C125.131 342.778 125.044 342.566 124.889 342.41C124.733 342.253 124.522 342.165 124.301 342.164C124.08 342.163 123.868 342.25 123.712 342.406C122.86 343.256 122.009 344.106 121.16 344.958C121.004 345.114 120.916 345.326 120.916 345.546C120.916 345.767 121.004 345.979 121.16 346.135C121.316 346.291 121.528 346.379 121.748 346.379C121.969 346.379 122.181 346.291 122.337 346.135"
                fill="#B23E32" />
            <path
                d="M132.291 324.89L134.817 323.153C135.001 323.038 135.138 322.861 135.201 322.653C135.257 322.437 135.227 322.207 135.116 322.013C135.003 321.824 134.82 321.687 134.607 321.631C134.395 321.575 134.168 321.604 133.977 321.713L131.451 323.45C131.267 323.565 131.13 323.742 131.067 323.95C131.01 324.167 131.041 324.398 131.152 324.593C131.265 324.781 131.448 324.918 131.66 324.974C131.873 325.03 132.099 325.001 132.291 324.893"
                fill="#B23E32" />
            <path
                d="M122.07 318.415C124.674 319.731 127.276 321.047 129.878 322.365C130.07 322.471 130.296 322.499 130.508 322.443C130.72 322.387 130.902 322.252 131.017 322.065C131.126 321.873 131.156 321.647 131.1 321.434C131.044 321.221 130.906 321.039 130.717 320.926C128.114 319.61 125.511 318.293 122.909 316.976C122.717 316.87 122.492 316.842 122.28 316.898C122.068 316.954 121.885 317.089 121.77 317.276C121.661 317.467 121.632 317.694 121.688 317.906C121.744 318.119 121.881 318.302 122.07 318.415Z"
                fill="#EF6A55" />
            <path
                d="M118.1 322.604L122.358 324.287C122.463 324.316 122.573 324.324 122.682 324.311C122.79 324.297 122.895 324.263 122.99 324.209C123.085 324.155 123.169 324.082 123.236 323.996C123.303 323.91 123.353 323.811 123.382 323.706C123.434 323.493 123.403 323.269 123.295 323.078C123.187 322.888 123.01 322.746 122.801 322.682L118.544 320.998C118.331 320.94 118.104 320.968 117.912 321.077C117.72 321.186 117.579 321.366 117.52 321.579C117.467 321.791 117.497 322.016 117.605 322.207C117.713 322.398 117.89 322.54 118.1 322.604Z"
                fill="#EF6A55" />
            <path
                d="M245.17 365.68C243.793 363.997 243.37 302.832 231.711 282.845C229.018 278.229 215.832 276.179 214.005 271.158C212.193 266.168 208.53 262.107 204.952 258.186C200.053 252.814 195.155 247.444 190.259 242.074C185.504 236.863 180.559 231.51 174.119 228.636C167.679 225.762 159.285 226.023 154.45 231.159L144.999 235.881C134.689 240.796 128.36 251.831 126.276 263.061C124.192 274.291 125.728 285.846 127.427 297.143C131.471 324.024 130.527 338.152 140.936 363.077"
                fill="#62E0C1" />
            <path
                d="M220.468 363.741C214.317 349.575 206.94 353.784 203.047 338.841C197.805 318.732 201.439 284.417 157.999 251.673C157.06 250.964 145.899 237.373 146.999 232.373C147.065 232.073 132.544 245.428 126.546 253.68C115.539 268.82 123.088 307.087 125.32 318.889C130.007 343.689 129.096 347.825 134.733 361.303"
                fill="#62E0C1" />
            <path
                d="M330.276 152.548C331.189 155.992 334.676 157.771 336.121 160.923C337.868 164.723 337.639 169.479 336.545 173.423C336.495 173.633 336.528 173.854 336.638 174.04C336.747 174.226 336.925 174.362 337.133 174.42C337.341 174.477 337.564 174.451 337.753 174.348C337.943 174.245 338.085 174.072 338.15 173.866C339.432 169.642 339.353 165.122 337.924 160.946C337.202 159.218 336.145 157.65 334.815 156.332C333.626 155.08 332.339 153.832 331.882 152.109C331.817 151.903 331.675 151.73 331.485 151.626C331.296 151.523 331.073 151.497 330.865 151.555C330.657 151.612 330.479 151.748 330.37 151.934C330.26 152.12 330.227 152.342 330.277 152.552"
                fill="#A5613C" />
            <path
                d="M330.276 152.548C331.189 155.992 334.676 157.771 336.121 160.923C337.868 164.723 337.639 169.479 336.545 173.423C336.495 173.633 336.528 173.854 336.638 174.04C336.748 174.226 336.925 174.362 337.133 174.42C337.342 174.477 337.564 174.451 337.754 174.348C337.943 174.245 338.085 174.072 338.15 173.866C339.433 169.642 339.353 165.122 337.924 160.946C337.202 159.218 336.145 157.65 334.815 156.332C333.626 155.08 332.339 153.832 331.882 152.109C331.818 151.903 331.676 151.73 331.487 151.626C331.297 151.523 331.075 151.497 330.867 151.554C330.659 151.611 330.481 151.746 330.371 151.931C330.261 152.117 330.227 152.338 330.276 152.548Z"
                stroke="#E5A37F" stroke-width="0.25" stroke-miterlimit="10" />
            <path
                d="M354.68 166.551C354.649 166.836 353.866 166.805 353.621 166.629C352.997 166.184 353.089 165.05 353.181 164.402C353.509 162.342 354.249 160.37 355.356 158.602C355.46 158.412 355.486 158.188 355.428 157.979C355.37 157.77 355.232 157.592 355.045 157.482C354.858 157.373 354.635 157.341 354.425 157.393C354.214 157.445 354.032 157.578 353.918 157.762C353.027 159.287 351.967 160.706 350.757 161.992C350.187 162.607 349.579 163.186 348.937 163.724C348.537 164.056 348.412 164.068 348.125 163.632C347.922 163.315 347.778 162.964 347.701 162.596C347.549 161.883 347.558 161.146 347.727 160.438L347.755 160.389C348.781 158.56 349.608 156.626 350.222 154.62C350.386 154.212 350.526 153.796 350.643 153.372C350.693 153.162 350.66 152.94 350.55 152.754C350.44 152.568 350.262 152.432 350.054 152.375C349.846 152.317 349.623 152.343 349.434 152.446C349.244 152.55 349.102 152.723 349.038 152.929C348.944 153.277 348.8 153.605 348.694 153.948C347.957 155.862 346.705 157.83 346.157 159.835C345.736 160.716 345.175 161.522 344.495 162.222C343.695 162.922 343.224 162.003 343 161.278C342.443 159.19 342.346 157.006 342.717 154.878C343.088 152.749 343.918 150.727 345.149 148.951C345.749 148.061 344.306 147.226 343.711 148.111C341.388 151.577 340.43 155.78 341.023 159.911C341.251 161.493 341.717 163.842 343.631 164.143C344.099 164.183 344.57 164.1 344.996 163.901C345.423 163.703 345.789 163.396 346.06 163.011C346.186 163.491 346.379 163.952 346.634 164.379C346.821 164.807 347.143 165.163 347.551 165.39C347.959 165.618 348.431 165.706 348.894 165.641C349.854 165.228 350.696 164.583 351.347 163.765C351.462 163.652 351.556 163.518 351.669 163.402C351.406 164.383 351.39 165.413 351.622 166.402C351.754 166.969 352.072 167.477 352.524 167.844C352.977 168.211 353.539 168.417 354.122 168.429C354.664 168.464 355.199 168.287 355.613 167.936C356.028 167.585 356.291 167.086 356.346 166.546C356.461 165.482 354.795 165.491 354.679 166.546"
                fill="#A5613C" />
            <path
                d="M354.68 166.551C354.649 166.836 353.866 166.805 353.621 166.629C352.997 166.184 353.089 165.05 353.181 164.402C353.509 162.342 354.249 160.37 355.356 158.602C355.46 158.412 355.486 158.188 355.428 157.979C355.37 157.77 355.232 157.592 355.045 157.482C354.858 157.373 354.635 157.341 354.425 157.393C354.214 157.445 354.032 157.578 353.918 157.762C353.027 159.287 351.967 160.706 350.757 161.992C350.187 162.607 349.579 163.186 348.937 163.724C348.537 164.056 348.412 164.068 348.125 163.632C347.922 163.315 347.778 162.964 347.701 162.596C347.549 161.883 347.558 161.146 347.727 160.438L347.755 160.389C348.781 158.56 349.608 156.626 350.222 154.62C350.386 154.212 350.526 153.796 350.643 153.372C350.693 153.162 350.66 152.94 350.55 152.754C350.44 152.568 350.262 152.432 350.054 152.375C349.846 152.317 349.623 152.343 349.434 152.446C349.244 152.55 349.102 152.723 349.038 152.929C348.944 153.277 348.8 153.605 348.694 153.948C347.957 155.862 346.705 157.83 346.157 159.835C345.736 160.716 345.175 161.522 344.495 162.222C343.695 162.922 343.224 162.003 343 161.278C342.443 159.19 342.346 157.006 342.717 154.878C343.088 152.749 343.918 150.727 345.149 148.951C345.749 148.061 344.306 147.226 343.711 148.111C341.388 151.577 340.43 155.78 341.023 159.911C341.251 161.493 341.717 163.842 343.631 164.143C344.099 164.183 344.57 164.1 344.996 163.901C345.423 163.703 345.789 163.396 346.06 163.011C346.186 163.491 346.379 163.952 346.634 164.379C346.821 164.807 347.143 165.163 347.551 165.39C347.959 165.618 348.431 165.706 348.894 165.641C349.854 165.228 350.696 164.583 351.347 163.765C351.462 163.652 351.556 163.518 351.669 163.402C351.406 164.383 351.39 165.413 351.622 166.402C351.754 166.969 352.072 167.477 352.524 167.844C352.977 168.211 353.539 168.417 354.122 168.429C354.664 168.464 355.199 168.287 355.613 167.936C356.028 167.585 356.291 167.086 356.346 166.546C356.462 165.487 354.796 165.496 354.68 166.551Z"
                stroke="#E5A37F" stroke-width="0.25" stroke-miterlimit="10" />
            <path
                d="M351.478 166.703C346.846 168.223 342.752 171.05 339.69 174.845C339.54 175.004 339.457 175.215 339.457 175.433C339.457 175.652 339.54 175.862 339.69 176.022C339.847 176.177 340.059 176.265 340.28 176.265C340.501 176.265 340.713 176.177 340.869 176.022C343.73 172.436 347.568 169.757 351.92 168.308C352.935 167.974 352.499 166.366 351.477 166.703"
                fill="#A5613C" />
            <path
                d="M351.478 166.703C346.846 168.223 342.752 171.05 339.69 174.845C339.54 175.004 339.457 175.215 339.457 175.433C339.457 175.652 339.54 175.862 339.69 176.022C339.847 176.177 340.059 176.265 340.28 176.265C340.501 176.265 340.713 176.177 340.869 176.022C343.73 172.436 347.568 169.757 351.92 168.308C352.936 167.975 352.5 166.367 351.478 166.703Z"
                stroke="#E5A37F" stroke-width="0.25" stroke-miterlimit="10" />
            <path
                d="M205.643 340.435C210.499 340.812 232.479 342.784 237.338 343.161C239.979 343.368 242.804 343.644 244.849 345.329C246.338 346.774 247.461 348.553 248.126 350.519C251.164 357.635 254.184 364.758 257.186 371.89C258.802 375.3 259.95 378.914 260.597 382.633C261.449 389.339 259.065 395.782 255.786 401.841C255.591 402.207 255.271 402.492 254.884 402.643C254.498 402.794 254.07 402.802 253.678 402.665C253.286 402.528 252.956 402.255 252.748 401.896C252.54 401.537 252.467 401.115 252.543 400.707C253.209 397.096 254.056 393.524 255.083 389.992C253.864 395.976 251.839 401.767 249.062 407.206C248.883 407.562 248.587 407.845 248.224 408.01C247.861 408.174 247.453 408.208 247.068 408.107C246.682 408.007 246.343 407.776 246.107 407.456C245.871 407.135 245.752 406.743 245.771 406.345C246.048 401.136 247.141 396.004 249.01 391.134C247.748 396.364 246.374 401.802 243.584 406.312C243.386 406.631 243.09 406.877 242.741 407.014C242.392 407.151 242.008 407.172 241.646 407.073C241.284 406.974 240.964 406.76 240.733 406.465C240.503 406.169 240.374 405.807 240.366 405.432C240.237 399.801 241.048 394.187 242.766 388.823C241.546 392.744 239.867 396.508 237.766 400.037C237.574 400.354 237.286 400.601 236.943 400.743C236.601 400.885 236.222 400.914 235.863 400.826C235.503 400.737 235.18 400.537 234.943 400.252C234.705 399.968 234.564 399.616 234.541 399.246C234.357 396.246 235.551 392.858 235.852 389.732C236.857 379.3 227.244 369.684 229.299 359.407C221.741 360.05 214.148 360.193 206.572 359.835L205.643 340.435Z"
                fill="#E5A37F" />
            <path
                d="M134.034 244.398C116.891 264.524 108.723 280.098 98.1875 304.346C91.8675 318.883 87.2725 337.062 97.0675 349.524C103.512 357.724 114.436 360.848 124.767 362.294C147.715 365.502 180.822 367.953 218.458 359.994C218.981 354.02 216.5 339.767 215.603 333.838C179.492 324.754 127.762 317.323 128.317 321.21C132.041 347.286 145.467 284.824 141.831 258.736L134.034 244.398Z"
                fill="#49D6B3" />
            <path
                d="M122.654 325.244C117.381 329.28 112.965 334.326 109.663 340.087C109.559 340.277 109.533 340.5 109.591 340.71C109.649 340.919 109.786 341.097 109.973 341.206C110.161 341.316 110.383 341.348 110.594 341.295C110.804 341.243 110.986 341.111 111.101 340.927C114.247 335.404 118.459 330.562 123.492 326.681C123.677 326.564 123.811 326.382 123.867 326.17C123.923 325.959 123.896 325.734 123.792 325.542C123.68 325.352 123.497 325.214 123.284 325.158C123.071 325.102 122.844 325.132 122.653 325.242"
                fill="#2E5943" />
            <path
                d="M122.83 326.894C120.101 330.639 118.156 334.896 117.11 339.411C116.87 340.454 118.475 340.899 118.718 339.854C119.73 335.482 121.617 331.361 124.266 327.739C124.899 326.873 123.454 326.039 122.828 326.899"
                fill="#2E5943" />
            <path
                d="M199.279 336.389C200.119 344.171 200.819 351.965 201.379 359.772C201.454 360.834 203.121 360.843 203.043 359.772C202.488 351.964 201.788 344.169 200.943 336.389C200.83 335.334 199.163 335.323 199.279 336.389Z"
                fill="#2E5943" />
            <path
                d="M255.273 381.498C255.208 381.305 255.073 381.144 254.896 381.046C254.718 380.947 254.51 380.919 254.313 380.966C250.392 381.822 246.302 381.449 242.6 379.9C242.476 379.808 242.332 379.748 242.181 379.723C241.428 379.397 240.697 379.023 239.992 378.605C239.802 378.503 239.579 378.478 239.371 378.536C239.163 378.595 238.986 378.731 238.877 378.917C238.768 379.104 238.735 379.325 238.786 379.535C238.836 379.745 238.967 379.927 239.149 380.043C239.844 380.456 240.562 380.828 241.3 381.159C241.85 387.315 240.451 393.489 237.3 398.806C237.195 398.996 237.17 399.22 237.228 399.429C237.286 399.638 237.423 399.816 237.61 399.925C237.797 400.035 238.02 400.067 238.231 400.015C238.441 399.962 238.623 399.83 238.738 399.646C241.92 394.281 243.411 388.081 243.017 381.856C244.535 382.385 246.109 382.741 247.708 382.918C247.688 383.032 247.693 383.149 247.722 383.262C249.513 390.51 248.471 398.169 244.808 404.675C244.698 404.866 244.669 405.092 244.725 405.305C244.782 405.518 244.921 405.699 245.111 405.81C245.301 405.921 245.528 405.952 245.741 405.897C245.954 405.842 246.136 405.704 246.249 405.515C250.085 398.686 251.202 390.661 249.375 383.045C251.182 383.116 252.99 382.958 254.758 382.574C254.789 382.562 254.82 382.548 254.85 382.532C254.693 390.039 253.059 397.441 250.043 404.317C249.615 405.289 251.048 406.139 251.481 405.16C254.681 397.915 256.398 390.101 256.53 382.182C256.529 382.036 256.489 381.893 256.414 381.768C256.339 381.642 256.232 381.54 256.104 381.47C255.976 381.4 255.831 381.366 255.685 381.371C255.539 381.376 255.398 381.42 255.275 381.499"
                fill="#A5613C" />
            <path
                d="M255.273 381.498C255.208 381.305 255.073 381.144 254.896 381.046C254.718 380.947 254.51 380.919 254.313 380.966C250.392 381.822 246.302 381.449 242.6 379.9C242.476 379.808 242.332 379.748 242.181 379.723C241.428 379.397 240.697 379.023 239.992 378.605C239.802 378.503 239.579 378.478 239.371 378.536C239.163 378.595 238.986 378.731 238.877 378.917C238.768 379.104 238.735 379.325 238.786 379.535C238.836 379.745 238.967 379.927 239.149 380.043C239.844 380.456 240.562 380.828 241.3 381.159C241.85 387.315 240.451 393.489 237.3 398.806C237.195 398.996 237.17 399.22 237.228 399.429C237.286 399.638 237.423 399.816 237.61 399.925C237.797 400.035 238.02 400.067 238.231 400.015C238.441 399.962 238.623 399.83 238.738 399.646C241.92 394.281 243.411 388.081 243.017 381.856C244.535 382.385 246.109 382.741 247.708 382.918C247.688 383.032 247.693 383.149 247.722 383.262C249.513 390.51 248.471 398.169 244.808 404.675C244.698 404.866 244.669 405.092 244.725 405.305C244.782 405.518 244.921 405.699 245.111 405.81C245.301 405.921 245.528 405.952 245.741 405.897C245.954 405.842 246.136 405.704 246.249 405.515C250.085 398.686 251.202 390.661 249.375 383.045C251.182 383.116 252.99 382.958 254.758 382.574C254.789 382.562 254.82 382.548 254.85 382.532C254.693 390.039 253.059 397.441 250.043 404.317C249.615 405.289 251.048 406.139 251.481 405.16C254.681 397.915 256.398 390.101 256.53 382.182C256.529 382.036 256.489 381.892 256.414 381.766C256.34 381.641 256.232 381.538 256.104 381.468C255.975 381.398 255.83 381.364 255.684 381.369C255.538 381.374 255.396 381.419 255.273 381.498Z"
                stroke="#E5A37F" stroke-width="0.25" stroke-miterlimit="10" />
            <path
                d="M231.915 349.971C230.062 353.808 229.507 358.16 229.274 362.414C229.215 363.485 230.364 363.268 230.423 362.2C230.639 358.248 231.635 354.377 233.354 350.812C233.818 349.852 232.382 349.007 231.916 349.972"
                fill="#A5613C" />
            <path
                d="M231.915 349.971C230.062 353.808 229.507 358.16 229.274 362.414C229.215 363.485 230.364 363.268 230.423 362.2C230.639 358.248 231.635 354.377 233.354 350.812C233.817 349.847 232.381 349.006 231.915 349.971Z"
                stroke="#E5A37F" stroke-width="0.25" stroke-miterlimit="10" />
            <path d="M523.22 14.4248L486.535 70.6388L490.804 52.1148L523.22 14.4248Z" fill="#A09793" />
            <path
                d="M483.764 45.0718L486.537 70.6398L490.8 52.1148L523.222 14.4248L483.764 37.5508V45.0718Z"
                fill="#C6B5AF" />
            <path
                d="M483.769 45.0718C483.869 45.2578 517.926 18.8718 518.008 18.8718C510.487 27.3288 497.659 43.1048 490.808 52.1128C490.679 52.4128 503.813 64.8968 503.808 65.1128C514.829 43.4061 525.856 21.7025 536.89 0.00180054C516.39 10.7018 493.59 23.6788 473.09 34.3828L483.769 45.0718Z"
                fill="#F5E6DF" />
            <path
                d="M358.187 124.57C358.671 122.406 359.863 120.466 361.574 119.057C363.286 117.648 365.419 116.851 367.635 116.793C367.851 116.785 368.056 116.694 368.206 116.539C368.356 116.383 368.44 116.175 368.44 115.959C368.44 115.743 368.356 115.535 368.206 115.38C368.056 115.224 367.851 115.133 367.635 115.126C365.055 115.186 362.568 116.103 360.567 117.733C358.566 119.362 357.163 121.612 356.581 124.126C356.362 125.171 357.967 125.618 358.186 124.569"
                fill="#4C5562" />
            <path
                d="M377.277 115.448C379.484 115.611 381.58 116.477 383.257 117.919C384.935 119.361 386.106 121.304 386.598 123.461C386.824 124.508 388.429 124.061 388.206 123.018C387.613 120.511 386.232 118.261 384.264 116.598C382.297 114.935 379.848 113.948 377.277 113.781C376.206 113.727 376.208 115.391 377.277 115.448Z"
                fill="#4C5562" />
            <path
                d="M390.156 132.497C390.923 135.561 392.301 138.438 394.207 140.957C396.113 143.476 398.507 145.585 401.247 147.157C401.437 147.261 401.66 147.287 401.869 147.229C402.079 147.171 402.257 147.034 402.366 146.846C402.476 146.659 402.508 146.436 402.455 146.226C402.403 146.015 402.271 145.833 402.087 145.719C399.533 144.255 397.302 142.29 395.527 139.942C393.753 137.594 392.471 134.911 391.761 132.055C391.696 131.849 391.554 131.676 391.364 131.572C391.175 131.469 390.952 131.443 390.744 131.501C390.536 131.558 390.358 131.694 390.248 131.88C390.139 132.066 390.105 132.288 390.156 132.498"
                fill="#4C5562" />
            <path
                d="M413.877 148.527C417.162 149.246 420.598 148.695 423.495 146.985C423.679 146.87 423.811 146.688 423.863 146.478C423.916 146.267 423.883 146.045 423.774 145.857C423.665 145.67 423.486 145.533 423.277 145.475C423.068 145.417 422.845 145.443 422.655 145.547C420.149 147.041 417.172 147.532 414.32 146.922C413.275 146.694 412.83 148.299 413.877 148.527Z"
                fill="#4C5562" />
            <path
                d="M435.885 140.124C437.59 137.25 438.391 133.931 438.185 130.596C438.117 129.532 436.45 129.523 436.518 130.596C436.72 133.635 435.996 136.664 434.442 139.284C434.338 139.474 434.312 139.697 434.37 139.907C434.428 140.116 434.565 140.294 434.753 140.403C434.94 140.513 435.163 140.545 435.373 140.492C435.584 140.44 435.766 140.308 435.88 140.124"
                fill="#4C5562" />
            <path
                d="M436.232 116.995C432.779 114.029 429.575 110.785 426.652 107.295C426.495 107.14 426.284 107.053 426.063 107.053C425.843 107.053 425.632 107.14 425.475 107.295C425.323 107.453 425.238 107.664 425.238 107.883C425.238 108.103 425.323 108.314 425.475 108.472C428.396 111.963 431.6 115.208 435.055 118.172C435.865 118.866 437.046 117.694 436.232 116.995Z"
                fill="#4C5562" />
            <path
                d="M420.891 91.1418C421.814 84.7088 423.115 76.7418 429.791 73.7748C430.768 73.3398 429.923 71.9038 428.951 72.3368C421.866 75.4908 420.27 83.8368 419.288 90.6988C419.236 90.9114 419.268 91.1355 419.376 91.3256C419.484 91.5158 419.66 91.6578 419.869 91.7228C420.082 91.7806 420.309 91.752 420.5 91.6431C420.692 91.5343 420.833 91.3541 420.893 91.1418"
                fill="#4C5562" />
            <path
                d="M440.751 71.4918C442.568 71.4199 444.374 71.8107 446 72.6275C447.625 73.4443 449.016 74.6604 450.044 76.1618C450.635 77.0488 452.078 76.2158 451.48 75.3218C450.304 73.5707 448.703 72.1473 446.826 71.1852C444.949 70.2231 442.858 69.7539 440.751 69.8218C439.682 69.8688 439.678 71.5328 440.751 71.4888"
                fill="#4C5562" />
            <path
                d="M456.441 85.6908C458.079 88.2284 460.489 90.1726 463.315 91.2368C466.142 92.301 469.236 92.429 472.141 91.6018C473.163 91.2908 472.727 89.6838 471.698 89.9938C469.147 90.7296 466.427 90.627 463.94 89.7012C461.452 88.7753 459.327 87.0751 457.878 84.8508C457.311 83.9448 455.87 84.7798 456.44 85.6908"
                fill="#4C5562" />
            <path
                d="M477.567 87.8238C479.448 86.6821 480.803 84.846 481.341 82.7127C481.878 80.5794 481.554 78.3202 480.439 76.4238C479.867 75.5238 478.424 76.3558 479.001 77.2638C479.898 78.7773 480.162 80.5832 479.737 82.2902C479.311 83.9972 478.23 85.4677 476.727 86.3828C476.543 86.4973 476.411 86.6793 476.358 86.8898C476.306 87.1004 476.338 87.323 476.448 87.5104C476.557 87.6977 476.735 87.8349 476.944 87.8929C477.153 87.9509 477.377 87.925 477.567 87.8208"
                fill="#4C5562" />
            <path
                d="M133.166 210.878C134.285 213.386 135.945 215.616 138.026 217.409C140.108 219.201 142.559 220.512 145.206 221.247C145.017 216.74 144.512 212.252 143.692 207.816L133.166 210.878Z"
                fill="#24282F" />
            <path
                d="M172.62 150.168L190.443 191.346C192.027 195.009 193.649 198.876 193.243 202.846C192.666 208.573 187.987 213.095 182.905 215.797C177.823 218.499 180.005 217.367 174.897 220.02C176.324 224.064 177.448 228.209 178.258 232.42C179.814 239.484 169.699 247.831 162.619 249.309C162.53 249.328 162.442 249.347 162.355 249.363C160.674 249.706 158.943 249.713 157.26 249.382C155.577 249.051 153.977 248.389 152.552 247.435C151.128 246.48 149.906 245.253 148.96 243.823C148.013 242.393 147.36 240.789 147.038 239.105C145.324 230.214 143.999 220.957 142.182 212.558C140.167 213.958 129.401 216.971 128.082 202.695C127.72 198.783 131.064 194.384 134.892 195.273C133.545 186.966 132.199 178.658 130.855 170.35C130.684 169.643 130.679 168.907 130.841 168.199C131.232 167.3 131.897 166.548 132.741 166.05C143.436 158.232 153.82 143.424 166.589 139.877L172.62 150.168Z"
                fill="#E5A37F" />
            <path
                d="M140.38 207.51C138.684 205.157 136.4 203.291 133.756 202.098C133.563 201.997 133.338 201.974 133.128 202.035C132.919 202.095 132.741 202.234 132.631 202.423C132.527 202.615 132.503 202.841 132.564 203.051C132.625 203.261 132.766 203.438 132.956 203.546C134.054 204.041 135.091 204.664 136.044 205.401C135.304 205.865 134.66 206.469 134.149 207.178C134.044 207.366 134.017 207.589 134.074 207.797C134.119 207.954 134.209 208.095 134.334 208.202C134.459 208.308 134.612 208.375 134.775 208.394C134.937 208.413 135.102 208.384 135.248 208.309C135.394 208.235 135.515 208.119 135.595 207.976C135.609 207.96 135.621 207.941 135.633 207.924C135.668 207.879 135.701 207.837 135.733 207.795C135.815 207.695 135.9 207.595 135.99 207.501C136.161 207.321 136.341 207.152 136.531 206.993L136.557 206.972C136.602 206.939 136.649 206.906 136.694 206.872C136.794 206.797 136.908 206.724 137.019 206.658C137.111 206.599 137.212 206.558 137.309 206.505C137.909 207.073 138.46 207.692 138.954 208.355C139.07 208.539 139.253 208.672 139.464 208.725C139.675 208.779 139.899 208.749 140.089 208.642C140.276 208.528 140.411 208.345 140.465 208.133C140.519 207.921 140.487 207.696 140.376 207.507"
                fill="#A5613C" />
            <path
                d="M140.38 207.51C138.684 205.157 136.4 203.291 133.756 202.098C133.563 201.997 133.338 201.974 133.128 202.035C132.919 202.095 132.741 202.234 132.631 202.423C132.527 202.615 132.503 202.841 132.564 203.051C132.625 203.261 132.766 203.438 132.956 203.546C134.054 204.041 135.091 204.664 136.044 205.401C135.304 205.865 134.66 206.469 134.149 207.178C134.044 207.366 134.017 207.589 134.074 207.797C134.119 207.954 134.209 208.095 134.334 208.202C134.459 208.308 134.612 208.375 134.775 208.394C134.937 208.413 135.102 208.384 135.248 208.309C135.394 208.235 135.515 208.119 135.595 207.976C135.609 207.96 135.621 207.941 135.633 207.924C135.668 207.879 135.701 207.837 135.733 207.795C135.815 207.695 135.9 207.595 135.99 207.501C136.161 207.321 136.341 207.152 136.531 206.993L136.557 206.972C136.602 206.939 136.649 206.906 136.694 206.872C136.794 206.797 136.908 206.724 137.019 206.658C137.111 206.599 137.212 206.558 137.309 206.505C137.909 207.073 138.46 207.692 138.954 208.355C139.07 208.539 139.253 208.672 139.464 208.725C139.675 208.779 139.899 208.749 140.089 208.642C140.276 208.529 140.412 208.347 140.466 208.135C140.52 207.924 140.49 207.699 140.38 207.51Z"
                stroke="#E5A37F" stroke-width="0.25" stroke-miterlimit="10" />
            <g opacity="0.79">
                <mask id="mask2_251_8936" style="mask-type:luminance" maskUnits="userSpaceOnUse"
                    x="160" y="220" width="17" height="7">
                    <path d="M176.965 220.024H160.279V226.178H176.965V220.024Z" fill="white" />
                </mask>
                <g mask="url(#mask2_251_8936)">
                    <path d="M174.899 220.024L160.279 225.124L176.966 226.176L174.899 220.024Z"
                        fill="#A5613C" />
                </g>
            </g>
            <path
                d="M160.192 188.59C160.285 189.136 160.217 189.697 159.999 190.206C159.78 190.715 159.419 191.15 158.959 191.459C158.499 191.767 157.959 191.936 157.405 191.946C156.852 191.955 156.307 191.805 155.837 191.512C155.366 191.219 154.991 190.797 154.755 190.296C154.519 189.794 154.432 189.236 154.506 188.687C154.58 188.138 154.811 187.622 155.171 187.201C155.531 186.78 156.005 186.472 156.536 186.314C157.322 186.135 158.148 186.273 158.832 186.699C159.517 187.126 160.006 187.805 160.192 188.59Z"
                fill="black" />
            <path
                d="M179.725 179.666C179.818 180.212 179.751 180.773 179.532 181.282C179.313 181.791 178.952 182.225 178.492 182.534C178.032 182.843 177.493 183.012 176.939 183.021C176.385 183.031 175.841 182.88 175.37 182.588C174.9 182.295 174.524 181.873 174.288 181.372C174.052 180.871 173.966 180.312 174.039 179.763C174.113 179.215 174.343 178.699 174.703 178.277C175.063 177.856 175.537 177.548 176.067 177.39C176.854 177.21 177.68 177.349 178.365 177.775C179.05 178.201 179.539 178.881 179.725 179.666Z"
                fill="black" />
            <path
                d="M174.55 122.574C172.691 122.61 170.869 123.099 169.242 124C162.59 127.188 156.815 131.95 152.42 137.874C152.74 135.12 155.134 132.174 153.486 129.949C152.994 129.394 152.345 129.003 151.625 128.827C150.904 128.652 150.148 128.7 149.456 128.967C148.082 129.529 146.856 130.398 145.871 131.509C139.297 138.028 134.077 145.782 130.509 154.325C129.643 152.63 129.949 150.125 128.259 149.255C126.823 148.511 125.013 149.782 124.58 151.341C124.309 152.942 124.518 154.588 125.18 156.072C124.514 155.689 123.771 155.459 123.005 155.399C122.239 155.339 121.469 155.45 120.751 155.724C120.034 155.998 119.386 156.428 118.855 156.983C118.324 157.539 117.923 158.205 117.681 158.934C117.439 159.664 117.363 160.437 117.457 161.2C117.551 161.962 117.814 162.694 118.226 163.343C118.638 163.991 119.189 164.54 119.84 164.949C120.49 165.358 121.223 165.618 121.986 165.709C122.268 176.954 124.408 188.075 128.32 198.622C128.978 197.473 129.978 196.557 131.18 196.002C132.382 195.446 133.727 195.279 135.029 195.522C137.084 198.478 139.005 201.522 140.794 204.653C141.484 204.609 142.147 204.369 142.705 203.961C140.229 194.347 137.752 184.734 135.274 175.121C145.756 171.129 155.649 165.721 165.493 160.321C168.82 158.649 171.957 156.623 174.85 154.279C178.391 150.999 181.261 147.063 183.3 142.689C183.88 141.76 184.159 140.675 184.1 139.582C183.74 137.261 180.663 136.421 178.408 137.082C176.153 137.743 174.256 139.337 171.989 139.956C174.733 136.937 176.896 133.438 178.37 129.634C179.004 128.343 179.185 126.876 178.883 125.47C178.531 124.611 177.931 123.876 177.16 123.36C176.389 122.843 175.482 122.568 174.554 122.57"
                fill="#24282F" />
            <path
                d="M177.494 196.687C175.154 190.656 170.543 186.05 165.988 181.625C165.225 180.884 164.077 182.077 164.842 182.825C168.851 186.718 173.005 190.793 175.361 195.934L170.413 195.376C169.354 195.258 169.382 196.915 170.427 197.033L176.702 197.739C176.829 197.737 176.953 197.706 177.066 197.649C177.179 197.592 177.277 197.509 177.353 197.408C177.429 197.307 177.482 197.19 177.506 197.066C177.53 196.942 177.526 196.814 177.493 196.692"
                fill="#A5613C" />
            <path
                d="M177.494 196.687C175.154 190.656 170.543 186.05 165.988 181.625C165.225 180.884 164.077 182.077 164.842 182.825C168.851 186.718 173.005 190.793 175.361 195.934L170.413 195.376C169.354 195.258 169.382 196.915 170.427 197.033L176.702 197.739C176.829 197.737 176.954 197.707 177.068 197.649C177.181 197.592 177.28 197.509 177.356 197.407C177.433 197.306 177.485 197.188 177.509 197.063C177.533 196.938 177.528 196.809 177.494 196.687Z"
                stroke="#E5A37F" stroke-width="0.25" stroke-miterlimit="10" />
            <path
                d="M153.817 171.551C154.177 173.3 154.438 175.39 153.148 176.624C152.799 176.929 152.412 177.187 151.995 177.391C148.785 179.147 145.575 180.903 142.365 182.661C143.182 180.752 144.241 178.957 145.517 177.32C147.612 174.432 150.368 171.358 153.934 171.431L153.817 171.551Z"
                fill="#24282F" />
            <path
                d="M166.698 165.219C167.364 166.876 168.298 168.762 170.055 169.079C170.515 169.14 170.981 169.14 171.441 169.079L182.379 168.159C180.645 167.02 178.771 166.109 176.803 165.45C173.463 164.198 169.468 163.15 166.533 165.184L166.698 165.219Z"
                fill="#24282F" />
            <path
                d="M161.861 199.924C163.041 201.668 164.759 202.978 166.753 203.655C168.746 204.332 170.907 204.339 172.905 203.674C173.905 203.314 173.475 201.704 172.462 202.066C170.819 202.636 169.034 202.654 167.38 202.117C165.726 201.579 164.293 200.515 163.299 199.088C162.711 198.198 161.268 199.031 161.861 199.928"
                fill="#A5613C" />
            <path
                d="M161.861 199.924C163.041 201.668 164.759 202.978 166.753 203.655C168.747 204.332 170.907 204.339 172.905 203.674C173.905 203.314 173.475 201.704 172.462 202.066C170.819 202.636 169.034 202.654 167.38 202.117C165.726 201.579 164.293 200.515 163.299 199.088C162.71 198.194 161.268 199.027 161.861 199.924Z"
                stroke="#E5A37F" stroke-width="0.25" stroke-miterlimit="10" />
            <path
                d="M145.796 148.294C145.725 145.906 146.168 143.531 147.096 141.329C147.933 139.114 149.34 137.159 151.175 135.663C151.919 135.143 153.159 134.531 153.858 135.437C154.386 136.422 154.671 137.519 154.689 138.637C155.287 143.69 153.923 148.781 150.878 152.858L152.401 153.058C152.004 151.276 152.151 149.416 152.821 147.717C153.491 146.019 154.653 144.56 156.16 143.528C156.574 143.19 157.054 142.942 157.57 142.8C158.085 142.657 158.625 142.624 159.154 142.702C159.546 142.84 159.903 143.064 160.197 143.359C160.491 143.653 160.716 144.009 160.854 144.402C161.718 146.52 160.48 148.785 159.503 150.63C160.011 150.844 160.52 151.056 161.026 151.27C161.528 149.276 162.488 147.427 163.83 145.87C165.172 144.313 166.858 143.09 168.756 142.299C169.634 141.856 170.601 141.617 171.585 141.599C172.058 141.644 172.148 141.799 172.103 142.263C172.035 142.796 171.929 143.323 171.785 143.84C171.221 146.016 170.182 148.041 168.742 149.768C167.303 151.495 165.499 152.882 163.46 153.83C162.49 154.284 163.335 155.72 164.3 155.268C166.583 154.178 168.593 152.59 170.182 150.621C171.771 148.651 172.899 146.351 173.482 143.889C173.732 142.789 174.101 141.389 173.164 140.511C172.3 139.701 170.949 139.897 169.911 140.165C167.371 140.849 165.06 142.197 163.215 144.071C161.369 145.945 160.056 148.276 159.411 150.826C159.192 151.716 160.477 152.326 160.932 151.469C161.949 149.548 163.039 147.425 162.747 145.184C162.67 144.302 162.351 143.459 161.825 142.748C161.299 142.036 160.587 141.484 159.767 141.152C157.79 140.469 155.678 141.665 154.214 142.92C152.831 144.133 151.78 145.679 151.16 147.411C150.441 149.36 150.313 151.478 150.79 153.5C150.837 153.654 150.928 153.792 151.052 153.896C151.176 154.001 151.327 154.067 151.487 154.088C151.647 154.109 151.81 154.084 151.957 154.015C152.103 153.946 152.227 153.837 152.313 153.7C155.62 149.208 157.045 143.604 156.287 138.078C156.239 136.716 155.811 135.395 155.051 134.265C154.65 133.829 154.13 133.523 153.555 133.383C152.98 133.243 152.377 133.277 151.822 133.481C149.313 134.291 147.489 136.939 146.302 139.156C144.799 141.961 144.05 145.109 144.129 148.291C144.136 148.507 144.227 148.712 144.383 148.862C144.538 149.012 144.746 149.096 144.962 149.096C145.178 149.096 145.386 149.012 145.542 148.862C145.697 148.712 145.788 148.507 145.796 148.291"
                fill="#474A4F" />
            <path
                d="M133.508 157.503C133.5 156.083 133.909 154.692 134.683 153.503C135.274 152.803 136.594 152.267 137.416 152.903C137.825 153.347 138.043 153.934 138.023 154.537C138.098 155.302 138.101 156.072 138.032 156.837C137.885 158.43 137.422 159.977 136.669 161.389C137.152 161.669 137.627 161.949 138.107 162.229C138.733 160.933 139.633 159.789 140.747 158.877C141.86 157.965 143.159 157.307 144.552 156.949C145.117 156.805 146.663 156.342 146.981 157.057C147.104 157.51 147.132 157.983 147.063 158.448C147.047 158.968 146.991 159.486 146.894 159.997C146.701 161.024 146.365 162.018 145.894 162.951C145.421 163.883 144.815 164.742 144.094 165.5C143.862 165.784 143.562 166.005 143.221 166.143C143.106 166.19 142.984 166.217 142.859 166.221C142.72 166.214 142.868 166.348 142.845 166.242C142.6 165.199 140.995 165.642 141.24 166.685C141.335 167.064 141.566 167.396 141.889 167.616C142.212 167.837 142.605 167.932 142.993 167.883C143.878 167.788 144.693 167.359 145.272 166.683C146.787 165.088 147.859 163.125 148.381 160.989C148.791 159.289 149.424 155.954 147.239 155.199C146.27 154.964 145.255 154.998 144.304 155.299C143.302 155.538 142.337 155.912 141.435 156.412C139.374 157.544 137.711 159.282 136.668 161.39C136.204 162.346 137.605 163.19 138.106 162.23C139.089 160.376 139.645 158.326 139.735 156.23C139.801 154.53 139.735 152.158 137.972 151.296C137.241 150.987 136.433 150.907 135.656 151.068C134.879 151.229 134.169 151.622 133.62 152.196C132.264 153.596 132.026 155.651 131.84 157.496C131.74 158.562 133.403 158.555 133.507 157.496"
                fill="#474A4F" />
            <path
                d="M126.651 162.394C126.426 163.775 126.285 165.169 126.228 166.567C126.194 167.153 126.314 167.737 126.576 168.262C126.839 168.787 127.234 169.234 127.723 169.559C128.142 169.827 128.644 169.933 129.136 169.857C129.627 169.781 130.074 169.529 130.392 169.147C130.7 168.79 130.861 168.329 130.842 167.859C130.824 167.388 130.627 166.941 130.292 166.61C130.161 166.481 129.991 166.399 129.809 166.376C129.627 166.353 129.442 166.389 129.282 166.481C127.892 167.489 126.817 168.871 126.182 170.466C125.575 172.01 125.273 173.99 126.342 175.404C126.81 175.969 127.412 176.409 128.094 176.682C128.775 176.955 129.513 177.054 130.242 176.969C132.008 176.659 133.657 175.875 135.011 174.7C135.863 174.071 135.032 172.626 134.168 173.262C133.15 174.122 131.979 174.781 130.715 175.206C130.205 175.365 129.662 175.385 129.142 175.263C128.621 175.142 128.143 174.883 127.756 174.514C126.923 173.551 127.356 171.96 127.789 170.908C128.284 169.721 129.089 168.688 130.119 167.919L129.109 167.787C129.269 167.931 129.093 168.201 128.848 168.218C128.248 168.26 127.958 167.378 127.906 166.942C127.869 166.227 127.914 165.51 128.038 164.805C128.13 163.999 128.222 163.196 128.313 162.395C128.433 161.331 126.767 161.34 126.646 162.395"
                fill="#474A4F" />
            <path
                d="M125.637 184.292C125.506 185.456 125.761 186.632 126.364 187.637C126.983 188.683 127.929 189.496 129.057 189.948C129.27 190.006 129.497 189.977 129.689 189.868C129.881 189.76 130.022 189.579 130.081 189.367C130.133 189.154 130.102 188.929 129.994 188.739C129.886 188.548 129.71 188.406 129.5 188.341C129.681 188.416 129.472 188.327 129.448 188.315C129.406 188.296 129.366 188.275 129.326 188.254C129.215 188.197 129.107 188.134 129.001 188.066C128.952 188.035 128.901 188.005 128.857 187.972C128.841 187.96 128.688 187.85 128.777 187.916C128.866 187.982 128.718 187.869 128.702 187.855C128.65 187.81 128.602 187.766 128.549 187.718C128.383 187.562 128.226 187.395 128.081 187.218C127.981 187.098 128.119 187.279 128.067 187.197C128.034 187.15 127.999 187.105 127.967 187.056C127.896 186.956 127.83 186.847 127.767 186.736C127.704 186.625 127.659 186.536 127.609 186.436C127.583 186.384 127.56 186.336 127.536 186.281C127.609 186.443 127.543 186.295 127.536 186.257C127.452 186.033 127.386 185.804 127.336 185.57C127.324 185.513 127.315 185.457 127.305 185.403C127.289 185.311 127.289 185.271 127.305 185.387C127.293 185.274 127.281 185.161 127.277 185.048C127.268 184.797 127.282 184.545 127.317 184.297C127.316 184.076 127.228 183.865 127.072 183.709C126.916 183.553 126.705 183.465 126.484 183.464C126.266 183.471 126.058 183.561 125.903 183.716C125.749 183.87 125.659 184.078 125.651 184.297"
                fill="#474A4F" />
            <path
                d="M131.854 189.55C132.24 190.194 132.625 190.839 133.01 191.485C133.064 191.579 133.137 191.662 133.224 191.729C133.311 191.795 133.41 191.844 133.516 191.872C133.621 191.9 133.732 191.906 133.84 191.891C133.948 191.876 134.052 191.84 134.147 191.785C134.335 191.671 134.471 191.489 134.527 191.276C134.583 191.063 134.555 190.837 134.447 190.646C134.063 190.001 133.678 189.356 133.294 188.711C133.181 188.525 133.003 188.388 132.794 188.327C132.634 188.283 132.465 188.287 132.308 188.34C132.15 188.393 132.012 188.491 131.911 188.622C131.81 188.754 131.751 188.912 131.74 189.077C131.729 189.243 131.768 189.408 131.852 189.551"
                fill="#474A4F" />
            <path
                d="M131.77 185.01C132.25 185.815 132.731 186.622 133.213 187.43C133.268 187.524 133.342 187.607 133.429 187.673C133.516 187.739 133.616 187.787 133.722 187.815C133.828 187.842 133.938 187.849 134.046 187.834C134.155 187.819 134.259 187.783 134.354 187.727C134.448 187.672 134.531 187.599 134.597 187.511C134.663 187.424 134.711 187.325 134.739 187.219C134.766 187.113 134.773 187.002 134.758 186.894C134.743 186.786 134.706 186.681 134.651 186.587L133.208 184.17C133.155 184.072 133.082 183.986 132.995 183.917C132.908 183.848 132.807 183.797 132.7 183.767C132.593 183.737 132.481 183.73 132.37 183.744C132.26 183.758 132.153 183.795 132.057 183.851C131.961 183.907 131.877 183.982 131.811 184.071C131.744 184.16 131.696 184.262 131.669 184.37C131.642 184.478 131.637 184.59 131.655 184.7C131.672 184.81 131.711 184.915 131.77 185.01Z"
                fill="#474A4F" />
            <path
                d="M323.954 198.703C323.419 200.829 322.274 202.753 320.66 204.237C320.505 204.393 320.419 204.604 320.42 204.824C320.421 205.044 320.508 205.254 320.663 205.41C320.819 205.566 321.029 205.653 321.249 205.654C321.469 205.656 321.68 205.57 321.837 205.416C323.655 203.726 324.947 201.548 325.558 199.143C325.591 199.036 325.603 198.924 325.592 198.813C325.581 198.701 325.548 198.593 325.494 198.495C325.441 198.397 325.368 198.311 325.28 198.241C325.193 198.172 325.092 198.12 324.984 198.091C324.877 198.061 324.764 198.053 324.653 198.068C324.542 198.083 324.436 198.12 324.339 198.176C324.243 198.233 324.159 198.309 324.093 198.399C324.026 198.489 323.979 198.591 323.953 198.7"
                fill="#2E5943" />
            <path
                d="M328.209 202.735C327.359 204.152 326.508 205.569 325.657 206.986C325.598 207.08 325.559 207.186 325.541 207.296C325.524 207.406 325.529 207.518 325.556 207.626C325.582 207.734 325.631 207.836 325.697 207.925C325.764 208.014 325.848 208.089 325.944 208.145C326.04 208.201 326.147 208.237 326.257 208.252C326.367 208.266 326.48 208.258 326.587 208.228C326.694 208.199 326.794 208.148 326.882 208.079C326.969 208.009 327.041 207.923 327.095 207.826C327.945 206.409 328.795 204.992 329.647 203.575C329.751 203.385 329.777 203.161 329.719 202.952C329.661 202.743 329.524 202.565 329.336 202.455C329.149 202.346 328.926 202.314 328.716 202.366C328.505 202.418 328.323 202.551 328.209 202.735Z"
                fill="#2E5943" />
            <path
                d="M332.427 203.565L329.85 207.802C329.746 207.992 329.72 208.216 329.778 208.425C329.836 208.634 329.974 208.812 330.161 208.921C330.348 209.031 330.571 209.063 330.781 209.01C330.992 208.958 331.174 208.826 331.288 208.642L333.865 204.405C333.924 204.31 333.963 204.205 333.981 204.095C333.998 203.985 333.993 203.873 333.967 203.765C333.94 203.657 333.892 203.555 333.825 203.466C333.758 203.377 333.674 203.302 333.578 203.246C333.482 203.19 333.376 203.153 333.265 203.139C333.155 203.125 333.043 203.133 332.935 203.162C332.828 203.192 332.728 203.243 332.641 203.312C332.553 203.381 332.481 203.467 332.427 203.565Z"
                fill="#2E5943" />
            <path
                d="M335.864 205.286C334.73 207.27 333.597 209.254 332.464 211.239C332.36 211.429 332.334 211.653 332.392 211.862C332.45 212.071 332.587 212.249 332.774 212.358C332.961 212.468 333.184 212.5 333.395 212.448C333.605 212.395 333.787 212.263 333.902 212.079C335.035 210.095 336.168 208.11 337.302 206.126C337.406 205.936 337.432 205.712 337.374 205.503C337.316 205.294 337.179 205.116 336.991 205.006C336.804 204.897 336.581 204.865 336.371 204.917C336.16 204.969 335.978 205.102 335.864 205.286Z"
                fill="#2E5943" />
            <path
                d="M203.067 340.054H214.123C214.339 340.046 214.544 339.955 214.694 339.8C214.844 339.644 214.928 339.436 214.928 339.22C214.928 339.004 214.844 338.796 214.694 338.641C214.544 338.485 214.339 338.394 214.123 338.387H203.067C202.851 338.394 202.646 338.485 202.496 338.641C202.346 338.796 202.262 339.004 202.262 339.22C202.262 339.436 202.346 339.644 202.496 339.8C202.646 339.955 202.851 340.046 203.067 340.054Z"
                fill="#2E5943" />
            <path
                d="M204.077 345.75C206.996 344.961 210.045 344.771 213.041 345.19C213.253 345.242 213.478 345.21 213.668 345.102C213.858 344.994 214 344.818 214.065 344.609C214.122 344.396 214.094 344.169 213.985 343.977C213.876 343.785 213.696 343.644 213.484 343.585C210.197 343.102 206.846 343.293 203.635 344.145C203.429 344.209 203.256 344.351 203.152 344.541C203.049 344.731 203.023 344.953 203.081 345.161C203.138 345.369 203.274 345.547 203.46 345.657C203.646 345.767 203.867 345.8 204.077 345.75Z"
                fill="#2E5943" />
            <path
                d="M205 349.429C207.45 349.02 209.963 349.577 212.01 350.985C212.2 351.089 212.423 351.115 212.632 351.057C212.841 350.999 213.02 350.862 213.129 350.674C213.238 350.487 213.27 350.264 213.218 350.054C213.166 349.843 213.034 349.661 212.85 349.547C210.414 347.917 207.44 347.299 204.557 347.824C204.345 347.884 204.165 348.025 204.057 348.217C203.948 348.408 203.919 348.635 203.976 348.848C204.039 349.058 204.18 349.235 204.371 349.344C204.562 349.452 204.787 349.482 205 349.429Z"
                fill="#2E5943" />
            <path
                d="M205.618 353.662H213.273C213.489 353.654 213.693 353.563 213.844 353.408C213.994 353.252 214.078 353.044 214.078 352.828C214.078 352.612 213.994 352.404 213.844 352.249C213.693 352.093 213.489 352.002 213.273 351.995H205.618C205.402 352.002 205.197 352.093 205.047 352.249C204.896 352.404 204.812 352.612 204.812 352.828C204.812 353.044 204.896 353.252 205.047 353.408C205.197 353.563 205.402 353.654 205.618 353.662Z"
                fill="#2E5943" />
            <path
                d="M205.363 356.336L212.215 357.81C212.428 357.863 212.653 357.833 212.844 357.725C213.035 357.616 213.176 357.439 213.239 357.229C213.297 357.016 213.268 356.789 213.159 356.598C213.05 356.406 212.87 356.265 212.658 356.205C210.375 355.713 208.091 355.221 205.806 354.731C205.594 354.677 205.369 354.707 205.178 354.816C204.987 354.924 204.845 355.102 204.782 355.312C204.725 355.525 204.754 355.751 204.863 355.943C204.972 356.134 205.152 356.276 205.363 356.336Z"
                fill="#2E5943" />
            <path
                d="M263.466 256.961L268.692 275.637C268.757 275.843 268.899 276.016 269.089 276.119C269.278 276.222 269.501 276.248 269.709 276.191C269.917 276.133 270.095 275.997 270.204 275.811C270.314 275.625 270.348 275.404 270.297 275.194L265.071 256.518C265.007 256.312 264.865 256.139 264.675 256.035C264.485 255.932 264.263 255.906 264.055 255.964C263.847 256.021 263.669 256.157 263.559 256.343C263.449 256.529 263.416 256.751 263.466 256.961Z"
                fill="#2E5943" />
            <path
                d="M210.279 241.545C218.35 253.086 226.568 264.825 231.687 278.037C233.123 281.718 234.276 285.503 235.138 289.359C235.369 290.406 236.976 289.959 236.743 288.916C233.657 274.969 226.443 262.423 218.576 250.663C216.333 247.313 214.028 244.006 211.717 240.704C211.107 239.831 209.662 240.665 210.279 241.545Z"
                fill="#2E5943" />
            <path
                d="M214.06 333.251C199.826 329.395 185.552 325.551 170.994 323.099C156.678 320.689 142.063 319.648 127.605 321.371C119.544 322.329 111.597 324.083 103.88 326.606C102.865 326.936 103.299 328.546 104.323 328.211C118.031 323.77 132.407 321.748 146.808 322.237C161.348 322.682 175.716 325.323 189.834 328.684C197.804 330.584 205.713 332.714 213.62 334.856C213.83 334.906 214.052 334.873 214.238 334.763C214.424 334.653 214.56 334.475 214.617 334.267C214.675 334.059 214.649 333.837 214.546 333.647C214.442 333.457 214.269 333.315 214.063 333.251"
                fill="#2E5943" />
            <path
                d="M122.209 316.282C127.029 318.261 131.851 320.24 136.673 322.218C137.664 322.625 138.095 321.018 137.116 320.613C132.295 318.633 127.474 316.655 122.652 314.677C121.661 314.27 121.23 315.877 122.209 316.282Z"
                fill="#2E5943" />
            <path
                d="M189.78 316.608C197.211 308.449 204.914 300.551 212.888 292.914C213.665 292.173 212.488 290.996 211.711 291.737C203.741 299.368 196.039 307.266 188.604 315.431C187.884 316.222 189.057 317.404 189.78 316.608Z"
                fill="#2E5943" />
            <path
                d="M194.468 319.566C201.973 312.019 209.86 304.862 218.099 298.125C218.928 297.445 217.744 296.275 216.92 296.948C208.681 303.685 200.794 310.842 193.29 318.389C193.145 318.547 193.066 318.755 193.07 318.97C193.075 319.185 193.162 319.39 193.314 319.542C193.466 319.694 193.671 319.781 193.886 319.785C194.101 319.79 194.31 319.711 194.468 319.566Z"
                fill="#2E5943" />
            <path
                d="M133.702 246.973C140.123 253.397 141.797 262.699 142.051 271.437C142.195 276.277 141.926 281.114 141.66 285.944C141.354 291.518 140.96 297.092 140.238 302.631C139.468 308.94 138.079 315.158 136.093 321.196C135.749 322.213 137.357 322.651 137.698 321.639C141.384 310.739 142.547 299.204 143.22 287.774C143.785 278.208 144.566 268.235 142.081 258.859C140.878 253.945 138.394 249.438 134.881 245.797C134.723 245.651 134.515 245.573 134.3 245.577C134.085 245.582 133.88 245.669 133.728 245.821C133.576 245.973 133.489 246.178 133.485 246.393C133.48 246.607 133.559 246.816 133.704 246.974"
                fill="#2E5943" />
            <path
                d="M145.335 245.233L142.758 249.47C142.7 249.564 142.66 249.67 142.643 249.78C142.626 249.89 142.63 250.002 142.657 250.11C142.684 250.218 142.732 250.32 142.799 250.409C142.866 250.498 142.95 250.573 143.046 250.629C143.142 250.685 143.248 250.721 143.359 250.736C143.469 250.75 143.581 250.742 143.688 250.712C143.796 250.683 143.896 250.632 143.983 250.562C144.07 250.493 144.143 250.407 144.196 250.31L146.773 246.073C146.878 245.883 146.903 245.659 146.846 245.45C146.788 245.241 146.65 245.063 146.463 244.953C146.276 244.844 146.053 244.812 145.842 244.864C145.632 244.916 145.45 245.049 145.335 245.233Z"
                fill="#2E5943" />
            <path
                d="M149.48 249.691L148.58 253.078C148.529 253.288 148.563 253.509 148.672 253.695C148.782 253.881 148.96 254.017 149.168 254.075C149.376 254.132 149.599 254.106 149.788 254.003C149.978 253.9 150.12 253.727 150.185 253.521L151.085 250.134C151.118 250.027 151.13 249.915 151.119 249.804C151.108 249.692 151.075 249.584 151.021 249.486C150.968 249.388 150.895 249.302 150.807 249.232C150.72 249.163 150.619 249.111 150.511 249.082C150.404 249.052 150.291 249.044 150.18 249.059C150.069 249.074 149.962 249.111 149.866 249.167C149.77 249.224 149.686 249.3 149.62 249.39C149.553 249.48 149.506 249.582 149.48 249.691Z"
                fill="#2E5943" />
            <path
                d="M154.711 250.57L153.652 256.485C153.599 256.697 153.63 256.922 153.738 257.113C153.846 257.303 154.024 257.445 154.233 257.509C154.446 257.565 154.672 257.536 154.864 257.428C155.055 257.319 155.197 257.14 155.257 256.928L156.316 251.013C156.369 250.8 156.338 250.574 156.229 250.383C156.12 250.192 155.942 250.051 155.731 249.988C155.518 249.931 155.292 249.96 155.1 250.069C154.909 250.178 154.768 250.357 154.707 250.569"
                fill="#2E5943" />
            <path
                d="M159.713 252.478V256.729C159.713 256.95 159.801 257.162 159.957 257.318C160.113 257.474 160.325 257.562 160.546 257.562C160.767 257.562 160.979 257.474 161.136 257.318C161.292 257.162 161.38 256.95 161.38 256.729V252.478C161.38 252.257 161.292 252.045 161.136 251.888C160.979 251.732 160.767 251.644 160.546 251.644C160.325 251.644 160.113 251.732 159.957 251.888C159.801 252.045 159.713 252.257 159.713 252.478Z"
                fill="#2E5943" />
            <path
                d="M166.521 251.857L167.375 255.257C167.401 255.366 167.448 255.468 167.515 255.558C167.581 255.648 167.665 255.723 167.761 255.78C167.857 255.837 167.964 255.874 168.075 255.889C168.186 255.903 168.299 255.896 168.406 255.866C168.514 255.836 168.615 255.785 168.702 255.716C168.79 255.646 168.863 255.56 168.916 255.461C168.97 255.363 169.003 255.255 169.014 255.144C169.025 255.033 169.013 254.92 168.98 254.814L168.126 251.414C168.065 251.202 167.924 251.022 167.733 250.914C167.541 250.805 167.314 250.776 167.102 250.833C166.891 250.895 166.713 251.037 166.605 251.228C166.496 251.419 166.466 251.644 166.521 251.857Z"
                fill="#2E5943" />
            <path
                d="M173.564 249.666L176.116 252.218C176.193 252.295 176.285 252.356 176.386 252.398C176.487 252.44 176.595 252.462 176.705 252.462C176.814 252.462 176.922 252.44 177.023 252.398C177.124 252.356 177.216 252.295 177.293 252.218C177.37 252.141 177.432 252.049 177.473 251.948C177.515 251.847 177.537 251.739 177.537 251.629C177.537 251.52 177.515 251.412 177.473 251.311C177.432 251.21 177.37 251.118 177.293 251.041C176.443 250.189 175.592 249.338 174.741 248.489C174.585 248.333 174.373 248.245 174.153 248.245C173.932 248.245 173.72 248.333 173.564 248.489C173.408 248.645 173.32 248.857 173.32 249.077C173.32 249.298 173.408 249.51 173.564 249.666Z"
                fill="#2E5943" />
            <path
                d="M177.962 245.588L181.342 247.33C181.437 247.389 181.542 247.428 181.652 247.445C181.762 247.463 181.874 247.458 181.982 247.431C182.09 247.404 182.192 247.356 182.281 247.289C182.37 247.223 182.445 247.139 182.501 247.043C182.557 246.946 182.594 246.84 182.608 246.73C182.622 246.619 182.614 246.507 182.585 246.4C182.555 246.293 182.504 246.192 182.435 246.105C182.366 246.018 182.28 245.945 182.182 245.892L178.802 244.15C178.708 244.091 178.602 244.052 178.492 244.034C178.382 244.017 178.27 244.022 178.162 244.049C178.054 244.075 177.952 244.124 177.863 244.19C177.774 244.257 177.699 244.341 177.643 244.437C177.587 244.533 177.551 244.64 177.536 244.75C177.522 244.86 177.53 244.973 177.56 245.08C177.589 245.187 177.64 245.287 177.709 245.375C177.779 245.462 177.864 245.534 177.962 245.588Z"
                fill="#2E5943" />
            <path
                d="M181.586 240.525L184.138 241.375C184.35 241.433 184.577 241.404 184.769 241.295C184.961 241.186 185.102 241.006 185.162 240.794C185.215 240.581 185.185 240.356 185.077 240.165C184.968 239.974 184.791 239.833 184.581 239.77L182.029 238.92C181.816 238.862 181.589 238.891 181.397 238.999C181.205 239.108 181.064 239.288 181.005 239.501C180.951 239.713 180.981 239.939 181.089 240.129C181.198 240.32 181.375 240.462 181.586 240.525Z"
                fill="#2E5943" />
            <path
                d="M182.905 234.375C183.467 234.883 184.147 235.241 184.884 235.418C185.62 235.594 186.39 235.583 187.121 235.385C187.226 235.355 187.325 235.306 187.411 235.238C187.497 235.171 187.569 235.087 187.623 234.992C187.676 234.896 187.711 234.792 187.724 234.683C187.737 234.574 187.729 234.464 187.7 234.359C187.67 234.253 187.621 234.155 187.553 234.069C187.486 233.983 187.402 233.911 187.307 233.857C187.211 233.803 187.106 233.769 186.998 233.755C186.889 233.742 186.779 233.75 186.674 233.78C186.542 233.816 186.408 233.846 186.274 233.869C186.156 233.89 186.305 233.86 186.34 233.86C186.297 233.862 186.253 233.867 186.211 233.874C186.14 233.874 186.072 233.881 186.002 233.883C185.864 233.886 185.725 233.88 185.588 233.867C185.56 233.867 185.433 233.848 185.567 233.867C185.701 233.886 185.579 233.867 185.551 233.867C185.471 233.853 185.396 233.839 185.32 233.82C185.186 233.789 185.052 233.749 184.92 233.705L184.826 233.667C184.712 233.623 184.586 233.624 184.474 233.672C184.362 233.719 184.273 233.808 184.225 233.92C184.178 234.032 184.176 234.158 184.219 234.271C184.263 234.385 184.349 234.477 184.46 234.528C184.57 234.579 184.696 234.585 184.811 234.544C184.926 234.504 185.02 234.421 185.075 234.312C185.129 234.203 185.139 234.077 185.102 233.961C185.065 233.846 184.985 233.748 184.878 233.691C184.819 233.658 184.751 233.635 184.69 233.604C184.559 233.536 184.433 233.46 184.311 233.378C184.283 233.359 184.252 233.34 184.224 233.319C184.196 233.298 184.102 233.23 184.205 233.305C184.308 233.38 184.205 233.305 184.189 233.289L184.089 233.204C184.011 233.127 183.92 233.065 183.819 233.023C183.718 232.982 183.61 232.96 183.5 232.96C183.391 232.96 183.283 232.982 183.182 233.023C183.081 233.065 182.989 233.127 182.912 233.204C182.834 233.281 182.773 233.373 182.731 233.474C182.689 233.575 182.668 233.683 182.668 233.792C182.668 233.902 182.689 234.01 182.731 234.111C182.773 234.212 182.834 234.304 182.912 234.381"
                fill="#2E5943" />
            <path
                d="M148.48 258.303C156.08 259.212 163.947 259.784 171.43 257.783C177.573 256.25 182.968 252.576 186.643 247.421C188.579 244.622 189.711 241.347 189.917 237.951C189.976 236.88 188.312 236.882 188.253 237.951C187.933 243.758 184.32 248.835 179.692 252.138C174.2 256.055 167.471 257.373 160.828 257.46C156.699 257.458 152.574 257.183 148.48 256.636C147.418 256.511 147.428 258.178 148.48 258.303Z"
                fill="#2E5943" />
            <path
                d="M314.945 191.738L309.696 196.683C309.542 196.84 309.455 197.051 309.455 197.271C309.455 197.491 309.542 197.703 309.696 197.86C309.854 198.012 310.065 198.097 310.285 198.097C310.504 198.097 310.715 198.012 310.873 197.86C312.622 196.212 314.371 194.563 316.122 192.915C316.277 192.758 316.363 192.546 316.363 192.326C316.363 192.106 316.277 191.895 316.122 191.738C315.964 191.585 315.753 191.5 315.534 191.5C315.314 191.5 315.103 191.585 314.945 191.738Z"
                fill="#2E5943" />
            <path
                d="M318.087 194.023C316.954 195.44 315.819 196.856 314.681 198.272C314.53 198.43 314.445 198.641 314.445 198.86C314.445 199.079 314.53 199.29 314.681 199.449C314.838 199.603 315.05 199.689 315.27 199.689C315.49 199.689 315.701 199.603 315.858 199.449C316.995 198.034 318.13 196.618 319.264 195.2C319.42 195.044 319.508 194.832 319.508 194.611C319.508 194.391 319.42 194.179 319.264 194.023C319.108 193.867 318.896 193.779 318.676 193.779C318.455 193.779 318.243 193.867 318.087 194.023Z"
                fill="#2E5943" />
            <path
                d="M320.441 198.401C319.859 199.243 319.279 200.085 318.701 200.927C318.59 201.122 318.559 201.353 318.616 201.57C318.674 201.78 318.813 201.96 319.002 202.07C319.194 202.175 319.419 202.203 319.631 202.147C319.843 202.091 320.025 201.956 320.141 201.77C320.72 200.929 321.298 200.087 321.876 199.244C321.988 199.05 322.02 198.82 321.963 198.604C321.9 198.395 321.763 198.217 321.577 198.104C321.385 197.998 321.16 197.97 320.948 198.026C320.736 198.082 320.554 198.217 320.44 198.404"
                fill="#2E5943" />
            <path
                d="M53.7661 383.048C52.6387 374.494 51.5121 365.94 50.3861 357.386C44.8241 361.352 36.2861 358.076 33.1091 352.026C29.9321 345.976 31.1151 338.442 34.1421 332.317C34.4779 331.483 35.0303 330.754 35.7421 330.206C37.6161 328.982 40.2191 330.564 41.1211 332.612C42.0231 334.66 41.8651 336.997 42.2651 339.198C42.6651 341.399 44.0021 343.772 46.2221 344.052C49.8451 344.513 51.4031 339.627 51.5911 335.978C51.9017 330.036 52.2107 324.095 52.5181 318.155C52.7021 314.624 53.4641 310.293 56.8261 309.196C59.4261 308.349 62.2921 310.152 63.5791 312.562C64.8661 314.972 64.9681 317.818 65.0381 320.551C65.2854 330.166 65.5334 339.782 65.7821 349.398C65.8381 351.598 66.0321 354.082 67.7361 355.471C70.7961 357.971 75.4141 354.419 76.3771 350.589C77.3401 346.759 76.5301 342.541 78.0931 338.916C78.2833 338.352 78.6656 337.873 79.1731 337.563C79.691 337.356 80.2679 337.353 80.7881 337.554C84.3881 338.714 84.9281 343.502 84.8061 347.28C84.6581 351.839 84.5091 356.398 84.3591 360.958C84.4513 362.684 84.0918 364.403 83.3161 365.948C81.8281 368.348 78.6011 369.036 75.7861 368.78C72.9711 368.524 70.2261 367.568 67.3991 367.612C67.2412 373.333 67.5912 379.057 68.4451 384.717L53.7661 383.048Z"
                fill="#396650" />
            <path
                d="M76.9284 389.454H47.4584C45.2441 389.454 43.1205 388.574 41.5547 387.008C39.989 385.443 39.1094 383.319 39.1094 381.105V380.792C39.1094 378.577 39.989 376.454 41.5547 374.888C43.1205 373.322 45.2441 372.443 47.4584 372.443H76.9284C79.1427 372.443 81.2663 373.322 82.832 374.888C84.3978 376.454 85.2774 378.577 85.2774 380.792V381.105C85.2774 383.319 84.3978 385.443 82.832 387.008C81.2663 388.574 79.1427 389.454 76.9284 389.454Z"
                fill="#E0E0E0" />
            <path d="M78.5951 388.238H45.7871L51.8651 417.402H72.5201L78.5951 388.238Z"
                fill="#E0E0E0" />
            <path
                d="M46.7133 390.493H75.6273C75.8434 390.485 76.0481 390.394 76.1983 390.239C76.3485 390.083 76.4325 389.875 76.4325 389.659C76.4325 389.443 76.3485 389.235 76.1983 389.08C76.0481 388.924 75.8434 388.833 75.6273 388.826H46.7133C46.4973 388.833 46.2926 388.924 46.1424 389.08C45.9922 389.235 45.9082 389.443 45.9082 389.659C45.9082 389.875 45.9922 390.083 46.1424 390.239C46.2926 390.394 46.4973 390.485 46.7133 390.493Z"
                fill="#CA6128" />
            <path
                d="M84.6598 421.008H39.7218C39.1029 421.008 38.4901 420.886 37.9184 420.649C37.3467 420.413 36.8272 420.066 36.3896 419.628C35.952 419.19 35.6049 418.671 35.3682 418.099C35.1314 417.527 35.0096 416.915 35.0098 416.296H89.3718C89.3719 416.915 89.2501 417.527 89.0134 418.099C88.7766 418.671 88.4295 419.19 87.9919 419.628C87.5544 420.066 87.0349 420.413 86.4631 420.649C85.8914 420.886 85.2786 421.008 84.6598 421.008Z"
                fill="#B1B1B1" />
            <path
                d="M60.1628 338.806C63.0155 337.139 65.8692 335.472 68.7239 333.806C68.9081 333.691 69.0404 333.509 69.0925 333.299C69.1447 333.088 69.1127 332.866 69.0033 332.678C68.8939 332.491 68.7157 332.354 68.5066 332.296C68.2976 332.238 68.0741 332.264 67.8839 332.368C65.0312 334.034 62.1775 335.701 59.3228 337.368C59.1386 337.482 59.0063 337.664 58.9541 337.875C58.902 338.085 58.934 338.308 59.0434 338.495C59.1528 338.683 59.331 338.82 59.5401 338.878C59.7491 338.936 59.9726 338.91 60.1628 338.806Z"
                fill="#619B80" />
            <path
                d="M62.4845 327.019C64.9285 326.478 67.1279 325.151 68.7455 323.241C68.8962 323.082 68.9802 322.871 68.9802 322.652C68.9802 322.433 68.8962 322.223 68.7455 322.064C68.5881 321.909 68.3764 321.823 68.156 321.823C67.9355 321.823 67.7239 321.909 67.5665 322.064C66.1532 323.769 64.2071 324.949 62.0415 325.414C61.9327 325.44 61.8303 325.487 61.7404 325.554C61.6505 325.62 61.5748 325.704 61.518 325.8C61.4612 325.897 61.4243 326.003 61.4096 326.114C61.3949 326.225 61.4026 326.338 61.4324 326.446C61.4621 326.553 61.5133 326.654 61.5827 326.742C61.6522 326.829 61.7386 326.902 61.8368 326.955C61.935 327.009 62.0429 327.042 62.1542 327.053C62.2654 327.064 62.3778 327.052 62.4845 327.019Z"
                fill="#619B80" />
            <path
                d="M47.5434 326.084C50.267 326.538 52.8447 327.629 55.0664 329.269C55.2578 329.379 55.4852 329.41 55.6991 329.354C55.9129 329.298 56.0959 329.159 56.2084 328.969C56.3141 328.777 56.342 328.551 56.2861 328.339C56.2303 328.127 56.095 327.945 55.9084 327.83C53.5662 326.109 50.8533 324.961 47.9874 324.478C47.775 324.425 47.5503 324.455 47.3599 324.563C47.1696 324.672 47.0283 324.849 46.9654 325.059C46.907 325.271 46.9351 325.498 47.0436 325.69C47.1521 325.882 47.3321 326.023 47.5444 326.083"
                fill="#619B80" />
            <path
                d="M50.5376 311.148C51.8068 313.807 54.0646 315.865 56.8296 316.884C57.0424 316.941 57.269 316.912 57.4606 316.803C57.6522 316.694 57.7934 316.515 57.8536 316.303C57.9069 316.09 57.8763 315.865 57.7681 315.674C57.6599 315.484 57.4825 315.342 57.2726 315.279C56.7093 315.064 56.1678 314.796 55.6556 314.479C55.3826 314.31 55.1146 314.128 54.8556 313.933C54.9496 314.006 54.7636 313.862 54.7476 313.848C54.6796 313.792 54.6106 313.735 54.5476 313.679C54.4226 313.579 54.3026 313.467 54.1856 313.359C53.2514 312.502 52.5004 311.465 51.9776 310.311C51.865 310.121 51.6825 309.984 51.4695 309.928C51.2564 309.872 51.0299 309.901 50.8386 310.011C50.6514 310.125 50.5156 310.308 50.4597 310.52C50.4038 310.732 50.4321 310.958 50.5386 311.15"
                fill="#619B80" />
            <path
                d="M63.6668 314.757C65.3448 312.757 67.0225 310.753 68.6998 308.745C68.8512 308.586 68.9357 308.376 68.9357 308.156C68.9357 307.937 68.8512 307.726 68.6998 307.568C68.5429 307.413 68.3315 307.327 68.1113 307.327C67.8911 307.327 67.6798 307.413 67.5228 307.568C65.8448 309.568 64.1671 311.572 62.4898 313.58C62.3384 313.738 62.2539 313.949 62.2539 314.168C62.2539 314.388 62.3384 314.598 62.4898 314.757C62.6468 314.911 62.8581 314.998 63.0783 314.998C63.2985 314.998 63.5099 314.911 63.6668 314.757Z"
                fill="#619B80" />
            <path
                d="M66.3751 345.221C67.475 343.192 69.1353 341.521 71.1581 340.41C71.3473 340.297 71.4847 340.115 71.5408 339.902C71.5969 339.689 71.5672 339.462 71.4581 339.271C71.3437 339.083 71.1613 338.947 70.949 338.892C70.7367 338.836 70.5109 338.864 70.3191 338.971C68.0525 340.232 66.1875 342.107 64.9381 344.38C64.8793 344.474 64.8401 344.58 64.8227 344.69C64.8053 344.8 64.8102 344.912 64.837 345.02C64.8637 345.128 64.9119 345.23 64.9786 345.319C65.0453 345.408 65.1292 345.483 65.2253 345.539C65.3215 345.595 65.4279 345.631 65.5383 345.646C65.6487 345.66 65.7608 345.652 65.8681 345.622C65.9754 345.593 66.0756 345.542 66.1629 345.472C66.2501 345.403 66.3226 345.317 66.3761 345.22"
                fill="#619B80" />
            <path
                d="M47.4473 336.878C49.7233 338.566 52.0003 340.254 54.2783 341.944C54.4695 342.053 54.6962 342.083 54.9093 342.027C55.1224 341.971 55.3049 341.833 55.4173 341.644C55.5233 341.452 55.5513 341.226 55.4954 341.014C55.4396 340.802 55.3042 340.62 55.1173 340.505L48.2863 335.439C48.0951 335.329 47.8684 335.299 47.6553 335.355C47.4422 335.411 47.2597 335.549 47.1473 335.739C47.0413 335.931 47.0133 336.156 47.0691 336.368C47.125 336.58 47.2604 336.763 47.4473 336.878Z"
                fill="#619B80" />
            <path
                d="M46.2697 341.549C47.0922 343.579 47.316 345.802 46.9147 347.956C46.8609 348.168 46.8913 348.394 46.9995 348.584C47.1078 348.775 47.2855 348.917 47.4957 348.98C47.7084 349.036 47.9348 349.007 48.1263 348.898C48.3177 348.79 48.459 348.61 48.5197 348.399C49.0052 345.956 48.7806 343.426 47.8727 341.107C47.8091 340.897 47.6677 340.721 47.4776 340.612C47.2874 340.504 47.063 340.473 46.8507 340.526C46.6382 340.585 46.4578 340.726 46.349 340.918C46.2401 341.11 46.2116 341.337 46.2697 341.55"
                fill="#619B80" />
            <path
                d="M26.2592 340.589L35.7072 343.71C36.7262 344.047 37.1642 342.439 36.1502 342.102C33.0009 341.064 29.8516 340.024 26.7022 338.983C25.6832 338.646 25.2452 340.254 26.2592 340.588"
                fill="#619B80" />
            <path
                d="M30.1953 328.339C32.462 330.325 34.7286 332.313 36.9953 334.301C37.1539 334.452 37.3647 334.536 37.5838 334.536C37.8029 334.536 38.0137 334.452 38.1723 334.301C38.3263 334.144 38.4125 333.932 38.4125 333.712C38.4125 333.492 38.3263 333.281 38.1723 333.124C35.9056 331.134 33.639 329.147 31.3723 327.162C31.214 327.01 31.0031 326.925 30.7838 326.925C30.5644 326.925 30.3536 327.01 30.1953 327.162C30.0413 327.319 29.9551 327.53 29.9551 327.75C29.9551 327.97 30.0413 328.182 30.1953 328.339Z"
                fill="#619B80" />
            <path
                d="M37.3094 355.582L41.5604 351.331C41.6389 351.254 41.7013 351.162 41.7441 351.061C41.7869 350.959 41.8092 350.851 41.8098 350.741C41.8103 350.631 41.7891 350.522 41.7473 350.42C41.7055 350.318 41.644 350.226 41.5663 350.148C41.4886 350.07 41.3963 350.008 41.2946 349.966C41.193 349.925 41.084 349.903 40.9741 349.903C40.8641 349.904 40.7553 349.926 40.6539 349.969C40.5525 350.011 40.4606 350.073 40.3834 350.152L36.1324 354.405C36.0552 354.482 35.9938 354.574 35.952 354.675C35.9102 354.776 35.8887 354.884 35.8887 354.993C35.8887 355.103 35.9102 355.211 35.952 355.312C35.9938 355.413 36.0552 355.505 36.1324 355.582C36.2097 355.659 36.3015 355.72 36.4024 355.762C36.5034 355.804 36.6116 355.826 36.7209 355.826C36.8302 355.826 36.9385 355.804 37.0394 355.762C37.1404 355.72 37.2322 355.659 37.3094 355.582Z"
                fill="#619B80" />
            <path
                d="M80.946 357.453C83.7767 357.615 86.5653 358.213 89.213 359.228C89.4258 359.285 89.6526 359.256 89.8442 359.147C90.0359 359.039 90.177 358.859 90.237 358.647C90.2914 358.434 90.2612 358.209 90.1529 358.018C90.0445 357.827 89.8665 357.685 89.656 357.623C86.8646 356.567 83.9271 355.948 80.947 355.787C79.876 355.728 79.878 357.395 80.947 357.454"
                fill="#619B80" />
            <path
                d="M78.818 363.369C80.52 364.219 82.22 365.069 83.918 365.921C84.1087 366.033 84.336 366.064 84.5499 366.008C84.7638 365.952 84.9467 365.814 85.0585 365.623C85.1703 365.433 85.2018 365.205 85.146 364.991C85.0902 364.778 84.9517 364.595 84.761 364.483C83.059 363.633 81.357 362.782 79.655 361.931C79.4648 361.827 79.2413 361.801 79.0323 361.859C78.8232 361.917 78.645 362.054 78.5356 362.241C78.4262 362.429 78.3942 362.651 78.4463 362.862C78.4985 363.072 78.6308 363.254 78.815 363.369"
                fill="#619B80" />
            <path
                d="M73.6828 345.567L79.5908 349.046C79.6854 349.105 79.7907 349.144 79.9007 349.161C80.0107 349.179 80.123 349.174 80.2311 349.147C80.3391 349.12 80.4407 349.072 80.5298 349.005C80.619 348.939 80.6938 348.855 80.75 348.759C80.8061 348.662 80.8424 348.556 80.8568 348.446C80.8711 348.335 80.8631 348.223 80.8334 348.116C80.8036 348.009 80.7527 347.908 80.6836 347.821C80.6144 347.734 80.5285 347.661 80.4308 347.608L74.5228 344.129C74.4283 344.07 74.3229 344.031 74.213 344.013C74.103 343.996 73.9907 344.001 73.8826 344.028C73.7746 344.054 73.673 344.103 73.5839 344.169C73.4947 344.236 73.4199 344.32 73.3637 344.416C73.3076 344.512 73.2713 344.619 73.2569 344.729C73.2426 344.839 73.2505 344.952 73.2803 345.059C73.31 345.166 73.361 345.266 73.4301 345.354C73.4993 345.441 73.5852 345.513 73.6828 345.567Z"
                fill="#619B80" />
            <path
                d="M76.068 337.762C77.4873 338.895 78.905 340.028 80.321 341.162C80.4798 341.313 80.6905 341.397 80.9095 341.397C81.1285 341.397 81.3391 341.313 81.498 341.162C81.6523 341.004 81.7388 340.793 81.7388 340.572C81.7388 340.352 81.6523 340.14 81.498 339.983C80.0833 338.849 78.6656 337.716 77.245 336.583C77.0889 336.427 76.8772 336.339 76.6565 336.339C76.4358 336.339 76.2241 336.427 76.068 336.583C75.9119 336.739 75.8242 336.951 75.8242 337.171C75.8242 337.392 75.9119 337.604 76.068 337.76"
                fill="#619B80" />
            <path
                d="M65.5173 352.118C67.4453 349.804 69.3723 347.488 71.2983 345.172C71.4497 345.013 71.5342 344.802 71.5342 344.583C71.5342 344.364 71.4497 344.153 71.2983 343.995C71.1416 343.84 70.9302 343.753 70.7098 343.753C70.4895 343.753 70.278 343.84 70.1213 343.995L64.3363 350.946C64.1856 351.105 64.1016 351.315 64.1016 351.534C64.1016 351.753 64.1856 351.964 64.3363 352.123C64.493 352.278 64.7045 352.365 64.9248 352.365C65.1452 352.365 65.3566 352.278 65.5133 352.123"
                fill="#619B80" />
            <path
                d="M70.3054 360.816L74.5564 358.264C74.6541 358.21 74.74 358.138 74.8091 358.051C74.8783 357.963 74.9292 357.863 74.959 357.756C74.9887 357.649 74.9967 357.536 74.9823 357.426C74.968 357.316 74.9317 357.209 74.8755 357.113C74.8194 357.017 74.7445 356.933 74.6554 356.866C74.5663 356.8 74.4647 356.751 74.3566 356.725C74.2486 356.698 74.1363 356.693 74.0263 356.71C73.9163 356.728 73.811 356.767 73.7164 356.826L69.4654 359.378C69.2812 359.492 69.1489 359.674 69.0967 359.885C69.0445 360.095 69.0766 360.318 69.186 360.505C69.2954 360.693 69.4736 360.83 69.6827 360.888C69.8917 360.946 70.1152 360.92 70.3054 360.816Z"
                fill="#619B80" />
            <path
                d="M54.8298 354.109C53.0447 353.513 51.1214 353.47 49.3112 353.984C47.5009 354.498 45.8876 355.546 44.6818 356.991C44.5312 357.15 44.4473 357.361 44.4473 357.58C44.4473 357.8 44.5312 358.01 44.6818 358.17C44.839 358.324 45.0503 358.41 45.2703 358.41C45.4904 358.41 45.7017 358.324 45.8588 358.17C46.8576 356.936 48.2112 356.039 49.7365 355.6C51.2617 355.161 52.8851 355.201 54.3868 355.715C55.3988 356.07 55.8348 354.462 54.8298 354.109Z"
                fill="#619B80" />
            <path
                d="M55.9642 359.511C53.3748 361.444 50.7872 363.38 48.2012 365.318C48.0154 365.434 47.881 365.616 47.8252 365.828C47.7694 366.039 47.7966 366.264 47.9012 366.457C48.0137 366.646 48.1962 366.784 48.4093 366.84C48.6223 366.896 48.8489 366.866 49.0402 366.757C51.6268 364.819 54.2145 362.884 56.8032 360.95C56.9889 360.834 57.1234 360.651 57.1791 360.44C57.2349 360.228 57.2077 360.003 57.1032 359.811C56.9909 359.621 56.8085 359.483 56.5953 359.427C56.3821 359.371 56.1553 359.401 55.9642 359.511Z"
                fill="#619B80" />
            <path
                d="M83.2882 342.029C84.3522 337.929 88.4082 330.54 91.0602 333.148C93.4162 335.464 90.1022 341.017 88.0162 343.583C89.7281 342.899 91.6314 342.869 93.3644 343.497C95.0974 344.125 96.5394 345.367 97.4162 346.989C97.6376 347.291 97.7462 347.661 97.723 348.034C97.6998 348.408 97.5463 348.762 97.2892 349.034C97.016 349.279 96.6851 349.451 96.3273 349.535C95.9696 349.618 95.5966 349.609 95.2432 349.509L87.1432 347.431C88.6382 350.032 89.6292 352.891 90.0642 355.86C90.1148 356.234 90.0546 356.616 89.8909 356.956C89.7272 357.297 89.4673 357.582 89.1432 357.777C88.8192 357.971 88.4452 358.067 88.0675 358.051C87.6899 358.036 87.325 357.91 87.0182 357.689C85.6848 356.735 84.5851 355.492 83.8018 354.051C83.0186 352.611 82.5722 351.012 82.4962 349.375C80.8322 351.075 76.9602 352.958 73.4122 353.763C72.8674 353.883 72.2979 353.816 71.7958 353.573C71.2938 353.329 70.8885 352.924 70.6457 352.421C70.4028 351.919 70.3364 351.349 70.4574 350.805C70.5784 350.26 70.8795 349.772 71.3122 349.42C73.8572 347.375 77.1242 345.654 79.0562 345.583C76.7472 344.914 72.1852 336.483 76.6272 333.701C78.2582 332.682 83.2882 342.029 83.2882 342.029Z"
                fill="#F59F18" />
            <path
                d="M85.8074 345.239C85.6847 344.855 85.4229 344.531 85.0734 344.33C84.9266 344.247 84.7691 344.185 84.6054 344.146C84.4416 344.108 84.2731 344.095 84.1054 344.106L84.0054 344.118C83.9814 344.118 83.9564 344.118 83.9324 344.109C83.7846 344.109 83.6395 344.148 83.5114 344.222C83.3682 344.305 83.2361 344.406 83.1184 344.522C83.0441 344.607 82.9772 344.698 82.9184 344.795C82.9044 344.819 82.8804 344.84 82.8664 344.863C82.6578 345.273 82.5579 345.731 82.5764 346.191C82.5752 346.406 82.6583 346.613 82.8077 346.768C82.9572 346.923 83.1613 347.013 83.3764 347.02C83.3974 347.034 83.4164 347.053 83.4374 347.067C83.6213 347.172 83.8249 347.238 84.0355 347.261C84.246 347.284 84.4591 347.263 84.6614 347.201C85.0626 347.071 85.4074 346.808 85.6384 346.455C85.7376 346.306 85.8056 346.139 85.8384 345.963C85.8893 345.723 85.8811 345.474 85.8144 345.238"
                fill="#B23E32" />
            <path
                d="M366.898 418.296H255.852L280.852 347.056C281.773 344.432 283.486 342.158 285.755 340.55C288.024 338.942 290.736 338.078 293.518 338.078H385.623C387.767 338.078 389.88 338.592 391.786 339.576C393.691 340.561 395.332 341.988 396.573 343.738C397.813 345.487 398.616 347.508 398.914 349.632C399.213 351.756 398.998 353.92 398.289 355.944L379.562 409.318C378.64 411.942 376.927 414.215 374.658 415.824C372.389 417.432 369.677 418.296 366.896 418.296"
                fill="#CCCAC6" />
            <path d="M268.519 414.074H193.461V418.297H268.519V414.074Z" fill="#CCCAC6" />
            <path
                d="M342.513 378.328C342.513 379.81 342.074 381.259 341.25 382.492C340.427 383.724 339.256 384.685 337.887 385.252C336.517 385.82 335.01 385.968 333.556 385.679C332.102 385.39 330.767 384.676 329.719 383.628C328.67 382.579 327.957 381.244 327.667 379.79C327.378 378.336 327.527 376.829 328.094 375.46C328.661 374.09 329.622 372.919 330.854 372.096C332.087 371.272 333.536 370.833 335.018 370.833C337.006 370.833 338.913 371.622 340.318 373.028C341.724 374.434 342.513 376.34 342.513 378.328Z"
                fill="white" />
            <path
                d="M387.649 343.215C392.749 346.296 393.837 354.264 389.732 358.59C388.995 359.369 390.17 360.548 390.911 359.769C395.755 354.661 394.519 345.418 388.489 341.776C388.299 341.672 388.075 341.646 387.866 341.704C387.657 341.762 387.479 341.899 387.37 342.086C387.26 342.274 387.228 342.496 387.28 342.707C387.333 342.917 387.465 343.1 387.649 343.215Z"
                fill="#4F657F" />
            <path
                d="M278.377 414.743H344.709C344.925 414.735 345.13 414.644 345.28 414.489C345.431 414.333 345.515 414.125 345.515 413.909C345.515 413.693 345.431 413.485 345.28 413.33C345.13 413.174 344.925 413.083 344.709 413.076H278.377C278.161 413.083 277.957 413.174 277.806 413.33C277.656 413.485 277.572 413.693 277.572 413.909C277.572 414.125 277.656 414.333 277.806 414.489C277.957 414.644 278.161 414.735 278.377 414.743Z"
                fill="#4F657F" />
            <path
                d="M151.408 404.761C150.919 403.661 150.164 402.701 149.21 401.968C148.256 401.234 147.134 400.751 145.945 400.561C144.723 400.405 143.482 400.627 142.388 401.197V398.533H106.148V416.808C106.148 418.047 106.392 419.275 106.866 420.42C107.34 421.565 108.035 422.606 108.912 423.482C109.788 424.359 110.829 425.054 111.974 425.528C113.119 426.003 114.346 426.247 115.585 426.247H132.951C134.191 426.247 135.418 426.003 136.563 425.528C137.708 425.054 138.749 424.359 139.625 423.482C140.501 422.606 141.197 421.565 141.671 420.42C142.145 419.275 142.389 418.047 142.388 416.808V413.877C143.432 414.529 144.643 414.861 145.872 414.833C146.981 414.819 148.065 414.508 149.013 413.934C149.96 413.359 150.737 412.542 151.262 411.566C151.797 410.516 152.088 409.358 152.113 408.18C152.138 407.002 151.898 405.833 151.408 404.761ZM148.765 407.423C148.774 407.498 148.779 407.569 148.765 407.423V407.423ZM144.177 404.008C144.226 403.987 144.257 403.977 144.177 404.008V404.008ZM148.477 409.714C148.418 409.881 148.446 409.794 148.477 409.714V409.714ZM148.764 408.629C148.701 408.985 148.61 409.337 148.491 409.679C148.456 409.75 148.423 409.82 148.385 409.891C148.291 410.068 148.171 410.23 148.074 410.404C148.018 410.475 147.974 410.533 147.916 410.59C147.858 410.647 147.794 410.719 147.728 410.783C147.712 410.799 147.636 410.865 147.577 410.92C147.518 410.975 147.318 411.097 147.277 411.12C147.185 411.174 146.653 411.395 147.077 411.242C146.804 411.356 146.521 411.443 146.23 411.501C146.237 411.501 146.211 411.501 146.108 411.501C146.005 411.501 145.908 411.513 145.808 411.515C145.627 411.515 145.445 411.494 145.267 411.489C145.178 411.463 145.083 411.454 144.994 411.43C144.794 411.383 144.615 411.31 144.424 411.251C144.838 411.376 144.311 411.185 144.184 411.11C144.116 411.07 144.052 411.025 143.984 410.985L143.96 410.971C143.826 410.844 143.711 410.705 143.583 410.594C143.522 410.494 143.456 410.394 143.397 410.286C143.174 409.909 142.81 409.635 142.385 409.526V406.377C142.582 406.187 142.717 405.944 142.773 405.677C142.792 405.585 142.811 405.496 142.834 405.406C142.834 405.406 142.874 405.288 142.898 405.206C142.917 405.164 142.94 405.117 142.947 405.098C142.992 405.018 143.039 404.938 143.088 404.863C143.097 404.847 143.13 404.802 143.161 404.763L143.298 404.608C143.364 404.542 143.432 404.481 143.498 404.417L143.536 404.377C143.722 404.264 143.901 404.156 144.082 404.05C144.098 404.041 144.127 404.029 144.153 404.017C144.212 403.996 144.273 403.972 144.334 403.953C144.478 403.908 144.624 403.878 144.767 403.845C144.642 403.871 144.743 403.845 144.823 403.833H144.854C144.998 403.833 145.136 403.824 145.28 403.833C145.355 403.833 145.431 403.842 145.506 403.849L145.562 403.863C145.753 403.91 145.941 403.955 146.125 404.016C146.186 404.037 146.245 404.061 146.306 404.084L146.4 404.131C146.612 404.258 146.826 404.373 147.033 404.508L147.089 404.546C147.153 404.598 147.216 404.646 147.277 404.706C147.444 404.853 147.602 405.01 147.75 405.177C147.814 405.248 147.875 405.323 147.936 405.396C148.063 405.627 148.207 405.815 148.32 406.024C148.362 406.104 148.395 406.189 148.44 406.266C148.504 406.454 148.574 406.638 148.626 406.829C148.678 407.02 148.708 407.184 148.746 407.363C148.751 407.379 148.754 407.395 148.755 407.412C148.764 407.52 148.776 407.626 148.781 407.735C148.79 407.916 148.793 408.097 148.781 408.279C148.781 408.366 148.755 408.579 148.753 408.637"
                fill="#F59F18" />
            <path
                d="M123.691 395.23C124.915 393.283 126.405 389.585 125.52 387.462C125.13 386.65 124.57 385.932 123.879 385.355C119.649 381.431 113.668 378.468 112.446 372.83C112.276 372.197 112.273 371.531 112.439 370.897C112.939 369.339 114.972 368.734 116.539 369.221C118.06 369.848 119.392 370.861 120.404 372.159C116.181 365.199 112.787 356.927 114.887 349.059C115.259 347.666 116.097 346.084 117.54 346.015C118.244 346.039 118.923 346.284 119.48 346.715C125.358 350.604 127.215 358.237 128.604 365.146C128.136 363.406 128.153 361.571 128.653 359.84C129.153 358.109 130.117 356.548 131.44 355.326C132.127 354.612 133.063 354.19 134.053 354.149C136.068 354.236 137.053 356.642 137.304 358.643C137.849 363.037 137.218 367.497 135.477 371.568C136.377 369.603 137.944 367.277 140.053 367.741C142.268 368.228 142.609 371.248 142.2 373.48C140.744 381.219 136.415 388.122 130.082 392.803C128.232 394.156 126.092 395.34 123.802 395.265L123.691 395.23Z"
                fill="white" />
        </g>
        <mask id="mask3_251_8936" style="mask-type:luminance" maskUnits="userSpaceOnUse" x="106"
            y="398" width="47" height="29">
            <path
                d="M148.478 409.709L148.443 409.803C148.443 409.803 148.459 409.754 148.478 409.709ZM144.175 404.001C144.227 403.982 144.257 403.973 144.175 404.001V404.001ZM144.884 403.813C144.866 403.819 144.847 403.823 144.827 403.825H144.86C145.001 403.825 145.14 403.816 145.284 403.825C145.362 403.825 145.435 403.834 145.51 403.841C145.529 403.846 145.548 403.85 145.566 403.853C145.757 403.9 145.945 403.945 146.131 404.008C146.19 404.027 146.251 404.053 146.31 404.074C146.345 404.09 146.388 404.112 146.41 404.123C146.622 404.25 146.834 404.363 147.043 404.5L147.097 404.535C147.161 404.589 147.224 404.641 147.285 404.697C147.452 404.844 147.61 405 147.758 405.165C147.822 405.238 147.883 405.311 147.944 405.386C148.073 405.614 148.215 405.803 148.328 406.012C148.37 406.092 148.403 406.177 148.448 406.257C148.512 406.445 148.582 406.627 148.636 406.817C148.69 407.007 148.718 407.172 148.756 407.351L148.763 407.403C148.772 407.511 148.784 407.617 148.789 407.726C148.799 407.907 148.799 408.089 148.789 408.27C148.789 408.357 148.763 408.57 148.761 408.628C148.699 408.984 148.608 409.334 148.488 409.676C148.453 409.747 148.417 409.82 148.382 409.888C148.29 410.067 148.168 410.227 148.074 410.401C148.018 410.472 147.968 410.53 147.914 410.587C147.86 410.644 147.792 410.716 147.726 410.78C147.71 410.796 147.637 410.862 147.575 410.917C147.513 410.972 147.316 411.096 147.275 411.117C147.188 411.169 146.687 411.383 147.04 411.254C146.779 411.363 146.508 411.446 146.23 411.501C146.237 411.501 146.214 411.501 146.108 411.501C146.002 411.501 145.908 411.513 145.808 411.513C145.627 411.513 145.448 411.494 145.267 411.489C145.18 411.463 145.083 411.451 144.994 411.43C144.794 411.381 144.615 411.31 144.424 411.249C144.838 411.376 144.309 411.183 144.184 411.11C144.118 411.07 144.055 411.025 143.984 410.985L143.958 410.971C143.824 410.844 143.709 410.703 143.581 410.592C143.522 410.492 143.454 410.392 143.397 410.286C143.287 410.099 143.14 409.935 142.966 409.805C142.791 409.674 142.593 409.58 142.382 409.526V406.374C142.58 406.185 142.715 405.941 142.77 405.674C142.789 405.582 142.808 405.49 142.831 405.401C142.831 405.401 142.871 405.283 142.895 405.208C142.914 405.163 142.937 405.116 142.947 405.1C142.992 405.018 143.036 404.94 143.086 404.865C143.098 404.849 143.128 404.801 143.159 404.765L143.296 404.612C143.362 404.546 143.433 404.485 143.496 404.421L143.534 404.381C143.72 404.268 143.901 404.157 144.08 404.051C144.096 404.044 144.125 404.03 144.151 404.02C144.212 403.999 144.271 403.975 144.332 403.956C144.475 403.912 144.619 403.876 144.765 403.848C144.64 403.874 144.741 403.848 144.821 403.834L144.878 403.822M106.146 398.531V416.809C106.146 418.048 106.39 419.275 106.864 420.42C107.338 421.566 108.034 422.606 108.91 423.482C109.786 424.359 110.827 425.054 111.972 425.528C113.117 426.002 114.344 426.246 115.583 426.246H132.952C134.192 426.246 135.419 426.002 136.564 425.528C137.708 425.053 138.749 424.358 139.625 423.482C140.501 422.605 141.196 421.565 141.669 420.42C142.143 419.275 142.387 418.048 142.386 416.809V413.878C143.43 414.529 144.641 414.861 145.87 414.834C146.979 414.819 148.063 414.508 149.01 413.934C149.958 413.36 150.735 412.542 151.26 411.567C151.795 410.516 152.086 409.358 152.111 408.18C152.136 407.001 151.896 405.832 151.406 404.76C150.917 403.66 150.161 402.7 149.208 401.967C148.254 401.234 147.132 400.75 145.943 400.56C144.721 400.404 143.48 400.626 142.386 401.196V398.531H106.146Z"
                fill="white" />
        </mask>
        <g mask="url(#mask3_251_8936)">
            <path
                d="M104.173 414.045C106.049 412.397 107.924 410.748 109.799 409.1C109.971 408.917 110.161 408.751 110.366 408.606C110.613 408.474 110.597 408.462 110.827 408.655C111.219 409.008 111.589 409.385 111.936 409.783C112.72 410.641 113.438 411.557 114.085 412.523C114.151 412.63 114.24 412.722 114.346 412.79C114.452 412.859 114.572 412.903 114.698 412.919C114.823 412.935 114.95 412.923 115.07 412.884C115.19 412.845 115.3 412.779 115.391 412.692C117.091 411.268 118.776 409.827 120.491 408.42C120.882 408.095 121.119 407.834 121.513 408.265C121.852 408.637 122.151 409.056 122.462 409.451C123.152 410.317 123.84 411.186 124.526 412.057C124.656 412.187 124.826 412.271 125.009 412.294C125.192 412.318 125.377 412.28 125.536 412.186C127.478 410.692 129.328 409.082 131.075 407.365H129.896C131.186 408.758 132.181 410.396 132.824 412.183C132.866 412.321 132.943 412.446 133.047 412.546C133.151 412.646 133.279 412.718 133.418 412.754C133.558 412.791 133.704 412.792 133.844 412.756C133.984 412.72 134.112 412.649 134.217 412.55C136.15 410.95 138.084 409.35 140.017 407.75C139.582 407.696 139.146 407.639 138.711 407.583C140.022 409.325 141.334 411.067 142.647 412.811C143.283 413.658 144.73 412.827 144.085 411.971C142.772 410.229 141.46 408.486 140.149 406.743C140.082 406.636 139.992 406.545 139.886 406.476C139.78 406.408 139.66 406.364 139.534 406.348C139.409 406.332 139.282 406.344 139.162 406.383C139.042 406.422 138.932 406.487 138.84 406.574L133.04 411.374L134.433 411.741C133.699 409.682 132.556 407.794 131.074 406.188C130.917 406.034 130.705 405.948 130.485 405.948C130.266 405.948 130.054 406.034 129.897 406.188C128.257 407.811 126.52 409.333 124.697 410.747L125.707 410.876C124.881 409.835 124.055 408.793 123.228 407.75C122.505 406.834 121.66 405.956 120.401 406.495C119.888 406.761 119.417 407.1 119.001 407.502L117.44 408.808L114.215 411.508L115.524 411.675C114.753 410.522 113.891 409.432 112.947 408.417C112.14 407.555 111.153 406.381 109.847 406.979C109.317 407.282 108.833 407.658 108.409 408.097C107.82 408.617 107.23 409.136 106.639 409.655L102.993 412.861C102.186 413.57 103.367 414.744 104.17 414.038"
                fill="#F5E6DF" />
            <path
                d="M110.426 416.882C110.642 416.874 110.847 416.783 110.997 416.628C111.147 416.472 111.231 416.264 111.231 416.048C111.231 415.832 111.147 415.624 110.997 415.469C110.847 415.313 110.642 415.222 110.426 415.215C110.21 415.222 110.005 415.313 109.855 415.469C109.705 415.624 109.621 415.832 109.621 416.048C109.621 416.264 109.705 416.472 109.855 416.628C110.005 416.783 110.21 416.874 110.426 416.882Z"
                fill="#F5E6DF" />
            <path
                d="M115.528 406.252C115.744 406.244 115.949 406.153 116.099 405.998C116.249 405.842 116.333 405.634 116.333 405.418C116.333 405.202 116.249 404.994 116.099 404.839C115.949 404.683 115.744 404.592 115.528 404.585C115.312 404.592 115.107 404.683 114.957 404.839C114.807 404.994 114.723 405.202 114.723 405.418C114.723 405.634 114.807 405.842 114.957 405.998C115.107 406.153 115.312 406.244 115.528 406.252Z"
                fill="#F5E6DF" />
            <path
                d="M121.055 416.882C121.271 416.874 121.476 416.783 121.626 416.628C121.776 416.472 121.86 416.264 121.86 416.048C121.86 415.832 121.776 415.624 121.626 415.469C121.476 415.313 121.271 415.222 121.055 415.215C120.839 415.222 120.634 415.313 120.484 415.469C120.334 415.624 120.25 415.832 120.25 416.048C120.25 416.264 120.334 416.472 120.484 416.628C120.634 416.783 120.839 416.874 121.055 416.882Z"
                fill="#F5E6DF" />
            <path
                d="M127.415 405.844V405.418C127.405 405.199 127.318 404.991 127.17 404.83C127.009 404.682 126.801 404.596 126.582 404.588L126.361 404.616C126.222 404.654 126.096 404.728 125.994 404.83C125.952 404.886 125.907 404.943 125.865 404.999C125.791 405.126 125.751 405.27 125.75 405.418V405.844C125.747 405.955 125.772 406.065 125.823 406.164C125.857 406.266 125.916 406.359 125.995 406.432C126.068 406.512 126.16 406.571 126.263 406.604C126.362 406.656 126.472 406.681 126.583 406.677C126.658 406.668 126.731 406.656 126.804 406.646C126.943 406.608 127.07 406.534 127.171 406.432C127.216 406.376 127.258 406.319 127.303 406.265C127.378 406.137 127.417 405.992 127.416 405.844"
                fill="#F5E6DF" />
            <path
                d="M129.985 417.307C130.198 417.296 130.4 417.204 130.548 417.049C130.695 416.894 130.778 416.688 130.778 416.474C130.778 416.26 130.695 416.054 130.548 415.899C130.4 415.744 130.198 415.651 129.985 415.641C129.771 415.651 129.569 415.744 129.421 415.899C129.274 416.054 129.191 416.26 129.191 416.474C129.191 416.688 129.274 416.894 129.421 417.049C129.569 417.204 129.771 417.296 129.985 417.307Z"
                fill="#F5E6DF" />
            <path
                d="M135.937 406.252H136.363C136.582 406.241 136.789 406.154 136.951 406.007C137.099 405.846 137.185 405.637 137.193 405.419L137.165 405.198C137.127 405.059 137.053 404.932 136.951 404.831L136.782 404.704C136.655 404.63 136.51 404.59 136.363 404.589H135.937C135.826 404.585 135.716 404.61 135.617 404.662C135.514 404.695 135.422 404.754 135.349 404.834C135.269 404.906 135.209 404.999 135.177 405.102C135.125 405.2 135.1 405.311 135.104 405.422C135.113 405.497 135.125 405.57 135.135 405.643C135.173 405.782 135.247 405.908 135.349 406.01C135.405 406.055 135.462 406.097 135.516 406.142C135.644 406.216 135.789 406.255 135.937 406.255"
                fill="#F5E6DF" />
        </g>
    </g>
</svg>