<svg width="452" height="247" viewBox="0 0 452 247" fill="none" xmlns="http://www.w3.org/2000/svg">
    <mask id="mask0_387_5149" style="mask-type:luminance" maskUnits="userSpaceOnUse" x="0" y="0"
        width="452" height="247">
        <path d="M451.598 0.422852H0V246.151H451.598V0.422852Z" fill="white" />
    </mask>
    <g mask="url(#mask0_387_5149)">
        <path
            d="M235.554 64.9798C227.294 62.8877 218.749 62.1538 210.254 62.8069C215.527 45.7709 208.473 27.4359 211.87 10.0229C211.901 9.67446 212.053 9.34797 212.3 9.09985C212.649 8.88105 213.06 8.7801 213.471 8.81185C226.151 8.49685 238.459 12.2809 251 13.9839C260.326 15.2519 269.794 15.3689 279.227 15.4839C288.493 15.5949 288.917 15.7089 298.183 15.8199L296.618 67.6199C275.266 69.2379 262.518 68.3639 241.418 65.0289L235.554 64.9798Z"
            fill="white" />
        <path
            d="M91.7932 163.924C84.0122 163.846 76.0602 163.793 68.6812 166.262C58.5962 169.636 50.6122 177.362 43.6512 185.406C33.1173 197.576 24.0798 210.966 16.7322 225.287C13.8942 230.82 11.4322 237.932 15.2452 242.842C18.6282 247.206 264.263 245.642 423.597 246.142C429.744 246.161 436.097 246.147 441.733 243.686C447.369 241.225 452.113 235.615 451.554 229.494C451.195 225.565 448.795 222.15 446.354 219.047C433.094 202.158 418.022 177.322 401.454 163.658C395.666 158.884 389.633 153.98 382.381 152.058C377.334 150.721 372.024 150.925 366.809 151.137C342.809 152.117 124.336 164.244 91.7872 163.917"
            fill="#666C75" />
        <path
            d="M288.609 181.146C263.527 181.104 238.509 184.329 213.447 183.496C213.543 186.496 213.252 189.495 212.582 192.421C223.291 198.628 238.839 209.855 249.548 216.061C249.921 216.278 322.948 201.343 332.172 200.454C333.712 197.301 333.491 192.633 334.359 189.287L288.609 181.146Z"
            fill="#C2B38C" />
        <path
            d="M314.389 179.234C320.974 183.193 327.653 187.191 335.029 189.34C307.221 194.401 279.559 200.187 252.043 206.699C250.976 207.145 249.8 207.259 248.668 207.024C247.536 206.788 246.502 206.216 245.702 205.382C235.534 197.381 224.807 190.119 213.602 183.651C233.145 177.078 260.435 174.985 279.491 167.103L314.389 179.234Z"
            fill="white" />
        <path
            d="M250.162 202.805C248.896 201.364 247.514 200.03 246.029 198.817C244.423 197.712 242.718 196.758 240.935 195.968C239.239 195.079 237.684 193.945 236.32 192.601C234.967 191.301 233.708 189.91 232.272 188.701C230.764 187.326 228.906 186.395 226.902 186.01C226.336 185.923 226.585 185.066 227.148 185.151C230.929 185.729 233.641 188.686 236.214 191.251C237.561 192.677 239.105 193.903 240.799 194.892C242.574 195.715 244.298 196.642 245.964 197.668C247.726 199.003 249.346 200.515 250.799 202.181C251.192 202.602 250.555 203.228 250.162 202.807"
            fill="#C2B38C" />
        <path
            d="M233.252 185.324C235.885 187.724 239.275 189.071 242.111 191.2C244.88 193.281 247.301 195.769 249.948 198C251.418 199.261 253.013 200.369 254.707 201.307C255.213 201.579 254.755 202.345 254.249 202.073C251.269 200.297 248.517 198.163 246.055 195.719C244.755 194.531 243.443 193.342 242.046 192.262C240.64 191.206 239.166 190.243 237.634 189.38C235.846 188.416 234.165 187.266 232.619 185.948C232.193 185.559 232.831 184.937 233.256 185.322"
            fill="#C2B38C" />
        <path
            d="M240.356 182.393C242.513 183.703 244.564 185.182 246.488 186.816C246.927 187.187 246.288 187.81 245.851 187.44C243.982 185.858 241.991 184.427 239.897 183.159C239.795 183.098 239.722 183 239.693 182.885C239.664 182.77 239.682 182.648 239.743 182.547C239.804 182.445 239.902 182.372 240.017 182.343C240.132 182.314 240.254 182.332 240.356 182.393Z"
            fill="#C2B38C" />
        <path
            d="M249.253 189.896L253.463 193.27C253.545 193.355 253.59 193.469 253.588 193.587C253.587 193.705 253.539 193.818 253.456 193.901C253.37 193.981 253.256 194.025 253.139 194.024C253.021 194.022 252.909 193.976 252.825 193.894C251.425 192.769 250.022 191.645 248.616 190.522C248.533 190.437 248.487 190.324 248.488 190.205C248.489 190.087 248.537 189.974 248.621 189.891C248.706 189.81 248.82 189.766 248.937 189.767C249.055 189.768 249.168 189.814 249.253 189.896Z"
            fill="#C2B38C" />
        <path
            d="M260.903 198.969L262.355 200.046C262.451 200.109 262.522 200.204 262.555 200.315C262.584 200.431 262.567 200.554 262.507 200.658C262.445 200.758 262.347 200.831 262.232 200.86C262.118 200.889 261.997 200.871 261.895 200.812L260.443 199.735C260.346 199.672 260.275 199.577 260.243 199.466C260.213 199.35 260.23 199.226 260.291 199.123C260.352 199.022 260.451 198.95 260.565 198.921C260.68 198.892 260.801 198.909 260.903 198.969Z"
            fill="#C2B38C" />
        <path
            d="M248.655 179.568L255.455 185.244C255.897 185.612 255.255 186.232 254.818 185.868C252.551 183.976 250.285 182.085 248.018 180.194C247.576 179.824 248.218 179.204 248.655 179.568Z"
            fill="#C2B38C" />
        <path
            d="M263.358 192.346C264.349 192.931 265.266 193.631 266.09 194.433C266.172 194.518 266.218 194.631 266.216 194.749C266.215 194.867 266.167 194.98 266.083 195.063C265.998 195.144 265.885 195.188 265.767 195.187C265.649 195.187 265.537 195.14 265.452 195.058C265.26 194.871 265.062 194.689 264.858 194.512C264.758 194.424 264.653 194.337 264.549 194.25L264.455 194.176C264.377 194.114 264.321 194.07 264.264 194.027C263.828 193.696 263.373 193.391 262.901 193.113C262.801 193.051 262.728 192.953 262.699 192.838C262.67 192.724 262.688 192.603 262.747 192.501C262.81 192.401 262.908 192.329 263.022 192.3C263.136 192.272 263.257 192.288 263.359 192.347"
            fill="#C2B38C" />
        <path
            d="M272.413 192.706C269.06 190.057 265.523 187.651 261.828 185.506C261.73 185.443 261.661 185.345 261.635 185.233C261.608 185.12 261.627 185.002 261.686 184.903C261.745 184.803 261.84 184.731 261.952 184.7C262.063 184.67 262.182 184.684 262.284 184.74C266.042 186.927 269.64 189.38 273.049 192.08C273.491 192.448 272.849 193.07 272.412 192.706"
            fill="#C2B38C" />
        <path
            d="M289.932 180.643C286.58 177.994 283.042 175.588 279.347 173.443C279.25 173.38 279.181 173.282 279.154 173.17C279.128 173.057 279.146 172.939 279.205 172.84C279.264 172.74 279.36 172.668 279.471 172.638C279.583 172.607 279.702 172.621 279.803 172.677C283.562 174.864 287.159 177.317 290.568 180.017C291.01 180.385 290.368 181.007 289.931 180.643"
            fill="#C2B38C" />
        <path
            d="M261.652 185.251C259.581 183.267 258.213 180.501 255.67 179.035C255.573 178.972 255.504 178.874 255.478 178.761C255.452 178.649 255.471 178.53 255.53 178.431C255.589 178.332 255.685 178.259 255.796 178.229C255.908 178.199 256.027 178.212 256.128 178.268C258.752 179.782 260.156 182.581 262.289 184.625C262.705 185.025 262.066 185.649 261.652 185.251Z"
            fill="#C2B38C" />
        <path
            d="M282.754 194.365C282.674 194.259 282.782 194.4 282.736 194.34C282.715 194.313 282.694 194.287 282.672 194.259L282.545 194.098C282.462 193.998 282.379 193.898 282.294 193.798C282.118 193.598 281.935 193.402 281.746 193.211C281.56 193.027 281.369 192.848 281.171 192.679C281.071 192.589 280.962 192.5 280.856 192.414L280.768 192.345C280.708 192.299 280.648 192.253 280.586 192.209C280.487 192.146 280.416 192.047 280.387 191.933C280.358 191.818 280.374 191.697 280.432 191.595C280.494 191.495 280.593 191.422 280.707 191.394C280.821 191.365 280.942 191.382 281.044 191.441C281.988 192.143 282.825 192.978 283.528 193.922C283.587 194.025 283.602 194.147 283.571 194.261C283.54 194.375 283.465 194.473 283.362 194.532C283.259 194.587 283.138 194.6 283.025 194.569C282.912 194.538 282.815 194.465 282.754 194.365Z"
            fill="#C2B38C" />
        <path
            d="M275.913 189.101C275.844 188.961 275.768 188.825 275.685 188.693C275.644 188.626 275.6 188.56 275.556 188.493L275.491 188.403C275.447 188.341 275.542 188.468 275.509 188.426C275.306 188.162 275.074 187.922 274.818 187.708C274.777 187.666 274.745 187.616 274.723 187.562C274.701 187.507 274.691 187.449 274.691 187.39C274.694 187.272 274.741 187.16 274.824 187.077C274.866 187.036 274.916 187.003 274.971 186.982C275.025 186.96 275.084 186.949 275.142 186.95C275.259 186.956 275.37 187.003 275.455 187.083C275.97 187.517 276.39 188.052 276.689 188.655C276.748 188.757 276.764 188.879 276.733 188.994C276.702 189.108 276.627 189.205 276.524 189.264C276.422 189.323 276.3 189.338 276.186 189.307C276.072 189.277 275.974 189.201 275.915 189.099"
            fill="#C2B38C" />
        <path
            d="M266.9 181.662L266.11 180.99C266.069 180.948 266.036 180.898 266.015 180.844C265.993 180.79 265.982 180.732 265.982 180.673C265.983 180.614 265.995 180.556 266.018 180.503C266.041 180.449 266.075 180.4 266.117 180.359C266.159 180.318 266.208 180.285 266.262 180.264C266.317 180.242 266.375 180.231 266.434 180.232L266.552 180.248C266.625 180.27 266.692 180.31 266.747 180.365L267.537 181.039C267.619 181.123 267.665 181.237 267.664 181.355C267.664 181.473 267.616 181.586 267.532 181.669C267.447 181.752 267.333 181.798 267.215 181.798L267.097 181.78C267.021 181.76 266.951 181.719 266.897 181.663"
            fill="#C2B38C" />
        <path
            d="M264.195 179.418C263.408 178.208 262.46 177.11 261.378 176.155C261.337 176.113 261.304 176.064 261.283 176.009C261.261 175.955 261.25 175.897 261.25 175.838C261.251 175.779 261.263 175.721 261.285 175.667C261.308 175.613 261.342 175.564 261.384 175.523C261.425 175.482 261.475 175.45 261.529 175.428C261.584 175.406 261.642 175.395 261.7 175.395C261.759 175.396 261.817 175.408 261.871 175.431C261.925 175.454 261.974 175.487 262.015 175.529C263.151 176.539 264.145 177.698 264.97 178.974C264.999 179.025 265.018 179.081 265.026 179.139C265.033 179.197 265.029 179.256 265.014 179.313C264.998 179.369 264.972 179.422 264.936 179.469C264.9 179.515 264.855 179.554 264.805 179.583C264.754 179.612 264.698 179.631 264.639 179.639C264.581 179.646 264.522 179.642 264.466 179.627C264.409 179.611 264.356 179.585 264.31 179.549C264.263 179.513 264.224 179.469 264.195 179.418Z"
            fill="#C2B38C" />
        <path
            d="M310.001 185.262C309.214 184.052 308.267 182.954 307.184 181.999C307.102 181.914 307.057 181.8 307.059 181.682C307.06 181.564 307.108 181.451 307.191 181.368C307.277 181.287 307.39 181.242 307.508 181.243C307.625 181.244 307.738 181.291 307.822 181.373C308.957 182.383 309.95 183.542 310.775 184.818C310.804 184.869 310.823 184.925 310.831 184.983C310.838 185.041 310.834 185.1 310.819 185.157C310.803 185.213 310.777 185.266 310.741 185.313C310.705 185.359 310.661 185.398 310.61 185.427C310.559 185.457 310.503 185.475 310.445 185.483C310.386 185.49 310.327 185.486 310.271 185.471C310.214 185.455 310.161 185.429 310.115 185.393C310.068 185.357 310.029 185.313 310 185.262"
            fill="#C2B38C" />
        <path
            d="M302.215 187.779C301.426 186.569 300.478 185.472 299.396 184.516C299.313 184.431 299.267 184.317 299.268 184.199C299.269 184.081 299.317 183.967 299.401 183.884C299.486 183.801 299.6 183.755 299.718 183.756C299.836 183.757 299.95 183.805 300.033 183.89C301.169 184.9 302.164 186.059 302.99 187.335C303.049 187.437 303.064 187.559 303.033 187.674C303.002 187.788 302.927 187.885 302.825 187.944C302.722 188.003 302.6 188.018 302.486 187.987C302.372 187.957 302.275 187.881 302.216 187.779"
            fill="#C2B38C" />
        <path
            d="M277.243 181.381C278.986 182.875 280.73 184.369 282.475 185.862C282.557 185.947 282.603 186.06 282.602 186.178C282.601 186.296 282.554 186.409 282.47 186.493C282.384 186.573 282.271 186.617 282.153 186.616C282.036 186.614 281.923 186.568 281.839 186.486L276.607 182.007C276.525 181.922 276.48 181.808 276.48 181.69C276.481 181.572 276.529 181.459 276.612 181.376C276.698 181.295 276.811 181.25 276.929 181.251C277.046 181.252 277.159 181.299 277.243 181.381Z"
            fill="#C2B38C" />
        <path
            d="M288.87 191.011C288.958 191.057 289.047 191.101 289.133 191.147C289.185 191.174 289.228 191.214 289.259 191.264C289.298 191.307 289.325 191.359 289.337 191.416C289.363 191.532 289.346 191.654 289.289 191.759C289.264 191.789 289.241 191.819 289.218 191.849C289.163 191.903 289.094 191.941 289.018 191.96L288.9 191.976C288.821 191.975 288.743 191.953 288.675 191.912C288.587 191.868 288.498 191.822 288.41 191.776C288.334 191.731 288.274 191.665 288.236 191.585C288.199 191.506 288.187 191.417 288.201 191.33C288.204 191.271 288.223 191.213 288.256 191.164L288.327 191.074C288.383 191.02 288.452 190.982 288.527 190.963L288.645 190.947C288.724 190.948 288.802 190.97 288.87 191.011Z"
            fill="#C2B38C" />
        <path
            d="M270.267 176.249C269.648 175.716 269.029 175.182 268.41 174.649C268.369 174.607 268.337 174.558 268.315 174.504C268.293 174.45 268.283 174.392 268.283 174.333C268.284 174.275 268.296 174.217 268.319 174.164C268.342 174.11 268.375 174.062 268.417 174.021C268.501 173.939 268.614 173.894 268.732 173.894C268.849 173.894 268.962 173.939 269.047 174.021L270.904 175.621C270.986 175.705 271.032 175.819 271.031 175.937C271.03 176.056 270.983 176.169 270.899 176.252C270.813 176.332 270.7 176.377 270.582 176.376C270.465 176.375 270.352 176.329 270.268 176.247"
            fill="#C2B38C" />
        <path
            d="M292.726 188.025C295.284 189.767 297.842 191.509 300.4 193.252C300.872 193.574 300.419 194.343 299.942 194.018L292.268 188.791C291.796 188.469 292.25 187.7 292.726 188.025Z"
            fill="#C2B38C" />
        <path
            d="M250.074 208.149C249.908 210.45 249.818 212.753 249.805 215.06C249.799 215.175 249.748 215.283 249.664 215.361C249.58 215.44 249.469 215.483 249.354 215.482C249.239 215.481 249.129 215.435 249.047 215.355C248.965 215.275 248.916 215.166 248.912 215.051C248.925 212.745 249.014 210.441 249.181 208.14C249.223 207.571 250.115 207.574 250.074 208.149Z"
            fill="#F2E8D1" />
        <path
            d="M246.638 208.639C242.739 205.405 238.726 202.314 234.598 199.366C230.5 196.441 226.299 193.665 221.998 191.036C219.556 189.545 217.085 188.104 214.584 186.712C214.084 186.433 214.538 185.667 215.04 185.946C219.482 188.416 223.831 191.044 228.085 193.831C232.356 196.631 236.521 199.581 240.58 202.681C242.847 204.414 245.078 206.191 247.275 208.012C247.717 208.38 247.075 209.003 246.638 208.639Z"
            fill="#F2E8D1" />
        <path
            d="M246.002 211.1C242.124 208.064 238.147 205.16 234.073 202.388C229.981 199.607 225.798 196.966 221.525 194.466C219.125 193.059 216.695 191.698 214.236 190.385C213.73 190.114 214.188 189.349 214.694 189.619C219.035 191.942 223.295 194.409 227.475 197.019C231.671 199.642 235.774 202.404 239.786 205.307C242.042 206.939 244.267 208.614 246.46 210.333C246.558 210.396 246.629 210.495 246.658 210.608C246.686 210.722 246.671 210.842 246.614 210.945C246.552 211.046 246.454 211.119 246.339 211.147C246.225 211.176 246.103 211.159 246.002 211.099"
            fill="#F2E8D1" />
        <path
            d="M235.818 205.723C233.758 204.77 231.826 203.564 230.066 202.133C229.983 202.048 229.936 201.934 229.938 201.816C229.939 201.698 229.987 201.584 230.071 201.501C230.156 201.418 230.27 201.372 230.388 201.373C230.506 201.374 230.62 201.422 230.703 201.507C232.41 202.884 234.283 204.043 236.277 204.957C236.378 205.018 236.451 205.117 236.48 205.231C236.508 205.346 236.491 205.467 236.431 205.569C236.368 205.668 236.269 205.74 236.155 205.768C236.041 205.797 235.921 205.781 235.819 205.723"
            fill="#F2E8D1" />
        <path
            d="M252.863 208.327C257.854 208.023 262.81 207.29 267.676 206.136C272.544 205.13 277.437 204.301 282.351 203.558C287.283 202.812 292.223 202.097 297.118 201.132C301.924 200.182 306.63 198.881 311.33 197.512C315.977 196.064 320.703 194.881 325.484 193.97C326.084 193.867 326.684 193.774 327.284 193.689C327.846 193.609 328.084 194.472 327.512 194.552C322.707 195.322 317.962 196.428 313.312 197.864C308.578 199.233 303.859 200.633 299.033 201.65C294.153 202.677 289.217 203.422 284.285 204.163C279.325 204.909 274.37 205.678 269.454 206.679C264.601 207.814 259.678 208.631 254.719 209.125C254.096 209.169 253.474 209.202 252.852 209.225C252.277 209.243 252.288 208.35 252.861 208.332"
            fill="#F2E8D1" />
        <path
            d="M330.665 198.407C324.565 200.73 318.242 202.423 311.797 203.461C309.981 203.753 308.158 203.992 306.326 204.179C305.755 204.239 305.769 203.346 306.335 203.288C312.765 202.62 319.11 201.299 325.272 199.346C327.01 198.794 328.731 198.194 330.435 197.546C330.973 197.346 331.197 198.207 330.665 198.409"
            fill="#F2E8D1" />
        <path
            d="M320.283 199.313C312.603 201.113 304.922 202.919 297.183 204.461C289.498 206.035 281.738 207.222 273.933 208.015C271.833 208.215 269.726 208.337 267.626 208.526C265.668 208.618 263.75 209.113 261.992 209.98C261.89 210.033 261.771 210.044 261.66 210.012C261.55 209.979 261.456 209.905 261.399 209.805C261.342 209.705 261.325 209.587 261.353 209.475C261.381 209.363 261.451 209.266 261.548 209.205C264.703 207.474 268.506 207.596 271.992 207.305C275.948 206.969 279.892 206.493 283.815 205.905C291.615 204.747 299.344 203.175 307.038 201.456C311.383 200.485 315.717 199.468 320.051 198.45C320.612 198.319 320.841 199.182 320.281 199.313"
            fill="#F2E8D1" />
        <path
            d="M256.693 211.578C255.829 211.813 254.939 211.939 254.044 211.953C253.984 211.955 253.924 211.945 253.868 211.923C253.811 211.902 253.76 211.869 253.717 211.827C253.674 211.785 253.639 211.734 253.616 211.678C253.593 211.623 253.581 211.563 253.582 211.503C253.583 211.442 253.596 211.383 253.62 211.328C253.644 211.272 253.679 211.223 253.723 211.181C253.767 211.14 253.819 211.108 253.876 211.088C253.933 211.067 253.993 211.058 254.053 211.062C254.262 211.062 254.47 211.05 254.681 211.034C254.781 211.025 254.89 211.016 254.994 211.004L255.094 210.993C255.142 210.988 255.194 210.981 255.237 210.974C255.652 210.914 256.062 210.828 256.466 210.716C256.579 210.691 256.696 210.711 256.795 210.771C256.893 210.831 256.964 210.926 256.994 211.037C257.024 211.149 257.009 211.267 256.954 211.368C256.898 211.469 256.806 211.544 256.696 211.579"
            fill="#F2E8D1" />
        <path
            d="M379.876 152.359C368.951 134.791 354.863 120.108 344.435 102.241C341.584 97.3548 338.38 92.5259 333.892 89.0829C326.663 83.5339 317.092 82.2728 307.992 81.7248C285.731 80.3808 263.413 82.1329 241.18 83.8839L240.902 83.8749C227.442 85.2449 213.028 87.0169 202.878 95.9649C190.696 106.702 188.267 124.365 182.405 139.508C179.105 148.035 174.524 156.073 171.93 164.842C169.336 173.611 168.965 183.628 173.799 191.39C178.633 199.152 189.853 203.211 197.431 198.09C201.871 195.09 204.141 189.88 206.839 185.25C209.239 181.134 212.12 177.318 215.421 173.883C216.292 172.863 217.369 172.04 218.581 171.468C219.863 171.054 221.214 170.896 222.557 171.003C258.658 171.523 294.758 172.043 330.857 172.564C332.231 172.444 333.61 172.756 334.798 173.457C335.804 174.415 336.516 175.64 336.852 176.988C339.152 183.158 343.539 188.818 349.638 191.302C355.709 193.774 362.739 192.819 368.754 190.211C373.194 188.287 383.253 187.84 385.03 183.341C388.117 175.541 384.294 159.476 379.867 152.355M329.085 159.296V140.504C329.085 140.504 336.636 152.704 340.931 157.662C341.981 158.873 329.085 159.296 329.085 159.296Z"
            fill="#CCCAC6" />
        <path
            d="M203.649 181.387C205.47 181.155 207.157 180.308 208.431 178.987C213.946 173.24 217.043 165.431 220.155 157.999C227.17 141.251 235.278 124.983 244.428 109.299C247.245 104.473 250.256 99.3428 250.042 93.7589C249.942 91.0588 249.08 88.3069 249.832 85.7129C250.983 81.7359 254.868 79.5609 258.62 77.8129C264.747 74.9539 260.328 70.1879 258.365 70.3209C259.319 70.2088 260.199 69.7544 260.843 69.042C261.487 68.3296 261.85 67.4076 261.866 66.4475C261.881 65.4873 261.548 64.5542 260.927 63.8215C260.306 63.0889 259.44 62.6064 258.491 62.4639C261.48 63.2488 264.639 63.0814 267.529 61.9849C267.748 61.904 267.949 61.7807 268.121 61.622C268.293 61.4633 268.431 61.2722 268.529 61.0599C269.029 59.9159 267.949 59.0709 266.991 58.5769C264.147 57.1166 261.042 56.233 257.856 55.9769C260.957 55.6375 263.947 54.6293 266.62 53.0219C266.978 52.8161 267.268 52.5114 267.457 52.1443C267.645 51.7772 267.724 51.3635 267.683 50.9529C267.533 49.7529 266.408 49.4529 265.425 49.2849C259.969 48.4157 254.391 48.7346 249.07 50.2199C243.749 51.7052 238.811 54.3218 234.595 57.8909C232.068 60.0609 229.739 62.7379 229.095 66.0039C228.811 68.1727 228.867 70.3726 229.263 72.5239C229.9 77.8801 230.055 83.2829 229.725 88.6669C229.697 90.1421 229.443 91.6043 228.973 93.0029C228.434 94.2302 227.74 95.3835 226.909 96.4349C213.809 114.592 200.708 132.748 187.604 150.905C186.242 152.541 185.24 154.446 184.662 156.495C184.337 158.789 184.65 161.129 185.567 163.257C187.965 169.792 192.159 175.517 197.667 179.773C199.368 181.082 201.52 181.663 203.649 181.387Z"
            fill="#E5A37F" />
        <path
            d="M338.499 158.709L273.482 163.072C270.158 163.379 266.815 163.436 263.482 163.245C258.119 162.801 252.959 161.082 247.833 159.445C244.425 158.356 240.933 157.286 237.358 157.345C229.625 157.476 223.058 162.735 217.152 167.732C217.173 168.078 217.27 168.416 217.436 168.721C217.601 169.027 217.832 169.292 218.111 169.499C218.39 169.705 218.711 169.848 219.051 169.917C219.391 169.987 219.743 169.981 220.08 169.9C218.559 169.927 217.594 171.877 218.195 173.274C218.552 173.948 219.104 174.499 219.779 174.854C220.455 175.208 221.222 175.35 221.979 175.26C221.643 175.468 221.355 175.744 221.134 176.072C220.912 176.399 220.762 176.769 220.694 177.158C220.626 177.547 220.641 177.947 220.738 178.33C220.835 178.713 221.013 179.071 221.258 179.38C221.503 179.69 221.812 179.944 222.162 180.126C222.513 180.308 222.898 180.414 223.293 180.437C223.687 180.459 224.082 180.398 224.451 180.257C224.82 180.116 225.155 179.899 225.434 179.619C224.269 181.693 226.09 184.445 228.391 185.044C230.692 185.643 233.107 184.731 235.222 183.644C237.337 182.557 239.436 181.253 241.8 181C244.6 180.7 247.3 181.914 249.973 182.77C257.686 185.206 266.017 184.795 273.453 181.612C275.308 180.812 277.153 179.823 279.165 179.677C280.73 179.653 282.288 179.88 283.78 180.349C304.596 185.619 332.132 192.549 353.598 191.977C353.915 191.968 349.154 174.156 344.277 164.531C343.001 162.039 340.983 160.005 338.5 158.71"
            fill="#E5A37F" />
        <path
            d="M233.214 107.572C223.289 118.7 222.643 136.982 231.757 148.784C233.423 150.94 235.416 152.984 236.142 155.611C236.542 157.04 236.531 158.564 237.01 159.968C237.762 161.762 238.941 163.344 240.444 164.578C244.854 168.692 249.867 172.108 255.308 174.709C256.32 175.257 257.424 175.616 258.565 175.768C262.609 176.086 265.507 171.522 265.507 167.468C265.495 168.336 265.67 169.196 266.019 169.991C266.369 170.786 266.885 171.496 267.533 172.074C268.18 172.652 268.945 173.084 269.774 173.341C270.603 173.598 271.478 173.675 272.339 173.564C273.2 173.454 274.027 173.161 274.765 172.703C275.503 172.245 276.134 171.635 276.615 170.912C277.096 170.19 277.417 169.373 277.555 168.516C277.693 167.659 277.646 166.782 277.416 165.945C279.316 167.897 282.689 167.613 284.916 166.045C287.143 164.477 288.483 161.971 289.706 159.539C294.164 150.674 298.185 141.28 298.563 131.363C298.903 121.8 295.813 112.43 289.851 104.946C283.828 97.5051 275.298 92.5167 265.86 90.9159C262.875 90.3387 259.803 90.3727 256.831 91.0159C254.212 91.7871 251.704 92.8932 249.369 94.3069C244.237 97.1239 238.787 100.264 236.284 105.555L233.214 107.572Z"
            fill="#24282F" />
        <path
            d="M133.948 232.264C153.267 227.999 171.882 219.025 190.548 211.877C191.061 211.679 191.496 211.321 191.789 210.855C192.082 210.39 192.217 209.842 192.173 209.294C192.13 208.746 191.91 208.226 191.548 207.813C191.185 207.4 190.698 207.114 190.161 207L114.439 190.8L54.9316 196.653L133.948 232.264Z"
            fill="#CCCAC6" />
        <path
            d="M127.606 205.924C138.398 208.424 156.58 212.937 167.372 215.434L141.263 224.946L113.463 215.192L119.804 206.9L127.606 205.924Z"
            fill="#24282F" />
        <path
            d="M3.21941 129.588C22.2994 132.704 97.1414 144.684 109.337 146.637C109.845 146.717 110.319 146.938 110.708 147.274C111.097 147.609 111.384 148.047 111.537 148.537L136.96 228.885C137.104 229.339 137.128 229.822 137.03 230.288C136.933 230.755 136.717 231.188 136.403 231.546C136.09 231.905 135.689 232.176 135.24 232.335C134.791 232.493 134.309 232.534 133.839 232.452L25.8854 213.535C25.3793 213.446 24.9077 213.219 24.5233 212.878C24.1388 212.537 23.8567 212.096 23.7084 211.604L0.119406 133.121C-0.0160021 132.671 -0.0346672 132.194 0.0651664 131.734C0.165 131.275 0.38005 130.848 0.690085 130.495C1.00012 130.142 1.39495 129.873 1.83742 129.714C2.2799 129.556 2.75547 129.512 3.21941 129.588Z"
            fill="#CCCAC6" />
        <path
            d="M57.149 174.144C55.322 176.464 56.281 180.186 58.661 181.933C61.041 183.68 64.341 183.719 67.138 182.776C68.1459 182.487 69.0644 181.947 69.808 181.208C71.497 179.358 71.049 176.308 69.601 174.266C68.8786 173.222 67.92 172.362 66.803 171.758C65.6861 171.154 64.4423 170.823 63.173 170.79C61.9027 170.79 60.6607 171.165 59.6024 171.868C58.5441 172.57 57.7164 173.569 57.223 174.74L57.149 174.144Z"
            fill="white" />
        <path
            d="M121.06 179.824C125.468 192.796 129.509 205.886 133.183 219.093C134.219 222.817 135.225 226.55 136.201 230.293C136.264 230.481 136.396 230.638 136.571 230.731C136.747 230.825 136.951 230.847 137.142 230.794C137.333 230.742 137.497 230.617 137.6 230.447C137.702 230.277 137.735 230.075 137.693 229.881C134.232 216.626 130.401 203.474 126.199 190.425C125.012 186.745 123.797 183.075 122.553 179.414C122.233 178.475 120.737 178.878 121.059 179.826"
            fill="#24282F" />
        <path
            d="M184.835 207.882C184.908 207.895 184.979 207.915 185.047 207.942L184.863 207.864C184.924 207.891 184.982 207.922 185.038 207.958C185.138 208.02 184.874 207.813 184.98 207.914C185.007 207.936 185.031 207.961 185.054 207.987C185.081 208.015 185.154 208.114 185.061 207.987C184.968 207.86 185.043 207.969 185.066 208.005C185.104 208.065 185.138 208.128 185.166 208.194L185.086 208.008C185.139 208.136 185.176 208.27 185.194 208.408C185.183 208.339 185.175 208.27 185.166 208.201C185.186 208.357 185.186 208.514 185.166 208.67C185.175 208.603 185.185 208.534 185.194 208.465C185.174 208.609 185.135 208.751 185.079 208.886C185.106 208.824 185.132 208.762 185.157 208.7C185.131 208.762 185.101 208.822 185.065 208.879C185.049 208.906 185.03 208.93 185.012 208.955C184.975 209.017 185.143 208.803 185.092 208.855C185.041 208.907 185.011 208.94 184.992 208.961C184.973 208.982 185.133 208.869 185.059 208.913C185.001 208.95 184.94 208.983 184.877 209.013C184.939 208.988 185.001 208.962 185.063 208.935C184.988 208.966 184.909 208.988 184.828 209.002C184.634 209.056 184.468 209.183 184.365 209.357C184.262 209.534 184.233 209.746 184.285 209.945C184.337 210.144 184.466 210.314 184.643 210.418C184.828 210.513 185.04 210.54 185.243 210.496C185.594 210.415 185.915 210.235 186.166 209.978C186.418 209.72 186.592 209.396 186.665 209.044C186.753 208.704 186.765 208.349 186.7 208.004C186.635 207.659 186.494 207.333 186.288 207.049C186.037 206.711 185.67 206.476 185.257 206.389C185.055 206.34 184.841 206.368 184.657 206.467C184.485 206.571 184.358 206.736 184.302 206.93C184.25 207.128 184.278 207.338 184.379 207.517C184.48 207.695 184.647 207.826 184.843 207.883"
            fill="#24282F" />
        <path
            d="M106.051 150.441C106.092 150.432 106.131 150.427 106.171 150.42C106.065 150.434 106.056 150.436 106.144 150.427C106.232 150.418 106.303 150.416 106.383 150.418C106.441 150.418 106.5 150.418 106.56 150.425L106.675 150.436C106.567 150.422 106.555 150.42 106.643 150.436C106.775 150.462 106.907 150.495 107.036 150.536C107.077 150.55 107.308 150.654 107.123 150.564C107.194 150.598 107.264 150.631 107.333 150.664C107.455 150.729 107.568 150.807 107.683 150.883C107.752 150.934 107.748 150.929 107.671 150.869L107.763 150.943C107.809 150.982 107.853 151.023 107.897 151.061C108.015 151.17 108.126 151.286 108.231 151.409C108.249 151.432 108.369 151.593 108.261 151.443C108.307 151.508 108.355 151.574 108.401 151.643C108.478 151.76 108.55 151.882 108.615 152.007C108.652 152.08 108.686 152.152 108.721 152.224C108.634 152.042 108.74 152.281 108.755 152.318C108.801 152.449 108.84 152.583 108.873 152.718C108.891 152.796 108.905 152.874 108.919 152.951C108.949 153.112 108.912 152.801 108.919 152.978C108.93 153.133 108.933 153.289 108.928 153.445C108.928 153.503 108.917 153.562 108.912 153.62C108.935 153.399 108.9 153.657 108.889 153.7C108.858 153.834 108.817 153.965 108.767 154.093C108.84 153.902 108.739 154.141 108.719 154.178C108.682 154.249 108.639 154.318 108.595 154.387C108.491 154.564 108.462 154.775 108.514 154.974C108.566 155.173 108.695 155.343 108.872 155.446C109.049 155.55 109.261 155.579 109.459 155.527C109.658 155.475 109.828 155.346 109.932 155.169C111.332 153.003 109.886 150.037 107.665 149.123C107.021 148.866 106.316 148.804 105.637 148.943C105.537 148.968 105.443 149.014 105.361 149.076C105.279 149.138 105.211 149.216 105.159 149.305C105.107 149.394 105.074 149.492 105.061 149.595C105.048 149.697 105.055 149.8 105.083 149.899C105.11 149.999 105.157 150.091 105.22 150.172C105.284 150.253 105.363 150.321 105.453 150.371C105.543 150.421 105.642 150.452 105.744 150.464C105.846 150.475 105.95 150.466 106.049 150.437"
            fill="#24282F" />
        <path
            d="M226.505 21.5789C228.146 30.2069 225.129 38.8729 225.766 47.5379C225.826 48.3439 227.154 48.6658 227.288 47.7449C227.925 43.2475 229.246 38.874 231.205 34.7759C231.488 34.1919 231.946 33.0249 232.752 33.0629C233.523 33.0979 233.992 34.1449 234.193 34.7629C234.76 36.8977 234.975 39.1107 234.83 41.3149C234.677 43.8162 234.882 46.3266 235.44 48.7699C235.497 48.9648 235.629 49.1294 235.806 49.2282C235.984 49.327 236.193 49.3521 236.389 49.298C236.585 49.244 236.752 49.1152 236.854 48.9393C236.956 48.7635 236.984 48.5547 236.934 48.3579C236.398 45.8929 236.213 43.3646 236.384 40.8479C236.403 38.4869 236.409 35.8669 235.424 33.6719C235.25 33.2162 234.985 32.8007 234.645 32.4506C234.306 32.1004 233.899 31.8229 233.449 31.6349C233 31.4982 232.521 31.4937 232.069 31.6219C231.618 31.7501 231.213 32.0056 230.903 32.3579C230.199 33.2375 229.646 34.2284 229.269 35.2899C228.761 36.4389 228.295 37.6059 227.879 38.7899C226.909 41.5621 226.211 44.4218 225.794 47.3289C226.301 47.3955 226.808 47.4639 227.315 47.5339C226.666 38.7139 229.67 29.9549 227.999 21.1629C227.813 20.1849 226.319 20.5989 226.505 21.5749"
            fill="#5FCBA9" />
        <path
            d="M241.52 40.4948C243.768 40.5922 246.015 40.6882 248.263 40.7828C249.32 40.8288 250.383 40.9028 251.441 40.9158C252.219 40.975 252.997 40.7987 253.673 40.4099C255.167 39.3969 254.616 37.3029 253.799 36.0249C252.961 34.7456 251.71 33.791 250.255 33.3189C248.702 32.8686 247.04 32.9643 245.548 33.5898C244.056 34.2153 242.824 35.3331 242.055 36.7569C241.109 38.3292 240.765 40.1912 241.086 41.9978C241.267 42.7782 241.604 43.5135 242.079 44.1585C242.554 44.8035 243.155 45.3447 243.846 45.7488C247.676 48.1218 252.104 46.4098 255.846 44.7838C256.758 44.3838 255.97 43.0528 255.064 43.4468C252.256 44.6648 249.052 46.0468 245.97 45.0398C244.81 44.6943 243.803 43.9608 243.118 42.9619C242.76 42.3148 242.551 41.5962 242.505 40.8582C242.459 40.1202 242.578 39.3812 242.853 38.6948C243.234 37.4727 244.001 36.4073 245.04 35.659C246.078 34.9107 247.332 34.5201 248.611 34.5458C249.826 34.656 250.965 35.184 251.833 36.0398C252.367 36.5668 253.783 38.5399 252.76 39.1559C252.097 39.403 251.378 39.4659 250.681 39.3378C249.665 39.2938 248.647 39.2502 247.627 39.2068L241.521 38.9448C240.521 38.9029 240.521 40.4518 241.521 40.4938"
            fill="#5FCBA9" />
        <path
            d="M265.817 22.6969C264.274 30.5999 263.431 38.6237 263.297 46.6749C263.304 46.8754 263.389 47.0654 263.533 47.2048C263.678 47.3441 263.871 47.422 264.071 47.422C264.272 47.422 264.465 47.3441 264.609 47.2048C264.754 47.0654 264.839 46.8754 264.846 46.6749C264.973 38.7623 265.798 30.8764 267.311 23.1089C267.5 22.1349 266.011 21.7169 265.817 22.6969Z"
            fill="#5FCBA9" />
        <path
            d="M272.363 32.9139C272.593 42.0999 273.015 51.2772 273.627 60.4459C273.692 61.4359 275.241 61.4459 275.176 60.4459C274.564 51.2792 274.143 42.1019 273.912 32.9139C273.905 32.7133 273.82 32.5233 273.676 32.3839C273.531 32.2446 273.339 32.1667 273.138 32.1667C272.937 32.1667 272.744 32.2446 272.6 32.3839C272.455 32.5233 272.37 32.7133 272.363 32.9139Z"
            fill="#5FCBA9" />
        <path
            d="M274.298 37.8509C274.582 37.214 275.017 36.6566 275.567 36.2279C276.117 35.7993 276.763 35.5125 277.45 35.3929C278.137 35.2733 278.843 35.3246 279.505 35.5423C280.167 35.7599 280.765 36.1372 281.247 36.6409C281.696 37.2092 282.012 37.8713 282.17 38.5781C282.328 39.2849 282.325 40.0183 282.161 40.7239C281.999 41.4539 281.648 42.1285 281.143 42.68C280.638 43.2315 279.997 43.6405 279.284 43.8659C278.45 44.1493 277.557 44.2167 276.689 44.0617C275.822 43.9068 275.007 43.5346 274.322 42.9798C273.57 42.3308 272.469 43.4219 273.222 44.0799C276.431 46.8539 281.995 45.9188 283.476 41.7368C283.797 40.8084 283.9 39.8188 283.779 38.8441C283.658 37.8694 283.315 36.9354 282.776 36.1139C282.233 35.3166 281.484 34.6803 280.61 34.2718C279.736 33.8633 278.768 33.6975 277.807 33.7918C276.714 33.8634 275.663 34.2446 274.777 34.8909C273.892 35.5372 273.209 36.4219 272.807 37.4419C272.755 37.6399 272.782 37.8506 272.883 38.0288C272.984 38.2069 273.151 38.3384 273.348 38.3949C273.546 38.4452 273.756 38.417 273.934 38.3161C274.111 38.2153 274.243 38.0496 274.301 37.8539"
            fill="#5FCBA9" />
        <path
            d="M259.031 69.5849C255.84 69.8988 252.741 70.8283 249.905 72.3219C249.023 72.7889 249.805 74.1219 250.687 73.6609C253.28 72.2895 256.113 71.4315 259.032 71.1339C259.235 71.1276 259.429 71.0439 259.573 70.8999C259.717 70.7559 259.8 70.5624 259.807 70.3589C259.806 70.1536 259.724 69.9571 259.579 69.812C259.433 69.6669 259.237 69.5849 259.032 69.5839"
            fill="#A5613C" />
        <path
            d="M259.031 69.5849C255.84 69.8988 252.741 70.8283 249.905 72.3219C249.023 72.7889 249.805 74.1219 250.687 73.6609C253.28 72.2895 256.113 71.4315 259.032 71.1339C259.235 71.1276 259.429 71.0439 259.573 70.8999C259.717 70.7559 259.8 70.5624 259.807 70.3589C259.805 70.1536 259.723 69.9572 259.578 69.8123C259.433 69.6674 259.236 69.5856 259.031 69.5849Z"
            stroke="#E5A37F" stroke-width="0.5" stroke-miterlimit="10" />
        <path
            d="M250.342 65.4719C251.878 64.5187 253.605 63.9169 255.401 63.7094C257.196 63.502 259.016 63.694 260.729 64.2718C261.677 64.5898 262.082 63.0939 261.141 62.7779C259.229 62.1429 257.201 61.9348 255.2 62.1682C253.199 62.4017 251.274 63.0709 249.56 64.1288C248.715 64.6558 249.493 65.9958 250.342 65.4678"
            fill="#A5613C" />
        <path
            d="M250.342 65.4719C251.878 64.5187 253.605 63.9169 255.401 63.7094C257.196 63.502 259.016 63.694 260.729 64.2718C261.677 64.5898 262.082 63.0939 261.141 62.7779C259.229 62.1429 257.201 61.9348 255.2 62.1682C253.199 62.4017 251.274 63.0709 249.56 64.1288C248.715 64.6598 249.493 65.9999 250.342 65.4719Z"
            stroke="#E5A37F" stroke-width="0.5" stroke-miterlimit="10" />
        <path
            d="M269.107 59.1959C265.375 57.0145 261.171 55.7671 256.853 55.5599C252.535 55.3527 248.231 56.1918 244.307 58.0059C243.407 58.4289 244.19 59.7639 245.089 59.3429C248.773 57.6611 252.808 56.8914 256.853 57.0989C260.898 57.3064 264.833 58.4849 268.326 60.5349C268.503 60.6284 268.709 60.65 268.901 60.5951C269.094 60.5402 269.258 60.4131 269.359 60.2402C269.46 60.0674 269.49 59.8622 269.443 59.6676C269.396 59.473 269.276 59.304 269.108 59.1959"
            fill="#A5613C" />
        <path
            d="M269.107 59.1959C265.375 57.0145 261.171 55.7671 256.853 55.5599C252.535 55.3527 248.231 56.1918 244.307 58.0059C243.407 58.4289 244.19 59.7639 245.089 59.3429C248.773 57.6611 252.808 56.8914 256.853 57.0989C260.898 57.3064 264.833 58.4849 268.326 60.5349C268.503 60.6266 268.708 60.6469 268.899 60.5915C269.091 60.5361 269.253 60.4092 269.354 60.2371C269.454 60.065 269.484 59.861 269.438 59.6671C269.392 59.4733 269.274 59.3046 269.107 59.1959Z"
            stroke="#E5A37F" stroke-width="0.5" stroke-miterlimit="10" />
        <path
            d="M242.367 56.6939C247.767 61.6519 248.629 69.3319 249.309 76.2179C249.409 77.2009 250.957 77.2119 250.858 76.2179C250.137 68.9179 249.185 60.8499 243.458 55.5979C242.726 54.9259 241.626 56.0189 242.363 56.6979"
            fill="#A5613C" />
        <path
            d="M242.367 56.6939C247.767 61.6519 248.629 69.3319 249.309 76.2179C249.409 77.2009 250.957 77.2119 250.858 76.2179C250.137 68.9179 249.185 60.8499 243.458 55.5979C242.73 54.9249 241.63 56.0179 242.367 56.6939Z"
            stroke="#E5A37F" stroke-width="0.5" stroke-miterlimit="10" />
        <path
            d="M232.783 94.8518C235.099 96.7807 237.795 98.2008 240.696 99.0198C240.893 99.0705 241.101 99.0418 241.277 98.9399C241.453 98.8381 241.582 98.6712 241.636 98.4753C241.69 98.2794 241.665 98.0701 241.566 97.8925C241.467 97.7149 241.303 97.5833 241.108 97.5258C238.461 96.7894 235.998 95.505 233.879 93.7558C233.73 93.6152 233.533 93.5368 233.329 93.5368C233.124 93.5368 232.927 93.6152 232.779 93.7558C232.634 93.9023 232.553 94.0999 232.553 94.3058C232.553 94.5118 232.634 94.7094 232.779 94.8559"
            fill="#A5613C" />
        <path
            d="M232.783 94.8518C235.099 96.7807 237.795 98.2008 240.696 99.0198C240.893 99.0705 241.101 99.0418 241.277 98.9399C241.453 98.8381 241.582 98.6712 241.636 98.4753C241.69 98.2794 241.665 98.0701 241.566 97.8925C241.467 97.7149 241.303 97.5833 241.108 97.5258C238.461 96.7894 235.998 95.505 233.879 93.7558C233.73 93.6152 233.533 93.5368 233.329 93.5368C233.124 93.5368 232.927 93.6152 232.779 93.7558C232.636 93.9026 232.556 94.0997 232.557 94.3047C232.557 94.5096 232.639 94.7061 232.783 94.8518Z"
            stroke="#E5A37F" stroke-width="0.5" stroke-miterlimit="10" />
        <path
            d="M225.861 180.794C227.273 177.68 229.699 175.136 232.743 173.578C233.632 173.124 232.849 171.787 231.961 172.241C228.681 173.926 226.062 176.662 224.522 180.013C224.425 180.192 224.4 180.401 224.452 180.598C224.504 180.794 224.629 180.964 224.801 181.072C224.979 181.174 225.19 181.201 225.388 181.149C225.586 181.097 225.756 180.97 225.861 180.794Z"
            fill="#A5613C" />
        <path
            d="M225.861 180.794C227.273 177.68 229.699 175.136 232.743 173.578C233.632 173.124 232.849 171.787 231.961 172.241C228.681 173.926 226.062 176.662 224.522 180.013C224.425 180.192 224.4 180.401 224.452 180.598C224.504 180.794 224.629 180.964 224.801 181.072C224.979 181.174 225.19 181.202 225.388 181.15C225.587 181.098 225.756 180.97 225.861 180.794Z"
            stroke="#E5A37F" stroke-width="0.5" stroke-miterlimit="10" />
        <path
            d="M221.669 176.676C223.27 173.535 225.935 171.066 229.19 169.71C229.384 169.65 229.548 169.518 229.649 169.341C229.749 169.163 229.779 168.955 229.731 168.757C229.675 168.56 229.543 168.392 229.365 168.291C229.187 168.19 228.976 168.163 228.778 168.216C225.138 169.686 222.143 172.409 220.333 175.892C219.88 176.778 221.217 177.561 221.672 176.674"
            fill="#A5613C" />
        <path
            d="M221.668 176.676C223.269 173.535 225.935 171.066 229.189 169.71C229.383 169.65 229.548 169.518 229.648 169.341C229.749 169.163 229.778 168.955 229.73 168.757C229.674 168.56 229.542 168.392 229.364 168.291C229.186 168.19 228.975 168.163 228.777 168.216C225.137 169.686 222.142 172.409 220.332 175.892C219.876 176.781 221.213 177.564 221.668 176.676Z"
            stroke="#E5A37F" stroke-width="0.5" stroke-miterlimit="10" />
        <path
            d="M218.676 171.833C221.231 169.217 224.286 167.142 227.661 165.733C227.855 165.673 228.019 165.541 228.12 165.364C228.22 165.186 228.25 164.978 228.202 164.78C228.146 164.583 228.014 164.415 227.836 164.314C227.658 164.213 227.447 164.186 227.249 164.239C223.622 165.731 220.333 167.939 217.58 170.732C216.88 171.445 217.98 172.541 218.68 171.832"
            fill="#A5613C" />
        <path
            d="M218.676 171.833C221.231 169.217 224.287 167.142 227.661 165.733C227.855 165.673 228.02 165.541 228.12 165.364C228.221 165.186 228.25 164.978 228.202 164.78C228.146 164.583 228.015 164.415 227.836 164.314C227.658 164.213 227.447 164.186 227.249 164.239C223.622 165.731 220.333 167.939 217.58 170.732C216.881 171.45 217.975 172.546 218.676 171.833Z"
            stroke="#E5A37F" stroke-width="0.5" stroke-miterlimit="10" />
        <path
            d="M227.169 164.355C229.497 168.256 231.825 172.156 234.154 176.055C234.262 176.224 234.431 176.345 234.626 176.392C234.821 176.439 235.026 176.409 235.199 176.308C235.372 176.206 235.499 176.042 235.554 175.849C235.608 175.656 235.586 175.45 235.491 175.273C233.164 171.372 230.837 167.472 228.51 163.573C228.404 163.401 228.234 163.277 228.038 163.228C227.842 163.179 227.634 163.209 227.459 163.311C227.284 163.413 227.156 163.579 227.102 163.774C227.048 163.969 227.073 164.178 227.17 164.355"
            fill="#A5613C" />
        <path
            d="M227.168 164.355C229.496 168.256 231.824 172.156 234.153 176.055C234.261 176.224 234.43 176.345 234.625 176.392C234.82 176.439 235.025 176.409 235.198 176.308C235.371 176.206 235.498 176.042 235.553 175.849C235.607 175.656 235.585 175.45 235.49 175.273C233.163 171.372 230.836 167.472 228.509 163.573C228.405 163.395 228.235 163.266 228.036 163.213C227.837 163.161 227.626 163.19 227.448 163.293C227.27 163.397 227.141 163.567 227.088 163.766C227.036 163.965 227.064 164.177 227.168 164.355Z"
            stroke="#E5A37F" stroke-width="0.5" stroke-miterlimit="10" />
        <path
            d="M279.543 172.152V176.845C279.54 176.949 279.557 177.053 279.594 177.15C279.631 177.247 279.688 177.336 279.76 177.411C279.832 177.486 279.919 177.545 280.015 177.586C280.111 177.627 280.214 177.648 280.318 177.648C280.422 177.648 280.525 177.627 280.621 177.586C280.717 177.545 280.803 177.486 280.876 177.411C280.948 177.336 281.004 177.247 281.042 177.15C281.079 177.053 281.096 176.949 281.092 176.845V172.152C281.085 171.951 281.001 171.761 280.856 171.622C280.712 171.483 280.519 171.405 280.318 171.405C280.117 171.405 279.924 171.483 279.78 171.622C279.635 171.761 279.551 171.951 279.543 172.152Z"
            fill="#A5613C" />
        <path
            d="M279.543 172.152V176.845C279.54 176.949 279.557 177.053 279.594 177.15C279.631 177.247 279.688 177.336 279.76 177.411C279.832 177.486 279.919 177.545 280.015 177.586C280.111 177.627 280.214 177.648 280.318 177.648C280.422 177.648 280.525 177.627 280.621 177.586C280.717 177.545 280.803 177.486 280.876 177.411C280.948 177.336 281.004 177.247 281.042 177.15C281.079 177.053 281.096 176.949 281.092 176.845V172.152C281.085 171.951 281.001 171.761 280.856 171.622C280.712 171.483 280.519 171.405 280.318 171.405C280.117 171.405 279.924 171.483 279.78 171.622C279.635 171.761 279.551 171.951 279.543 172.152Z"
            stroke="#E5A37F" stroke-width="0.5" stroke-miterlimit="10" />
        <path
            d="M178.919 160.42C178.753 163.822 179.363 167.218 180.704 170.35C182.044 173.482 184.079 176.268 186.654 178.497C189.398 180.824 192.582 182.575 196.016 183.646C199.451 184.717 203.065 185.086 206.645 184.732C207.069 184.717 207.485 184.61 207.863 184.419C208.288 184.11 208.614 183.685 208.8 183.194C210.36 180.001 211.92 176.807 213.482 173.612C207.003 174.353 200.464 171.681 195.672 167.6C190.88 163.519 187.619 158.148 184.919 152.675L178.919 160.42Z"
            fill="#999999" />
        <path
            d="M333.451 157.896C336.634 157.192 339.835 156.58 343.056 156.06C343.657 155.919 344.282 155.913 344.886 156.041C345.581 156.312 346.192 156.76 346.66 157.341C351.275 162.154 355.935 167.033 359.252 172.819C362.569 178.605 364.457 185.476 363.084 191.996C363.051 192.334 362.895 192.647 362.645 192.877C362.437 192.998 362.202 193.065 361.961 193.07C357.432 193.528 352.866 193.471 348.35 192.902C348.399 189.323 347.998 185.752 347.156 182.273C346.235 177.629 345.301 172.943 343.391 168.613C341.481 164.283 337.333 161.133 333.168 158.884L333.451 157.896Z"
            fill="#999999" />
        <path
            d="M339.161 157.365C345.362 154.466 352.045 152.736 358.874 152.26C359.862 152.191 359.874 150.642 358.874 150.711C351.773 151.205 344.825 153.007 338.379 156.027C337.479 156.45 338.262 157.786 339.161 157.366"
            fill="#999999" />
        <path
            d="M354.273 147.866C352.773 149.066 351.273 150.266 349.773 151.466C349.627 151.612 349.545 151.81 349.545 152.016C349.545 152.222 349.627 152.42 349.773 152.566C349.921 152.705 350.117 152.783 350.32 152.783C350.524 152.783 350.719 152.705 350.868 152.566L355.368 148.966C355.513 148.82 355.595 148.622 355.595 148.416C355.595 148.21 355.513 148.012 355.368 147.866C355.219 147.725 355.022 147.647 354.818 147.647C354.613 147.647 354.416 147.725 354.268 147.866"
            fill="#999999" />
        <path
            d="M329.983 140.438C327.732 133.947 327.394 127.025 326.876 120.238C326.33 113.059 325.742 105.883 325.24 98.7019C324.902 94.7155 324.846 90.7102 325.072 86.7159C325.143 85.7219 323.592 85.7259 323.523 86.7159C323.007 93.9429 323.877 101.228 324.423 108.431C324.959 115.471 325.323 122.549 326.123 129.564C326.491 133.403 327.284 137.19 328.487 140.855C328.812 141.79 330.31 141.389 329.981 140.443"
            fill="#999999" />
        <path
            d="M208.837 94.5158C211.009 98.5963 212.442 103.03 213.067 107.61C213.122 107.807 213.254 107.975 213.432 108.076C213.611 108.178 213.822 108.204 214.02 108.151C214.215 108.092 214.38 107.961 214.481 107.784C214.581 107.607 214.61 107.398 214.561 107.2C213.906 102.487 212.421 97.9283 210.176 93.7338C209.706 92.8528 208.367 93.6338 208.837 94.5158Z"
            fill="#999999" />
        <path
            d="M296.576 107.979C304.509 107.429 312.442 106.878 320.376 106.327C321.364 106.26 321.376 104.709 320.376 104.778L296.576 106.43C295.588 106.499 295.576 108.048 296.576 107.979Z"
            fill="#999999" />
        <path
            d="M300.034 153.993C308.702 154.085 317.368 153.655 325.984 152.704C326.965 152.596 326.976 151.045 325.984 151.155C317.368 152.106 308.702 152.536 300.034 152.444C299.834 152.451 299.644 152.536 299.504 152.68C299.365 152.825 299.287 153.018 299.287 153.218C299.287 153.419 299.365 153.612 299.504 153.756C299.644 153.901 299.834 153.986 300.034 153.993Z"
            fill="#999999" />
        <path
            d="M294.717 117.444C296.058 120.183 297.238 122.997 298.254 125.873C299.363 128.751 300.158 131.74 300.624 134.789C301.014 137.608 300.625 140.481 299.499 143.095C298.337 145.593 296.723 147.855 294.737 149.765C292.381 151.995 289.859 154.043 287.192 155.89C286.392 156.472 287.167 157.816 287.974 157.227C292.752 153.738 297.746 150.058 300.474 144.646C301.8 142.054 302.43 139.162 302.301 136.254C302.033 132.996 301.321 129.79 300.184 126.726C299.033 123.284 297.655 119.922 296.059 116.663C295.62 115.763 294.284 116.552 294.72 117.445"
            fill="#24282F" />
        <path
            d="M227.446 137.811C226.818 144.477 226.369 151.943 231.128 157.317C232.073 158.398 233.214 159.291 234.49 159.95C234.773 160.093 235.065 160.221 235.358 160.341C235.784 160.516 235.952 160.546 235.958 161.032C235.945 161.802 236.001 162.572 236.124 163.332C236.412 164.94 237.085 166.454 238.086 167.744C239.087 169.035 240.387 170.064 241.872 170.743C243.358 171.421 244.986 171.73 246.617 171.642C248.248 171.554 249.834 171.072 251.238 170.237C251.409 170.13 251.532 169.961 251.58 169.765C251.628 169.569 251.598 169.362 251.496 169.188C251.394 169.013 251.228 168.886 251.034 168.832C250.839 168.778 250.632 168.803 250.455 168.9C249.228 169.629 247.839 170.041 246.412 170.097C244.986 170.154 243.569 169.853 242.288 169.224C241.008 168.594 239.905 167.654 239.079 166.49C238.253 165.326 237.732 163.974 237.561 162.557C237.471 161.857 237.591 161.135 237.471 160.447C237.404 160.102 237.243 159.783 237.007 159.524C236.77 159.266 236.466 159.077 236.129 158.981C234.92 158.5 233.815 157.79 232.875 156.891C230.945 154.934 229.629 152.456 229.089 149.761C228.223 145.839 228.627 141.761 229.001 137.806C229.095 136.814 227.546 136.821 227.452 137.806"
            fill="#24282F" />
        <path
            d="M27.9906 217.985C24.8256 220.385 21.3506 223.039 20.1586 227.016C19.1086 230.516 20.0666 234.648 23.5646 236.333C25.5775 237.189 27.7797 237.503 29.9516 237.242C30.9386 237.17 30.9516 235.619 29.9516 235.693C26.8886 235.921 23.0056 235.544 21.7166 232.243C20.4836 229.081 21.9676 225.697 24.1166 223.343C25.544 221.864 27.1035 220.519 28.7756 219.324C29.5606 218.724 28.7896 217.382 27.9936 217.985"
            fill="#C1C1C1" />
        <path
            d="M45.7394 236.52H415.116C415.317 236.513 415.507 236.428 415.646 236.283C415.786 236.139 415.864 235.946 415.864 235.745C415.864 235.545 415.786 235.352 415.646 235.207C415.507 235.063 415.317 234.978 415.116 234.971H45.7394C45.5388 234.978 45.3488 235.063 45.2094 235.207C45.0701 235.352 44.9922 235.545 44.9922 235.745C44.9922 235.946 45.0701 236.139 45.2094 236.283C45.3488 236.428 45.5388 236.513 45.7394 236.52Z"
            fill="#C1C1C1" />
        <path
            d="M430.15 234.94C433.128 234.804 436.04 234.014 438.679 232.627C441.317 231.239 443.618 229.288 445.418 226.912C446.018 226.112 444.675 225.343 444.081 226.13C442.427 228.28 440.323 230.044 437.917 231.298C435.511 232.552 432.86 233.266 430.15 233.391C429.156 233.432 429.15 234.982 430.15 234.94Z"
            fill="#C1C1C1" />
        <path
            d="M172.604 171.667C174.95 167.984 177.587 164.494 180.489 161.23C181.15 160.487 180.058 159.389 179.389 160.135C176.399 163.497 173.682 167.092 171.262 170.885C170.724 171.728 172.062 172.507 172.601 171.667"
            fill="#999999" />
        <path
            d="M337.461 141.955L340.797 148.011C341.278 148.885 342.615 148.105 342.134 147.229L338.799 141.173C338.316 140.299 336.979 141.079 337.46 141.955"
            fill="#999999" />
        <path
            d="M341.427 139.185C341.934 140.252 342.442 141.316 342.951 142.377C343.056 142.554 343.226 142.682 343.424 142.734C343.623 142.786 343.834 142.758 344.012 142.655C344.185 142.548 344.311 142.378 344.363 142.181C344.414 141.984 344.388 141.774 344.29 141.596C343.781 140.529 343.273 139.465 342.766 138.404C342.661 138.227 342.491 138.099 342.293 138.046C342.094 137.994 341.883 138.023 341.705 138.126C341.531 138.233 341.406 138.403 341.354 138.6C341.302 138.797 341.328 139.006 341.427 139.185Z"
            fill="#999999" />
        <path
            d="M341.737 131.315C342.133 132.238 342.528 133.161 342.923 134.084C343.025 134.258 343.191 134.385 343.386 134.439C343.584 134.493 343.795 134.467 343.974 134.365C344.153 134.264 344.284 134.096 344.339 133.898C344.382 133.695 344.355 133.483 344.261 133.298C343.865 132.375 343.469 131.452 343.075 130.529C342.972 130.354 342.806 130.227 342.612 130.172C342.409 130.119 342.193 130.148 342.012 130.252C341.838 130.354 341.711 130.52 341.657 130.714C341.613 130.917 341.641 131.129 341.735 131.314"
            fill="#999999" />
        <path
            d="M311.65 134.291L311.231 135.867C311.178 136.069 311.206 136.284 311.309 136.467C311.413 136.644 311.582 136.773 311.781 136.825C311.98 136.877 312.191 136.848 312.368 136.745C312.541 136.641 312.668 136.475 312.725 136.282L313.144 134.706C313.171 134.608 313.179 134.505 313.166 134.404C313.154 134.303 313.121 134.206 313.071 134.117C313.021 134.029 312.954 133.951 312.873 133.888C312.793 133.826 312.701 133.78 312.603 133.753C312.401 133.698 312.185 133.726 312.003 133.831C311.831 133.936 311.705 134.101 311.648 134.294"
            fill="#999999" />
        <path
            d="M313.947 134.88C313.856 135.829 314.035 136.784 314.465 137.635C314.569 137.811 314.739 137.94 314.937 137.992C315.136 138.044 315.347 138.015 315.524 137.913C315.698 137.806 315.824 137.636 315.876 137.438C315.928 137.24 315.901 137.03 315.802 136.852C315.765 136.778 315.731 136.702 315.702 136.624C315.729 136.686 315.753 136.748 315.78 136.81C315.634 136.461 315.534 136.095 315.48 135.721C315.489 135.79 315.499 135.859 315.508 135.926C315.462 135.579 315.458 135.228 315.497 134.881C315.497 134.779 315.478 134.678 315.439 134.584C315.4 134.49 315.343 134.405 315.271 134.333C315.199 134.261 315.113 134.203 315.019 134.164C314.924 134.125 314.823 134.105 314.721 134.105C314.619 134.105 314.518 134.125 314.423 134.164C314.329 134.203 314.243 134.261 314.171 134.333C314.036 134.485 313.956 134.678 313.945 134.881"
            fill="#999999" />
        <path
            d="M185.373 138.016C188.105 138.186 190.846 137.916 193.491 137.216C193.684 137.157 193.845 137.025 193.942 136.849C194.039 136.672 194.064 136.465 194.01 136.271C193.957 136.077 193.83 135.911 193.657 135.809C193.483 135.707 193.277 135.676 193.081 135.724C190.568 136.384 187.966 136.635 185.373 136.467C185.269 136.463 185.165 136.48 185.068 136.518C184.971 136.555 184.882 136.611 184.807 136.684C184.732 136.756 184.673 136.843 184.632 136.938C184.591 137.034 184.57 137.137 184.57 137.241C184.57 137.345 184.591 137.449 184.632 137.544C184.673 137.64 184.732 137.727 184.807 137.799C184.882 137.871 184.971 137.928 185.068 137.965C185.165 138.002 185.269 138.02 185.373 138.016Z"
            fill="#999999" />
        <path
            d="M185.539 140.93C187.84 141.269 190.172 141.344 192.49 141.151C192.693 141.145 192.887 141.061 193.031 140.917C193.175 140.773 193.258 140.579 193.265 140.376C193.263 140.171 193.181 139.975 193.036 139.83C192.891 139.685 192.695 139.602 192.49 139.601C190.311 139.796 188.117 139.74 185.951 139.435C185.753 139.387 185.544 139.416 185.367 139.517C185.19 139.617 185.058 139.781 184.998 139.976C184.944 140.174 184.971 140.385 185.072 140.564C185.174 140.742 185.341 140.874 185.539 140.93Z"
            fill="#999999" />
        <path
            d="M352.726 59.0389L354.837 54.6009C355.979 52.1954 357.799 50.1759 360.073 48.7902C362.347 47.4046 364.976 46.7131 367.637 46.8009C368.966 46.8451 370.282 46.5294 371.445 45.887C372.609 45.2446 373.578 44.2995 374.248 43.1517C374.919 42.0039 375.266 40.6962 375.255 39.367C375.243 38.0377 374.872 36.7364 374.181 35.6009C373.49 34.4653 372.504 33.5377 371.329 32.9162C370.154 32.2947 368.833 32.0026 367.506 32.0706C366.178 32.1387 364.894 32.5644 363.788 33.3027C362.683 34.0411 361.798 35.0646 361.226 36.2649L359.87 39.1169L350.361 34.5949L351.719 31.7409C353.106 28.8265 355.255 26.3413 357.939 24.5484C360.623 22.7556 363.742 21.7217 366.965 21.5562C370.188 21.3908 373.396 22.0999 376.249 23.6086C379.103 25.1172 381.495 27.3693 383.173 30.1264C384.851 32.8834 385.752 36.0429 385.782 39.2703C385.811 42.4977 384.967 45.673 383.339 48.4601C381.712 51.2471 379.361 53.5422 376.535 55.1024C373.71 56.6626 370.515 57.4298 367.289 57.3229C366.677 57.3038 366.072 57.464 365.55 57.7838C365.027 58.1035 364.609 58.5689 364.347 59.1229L362.236 63.5609L352.726 59.0389Z"
            fill="#F59F18" />
        <path
            d="M353.865 68.9078C354.805 69.355 355.592 70.071 356.125 70.9651C356.658 71.8593 356.914 72.8915 356.861 73.9312C356.808 74.9709 356.447 75.9715 355.825 76.8064C355.203 77.6413 354.348 78.2729 353.367 78.6216C352.386 78.9702 351.323 79.0201 350.314 78.765C349.305 78.5099 348.393 77.9612 347.696 77.1883C346.998 76.4154 346.546 75.453 346.395 74.4229C346.245 73.3927 346.403 72.3411 346.85 71.4008C347.147 70.7765 347.564 70.2168 348.077 69.7536C348.59 69.2904 349.19 68.9329 349.841 68.7014C350.493 68.4699 351.183 68.369 351.874 68.4044C352.564 68.4398 353.241 68.6109 353.865 68.9078Z"
            fill="#F59F18" />
        <path d="M176.3 100.473L172.928 102.997L175.451 106.368L178.823 103.845L176.3 100.473Z"
            fill="#F59F18" />
        <path
            d="M173.775 97.1008L170.403 99.6238L167.733 96.0569C166.926 94.9668 166.434 93.6751 166.313 92.3238C166.192 90.9726 166.446 89.6141 167.047 88.3979C167.461 87.5427 167.574 86.5727 167.367 85.6455C167.16 84.7182 166.646 83.8881 165.907 83.2901C165.169 82.692 164.25 82.3611 163.3 82.3511C162.35 82.3411 161.425 82.6525 160.674 83.2349C159.803 83.9337 159.239 84.9451 159.103 86.0536C158.967 87.1621 159.269 88.28 159.945 89.1688L161.145 90.7689L157.773 93.2938L156.573 91.6939C155.239 89.9191 154.651 87.6934 154.935 85.4914C155.219 83.2894 156.352 81.2854 158.092 79.9068C159.594 78.7436 161.444 78.1218 163.343 78.1424C165.243 78.1629 167.079 78.8247 168.555 80.0203C170.031 81.2159 171.06 82.8751 171.474 84.7287C171.889 86.5823 171.664 88.5216 170.838 90.2318C170.575 90.7531 170.46 91.3369 170.507 91.9191C170.553 92.5013 170.76 93.0594 171.103 93.5318L173.775 97.1008Z"
            fill="#F59F18" />
        <path d="M369.886 87.3716L365.531 90.0489L368.345 94.6252L372.7 91.948L369.886 87.3716Z"
            fill="#F59F18" />
        <path
            d="M377.055 89.2719L374.242 84.6959L378.85 81.8629C380.29 81.0089 381.941 80.5776 383.614 80.6183C385.288 80.659 386.916 81.17 388.312 82.0929C389.111 82.6141 390.04 82.8999 390.994 82.9176C391.947 82.9353 392.887 82.6841 393.704 82.1929C394.288 81.8327 394.79 81.3555 395.18 80.7913C395.57 80.2271 395.839 79.5881 395.969 78.9149C396.251 77.5141 395.973 76.0588 395.196 74.8599C394.458 73.6828 393.289 72.8407 391.939 72.5134C390.589 72.1861 389.164 72.3994 387.969 73.1079L385.902 74.3719L383.089 69.7959L385.158 68.5229C387.543 67.131 390.378 66.7259 393.057 67.3939C395.737 68.0619 398.05 69.7502 399.502 72.0989C401.054 74.4969 401.608 77.4065 401.044 80.2069C400.784 81.5528 400.247 82.8302 399.468 83.9582C398.689 85.0861 397.684 86.0401 396.517 86.7599C394.884 87.7443 393.008 88.2488 391.101 88.2158C389.195 88.1827 387.337 87.6133 385.739 86.5729C385.141 86.1699 384.441 85.9435 383.72 85.9195C382.999 85.8954 382.285 86.0747 381.661 86.4368L377.055 89.2719Z"
            fill="#F59F18" />
        <path
            d="M329.463 51.2719H318.973L316.1 0.422852H332.395L329.463 51.2719ZM332.298 63.1319C332.306 64.2247 332.09 65.3076 331.661 66.3129C331.256 67.2686 330.674 68.1393 329.946 68.8789C329.21 69.6025 328.347 70.1839 327.4 70.5938C326.421 71.0209 325.363 71.2379 324.295 71.2309C323.208 71.2358 322.132 71.0191 321.133 70.5938C320.182 70.1799 319.314 69.599 318.569 68.8789C317.831 68.1423 317.242 67.2713 316.833 66.3129C316.404 65.3076 316.187 64.2247 316.196 63.1319C316.185 62.0634 316.402 61.0048 316.833 60.0269C317.247 59.0772 317.836 58.2139 318.569 57.4818C319.313 56.7605 320.182 56.1789 321.133 55.7649C322.131 55.334 323.208 55.117 324.295 55.1279C325.363 55.1168 326.422 55.334 327.4 55.7649C328.343 56.1804 329.204 56.7624 329.941 57.4829C330.666 58.216 331.249 59.0772 331.661 60.0229C332.087 61.002 332.304 62.0597 332.298 63.1279"
            fill="#5FCBA9" />
    </g>
</svg>