<svg width="295" height="421" viewBox="0 0 295 421" fill="none" xmlns="http://www.w3.org/2000/svg">
    <mask id="mask0_251_8807" style="mask-type:luminance" maskUnits="userSpaceOnUse" x="0" y="-1"
        width="295" height="422">
        <path d="M294.811 -0.00897217H0.810547V420.991H294.811V-0.00897217Z" fill="white" />
    </mask>
    <g mask="url(#mask0_251_8807)">
        <mask id="mask1_251_8807" style="mask-type:luminance" maskUnits="userSpaceOnUse" x="9"
            y="-1" width="286" height="603">
            <path d="M294.385 -0.441589H9.23633V601.485H294.385V-0.441589Z" fill="white" />
        </mask>
        <g mask="url(#mask1_251_8807)">
            <mask id="mask2_251_8807" style="mask-type:luminance" maskUnits="userSpaceOnUse" x="9"
                y="-1" width="286" height="603">
                <path d="M294.385 -0.442596H9.23633V601.485H294.385V-0.442596Z" fill="white" />
            </mask>
            <g mask="url(#mask2_251_8807)">
                <path
                    d="M222.64 73.5094C223.233 76.3306 222.849 79.2698 221.55 81.8434C220.506 83.6156 219.357 85.3239 218.11 86.9594C216.856 88.6099 216.147 90.6091 216.081 92.6804C216.148 94.7364 217.51 96.8594 219.536 97.2144C216.285 99.4384 211.873 100.681 208.436 98.7624C205.236 96.9784 203.911 93.1004 203.23 89.5034C202.409 85.1609 202.142 80.732 202.436 76.3224L222.64 73.5094Z"
                    fill="black" />
                <path
                    d="M160.621 32.0514C159.393 32.9794 159.321 34.7664 159.37 36.3054C159.535 42.1308 159.701 47.9554 159.87 53.7794C162.434 45.2936 165.553 36.9857 169.208 28.9094L160.621 32.0514Z"
                    fill="black" />
                <path
                    d="M241.069 278.125C246.955 297.701 256.837 387.871 258.008 397.125C264.808 450.897 281.895 501.674 267.691 574.173C261.97 569.633 255.201 566.599 248.004 565.351C240.807 564.102 233.412 564.679 226.496 567.027C226.369 553.938 226.273 540.627 229.952 528.065C231.075 524.229 232.558 520.415 232.614 516.418C232.554 513.91 232.211 511.417 231.59 508.986C223.937 473.486 204.335 420.86 196.681 385.359C199.358 417.204 187.926 530.564 187.414 535.944C186.662 543.818 187.565 551.744 188.468 559.603C174.877 550.714 156.12 555.676 141.395 548.829C145.839 533.829 138.208 324.942 140.861 279.291C156.709 277.825 172.466 275.625 188.133 272.691C197.176 270.998 206.264 269.054 215.462 269.215C224.66 269.376 234.162 271.864 241.001 278.015L241.069 278.125Z"
                    fill="#999999" />
                <path
                    d="M186.765 105.382C193.633 105.874 224.098 103.754 230.966 104.247C236.998 104.679 243.136 105.136 248.782 107.489C254.142 109.723 258.794 113.559 263.312 117.411C271.798 124.642 280.224 132.231 286.449 141.804C290.788 148.477 294.027 156.242 294.359 164.404C294.692 172.566 291.774 181.135 285.751 186.022C277.596 192.639 266.175 191.222 256.401 188.148C255.739 193.28 255.581 198.463 255.93 203.625C256.686 214.781 259.802 225.649 260.302 236.825C260.443 242.445 260.252 248.068 259.729 253.664C258.708 267.512 257.689 281.359 256.67 295.206C247.511 299.724 237.71 304.35 227.759 302.762C219.596 301.462 212.415 296.098 204.351 294.199C191.369 291.141 178.112 297.354 164.83 297.523C152.071 297.685 142.68 309.623 130.89 304.31C131.13 295.02 128.565 268.395 128.805 259.104C129.045 249.793 129.284 240.466 128.727 231.171C128.247 223.187 127.181 215.231 127.282 207.231C127.357 201.4 128.053 195.594 128.141 189.763C128.296 179.334 126.506 168.992 125.997 158.577C125.488 148.162 126.397 137.224 131.421 128.342C134.876 122.237 140.049 117.511 145.457 113.412C150.083 109.905 155.062 106.722 160.578 105.451C164.978 104.436 169.536 104.682 174.03 104.932L208.575 106.853L186.765 105.382Z"
                    fill="#89C7E0" />
                <path
                    d="M160.091 105.935L134.838 106.82C128.512 107.042 121.969 107.32 116.281 110.094C110.065 113.132 105.524 118.917 102.704 125.235C99.8837 131.553 98.6097 138.435 97.4797 145.263C94.8797 160.973 92.9227 176.771 91.6087 192.657C91.3126 194.598 91.435 196.579 91.9677 198.468C92.7754 200.339 94.0523 201.969 95.6747 203.2C104.104 210.415 115.136 213.647 125.806 216.689C127.606 217.202 129.569 217.707 131.291 216.981C132.718 216.21 133.877 215.022 134.613 213.576C142.403 201.147 146.818 186.952 151.152 172.937L160.091 105.935Z"
                    fill="#89C7E0" />
                <path
                    d="M133.379 221.028C151.979 218.202 170.207 210.865 188.368 205.264C188.867 205.109 189.302 204.796 189.609 204.373C189.916 203.95 190.079 203.44 190.072 202.917C190.066 202.395 189.891 201.888 189.573 201.473C189.256 201.058 188.813 200.757 188.31 200.613L117.49 180.46L60.6621 182.251L133.379 221.028Z"
                    fill="#CCCAC6" />
                <path
                    d="M129.03 195.638C139.111 198.69 156.075 204.124 166.156 207.175L140.785 214.549L115.023 203.537L121.562 196.071L129.03 195.638Z"
                    fill="#121E28" />
                <path
                    d="M12.469 110.989C30.369 115.151 105.687 129.697 117.136 132.32C117.612 132.429 118.048 132.669 118.395 133.012C118.743 133.354 118.988 133.787 119.103 134.261L136.453 218.015C136.56 218.455 136.553 218.915 136.431 219.351C136.309 219.787 136.076 220.184 135.756 220.504C135.436 220.825 135.039 221.057 134.603 221.179C134.167 221.301 133.707 221.308 133.267 221.2L32.036 196.428C31.5614 196.313 31.1284 196.067 30.7855 195.719C30.4425 195.371 30.2031 194.935 30.094 194.458L9.30501 114.145C9.20507 113.71 9.21757 113.256 9.34132 112.827C9.46507 112.397 9.69601 112.006 10.0124 111.691C10.3288 111.375 10.7203 111.145 11.15 111.022C11.5798 110.9 12.0337 110.888 12.469 110.989Z"
                    fill="#CCCAC6" />
                <path
                    d="M64.1926 161.031C62.3136 163.116 62.9865 166.709 65.1345 168.516C67.2825 170.323 70.4106 170.57 73.1246 169.853C74.0997 169.643 75.0057 169.189 75.7586 168.534C77.4776 166.886 77.2466 163.963 75.9996 161.934C75.3802 160.899 74.525 160.023 73.5036 159.381C72.4822 158.738 71.3234 158.345 70.1216 158.234C68.9165 158.154 67.7146 158.432 66.6661 159.031C65.6176 159.63 64.7691 160.525 64.2266 161.604L64.1926 161.031Z"
                    fill="white" />
                <path
                    d="M124.321 170.552C127.673 183.104 130.673 195.744 133.321 208.471C134.076 212.106 134.801 215.746 135.498 219.391C135.715 220.525 137.444 220.045 137.227 218.915C134.788 206.153 131.993 193.467 128.842 180.856C127.941 177.256 127.011 173.663 126.053 170.075C125.976 169.862 125.821 169.686 125.62 169.582C125.419 169.478 125.186 169.453 124.967 169.514C124.749 169.574 124.561 169.714 124.442 169.907C124.322 170.099 124.28 170.33 124.323 170.552"
                    fill="#121E28" />
                <path
                    d="M183.208 201.282C183.261 201.296 183.314 201.313 183.364 201.334L183.151 201.243C183.219 201.274 183.283 201.311 183.343 201.355L183.161 201.214C183.23 201.269 183.292 201.331 183.346 201.4L183.205 201.218C183.262 201.296 183.31 201.379 183.348 201.467C183.317 201.395 183.288 201.323 183.257 201.252C183.306 201.373 183.34 201.499 183.357 201.627C183.346 201.548 183.335 201.468 183.324 201.389C183.341 201.53 183.341 201.671 183.324 201.811L183.356 201.572C183.337 201.71 183.301 201.844 183.249 201.972L183.34 201.757C183.297 201.862 183.241 201.96 183.173 202.05L183.314 201.869C183.26 201.939 183.199 202.001 183.13 202.056L183.312 201.917C183.248 201.966 183.179 202.008 183.105 202.041L183.32 201.95C183.243 201.983 183.161 202.006 183.078 202.018L183.317 201.985C183.065 201.988 182.822 202.084 182.634 202.253C182.467 202.422 182.373 202.65 182.373 202.887C182.373 203.125 182.467 203.353 182.634 203.521C182.717 203.606 182.815 203.672 182.924 203.718C183.033 203.763 183.15 203.786 183.268 203.784C183.53 203.765 183.786 203.697 184.022 203.584C184.181 203.503 184.328 203.399 184.457 203.275C184.72 203.016 184.914 202.694 185.02 202.34C185.126 202.013 185.161 201.667 185.122 201.326C185.083 200.984 184.971 200.655 184.793 200.36C184.539 199.959 184.144 199.668 183.685 199.545C183.569 199.503 183.444 199.486 183.321 199.494C183.197 199.502 183.076 199.535 182.966 199.592C182.856 199.649 182.758 199.729 182.68 199.825C182.602 199.921 182.545 200.033 182.512 200.153C182.479 200.272 182.471 200.397 182.489 200.52C182.506 200.643 182.549 200.761 182.615 200.866C182.68 200.972 182.766 201.062 182.869 201.133C182.971 201.203 183.086 201.252 183.208 201.275"
                    fill="#121E28" />
                <path
                    d="M113.625 135.895C113.779 135.876 113.934 135.87 114.09 135.877C114.214 135.884 114.227 135.937 114.077 135.869C114.149 135.889 114.224 135.903 114.299 135.911C114.37 135.928 114.608 136.048 114.674 136.03C114.546 135.975 114.526 135.968 114.614 136.007C114.648 136.023 114.682 136.04 114.714 136.058C114.765 136.083 114.814 136.111 114.862 136.14C114.928 136.178 114.991 136.219 115.053 136.263C115.259 136.407 114.983 136.193 115.098 136.297C115.213 136.401 115.298 136.475 115.393 136.572C115.447 136.629 115.499 136.686 115.548 136.745C115.635 136.851 115.648 136.865 115.548 136.745C115.601 136.745 115.761 137.062 115.789 137.111C115.867 137.235 115.934 137.366 115.989 137.502C115.914 137.311 115.989 137.502 115.989 137.502C116.015 137.575 116.04 137.649 116.062 137.723C116.1 137.853 116.126 137.984 116.155 138.116C116.189 138.276 116.137 137.901 116.16 138.161C116.165 138.227 116.17 138.293 116.171 138.361C116.155 138.502 116.148 138.643 116.152 138.784C116.117 138.584 116.169 138.666 116.152 138.767C116.137 138.841 116.119 138.914 116.098 138.986C116.067 139.055 116.042 139.126 116.025 139.199C116.004 139.167 116.118 138.999 116.025 139.193C115.954 139.332 115.872 139.463 115.779 139.587C115.659 139.793 115.626 140.037 115.686 140.267C115.746 140.497 115.895 140.694 116.1 140.814C116.306 140.928 116.549 140.957 116.777 140.898C117.005 140.838 117.202 140.693 117.327 140.492C118.772 138.551 117.636 135.526 115.6 134.492C114.995 134.17 114.31 134.033 113.629 134.098C113.391 134.104 113.165 134.2 112.998 134.368C112.83 134.535 112.734 134.761 112.729 134.998C112.749 135.437 113.129 135.955 113.629 135.898"
                    fill="#121E28" />
                <path
                    d="M163.854 31.0284C160.126 47.9481 157.729 65.1341 156.686 82.4284C156.556 84.5784 156.468 86.8284 157.486 88.7784C158.894 91.4674 175.801 94.6694 175.946 94.3444C173.834 102.173 172.134 113.099 170.023 120.928C175.28 124.689 180.623 125.567 187.371 125.36C194.119 125.153 200.693 123.531 207.195 121.919L210.629 75.9334C210.996 77.2877 211.757 78.5021 212.817 79.4214C213.877 80.3407 215.187 80.9232 216.579 81.0944C218.004 81.3004 219.457 81.104 220.776 80.5274C222.095 79.9508 223.226 79.017 224.041 77.8314C225.094 75.8712 225.335 73.5767 224.714 71.4404C224.197 68.7551 222.651 66.3782 220.405 64.8164C218.025 63.2854 214.471 63.0374 212.225 64.7164C215.433 54.3164 214.947 43.6714 217.315 33.0924C198.964 32.4824 183.903 31.7474 165.584 30.6104L163.854 31.0284Z"
                    fill="#E5A37F" />
                <path
                    d="M212.036 32.8394C211.765 38.8524 211.636 44.8724 211.499 50.8904C211.379 56.2971 211.259 61.7037 211.139 67.1104C211.986 66.1445 213.058 65.4018 214.26 64.9478C215.463 64.4938 216.758 64.3424 218.032 64.507C219.307 64.6716 220.521 65.1471 221.569 65.8917C222.616 66.6362 223.464 67.6268 224.039 68.7764L227.19 35.8864C227.447 34.415 227.353 32.9035 226.915 31.4754C222.038 30.1025 216.831 30.5124 212.229 32.6314L212.036 32.8394Z"
                    fill="black" />
                <path
                    d="M227.274 34.5284C224.374 37.3434 219.426 38.5434 216.274 36.0034C214.992 34.9694 214.094 33.4114 212.574 32.7804C208.987 31.2914 205.874 35.7804 202.184 36.9924C196.767 38.7774 191.447 33.1614 185.753 33.5064C181.81 33.7444 178.253 36.8414 174.345 36.2604C171.184 35.7904 168.487 32.9524 165.323 33.3964C163.504 33.6514 161.749 34.9914 160.001 34.4294C159.431 34.178 158.92 33.8086 158.503 33.3456C158.087 32.8827 157.772 32.3366 157.582 31.7434C154.85 25.2494 158.751 16.8174 165.469 14.6944C169.532 13.4104 173.969 14.2304 178.156 13.4434C182.367 12.6514 186.477 10.2384 190.668 11.1314C192.926 11.6124 194.951 13.0314 197.253 13.1964C200.422 13.4234 203.315 11.2334 206.49 11.0914C210.215 10.9234 213.405 13.5274 216.812 15.0424C218.706 15.7224 220.559 16.5141 222.36 17.4134C225.705 19.4074 227.682 23.0194 229.503 26.4634C230.168 27.5193 230.582 28.7136 230.713 29.9544C230.813 33.6744 226.32 35.5214 222.689 36.3364L227.274 34.5284Z"
                    fill="black" />
                <path
                    d="M187.32 49.7024C187.219 50.4674 187.365 51.2446 187.736 51.9209C188.108 52.5972 188.686 53.1373 189.385 53.4624C190.8 54.0812 192.332 54.3836 193.875 54.3484L200.71 54.6854C199.353 52.6136 197.418 50.9843 195.146 49.9983C192.874 49.0123 190.363 48.7127 187.922 49.1364L187.32 49.7024Z"
                    fill="black" />
                <path
                    d="M213.893 75.6304C215.863 73.4751 217.955 71.4354 220.16 69.5214C220.297 69.3581 220.367 69.1497 220.357 68.9373C220.348 68.7248 220.259 68.5237 220.108 68.3733C219.958 68.2229 219.757 68.1342 219.544 68.1246C219.332 68.115 219.124 68.1852 218.96 68.3214C216.756 70.2363 214.663 72.2767 212.693 74.4324C212.604 74.5087 212.532 74.6026 212.481 74.7082C212.43 74.8137 212.402 74.9287 212.397 75.0458C212.393 75.1629 212.412 75.2797 212.455 75.3889C212.498 75.498 212.563 75.5971 212.646 75.68C212.729 75.7629 212.828 75.8278 212.937 75.8705C213.046 75.9133 213.163 75.9331 213.28 75.9286C213.397 75.9242 213.512 75.8955 213.618 75.8446C213.723 75.7936 213.817 75.7214 213.893 75.6324"
                    fill="#A5613C" />
                <path
                    d="M216.648 72.2104L218.936 75.4164C219.053 75.6039 219.233 75.7431 219.444 75.8084C219.666 75.8669 219.902 75.836 220.1 75.7224C220.294 75.6064 220.434 75.4195 220.491 75.2016C220.548 74.9836 220.517 74.7521 220.405 74.5564L218.117 71.3504C218.001 71.1629 217.82 71.0237 217.609 70.9584C217.446 70.9134 217.273 70.9182 217.113 70.972C216.952 71.0258 216.811 71.1262 216.708 71.2605C216.605 71.3947 216.544 71.5567 216.533 71.7257C216.522 71.8947 216.562 72.0631 216.647 72.2094"
                    fill="#A5613C" />
                <g opacity="0.47">
                    <mask id="mask3_251_8807" style="mask-type:luminance" maskUnits="userSpaceOnUse"
                        x="174" y="94" width="26" height="7">
                        <path d="M199.621 94.3444H174.809V100.002H199.621V94.3444Z" fill="white" />
                    </mask>
                    <g mask="url(#mask3_251_8807)">
                        <path d="M175.951 94.3444L199.623 94.9204L174.811 100.002L175.951 94.3444Z"
                            fill="#A5613C" />
                    </g>
                </g>
                <path
                    d="M116.597 218.079C114.494 219.157 112.332 220.114 110.121 220.946C108.157 221.684 105.811 222.282 104.084 221.092C103.416 220.632 102.928 219.951 102.265 219.484C100.751 218.416 98.7178 218.684 96.8648 218.555C95.0118 218.426 92.8298 217.41 92.8048 215.555C90.877 216.262 88.7528 216.209 86.8628 215.407C84.9727 214.605 83.4584 213.115 82.6268 211.237C81.5288 211.573 80.3636 211.624 79.2403 211.387C78.117 211.15 77.0722 210.631 76.2038 209.88C74.4825 208.356 73.1552 206.438 72.3348 204.289C70.806 200.759 69.9094 196.987 69.6858 193.146C69.6078 191.798 70.0918 189.957 71.4378 190.046C71.9247 190.125 72.3719 190.363 72.7098 190.722C77.1998 194.767 77.3288 201.868 80.9798 206.686C80.7808 202.838 81.2118 198.982 82.2558 195.272C82.6668 193.81 83.4688 192.128 84.9788 191.982C86.5208 191.833 87.6678 193.453 87.9788 194.971C88.2898 196.489 88.1348 198.121 88.7868 199.526C88.5517 197.657 88.6746 195.759 89.1488 193.935C89.2584 193.28 89.5903 192.682 90.0888 192.242C90.4191 192.048 90.7911 191.935 91.1737 191.914C91.5564 191.892 91.9387 191.962 92.2888 192.118C95.5278 193.296 96.4038 197.38 96.7888 200.804L97.7718 209.542C97.0798 207.571 96.3808 205.442 96.9718 203.436C97.5628 201.43 100.048 199.884 101.794 201.031C102.559 201.648 103.12 202.48 103.406 203.42C104.787 206.82 106.685 213.92 106.685 213.92L117.415 217.472L116.597 218.079Z"
                    fill="#E5A37F" />
                <path
                    d="M96.7004 202.392C95.9044 207.17 96.1431 212.062 97.4004 216.739C97.4661 216.951 97.6113 217.128 97.8053 217.234C97.9993 217.34 98.2269 217.366 98.4401 217.308C98.6533 217.249 98.8353 217.11 98.9477 216.919C99.0601 216.729 99.0941 216.502 99.0424 216.287C97.8526 211.908 97.614 207.324 98.3424 202.844C98.5184 201.772 96.8784 201.312 96.7004 202.392Z"
                    fill="#A5613C" />
                <path
                    d="M96.7004 202.392C95.9044 207.17 96.1431 212.062 97.4004 216.739C97.4661 216.951 97.6113 217.128 97.8053 217.234C97.9993 217.34 98.2269 217.366 98.4401 217.308C98.6533 217.249 98.8353 217.11 98.9477 216.919C99.0601 216.729 99.0941 216.502 99.0424 216.287C97.8526 211.908 97.614 207.324 98.3424 202.844C98.5194 201.773 96.8784 201.312 96.7004 202.392Z"
                    stroke="#E5A37F" stroke-width="0.5" stroke-miterlimit="10" />
                <path
                    d="M88.6904 194.545C88.0369 200.833 88.4466 207.186 89.9024 213.337C90.1544 214.403 91.7964 213.952 91.5424 212.884C90.1324 206.879 89.7436 200.68 90.3924 194.545C90.5064 193.456 88.8034 193.464 88.6924 194.545"
                    fill="#A5613C" />
                <path
                    d="M88.6904 194.545C88.0369 200.833 88.4466 207.186 89.9024 213.337C90.1544 214.403 91.7964 213.952 91.5424 212.884C90.1324 206.879 89.7436 200.68 90.3924 194.545C90.5114 193.456 88.8074 193.464 88.6904 194.545Z"
                    stroke="#E5A37F" stroke-width="0.5" stroke-miterlimit="10" />
                <path
                    d="M81.7703 194.771C80.1838 199.983 79.8379 205.493 80.7603 210.861C80.9433 211.939 82.5843 211.482 82.4013 210.409C81.5521 205.337 81.8986 200.136 83.4133 195.221C83.7343 194.172 82.0913 193.721 81.7713 194.769"
                    fill="#A5613C" />
                <path
                    d="M81.7703 194.771C80.1838 199.983 79.8379 205.493 80.7603 210.861C80.9433 211.939 82.5843 211.482 82.4013 210.409C81.5521 205.337 81.8986 200.136 83.4133 195.221C83.7343 194.174 82.0913 193.721 81.7703 194.771Z"
                    stroke="#E5A37F" stroke-width="0.5" stroke-miterlimit="10" />
                <path
                    d="M280.029 176.663C283.559 178.712 288.785 176.363 289.429 172.275C289.482 172.057 289.449 171.827 289.337 171.633C289.226 171.438 289.044 171.293 288.829 171.228C288.612 171.17 288.38 171.2 288.184 171.311C287.988 171.423 287.844 171.607 287.782 171.823C287.632 172.549 287.317 173.231 286.863 173.817C286.408 174.402 285.825 174.876 285.159 175.201C284.493 175.526 283.761 175.695 283.02 175.693C282.278 175.692 281.547 175.521 280.882 175.193C280.688 175.09 280.461 175.066 280.25 175.126C280.038 175.187 279.858 175.326 279.747 175.516C279.636 175.706 279.603 175.931 279.655 176.145C279.706 176.359 279.838 176.545 280.023 176.663"
                    fill="#A5613C" />
                <path
                    d="M172.946 300.517C173.696 305.709 174.538 310.885 175.473 316.045C175.94 318.603 176.428 321.156 176.936 323.704C177.19 324.972 177.414 326.254 177.724 327.51C177.918 328.497 178.412 329.401 179.139 330.095C180.767 331.506 183.103 331.427 185.113 331.195C185.536 331.147 186.013 330.842 185.964 330.343C185.018 320.364 183.664 310.435 181.902 300.555C181.71 299.478 180.068 299.935 180.26 301.008C181.994 310.728 183.327 320.506 184.26 330.343L185.112 329.491C183.592 329.663 181.529 329.921 180.274 328.825C179.643 328.107 179.262 327.202 179.189 326.248C178.943 325.067 178.703 323.884 178.468 322.7C177.517 317.922 176.647 313.127 175.859 308.316C175.408 305.568 174.984 302.816 174.588 300.059C174.432 298.979 172.788 299.439 172.946 300.512"
                    fill="#666C75" />
                <path
                    d="M183.159 331.203C187.443 346.243 191.207 361.419 194.452 376.731C195.372 381.076 196.249 385.43 197.083 389.792C197.289 390.867 198.931 390.412 198.725 389.34C195.783 373.982 192.317 358.736 188.325 343.603C187.192 339.309 186.016 335.026 184.798 330.754C184.733 330.543 184.588 330.366 184.394 330.26C184.2 330.154 183.972 330.127 183.759 330.186C183.546 330.245 183.363 330.384 183.251 330.574C183.139 330.765 183.105 330.991 183.156 331.206"
                    fill="#666C75" />
                <path
                    d="M174.316 338.614C180.408 333.927 187.106 330.083 194.227 327.186C195.227 326.78 194.791 325.133 193.775 325.545C186.51 328.479 179.675 332.381 173.457 337.145C173.267 337.264 173.13 337.451 173.074 337.668C173.017 337.884 173.045 338.114 173.152 338.31C173.266 338.505 173.453 338.646 173.671 338.703C173.89 338.76 174.121 338.729 174.317 338.615"
                    fill="#666C75" />
                <path
                    d="M177.704 341.239C182.531 337.124 187.84 333.609 193.513 330.773C194.494 330.283 193.632 328.814 192.654 329.303C186.854 332.213 181.429 335.817 176.498 340.035C175.663 340.747 176.872 341.947 177.698 341.235"
                    fill="#666C75" />
                <path
                    d="M216.005 302.858C217.539 306.8 216.812 312.138 221.152 314.438C225.892 316.95 231.208 313.805 236.062 315.466C237.102 315.822 237.548 314.178 236.515 313.824C234.015 312.969 231.405 313.314 228.841 313.597C226.72 313.832 224.394 314.024 222.383 313.149C218.291 311.37 219.012 305.913 217.647 302.406C217.254 301.396 215.606 301.834 216.005 302.858Z"
                    fill="#666C75" />
                <path
                    d="M233.807 306.059C236.605 322.589 238.295 339.288 238.865 356.043C239.145 364.323 238.965 372.597 239.073 380.878C239.112 388.983 240.078 397.057 241.95 404.943C243.879 412.821 246.261 420.58 248.218 428.451C250.202 436.424 251.931 444.465 253.2 452.583C255.766 469.004 255.928 485.614 255.824 502.196C255.724 518.681 255.424 535.228 257.302 551.637C257.524 553.579 257.777 555.515 258.061 557.447C258.217 558.528 259.861 558.068 259.702 556.995C257.313 540.564 257.372 523.918 257.49 507.352C257.607 490.859 257.774 474.302 255.664 457.91C253.583 441.743 249.432 426.039 245.126 410.35C242.814 402.417 241.402 394.249 240.917 385.999C240.548 377.754 240.872 369.491 240.707 361.24C240.372 344.657 238.945 328.113 236.435 311.717C236.123 309.678 235.794 307.641 235.449 305.607C235.266 304.528 233.625 304.986 233.807 306.059Z"
                    fill="#666C75" />
                <path
                    d="M181.708 342.486C182.646 355.481 181.181 368.457 179.782 381.362C179.082 387.837 178.395 394.317 178.046 400.823C177.691 407.416 177.833 413.999 178.039 420.595C178.423 433.788 178.107 446.991 177.092 460.149C176.114 473.236 174.692 486.281 173.473 499.349C172.254 512.417 171.249 525.481 171.107 538.592C171.089 540.23 171.085 541.869 171.095 543.507C171.11 543.723 171.206 543.924 171.364 544.072C171.522 544.219 171.729 544.301 171.945 544.301C172.161 544.301 172.369 544.219 172.527 544.072C172.684 543.924 172.78 543.723 172.795 543.507C172.72 530.395 173.575 517.307 174.727 504.249C175.881 491.177 177.327 478.133 178.405 465.049C179.593 451.926 180.086 438.748 179.88 425.572C179.724 418.947 179.38 412.323 179.55 405.694C179.714 399.185 180.29 392.694 180.962 386.221C182.304 373.305 184.049 360.362 183.657 347.346C183.609 345.724 183.525 344.104 183.407 342.484C183.329 341.398 181.625 341.389 181.707 342.484"
                    fill="#666C75" />
                <path
                    d="M153.54 304.535C152.179 308.285 150.976 312.146 149.363 315.797C148.125 318.597 146.386 321.556 143.363 322.677C142.344 323.054 142.784 324.701 143.815 324.318C147.151 323.08 149.227 320.163 150.66 317.033C152.439 313.146 153.721 309.002 155.178 304.986C155.552 303.955 153.908 303.51 153.536 304.534"
                    fill="#666C75" />
                <path
                    d="M186.299 138.105L195.186 131.481L194.53 131.568L205.43 134.638C205.611 134.686 205.803 134.674 205.977 134.604C206.15 134.533 206.296 134.408 206.392 134.247C210.752 126.147 215.533 116.67 212.118 107.328C211.745 106.307 210.098 106.748 210.476 107.78C213.731 116.68 209.076 125.68 204.922 133.388L205.884 132.997L197.298 130.578C196.618 130.387 195.94 130.171 195.254 130.002C195.101 129.94 194.937 129.911 194.771 129.916C194.606 129.922 194.444 129.962 194.295 130.034C194.068 130.181 193.851 130.342 193.646 130.518L187.367 135.198L185.438 136.635C184.569 137.283 185.417 138.762 186.297 138.106"
                    fill="#3D5A77" />
                <path
                    d="M178.208 135.718C177.323 133.222 176.438 130.726 175.553 128.23C175.5 128.053 175.393 127.896 175.245 127.784C175.098 127.671 174.918 127.609 174.733 127.605L159.685 128.683C159.969 128.967 160.253 129.251 160.537 129.535C160.327 122.239 162.93 115.142 167.808 109.711C168.541 108.9 167.341 107.692 166.608 108.511C161.416 114.264 158.635 121.793 158.839 129.539C158.84 129.765 158.931 129.98 159.09 130.139C159.249 130.298 159.464 130.389 159.69 130.39L174.738 129.312L173.917 128.687L176.571 136.173C176.935 137.199 178.581 136.757 178.213 135.721"
                    fill="#3D5A77" />
                <path
                    d="M180.703 129.486C180.806 145.924 180.909 162.362 181.012 178.799C181.041 183.428 181.07 188.057 181.099 192.687C181.114 192.903 181.21 193.104 181.368 193.252C181.525 193.399 181.733 193.481 181.949 193.481C182.165 193.481 182.373 193.399 182.531 193.252C182.688 193.104 182.784 192.903 182.799 192.687L182.491 143.373C182.462 138.745 182.432 134.116 182.403 129.486C182.388 129.271 182.292 129.069 182.135 128.922C181.977 128.775 181.769 128.693 181.553 128.693C181.337 128.693 181.129 128.775 180.972 128.922C180.814 129.069 180.718 129.271 180.703 129.486Z"
                    fill="#3D5A77" />
                <path
                    d="M180.781 212.429C181.805 221.848 182.604 231.287 183.18 240.746C183.756 250.206 184.1 259.672 184.21 269.146C184.277 274.493 184.27 279.839 184.188 285.185C184.203 285.401 184.299 285.602 184.457 285.75C184.615 285.897 184.823 285.979 185.038 285.979C185.254 285.979 185.462 285.897 185.62 285.75C185.778 285.602 185.874 285.401 185.888 285.185C186.028 275.713 185.941 266.241 185.629 256.767C185.317 247.294 184.776 237.837 184.004 228.395C183.57 223.066 183.063 217.744 182.483 212.428C182.366 211.35 180.662 211.338 180.783 212.428"
                    fill="#3D5A77" />
                <path
                    d="M247.24 158.133C250.94 165.133 252.296 173.055 253.208 180.842C254.216 189.442 255.057 198.072 255.974 206.686L257.556 221.567C257.67 222.646 259.375 222.658 259.256 221.567C258.301 212.582 257.346 203.597 256.391 194.612C255.516 186.383 254.958 178.012 253.18 169.912C252.267 165.515 250.763 161.262 248.708 157.269C248.195 156.3 246.725 157.159 247.238 158.128"
                    fill="#3D5A77" />
                <path
                    d="M205.01 163.539L237.71 161.902L236.859 161.05L240.828 192.168C241.112 191.884 241.396 191.6 241.68 191.316L206.5 195.34L207.352 196.192C206.015 184.866 205.25 173.479 205.058 162.075L203.605 162.675C206.843 166.365 210.368 170.193 215.31 171.438C220.345 172.705 225.658 171.351 230.017 168.708C232.427 167.205 234.645 165.414 236.622 163.374C236.758 163.211 236.828 163.003 236.818 162.79C236.809 162.578 236.72 162.377 236.57 162.226C236.419 162.076 236.218 161.987 236.006 161.978C235.793 161.968 235.585 162.038 235.422 162.174C232.14 165.481 228.273 168.4 223.708 169.623C221.359 170.282 218.892 170.398 216.493 169.962C214.211 169.486 212.077 168.468 210.272 166.994C208.286 165.322 206.456 163.473 204.804 161.471C204.683 161.356 204.532 161.279 204.368 161.248C204.204 161.217 204.035 161.234 203.881 161.298C203.727 161.362 203.595 161.469 203.501 161.606C203.406 161.743 203.354 161.905 203.35 162.071C203.542 173.477 204.308 184.866 205.645 196.194C205.695 196.609 205.997 197.103 206.497 197.046L241.677 193.021C242.088 192.975 242.592 192.667 242.528 192.17L238.559 161.052C238.554 160.828 238.463 160.614 238.304 160.455C238.145 160.296 237.931 160.205 237.707 160.2L205.007 161.838C203.916 161.892 203.907 163.595 205.007 163.538"
                    fill="#3D5A77" />
                <path
                    d="M121.104 114.033C126.474 119.972 129.117 127.683 130.582 135.433C132.211 144.041 132.65 152.872 133.405 161.585C133.895 167.245 134.385 172.904 134.875 178.562C134.969 179.646 136.675 179.656 136.575 178.562C135.706 168.538 134.875 158.51 133.967 148.489C133.227 140.336 132.267 132.012 129.267 124.335C127.664 120.112 125.306 116.215 122.308 112.835C121.572 112.02 120.371 113.227 121.108 114.035"
                    fill="#3D5A77" />
                <path
                    d="M163.377 236.634C173.628 232.301 183.969 228.189 194.401 224.298C197.35 223.198 200.306 222.116 203.269 221.05L202.44 219.626C194.417 229.116 182.792 234.302 173.14 241.826C170.425 243.91 167.918 246.251 165.654 248.816C165.565 248.91 165.498 249.022 165.458 249.145C165.418 249.268 165.406 249.398 165.422 249.526C165.439 249.654 165.483 249.776 165.553 249.885C165.623 249.994 165.716 250.085 165.826 250.153C166.29 250.453 166.815 250.645 167.363 250.715C167.911 250.785 168.468 250.733 168.993 250.56C170.377 250.166 171.739 249.698 173.075 249.16L181.754 246.085L198.979 239.985L208.726 236.531C209.751 236.167 209.309 234.522 208.273 234.89L175.026 246.674L170.353 248.33C169.258 248.718 167.753 249.492 166.686 248.688C166.743 249.134 166.8 249.58 166.858 250.025C175.004 240.646 186.633 235.499 196.242 227.891C198.937 225.79 201.416 223.425 203.642 220.831C204.142 220.243 203.686 219.095 202.815 219.409C192.229 223.216 181.729 227.249 171.315 231.509C168.375 232.709 165.444 233.929 162.52 235.169C162.326 235.284 162.185 235.471 162.128 235.689C162.07 235.907 162.102 236.139 162.215 236.334C162.332 236.525 162.519 236.663 162.736 236.72C162.953 236.777 163.183 236.748 163.38 236.639"
                    fill="#3D5A77" />
                <path
                    d="M160.847 294.64C175.366 290.653 190.154 286.64 205.315 286.499C209.595 286.445 213.871 286.75 218.1 287.412C219.173 287.583 219.634 285.943 218.553 285.77C203.288 283.329 187.877 285.941 173.039 289.641C168.808 290.697 164.599 291.841 160.394 292.997C160.183 293.063 160.005 293.208 159.899 293.402C159.793 293.596 159.767 293.824 159.825 294.037C159.884 294.25 160.023 294.432 160.214 294.545C160.404 294.657 160.631 294.691 160.846 294.639"
                    fill="#3D5A77" />
                <path
                    d="M188.453 153.09C188.175 153.698 188.125 154.385 188.314 155.026C188.503 155.667 188.918 156.218 189.481 156.577C189.986 156.958 190.612 157.142 191.243 157.093C191.873 157.044 192.464 156.767 192.904 156.313C193.289 155.88 193.552 155.352 193.667 154.784C193.781 154.216 193.744 153.628 193.558 153.079C193.363 152.478 192.976 151.959 192.455 151.601C191.934 151.243 191.31 151.066 190.679 151.099C189.96 151.118 189.263 151.353 188.678 151.773C188.094 152.193 187.649 152.779 187.402 153.455C187.344 153.673 187.374 153.905 187.485 154.101C187.596 154.297 187.78 154.441 187.997 154.502C188.216 154.556 188.446 154.524 188.641 154.412C188.836 154.301 188.981 154.118 189.044 153.902C189.136 153.764 188.988 154.002 189.036 153.908C189.057 153.867 189.075 153.823 189.097 153.782C189.148 153.682 189.244 153.582 189.283 153.482C189.283 153.477 189.161 153.626 189.221 153.561C189.301 153.461 189.338 153.426 189.376 153.387C189.452 153.308 189.537 153.239 189.619 153.166C189.701 153.093 189.469 153.266 189.559 153.214C189.649 153.162 189.695 153.122 189.735 153.097C189.835 153.036 189.946 152.991 190.047 152.931C190.121 152.887 189.947 152.971 189.947 152.97C190.078 152.919 190.123 152.904 190.168 152.89C190.273 152.858 190.379 152.831 190.486 152.811C190.586 152.792 190.377 152.811 190.466 152.811C190.52 152.811 190.574 152.8 190.628 152.797C190.736 152.791 190.843 152.791 190.95 152.797C191.126 152.811 190.824 152.767 190.929 152.797C190.973 152.808 191.019 152.814 191.063 152.824C191.107 152.834 191.163 152.849 191.217 152.865C191.299 152.891 191.435 152.984 191.229 152.86C191.315 152.912 191.41 152.948 191.495 153.002C191.539 153.029 191.582 153.069 191.628 153.092C191.633 153.092 191.482 152.966 191.538 153.025C191.669 153.143 191.723 153.217 191.787 153.281C191.617 153.115 191.719 153.191 191.765 153.26C191.796 153.307 191.824 153.36 191.852 153.404C191.88 153.448 191.89 153.478 191.909 153.515C191.994 153.684 191.854 153.355 191.896 153.486C191.927 153.579 191.958 153.672 191.982 153.768C191.994 153.816 192.002 153.868 192.012 153.913C192.047 154.093 191.999 153.74 192.007 153.876C192.013 153.976 192.021 154.076 192.02 154.176C192.02 154.226 192.02 154.276 192.013 154.325C192.006 154.374 191.991 154.519 192.013 154.36C192.035 154.201 192.013 154.374 192 154.414C191.987 154.454 191.977 154.524 191.962 154.579C191.938 154.667 191.904 154.75 191.875 154.837C191.859 154.887 191.967 154.645 191.894 154.786C191.869 154.835 191.844 154.886 191.816 154.932C191.788 154.978 191.766 155.013 191.74 155.054C191.661 155.176 191.783 155.005 191.775 155.013C191.701 155.081 191.638 155.165 191.564 155.234C191.511 155.282 191.679 155.16 191.608 155.204C191.567 155.228 191.529 155.259 191.488 155.284L191.379 155.345C191.325 155.366 191.496 155.311 191.379 155.345C191.327 155.36 191.279 155.378 191.225 155.39C191.125 155.413 191.025 155.383 191.251 155.395C191.151 155.39 191.043 155.401 190.94 155.395C190.793 155.39 191.131 155.435 190.99 155.401C190.939 155.388 190.89 155.379 190.837 155.365C190.784 155.351 190.737 155.333 190.688 155.317C190.562 155.278 190.864 155.406 190.704 155.323C190.596 155.267 190.491 155.206 190.389 155.138C190.235 155.038 190.519 155.256 190.379 155.13C190.339 155.094 190.298 155.059 190.26 155.021C190.222 154.983 190.174 154.933 190.133 154.888C190.019 154.761 190.203 155 190.123 154.881C190.059 154.788 190 154.691 189.947 154.59C189.847 154.39 189.965 154.678 189.947 154.59C189.932 154.534 189.908 154.479 189.892 154.422C189.876 154.365 189.87 154.322 189.858 154.272C189.827 154.142 189.871 154.361 189.87 154.372C189.861 154.227 189.865 154.172 189.865 154.112C189.865 154.08 189.88 153.996 189.859 154.138C189.835 154.3 189.859 154.149 189.865 154.121C189.876 154.07 189.891 154.021 189.906 153.971C189.915 153.937 189.958 153.84 189.906 153.971C189.854 154.102 189.911 153.971 189.923 153.947C190.03 153.753 190.057 153.524 189.998 153.31C189.939 153.096 189.798 152.913 189.607 152.801C189.415 152.689 189.187 152.656 188.971 152.71C188.755 152.764 188.569 152.899 188.452 153.088"
                    fill="#3D5A77" />
                <path
                    d="M188.46 185.357C188.449 185.264 188.446 185.17 188.449 185.075C188.449 184.975 188.508 184.914 188.438 185.116C188.452 185.074 188.455 185.023 188.465 184.98C188.492 184.908 188.515 184.834 188.534 184.759C188.511 184.938 188.476 184.887 188.523 184.792C188.552 184.736 188.581 184.682 188.614 184.628C188.647 184.574 188.667 184.55 188.692 184.511C188.736 184.444 188.763 184.482 188.644 184.571C188.715 184.517 188.772 184.425 188.837 184.364C188.871 184.331 188.908 184.301 188.943 184.264C189.072 184.148 188.775 184.376 188.921 184.282C189.001 184.231 189.078 184.182 189.163 184.135C189.206 184.117 189.249 184.096 189.289 184.073C189.109 184.191 189.179 184.118 189.26 184.091C189.334 184.067 189.409 184.046 189.484 184.03C189.584 184.01 189.648 184.049 189.441 184.03C189.485 184.03 189.541 184.023 189.581 184.022C189.621 184.021 189.674 184.022 189.721 184.022C189.673 184.009 189.636 184.005 189.703 184.022C189.77 184.039 189.86 184.061 189.939 184.084C190.092 184.131 189.746 183.984 189.888 184.061C189.924 184.08 189.961 184.097 189.997 184.117C190.056 184.151 190.109 184.195 190.168 184.228C189.968 184.117 190.06 184.141 190.123 184.196C190.164 184.232 190.203 184.27 190.241 184.309C190.279 184.348 190.296 184.37 190.323 184.401C190.41 184.494 190.27 184.33 190.267 184.325C190.308 184.396 190.367 184.46 190.403 184.531C190.439 184.602 190.477 184.68 190.516 184.753C190.38 184.503 190.504 184.735 190.53 184.824C190.556 184.913 190.57 184.985 190.587 185.066C190.621 185.227 190.569 184.841 190.58 185.004C190.59 185.114 190.592 185.224 190.586 185.334C190.586 185.374 190.578 185.415 190.575 185.457C190.591 185.178 190.591 185.335 190.575 185.412C190.559 185.489 190.535 185.556 190.513 185.627C190.464 185.779 190.613 185.434 190.535 185.575C190.516 185.611 190.499 185.648 190.479 185.684C190.436 185.759 190.288 185.908 190.472 185.718C190.404 185.788 190.346 185.863 190.272 185.927C190.198 185.991 190.125 185.995 190.316 185.895C190.226 185.957 190.132 186.012 190.035 186.061C189.893 186.135 190.24 185.988 190.088 186.039L189.972 186.079C189.893 186.103 189.812 186.119 189.732 186.137C189.571 186.172 189.957 186.117 189.794 186.13C189.738 186.13 189.683 186.14 189.628 186.141C189.545 186.145 189.462 186.143 189.379 186.135C189.3 186.129 189.188 186.083 189.44 186.147C189.386 186.133 189.33 186.127 189.276 186.114C189.196 186.096 189.116 186.073 189.038 186.044C188.962 186.017 188.884 185.944 189.089 186.068C189.042 186.041 188.989 186.02 188.943 185.994C188.871 185.954 188.807 185.903 188.737 185.862C188.943 185.985 188.837 185.943 188.784 185.892C188.744 185.855 188.705 185.817 188.668 185.777C188.616 185.72 188.568 185.618 188.697 185.822C188.668 185.775 188.634 185.731 188.604 185.685C188.548 185.589 188.473 185.504 188.384 185.437C188.295 185.369 188.193 185.32 188.085 185.291C187.977 185.263 187.865 185.256 187.754 185.272C187.643 185.287 187.536 185.324 187.44 185.38C187.343 185.436 187.259 185.511 187.191 185.6C187.124 185.689 187.074 185.791 187.046 185.899C187.018 186.007 187.011 186.12 187.026 186.23C187.041 186.341 187.078 186.448 187.134 186.544C187.407 186.969 187.787 187.313 188.236 187.541C188.686 187.77 189.188 187.874 189.691 187.844C190.193 187.827 190.682 187.679 191.109 187.415C191.584 187.107 191.945 186.653 192.139 186.121C192.29 185.673 192.33 185.194 192.256 184.727C192.182 184.259 191.995 183.817 191.712 183.437C191.381 182.982 190.921 182.637 190.39 182.447C189.87 182.278 189.308 182.284 188.79 182.463C188.181 182.657 187.652 183.046 187.285 183.57C186.918 184.094 186.734 184.724 186.76 185.363C186.768 185.587 186.856 185.8 187.008 185.963C187.169 186.121 187.384 186.21 187.608 186.212C187.834 186.21 188.049 186.12 188.208 185.96C188.367 185.801 188.458 185.586 188.46 185.36"
                    fill="#3D5A77" />
                <path
                    d="M190.402 251.231C190.077 251.764 189.933 252.388 189.991 253.009C190.05 253.631 190.309 254.216 190.728 254.678C191.105 255.154 191.645 255.471 192.244 255.569C192.842 255.666 193.455 255.536 193.963 255.204C194.434 254.858 194.792 254.38 194.992 253.831C195.191 253.281 195.223 252.685 195.084 252.117C195.009 251.816 194.871 251.533 194.678 251.289C194.486 251.045 194.244 250.844 193.968 250.7C193.693 250.556 193.39 250.472 193.079 250.453C192.769 250.435 192.458 250.483 192.167 250.593C191.503 250.828 190.944 251.291 190.589 251.899C190.399 252.226 190.294 252.596 190.285 252.974C190.276 253.352 190.362 253.726 190.536 254.061C190.651 254.255 190.838 254.396 191.056 254.453C191.274 254.51 191.506 254.479 191.701 254.366C191.892 254.249 192.03 254.062 192.087 253.845C192.144 253.628 192.115 253.398 192.006 253.201C191.915 253.023 192.057 253.361 192.018 253.237C192.003 253.192 191.988 253.147 191.978 253.101C191.966 253.035 191.985 253.274 191.978 253.157C191.978 253.105 191.972 253.057 191.978 253.003C191.978 252.862 191.958 253.084 191.962 253.077C191.976 253.034 191.985 252.989 191.989 252.943C192.001 252.899 192.014 252.854 192.029 252.811C192.096 252.624 191.942 252.98 192.018 252.836C192.063 252.751 192.111 252.671 192.164 252.592C192.264 252.446 192.045 252.73 192.13 252.635C192.17 252.59 192.209 252.543 192.253 252.5C192.297 252.457 192.323 252.432 192.36 252.4C192.397 252.368 192.514 252.275 192.387 252.374C192.26 252.473 192.406 252.364 192.436 252.345C192.481 252.315 192.529 252.287 192.577 252.26C192.587 252.26 192.708 252.2 192.708 252.196C192.708 252.192 192.489 252.279 192.608 252.24C192.72 252.203 192.834 252.171 192.949 252.146C192.683 252.214 192.804 252.163 192.897 252.158C192.943 252.158 192.99 252.158 193.035 252.158C193.235 252.168 192.851 252.119 192.981 252.147C193.033 252.159 193.081 252.168 193.134 252.184C193.294 252.235 193.01 252.115 193.096 252.163C193.133 252.183 193.172 252.201 193.208 252.223C193.37 252.323 193.184 252.196 193.182 252.19C193.201 252.229 193.274 252.269 193.306 252.302C193.338 252.335 193.357 252.36 193.383 252.387C193.449 252.456 193.259 252.212 193.309 252.287C193.345 252.341 193.379 252.396 193.409 252.452C193.509 252.637 193.359 252.299 193.395 252.41C193.424 252.491 193.448 252.574 193.467 252.658C193.477 252.7 193.497 252.847 193.473 252.674C193.449 252.501 193.473 252.681 193.473 252.725C193.478 252.814 193.476 252.904 193.467 252.992C193.45 253.181 193.498 252.826 193.475 252.933C193.465 252.983 193.456 253.033 193.444 253.082C193.424 253.165 193.399 253.247 193.37 253.326C193.304 253.505 193.448 253.162 193.391 253.279C193.369 253.324 193.348 253.371 193.323 253.415C193.28 253.494 193.23 253.568 193.179 253.643C193.128 253.718 193.314 253.477 193.252 253.55C193.207 253.606 193.158 253.66 193.107 253.71C193.075 253.741 193.043 253.769 193.007 253.799C192.907 253.884 193.207 253.66 193.049 253.764C192.976 253.814 192.899 253.851 192.822 253.893C193.061 253.762 192.956 253.839 192.873 253.867C192.831 253.88 192.787 253.891 192.744 253.901C192.678 253.915 192.923 253.891 192.803 253.901C192.748 253.901 192.694 253.908 192.639 253.907C192.584 253.906 192.553 253.9 192.511 253.9C192.774 253.9 192.656 253.923 192.56 253.9C192.513 253.889 192.468 253.877 192.423 253.862C192.233 253.799 192.532 253.923 192.445 253.878C192.36 253.837 192.277 253.79 192.197 253.739C192.052 253.639 192.242 253.771 192.239 253.776C192.236 253.781 192.115 253.667 192.104 253.656C192.065 253.618 192.028 253.579 191.991 253.538C191.856 253.388 192.082 253.675 191.998 253.554C191.934 253.464 191.874 253.37 191.82 253.272C191.795 253.223 191.771 253.172 191.747 253.122C191.704 253.033 191.822 253.322 191.79 253.222C191.74 253.09 191.701 252.953 191.674 252.814C191.636 252.609 191.692 253.03 191.674 252.822C191.67 252.774 191.668 252.725 191.668 252.676C191.668 252.616 191.668 252.556 191.675 252.495C191.682 252.434 191.712 252.351 191.657 252.613C191.67 252.531 191.689 252.449 191.712 252.368C191.724 252.328 191.797 252.142 191.731 252.299C191.665 252.456 191.749 252.274 191.769 252.238C191.8 252.184 191.835 252.138 191.869 252.083C191.926 251.985 191.964 251.877 191.979 251.764C191.993 251.652 191.986 251.537 191.956 251.427C191.911 251.266 191.82 251.122 191.693 251.012C191.566 250.902 191.41 250.832 191.244 250.811C191.078 250.79 190.909 250.818 190.759 250.892C190.609 250.966 190.483 251.083 190.399 251.227"
                    fill="#3D5A77" />
                <path
                    d="M123.353 115.543C127.526 117.043 132.021 116.908 136.37 116.473C141.08 116.002 145.781 115.413 150.484 114.873L158.784 113.927C159.86 113.803 159.873 112.1 158.784 112.227L144.571 113.848C140.103 114.519 135.599 114.927 131.083 115.071C128.607 115.102 126.144 114.706 123.803 113.901C122.77 113.529 122.326 115.174 123.351 115.543"
                    fill="#3D5A77" />
                <path
                    d="M216.205 114.43L223.105 115.61C223.322 115.664 223.552 115.632 223.747 115.521C223.942 115.411 224.087 115.23 224.152 115.015C224.21 114.798 224.18 114.566 224.069 114.37C223.958 114.174 223.774 114.03 223.558 113.968L216.658 112.788C216.44 112.735 216.211 112.767 216.016 112.878C215.821 112.988 215.676 113.169 215.611 113.383C215.553 113.601 215.583 113.833 215.694 114.029C215.805 114.224 215.989 114.369 216.206 114.43"
                    fill="#3D5A77" />
                <path
                    d="M179.75 72.2794L174.925 75.2234C174.387 68.4131 176.573 61.6677 181.005 56.4684C181.716 55.6424 180.518 54.4324 179.805 55.2684C177.279 58.2173 175.404 61.6661 174.303 65.3892C173.202 69.1124 172.899 73.0261 173.414 76.8744C173.449 76.9995 173.513 77.1148 173.6 77.2117C173.687 77.3085 173.795 77.3843 173.915 77.4334C174.036 77.4824 174.166 77.5034 174.296 77.4947C174.426 77.4861 174.552 77.448 174.665 77.3834L180.614 73.7534C181.548 73.1834 180.693 71.7104 179.755 72.2834"
                    fill="#A5613C" />
                <path
                    d="M179.75 72.2794L174.925 75.2234C174.387 68.4131 176.573 61.6677 181.005 56.4684C181.716 55.6424 180.518 54.4324 179.805 55.2684C177.279 58.2173 175.404 61.6661 174.303 65.3892C173.202 69.1124 172.899 73.0261 173.414 76.8744C173.449 76.9995 173.513 77.1148 173.6 77.2117C173.687 77.3085 173.795 77.3843 173.915 77.4334C174.036 77.4824 174.166 77.5034 174.296 77.4947C174.426 77.4861 174.552 77.448 174.665 77.3834L180.614 73.7534C181.55 73.1794 180.69 71.7064 179.75 72.2794Z"
                    stroke="#E5A37F" stroke-width="0.5" stroke-miterlimit="10" />
                <path
                    d="M190.56 76.0874C188.683 75.6652 186.726 75.7523 184.894 76.3397C183.061 76.9271 181.419 77.9934 180.137 79.4284C179.419 80.2514 180.619 81.4614 181.337 80.6284C182.406 79.406 183.783 78.4923 185.325 77.9823C186.867 77.4723 188.517 77.3846 190.104 77.7284C191.17 77.9724 191.626 76.3284 190.556 76.0864"
                    fill="#A5613C" />
                <path
                    d="M190.56 76.0874C188.683 75.6652 186.726 75.7523 184.894 76.3397C183.061 76.9271 181.419 77.9934 180.137 79.4284C179.419 80.2514 180.619 81.4614 181.337 80.6284C182.406 79.406 183.783 78.4923 185.325 77.9823C186.867 77.4723 188.517 77.3846 190.104 77.7284C191.174 77.9744 191.63 76.3324 190.56 76.0874Z"
                    stroke="#E5A37F" stroke-width="0.5" stroke-miterlimit="10" />
                <path
                    d="M170.922 59.6444C170.922 61.6264 169.722 63.2314 168.231 63.2314C166.74 63.2314 165.539 61.6254 165.539 59.6444C165.539 57.6634 166.739 56.0574 168.23 56.0574C169.721 56.0574 170.921 57.6624 170.921 59.6444"
                    fill="black" />
                <path
                    d="M193.941 63.5304C193.941 65.5124 192.741 67.1174 191.25 67.1174C189.759 67.1174 188.559 65.5124 188.559 63.5304C188.559 61.5484 189.759 59.9434 191.25 59.9434C192.741 59.9434 193.941 61.5484 193.941 63.5304Z"
                    fill="black" />
                <path
                    d="M174.933 48.5064C175.034 49.2713 174.888 50.0486 174.517 50.7249C174.145 51.4012 173.568 51.9412 172.868 52.2664C171.454 52.8852 169.921 53.1875 168.378 53.1524L161.543 53.4894C162.901 51.4174 164.835 49.788 167.107 48.802C169.38 47.816 171.891 47.5165 174.332 47.9404L174.933 48.5064Z"
                    fill="black" />
                <path
                    d="M196.684 15.8694C195.483 14.1841 193.934 12.7758 192.143 11.7394C190.351 10.7031 188.358 10.0627 186.298 9.8614C183.81 9.58408 181.294 9.71072 178.846 10.2364C176.427 10.7184 174.114 11.6514 171.68 12.0544C169.227 12.4544 166.791 11.6684 164.341 12.0194C162.498 12.3096 160.768 13.0949 159.335 14.2914C157.855 15.4625 156.733 17.0261 156.097 18.8038C155.462 20.5816 155.339 22.5021 155.742 24.3464C156.263 26.4218 157.395 28.2928 158.992 29.7171C160.589 31.1414 162.577 32.0532 164.698 32.3344C165.783 32.4654 165.774 30.7604 164.698 30.6344C163.065 30.3803 161.534 29.6778 160.276 28.6051C159.018 27.5323 158.082 26.1314 157.573 24.5584C157.102 22.9914 157.104 21.3204 157.578 19.7543C158.052 18.1882 158.977 16.7966 160.237 15.7534C161.466 14.6651 162.979 13.95 164.6 13.6924C166.769 13.3714 168.95 14.0704 171.13 13.8374C173.288 13.4798 175.416 12.9641 177.498 12.2944C179.642 11.7112 181.853 11.4136 184.074 11.4094C188.326 11.4544 192.774 13.0784 195.217 16.7284C195.824 17.6354 197.299 16.7834 196.687 15.8694"
                    fill="black" />
                <path
                    d="M209.057 64.5274C208.991 64.3981 208.886 64.293 208.757 64.2274L203.191 60.6024C202.504 59.6354 201.291 59.4484 200.291 58.9324C199.421 58.3978 198.599 57.7889 197.835 57.1124C194.235 54.3854 189.222 54.1894 184.877 55.4224C184.375 55.6056 183.842 55.6905 183.309 55.6724C182.704 55.5388 182.128 55.2969 181.609 54.9584C180.608 54.4405 179.501 54.1606 178.374 54.1404C177.267 54.2454 176.153 54.228 175.051 54.0884C174.202 53.8119 173.395 53.4217 172.651 52.9284C170.718 51.9169 168.581 51.3566 166.4 51.2898C164.22 51.2229 162.053 51.6512 160.062 52.5424L158.497 52.5974C158.259 52.4963 157.998 52.4639 157.743 52.5038C157.488 52.5437 157.249 52.6544 157.054 52.8232C156.858 52.9921 156.714 53.2124 156.638 53.459C156.562 53.7056 156.556 53.9687 156.622 54.2184C156.689 54.4448 156.802 54.6552 156.953 54.8369C157.104 55.0185 157.29 55.1677 157.501 55.2754C157.671 55.3583 157.832 55.4571 157.984 55.5704C158.925 56.3304 158.541 57.7994 158.316 58.9874C158.057 60.4211 158.215 61.8987 158.77 63.2456C159.325 64.5925 160.254 65.7522 161.448 66.5874C162.679 67.5395 164.141 68.146 165.685 68.3444C167.228 68.5429 168.797 68.3261 170.229 67.7164C174.16 65.9834 176.193 62.2364 176.702 57.9704C176.707 57.6685 176.8 57.3748 176.971 57.1254C177.132 56.9592 177.336 56.8417 177.561 56.7864C178.301 56.56 179.087 56.5235 179.846 56.6804C180.369 56.7901 180.838 57.077 181.175 57.4928C181.511 57.9086 181.693 58.4277 181.691 58.9624C181.635 61.0746 181.806 63.1866 182.2 65.2624C183.842 70.8054 188.636 72.2754 191.033 71.8974C192.533 71.6614 193.824 71.8064 195.082 70.9594C197.055 69.5995 198.606 67.7124 199.559 65.5134C200.003 64.3614 200.39 62.8064 201.621 62.7014C202.068 62.6624 202.529 62.8534 202.954 62.5734C204.992 63.4844 206.464 65.3794 208.329 66.6454C208.629 66.1019 208.866 65.5258 209.036 64.9284C209.085 64.8007 209.092 64.6608 209.058 64.5284M174.551 60.6284C174.359 61.9159 173.825 63.1284 173.005 64.1391C172.185 65.1498 171.108 65.9218 169.888 66.3744C168.618 66.8327 167.255 66.9716 165.919 66.7789C164.583 66.5862 163.315 66.0678 162.227 65.2694C161.31 64.5937 160.595 63.6815 160.157 62.6304C159.79 61.5385 159.628 60.3882 159.68 59.2374C159.55 57.9193 159.844 56.5943 160.519 55.4544C161 54.8424 161.616 54.3494 162.319 54.0134C164.069 53.1599 166.036 52.8521 167.964 53.1301C169.892 53.4081 171.691 54.259 173.13 55.5724C173.684 56.1072 174.109 56.7619 174.372 57.4862C174.634 58.2106 174.728 58.9854 174.645 59.7514L174.551 60.6284ZM198.467 63.6394C198.159 66.1574 196.267 69.1394 193.767 70.0854C192.497 70.5444 191.135 70.6841 189.799 70.4923C188.463 70.3005 187.194 69.783 186.106 68.9854C185.179 68.0468 184.484 66.9044 184.078 65.6494C183.711 64.5576 183.549 63.4071 183.602 62.2564C183.472 60.9386 183.766 59.6139 184.441 58.4744C184.922 57.8618 185.538 57.3681 186.241 57.0314C187.991 56.1781 189.958 55.8705 191.886 56.1487C193.813 56.4269 195.613 57.2779 197.051 58.5914C197.605 59.1261 198.03 59.7805 198.293 60.5047C198.555 61.2289 198.649 62.0036 198.566 62.7694L198.467 63.6394Z"
                    fill="#3D5A77" />
                <path
                    d="M278.121 183.784C273.142 183.513 268.405 181.545 264.699 178.207C260.264 174.185 257.712 168.557 254.904 163.269C243.723 142.22 219.84 95.4924 218.464 93.2534C217.223 91.5103 215.818 89.8893 214.269 88.4124C210.436 84.2075 207.907 78.9792 206.99 73.3634C206.841 71.7224 206.485 70.1069 205.93 68.5554C205.08 66.9414 203.972 65.4774 202.649 64.2214C198.985 60.2212 195.892 55.7325 193.459 50.8834C193.31 50.5784 193.262 50.2334 193.323 49.8992C193.383 49.5649 193.55 49.2589 193.797 49.026C194.044 48.793 194.36 48.6455 194.697 48.6049C195.034 48.5643 195.376 48.6328 195.671 48.8004C200.399 51.5074 203.729 57.5204 209.305 58.9004C209.867 59.0394 210.045 58.3304 210.582 58.1094C212.302 57.4024 211.438 56.6094 211.102 54.9914C209.437 46.9914 208.879 38.4114 207.215 30.4054C206.937 29.0634 207.256 28.5404 208.503 27.9704C210.897 26.8754 212.129 30.3264 212.661 32.6464C214.203 39.3654 216.389 44.7374 217.931 51.4554C215.339 43.5936 214.2 35.3253 214.571 27.0554C214.586 26.6933 214.724 26.3471 214.962 26.0741C215.201 25.8012 215.525 25.618 215.882 25.5548C216.239 25.4916 216.607 25.5524 216.924 25.7269C217.242 25.9015 217.49 26.1793 217.628 26.5144C221.21 35.405 223.733 44.6866 225.143 54.1674C226.733 46.0808 228.322 37.9944 229.912 29.9084C229.992 29.4567 230.222 29.0451 230.564 28.7395C230.906 28.434 231.341 28.2522 231.799 28.2234C232.832 28.1854 233.191 28.9414 233.46 29.6474C237.534 40.3054 232.435 52.4114 234.842 63.6094C234.961 64.2402 235.307 64.8057 235.814 65.1994C236.321 65.593 236.955 65.7876 237.595 65.7464C239.117 65.5924 239.62 63.9854 240.032 62.6464C241.521 57.8651 244.523 53.6973 248.587 50.7714C248.891 50.5425 249.249 50.3956 249.627 50.3448C250.004 50.294 250.388 50.3411 250.742 50.4814C252.022 51.0344 251.892 52.4614 251.683 53.6254C250.928 57.7894 250.174 61.9538 249.421 66.1184C248.242 72.6264 239.196 87.8864 239.145 88.4614C239.092 89.0674 277.883 128.445 290.183 152.475C291.722 155.199 292.818 158.15 293.43 161.218C294.506 168.118 291.205 174.682 287.29 180.653C286.564 181.761 285.554 182.652 284.365 183.235C283.176 183.818 281.852 184.07 280.532 183.965L278.121 183.784Z"
                    fill="#E5A37F" />
                <path
                    d="M226.766 94.1864L235.152 90.6694C235.337 90.6118 235.494 90.4855 235.59 90.3162C235.686 90.1469 235.714 89.9474 235.668 89.7584C235.615 89.5695 235.489 89.4092 235.318 89.3124C235.148 89.2156 234.946 89.1901 234.757 89.2414C231.963 90.4147 229.169 91.5871 226.373 92.7584C226.187 92.816 226.03 92.9423 225.934 93.1116C225.838 93.2808 225.81 93.4803 225.856 93.6694C225.909 93.8581 226.034 94.0182 226.204 94.115C226.375 94.2118 226.576 94.2374 226.766 94.1864Z"
                    fill="#A5613C" />
                <path
                    d="M226.766 94.1864L235.152 90.6694C235.337 90.6118 235.494 90.4855 235.59 90.3162C235.686 90.1469 235.714 89.9474 235.668 89.7584C235.615 89.5695 235.489 89.4092 235.318 89.3124C235.148 89.2156 234.946 89.1901 234.757 89.2414C231.963 90.4147 229.169 91.5871 226.373 92.7584C226.187 92.816 226.03 92.9423 225.934 93.1116C225.838 93.2808 225.81 93.4803 225.856 93.6694C225.909 93.8581 226.034 94.0182 226.204 94.115C226.375 94.2118 226.576 94.2374 226.766 94.1864Z"
                    stroke="#FCB895" stroke-miterlimit="10" />
                <path
                    d="M210.042 82.2904C208.774 79.8334 208.434 77.0614 207.971 74.3694C207.631 71.8258 206.853 69.3603 205.671 67.0824C203.592 63.3994 200.355 60.5754 197.676 57.3564C196.325 55.8176 195.227 54.0734 194.425 52.1894C194.09 51.3374 193.442 49.9524 193.981 49.0834C194.731 47.8744 196.14 48.9834 196.834 49.6524C198.334 51.0894 199.728 52.6394 201.168 54.1304C202.786 55.8064 204.391 57.4964 206.023 59.1584C207.237 60.3964 209.085 60.7784 210.369 59.4184C211.903 57.7914 211.869 55.3364 211.76 53.2554C211.48 47.8814 209.679 42.7674 208.58 37.5384C208.293 36.217 208.074 34.882 207.923 33.5384C207.856 32.9011 207.808 32.2621 207.778 31.6214C207.68 30.9223 207.682 30.2128 207.785 29.5144C207.884 29.2957 208.041 29.1086 208.24 28.9739C208.439 28.8392 208.671 28.7622 208.911 28.7514C209.129 28.7716 209.339 28.8418 209.525 28.9565C209.711 29.0711 209.868 29.2271 209.984 29.4124C210.663 30.4634 211.183 31.6092 211.527 32.8124L218.216 50.0944C218.777 51.5444 219.339 52.9944 219.901 54.4444C220.24 55.3224 221.672 54.9444 221.328 54.0504L215.004 37.7134C215.051 37.6132 215.074 37.5039 215.073 37.3934C215.068 34.5367 215.063 31.6804 215.058 28.8244C215.018 28.2488 215.025 27.6709 215.079 27.0964C215.156 26.6254 215.252 26.3164 215.679 26.7094C216.473 27.5747 217.102 28.5783 217.535 29.6704C218.557 32.0678 219.412 34.5327 220.096 37.0474C220.915 39.7021 221.682 42.3717 222.396 45.0564C223.214 48.1231 223.964 51.2074 224.646 54.3094C224.851 55.2394 226.278 54.8464 226.073 53.9164C224.724 47.7931 223.112 41.7357 221.238 35.7444C220.516 33.0028 219.511 30.3438 218.238 27.8104C217.684 26.8264 216.864 25.2784 215.644 25.0404C214.461 24.8094 213.768 25.8744 213.619 26.8984C213.545 27.6608 213.527 28.4274 213.565 29.1924C213.565 30.0897 213.565 30.9874 213.565 31.8854C213.565 32.6074 213.565 33.3294 213.565 34.0514L212.579 31.5034C212.229 30.3567 211.684 29.2787 210.969 28.3164C210.646 27.8979 210.205 27.5863 209.703 27.4224C209.2 27.2584 208.66 27.2497 208.153 27.3974C207.635 27.5655 207.17 27.8677 206.807 28.2734C206.398 28.7966 206.202 29.4547 206.257 30.1164C206.171 35.7234 207.967 41.0894 209.211 46.4914C209.889 49.188 210.253 51.9541 210.295 54.7344C210.36 55.7977 210.152 56.8599 209.689 57.8194C209.225 58.6504 208.455 59.1424 207.561 58.5594C206.961 58.0838 206.413 57.5447 205.929 56.9514L202.919 53.8344C201.326 52.1854 199.744 50.5254 198.141 48.8864C197.468 48.1238 196.617 47.5397 195.664 47.1864C195.094 47.0085 194.48 47.0348 193.928 47.2608C193.376 47.4868 192.92 47.8983 192.638 48.4244C192.412 48.9644 192.3 49.5457 192.311 50.131C192.322 50.7164 192.455 51.2932 192.701 51.8244C193.042 52.8622 193.489 53.8621 194.035 54.8084C196.189 58.5704 199.542 61.4324 202.25 64.7684C203.672 66.4339 204.779 68.3444 205.517 70.4064C206.482 73.3324 206.672 76.4334 207.401 79.4154C208.623 84.4074 212.182 87.9274 215.891 91.2434C216.807 92.0624 217.725 92.8784 218.622 93.7174C219.322 94.3684 220.366 93.3244 219.668 92.6714C216.247 89.4714 212.222 86.5534 210.026 82.2984"
                    fill="#A5613C" />
                <path
                    d="M210.042 82.2904C208.774 79.8334 208.434 77.0614 207.971 74.3694C207.631 71.8258 206.853 69.3603 205.671 67.0824C203.592 63.3994 200.355 60.5754 197.676 57.3564C196.325 55.8176 195.227 54.0734 194.425 52.1894C194.09 51.3374 193.442 49.9524 193.981 49.0834C194.731 47.8744 196.14 48.9834 196.834 49.6524C198.334 51.0894 199.728 52.6394 201.168 54.1304C202.786 55.8064 204.391 57.4964 206.023 59.1584C207.237 60.3964 209.085 60.7784 210.369 59.4184C211.903 57.7914 211.869 55.3364 211.76 53.2554C211.48 47.8814 209.679 42.7674 208.58 37.5384C208.293 36.217 208.074 34.882 207.923 33.5384C207.856 32.9011 207.808 32.2621 207.778 31.6214C207.68 30.9223 207.682 30.2128 207.785 29.5144C207.884 29.2957 208.041 29.1086 208.24 28.9739C208.439 28.8392 208.671 28.7622 208.911 28.7514C209.129 28.7716 209.339 28.8418 209.525 28.9565C209.711 29.0711 209.868 29.2271 209.984 29.4124C210.663 30.4634 211.183 31.6092 211.527 32.8124L218.216 50.0944C218.777 51.5444 219.339 52.9944 219.901 54.4444C220.24 55.3224 221.672 54.9444 221.328 54.0504L215.004 37.7134C215.051 37.6132 215.074 37.5039 215.073 37.3934C215.068 34.5367 215.063 31.6804 215.058 28.8244C215.018 28.2488 215.025 27.6709 215.079 27.0964C215.156 26.6254 215.252 26.3164 215.679 26.7094C216.473 27.5747 217.102 28.5783 217.535 29.6704C218.557 32.0678 219.412 34.5327 220.096 37.0474C220.915 39.7021 221.682 42.3717 222.396 45.0564C223.214 48.1231 223.964 51.2074 224.646 54.3094C224.851 55.2394 226.278 54.8464 226.073 53.9164C224.724 47.7931 223.112 41.7357 221.238 35.7444C220.516 33.0028 219.511 30.3438 218.238 27.8104C217.684 26.8264 216.864 25.2784 215.644 25.0404C214.461 24.8094 213.768 25.8744 213.619 26.8984C213.545 27.6608 213.527 28.4274 213.565 29.1924C213.565 30.0897 213.565 30.9874 213.565 31.8854C213.565 32.6074 213.565 33.3294 213.565 34.0514L212.579 31.5034C212.229 30.3567 211.684 29.2787 210.969 28.3164C210.646 27.8979 210.205 27.5863 209.703 27.4224C209.2 27.2584 208.66 27.2497 208.153 27.3974C207.635 27.5655 207.17 27.8677 206.807 28.2734C206.398 28.7965 206.202 29.4547 206.257 30.1164C206.171 35.7234 207.967 41.0894 209.211 46.4914C209.889 49.188 210.253 51.9541 210.295 54.7344C210.36 55.7977 210.152 56.8599 209.689 57.8194C209.225 58.6504 208.455 59.1424 207.561 58.5594C206.961 58.0838 206.413 57.5447 205.929 56.9514L202.919 53.8344C201.326 52.1854 199.744 50.5254 198.141 48.8864C197.468 48.1238 196.617 47.5397 195.664 47.1864C195.094 47.0085 194.48 47.0348 193.928 47.2608C193.376 47.4868 192.92 47.8983 192.638 48.4244C192.412 48.9644 192.3 49.5457 192.311 50.131C192.322 50.7164 192.455 51.2932 192.701 51.8244C193.042 52.8622 193.489 53.8621 194.035 54.8084C196.189 58.5704 199.542 61.4324 202.25 64.7684C203.672 66.4339 204.779 68.3444 205.517 70.4064C206.482 73.3324 206.672 76.4334 207.401 79.4154C208.623 84.4074 212.182 87.9274 215.891 91.2434C216.807 92.0624 217.725 92.8784 218.622 93.7174C219.322 94.3684 220.366 93.3244 219.668 92.6714C216.263 89.4604 212.238 86.5454 210.042 82.2904Z"
                    stroke="#FCB895" stroke-width="0.75" stroke-miterlimit="10" />
                <path
                    d="M230.925 54.5774C224.06 55.2562 217.331 56.9381 210.953 59.5694C210.085 59.9284 210.466 61.3604 211.346 60.9964C217.598 58.4029 224.195 56.7392 230.929 56.0584C231.867 55.9654 231.877 54.4834 230.929 54.5784"
                    fill="#A5613C" />
                <path
                    d="M230.925 54.5774C224.06 55.2562 217.331 56.9381 210.953 59.5694C210.085 59.9284 210.466 61.3604 211.346 60.9964C217.598 58.4029 224.195 56.7392 230.929 56.0584C231.864 55.9644 231.873 54.4824 230.925 54.5774Z"
                    stroke="#FCB895" stroke-miterlimit="10" />
                <path
                    d="M97.3901 53.3894H52.5141C43.8061 53.3894 36.7461 59.3194 36.7461 66.6344V82.9344C36.7461 90.2484 43.8061 96.1794 52.5141 96.1794H85.9391C91.3141 102.316 98.3691 111.362 98.3691 111.362L97.2741 96.1784H97.3901C106.098 96.1784 113.158 90.2474 113.158 82.9334V66.6334C113.158 59.3184 106.098 53.3894 97.3901 53.3894Z"
                    fill="#DBDBDB" />
                <path
                    d="M26.5745 -0.441589H71.4475C80.1555 -0.441589 87.2196 5.48841 87.2196 12.8034V29.1034C87.2196 36.4174 80.1595 42.3484 71.4515 42.3484H38.0245C32.6505 48.4864 25.5955 57.5314 25.5955 57.5314L26.6955 42.3484H26.5785C17.8705 42.3484 10.8105 36.4174 10.8105 29.1034V12.8034C10.8065 5.48841 17.8665 -0.441589 26.5745 -0.441589Z"
                    fill="white" />
                <path
                    d="M35.7262 18.3074C35.7262 18.99 35.5238 19.6573 35.1446 20.2248C34.7653 20.7923 34.2263 21.2347 33.5956 21.4958C32.965 21.757 32.2711 21.8253 31.6016 21.692C30.9321 21.5588 30.3172 21.23 29.8346 20.7473C29.3521 20.2646 29.0235 19.6496 28.8904 18.9801C28.7574 18.3106 28.8258 17.6167 29.0872 16.9861C29.3486 16.3555 29.791 15.8166 30.3587 15.4375C30.9263 15.0584 31.5936 14.8562 32.2762 14.8564C33.1913 14.8567 34.0688 15.2204 34.7158 15.8675C35.3628 16.5147 35.7262 17.3923 35.7262 18.3074Z"
                    fill="#54C1D5" />
                <path
                    d="M52.4625 18.3074C52.4623 18.9897 52.2598 19.6566 51.8807 20.2238C51.5015 20.791 50.9627 21.233 50.3323 21.494C49.7019 21.755 49.0083 21.8232 48.3392 21.6901C47.6701 21.5569 47.0554 21.2284 46.573 20.7459C46.0906 20.2635 45.762 19.6489 45.6288 18.9797C45.4957 18.3106 45.5639 17.617 45.8249 16.9866C46.0859 16.3563 46.528 15.8174 47.0952 15.4383C47.6624 15.0591 48.3292 14.8566 49.0115 14.8564C49.4647 14.8564 49.9135 14.9457 50.3321 15.1191C50.7508 15.2925 51.1313 15.5467 51.4517 15.8672C51.7722 16.1876 52.0264 16.5681 52.1998 16.9868C52.3732 17.4055 52.4625 17.8542 52.4625 18.3074Z"
                    fill="#54C1D5" />
                <path
                    d="M69.1989 18.3074C69.1989 18.99 68.9965 19.6572 68.6173 20.2247C68.2381 20.7922 67.6991 21.2345 67.0685 21.4957C66.4379 21.7569 65.744 21.8253 65.0746 21.6921C64.4052 21.5589 63.7903 21.2303 63.3076 20.7476C62.825 20.265 62.4963 19.6501 62.3632 18.9807C62.23 18.3112 62.2984 17.6174 62.5596 16.9868C62.8208 16.3562 63.2631 15.8172 63.8306 15.438C64.3981 15.0588 65.0653 14.8564 65.7479 14.8564C66.2011 14.8564 66.6498 14.9457 67.0685 15.1191C67.4872 15.2925 67.8676 15.5467 68.1881 15.8672C68.5086 16.1876 68.7628 16.5681 68.9362 16.9868C69.1096 17.4055 69.1989 17.8542 69.1989 18.3074Z"
                    fill="#54C1D5" />
                <path
                    d="M63.3336 74.2094C63.3336 74.892 63.1312 75.5592 62.752 76.1267C62.3728 76.6942 61.8339 77.1365 61.2033 77.3977C60.5727 77.6589 59.8788 77.7273 59.2094 77.5941C58.54 77.461 57.925 77.1323 57.4424 76.6496C56.9598 76.167 56.6311 75.5521 56.498 74.8827C56.3648 74.2132 56.4331 73.5194 56.6943 72.8888C56.9555 72.2582 57.3979 71.7192 57.9654 71.34C58.5329 70.9608 59.2001 70.7584 59.8826 70.7584C60.7979 70.7584 61.6757 71.122 62.3229 71.7692C62.9701 72.4164 63.3336 73.2942 63.3336 74.2094Z"
                    fill="#F59F18" />
                <path
                    d="M80.0739 74.2094C80.0739 74.892 79.8715 75.5592 79.4923 76.1267C79.1131 76.6942 78.5741 77.1365 77.9435 77.3977C77.3129 77.6589 76.619 77.7273 75.9496 77.5941C75.2802 77.461 74.6653 77.1323 74.1827 76.6496C73.7 76.167 73.3713 75.5521 73.2382 74.8827C73.105 74.2132 73.1734 73.5194 73.4346 72.8888C73.6958 72.2582 74.1381 71.7192 74.7056 71.34C75.2731 70.9608 75.9403 70.7584 76.6229 70.7584C77.5381 70.7584 78.4159 71.122 79.0631 71.7692C79.7103 72.4164 80.0739 73.2942 80.0739 74.2094Z"
                    fill="#F59F18" />
                <path
                    d="M96.8043 74.2094C96.8041 74.8917 96.6016 75.5586 96.2225 76.1258C95.8433 76.693 95.3045 77.135 94.6741 77.396C94.0437 77.657 93.3501 77.7252 92.681 77.5921C92.0119 77.4589 91.3972 77.1304 90.9148 76.6479C90.4324 76.1655 90.1038 75.5509 89.9706 74.8817C89.8375 74.2126 89.9057 73.519 90.1667 72.8886C90.4277 72.2583 90.8698 71.7194 91.437 71.3403C92.0042 70.9611 92.671 70.7586 93.3533 70.7584C94.2686 70.7584 95.1463 71.122 95.7935 71.7692C96.4407 72.4164 96.8043 73.2942 96.8043 74.2094Z"
                    fill="#F59F18" />
            </g>
        </g>
    </g>
</svg>