<svg width="415" height="287" viewBox="0 0 415 287" fill="none" xmlns="http://www.w3.org/2000/svg">
    <mask id="mask0_251_8681" style="mask-type:luminance" maskUnits="userSpaceOnUse" x="0" y="0"
        width="415" height="287">
        <path d="M414.029 0.859146H0.355469V286.442H414.029V0.859146Z" fill="white" />
    </mask>
    <g mask="url(#mask0_251_8681)">
        <path
            d="M300.257 81.5292C296.507 92.6142 295.207 93.6292 287.875 102.754C282.488 101.869 271.115 92.9111 268.522 88.1071C265.929 83.3031 264.273 77.9741 261.111 73.5241L278.33 57.2772C278.708 56.8331 279.225 56.5302 279.797 56.4182C280.202 56.4197 280.601 56.5206 280.957 56.7122C286.902 59.3482 295.418 64.4271 299.372 69.5901L300.257 81.5292Z"
            fill="#E5A37F" />
        <path
            d="M124.26 104.966C114.682 105.619 101.603 124.22 95.3916 131.54C91.3209 136.078 87.6809 140.984 84.5186 146.196C81.4946 151.506 79.4236 157.327 76.2586 162.554C70.3586 172.296 61.0436 179.402 53.5136 187.946C51.8516 189.83 50.1716 192.22 50.8236 194.646C51.3467 196.044 52.2466 197.27 53.4236 198.188C59.3656 203.745 65.8336 209.565 73.8806 210.764C78.4696 211.448 83.4746 210.609 87.5146 212.89C98.8636 201.731 107.847 196.583 114.975 182.353C119.026 187.023 117.561 190.818 116.743 196.946C115.925 203.074 116.472 204.082 115.894 210.237C115.128 218.384 116.957 226.759 115.002 234.706C127.252 240.467 141.624 238.933 154.843 236.015C168.062 233.097 181.29 228.889 194.805 229.682C201.825 230.093 208.785 231.857 215.805 231.401C224.484 230.838 232.549 226.939 240.359 223.109C240.573 206.669 239.359 160.877 239.27 155.931C239.046 143.004 254.48 135.605 263.087 125.958C271.694 116.311 287.701 111.727 290.974 99.2201C282.288 92.7201 269.302 78.3851 266.004 68.0471C256.931 72.1889 248.466 77.5479 240.842 83.9762C238.075 86.3102 235.36 88.8231 232.036 90.2601C228.143 91.9431 223.763 92.0001 219.523 91.8961C211.06 91.6871 201.381 91.3961 195.61 97.5961C194.47 98.8201 193.479 100.302 191.932 100.94C190.393 101.402 188.753 101.407 187.211 100.956C178.592 99.3011 143.719 103.645 124.263 104.971"
            fill="#F59F18" />
        <path
            d="M189.72 9.84415C182.831 9.1041 175.866 10.0354 169.415 12.5591C168.255 13.0141 166.923 14.3921 167.843 15.2331C168.249 15.5124 168.747 15.6241 169.234 15.5452L179.162 15.1771C174.126 14.9814 169.19 16.619 165.27 19.7861C169.92 22.0441 175.388 21.4282 180.515 20.7612C176.853 21.1305 173.317 22.3016 170.159 24.1912C171.589 25.9192 173.946 26.5912 176.185 26.7402C178.424 26.8892 180.68 26.6032 182.91 26.8402C187.254 27.3102 191.11 29.7092 195.131 31.4052C199.152 33.1012 204.02 34.0462 207.725 31.7312C212.396 28.8122 212.994 22.2112 211.986 16.7952L189.72 9.84415Z"
            fill="#E5A37F" />
        <path
            d="M160.93 86.8372C160.826 88.2271 160.384 89.5705 159.642 90.7502C158.899 91.9299 157.88 92.91 156.671 93.6051C156.23 93.3377 155.848 92.9827 155.55 92.5619C155.251 92.1411 155.041 91.6636 154.935 91.1587C154.828 90.6539 154.825 90.1325 154.928 89.6267C155.03 89.1209 155.235 88.6415 155.53 88.2182C154.119 88.9189 152.543 89.2195 150.973 89.0873C149.403 88.9551 147.899 88.3951 146.625 87.4682C145.351 86.5413 144.355 85.283 143.746 83.8299C143.137 82.3768 142.937 80.7846 143.169 79.2262C143.723 80.4501 141.395 80.6012 140.279 79.8521C138.011 78.3321 135.592 76.6162 134.779 74.0102C133.966 71.4042 135.899 67.8981 138.595 68.3271C135.703 67.0801 132.83 65.1272 131.847 62.1272C130.864 59.1272 132.817 55.1572 135.965 55.1462C135.614 52.9972 135.753 50.7966 136.373 48.709C136.992 46.6214 138.075 44.7009 139.541 43.0912L141.641 43.4611C140.395 39.8991 140.031 35.8721 141.505 32.3991C142.979 28.9261 146.589 26.2252 150.344 26.5992C151.282 26.8167 152.253 26.846 153.201 26.6852C155.171 26.0702 155.544 23.4282 157.001 21.9632C159.641 19.3062 164.62 22.0532 165.353 25.7262C166.086 29.3992 164.144 33.0202 162.269 36.2632C163.13 34.5302 165.769 34.3792 167.293 35.5682C168.817 36.7572 169.425 38.7812 169.653 40.7022C169.945 43.2754 169.723 45.881 169 48.3679C168.278 50.8547 167.068 53.1733 165.442 55.1892C166.733 54.2242 168.723 54.9062 169.649 56.2262C170.467 57.6292 170.812 59.2581 170.632 60.8722C170.379 67.5661 167.814 73.9654 163.372 78.9801C162.724 77.5301 164.865 76.0801 166.294 76.7711C167.723 77.4622 168.24 79.2621 168.218 80.8512C168.179 82.4952 167.742 84.1053 166.944 85.5433C166.146 86.9812 165.011 88.2041 163.636 89.1072C162.427 87.8552 164.974 85.8592 166.331 86.9492C167.688 88.0391 167.411 90.2342 166.494 91.7132C166.001 92.5678 165.306 93.288 164.469 93.8103C163.632 94.3326 162.679 94.641 161.694 94.7082C160.709 94.7345 159.748 94.4043 158.987 93.7784C158.226 93.1525 157.716 92.2728 157.551 91.3012L160.93 86.8372Z"
            fill="#24282F" />
        <path
            d="M207.603 77.8331C207.197 63.6743 206.017 49.5482 204.069 35.5181C204.069 35.5181 173.296 35.8441 157.821 38.1861C157.734 47.5101 156.454 50.7862 158.242 59.9332C156.359 57.7902 152.668 57.5281 150.069 58.9571C148.83 59.6919 147.778 60.7046 146.998 61.9152C146.217 63.1258 145.728 64.5013 145.569 65.9332C145.109 69.4232 146.569 73.2912 149.869 74.9332C153.169 76.5751 158.14 75.0251 159.006 71.5971C159.547 85.0638 160.088 98.5335 160.628 112.006C160.648 112.523 167.153 123.979 185.378 135.518C188.296 128.757 190.365 121.66 191.537 114.39C191.788 114.28 191.158 99.9211 191.583 93.3031C197.262 92.3421 203.753 90.8401 206.356 86.0141C207.705 83.5141 207.684 80.6061 207.605 77.8301"
            fill="#E5A37F" />
        <path
            d="M68.0795 221.773C62.1095 221.719 56.0085 221.683 50.3455 223.383C42.6085 225.707 36.4815 231.031 31.1455 236.567C23.0715 244.937 8.6295 262.503 2.9995 272.354C0.817497 276.163 -1.0705 281.062 1.8545 284.447C4.4545 287.452 262.873 286.069 385.13 286.418C389.848 286.432 406.638 285.418 410.96 283.718C415.282 282.018 413.91 279.167 413.48 274.951C413.204 272.245 360.411 214.928 354.846 213.604C350.974 212.684 346.901 212.824 342.898 212.971C324.482 213.646 93.0555 221.997 68.0805 221.771"
            fill="#666C75" />
        <path
            d="M264.481 256.636C247.939 252.984 231.999 245.299 216.016 239.179C215.577 239.01 215.204 238.703 214.953 238.305C214.702 237.906 214.587 237.437 214.624 236.968C214.661 236.498 214.849 236.053 215.16 235.699C215.47 235.345 215.887 235.101 216.347 235.003L281.187 221.136L332.141 226.148L264.481 256.636Z"
            fill="#CCCAC6" />
        <path
            d="M269.908 234.083C260.668 236.221 245.098 240.088 235.857 242.226L258.214 250.371L282.02 242.018L276.59 234.918L269.908 234.083Z"
            fill="#24282F" />
        <path
            d="M376.418 168.718C360.082 171.386 295.995 181.644 285.551 183.318C285.117 183.388 284.71 183.577 284.378 183.865C284.045 184.152 283.799 184.527 283.667 184.946L261.9 253.746C261.777 254.135 261.756 254.549 261.839 254.948C261.923 255.347 262.108 255.718 262.376 256.025C262.645 256.332 262.988 256.565 263.372 256.701C263.757 256.836 264.17 256.871 264.572 256.8L357.01 240.6C357.443 240.524 357.847 240.329 358.176 240.037C358.504 239.745 358.746 239.367 358.873 238.946L379.073 171.746C379.189 171.361 379.205 170.952 379.119 170.559C379.034 170.166 378.849 169.801 378.584 169.498C378.319 169.196 377.981 168.966 377.602 168.83C377.223 168.694 376.816 168.656 376.419 168.721"
            fill="#CCCAC6" />
        <path
            d="M330.239 206.869C331.803 208.855 330.982 212.043 328.945 213.538C327.877 214.221 326.663 214.642 325.402 214.768C324.14 214.894 322.867 214.72 321.686 214.261C320.822 214.013 320.036 213.551 319.399 212.918C317.952 211.334 318.336 208.718 319.577 206.972C320.195 206.078 321.015 205.343 321.971 204.826C322.926 204.309 323.99 204.025 325.077 203.996C326.165 203.996 327.229 204.317 328.137 204.918C329.044 205.52 329.753 206.375 330.177 207.378L330.239 206.869Z"
            fill="white" />
        <path
            d="M274.043 211.328C270.27 222.431 266.812 233.633 263.667 244.935C262.778 248.13 261.915 251.333 261.078 254.543C261.026 254.761 261.061 254.99 261.175 255.182C261.289 255.375 261.473 255.515 261.689 255.575C261.904 255.634 262.134 255.607 262.331 255.5C262.527 255.393 262.674 255.214 262.741 255.001C265.704 243.655 268.983 232.399 272.579 221.232C273.596 218.076 274.639 214.927 275.706 211.786C276.064 210.733 274.399 210.28 274.043 211.328Z"
            fill="#253C4F" />
        <path
            d="M220.5 234.288C220.166 234.368 219.863 234.541 219.624 234.787C219.385 235.033 219.221 235.342 219.151 235.678C219.071 235.999 219.062 236.334 219.127 236.659C219.191 236.984 219.326 237.291 219.522 237.557C219.763 237.882 220.116 238.107 220.512 238.187C220.737 238.241 220.973 238.21 221.176 238.1C221.374 237.985 221.517 237.796 221.575 237.574C221.633 237.353 221.601 237.118 221.486 236.92C221.431 236.822 221.357 236.737 221.269 236.668C221.18 236.599 221.078 236.549 220.97 236.52C220.902 236.508 220.834 236.489 220.77 236.463L220.976 236.55C220.909 236.521 220.846 236.483 220.788 236.439L220.963 236.574C220.907 236.528 220.855 236.477 220.81 236.42L220.945 236.595C220.888 236.521 220.84 236.439 220.803 236.353C220.832 236.422 220.861 236.49 220.889 236.56C220.84 236.445 220.806 236.323 220.789 236.199L220.82 236.429C220.803 236.296 220.803 236.162 220.82 236.029L220.789 236.258C220.806 236.141 220.836 236.027 220.88 235.917L220.793 236.124C220.83 236.038 220.877 235.956 220.933 235.881L220.798 236.055C220.846 235.993 220.902 235.937 220.964 235.889L220.79 236.024C220.848 235.98 220.912 235.943 220.979 235.915L220.773 236.002C220.832 235.979 220.893 235.962 220.955 235.951C221.172 235.89 221.357 235.746 221.471 235.551C221.586 235.35 221.618 235.111 221.558 234.887C221.497 234.67 221.353 234.485 221.158 234.371C220.954 234.264 220.719 234.233 220.494 234.284"
            fill="#253C4F" />
        <path
            d="M288.775 185.102C288.219 185.001 287.647 185.036 287.107 185.204C286.567 185.372 286.076 185.669 285.675 186.068C284.881 186.822 284.414 187.857 284.375 188.951C284.365 189.579 284.539 190.195 284.875 190.725C284.995 190.915 285.183 191.05 285.401 191.103C285.618 191.156 285.848 191.123 286.041 191.01C286.234 190.897 286.376 190.713 286.436 190.497C286.497 190.282 286.471 190.051 286.364 189.854C286.326 189.795 286.29 189.736 286.257 189.675C286.241 189.645 286.225 189.614 286.21 189.584C286.172 189.5 286.181 189.523 286.236 189.651C286.209 189.538 286.176 189.426 286.136 189.316C286.116 189.23 286.13 189.044 286.125 189.3C286.125 189.253 286.114 189.2 286.111 189.151C286.106 189.018 286.108 188.884 286.118 188.751C286.127 188.569 286.078 188.96 286.112 188.781C286.125 188.714 286.137 188.648 286.152 188.581C286.179 188.465 286.213 188.351 286.252 188.238C286.263 188.206 286.275 188.173 286.288 188.138C286.322 188.053 286.314 188.074 286.261 188.202C286.298 188.143 286.328 188.081 286.351 188.015C286.407 187.908 286.468 187.804 286.535 187.703C286.582 187.652 286.621 187.595 286.654 187.534C286.63 187.618 286.554 187.663 286.649 187.546C286.738 187.44 286.833 187.34 286.934 187.246C286.972 187.211 287.011 187.178 287.049 187.146C287.232 186.993 286.949 187.207 287.076 187.125C287.176 187.06 287.276 186.994 287.376 186.938C287.439 186.914 287.499 186.883 287.556 186.848C287.426 186.902 287.404 186.911 287.489 186.877L287.583 186.844C287.694 186.806 287.807 186.782 287.92 186.755C288.085 186.717 287.701 186.765 287.914 186.755C287.972 186.755 288.031 186.747 288.09 186.746C288.149 186.745 288.225 186.751 288.29 186.754C288.444 186.76 288.075 186.714 288.318 186.759C288.428 186.789 288.542 186.798 288.654 186.784C288.766 186.769 288.875 186.733 288.973 186.678C289.072 186.622 289.158 186.547 289.228 186.457C289.298 186.368 289.349 186.266 289.379 186.157C289.409 186.047 289.417 185.933 289.403 185.821C289.389 185.709 289.353 185.6 289.297 185.502C289.241 185.403 289.167 185.317 289.077 185.247C288.988 185.178 288.886 185.126 288.776 185.096"
            fill="#253C4F" />
        <path
            d="M56.2515 207.322L38.9395 164.089C59.4185 174.295 82.0622 179.397 104.939 178.959C108.88 186.731 112.821 194.503 116.761 202.275C120.872 210.383 125.376 218.921 133.205 223.543C125.73 226.63 117.549 227.597 109.56 226.335C102.181 225.157 95.0345 222.084 87.5675 222.353C84.0675 222.479 80.6405 223.341 77.1505 223.591C70.7225 224.051 64.3505 222.429 58.1065 220.82C57.7854 216.526 56.9991 212.28 55.7615 208.155L56.2515 207.322Z"
            fill="white" />
        <path
            d="M50.9575 193.467C50.7255 182.001 46.6195 171.012 42.5645 160.284C63.8658 169.15 87.0582 172.503 109.998 170.035C113.008 188.673 120.493 206.303 131.81 221.414C123.495 222.208 115.075 222.614 106.81 221.374C100.656 220.448 94.6345 218.613 88.4245 218.208C80.9555 217.721 73.5245 219.322 66.2135 220.908C63.8521 208.97 60.089 197.353 55.0025 186.298L50.9575 193.467Z"
            fill="#DBDBDB" />
        <path
            d="M38.707 190.223C40.0502 189.337 41.0285 187.996 41.462 186.446C41.7762 185.378 42.3647 184.411 43.1687 183.641C43.9728 182.872 44.9644 182.326 46.045 182.058C48.494 181.526 50.989 182.52 53.298 183.493L67.184 189.345C67.6629 189.534 68.081 189.85 68.393 190.259C69.754 192.13 67.593 193.859 65.724 193.997C64.095 194.122 62.401 193.63 60.85 194.141C67.8173 193.495 74.8202 193.32 81.811 193.617C82.571 193.649 84.9 194.733 84.011 196.502C83.194 198.136 77.447 200.339 74.934 200.29C77.568 199.55 82.466 199.154 83.345 200.26C83.6636 200.69 83.8519 201.202 83.8873 201.735C83.9228 202.269 83.804 202.801 83.545 203.269C82.554 205.177 80.489 205.812 78.56 206.362L66.005 209.945C68.9623 209.342 72.0312 209.61 74.839 210.717C75.0792 210.809 75.2883 210.967 75.4419 211.173C75.5956 211.379 75.6874 211.625 75.7067 211.881C75.726 212.138 75.672 212.394 75.5509 212.621C75.4298 212.848 75.2467 213.036 75.023 213.162C73.3862 213.963 71.6233 214.475 69.812 214.676C63.8789 215.611 57.8952 216.19 51.893 216.412C48.006 216.556 43.34 216.119 41.493 212.695C40.779 211.37 40.634 209.786 39.853 208.495C39.191 207.405 38.067 206.489 37.987 205.217C37.916 204.087 38.707 203.102 39.036 202.017C39.636 200.032 38.653 197.963 37.978 196.001C37.303 194.039 37.078 191.516 38.694 190.218"
            fill="#E5A37F" />
        <path
            d="M151.017 58.1751C152.767 57.3901 154.427 59.3611 155.403 61.0112C156.379 62.6612 158.303 64.4941 159.903 63.4301C161.722 62.2171 160.166 59.4212 158.563 57.9352C159.348 57.1431 159.966 56.2024 160.383 55.1683C160.799 54.1341 161.006 53.0272 160.989 51.9125C160.973 50.7977 160.734 49.6974 160.287 48.676C159.84 47.6546 159.194 46.7327 158.386 45.9641C162.045 46.2042 164.57 41.2541 162.681 38.1121C163.241 38.6767 163.912 39.1195 164.651 39.4131C165.39 39.7066 166.182 39.8445 166.977 39.8181C167.772 39.7918 168.553 39.6017 169.271 39.2598C169.989 38.9179 170.629 38.4316 171.151 37.8311C173 38.9419 175.121 39.5185 177.278 39.4969C179.435 39.4754 181.543 38.8566 183.37 37.7091C184.978 39.2625 187.116 40.148 189.352 40.1869C191.587 40.2259 193.755 39.4155 195.416 37.9191C195.994 38.5744 196.71 39.0933 197.512 39.4387C198.314 39.784 199.183 39.9471 200.056 39.9162C200.929 39.8853 201.785 39.6612 202.561 39.26C203.337 38.8588 204.014 38.2906 204.544 37.5961C207.117 40.1281 212.344 38.3541 212.837 34.7781C212.946 33.4378 212.728 32.0911 212.2 30.8541C209.966 24.7211 204.022 19.0541 197.633 20.3851C196.859 18.5768 195.619 17.0059 194.041 15.8323C192.462 14.6587 190.601 13.9242 188.646 13.7037C186.691 13.4833 184.713 13.7846 182.912 14.577C181.112 15.3695 179.554 16.6248 178.396 18.2151C175.792 16.6157 172.769 15.8297 169.715 15.9577C166.662 16.0858 163.715 17.1222 161.254 18.9341C160.138 19.7871 159.171 21.6021 160.321 22.4081C156.513 20.1441 151.664 22.8891 148.621 26.1081C147.401 27.1907 146.586 28.657 146.311 30.2651C146.192 31.8791 147.501 33.6651 149.105 33.4491C145.612 35.6581 141.886 38.1491 140.53 42.0571C139.174 45.9651 141.889 51.3571 145.995 50.8911C144.349 49.6911 141.868 51.5002 141.754 53.5312C141.64 55.5621 143.039 57.3562 144.53 58.7402C146.283 60.3681 149.267 61.6642 150.837 59.8582C151.643 58.9312 152.637 57.2192 153.508 58.0821L151.017 58.1751Z"
            fill="#24282F" />
        <path
            d="M216.319 40.9252C215.016 39.9379 213.613 39.0902 212.133 38.3961C210.641 37.7601 209.019 37.4371 207.588 36.6741C203.188 34.3331 201.882 28.8142 200.005 24.1982C197.623 18.3402 193.486 13.0191 187.834 10.1841C182.734 7.62915 176.851 7.25015 171.389 5.63815C171.104 5.55936 170.843 5.41008 170.631 5.20404C170.419 4.998 170.262 4.74183 170.174 4.45915C169.932 3.60115 170.561 3.08115 171.167 2.70715C176.048 -0.30285 182.32 0.95415 187.892 2.30715C194.868 4.00715 202.059 5.79915 207.792 10.1221C211.411 12.8521 214.271 16.4682 217.772 19.3482C223.927 24.4122 296.937 57.9282 297.536 59.3102C311.094 90.6101 288.205 90.6101 276.795 87.2401C268.095 84.6731 223.318 45.8472 216.322 40.9202"
            fill="#E5A37F" />
        <path
            d="M170.842 6.45915L181.09 8.94415C184.131 9.51261 187.122 10.3249 190.032 11.3731C191.342 11.8994 192.517 12.7127 193.47 13.7531C194.361 14.8764 195.17 16.0617 195.891 17.3001C197.452 19.706 199.622 21.6557 202.181 22.9514C204.739 24.2471 207.595 24.8425 210.458 24.6771C211.558 24.6081 211.568 22.8831 210.458 22.9521C207.799 23.0982 205.15 22.5225 202.791 21.286C200.432 20.0495 198.451 18.1982 197.058 15.9281C196.328 14.6631 195.482 13.468 194.532 12.3581C193.589 11.3726 192.463 10.5793 191.217 10.0221C188.45 8.92389 185.584 8.0957 182.657 7.54915L171.3 4.79615C170.222 4.53415 169.762 6.19615 170.842 6.45915Z"
            fill="#A5613C" />
        <path
            d="M170.842 6.45915L181.09 8.94415C184.131 9.51261 187.121 10.3249 190.032 11.3731C191.341 11.8994 192.516 12.7127 193.47 13.7531C194.36 14.8764 195.169 16.0617 195.891 17.3001C197.452 19.706 199.622 21.6557 202.18 22.9514C204.739 24.2471 207.595 24.8425 210.458 24.6771C211.558 24.6081 211.568 22.8831 210.458 22.9521C207.798 23.0982 205.149 22.5225 202.79 21.286C200.431 20.0495 198.451 18.1982 197.058 15.9281C196.327 14.6631 195.482 13.468 194.532 12.3581C193.588 11.3726 192.462 10.5793 191.217 10.0221C188.45 8.92389 185.583 8.0957 182.657 7.54915L171.3 4.79615C170.223 4.53415 169.763 6.19715 170.842 6.45915Z"
            stroke="#E5A37F" stroke-miterlimit="10" />
        <path
            d="M214.045 25.6741C212.746 28.0548 211.836 30.628 211.35 33.2962C211.296 33.5162 211.328 33.7487 211.439 33.946C211.551 34.1433 211.734 34.2905 211.95 34.3571C212.17 34.4161 212.405 34.3862 212.603 34.274C212.802 34.1618 212.948 33.9762 213.011 33.7571C213.46 31.2344 214.311 28.8001 215.531 26.5471C216.061 25.5711 214.573 24.7001 214.042 25.6761"
            fill="#A5613C" />
        <path
            d="M214.045 25.6742C212.746 28.0548 211.836 30.628 211.35 33.2962C211.296 33.5162 211.328 33.7487 211.439 33.946C211.551 34.1434 211.734 34.2905 211.95 34.3572C212.17 34.4161 212.405 34.3862 212.603 34.274C212.802 34.1618 212.948 33.9762 213.011 33.7572C213.46 31.2344 214.311 28.8001 215.531 26.5472C216.062 25.5662 214.573 24.6942 214.045 25.6742Z"
            stroke="#E5A37F" stroke-miterlimit="10" />
        <path
            d="M272.118 86.0001C279.687 89.5213 288.322 89.9905 296.228 87.3101C297.272 86.9511 296.823 85.2851 295.77 85.6461C288.313 88.2083 280.156 87.8019 272.99 84.5111C271.99 84.0461 271.113 85.5321 272.119 86.0001"
            fill="#A5613C" />
        <path
            d="M272.117 86.0001C279.686 89.5213 288.321 89.9905 296.227 87.3101C297.271 86.9511 296.822 85.2851 295.769 85.6461C288.312 88.2083 280.155 87.8019 272.989 84.5111C271.989 84.0461 271.11 85.5321 272.117 86.0001Z"
            stroke="#E5A37F" stroke-miterlimit="10" />
        <path
            d="M155.686 71.7092C155.39 70.5684 154.958 69.4672 154.399 68.4292C154.368 68.2031 154.253 67.9969 154.077 67.8512C153.02 66.0593 151.61 64.501 149.932 63.2712C149.734 63.1571 149.5 63.1256 149.279 63.1834C149.058 63.2413 148.869 63.3838 148.752 63.5802C148.641 63.7788 148.612 64.0126 148.67 64.2326C148.727 64.4526 148.868 64.6417 149.062 64.7602C150.222 65.6177 151.23 66.6624 152.046 67.8512C151.408 67.9917 150.788 68.2093 150.202 68.4992C150.006 68.6155 149.863 68.8047 149.805 69.0256C149.747 69.2466 149.779 69.4814 149.893 69.6792C150.013 69.8724 150.202 70.0123 150.421 70.07C150.641 70.1277 150.874 70.0987 151.073 69.9892C151.152 69.9492 151.232 69.9102 151.313 69.8742H151.326L151.302 69.8812C151.344 69.867 151.385 69.8503 151.425 69.8312C151.599 69.7632 151.774 69.7012 151.953 69.6472C152.281 69.5509 152.615 69.479 152.953 69.4322H152.982C153.427 70.3041 153.776 71.2218 154.023 72.1692C154.09 72.3825 154.237 72.5615 154.434 72.6685C154.63 72.7754 154.86 72.8021 155.076 72.7427C155.291 72.6833 155.475 72.5426 155.589 72.3502C155.703 72.1578 155.738 71.9287 155.686 71.7112"
            fill="#A5613C" />
        <path
            d="M155.686 71.7092C155.39 70.5684 154.958 69.4672 154.399 68.4292C154.368 68.2031 154.253 67.9969 154.077 67.8512C153.02 66.0593 151.61 64.501 149.932 63.2712C149.734 63.1571 149.5 63.1256 149.279 63.1834C149.058 63.2413 148.869 63.3838 148.752 63.5802C148.641 63.7788 148.612 64.0126 148.67 64.2326C148.727 64.4526 148.868 64.6417 149.062 64.7602C150.222 65.6177 151.23 66.6624 152.046 67.8512C151.408 67.9917 150.788 68.2093 150.202 68.4992C150.006 68.6155 149.863 68.8047 149.805 69.0256C149.747 69.2466 149.779 69.4814 149.893 69.6792C150.013 69.8724 150.202 70.0123 150.421 70.07C150.641 70.1277 150.874 70.0987 151.073 69.9892C151.152 69.9492 151.232 69.9102 151.313 69.8742H151.326L151.302 69.8812C151.344 69.867 151.385 69.8503 151.425 69.8312C151.599 69.7632 151.774 69.7012 151.953 69.6472C152.281 69.5509 152.615 69.479 152.953 69.4322H152.982C153.427 70.3041 153.776 71.2218 154.023 72.1692C154.089 72.3845 154.236 72.5658 154.433 72.6743C154.63 72.7828 154.862 72.8099 155.079 72.7499C155.296 72.6899 155.481 72.5475 155.594 72.353C155.708 72.1586 155.741 71.9276 155.686 71.7092Z"
            stroke="#E5A37F" stroke-miterlimit="10" />
        <path d="M151.326 69.8692C151.389 69.8432 151.48 69.8272 151.326 69.8692V69.8692Z"
            fill="#A5613C" />
        <path d="M151.326 69.8692C151.48 69.8272 151.389 69.8432 151.326 69.8692Z" stroke="#E5A37F"
            stroke-miterlimit="10" />
        <path d="M191.583 93.3051L170.912 92.3641L191.912 100.987L191.583 93.3051Z" fill="#A5613C" />
        <path d="M191.583 93.3051L170.912 92.3641L191.912 100.987L191.583 93.3051Z" stroke="#E5A37F"
            stroke-miterlimit="10" />
        <path
            d="M45.8542 193.983C53.1009 195.159 60.483 195.241 67.7542 194.227C68.8482 194.075 68.3832 192.413 67.2962 192.564C60.3273 193.528 53.2537 193.445 46.3092 192.32C45.2232 192.143 44.7562 193.805 45.8512 193.983"
            fill="#A5613C" />
        <path
            d="M45.8544 193.983C53.1011 195.159 60.4832 195.241 67.7544 194.227C68.8484 194.075 68.3834 192.413 67.2964 192.564C60.3275 193.528 53.2539 193.445 46.3094 192.32C45.2234 192.144 44.7544 193.801 45.8544 193.983Z"
            stroke="#E5A37F" stroke-miterlimit="10" />
        <path
            d="M47.5358 202.893C56.8358 202.893 66.1598 202.616 75.4168 201.741C77.8528 201.511 80.2848 201.229 82.7028 200.858C83.7968 200.69 83.3318 199.027 82.2448 199.195C73.1362 200.432 63.9559 201.067 54.7638 201.095C52.3551 201.144 49.9461 201.168 47.5368 201.168C47.3131 201.176 47.1011 201.27 46.9456 201.431C46.7901 201.592 46.7031 201.807 46.7031 202.031C46.7031 202.254 46.7901 202.469 46.9456 202.63C47.1011 202.791 47.3121 202.886 47.5358 202.893Z"
            fill="#A5613C" />
        <path
            d="M47.5363 202.893C56.8363 202.893 66.1603 202.616 75.4173 201.741C77.8533 201.511 80.2853 201.229 82.7033 200.858C83.7973 200.69 83.3323 199.027 82.2453 199.195C73.1367 200.432 63.9564 201.067 54.7643 201.095C52.3556 201.144 49.9466 201.168 47.5373 201.168C47.3136 201.176 47.1016 201.27 46.9459 201.431C46.7903 201.591 46.7033 201.806 46.7031 202.03C46.703 202.254 46.7898 202.469 46.9452 202.63C47.1007 202.791 47.3126 202.885 47.5363 202.893Z"
            stroke="#E5A37F" stroke-miterlimit="10" />
        <path
            d="M48.5844 211.02C59 212.895 69.7383 211.617 79.4224 207.348C80.4354 206.901 79.5594 205.415 78.5514 205.859C69.2795 209.925 59.0082 211.144 49.0424 209.359C47.9574 209.159 47.4914 210.825 48.5844 211.022"
            fill="#A5613C" />
        <path
            d="M48.5851 211.02C59.0007 212.895 69.739 211.617 79.4231 207.348C80.4361 206.901 79.5601 205.415 78.5521 205.859C69.2802 209.925 59.0089 211.144 49.0431 209.359C47.9571 209.161 47.4911 210.823 48.5851 211.02Z"
            stroke="#E5A37F" stroke-miterlimit="10" />
        <path
            d="M43.8844 190.698C43.8537 198.171 44.2792 205.638 45.1584 213.059C45.2874 214.148 47.0144 214.159 46.8834 213.059C46.0037 205.638 45.5783 198.171 45.6094 190.698C45.6017 190.474 45.5075 190.263 45.3466 190.107C45.1857 189.951 44.9707 189.865 44.7469 189.865C44.5231 189.865 44.308 189.951 44.1471 190.107C43.9862 190.263 43.892 190.474 43.8844 190.698Z"
            fill="#A5613C" />
        <path
            d="M43.8844 190.698C43.8537 198.171 44.2792 205.638 45.1584 213.059C45.2874 214.148 47.0144 214.159 46.8834 213.059C46.0037 205.638 45.5783 198.171 45.6094 190.698C45.6017 190.474 45.5075 190.263 45.3466 190.107C45.1857 189.951 44.9707 189.865 44.7469 189.865C44.5231 189.865 44.308 189.951 44.1471 190.107C43.9862 190.263 43.892 190.474 43.8844 190.698Z"
            stroke="#E5A37F" stroke-miterlimit="10" />
        <path
            d="M199.375 72.0882C194.832 67.1652 191.939 60.9476 191.098 54.3021C190.964 53.2151 189.237 53.2021 189.373 54.3021C190.178 60.8843 192.88 67.0902 197.15 72.1641C194.142 72.6875 191.049 72.4059 188.186 71.3482C187.142 70.9662 186.692 72.6321 187.728 73.0111C191.344 74.3265 195.276 74.5065 198.998 73.5271C199.142 73.4848 199.272 73.406 199.376 73.2985C199.481 73.191 199.556 73.0584 199.594 72.9135C199.633 72.7685 199.633 72.6161 199.595 72.471C199.557 72.3259 199.483 72.193 199.379 72.0852"
            fill="#A5613C" />
        <path
            d="M199.375 72.0882C194.832 67.1652 191.939 60.9476 191.098 54.3021C190.964 53.2151 189.237 53.2021 189.373 54.3021C190.178 60.8843 192.88 67.0902 197.15 72.1641C194.142 72.6875 191.049 72.4059 188.186 71.3482C187.142 70.9662 186.692 72.6321 187.728 73.0111C191.344 74.3265 195.276 74.5065 198.998 73.5271C199.141 73.484 199.27 73.405 199.374 73.2975C199.477 73.19 199.552 73.0577 199.589 72.9133C199.627 72.7689 199.627 72.6172 199.59 72.4727C199.552 72.3282 199.478 72.1958 199.375 72.0882Z"
            stroke="#E5A37F" stroke-miterlimit="10" />
        <path
            d="M186.055 74.2281C184.508 74.1538 182.988 74.6483 181.781 75.6181C181.16 76.1181 180.593 76.7091 180.007 77.2471C179.902 77.3355 179.824 77.4516 179.783 77.5821C179.741 77.7127 179.737 77.8524 179.771 77.9852C179.78 78.1146 179.823 78.2395 179.895 78.3473C179.967 78.4552 180.066 78.5424 180.182 78.6001C183.476 80.411 187.182 81.341 190.941 81.3001C191.169 81.2968 191.386 81.2049 191.547 81.044C191.708 80.8831 191.8 80.6658 191.804 80.4381C191.81 78.8677 191.221 77.3532 190.154 76.2008C189.087 75.0483 187.622 74.3436 186.056 74.2291M185.604 75.9471C186.644 75.9363 187.654 76.2923 188.457 76.9526C189.26 77.6128 189.805 78.535 189.996 79.5571C187.267 79.4661 184.585 78.8178 182.115 77.6522C182.225 77.5522 182.339 77.4521 182.447 77.3521C183.281 76.499 184.411 75.998 185.603 75.9521"
            fill="#A5613C" />
        <path
            d="M179.314 60.1942C179.314 62.1482 178.224 63.7321 176.882 63.7321C175.54 63.7321 174.449 62.1482 174.449 60.1942C174.449 58.2402 175.538 56.6562 176.882 56.6562C178.226 56.6562 179.314 58.2402 179.314 60.1942Z"
            fill="black" />
        <path
            d="M202.086 60.1942C202.086 62.1482 200.997 63.7321 199.653 63.7321C198.309 63.7321 197.221 62.1482 197.221 60.1942C197.221 58.2402 198.31 56.6562 199.653 56.6562C200.996 56.6562 202.086 58.2402 202.086 60.1942Z"
            fill="black" />
        <path
            d="M183.194 46.4022C183.397 47.2823 183.431 48.1933 183.294 49.0861C183.282 49.2931 183.23 49.4958 183.14 49.6823C183.049 49.8688 182.922 50.0353 182.767 50.1722C182.562 50.2942 182.334 50.3725 182.098 50.4022C178.353 51.1308 174.597 51.7958 170.829 52.3971C170.284 52.4831 169.629 52.5361 169.344 51.9691C169.27 51.8122 169.233 51.6402 169.237 51.4667C169.24 51.2932 169.284 51.1229 169.365 50.9691C170.169 49.4141 171.362 48.0932 172.828 47.1347C174.293 46.1762 175.981 45.6125 177.729 45.4982L180.665 44.7371C180.941 44.6653 181.23 44.6523 181.512 44.6991C181.794 44.7459 182.063 44.8513 182.302 45.0086C182.541 45.1659 182.744 45.3716 182.898 45.6123C183.052 45.8531 183.154 46.1235 183.198 46.4061"
            fill="black" />
        <path
            d="M192.406 45.9591C192.202 46.8393 192.168 47.7503 192.306 48.6431C192.317 48.8502 192.369 49.0529 192.459 49.2394C192.55 49.4259 192.677 49.5924 192.833 49.7291C193.037 49.8512 193.265 49.9295 193.502 49.9591C197.246 50.6878 201.003 51.3528 204.771 51.9541C205.316 52.0401 205.971 52.0931 206.256 51.5261C206.33 51.3692 206.366 51.1972 206.363 51.0237C206.359 50.8502 206.315 50.6799 206.235 50.5261C205.43 48.9711 204.237 47.6502 202.771 46.6917C201.306 45.7332 199.618 45.1695 197.871 45.0551L194.935 44.2941C194.658 44.2223 194.369 44.2093 194.087 44.2561C193.805 44.3029 193.536 44.4083 193.297 44.5656C193.058 44.7229 192.855 44.9286 192.701 45.1693C192.547 45.4101 192.445 45.6805 192.402 45.9631"
            fill="black" />
        <path
            d="M182.546 138.553C179.037 131.645 170.029 128.574 162.987 131.653L164.287 132.398C164.632 127.956 162.35 123.918 159.97 120.351C157.77 117.045 154.87 113.351 154.713 109.208C154.646 107.387 155.14 105.373 156.86 104.457C157.84 103.935 156.969 102.446 155.989 102.968C152.415 104.868 152.589 109.677 153.776 112.961C155.358 117.334 158.557 120.8 160.702 124.87C162.025 127.151 162.67 129.762 162.561 132.397C162.506 133.118 163.319 133.378 163.861 133.141C170.08 130.419 178.013 133.421 181.061 139.419C181.561 140.409 183.052 139.537 182.55 138.548"
            fill="#996F1A" />
        <path
            d="M189.161 138.219C190.757 134.775 193.234 131.812 196.342 129.632C199.45 127.451 203.078 126.129 206.861 125.8C207.029 125.795 207.192 125.742 207.331 125.646C207.47 125.551 207.578 125.417 207.642 125.262C207.707 125.106 207.725 124.935 207.694 124.77C207.664 124.604 207.586 124.451 207.471 124.328C205.635 122.716 204.244 120.66 203.432 118.356C202.576 115.871 202.515 113.225 202.083 110.656C201.712 108.362 200.859 106.173 199.58 104.234C198.302 102.294 196.626 100.647 194.664 99.4031C193.723 98.8091 192.856 100.303 193.793 100.892C195.691 102.087 197.286 103.707 198.452 105.624C199.65 107.724 200.387 110.055 200.614 112.462C200.79 115.003 201.32 117.506 202.189 119.9C203.108 122.061 204.495 123.99 206.25 125.551L206.859 124.079C202.775 124.407 198.85 125.807 195.481 128.138C192.111 130.468 189.416 133.647 187.669 137.352C187.211 138.352 188.698 139.232 189.158 138.223"
            fill="#996F1A" />
        <path
            d="M231.547 93.3721C231.608 96.3693 231.823 99.3613 232.193 102.336C232.366 103.713 232.569 105.086 232.802 106.455C232.811 107.167 232.991 107.866 233.326 108.493C233.508 108.687 233.741 108.825 233.998 108.893C234.255 108.96 234.526 108.954 234.78 108.874C236.074 108.495 236.08 106.882 236.2 105.795C236.353 104.427 236.437 103.054 236.454 101.677C236.481 98.7543 236.213 95.8361 235.654 92.9671C235.128 93.1881 234.603 93.4112 234.078 93.6312L241.494 106.177C241.613 106.367 241.802 106.502 242.019 106.555C242.237 106.608 242.466 106.575 242.66 106.462C242.853 106.349 242.995 106.165 243.055 105.949C243.115 105.734 243.089 105.503 242.983 105.306C240.511 101.125 238.039 96.9431 235.567 92.7611C235.457 92.5879 235.289 92.4592 235.094 92.3978C234.898 92.3365 234.687 92.3465 234.498 92.4262C234.309 92.5058 234.154 92.6499 234.061 92.8328C233.969 93.0157 233.944 93.2256 233.991 93.4251C234.438 95.7376 234.684 98.0843 234.727 100.439C234.747 101.584 234.721 102.732 234.647 103.877C234.608 104.472 234.556 105.065 234.492 105.658C234.456 105.992 234.421 106.326 234.371 106.658C234.306 106.854 234.26 107.054 234.232 107.258C234.632 107.515 234.785 107.509 234.691 107.241C234.665 107.104 234.639 106.965 234.614 106.828C234.563 106.551 234.514 106.275 234.467 105.998C234.364 105.398 234.267 104.798 234.176 104.198C234 103.023 233.85 101.845 233.727 100.664C233.472 98.2421 233.321 95.8128 233.274 93.3762C233.266 93.1525 233.172 92.9405 233.011 92.785C232.85 92.6295 232.635 92.5425 232.411 92.5425C232.188 92.5425 231.973 92.6295 231.812 92.785C231.651 92.9405 231.557 93.1525 231.549 93.3762"
            fill="#996F1A" />
        <path
            d="M259.008 80.9521C261.536 85.3748 264.063 89.7975 266.59 94.2201C268.714 97.9201 271.059 101.465 274.803 103.688C277.233 105.131 279.747 106.447 282.219 107.817C283.19 108.356 284.062 106.867 283.09 106.328C280.948 105.14 278.805 103.952 276.663 102.764C274.816 101.786 273.162 100.481 271.781 98.9121C270.47 97.3033 269.309 95.5774 268.313 93.7561C267.113 91.6871 265.938 89.6051 264.752 87.5281C263.334 85.0461 261.915 82.5641 260.497 80.0821C260.378 79.8928 260.189 79.7572 259.972 79.7041C259.754 79.651 259.525 79.6845 259.332 79.7976C259.138 79.9106 258.997 80.0944 258.936 80.31C258.876 80.5256 258.902 80.7562 259.008 80.9531"
            fill="#996F1A" />
        <path
            d="M280.38 100.14C280.404 100.838 280.586 101.521 280.912 102.138C281.238 102.755 281.7 103.29 282.263 103.703C282.773 104.088 283.395 104.297 284.035 104.297C284.674 104.297 285.297 104.088 285.807 103.703C286.184 103.37 286.473 102.948 286.647 102.476C286.822 102.004 286.877 101.496 286.807 100.997C286.749 100.431 286.537 99.8905 286.195 99.4351C285.806 98.9481 285.285 98.583 284.695 98.3831C284.039 98.1744 283.342 98.1333 282.667 98.2634C281.991 98.3936 281.359 98.6908 280.828 99.1281C280.666 99.29 280.575 99.5094 280.575 99.7381C280.575 99.9669 280.666 100.186 280.828 100.348C280.993 100.504 281.211 100.59 281.437 100.59C281.664 100.59 281.882 100.504 282.047 100.348C281.847 100.504 282.147 100.288 282.204 100.255C282.286 100.205 282.37 100.16 282.457 100.118C282.594 100.056 282.579 100.062 282.462 100.112C282.472 100.092 282.572 100.071 282.598 100.062C282.716 100.022 282.836 99.9886 282.958 99.9621L283.099 99.9341C283.278 99.9011 283.079 99.9541 283.069 99.9341C283.069 99.9431 283.354 99.9121 283.384 99.9111C283.484 99.9111 283.593 99.9111 283.698 99.9191C283.849 99.9341 283.83 99.9311 283.693 99.9141C283.709 99.9341 283.836 99.9391 283.86 99.9431C283.961 99.9642 284.062 99.9909 284.16 100.023L284.292 100.07L284.192 100.026L284.292 100.073C284.375 100.114 284.457 100.16 284.535 100.21C284.554 100.222 284.671 100.284 284.673 100.31C284.573 100.231 284.559 100.222 284.63 100.281C284.758 100.399 284.814 100.481 284.882 100.539C284.734 100.422 284.804 100.433 284.859 100.517C284.934 100.637 284.959 100.678 284.978 100.717C285.016 100.79 285.024 100.903 284.97 100.683C284.992 100.774 285.034 100.861 285.059 100.953C285.079 101.026 285.082 101.113 285.108 101.185C285.035 100.985 285.093 101.046 285.101 101.145C285.101 101.192 285.108 101.24 285.109 101.288C285.109 101.367 285.109 101.447 285.109 101.526C285.109 101.573 285.097 101.621 285.096 101.668C285.096 101.426 285.113 101.548 285.096 101.626C285.077 101.718 285.054 101.81 285.025 101.899C284.941 102.152 285.088 101.799 285.011 101.953C284.977 102.021 284.943 102.09 284.903 102.153C284.879 102.191 284.853 102.229 284.829 102.267C284.749 102.391 284.974 102.101 284.822 102.267C284.771 102.323 284.715 102.374 284.66 102.426C284.537 102.541 284.835 102.313 284.691 102.401C284.574 102.475 284.532 102.496 284.491 102.519C284.341 102.603 284.691 102.452 284.524 102.506C284.413 102.547 284.299 102.576 284.183 102.594L284.297 102.578C284.259 102.578 284.22 102.584 284.182 102.586C284.144 102.588 284.105 102.586 284.068 102.586L283.896 102.574L284.01 102.589C283.972 102.583 283.934 102.575 283.896 102.567C283.801 102.546 283.707 102.52 283.615 102.487C283.472 102.432 283.487 102.438 283.602 102.487C283.567 102.493 283.477 102.426 283.442 102.407C283.31 102.354 283.19 102.277 283.086 102.18C283.095 102.194 283.236 102.307 283.116 102.202C283.055 102.148 282.993 102.095 282.934 102.038C282.845 101.953 282.766 101.861 282.685 101.768C282.548 101.613 282.785 101.922 282.672 101.749C282.638 101.698 282.602 101.649 282.572 101.598C282.49 101.464 282.416 101.324 282.351 101.181C282.281 101.033 282.341 101.156 282.351 101.186C282.316 101.096 282.282 101.004 282.251 100.912C282.207 100.773 282.171 100.632 282.143 100.489C282.136 100.457 282.095 100.216 282.128 100.432C282.113 100.332 282.109 100.238 282.102 100.142C282.102 99.9134 282.011 99.694 281.849 99.5323C281.688 99.3705 281.468 99.2796 281.239 99.2796C281.011 99.2796 280.791 99.3705 280.63 99.5323C280.468 99.694 280.377 99.9134 280.377 100.142"
            fill="#996F1A" />
        <path
            d="M184.076 137.105C184.652 142.292 185.229 147.479 185.805 152.666C186.369 157.74 187.11 162.866 186.554 167.974C186.026 172.829 184.669 177.574 184.954 182.497C185.239 187.42 186.508 192.177 186.128 197.132C185.722 202.432 184.295 207.858 186.02 213.073C186.367 214.121 188.033 213.673 187.683 212.614C186.172 208.049 187.23 203.23 187.719 198.585C187.985 196.193 187.999 193.78 187.76 191.385C187.506 188.953 187.06 186.546 186.811 184.114C186.565 181.688 186.602 179.241 186.921 176.823C187.237 174.386 187.743 171.978 188.081 169.545C188.781 164.503 188.295 159.545 187.736 154.519L185.8 137.101C185.679 136.01 183.952 136.001 184.075 137.101"
            fill="#996F1A" />
        <path
            d="M201.854 102.702C208.704 103.541 214.425 98.0501 221.218 98.5841C222.324 98.6711 222.318 96.9461 221.218 96.8591C214.401 96.3241 208.655 101.81 201.854 100.977C200.754 100.843 200.765 102.569 201.854 102.702Z"
            fill="#996F1A" />
        <path
            d="M219.145 94.9201C222.587 102.907 225.611 111.068 228.205 119.37C229.431 123.548 230.265 127.831 231.526 131.998C232.101 133.898 232.908 135.715 233.444 137.624C233.852 139.078 234.126 140.562 234.444 142.037C234.733 143.627 235.234 145.17 235.936 146.625C236.792 148.201 237.999 149.56 239.464 150.596C240.356 151.258 241.217 149.762 240.335 149.107C237.842 147.255 236.781 144.707 236.145 141.76C235.829 140.295 235.564 138.818 235.169 137.37C234.675 135.561 233.915 133.844 233.354 132.058C232.104 128.081 231.314 123.976 230.177 119.967C229.004 115.831 227.609 111.76 226.101 107.734C224.431 103.274 222.622 98.8681 220.813 94.4631C220.397 93.4501 218.728 93.8941 219.15 94.9211"
            fill="#996F1A" />
        <path
            d="M119.691 108.598C121.617 118.233 122.601 128.033 122.631 137.858C122.765 147.632 121.803 157.39 119.765 166.95C118.457 172.306 116.86 177.586 114.979 182.768C114.618 183.82 116.279 184.268 116.642 183.226C118.25 178.54 119.86 173.847 121.042 169.032C122.189 164.219 123.01 159.335 123.498 154.411C124.546 144.564 124.631 134.638 123.751 124.774C123.252 119.19 122.451 113.637 121.351 108.139C121.133 107.052 119.471 107.512 119.688 108.597"
            fill="#996F1A" />
        <path
            d="M127.533 112.888C135.197 114.649 143.1 113.648 150.674 111.921C151.755 111.674 151.298 110.011 150.216 110.258C142.953 111.915 135.345 112.915 127.992 111.225C126.911 110.977 126.451 112.639 127.534 112.889"
            fill="#996F1A" />
        <path
            d="M189.87 174.666C189.859 175.187 190.018 175.697 190.322 176.12C190.663 176.591 191.131 176.954 191.672 177.167C192.143 177.361 192.663 177.401 193.158 177.281C193.653 177.161 194.097 176.888 194.428 176.5C194.74 176.12 194.948 175.664 195.032 175.179C195.115 174.694 195.071 174.195 194.904 173.732C194.712 173.214 194.352 172.775 193.881 172.486C193.452 172.239 192.96 172.125 192.467 172.157C191.894 172.178 191.343 172.378 190.89 172.729C190.437 173.08 190.106 173.564 189.943 174.113C189.89 174.331 189.924 174.561 190.037 174.754C190.151 174.948 190.335 175.089 190.552 175.149C190.768 175.209 190.999 175.182 191.195 175.074C191.392 174.966 191.539 174.786 191.606 174.572C191.616 174.526 191.629 174.481 191.644 174.436C191.707 174.244 191.558 174.605 191.621 174.481C191.656 174.409 191.695 174.339 191.74 174.272C191.851 174.106 191.616 174.412 191.708 174.31C191.731 174.284 191.752 174.258 191.776 174.233C191.8 174.208 191.84 174.167 191.876 174.133C191.912 174.099 192.032 174.006 191.896 174.112C191.76 174.218 191.891 174.118 191.921 174.098C191.951 174.078 192 174.048 192.04 174.025C192.123 173.977 192.387 173.888 192.086 173.99C192.25 173.93 192.42 173.885 192.594 173.858L192.364 173.889C192.524 173.87 192.687 173.87 192.848 173.889L192.619 173.858C192.698 173.869 192.777 173.885 192.855 173.906C192.899 173.919 192.941 173.934 192.985 173.949C193.121 173.995 192.785 173.849 192.906 173.916C192.978 173.954 193.047 173.995 193.115 174.039C193.23 174.114 192.928 173.879 193.077 174.013C193.107 174.04 193.136 174.068 193.163 174.098C193.19 174.128 193.215 174.159 193.242 174.188C193.055 173.981 193.154 174.072 193.197 174.138C193.24 174.204 193.273 174.276 193.311 174.346C193.349 174.416 193.219 174.106 193.28 174.283C193.294 174.321 193.305 174.358 193.316 174.397C193.338 174.48 193.355 174.565 193.367 174.65L193.336 174.42C193.359 174.604 193.359 174.79 193.336 174.973L193.367 174.744C193.354 174.83 193.337 174.915 193.315 174.998C193.29 175.091 193.16 175.361 193.305 175.07C193.269 175.142 193.236 175.214 193.195 175.283C193.177 175.312 193.159 175.341 193.14 175.369C193.027 175.534 193.264 175.227 193.172 175.33C193.12 175.39 193.064 175.448 193.006 175.501C192.857 175.632 193.162 175.401 193.047 175.471C193.018 175.49 192.99 175.509 192.961 175.527C192.932 175.545 192.88 175.571 192.839 175.593C192.713 175.66 193.039 175.521 192.908 175.563C192.813 175.594 192.717 175.619 192.62 175.636L192.849 175.604C192.703 175.623 192.555 175.623 192.409 175.604L192.638 175.635C192.54 175.622 192.443 175.602 192.348 175.574C192.3 175.56 192.254 175.542 192.206 175.526C192.065 175.477 192.401 175.618 192.274 175.554C192.183 175.51 192.096 175.461 192.012 175.407C191.946 175.363 191.826 175.24 192.034 175.43C192.002 175.401 191.966 175.375 191.934 175.345C191.865 175.282 191.801 175.215 191.74 175.145C191.647 175.038 191.88 175.345 191.764 175.171C191.74 175.135 191.717 175.098 191.696 175.061C191.675 175.024 191.656 174.985 191.635 174.947C191.57 174.822 191.72 175.18 191.652 174.983C191.621 174.89 191.598 174.794 191.583 174.696L191.614 174.926C191.602 174.839 191.598 174.752 191.601 174.664C191.599 174.436 191.507 174.218 191.345 174.057C191.184 173.895 190.966 173.804 190.738 173.802C190.51 173.807 190.294 173.899 190.133 174.059C189.972 174.22 189.88 174.437 189.876 174.664"
            fill="#996F1A" />
        <path
            d="M190.754 204.294C190.744 204.815 190.903 205.325 191.206 205.748C191.547 206.219 192.016 206.582 192.556 206.795C193.027 206.989 193.548 207.029 194.043 206.909C194.538 206.789 194.982 206.516 195.312 206.128C195.625 205.748 195.833 205.292 195.917 204.807C196 204.322 195.956 203.823 195.788 203.36C195.597 202.841 195.237 202.402 194.765 202.114C194.337 201.867 193.845 201.753 193.351 201.785C192.779 201.806 192.227 202.006 191.775 202.357C191.322 202.708 190.991 203.192 190.827 203.741C190.774 203.959 190.808 204.189 190.922 204.382C191.036 204.576 191.22 204.717 191.436 204.777C191.653 204.837 191.883 204.81 192.08 204.702C192.277 204.594 192.424 204.414 192.49 204.2C192.501 204.154 192.513 204.109 192.528 204.064C192.592 203.872 192.443 204.233 192.505 204.109C192.54 204.037 192.58 203.967 192.624 203.9C192.736 203.734 192.5 204.04 192.592 203.938C192.615 203.912 192.636 203.886 192.66 203.861C192.684 203.836 192.725 203.795 192.76 203.761C192.795 203.727 192.916 203.634 192.779 203.74C192.642 203.846 192.774 203.746 192.805 203.726C192.836 203.706 192.883 203.676 192.924 203.653C193.008 203.605 193.271 203.516 192.97 203.618C193.135 203.558 193.305 203.514 193.478 203.486L193.248 203.517C193.409 203.498 193.572 203.498 193.733 203.517L193.503 203.486C193.583 203.497 193.662 203.513 193.739 203.534C193.783 203.547 193.826 203.562 193.869 203.577C194.005 203.623 193.669 203.477 193.79 203.544C193.863 203.582 193.931 203.623 193.999 203.667C194.115 203.742 193.812 203.507 193.961 203.641C193.991 203.668 194.02 203.696 194.047 203.726C194.074 203.756 194.099 203.787 194.126 203.816C193.94 203.609 194.038 203.7 194.081 203.766C194.124 203.832 194.157 203.904 194.195 203.974C194.233 204.044 194.103 203.734 194.164 203.911C194.178 203.949 194.19 203.986 194.2 204.025C194.223 204.108 194.24 204.193 194.251 204.278L194.22 204.048C194.244 204.232 194.244 204.418 194.22 204.601L194.251 204.372C194.239 204.458 194.222 204.543 194.199 204.626C194.174 204.719 194.044 204.989 194.189 204.698C194.153 204.77 194.121 204.842 194.079 204.911C194.061 204.94 194.043 204.969 194.024 204.997C193.912 205.162 194.148 204.855 194.056 204.958C194.005 205.018 193.949 205.076 193.89 205.129C193.741 205.26 194.046 205.029 193.931 205.099C193.902 205.118 193.875 205.137 193.845 205.155C193.815 205.173 193.764 205.199 193.723 205.221C193.597 205.288 193.923 205.149 193.792 205.191C193.698 205.223 193.602 205.247 193.504 205.264L193.734 205.232C193.588 205.251 193.44 205.251 193.293 205.232L193.523 205.263C193.425 205.25 193.328 205.23 193.232 205.202C193.184 205.188 193.138 205.17 193.091 205.154C192.949 205.105 193.285 205.246 193.158 205.182C193.068 205.138 192.981 205.089 192.896 205.035C192.83 204.991 192.71 204.868 192.918 205.058C192.886 205.029 192.851 205.003 192.818 204.973C192.75 204.91 192.684 204.844 192.623 204.773C192.53 204.666 192.763 204.973 192.647 204.799C192.623 204.763 192.6 204.726 192.579 204.689C192.558 204.652 192.539 204.613 192.519 204.575C192.453 204.45 192.604 204.808 192.535 204.611C192.504 204.518 192.481 204.422 192.466 204.324L192.497 204.554C192.486 204.467 192.482 204.38 192.484 204.292C192.482 204.064 192.391 203.846 192.229 203.685C192.068 203.523 191.85 203.432 191.621 203.43C191.394 203.435 191.177 203.527 191.017 203.687C190.856 203.848 190.764 204.065 190.759 204.292"
            fill="#996F1A" />
        <path
            d="M190.754 150.787C190.744 151.308 190.903 151.818 191.206 152.241C191.547 152.712 192.016 153.075 192.556 153.288C193.027 153.482 193.548 153.522 194.043 153.402C194.538 153.282 194.982 153.009 195.312 152.621C195.625 152.241 195.833 151.785 195.917 151.3C196 150.815 195.956 150.316 195.788 149.853C195.598 149.335 195.237 148.896 194.765 148.608C194.337 148.361 193.845 148.246 193.351 148.278C192.779 148.299 192.227 148.499 191.775 148.85C191.322 149.201 190.991 149.685 190.827 150.234C190.774 150.452 190.808 150.682 190.922 150.875C191.036 151.069 191.22 151.21 191.436 151.27C191.653 151.33 191.883 151.303 192.08 151.195C192.277 151.087 192.424 150.907 192.49 150.693C192.501 150.647 192.513 150.602 192.528 150.557C192.592 150.365 192.443 150.726 192.505 150.602C192.541 150.53 192.58 150.46 192.624 150.393C192.736 150.227 192.5 150.534 192.592 150.431C192.615 150.405 192.636 150.379 192.66 150.354C192.684 150.329 192.725 150.288 192.76 150.254C192.795 150.22 192.916 150.127 192.779 150.233C192.642 150.339 192.774 150.239 192.805 150.219C192.836 150.199 192.883 150.169 192.924 150.146C193.008 150.098 193.271 150.009 192.97 150.111C193.135 150.051 193.305 150.007 193.478 149.979L193.248 150.011C193.409 149.991 193.572 149.991 193.733 150.011L193.503 149.98C193.583 149.991 193.662 150.007 193.739 150.028C193.783 150.041 193.826 150.056 193.869 150.071C194.005 150.117 193.669 149.971 193.79 150.039C193.863 150.077 193.931 150.117 193.999 150.161C194.115 150.236 193.812 150.001 193.961 150.135C193.991 150.162 194.02 150.19 194.047 150.22C194.074 150.25 194.099 150.281 194.126 150.31C193.94 150.103 194.038 150.194 194.081 150.26C194.124 150.326 194.157 150.398 194.195 150.468C194.233 150.538 194.103 150.228 194.164 150.405C194.178 150.443 194.19 150.48 194.2 150.519C194.223 150.602 194.24 150.687 194.251 150.772L194.22 150.542C194.244 150.726 194.244 150.912 194.22 151.095L194.251 150.866C194.239 150.952 194.222 151.037 194.199 151.121C194.174 151.213 194.044 151.483 194.189 151.192C194.153 151.264 194.121 151.336 194.079 151.405C194.061 151.434 194.043 151.463 194.024 151.491C193.912 151.656 194.148 151.349 194.056 151.453C194.004 151.513 193.949 151.57 193.89 151.623C193.741 151.754 194.046 151.523 193.931 151.593C193.902 151.612 193.875 151.631 193.845 151.649C193.815 151.667 193.764 151.693 193.723 151.715C193.597 151.782 193.923 151.644 193.792 151.686C193.698 151.717 193.602 151.741 193.504 151.758L193.734 151.727C193.588 151.745 193.44 151.745 193.293 151.727L193.523 151.758C193.425 151.745 193.328 151.725 193.232 151.697C193.184 151.683 193.138 151.665 193.091 151.648C192.949 151.598 193.285 151.74 193.158 151.677C193.068 151.633 192.981 151.583 192.896 151.529C192.83 151.485 192.71 151.362 192.918 151.553C192.886 151.523 192.851 151.497 192.818 151.467C192.75 151.404 192.684 151.337 192.623 151.267C192.53 151.161 192.763 151.467 192.647 151.293C192.623 151.257 192.6 151.22 192.579 151.183C192.558 151.146 192.539 151.107 192.519 151.069C192.453 150.944 192.604 151.302 192.535 151.105C192.504 151.012 192.481 150.916 192.466 150.818L192.497 151.048C192.486 150.961 192.482 150.874 192.484 150.786C192.482 150.558 192.391 150.34 192.229 150.179C192.068 150.017 191.85 149.926 191.621 149.924C191.394 149.929 191.177 150.021 191.017 150.181C190.856 150.342 190.764 150.559 190.759 150.786"
            fill="#996F1A" />
        <path
            d="M136.846 157.926C148.073 159.025 159.358 159.402 170.634 159.054L169.772 158.192C169.336 167.825 168.9 177.458 168.464 187.092L169.326 186.23C158.485 185.114 147.569 184.93 136.697 185.682C136.974 186.045 137.251 186.409 137.528 186.774C139.176 176.907 136.616 166.966 137.766 157.074L136.159 157.509C137.291 159.643 138.843 161.527 140.72 163.046C142.598 164.566 144.764 165.691 147.087 166.354C152.252 167.831 157.554 166.554 162.218 164.136C164.965 162.648 167.587 160.938 170.055 159.021C170.933 158.364 170.075 156.866 169.185 157.532C165.105 160.584 160.728 163.615 155.698 164.808C153.457 165.351 151.126 165.408 148.861 164.974C146.597 164.54 144.451 163.627 142.57 162.294C140.5 160.831 138.812 158.891 137.649 156.639C137.215 155.802 136.131 156.304 136.042 157.073C134.911 166.804 137.486 176.616 135.866 186.314C135.833 186.442 135.829 186.576 135.855 186.705C135.881 186.835 135.936 186.957 136.016 187.062C136.096 187.167 136.199 187.253 136.317 187.312C136.435 187.372 136.565 187.404 136.697 187.406C147.569 186.655 158.485 186.839 169.326 187.955C169.554 187.952 169.772 187.86 169.933 187.699C170.094 187.538 170.186 187.32 170.189 187.092C170.624 177.459 171.06 167.826 171.496 158.192C171.494 157.964 171.402 157.746 171.241 157.584C171.08 157.423 170.862 157.331 170.634 157.329C159.358 157.677 148.072 157.299 136.846 156.199C135.746 156.091 135.746 157.816 136.846 157.924"
            fill="#996F1A" />
        <path
            d="M210.406 177.341C203.552 179.506 197.2 182.913 190.923 186.361C184.19 190.06 177.459 193.762 170.731 197.466L159.231 203.789C158.237 204.335 159.11 205.715 160.102 205.278C164.642 203.278 169.215 201.349 173.819 199.492C178.348 197.669 182.896 195.808 187.529 194.264C190.034 193.347 192.675 192.855 195.342 192.808L194.733 191.336C188.252 197.545 180.783 202.632 172.633 206.391C171.627 206.856 172.502 208.343 173.504 207.88C181.785 204.05 189.373 198.871 195.957 192.555C196.073 192.433 196.151 192.28 196.182 192.114C196.213 191.948 196.195 191.777 196.131 191.621C196.066 191.466 195.958 191.332 195.819 191.236C195.68 191.141 195.517 191.088 195.348 191.083C190.448 191.034 185.815 193.003 181.314 194.716C176.563 196.525 171.843 198.414 167.154 200.381C164.505 201.493 161.866 202.629 159.238 203.788L160.109 205.277L180.225 194.213C186.725 190.639 193.16 186.913 199.794 183.6C203.359 181.779 207.061 180.241 210.866 179C211.921 178.666 211.466 177 210.408 177.336"
            fill="#996F1A" />
        <path
            d="M111.284 131.756C110.601 133.79 110.37 135.949 110.609 138.081C110.615 138.308 110.709 138.523 110.869 138.684C111.029 138.844 111.245 138.937 111.472 138.944C111.7 138.943 111.918 138.851 112.08 138.69C112.241 138.528 112.332 138.309 112.334 138.081C112.102 136.104 112.311 134.101 112.948 132.215C112.999 131.998 112.965 131.769 112.851 131.576C112.737 131.384 112.553 131.243 112.337 131.184C112.122 131.124 111.891 131.151 111.695 131.258C111.499 131.365 111.352 131.544 111.285 131.757"
            fill="#996F1A" />
        <path
            d="M114.642 134.797L114 137.177C113.97 137.286 113.961 137.4 113.975 137.513C113.989 137.625 114.025 137.734 114.081 137.832C114.137 137.931 114.212 138.017 114.301 138.087C114.391 138.156 114.493 138.208 114.602 138.238C114.711 138.268 114.825 138.276 114.938 138.262C115.05 138.248 115.159 138.212 115.257 138.156C115.356 138.1 115.442 138.025 115.512 137.936C115.581 137.847 115.633 137.744 115.663 137.635L116.306 135.255C116.357 135.038 116.323 134.809 116.209 134.616C116.095 134.424 115.911 134.283 115.695 134.224C115.48 134.164 115.249 134.191 115.053 134.298C114.857 134.405 114.709 134.584 114.642 134.797Z"
            fill="#996F1A" />
        <path
            d="M117.446 116.636C116.666 118.216 116.523 120.035 117.046 121.717C117.073 121.83 117.122 121.936 117.191 122.029C117.259 122.123 117.346 122.201 117.446 122.26C117.546 122.319 117.656 122.358 117.771 122.373C117.886 122.388 118.003 122.38 118.115 122.35C118.226 122.319 118.331 122.266 118.422 122.194C118.512 122.122 118.588 122.032 118.643 121.931C118.699 121.829 118.733 121.717 118.744 121.602C118.756 121.486 118.744 121.37 118.709 121.259C118.655 121.091 118.609 120.921 118.567 120.748C118.545 120.648 118.525 120.548 118.508 120.448C118.496 120.384 118.476 120.223 118.494 120.378C118.451 120.015 118.441 119.649 118.464 119.284C118.469 119.196 118.479 119.108 118.486 119.02C118.493 118.932 118.498 118.92 118.486 119.02C118.491 118.982 118.497 118.945 118.504 118.908C118.532 118.734 118.569 118.56 118.613 118.39C118.657 118.22 118.713 118.05 118.769 117.885C118.799 117.8 118.83 117.719 118.864 117.637C118.789 117.817 118.919 117.528 118.933 117.499C118.995 117.401 119.036 117.292 119.055 117.178C119.073 117.063 119.069 116.947 119.041 116.834C119.014 116.722 118.964 116.616 118.895 116.523C118.826 116.43 118.739 116.352 118.639 116.294C118.539 116.235 118.428 116.198 118.313 116.183C118.199 116.168 118.082 116.177 117.97 116.208C117.859 116.239 117.755 116.292 117.664 116.364C117.574 116.437 117.499 116.526 117.444 116.628"
            fill="#996F1A" />
        <path
            d="M208.937 142.624C208.526 144.21 208.449 145.864 208.71 147.481C208.772 147.701 208.919 147.887 209.117 147.999C209.316 148.112 209.551 148.141 209.771 148.081C209.988 148.014 210.171 147.867 210.282 147.67C210.394 147.473 210.426 147.24 210.371 147.02C210.362 146.966 210.354 146.912 210.346 146.858C210.356 146.938 210.357 146.947 210.346 146.884C210.336 146.784 210.324 146.694 210.314 146.598C210.299 146.435 210.287 146.271 210.279 146.107C210.261 145.751 210.261 145.395 210.279 145.039C210.288 144.875 210.3 144.71 210.316 144.547C210.325 144.447 210.337 144.357 210.348 144.261C210.356 144.199 210.355 144.206 210.348 144.287C210.356 144.233 210.364 144.179 210.373 144.125C210.43 143.773 210.505 143.425 210.596 143.081C210.657 142.861 210.628 142.625 210.515 142.426C210.459 142.328 210.384 142.241 210.295 142.172C210.205 142.102 210.103 142.051 209.994 142.021C209.773 141.96 209.538 141.989 209.339 142.102C209.14 142.215 208.994 142.403 208.933 142.623"
            fill="#996F1A" />
        <path
            d="M215.506 135.118C215.392 135.222 215.291 135.339 215.206 135.466C215.158 135.534 215.117 135.606 215.084 135.682C214.951 135.961 214.878 136.264 214.87 136.573C214.863 136.846 214.913 137.118 215.016 137.371C215.119 137.623 215.274 137.852 215.47 138.042C215.634 138.2 215.852 138.29 216.08 138.295C216.25 138.295 216.417 138.245 216.559 138.15C216.701 138.055 216.811 137.92 216.876 137.763C216.941 137.605 216.958 137.432 216.925 137.264C216.892 137.097 216.809 136.944 216.689 136.823C216.646 136.784 216.606 136.741 216.57 136.696L216.705 136.87C216.648 136.796 216.601 136.714 216.565 136.628L216.652 136.834C216.614 136.74 216.587 136.642 216.573 136.541L216.604 136.771C216.588 136.655 216.588 136.538 216.604 136.422L216.573 136.652C216.587 136.551 216.614 136.453 216.652 136.358L216.565 136.564C216.602 136.478 216.649 136.397 216.705 136.322L216.57 136.496C216.615 136.439 216.665 136.387 216.721 136.34C216.882 136.178 216.973 135.96 216.974 135.731C216.972 135.503 216.881 135.284 216.721 135.121C216.559 134.96 216.34 134.869 216.112 134.868L215.882 134.899C215.738 134.939 215.606 135.015 215.501 135.121"
            fill="#996F1A" />
        <path
            d="M218.553 147.994C218.226 149.522 218.149 151.093 218.323 152.646C218.329 152.873 218.421 153.089 218.582 153.25C218.742 153.41 218.958 153.503 219.185 153.509C219.607 153.49 220.103 153.127 220.048 152.646C219.963 151.924 219.935 151.197 219.964 150.47C219.978 150.113 220.009 149.759 220.05 149.405C220.082 149.127 220.023 149.572 220.065 149.295C220.079 149.21 220.091 149.126 220.105 149.042C220.137 148.842 220.176 148.649 220.217 148.454C220.249 148.344 220.258 148.23 220.245 148.116C220.232 148.003 220.197 147.893 220.141 147.793C220.085 147.694 220.01 147.606 219.92 147.536C219.83 147.465 219.727 147.414 219.617 147.383C219.507 147.353 219.392 147.345 219.279 147.359C219.165 147.374 219.056 147.411 218.957 147.468C218.858 147.525 218.772 147.601 218.702 147.691C218.633 147.782 218.582 147.886 218.553 147.996"
            fill="#996F1A" />
        <path
            d="M245.235 122.373L245.727 125.787C245.787 126.005 245.931 126.19 246.127 126.302C246.328 126.418 246.567 126.449 246.792 126.389C247.009 126.328 247.194 126.184 247.307 125.989C247.411 125.784 247.441 125.549 247.394 125.324L246.902 121.911C246.842 121.693 246.698 121.508 246.502 121.395C246.404 121.338 246.296 121.3 246.184 121.285C246.072 121.27 245.957 121.276 245.848 121.305C245.738 121.334 245.635 121.384 245.545 121.452C245.455 121.521 245.379 121.606 245.322 121.704C245.218 121.909 245.187 122.144 245.235 122.369"
            fill="#996F1A" />
        <path
            d="M248.83 120.928C248.59 121.844 248.722 122.819 249.199 123.637C249.315 123.83 249.499 123.973 249.715 124.037C249.88 124.083 250.055 124.078 250.218 124.023C250.381 123.969 250.523 123.867 250.628 123.731C250.732 123.595 250.794 123.431 250.805 123.26C250.816 123.089 250.775 122.918 250.689 122.77C250.632 122.673 250.58 122.573 250.534 122.47L250.621 122.676C250.528 122.455 250.464 122.223 250.43 121.986L250.461 122.216C250.431 121.978 250.431 121.738 250.461 121.5L250.43 121.729C250.446 121.616 250.468 121.504 250.497 121.394C250.556 121.17 250.525 120.932 250.411 120.73C250.326 120.583 250.199 120.465 250.046 120.391C249.894 120.316 249.723 120.287 249.555 120.309C249.386 120.331 249.228 120.403 249.1 120.514C248.972 120.626 248.88 120.772 248.835 120.936"
            fill="#996F1A" />
        <path
            d="M253.857 117.762V120.133C253.857 120.362 253.948 120.581 254.11 120.743C254.272 120.905 254.491 120.996 254.72 120.996C254.949 120.996 255.168 120.905 255.33 120.743C255.492 120.581 255.582 120.362 255.582 120.133V117.762C255.582 117.533 255.492 117.314 255.33 117.152C255.168 116.991 254.949 116.9 254.72 116.9C254.491 116.9 254.272 116.991 254.11 117.152C253.948 117.314 253.857 117.533 253.857 117.762Z"
            fill="#996F1A" />
        <path
            d="M92.9683 181.204L85.9443 212.385C85.7003 213.466 87.3633 213.927 87.6073 212.843L94.6313 181.662C94.8753 180.581 93.2123 180.12 92.9683 181.204Z"
            fill="#BAA98C" />
        <path
            d="M97.9228 186.255C96.2755 193.491 94.6278 200.727 92.9798 207.964C92.7338 209.045 94.3968 209.505 94.6428 208.422L99.5848 186.713C99.8318 185.632 98.1698 185.172 97.9228 186.255Z"
            fill="#BAA98C" />
        <path
            d="M22.3649 276.462H373.944C374.168 276.455 374.38 276.36 374.535 276.199C374.691 276.038 374.778 275.823 374.778 275.6C374.778 275.376 374.691 275.161 374.535 275C374.38 274.839 374.168 274.745 373.944 274.737H22.3649C22.1412 274.745 21.9292 274.839 21.7737 275C21.6182 275.161 21.5312 275.376 21.5312 275.6C21.5312 275.823 21.6182 276.038 21.7737 276.199C21.9292 276.36 22.1412 276.455 22.3649 276.462Z"
            fill="#C1C1C1" />
        <path
            d="M401.142 267.121C401.65 268.078 401.958 269.128 402.045 270.207C402.133 271.287 401.999 272.373 401.652 273.398C401.305 274.424 400.752 275.368 400.027 276.173C399.301 276.977 398.42 277.625 397.435 278.076C397.239 278.192 397.096 278.382 397.038 278.603C396.98 278.824 397.012 279.058 397.126 279.256C397.245 279.45 397.434 279.59 397.654 279.647C397.874 279.705 398.107 279.676 398.306 279.566C403.226 277.476 405.306 270.825 402.632 266.251C402.513 266.062 402.324 265.926 402.107 265.873C401.889 265.82 401.66 265.854 401.466 265.967C401.273 266.08 401.131 266.263 401.071 266.479C401.011 266.695 401.037 266.925 401.143 267.122"
            fill="#C1C1C1" />
        <path
            d="M98.9118 263.592H146.332C146.555 263.585 146.767 263.49 146.923 263.329C147.078 263.169 147.165 262.953 147.165 262.73C147.165 262.506 147.078 262.291 146.923 262.13C146.767 261.969 146.555 261.875 146.332 261.867H98.9118C98.6881 261.875 98.4761 261.969 98.3206 262.13C98.1651 262.291 98.0781 262.506 98.0781 262.73C98.0781 262.953 98.1651 263.169 98.3206 263.329C98.4761 263.49 98.6881 263.585 98.9118 263.592Z"
            fill="#C1C1C1" />
        <path
            d="M113.816 255.458H144.977C145.201 255.451 145.413 255.356 145.568 255.195C145.724 255.034 145.811 254.819 145.811 254.596C145.811 254.372 145.724 254.157 145.568 253.996C145.413 253.835 145.201 253.741 144.977 253.733H113.816C113.592 253.741 113.38 253.835 113.225 253.996C113.069 254.157 112.982 254.372 112.982 254.596C112.982 254.819 113.069 255.034 113.225 255.195C113.38 255.356 113.592 255.451 113.816 255.458Z"
            fill="#C1C1C1" />
        <path
            d="M323.138 260.882H352.944C353.168 260.875 353.38 260.78 353.535 260.619C353.691 260.458 353.778 260.243 353.778 260.02C353.778 259.796 353.691 259.581 353.535 259.42C353.38 259.259 353.168 259.165 352.944 259.157H323.138C322.915 259.165 322.703 259.259 322.547 259.42C322.392 259.581 322.305 259.796 322.305 260.02C322.305 260.243 322.392 260.458 322.547 260.619C322.703 260.78 322.915 260.875 323.138 260.882Z"
            fill="#C1C1C1" />
        <path
            d="M328.556 255.458H344.814C345.038 255.451 345.25 255.356 345.405 255.195C345.561 255.034 345.648 254.819 345.648 254.596C345.648 254.372 345.561 254.157 345.405 253.996C345.25 253.835 345.038 253.741 344.814 253.733H328.556C328.333 253.741 328.121 253.835 327.965 253.996C327.81 254.157 327.723 254.372 327.723 254.596C327.723 254.819 327.81 255.034 327.965 255.195C328.121 255.356 328.333 255.451 328.556 255.458Z"
            fill="#C1C1C1" />
        <path
            d="M183.739 242.041C185.748 239.182 187.187 235.963 187.979 232.559C188.207 231.877 188.205 231.14 187.973 230.459C187.68 230.023 187.29 229.661 186.834 229.4C186.378 229.14 185.868 228.989 185.344 228.959C180.993 228.214 176.594 227.79 172.182 227.688L161.842 227.198C159.428 227.084 156.4 227.341 155.513 229.59C155.164 230.477 155.26 231.498 154.872 232.368C154.228 233.814 152.523 234.375 151.152 235.168C149.06 236.491 147.564 238.576 146.98 240.981C146.396 243.386 146.77 245.924 148.023 248.059C148.638 249.154 149.66 249.962 150.867 250.309C151.495 250.442 152.152 250.382 152.781 250.509C154.643 250.879 155.796 252.701 156.729 254.354C158.18 257.204 160.011 259.842 162.174 262.198C163.262 263.371 164.573 264.316 166.029 264.978C167.486 265.64 169.06 266.006 170.66 266.054C172.411 265.932 174.135 265.555 175.777 264.933C181.55 263.189 187.214 261.1 192.738 258.678C194.393 257.912 196.299 256.568 195.956 254.778C195.724 253.971 195.231 253.263 194.556 252.764C192.671 251.124 190.445 249.923 188.039 249.248C190.647 249.318 191.655 245.361 190.009 243.336C188.363 241.311 185.499 240.857 182.901 240.616L183.739 242.041Z"
            fill="#DBDBDB" />
        <path
            d="M204.935 221.502C206.331 219.769 207.318 217.743 207.823 215.575C208.328 213.407 208.338 211.153 207.851 208.981C207.672 207.889 207.15 206.882 206.359 206.108C204.826 204.808 202.433 205.286 200.748 206.381C199.063 207.476 197.756 209.081 196.048 210.139C195.546 210.499 194.945 210.696 194.327 210.701C193.723 210.602 193.15 210.367 192.651 210.014C190.391 208.595 187.675 208.094 185.058 208.614C183.766 208.905 182.6 209.596 181.724 210.589C180.849 211.582 180.31 212.826 180.184 214.144C180.122 216.317 181.443 218.277 182.862 219.924C185.624 223.124 189.012 225.865 191.069 229.563C191.701 230.939 192.457 232.254 193.33 233.491C195.202 235.75 198.348 236.624 201.277 236.457C204.197 236.133 207.053 235.373 209.748 234.202C211.724 233.336 213.836 232.821 215.989 232.678C217.154 232.765 218.323 232.773 219.489 232.702C223.33 232.141 225.475 227.234 223.966 223.659C222.457 220.084 218.305 218.134 214.428 218.313C211.601 218.444 208.562 219.47 206.08 218.113L204.935 221.502Z"
            fill="#DBDBDB" />
        <path
            d="M174.643 204.298C174.987 202.874 175.038 201.395 174.792 199.951C174.547 198.507 174.01 197.128 173.215 195.898C172.581 194.777 171.537 193.944 170.302 193.575C168.328 193.145 166.407 194.667 165.428 196.435C164.449 198.203 164.082 200.248 163.195 202.063C163.052 202.4 162.84 202.703 162.571 202.952C162.103 203.268 161.554 203.444 160.99 203.461C157.469 203.899 153.827 204.498 150.899 206.502C147.971 208.506 145.976 212.308 147.136 215.66C147.545 216.687 148.16 217.618 148.943 218.399C149.725 219.179 150.659 219.791 151.686 220.198C152.416 220.45 153.108 220.801 153.742 221.241C154.434 221.952 155.011 222.767 155.452 223.655C157.896 227.468 163.08 228.744 167.528 227.882C171.976 227.02 175.874 224.448 179.642 221.932C179.677 219.89 179.911 217.856 180.342 215.859C180.946 212.365 180.207 208.771 178.274 205.798C176.226 202.955 172.393 201.267 169.074 202.378L174.643 204.298Z"
            fill="#DBDBDB" />
        <path
            d="M141.218 227.691C142.963 225.701 141.918 222.202 139.558 221.01C137.198 219.818 134.166 220.658 132.267 222.501C130.452 224.458 129.325 226.953 129.057 229.608C126.381 229.612 123.72 230.021 121.166 230.82C119.891 231.23 118.724 231.921 117.751 232.842C116.777 233.762 116.023 234.889 115.542 236.139C114.587 239.145 115.859 242.364 117.175 245.231C118.827 248.831 121.23 252.857 125.175 253.245C128.075 253.53 130.717 251.674 132.875 249.727C135.033 247.78 137.175 245.562 139.996 244.847C141.457 244.477 143.013 244.541 144.445 244.07C147.833 242.955 149.663 238.806 148.719 235.37C148.161 233.67 147.154 232.153 145.803 230.979C144.453 229.806 142.81 229.019 141.049 228.704L141.218 227.691Z"
            fill="#DBDBDB" />
        <path
            d="M210.46 226.236C209.204 227.706 207.423 228.627 205.497 228.801C203.571 228.976 201.654 228.39 200.154 227.17C198.744 225.903 197.535 223.007 199.812 221.913C202.089 220.819 204.465 222.662 206.193 223.98C206.26 223.454 206.328 222.929 206.399 222.404C204.572 222.681 203.227 220.89 202.318 219.573C201.106 217.817 200.118 215.891 198.47 214.481C197.655 213.728 196.688 213.158 195.634 212.812C194.58 212.465 193.464 212.35 192.361 212.473C191.341 212.582 190.371 212.973 189.562 213.604C188.752 214.235 188.135 215.079 187.781 216.042C187.442 217.062 187.463 218.168 187.84 219.174C188.217 220.18 188.928 221.027 189.854 221.573C190.837 222.085 191.711 220.597 190.725 220.084C190.07 219.692 189.589 219.065 189.379 218.332C189.169 217.598 189.246 216.811 189.594 216.132C190.062 215.375 190.754 214.781 191.573 214.432C192.392 214.083 193.299 213.996 194.17 214.182C198.252 214.888 199.614 219.236 202.014 221.997C202.567 222.739 203.306 223.321 204.157 223.685C205.008 224.048 205.94 224.181 206.858 224.068C207.687 223.943 207.572 222.88 207.064 222.492C205.184 221.057 203.077 219.607 200.589 219.93C199.518 220.016 198.523 220.518 197.819 221.33C197.114 222.141 196.757 223.197 196.823 224.269C197.166 228.655 201.974 230.955 205.915 230.483C208.155 230.257 210.221 229.173 211.68 227.457C212.38 226.603 211.163 225.376 210.46 226.237"
            fill="#999999" />
        <path
            d="M215.626 224.132C215.635 223.974 215.575 224.294 215.626 224.149C215.637 224.116 215.647 224.083 215.655 224.049C215.662 224.06 215.566 224.205 215.617 224.138C215.646 224.097 215.672 224.053 215.692 224.007C215.724 223.917 215.643 224.101 215.632 224.08C215.621 224.059 215.709 223.999 215.719 223.988C215.776 223.943 215.628 224.034 215.703 223.988C215.757 223.957 215.803 223.92 215.859 223.888C216 223.801 215.859 223.893 215.847 223.888C215.909 223.874 215.969 223.854 216.028 223.829C216.092 223.824 216.155 223.81 216.216 223.789C216.21 223.796 216.033 223.8 216.123 223.803C216.215 223.798 216.307 223.798 216.399 223.803C216.599 223.809 216.28 223.767 216.415 223.803C216.467 223.818 216.521 223.829 216.573 223.845C216.605 223.86 216.638 223.872 216.673 223.882C216.659 223.89 216.523 223.799 216.59 223.851C216.634 223.884 216.681 223.911 216.731 223.934C216.815 223.972 216.657 223.893 216.665 223.881C216.673 223.869 216.765 223.971 216.77 223.981C216.794 224.006 216.815 224.034 216.84 224.058C216.832 224.05 216.761 223.938 216.81 224.019C216.859 224.1 216.893 224.153 216.934 224.219C217.017 224.355 216.907 224.108 216.955 224.26C216.979 224.336 217.004 224.41 217.022 224.488C217.04 224.566 217.042 224.729 217.041 224.562C217.041 224.631 217.05 224.7 217.051 224.77C217.052 224.84 217.051 224.909 217.045 224.979C217.045 225.026 217.037 225.073 217.031 225.119C217.04 225.046 217.051 225.003 217.031 225.099C216.998 225.25 216.956 225.399 216.906 225.545C216.894 225.578 216.881 225.612 216.868 225.645C216.873 225.633 216.931 225.519 216.883 225.601C216.835 225.683 216.798 225.77 216.749 225.851C216.712 225.912 216.673 225.97 216.633 226.028C216.613 226.055 216.593 226.081 216.571 226.105C216.447 226.248 216.313 226.381 216.171 226.505L216.08 226.584C216.08 226.584 215.906 226.721 215.98 226.668C216.054 226.615 215.942 226.695 215.937 226.698L215.803 226.792C215.634 226.906 215.459 227.014 215.281 227.114C214.911 227.323 214.526 227.506 214.139 227.682C213.942 227.798 213.799 227.987 213.741 228.209C213.683 228.43 213.715 228.664 213.83 228.862C213.949 229.055 214.138 229.195 214.358 229.252C214.577 229.31 214.811 229.281 215.01 229.172C215.886 228.809 216.7 228.311 217.424 227.698C218.155 227.049 218.625 226.157 218.748 225.187C218.815 224.736 218.776 224.276 218.633 223.843C218.491 223.41 218.249 223.017 217.927 222.694C217.612 222.419 217.235 222.227 216.828 222.133C216.421 222.04 215.997 222.048 215.595 222.158C215.137 222.259 214.725 222.506 214.42 222.861C214.115 223.216 213.934 223.661 213.903 224.128C213.904 224.356 213.996 224.575 214.157 224.736C214.319 224.898 214.537 224.989 214.766 224.99C214.993 224.985 215.209 224.893 215.37 224.732C215.53 224.571 215.623 224.355 215.628 224.128"
            fill="#999999" />
        <path
            d="M172.753 207.256C175.939 209.578 176.084 214.856 172.763 217.109C171.986 217.647 171.102 218.01 170.171 218.175C169.241 218.339 168.286 218.3 167.372 218.06C165.609 217.56 163.623 215.773 164.106 213.751C164.395 212.538 166.885 211.58 167.406 213.09L168.467 212.03C164.254 211.042 160.227 206.968 155.667 209.114C154.908 209.474 154.27 210.044 153.829 210.758C153.387 211.471 153.161 212.297 153.178 213.136C153.133 213.918 153.352 214.693 153.799 215.336C154.247 215.979 154.897 216.454 155.647 216.683C155.864 216.735 156.093 216.7 156.286 216.586C156.478 216.472 156.619 216.288 156.678 216.073C156.738 215.857 156.711 215.627 156.604 215.431C156.497 215.234 156.318 215.087 156.105 215.02C155.653 214.844 155.283 214.506 155.066 214.072C154.849 213.639 154.8 213.141 154.929 212.673C155.053 212.016 155.399 211.421 155.908 210.987C156.417 210.553 157.06 210.307 157.729 210.288C161.449 209.849 164.541 212.881 168.006 213.688C168.152 213.726 168.306 213.725 168.453 213.685C168.599 213.645 168.732 213.568 168.839 213.461C168.946 213.354 169.024 213.22 169.064 213.074C169.103 212.928 169.104 212.774 169.067 212.627C168.289 210.386 165.422 210.127 163.687 211.433C161.33 213.202 162.356 216.611 164.267 218.288C168.551 222.047 175.925 219.235 176.818 213.682C177.064 212.196 176.896 210.67 176.331 209.273C175.767 207.875 174.828 206.661 173.618 205.763C172.718 205.108 171.858 206.605 172.747 207.252"
            fill="#999999" />
        <path
            d="M169.354 203.041C168.312 203.721 167.463 204.658 166.888 205.761C166.314 206.865 166.033 208.098 166.074 209.341C166.074 209.57 166.165 209.789 166.327 209.951C166.489 210.113 166.708 210.204 166.937 210.204C167.165 210.204 167.385 210.113 167.547 209.951C167.708 209.789 167.799 209.57 167.799 209.341C167.787 209.09 167.79 208.838 167.808 208.587C167.813 208.518 167.821 208.449 167.828 208.379C167.844 208.227 167.792 208.579 167.837 208.318C167.857 208.193 167.881 208.07 167.908 207.948C167.963 207.703 168.032 207.46 168.115 207.223C168.138 207.157 168.163 207.092 168.188 207.023C168.207 206.974 168.233 206.911 168.197 206.996C168.252 206.868 168.313 206.742 168.377 206.617C168.492 206.393 168.619 206.176 168.759 205.967C168.868 205.792 168.994 205.628 169.135 205.478C169.31 205.279 169.498 205.091 169.697 204.916C169.74 204.879 169.781 204.843 169.825 204.808C169.869 204.773 169.975 204.691 169.88 204.761C169.993 204.677 170.107 204.599 170.225 204.523C170.419 204.404 170.559 204.215 170.617 203.995C170.674 203.775 170.645 203.542 170.534 203.343C170.417 203.147 170.228 203.005 170.007 202.948C169.787 202.89 169.552 202.921 169.354 203.034"
            fill="#999999" />
        <path
            d="M161.592 220.011C161.725 219.911 161.526 220.048 161.513 220.056C161.461 220.088 161.406 220.117 161.353 220.146C161.275 220.187 161.216 220.195 161.329 220.16C161.262 220.181 161.198 220.204 161.129 220.221C161.103 220.227 160.912 220.271 161.041 220.244C161.17 220.217 160.964 220.249 160.951 220.25C160.835 220.255 160.722 220.245 160.607 220.24C160.814 220.249 160.607 220.24 160.558 220.226C160.509 220.212 160.442 220.199 160.385 220.182C160.328 220.165 160.269 220.147 160.212 220.127C160.192 220.12 159.967 220.027 160.14 220.105C159.889 219.993 159.649 219.86 159.421 219.705C159.365 219.667 159.309 219.626 159.253 219.587C159.132 219.503 159.267 219.601 159.196 219.545C159.075 219.448 158.957 219.348 158.841 219.245C158.617 219.041 158.403 218.825 158.2 218.599C158.094 218.48 157.99 218.358 157.889 218.235L157.781 218.099C157.868 218.21 157.708 217.999 157.708 217.999C157.528 217.753 157.36 217.5 157.202 217.239C157.083 217.05 156.895 216.914 156.677 216.861C156.46 216.808 156.23 216.842 156.037 216.955C155.843 217.068 155.702 217.251 155.641 217.467C155.581 217.683 155.607 217.913 155.713 218.11C157.09 220.377 160.103 223.359 162.813 221.236C162.974 221.074 163.064 220.855 163.064 220.626C163.064 220.398 162.974 220.178 162.813 220.016C162.649 219.859 162.43 219.772 162.203 219.772C161.976 219.772 161.758 219.859 161.593 220.016"
            fill="#999999" />
        <path
            d="M174.841 228.434C170.515 226.957 165.474 225.272 160.965 227.009C157.551 228.325 154.496 231.497 154.823 235.383C154.915 236.483 156.641 236.491 156.548 235.383C156.269 232.062 159.024 229.408 162.005 228.47C166.086 227.185 170.522 228.78 174.382 230.099C175.434 230.458 175.882 228.793 174.84 228.435"
            fill="#999999" />
        <path
            d="M164.869 236.071L178.079 236.12L177.248 235.487C177.306 235.76 177.261 236.045 177.123 236.288C176.985 236.531 176.763 236.714 176.499 236.804C176.386 236.872 176.291 236.964 176.219 237.074C176.147 237.185 176.101 237.309 176.084 237.44C176.068 237.57 176.081 237.702 176.122 237.827C176.164 237.951 176.233 238.065 176.325 238.159C178.205 240.322 180.543 242.959 180.454 246.022C180.388 248.289 178.228 251.036 175.76 250.176C175.683 250.742 175.606 251.306 175.53 251.87C178.256 252.084 182.065 253.292 182.007 256.633C182.045 257.214 181.898 257.791 181.587 258.283C181.275 258.774 180.816 259.154 180.275 259.367C179.302 259.531 178.302 259.366 177.434 258.897C176.538 258.514 175.664 258.083 174.815 257.606C171.815 255.928 168.931 252.834 170.572 249.206C171.193 247.831 172.205 246.197 171.535 244.658C170.884 243.158 168.969 242.831 167.535 242.501C164.386 241.774 160.556 241.612 158.493 244.566C157.856 245.478 159.351 246.341 159.982 245.437C161.832 242.789 166.029 243.803 168.589 244.567C169.325 244.786 170.126 245.02 170.017 245.941C169.826 246.782 169.51 247.589 169.08 248.336C168.667 249.158 168.428 250.057 168.376 250.975C168.325 251.894 168.462 252.813 168.78 253.676C170.145 257.319 174.007 259.521 177.498 260.776C178.307 261.148 179.208 261.274 180.088 261.137C180.968 261 181.789 260.607 182.447 260.006C182.903 259.494 183.251 258.894 183.469 258.243C183.687 257.592 183.77 256.904 183.715 256.22C183.427 252.07 179.106 250.436 175.524 250.154C174.505 250.075 174.424 251.545 175.295 251.848C178.552 252.982 181.61 249.897 182.089 246.848C182.689 243.006 179.878 239.642 177.538 236.948C177.479 237.399 177.421 237.851 177.363 238.303C177.958 238.021 178.437 237.542 178.718 236.947C178.999 236.351 179.065 235.677 178.905 235.038C178.853 234.857 178.743 234.698 178.594 234.584C178.444 234.47 178.261 234.407 178.073 234.405L164.863 234.356C164.639 234.364 164.427 234.458 164.271 234.619C164.116 234.78 164.029 234.995 164.029 235.219C164.029 235.442 164.116 235.658 164.271 235.818C164.427 235.979 164.639 236.074 164.863 236.081"
            fill="#999999" />
        <path
            d="M156.111 238.404C155.711 239.54 155.541 240.744 155.611 241.946C155.682 243.148 155.992 244.323 156.522 245.404C156.64 245.6 156.829 245.742 157.049 245.8C157.27 245.858 157.504 245.826 157.702 245.713C157.896 245.595 158.037 245.405 158.095 245.185C158.152 244.965 158.122 244.732 158.011 244.533C157.595 243.652 157.359 242.695 157.318 241.721C157.278 240.747 157.432 239.775 157.773 238.861C157.832 238.641 157.803 238.406 157.69 238.208C157.578 238.01 157.393 237.863 157.173 237.8C156.953 237.744 156.72 237.775 156.522 237.887C156.325 237.999 156.178 238.183 156.112 238.4"
            fill="#999999" />
        <path
            d="M141.556 234.45C142.93 233.884 144.114 235.098 144.461 236.366C144.614 237.076 144.48 237.818 144.087 238.43C143.695 239.042 143.077 239.473 142.368 239.631C141.57 239.866 140.73 239.925 139.907 239.804C139.084 239.683 138.297 239.385 137.6 238.931C136.77 238.368 135.873 237.913 134.928 237.576C133.828 237.257 132.647 237.632 131.57 237.301C131.101 237.149 130.689 236.857 130.389 236.465C130.09 236.072 129.918 235.598 129.895 235.105C129.872 234.612 130 234.124 130.262 233.705C130.524 233.287 130.907 232.958 131.36 232.763C132.17 232.437 132.188 230.946 131.131 231.07C127.531 231.489 126.997 235.491 125.456 238.076C124.905 238.831 124.306 239.551 123.664 240.231C123.089 240.95 122.815 241.864 122.9 242.78C122.961 243.667 123.329 244.505 123.941 245.15C124.552 245.795 125.369 246.208 126.251 246.316C126.788 246.336 127.322 246.245 127.822 246.049C128.323 245.854 128.777 245.558 129.158 245.18C129.539 244.801 129.839 244.349 130.038 243.851C130.237 243.352 130.332 242.818 130.316 242.281C130.243 241.181 128.516 241.171 128.591 242.281C128.703 243.969 126.556 245.44 125.244 244.036C124.987 243.767 124.799 243.44 124.697 243.082C124.595 242.724 124.582 242.346 124.659 241.982C124.874 241.128 125.768 240.544 126.294 239.882C127.203 238.558 127.944 237.126 128.501 235.619C129.02 234.48 129.716 232.959 131.13 232.794C131.053 232.229 130.977 231.664 130.9 231.1C130.314 231.315 129.784 231.658 129.349 232.105C128.914 232.552 128.584 233.09 128.384 233.681C128.185 234.272 128.12 234.901 128.196 235.52C128.271 236.139 128.484 236.733 128.82 237.259C129.177 237.788 129.649 238.229 130.199 238.551C130.75 238.872 131.366 239.066 132.002 239.117C132.751 239.09 133.501 239.111 134.247 239.181C134.954 239.382 135.622 239.698 136.226 240.116C138.266 241.35 140.552 242.068 142.91 241.263C143.98 240.975 144.906 240.304 145.512 239.377C146.118 238.451 146.363 237.333 146.198 236.238C145.769 234.009 143.463 231.809 141.098 232.785C140.086 233.202 140.529 234.872 141.556 234.448"
            fill="#999999" />
        <path
            d="M137.346 225.92C135.735 226.235 134.311 227.164 133.375 228.512C133.26 228.71 133.228 228.945 133.286 229.166C133.344 229.387 133.487 229.576 133.684 229.692C133.882 229.802 134.116 229.831 134.335 229.773C134.555 229.716 134.744 229.576 134.864 229.383C134.89 229.346 134.917 229.31 134.943 229.274C135.004 229.184 134.806 229.442 134.923 229.299C134.974 229.237 135.023 229.174 135.078 229.114C135.185 228.993 135.297 228.877 135.414 228.765C135.479 228.704 135.545 228.644 135.614 228.585C135.664 228.542 135.773 228.485 135.802 228.431C135.773 228.485 135.659 228.539 135.777 228.452L135.865 228.39C135.938 228.339 136.014 228.29 136.089 228.242C136.226 228.156 136.366 228.076 136.511 228.002C136.583 227.965 136.655 227.932 136.729 227.902C136.744 227.894 136.911 227.823 136.774 227.881C136.637 227.939 136.792 227.875 136.821 227.864C137.139 227.742 137.468 227.65 137.804 227.59C138.023 227.528 138.209 227.382 138.321 227.183C138.434 226.984 138.463 226.749 138.404 226.529C138.337 226.312 138.19 226.129 137.993 226.017C137.795 225.906 137.563 225.874 137.343 225.929"
            fill="#999999" />
        <path
            d="M327.749 140.582C329.405 149.27 330.663 158.019 331.523 166.83C331.63 167.93 333.355 167.935 333.248 166.83C332.375 157.875 331.096 148.973 329.411 140.124C329.204 139.035 327.541 139.496 327.748 140.582"
            fill="#89C7E0" />
        <path
            d="M337.717 150.98C337.821 155.479 337.926 159.979 338.032 164.48C338.039 164.704 338.134 164.916 338.295 165.071C338.455 165.227 338.67 165.314 338.894 165.314C339.118 165.314 339.333 165.227 339.494 165.071C339.655 164.916 339.749 164.704 339.757 164.48C339.651 159.98 339.546 155.48 339.442 150.98C339.434 150.756 339.34 150.545 339.179 150.389C339.018 150.233 338.803 150.147 338.579 150.147C338.355 150.147 338.14 150.233 337.98 150.389C337.819 150.545 337.724 150.756 337.717 150.98Z"
            fill="#89C7E0" />
        <path
            d="M354.506 148.991C352.885 153.409 351.856 158.022 351.446 162.71C351.346 163.815 353.073 163.81 353.171 162.71C353.582 158.177 354.59 153.718 356.171 149.449C356.556 148.406 354.89 147.956 354.508 148.991"
            fill="#89C7E0" />
        <path
            d="M260.793 160.362C266.75 166.674 272.379 173.288 277.658 180.177C278.324 181.047 279.822 180.188 279.147 179.306C273.784 172.295 268.065 165.564 262.012 159.139C261.249 158.33 260.031 159.551 260.792 160.359"
            fill="#89C7E0" />
        <path
            d="M274.466 159.177L283.137 175.377C283.661 176.356 285.15 175.486 284.626 174.506C281.735 169.106 278.845 163.706 275.955 158.306C275.431 157.327 273.942 158.198 274.466 159.177Z"
            fill="#89C7E0" />
        <path
            d="M289.832 156.846C289.953 161.667 290.588 166.46 291.726 171.146C291.987 172.224 293.651 171.767 293.389 170.688C292.287 166.152 291.673 161.51 291.557 156.843C291.549 156.619 291.455 156.408 291.294 156.252C291.133 156.096 290.918 156.01 290.695 156.01C290.471 156.01 290.256 156.096 290.095 156.252C289.934 156.408 289.84 156.619 289.832 156.843"
            fill="#89C7E0" />
        <path
            d="M383.583 166.338C389.296 161.669 395.942 158.277 403.074 156.39C403.288 156.323 403.467 156.176 403.574 155.98C403.681 155.783 403.707 155.553 403.648 155.338C403.588 155.122 403.448 154.938 403.255 154.824C403.063 154.71 402.834 154.675 402.616 154.727C395.201 156.704 388.295 160.247 382.364 165.118C381.505 165.818 382.732 167.037 383.584 166.338"
            fill="#89C7E0" />
        <path
            d="M388.636 170.516C392.58 168.86 396.841 168.095 401.114 168.275C402.225 168.319 402.223 166.594 401.114 166.55C396.537 166.38 391.978 167.226 387.766 169.027C387.57 169.144 387.428 169.333 387.37 169.554C387.312 169.775 387.344 170.009 387.457 170.207C387.577 170.4 387.766 170.54 387.986 170.598C388.205 170.655 388.438 170.626 388.636 170.516Z"
            fill="#89C7E0" />
        <path
            d="M391.702 178.99L401.702 180.007C401.93 180.006 402.149 179.914 402.31 179.753C402.472 179.591 402.563 179.373 402.565 179.144C402.56 178.917 402.467 178.7 402.307 178.54C402.146 178.379 401.929 178.287 401.702 178.282L391.702 177.265C391.474 177.267 391.255 177.358 391.094 177.52C390.932 177.681 390.841 177.9 390.84 178.128C390.845 178.355 390.937 178.572 391.098 178.732C391.258 178.893 391.475 178.985 391.702 178.99Z"
            fill="#89C7E0" />
        <path
            d="M28.859 263.397H50.877C51.1007 263.39 51.3126 263.295 51.4682 263.134C51.6237 262.974 51.7106 262.758 51.7106 262.535C51.7106 262.311 51.6237 262.096 51.4682 261.935C51.3126 261.774 51.1007 261.68 50.877 261.672H28.859C28.6354 261.68 28.4234 261.774 28.2679 261.935C28.1123 262.096 28.0254 262.311 28.0254 262.535C28.0254 262.758 28.1123 262.974 28.2679 263.134C28.4234 263.295 28.6354 263.39 28.859 263.397Z"
            fill="#C1C1C1" />
        <path
            d="M32.3825 254.587H43.8315C44.0551 254.58 44.2671 254.485 44.4226 254.324C44.5781 254.164 44.6651 253.948 44.6651 253.725C44.6651 253.501 44.5781 253.286 44.4226 253.125C44.2671 252.964 44.0551 252.87 43.8315 252.862H32.3825C32.1588 252.87 31.9468 252.964 31.7913 253.125C31.6358 253.286 31.5488 253.501 31.5488 253.725C31.5488 253.948 31.6358 254.164 31.7913 254.324C31.9468 254.485 32.1588 254.58 32.3825 254.587Z"
            fill="#C1C1C1" />
        <path
            d="M66.7301 233.449H94.9131C95.1368 233.442 95.3487 233.347 95.5043 233.186C95.6598 233.025 95.7467 232.81 95.7467 232.587C95.7467 232.363 95.6598 232.148 95.5043 231.987C95.3487 231.826 95.1368 231.732 94.9131 231.724H66.7301C66.5064 231.732 66.2945 231.826 66.139 231.987C65.9834 232.148 65.8965 232.363 65.8965 232.587C65.8965 232.81 65.9834 233.025 66.139 233.186C66.2945 233.347 66.5064 233.442 66.7301 233.449Z"
            fill="#C1C1C1" />
        <path
            d="M80.8219 239.615H92.2709C92.4946 239.608 92.7065 239.513 92.8621 239.352C93.0176 239.191 93.1045 238.976 93.1045 238.753C93.1045 238.529 93.0176 238.314 92.8621 238.153C92.7065 237.992 92.4946 237.898 92.2709 237.89H80.8219C80.5982 237.898 80.3863 237.992 80.2307 238.153C80.0752 238.314 79.9883 238.529 79.9883 238.753C79.9883 238.976 80.0752 239.191 80.2307 239.352C80.3863 239.513 80.5982 239.608 80.8219 239.615Z"
            fill="#C1C1C1" />
        <path
            d="M360.323 183.228L339.542 182.391L338.824 200.203L344.642 203.411L359.485 204.011L360.323 183.228Z"
            fill="#89C7E0" />
        <path d="M344.644 203.415L344.883 197.478L338.826 200.207L344.644 203.415Z" fill="#2699AF" />
        <path
            d="M358.822 188.855L340.631 188.122C340.052 188.099 340.131 187.202 340.71 187.222L358.901 187.955C359.48 187.978 359.401 188.875 358.822 188.855Z"
            fill="#2699AF" />
        <path d="M317.74 204.024L296.35 207.014L295.643 227.434L316.59 224.263L317.74 204.024Z"
            fill="#89C7E0" />
        <path
            d="M315.733 210.172L298.387 212.09C298.27 212.1 298.154 212.063 298.064 211.989C297.974 211.914 297.916 211.808 297.903 211.692C297.89 211.575 297.923 211.459 297.995 211.366C298.066 211.274 298.171 211.213 298.287 211.196L315.628 209.273C315.747 209.26 315.867 209.295 315.96 209.37C316.054 209.445 316.114 209.554 316.128 209.673C316.141 209.792 316.106 209.912 316.031 210.006C315.956 210.1 315.847 210.16 315.728 210.173"
            fill="#2699AF" />
        <path d="M348.089 207.952L326.699 210.942L325.992 231.362L346.939 228.192L348.089 207.952Z"
            fill="#89C7E0" />
        <path
            d="M346.079 214.099L328.738 216.021C328.622 216.031 328.506 215.994 328.416 215.92C328.325 215.845 328.268 215.739 328.255 215.623C328.242 215.506 328.275 215.39 328.346 215.297C328.418 215.205 328.522 215.144 328.638 215.127L345.979 213.205C346.096 213.196 346.211 213.232 346.302 213.306C346.392 213.381 346.45 213.487 346.463 213.604C346.476 213.72 346.443 213.837 346.371 213.929C346.3 214.022 346.195 214.083 346.079 214.099Z"
            fill="#2699AF" />
        <path
            d="M181.187 78.1331C184.249 79.4895 187.556 80.2042 190.905 80.2331C191.233 80.2331 191.315 79.9401 191.275 79.6151C191.131 78.6789 190.737 77.7989 190.135 77.0679C189.532 76.337 188.744 75.7822 187.852 75.4621C186.812 75.0936 185.692 75.0136 184.611 75.2305C183.529 75.4474 182.526 75.9532 181.709 76.6941L181.074 77.2211C181.004 77.2793 180.949 77.3543 180.915 77.4392C180.882 77.524 180.87 77.616 180.881 77.7066C180.892 77.7973 180.926 77.8836 180.98 77.9576C181.033 78.0316 181.105 78.091 181.187 78.1301"
            fill="white" />
    </g>
</svg>