<svg width="330" height="360" viewBox="0 0 330 360" fill="none" xmlns="http://www.w3.org/2000/svg">
    <mask id="mask0_251_7056" style="mask-type:luminance" maskUnits="userSpaceOnUse" x="0" y="0"
        width="330" height="360">
        <path d="M329.208 0.0297089H0.859375V359.639H329.208V0.0297089Z" fill="white" />
    </mask>
    <g mask="url(#mask0_251_7056)">
        <path
            d="M199.617 152.678C200.017 162.551 196.249 172.108 195.329 181.948C193.961 196.59 198.952 211.076 205.048 224.461C211.144 237.846 218.46 250.813 222.223 265.031L243.255 265.446C244.1 265.543 244.956 265.391 245.715 265.008C247.153 264.087 247.002 261.972 246.665 260.299C243.172 242.955 238.12 225.962 231.572 209.527C226.511 196.827 220.435 183.327 223.491 170.002L199.617 152.678Z"
            fill="#DBDBDB" />
        <path
            d="M141.064 163.064C142.127 157.948 143.191 152.834 144.255 147.72C150.435 149.696 156.822 150.946 163.29 151.446C162.434 157.864 161.403 164.257 160.198 170.623C160.216 170.77 160.192 170.918 160.13 171.053C160.068 171.187 159.97 171.301 159.847 171.383C159.724 171.465 159.58 171.511 159.432 171.516C159.284 171.521 159.138 171.486 159.009 171.413L144.437 167.19L141.064 163.064Z"
            fill="#DBDBDB" />
        <path
            d="M205.162 219.54C199.826 200.704 202.699 180.44 208.408 161.71C214.117 142.98 220.736 136.593 222.869 112.636C227.422 121.364 245.637 116.153 252.756 122.951C255.212 125.296 256.945 128.273 258.877 131.065C268.637 145.165 283.791 154.891 293.305 169.156C298.625 177.135 301.981 186.24 305.038 195.328C316.733 230.103 324.791 265.997 329.083 302.434C329.333 303.626 329.246 304.865 328.832 306.011C328.125 307.511 326.442 308.228 324.9 308.824C309.94 314.613 294.585 320.48 278.547 320.701C259.285 320.967 240.586 313.043 221.327 313.49C220.482 304.102 221.015 294.642 222.911 285.409C224.295 278.68 226.405 272.044 226.696 265.18C227.061 256.494 220.247 228.055 220.247 228.055C220.247 228.055 206.461 228.166 204.37 219.789L205.162 219.54Z"
            fill="#A5A5A4" />
        <path
            d="M226.077 114.368C226.348 112.407 221.491 112.332 219.543 112.68C217.595 113.028 216.096 114.504 214.776 115.98C207.935 123.611 207.953 125.912 203.376 135.08C203.192 135.377 203.094 135.719 203.094 136.069C203.207 136.555 203.506 136.978 203.927 137.247C209.604 141.967 215.471 146.445 221.527 150.681C225.574 145.516 229.121 139.978 232.118 134.141L226.077 114.368Z"
            fill="#636364" />
        <path
            d="M202.923 236.21C222.903 257.826 263.331 305.123 279.882 330.544C281.169 332.519 282.496 334.661 282.661 337.144C282.68 338.546 282.417 339.938 281.886 341.236C281.355 342.534 280.568 343.712 279.571 344.699C274.33 350.33 266.671 351.066 259.6 351.518C211.945 354.563 164.271 357.222 116.579 359.495C109.914 359.813 102.779 359.982 97.1002 355.707C93.1612 352.743 90.4322 347.992 87.8802 343.334C72.1072 314.534 13.0402 257.712 2.17222 225.879C1.20122 223.033 0.253223 219.767 1.35122 217.018C2.15114 215.325 3.4593 213.925 5.09322 213.012C15.6272 206.112 45.4732 204.331 57.5312 203.803C89.2732 202.41 127.322 205.051 159.089 204.383C163.881 204.283 168.815 204.218 173.3 206.31C177.516 208.274 180.985 211.982 184.351 215.61C188.671 220.265 192.99 224.921 197.307 229.577L202.923 236.21Z"
            fill="#666C75" />
        <path
            d="M127.258 114.999C126.195 118.231 125.997 121.686 126.685 125.018C127.373 128.351 128.921 131.445 131.177 133.993L141.394 145.538C141.867 145.937 142.171 146.5 142.245 147.115C142.319 147.729 142.158 148.349 141.794 148.849L138.133 157.53C142.882 157.102 147.554 156.042 152.023 154.377C156.747 157.598 161.53 160.731 166.372 163.777C169.087 165.483 172.272 167.226 175.333 166.277C178.102 165.421 179.759 162.656 181.068 160.068C183.3 156.011 185.276 151.819 186.986 147.516L211.501 161.427C218.424 150.396 225.22 139.527 230.657 127.696C217.087 120.453 191.581 106.962 178.89 98.2697C173.863 94.8257 168.852 91.2407 163.199 88.9617C157.546 86.6827 151.075 85.8097 145.363 87.9377C139.47 90.1277 135.055 95.2707 132.373 100.957C131.073 103.72 129.021 109.643 127.258 115.003"
            fill="#E5A37F" />
        <path
            d="M151.454 161.632L135.225 158.984C135.989 173.94 137.231 188.862 138.949 203.752C139.461 208.19 140.112 212.864 142.861 216.383C147.549 222.389 156.496 222.836 163.961 221.324C161.619 206.752 158.829 192.261 155.589 177.853L151.454 161.632Z"
            fill="#8E8E8D" />
        <path
            d="M118.125 245.012C119.957 242.403 121.27 239.467 121.994 236.363C122.199 235.742 122.197 235.072 121.987 234.453C121.72 234.054 121.364 233.723 120.948 233.485C120.532 233.248 120.066 233.11 119.587 233.083C115.621 232.403 111.61 232.015 107.587 231.923L98.1549 231.476C95.9549 231.376 93.1909 231.607 92.3829 233.657C92.0629 234.467 92.1529 235.397 91.7979 236.19C91.2109 237.51 89.6579 238.021 88.4059 238.743C86.4977 239.949 85.1332 241.851 84.6008 244.045C84.0684 246.239 84.4099 248.554 85.5529 250.501C86.1136 251.499 87.0453 252.235 88.1459 252.551C88.7189 252.673 89.3169 252.619 89.8909 252.732C91.5909 253.071 92.6419 254.732 93.4909 256.24C94.813 258.838 96.483 261.245 98.4549 263.393C99.4477 264.462 100.643 265.324 101.972 265.928C103.301 266.532 104.736 266.865 106.195 266.91C107.792 266.798 109.364 266.454 110.861 265.888C116.127 264.296 121.293 262.391 126.331 260.182C127.839 259.482 129.577 258.257 129.265 256.623C129.053 255.886 128.604 255.241 127.987 254.786C126.267 253.29 124.238 252.195 122.044 251.579C124.423 251.644 125.344 248.035 123.844 246.187C122.344 244.339 119.729 243.927 117.361 243.706L118.125 245.012Z"
            fill="#DBDBDB" />
        <path
            d="M194.478 255.418C195.539 253.39 196.156 251.159 196.289 248.875C196.423 246.59 196.068 244.303 195.25 242.166C195.056 241.49 194.72 240.863 194.266 240.326C193.811 239.79 193.247 239.356 192.612 239.054C190.953 238.478 189.132 239.487 187.394 239.241C185.272 238.941 183.859 236.912 181.932 235.975C180.822 235.464 179.578 235.316 178.379 235.553C177.18 235.79 176.086 236.398 175.253 237.293C174.465 238.176 173.969 239.288 173.192 240.18C171.804 241.774 169.698 242.491 167.809 243.441C165.427 244.516 163.454 246.33 162.184 248.615C161.574 249.764 161.311 251.066 161.427 252.362C161.544 253.659 162.035 254.893 162.841 255.915C164.202 257.432 166.295 258.044 167.92 259.278C170.109 260.942 171.367 263.678 173.736 265.078C174.939 265.693 176.267 266.024 177.618 266.044C178.97 266.064 180.307 265.774 181.528 265.195C183.957 264.017 186.189 262.47 188.144 260.608C188.199 261.336 188.456 262.035 188.885 262.627C189.314 263.218 189.899 263.678 190.575 263.957C191.935 264.494 193.398 264.721 194.857 264.62C197.079 264.709 199.289 264.253 201.294 263.293C202.287 262.797 203.121 262.032 203.7 261.085C204.279 260.138 204.579 259.047 204.567 257.937C204.44 256.952 204.04 256.023 203.412 255.255C202.784 254.486 201.953 253.909 201.014 253.588C199.108 252.977 197.039 253.133 195.247 254.024L194.478 255.418Z"
            fill="#DBDBDB" />
        <path
            d="M137.456 226.279C138.73 224.698 139.63 222.85 140.091 220.872C140.552 218.895 140.561 216.839 140.117 214.858C139.953 213.862 139.477 212.944 138.756 212.238C137.356 211.055 135.174 211.489 133.639 212.488C132.104 213.487 130.908 214.948 129.353 215.916C128.895 216.244 128.347 216.423 127.784 216.428C127.233 216.337 126.71 216.123 126.254 215.801C124.194 214.505 121.716 214.046 119.329 214.519C118.151 214.784 117.087 215.415 116.289 216.32C115.491 217.226 114.999 218.36 114.883 219.562C114.827 221.546 116.032 223.332 117.327 224.835C119.846 227.758 122.936 230.254 124.812 233.626C125.388 234.88 126.079 236.08 126.875 237.208C127.793 238.186 128.925 238.939 130.181 239.408C131.438 239.877 132.786 240.05 134.121 239.914C136.785 239.619 139.39 238.925 141.849 237.856C143.652 237.067 145.577 236.597 147.541 236.466C148.603 236.545 149.669 236.553 150.733 236.489C154.233 235.977 156.193 231.501 154.816 228.241C153.439 224.981 149.652 223.203 146.116 223.365C143.538 223.485 140.766 224.423 138.503 223.18L137.456 226.279Z"
            fill="#DBDBDB" />
        <path
            d="M109.827 210.585C110.142 209.286 110.189 207.936 109.965 206.619C109.742 205.301 109.253 204.042 108.527 202.92C107.949 201.896 106.997 201.137 105.87 200.801C104.07 200.41 102.317 201.801 101.424 203.41C100.531 205.019 100.198 206.886 99.3885 208.543C99.2585 208.85 99.0646 209.126 98.8195 209.353C98.3923 209.64 97.8923 209.801 97.3775 209.816C94.1675 210.216 90.8455 210.762 88.1775 212.59C85.5095 214.418 83.6875 217.885 84.7445 220.944C85.1176 221.879 85.6772 222.728 86.3894 223.44C87.1015 224.151 87.9512 224.71 88.8865 225.083C89.552 225.312 90.1826 225.633 90.7605 226.035C91.3913 226.682 91.9169 227.425 92.3185 228.235C94.5505 231.715 99.2775 232.878 103.333 232.092C107.389 231.306 110.946 228.961 114.38 226.666C114.414 224.803 114.629 222.948 115.021 221.127C115.569 217.942 114.895 214.668 113.134 211.959C111.265 209.366 107.769 207.826 104.734 208.84L109.827 210.585Z"
            fill="#DBDBDB" />
        <path
            d="M79.3439 231.927C80.9349 230.112 79.9849 226.921 77.8299 225.833C76.7133 225.363 75.481 225.242 74.2944 225.485C73.1077 225.728 72.0221 226.323 71.1799 227.194C69.5247 228.978 68.497 231.254 68.2529 233.676C65.8108 233.678 63.3832 234.051 61.0529 234.782C59.8897 235.156 58.8252 235.786 57.9375 236.625C57.0497 237.465 56.3613 238.492 55.9229 239.633C55.0519 242.373 56.2119 245.31 57.4129 247.924C58.9189 251.206 61.1129 254.88 64.7059 255.233C67.3469 255.492 69.7599 253.798 71.7319 252.023C73.7039 250.248 75.6549 248.223 78.2319 247.572C79.5639 247.234 80.9829 247.294 82.2899 246.865C85.3779 245.849 87.0479 242.065 86.1899 238.927C85.6814 237.375 84.762 235.991 83.5294 234.921C82.2968 233.85 80.7971 233.134 79.1899 232.848L79.3439 231.927Z"
            fill="#DBDBDB" />
        <path
            d="M156.918 264.767C157.651 263.948 158.123 262.929 158.274 261.841C158.424 260.752 158.246 259.643 157.762 258.657C156.747 256.694 155.101 255.13 153.09 254.217C151.356 253.337 149.29 252.772 147.481 253.47C146.556 253.889 145.71 254.464 144.981 255.17L139.837 259.612C137.358 261.408 135.565 263.994 134.752 266.945C133.115 271.392 131.592 276.766 134.47 280.533C136.316 282.944 139.576 283.933 142.607 283.75C145.632 283.408 148.572 282.531 151.29 281.159C153.331 280.259 155.455 279.299 157.69 279.407C158.568 279.448 159.437 279.657 160.315 279.615C163.252 279.471 165.437 276.336 165.22 273.403C165.003 270.47 162.906 267.939 160.383 266.426C158.614 265.365 156.516 264.616 155.383 262.889L156.918 264.767Z"
            fill="#DBDBDB" />
        <path
            d="M188.302 103.426C194.538 106.02 204.45 108.082 206.921 114.369C203.821 118.188 190.415 114.629 183.697 114.195C181.397 114.046 178.932 113.831 177.172 112.347C176.297 111.476 175.503 110.528 174.8 109.514C170.656 104.499 162.018 104.198 157.535 108.914C156.595 110.112 155.551 111.224 154.416 112.239C151.222 114.587 146.674 113.368 142.895 114.566C134.376 117.266 132.937 130.652 124.307 132.973C121.984 133.433 119.592 133.427 117.272 132.955C116.135 132.801 114.85 132.555 114.243 131.58C113.557 130.48 114.112 129.02 114.879 127.973C116.3 126.045 118.357 124.681 120.686 124.124C117.436 124.924 113.872 125.467 110.847 124.034C107.822 122.601 105.929 118.438 107.929 115.755C108.857 114.688 110.056 113.893 111.4 113.455C114.474 112.208 117.704 111.385 121 111.011C117.66 110.533 115.411 106.811 115.885 103.474C116.359 100.137 119.02 97.3977 122.121 96.0737C125.295 94.889 128.707 94.4844 132.07 94.8937C127.946 92.1057 129.361 85.0937 133.496 82.3217C137.631 79.5497 143.039 79.8277 147.98 80.4347C150.034 80.8341 152.146 80.8341 154.201 80.4347C155.496 79.987 156.765 79.4655 158.001 78.8727C160.108 78.0594 162.382 77.7722 164.625 78.0361C166.868 78.2999 169.013 79.1067 170.874 80.3867C174.517 82.9437 176.731 87.1377 180.3 89.7947C183.467 92.1507 187.505 93.1507 190.568 95.6407C192.203 96.9936 193.491 98.7173 194.326 100.668C195.161 102.62 195.518 104.742 195.368 106.859L188.302 103.426Z"
            fill="#24282F" />
        <path
            d="M180.495 153.382L179.283 134.67C179.158 133.668 179.214 132.652 179.448 131.67C179.84 130.605 180.482 129.649 181.319 128.883C184.161 125.991 187.908 123.719 189.419 119.96C190.219 117.981 190.295 115.793 190.875 113.742C191.78 110.597 193.818 107.899 196.595 106.169C196.988 105.985 197.315 105.686 197.534 105.313C198.012 104.207 196.39 103.401 195.186 103.388C192.822 103.384 190.49 103.941 188.382 105.012C186.274 106.084 184.451 107.641 183.061 109.554C179.533 108.209 178.285 103.862 178.1 100.092C177.915 96.3217 167.82 79.3227 165.72 76.1877C165.365 75.5722 164.811 75.096 164.149 74.8377C162.774 74.4137 161.436 75.5957 160.649 76.8017C159.204 79.0207 168.879 94.6017 168.987 97.2537C168.215 94.1707 161.45 80.4067 159.611 77.8157C158.411 76.1207 156.178 74.4387 154.465 75.6157C153.443 76.3157 153.212 77.7097 153.14 78.9477C152.976 81.7647 158.58 95.4337 159.12 98.2037C156.928 96.7337 150.664 83.1197 148.92 81.1337C147.176 79.1477 143.239 78.5337 142.401 81.0407C142.194 81.9228 142.249 82.8463 142.559 83.6977C143.38 86.7567 149.899 100.57 151.267 103.428C148.427 100.414 140.688 93.9237 136.779 92.5467C135.73 92.1767 134.317 91.9897 133.73 92.9327C133.522 93.3243 133.441 93.7709 133.498 94.2107C133.81 98.9617 143.411 105.54 146.312 109.311C150.905 115.281 148.896 124.542 153.567 130.451C154.672 131.582 155.655 132.826 156.501 134.162C157.081 135.569 157.372 137.078 157.356 138.6C157.703 144.841 158.051 151.083 158.399 157.325C165.964 160.032 174.28 159.72 181.62 156.454L180.495 153.382Z"
            fill="#FCB895" />
        <path
            d="M186.801 160.979C176.529 162.008 166.199 162.347 155.881 161.993C156.052 156.044 156.222 150.096 156.391 144.148C165.957 145.435 173.484 145.092 183.125 144.604L186.801 160.979Z"
            fill="#DBDBDB" />
        <path
            d="M191.985 192.46C202.576 183.296 213.848 174.399 227.111 169.898C232.865 167.948 236.237 155.524 241.958 157.574C247.642 159.61 251.912 164.474 254.794 169.783C257.216 173.92 258.483 178.632 258.462 183.427C258.232 189.185 255.435 194.559 251.968 199.164C243.75 210.073 237.268 221.995 224.828 227.638C212.388 233.281 195.306 239.521 180.113 242.516C178.296 242.873 170.181 242.394 168.328 242.424C165.502 242.471 162.904 240.664 161.259 238.366C159.737 235.977 158.611 233.358 157.923 230.611C152.691 213.649 155.147 194.346 149.917 177.385C148.407 172.485 146.881 167.479 147.025 162.357L187.34 155.322L191.985 192.46Z"
            fill="#A5A5A4" />
        <path
            d="M193.222 191.742C203.752 186.722 211.509 177.763 218.613 168.78C225.818 159.67 232.763 149.931 242.293 143.067C245.466 140.781 248.972 138.713 252.893 138.095C254.624 137.767 256.408 137.848 258.102 138.332C259.796 138.816 261.354 139.689 262.651 140.882C262.8 141.019 262.997 141.094 263.2 141.09C263.403 141.086 263.596 141.003 263.74 140.86C263.884 140.716 263.966 140.523 263.971 140.32C263.975 140.117 263.901 139.92 263.764 139.771C262.583 138.649 261.192 137.771 259.671 137.188C258.151 136.605 256.53 136.327 254.902 136.371C251.354 136.516 247.906 137.588 244.902 139.481C239.707 142.678 235.014 146.626 230.976 151.198C222.853 159.99 216.345 170.149 208.005 178.749C203.546 183.525 198.271 187.465 192.426 190.385C191.512 190.821 192.309 192.179 193.22 191.744"
            fill="#4C4D4D" />
        <path
            d="M192.103 190.956C191.489 199.462 190.876 207.97 190.264 216.478C190.19 217.489 191.764 217.483 191.837 216.478C192.449 207.971 193.062 199.464 193.676 190.956C193.75 189.945 192.176 189.951 192.103 190.956Z"
            fill="#4C4D4D" />
        <path
            d="M191.968 190.721L185.601 209.221C185.271 210.182 186.79 210.593 187.118 209.639L193.485 191.139C193.815 190.18 192.296 189.767 191.968 190.721Z"
            fill="#4C4D4D" />
        <path
            d="M187.908 167.907C179.855 170.571 171.658 172.781 163.357 174.525C161.003 175.02 158.642 175.477 156.274 175.895C155.279 176.071 155.699 177.586 156.692 177.41C165.045 175.933 173.308 173.989 181.443 171.587C183.748 170.905 186.043 170.185 188.327 169.429C189.284 169.113 188.875 167.592 187.909 167.912"
            fill="#4C4D4D" />
        <path
            d="M152.744 161.623C151.66 178.008 151.783 194.45 153.11 210.817C153.488 215.465 153.963 220.105 154.536 224.737C154.658 225.728 156.236 225.737 156.109 224.737C154.098 208.44 153.287 192.017 153.683 175.602C153.797 170.935 154.008 166.275 154.317 161.623C154.383 160.612 152.811 160.616 152.744 161.623Z"
            fill="#4C4D4D" />
        <path
            d="M152.009 172.655C151.709 172.063 150.809 171.879 150.233 171.73C149.192 171.462 148.125 171.288 147.064 171.121C144.628 170.739 142.177 170.444 139.724 170.182C139.153 170.091 138.577 170.033 137.999 170.008C137.795 170.015 137.602 170.101 137.461 170.248C137.319 170.394 137.24 170.59 137.24 170.794C137.24 170.998 137.319 171.194 137.461 171.341C137.602 171.487 137.795 171.573 137.999 171.581C138.404 171.598 138.807 171.638 139.207 171.701C140.204 171.805 141.2 171.916 142.195 172.035C144.495 172.31 146.818 172.592 149.09 173.078C149.523 173.164 149.951 173.273 150.372 173.405C150.453 173.432 150.534 173.459 150.614 173.489C150.799 173.559 150.504 173.475 150.668 173.514C150.874 173.564 150.693 173.534 150.65 173.448C151.102 174.355 152.462 173.56 152.009 172.655Z"
            fill="#4C4D4D" />
        <path
            d="M266.737 196.353C259.519 201.94 252.291 207.521 244.837 212.787C237.454 218.078 229.738 222.888 221.737 227.187C217.191 229.6 212.514 231.756 207.727 233.645C206.795 234.01 207.201 235.532 208.145 235.16C216.668 231.759 224.87 227.604 232.655 222.746C240.546 217.889 248.092 212.498 255.497 206.932C259.646 203.813 263.753 200.637 267.857 197.459C268.003 197.311 268.085 197.111 268.085 196.903C268.085 196.695 268.003 196.495 267.857 196.348C267.708 196.204 267.508 196.123 267.301 196.123C267.094 196.123 266.895 196.204 266.746 196.348"
            fill="#4C4D4D" />
        <path
            d="M266.774 203.636L259.138 202.821C258.93 202.822 258.73 202.905 258.583 203.052C258.436 203.199 258.353 203.399 258.352 203.607C258.355 203.814 258.439 204.012 258.586 204.159C258.732 204.305 258.93 204.389 259.138 204.393C261.684 204.665 264.229 204.937 266.774 205.208C266.982 205.206 267.181 205.123 267.328 204.976C267.475 204.829 267.558 204.63 267.56 204.422C267.556 204.214 267.472 204.017 267.325 203.87C267.179 203.723 266.981 203.639 266.774 203.636Z"
            fill="#4C4D4D" />
        <path
            d="M310.971 269.795C297.126 270.628 283.304 271.761 269.505 273.195C265.625 273.595 261.748 274.021 257.874 274.475C257.703 274.48 257.538 274.539 257.402 274.642C257.266 274.746 257.165 274.889 257.115 275.053C256.102 279.007 258.758 282.914 262.187 284.698C266.552 286.971 271.787 286.244 276.487 285.852C281.827 285.406 287.166 284.962 292.504 284.518C297.224 284.125 302.176 283.927 306.496 281.775C310.62 279.719 313.865 275.412 313.222 270.645C313.165 270.444 313.032 270.274 312.851 270.171C312.669 270.068 312.455 270.041 312.254 270.096C312.055 270.155 311.888 270.289 311.786 270.469C311.683 270.649 311.654 270.861 311.705 271.062C312.211 274.822 309.475 278.301 306.369 280.062C302.541 282.235 297.963 282.489 293.677 282.847L279.095 284.063C276.754 284.257 274.411 284.49 272.066 284.623C269.824 284.822 267.565 284.681 265.366 284.206C261.608 283.267 257.531 279.764 258.631 275.471C258.377 275.663 258.125 275.855 257.873 276.049C271.65 274.447 285.457 273.146 299.295 272.146C303.183 271.864 307.075 271.606 310.971 271.372C311.976 271.311 311.984 269.738 310.971 269.799"
            fill="#4C4D4D" />
        <path
            d="M297.225 216.055C298.355 219.71 299.035 223.489 299.252 227.309C299.308 228.314 300.882 228.322 300.825 227.309C300.606 223.348 299.907 219.429 298.742 215.638C298.442 214.674 296.925 215.084 297.225 216.055Z"
            fill="#4C4D4D" />
        <path
            d="M292.888 226.869C293.517 230.381 293.685 233.96 293.388 237.516C293.305 238.525 294.88 238.516 294.961 237.516C295.256 233.819 295.069 230.099 294.403 226.451C294.223 225.456 292.703 225.878 292.886 226.869"
            fill="#4C4D4D" />
        <path
            d="M245.666 199.052C245.019 200.75 244.372 202.448 243.725 204.146C243.67 204.347 243.697 204.561 243.8 204.743C243.903 204.924 244.073 205.057 244.274 205.114C244.475 205.163 244.687 205.133 244.867 205.031C245.047 204.929 245.181 204.762 245.242 204.565C245.889 202.866 246.536 201.168 247.183 199.471C247.238 199.27 247.211 199.055 247.108 198.873C247.005 198.692 246.835 198.559 246.634 198.503C246.433 198.453 246.221 198.482 246.041 198.584C245.861 198.686 245.726 198.854 245.666 199.052Z"
            fill="#4C4D4D" />
        <path
            d="M237.951 203.499C237.314 205.199 236.676 206.899 236.037 208.599C235.983 208.8 236.01 209.014 236.113 209.196C236.215 209.377 236.386 209.51 236.586 209.567C236.787 209.617 237 209.588 237.18 209.485C237.36 209.383 237.494 209.216 237.554 209.018L239.468 203.918C239.523 203.717 239.495 203.502 239.393 203.321C239.29 203.14 239.12 203.006 238.919 202.95C238.718 202.9 238.506 202.929 238.326 203.031C238.146 203.133 238.012 203.301 237.951 203.499Z"
            fill="#4C4D4D" />
        <path
            d="M229.196 211.657L225.959 217.372C225.907 217.461 225.873 217.559 225.859 217.662C225.845 217.764 225.851 217.868 225.877 217.968C225.903 218.068 225.949 218.161 226.011 218.244C226.074 218.326 226.152 218.395 226.241 218.447C226.33 218.499 226.428 218.533 226.531 218.547C226.633 218.562 226.737 218.555 226.837 218.529C226.937 218.503 227.03 218.458 227.113 218.395C227.195 218.333 227.264 218.255 227.316 218.166C228.396 216.261 229.475 214.356 230.555 212.451C230.658 212.271 230.686 212.057 230.633 211.856C230.579 211.656 230.449 211.484 230.27 211.38C230.09 211.275 229.877 211.245 229.676 211.297C229.475 211.349 229.302 211.478 229.196 211.657Z"
            fill="#4C4D4D" />
        <path
            d="M169.771 209.646C169.991 211.134 170.209 212.622 170.426 214.11C170.483 214.31 170.616 214.481 170.797 214.584C170.979 214.686 171.193 214.713 171.394 214.659C171.592 214.598 171.759 214.464 171.861 214.284C171.963 214.104 171.993 213.892 171.943 213.691C171.724 212.202 171.506 210.714 171.288 209.227C171.232 209.026 171.098 208.856 170.917 208.753C170.736 208.65 170.521 208.623 170.32 208.678C170.123 208.739 169.956 208.873 169.854 209.053C169.752 209.233 169.722 209.445 169.771 209.646Z"
            fill="#4C4D4D" />
        <path
            d="M165.258 214.99C165.103 215.566 165.094 216.171 165.233 216.752C165.371 217.332 165.653 217.868 166.052 218.312C166.2 218.457 166.4 218.539 166.607 218.539C166.815 218.539 167.015 218.457 167.163 218.312C167.307 218.162 167.388 217.963 167.388 217.755C167.388 217.547 167.307 217.348 167.163 217.199C167.12 217.151 167.077 217.099 167.037 217.046C167.076 217.1 167.118 217.154 167.159 217.206C167.024 217.026 166.91 216.832 166.82 216.626C166.847 216.689 166.874 216.752 166.899 216.815C166.802 216.582 166.735 216.339 166.699 216.09L166.726 216.3C166.696 216.064 166.696 215.825 166.726 215.589C166.717 215.657 166.708 215.727 166.697 215.797C166.715 215.666 166.742 215.536 166.778 215.409C166.808 215.308 166.818 215.203 166.807 215.098C166.796 214.994 166.764 214.893 166.713 214.801C166.663 214.709 166.594 214.628 166.512 214.563C166.429 214.498 166.335 214.45 166.234 214.423C166.132 214.395 166.027 214.387 165.923 214.401C165.818 214.414 165.718 214.449 165.628 214.502C165.537 214.555 165.458 214.625 165.395 214.709C165.332 214.793 165.286 214.889 165.261 214.991"
            fill="#4C4D4D" />
        <path
            d="M165.439 196.143C164.884 196.718 164.462 197.408 164.2 198.163C163.938 198.918 163.844 199.721 163.924 200.517C163.928 200.724 164.012 200.922 164.158 201.069C164.305 201.215 164.503 201.299 164.71 201.303C165.096 201.287 165.547 200.955 165.496 200.517C165.457 200.187 165.454 199.854 165.485 199.524C165.485 199.504 165.499 199.368 165.485 199.479C165.471 199.59 165.49 199.456 165.494 199.434C165.507 199.355 165.521 199.276 165.539 199.197C165.574 199.028 165.619 198.861 165.672 198.697C165.697 198.622 165.726 198.546 165.755 198.471C165.784 198.396 165.755 198.435 165.742 198.491C165.755 198.453 165.772 198.416 165.792 198.381C165.859 198.235 165.933 198.092 166.015 197.954C166.103 197.805 166.2 197.667 166.3 197.527C166.365 197.437 166.214 197.627 166.287 197.545C166.314 197.514 166.339 197.482 166.364 197.452C166.423 197.384 166.486 197.317 166.547 197.252C166.625 197.18 166.688 197.093 166.732 196.996C166.776 196.9 166.8 196.795 166.802 196.689C166.804 196.583 166.785 196.477 166.746 196.379C166.706 196.28 166.647 196.191 166.572 196.116C166.497 196.041 166.408 195.982 166.309 195.942C166.211 195.902 166.105 195.883 165.999 195.885C165.893 195.887 165.788 195.911 165.692 195.954C165.595 195.998 165.508 196.061 165.436 196.139"
            fill="#4C4D4D" />
        <path
            d="M183.205 143.581C174.291 143.595 165.377 143.61 156.463 143.626C156.256 143.629 156.057 143.713 155.91 143.859C155.763 144.006 155.679 144.204 155.675 144.412C155.654 149.716 155.631 155.019 155.607 160.323C155.615 160.526 155.701 160.719 155.847 160.861C155.994 161.003 156.19 161.082 156.394 161.082C156.598 161.082 156.794 161.003 156.94 160.861C157.087 160.719 157.173 160.526 157.18 160.323L157.25 144.412L156.464 145.198L183.206 145.153C183.41 145.145 183.603 145.059 183.745 144.913C183.886 144.766 183.965 144.57 183.965 144.366C183.965 144.162 183.886 143.966 183.745 143.82C183.603 143.673 183.41 143.587 183.206 143.58"
            fill="#999999" />
        <path
            d="M165.805 150.319C165.409 149.995 164.934 149.782 164.429 149.704C163.924 149.625 163.407 149.683 162.932 149.872C162.413 150.052 161.961 150.384 161.635 150.825C161.309 151.266 161.124 151.795 161.104 152.344C161.114 152.896 161.275 153.435 161.569 153.903C161.862 154.371 162.278 154.75 162.772 154.999C163.277 155.251 163.85 155.334 164.407 155.236C164.963 155.138 165.473 154.863 165.862 154.453C166.289 154.022 166.573 153.471 166.676 152.873C166.779 152.276 166.695 151.661 166.437 151.113C166.33 150.934 166.158 150.804 165.957 150.751C165.756 150.699 165.542 150.727 165.362 150.831C165.185 150.939 165.057 151.112 165.005 151.313C164.952 151.513 164.979 151.726 165.08 151.908C165.136 152.025 165.127 152.008 165.08 151.89C165.089 151.934 165.103 151.977 165.123 152.019C165.145 152.089 165.146 152.177 165.173 152.242C165.107 152.075 165.159 152.118 165.166 152.215C165.166 152.26 165.166 152.305 165.166 152.351C165.166 152.382 165.166 152.412 165.166 152.443L165.159 152.535C165.148 152.619 165.152 152.596 165.168 152.461C165.146 152.535 165.13 152.61 165.12 152.687C165.095 152.775 165.048 152.861 165.03 152.949C165.068 152.771 165.077 152.849 165.043 152.91C165.023 152.944 165.007 152.98 164.989 153.01C164.939 153.1 164.878 153.179 164.826 153.265C164.774 153.351 164.957 153.116 164.848 153.234C164.817 153.268 164.789 153.302 164.756 153.334C164.702 153.39 164.645 153.44 164.587 153.492C164.467 153.603 164.74 153.392 164.601 153.481L164.486 153.556C164.454 153.576 164.421 153.594 164.386 153.612C164.25 153.677 164.271 153.669 164.386 153.619C164.304 153.639 164.225 153.664 164.147 153.694C164.108 153.697 164.07 153.704 164.034 153.716C164.072 153.716 164.111 153.707 164.151 153.702L164.051 153.711C163.968 153.711 163.886 153.711 163.803 153.706C163.629 153.699 163.984 153.751 163.817 153.706C163.754 153.688 163.69 153.675 163.627 153.656C163.596 153.647 163.566 153.634 163.535 153.624C163.372 153.572 163.693 153.71 163.542 153.624C163.463 153.579 163.382 153.54 163.307 153.489C163.276 153.462 163.242 153.437 163.207 153.417C163.234 153.439 163.261 153.458 163.29 153.478C163.263 153.458 163.238 153.437 163.213 153.415C163.138 153.347 163.068 153.276 163.003 153.201C162.883 153.063 163.01 153.194 163.003 153.201C162.996 153.208 162.924 153.088 162.919 153.079C162.874 153.009 162.833 152.935 162.795 152.862C162.739 152.74 162.747 152.762 162.795 152.869C162.785 152.828 162.77 152.789 162.752 152.752C162.739 152.645 162.714 152.541 162.677 152.441C162.742 152.529 162.688 152.599 162.684 152.479C162.684 152.439 162.684 152.398 162.684 152.357C162.684 152.316 162.684 152.257 162.684 152.21C162.684 152.038 162.641 152.393 162.684 152.224C162.704 152.145 162.72 152.066 162.747 151.987C162.786 151.877 162.83 151.913 162.736 152.009C162.76 151.972 162.781 151.933 162.797 151.892C162.819 151.853 162.842 151.815 162.865 151.779C162.921 151.696 162.978 151.702 162.847 151.797C162.899 151.745 162.949 151.691 162.996 151.634C163.028 151.603 163.061 151.575 163.096 151.544C163.213 151.434 162.942 151.644 163.076 151.558C163.148 151.507 163.224 151.459 163.302 151.416C163.34 151.394 163.381 151.375 163.42 151.353C163.564 151.278 163.244 151.416 163.397 151.362C163.497 151.328 163.597 151.294 163.697 151.269C163.728 151.262 163.756 151.255 163.785 151.249C164.002 151.206 163.658 151.254 163.798 151.244C163.887 151.235 163.976 151.231 164.066 151.231C164.111 151.231 164.156 151.231 164.201 151.238C164.16 151.227 164.127 151.224 164.188 151.238C164.28 151.265 164.375 151.276 164.466 151.306C164.557 151.336 164.606 151.398 164.443 151.29C164.479 151.313 164.524 151.328 164.561 151.347C164.598 151.366 164.64 151.39 164.676 151.413C164.712 151.436 164.888 151.578 164.699 151.424C164.848 151.566 165.047 151.646 165.254 151.646C165.461 151.646 165.66 151.566 165.81 151.424C165.954 151.274 166.035 151.075 166.035 150.867C166.035 150.659 165.954 150.46 165.81 150.311"
            fill="#999999" />
        <path
            d="M203.539 160.126C201.88 167.524 200.988 175.074 200.875 182.655C200.882 182.858 200.968 183.051 201.115 183.193C201.262 183.335 201.458 183.414 201.661 183.414C201.865 183.414 202.061 183.335 202.208 183.193C202.355 183.051 202.441 182.858 202.448 182.655C202.556 175.214 203.43 167.805 205.057 160.544C205.278 159.558 203.756 159.136 203.539 160.126Z"
            fill="#999999" />
        <path
            d="M215.64 233.894C216.827 236.878 217.48 240.048 217.57 243.259C217.577 243.462 217.663 243.655 217.81 243.797C217.957 243.939 218.153 244.018 218.357 244.018C218.56 244.018 218.756 243.939 218.903 243.797C219.05 243.655 219.136 243.462 219.143 243.259C219.057 239.907 218.385 236.596 217.157 233.476C217.096 233.278 216.962 233.111 216.782 233.009C216.602 232.907 216.39 232.877 216.189 232.927C215.989 232.984 215.819 233.117 215.717 233.298C215.614 233.479 215.586 233.694 215.64 233.895"
            fill="#999999" />
        <path
            d="M192.359 257.84C192.07 254.976 191.682 251.786 189.35 249.795C188.382 248.914 187.126 248.417 185.818 248.395C185.077 248.44 184.346 248.589 183.647 248.837C182.818 249.091 181.958 249.229 181.092 249.246C179.709 249.159 178.327 249.437 177.085 250.052C176.103 250.646 175.311 251.508 174.803 252.537C174.245 253.573 174.031 254.76 174.19 255.927C174.349 257.093 174.873 258.179 175.688 259.029C176.616 259.945 177.813 260.539 179.104 260.722C180.395 260.905 181.711 260.669 182.857 260.047C182.987 259.966 183.091 259.85 183.157 259.712C183.223 259.574 183.247 259.42 183.228 259.268C183.208 259.117 183.145 258.974 183.046 258.857C182.947 258.741 182.816 258.655 182.67 258.611C182.57 258.591 182.753 258.796 182.77 258.735C182.787 258.674 182.802 258.581 182.831 258.507C182.918 258.279 183.055 258.075 183.231 257.907C183.368 257.757 183.443 257.561 183.439 257.358C183.435 257.155 183.352 256.961 183.209 256.818C183.066 256.674 182.872 256.591 182.669 256.587C182.466 256.582 182.27 256.656 182.12 256.794C181.28 257.627 180.544 259.773 182.251 260.125L182.062 258.687C181.291 259.101 180.416 259.279 179.545 259.2C178.674 259.12 177.845 258.786 177.162 258.24C176.471 257.684 175.989 256.912 175.794 256.047C175.598 255.183 175.701 254.278 176.085 253.48C176.442 252.646 177.041 251.939 177.805 251.451C178.822 250.945 179.957 250.725 181.089 250.815C182.321 250.746 183.541 250.524 184.718 250.154C185.256 249.985 185.826 249.943 186.384 250.032C186.941 250.121 187.469 250.339 187.928 250.668C190.21 252.25 190.528 255.304 190.783 257.835C190.883 258.835 192.458 258.842 192.356 257.835"
            fill="#999999" />
        <path
            d="M172.519 247.814C171.639 247.619 170.721 247.697 169.887 248.037C169.053 248.376 168.341 248.961 167.847 249.714C167.369 250.488 167.159 251.398 167.249 252.304C167.339 253.209 167.725 254.06 168.347 254.725C169.051 255.521 170.029 256.024 171.087 256.134C171.295 256.132 171.494 256.049 171.641 255.902C171.788 255.755 171.871 255.556 171.873 255.348C171.869 255.14 171.785 254.943 171.639 254.796C171.492 254.649 171.294 254.565 171.087 254.562C170.376 254.433 169.744 254.031 169.326 253.443C169.09 253.124 168.924 252.759 168.836 252.373C168.758 252.046 168.753 251.706 168.822 251.378C169.007 250.685 169.448 250.088 170.055 249.708C170.663 249.327 171.393 249.192 172.097 249.329C173.081 249.57 173.497 248.052 172.515 247.812"
            fill="#999999" />
        <path
            d="M160.031 267.017C157.882 264.995 154.207 262.331 151.267 264.444C150.208 265.359 149.414 266.541 148.967 267.868C148.722 268.487 148.398 269.072 148.003 269.608C147.468 270.17 146.774 270.554 146.014 270.708C145.344 270.857 144.728 271.187 144.232 271.662C143.736 272.137 143.38 272.738 143.202 273.401C142.944 274.693 143.188 276.036 143.886 277.155C145.751 280.255 149.703 280.055 152.702 278.941C154.413 278.307 156.496 277.517 157.586 275.968C157.827 275.65 158.001 275.287 158.096 274.9C158.191 274.512 158.206 274.11 158.139 273.717C158.073 273.324 157.927 272.948 157.709 272.614C157.492 272.28 157.209 271.993 156.877 271.773C155.99 271.283 155.195 272.64 156.083 273.13C157.167 273.73 156.394 275.146 155.704 275.705C154.536 276.543 153.235 277.176 151.856 277.578C149.506 278.372 146.349 278.623 145.069 276.029C144.853 275.634 144.722 275.2 144.683 274.752C144.644 274.305 144.699 273.854 144.843 273.429C145.321 272.296 146.678 272.235 147.671 271.799C149.94 270.799 150.154 268.26 151.463 266.449C153.494 263.639 157.163 266.48 158.923 268.131C159.659 268.826 160.774 267.714 160.034 267.02"
            fill="#999999" />
        <path
            d="M149.332 261.451C148.534 261.064 147.63 260.953 146.762 261.133C145.893 261.314 145.109 261.777 144.532 262.451C143.919 263.271 143.597 264.271 143.616 265.295C143.615 265.723 143.485 266.141 143.243 266.495C143.001 266.849 142.659 267.122 142.26 267.279C140.718 268.017 138.899 268.123 137.63 269.385C137.087 269.962 136.676 270.649 136.424 271.401C136.173 272.152 136.089 272.949 136.176 273.737C136.224 274.632 136.505 275.5 136.991 276.254C137.477 277.008 138.15 277.622 138.946 278.037C139.858 278.464 140.659 277.109 139.746 276.68C139.221 276.385 138.77 275.976 138.425 275.483C138.081 274.989 137.852 274.425 137.756 273.831C137.659 273.237 137.699 272.629 137.87 272.052C138.042 271.475 138.341 270.945 138.746 270.5C139.753 269.5 141.389 269.349 142.653 268.819C143.338 268.563 143.949 268.14 144.429 267.589C144.948 266.85 145.22 265.966 145.206 265.063C145.194 264.634 145.297 264.21 145.506 263.836C145.715 263.462 146.022 263.151 146.393 262.937C146.714 262.742 147.079 262.629 147.454 262.607C147.829 262.586 148.204 262.656 148.546 262.813C149.446 263.265 150.246 261.913 149.34 261.454"
            fill="#999999" />
        <path
            d="M142.495 230.598C141.35 231.939 139.725 232.779 137.969 232.938C136.212 233.097 134.463 232.563 133.095 231.449C131.808 230.293 130.705 227.649 132.784 226.655C134.863 225.661 137.027 227.337 138.601 228.54L138.79 227.102C137.124 227.355 135.896 225.721 135.068 224.52C134.106 222.826 132.926 221.265 131.558 219.877C130.816 219.189 129.934 218.67 128.972 218.354C128.011 218.037 126.993 217.932 125.987 218.044C125.057 218.143 124.173 218.5 123.435 219.075C122.697 219.651 122.135 220.421 121.811 221.299C121.501 222.229 121.52 223.238 121.864 224.156C122.208 225.074 122.857 225.846 123.702 226.344C124.602 226.811 125.395 225.453 124.496 224.987C123.899 224.629 123.46 224.057 123.268 223.388C123.077 222.718 123.147 222.001 123.465 221.382C123.893 220.691 124.523 220.15 125.27 219.832C126.017 219.514 126.844 219.434 127.638 219.605C131.36 220.248 132.602 224.214 134.793 226.731C135.298 227.407 135.972 227.938 136.748 228.27C137.523 228.602 138.373 228.722 139.21 228.62C139.968 228.507 139.86 227.537 139.399 227.184C137.683 225.873 135.761 224.552 133.492 224.846C132.516 224.924 131.608 225.382 130.966 226.121C130.323 226.861 129.997 227.824 130.056 228.802C130.368 232.802 134.756 234.902 138.347 234.47C140.391 234.262 142.276 233.273 143.608 231.709C144.24 230.932 143.136 229.809 142.493 230.598"
            fill="#999999" />
        <path
            d="M147.207 228.678C147.216 228.534 147.16 228.825 147.207 228.694L147.234 228.602C147.241 228.613 147.153 228.744 147.198 228.683C147.226 228.646 147.249 228.606 147.266 228.563C147.297 228.48 147.223 228.649 147.212 228.631C147.201 228.613 147.282 228.556 147.293 228.547C147.343 228.506 147.209 228.588 147.277 228.547C147.325 228.52 147.37 228.486 147.421 228.459C147.548 228.38 147.421 228.464 147.41 228.459C147.466 228.445 147.521 228.427 147.573 228.405C147.596 228.398 147.729 228.387 147.745 228.367C147.74 228.374 147.578 228.378 147.661 228.38C147.745 228.375 147.829 228.375 147.912 228.38C148.09 228.385 147.802 228.346 147.926 228.38C147.973 228.393 148.026 228.402 148.07 228.418L148.163 228.45C148.15 228.457 148.027 228.375 148.088 228.423C148.128 228.451 148.171 228.477 148.215 228.498C148.292 228.532 148.149 228.46 148.156 228.45L148.256 228.54C148.278 228.563 148.297 228.588 148.319 228.61C148.312 228.603 148.247 228.5 148.292 228.574L148.405 228.759C148.48 228.883 148.38 228.659 148.423 228.797C148.447 228.865 148.468 228.934 148.484 229.005C148.504 229.086 148.504 229.224 148.502 229.071C148.502 229.136 148.511 229.198 148.511 229.261C148.513 229.324 148.512 229.388 148.506 229.451C148.506 229.494 148.499 229.537 148.493 229.58C148.502 229.512 148.513 229.472 148.493 229.562C148.465 229.699 148.427 229.835 148.38 229.968C148.369 229.999 148.357 230.029 148.346 230.058C148.346 230.047 148.403 229.945 148.359 230.02C148.315 230.095 148.282 230.173 148.237 230.246C148.205 230.301 148.169 230.356 148.131 230.408C148.115 230.433 148.096 230.456 148.075 230.478C147.963 230.609 147.842 230.732 147.712 230.846C147.685 230.869 147.658 230.894 147.629 230.918C147.629 230.918 147.471 231.044 147.536 230.995C147.601 230.946 147.502 231.018 147.496 231.022C147.456 231.051 147.415 231.079 147.374 231.106C147.22 231.212 147.062 231.306 146.898 231.4C146.56 231.59 146.209 231.757 145.857 231.919C145.678 232.024 145.547 232.197 145.495 232.398C145.442 232.599 145.471 232.814 145.575 232.994C145.684 233.169 145.857 233.297 146.057 233.349C146.257 233.402 146.469 233.375 146.65 233.276C147.449 232.945 148.191 232.492 148.85 231.933C149.518 231.341 149.947 230.527 150.058 229.642C150.119 229.231 150.083 228.811 149.953 228.416C149.823 228.022 149.603 227.663 149.309 227.369C149.023 227.118 148.678 226.941 148.307 226.856C147.936 226.77 147.549 226.778 147.181 226.879C146.764 226.971 146.388 227.197 146.11 227.522C145.832 227.846 145.667 228.252 145.639 228.679C145.641 228.887 145.724 229.086 145.871 229.233C146.018 229.38 146.217 229.463 146.425 229.465C146.632 229.46 146.829 229.376 146.976 229.229C147.122 229.083 147.207 228.886 147.211 228.679"
            fill="#999999" />
        <path
            d="M108.106 213.286C111.011 215.405 111.144 220.215 108.115 222.272C107.406 222.762 106.6 223.094 105.752 223.243C104.903 223.393 104.032 223.357 103.199 223.139C101.592 222.685 99.7789 221.053 100.22 219.209C100.484 218.103 102.755 217.229 103.233 218.609L104.201 217.641C100.359 216.741 96.6849 213.025 92.5269 214.982C91.8365 215.309 91.2551 215.828 90.8525 216.478C90.4498 217.127 90.243 217.879 90.2569 218.643C90.2173 219.356 90.4175 220.062 90.8257 220.648C91.2338 221.234 91.8263 221.667 92.5089 221.878C92.7082 221.927 92.919 221.897 93.0964 221.794C93.2738 221.69 93.4036 221.521 93.4581 221.323C93.5127 221.125 93.4877 220.914 93.3884 220.734C93.2892 220.554 93.1235 220.42 92.9269 220.361C92.515 220.2 92.1774 219.892 91.9793 219.497C91.7813 219.102 91.737 218.647 91.8549 218.221C91.9684 217.621 92.2835 217.079 92.7479 216.683C93.2123 216.287 93.798 216.062 94.4079 216.045C97.8009 215.645 100.622 218.411 103.782 219.151C103.916 219.185 104.056 219.185 104.19 219.148C104.323 219.112 104.445 219.041 104.543 218.944C104.641 218.846 104.711 218.724 104.747 218.591C104.784 218.457 104.785 218.317 104.75 218.183C104.041 216.14 101.427 215.906 99.8429 217.093C97.6939 218.707 98.6289 221.817 100.371 223.347C104.28 226.775 111.006 224.211 111.819 219.147C112.044 217.791 111.89 216.399 111.375 215.125C110.86 213.85 110.004 212.743 108.9 211.924C108.081 211.324 107.295 212.692 108.106 213.283"
            fill="#999999" />
        <path
            d="M105.006 209.441C104.056 210.061 103.281 210.916 102.757 211.923C102.233 212.93 101.977 214.055 102.015 215.19C102.015 215.398 102.098 215.598 102.246 215.746C102.393 215.893 102.593 215.976 102.802 215.976C103.011 215.976 103.211 215.893 103.358 215.746C103.506 215.598 103.588 215.398 103.588 215.19C103.577 214.96 103.58 214.731 103.595 214.502C103.6 214.439 103.608 214.376 103.613 214.312C103.627 214.174 103.581 214.495 103.622 214.256C103.64 214.143 103.661 214.032 103.687 213.918C103.737 213.694 103.8 213.473 103.876 213.257C103.898 213.198 103.921 213.139 103.942 213.077C103.958 213.032 103.983 212.977 103.949 213.054C103.999 212.937 104.055 212.821 104.114 212.707C104.218 212.502 104.335 212.304 104.462 212.114C104.562 211.954 104.677 211.805 104.805 211.669C104.965 211.487 105.137 211.315 105.318 211.155C105.356 211.123 105.395 211.089 105.435 211.055C105.475 211.021 105.571 210.949 105.485 211.014C105.585 210.937 105.693 210.865 105.799 210.797C105.977 210.689 106.106 210.516 106.158 210.315C106.211 210.114 106.183 209.901 106.081 209.72C105.975 209.541 105.803 209.412 105.602 209.359C105.401 209.306 105.187 209.334 105.006 209.438"
            fill="#999999" />
        <path
            d="M97.9257 224.921C98.0477 224.821 97.8667 224.955 97.8537 224.962C97.8067 224.991 97.7537 225.018 97.7067 225.045C97.6367 225.081 97.5827 225.09 97.6847 225.056C97.6237 225.076 97.5647 225.097 97.5037 225.112C97.4807 225.119 97.3037 225.159 97.4227 225.134C97.5417 225.109 97.3527 225.139 97.3417 225.139C97.2369 225.141 97.1321 225.138 97.0277 225.13C97.2167 225.139 97.0277 225.13 96.9847 225.117C96.9417 225.104 96.8787 225.092 96.8247 225.078C96.7707 225.064 96.7187 225.047 96.6667 225.028C96.6487 225.023 96.4437 224.938 96.6017 225.008C96.3728 224.906 96.1536 224.783 95.9467 224.642L95.7937 224.534C95.6827 224.457 95.8047 224.547 95.7417 224.496C95.6307 224.408 95.5227 224.315 95.4167 224.219C95.2167 224.032 95.0167 223.835 94.8327 223.63C94.7327 223.52 94.6407 223.409 94.5487 223.296C94.5147 223.257 94.4827 223.215 94.4487 223.174C94.5277 223.274 94.3807 223.082 94.3807 223.082C94.2174 222.857 94.0637 222.626 93.9197 222.389C93.8144 222.209 93.6419 222.078 93.4402 222.025C93.2385 221.972 93.0241 222.002 92.8442 222.107C92.6642 222.212 92.5335 222.385 92.4807 222.587C92.4279 222.788 92.4574 223.003 92.5627 223.183C93.8177 225.25 96.5627 227.97 99.0367 226.032C99.1827 225.884 99.2646 225.684 99.2646 225.476C99.2646 225.268 99.1827 225.069 99.0367 224.921C98.8865 224.778 98.6873 224.698 98.4802 224.698C98.2731 224.698 98.0739 224.778 97.9237 224.921"
            fill="#999999" />
        <path
            d="M110.011 232.602C106.066 231.254 101.468 229.718 97.3566 231.302C94.2416 232.502 91.4566 235.396 91.7566 238.938C91.8406 239.938 93.4136 239.949 93.3296 238.938C93.0746 235.911 95.5886 233.489 98.3066 232.638C102.029 231.466 106.076 232.92 109.595 234.123C110.556 234.45 110.967 232.933 110.013 232.606"
            fill="#999999" />
        <path
            d="M100.914 239.568C104.93 239.582 108.947 239.597 112.963 239.613C112.709 239.419 112.456 239.226 112.204 239.035C112.256 239.283 112.216 239.543 112.091 239.764C111.965 239.985 111.762 240.153 111.522 240.235C111.42 240.297 111.333 240.382 111.268 240.482C111.204 240.582 111.162 240.695 111.146 240.814C111.131 240.932 111.143 241.053 111.18 241.166C111.217 241.28 111.279 241.383 111.362 241.47C113.077 243.443 115.21 245.847 115.129 248.641C115.068 250.709 113.098 253.214 110.847 252.429L110.637 253.975C113.124 254.169 116.598 255.275 116.546 258.318C116.581 258.847 116.447 259.374 116.163 259.823C115.879 260.271 115.46 260.618 114.966 260.812C114.078 260.961 113.167 260.81 112.375 260.383C111.558 260.033 110.76 259.64 109.985 259.205C107.251 257.675 104.618 254.853 106.116 251.542C106.682 250.287 107.604 248.797 106.994 247.393C106.4 246.028 104.655 245.727 103.347 245.427C100.474 244.763 96.9817 244.615 95.0997 247.309C94.5197 248.142 95.8827 248.929 96.4587 248.109C98.1467 245.692 101.973 246.619 104.309 247.315C104.981 247.515 105.709 247.728 105.609 248.568C105.435 249.334 105.147 250.07 104.754 250.751C104.379 251.501 104.161 252.321 104.115 253.158C104.069 253.996 104.195 254.834 104.485 255.622C105.729 258.945 109.252 260.953 112.435 262.093C113.173 262.433 113.994 262.548 114.797 262.424C115.6 262.299 116.349 261.941 116.949 261.393C117.365 260.926 117.683 260.379 117.882 259.785C118.08 259.191 118.156 258.564 118.105 257.94C117.843 254.155 113.905 252.665 110.634 252.408C109.706 252.334 109.634 253.676 110.426 253.952C113.397 254.988 116.186 252.173 116.626 249.392C117.177 245.892 114.61 242.819 112.475 240.364C112.423 240.775 112.369 241.186 112.317 241.599C112.859 241.341 113.295 240.903 113.552 240.36C113.808 239.817 113.868 239.202 113.723 238.62C113.675 238.455 113.576 238.31 113.439 238.205C113.303 238.101 113.136 238.044 112.965 238.042L100.916 237.999C100.712 238.006 100.519 238.092 100.377 238.239C100.236 238.385 100.157 238.581 100.157 238.785C100.157 238.989 100.236 239.185 100.377 239.332C100.519 239.478 100.712 239.564 100.916 239.572"
            fill="#999999" />
        <path
            d="M92.9261 241.695C92.5602 242.73 92.4049 243.829 92.4693 244.925C92.5337 246.022 92.8165 247.094 93.3011 248.08C93.4064 248.26 93.5789 248.39 93.7806 248.443C93.9823 248.496 94.1967 248.466 94.3766 248.361C94.5566 248.256 94.6873 248.083 94.7401 247.882C94.7929 247.68 94.7634 247.466 94.6581 247.286C94.2781 246.482 94.063 245.61 94.0254 244.722C93.9878 243.834 94.1285 242.947 94.4391 242.114C94.4928 241.913 94.4653 241.698 94.3626 241.517C94.2599 241.336 94.0902 241.203 93.8901 241.146C93.6891 241.094 93.4757 241.122 93.295 241.224C93.1144 241.327 92.9807 241.495 92.9221 241.695"
            fill="#999999" />
        <path
            d="M79.6504 238.087C80.9054 237.572 81.9824 238.678 82.3024 239.834C82.4409 240.482 82.318 241.158 81.9603 241.716C81.6026 242.274 81.0391 242.668 80.3924 242.813C79.6647 243.027 78.8992 243.08 78.1488 242.97C77.3983 242.86 76.6807 242.588 76.0454 242.174C75.2876 241.662 74.4685 241.247 73.6074 240.939C72.6004 240.648 71.5264 240.991 70.5464 240.689C70.118 240.55 69.7422 240.284 69.469 239.926C69.1959 239.568 69.0383 239.135 69.0175 238.685C68.9966 238.235 69.1134 237.79 69.3523 237.408C69.5911 237.026 69.9407 236.727 70.3544 236.549C71.0944 236.249 71.1084 234.892 70.1464 235.005C66.8674 235.387 66.3744 239.038 64.9704 241.395C64.4669 242.084 63.9205 242.74 63.3344 243.361C62.8095 244.016 62.5603 244.85 62.6394 245.686C62.6944 246.494 63.0294 247.259 63.5867 247.847C64.144 248.436 64.8889 248.812 65.6934 248.911C66.1829 248.929 66.6709 248.846 67.1271 248.668C67.5833 248.49 67.9981 248.219 68.3457 247.874C68.6933 247.529 68.9664 247.117 69.148 246.662C69.3296 246.207 69.4158 245.719 69.4014 245.23C69.3364 244.225 67.7624 244.217 67.8304 245.23C67.9304 246.77 65.9724 248.11 64.7764 246.83C64.5418 246.584 64.3707 246.285 64.2778 245.959C64.1849 245.632 64.1731 245.288 64.2434 244.956C64.4434 244.177 65.2544 243.644 65.7354 243.042C66.5643 241.834 67.2405 240.529 67.7484 239.155C68.2204 238.115 68.8564 236.728 70.1484 236.577C70.0764 236.062 70.0084 235.546 69.9384 235.033C69.4038 235.228 68.9197 235.54 68.5221 235.947C68.1245 236.355 67.8233 236.846 67.6409 237.385C67.4586 237.924 67.3996 238.497 67.4684 239.062C67.5372 239.627 67.732 240.169 68.0384 240.649C68.3636 241.131 68.7932 241.533 69.2952 241.827C69.7972 242.12 70.3588 242.297 70.9384 242.344C71.6223 242.318 72.3071 242.338 72.9884 242.403C73.6315 242.585 74.2397 242.874 74.7884 243.256C75.6613 243.877 76.6629 244.294 77.7189 244.475C78.775 244.656 79.8583 244.597 80.8884 244.303C81.864 244.04 82.7089 243.428 83.2621 242.583C83.8153 241.737 84.0383 240.718 83.8884 239.719C83.4974 237.687 81.3944 235.681 79.2324 236.57C78.3094 236.951 78.7134 238.47 79.6504 238.087Z"
            fill="#999999" />
        <path
            d="M75.8128 230.309C74.3435 230.596 73.0438 231.444 72.1898 232.674C72.0856 232.854 72.0569 233.069 72.1101 233.27C72.1633 233.472 72.294 233.644 72.4738 233.75C72.655 233.849 72.8675 233.876 73.0675 233.823C73.2676 233.771 73.4398 233.644 73.5488 233.468C73.5718 233.434 73.5968 233.402 73.6208 233.368C73.6768 233.287 73.4968 233.522 73.6028 233.391C73.6498 233.334 73.6958 233.278 73.7448 233.222C73.8415 233.11 73.944 233.004 74.0518 232.904C74.1108 232.847 74.1718 232.793 74.2328 232.739C74.2798 232.701 74.3778 232.649 74.4048 232.599C74.3778 232.647 74.2738 232.699 74.3818 232.619L74.4628 232.562C74.5294 232.515 74.5961 232.47 74.6628 232.427C74.7868 232.348 74.9158 232.274 75.0468 232.208C75.1118 232.174 75.1778 232.143 75.2468 232.108C75.2608 232.101 75.4118 232.034 75.2878 232.088C75.1638 232.142 75.3018 232.083 75.3288 232.072C75.6203 231.96 75.9216 231.877 76.2288 231.822C76.4293 231.765 76.5995 231.632 76.7023 231.451C76.8051 231.269 76.8322 231.055 76.7778 230.854C76.7175 230.656 76.5835 230.488 76.4033 230.386C76.2232 230.284 76.0107 230.255 75.8098 230.305"
            fill="#999999" />
        <path d="M186.984 147.514L197.809 126.581L194.009 151.43L186.984 147.514Z" fill="#A5613C" />
        <path
            d="M160.145 79.8037C160.754 82.1259 161.517 84.4047 162.431 86.6247C163.481 89.5067 164.568 92.3807 165.517 95.3007C165.901 96.3546 166.194 97.4396 166.391 98.5437C166.533 99.5437 168.048 99.1187 167.908 98.1257C167.744 97.1864 167.502 96.2623 167.186 95.3627C166.751 93.9887 166.274 92.6317 165.786 91.2767C164.752 88.3847 163.66 85.5117 162.655 82.6097C162.258 81.5564 161.924 80.4801 161.655 79.3867C161.44 78.3987 159.922 78.8157 160.138 79.8047"
            fill="#A5613C" />
        <path
            d="M160.976 78.5717C161.197 78.5658 161.412 78.6394 161.583 78.7791C161.753 78.9189 161.868 79.1153 161.906 79.3327C162.14 80.3085 162.434 81.2693 162.784 82.2097L162.895 82.5267C163.495 84.2637 164.141 86.0197 164.763 87.7187C165.18 88.8557 165.611 90.0317 166.026 91.1917C166.569 92.7087 167.014 93.9857 167.426 95.2917L167.477 95.4527C167.777 96.3133 168.004 97.1974 168.157 98.0957C168.18 98.2498 168.17 98.4072 168.127 98.557C168.083 98.7067 168.007 98.8451 167.905 98.9627C167.795 99.0886 167.66 99.1899 167.508 99.2599C167.357 99.3298 167.192 99.3669 167.025 99.3687C166.806 99.3741 166.593 99.296 166.43 99.1502C166.266 99.0044 166.165 98.8019 166.145 98.5837C165.974 97.5967 165.717 96.6264 165.378 95.6837L165.278 95.3837C164.521 93.0567 163.663 90.7187 162.832 88.4577C162.619 87.877 162.406 87.2967 162.194 86.7167C162.012 86.2167 161.819 85.7077 161.632 85.2167C160.924 83.4778 160.345 81.6893 159.899 79.8657C159.863 79.7155 159.862 79.559 159.895 79.4083C159.929 79.2575 159.997 79.1164 160.093 78.9957C160.2 78.8646 160.335 78.7586 160.487 78.6854C160.64 78.6121 160.807 78.5733 160.976 78.5717ZM167.021 98.8637C167.116 98.8606 167.209 98.8383 167.295 98.7981C167.381 98.7578 167.458 98.7006 167.521 98.6297C167.577 98.5663 167.618 98.4914 167.641 98.4103C167.664 98.3292 167.67 98.244 167.656 98.1607C167.506 97.2903 167.285 96.4338 166.995 95.5997L166.944 95.4387C166.535 94.1447 166.091 92.8727 165.55 91.3607C165.136 90.2027 164.705 89.0277 164.289 87.8917C163.666 86.1917 163.021 84.4327 162.418 82.6917L162.308 82.3757C161.953 81.4152 161.657 80.4341 161.421 79.4377C161.407 79.3323 161.353 79.2362 161.271 79.1682C161.19 79.1003 161.085 79.0655 160.979 79.0707C160.885 79.0716 160.793 79.0926 160.708 79.1322C160.624 79.1719 160.549 79.2294 160.488 79.3007C160.437 79.3626 160.402 79.4356 160.384 79.5138C160.367 79.5919 160.368 79.6731 160.388 79.7507C160.829 81.55 161.402 83.3147 162.1 85.0307C162.287 85.5257 162.481 86.0377 162.664 86.5387C162.875 87.1187 163.088 87.6987 163.301 88.2787C164.133 90.5437 164.993 92.8867 165.753 95.2227L165.853 95.5227C166.202 96.4932 166.465 97.4923 166.64 98.5087C166.641 98.5572 166.652 98.6051 166.672 98.6494C166.691 98.6937 166.72 98.7336 166.756 98.7667C166.791 98.7998 166.833 98.8255 166.878 98.8421C166.924 98.8588 166.973 98.8661 167.021 98.8637Z"
            fill="#FCB895" />
        <path
            d="M171.493 98.2127C164.212 99.946 156.987 101.883 149.816 104.025C149.619 104.084 149.453 104.217 149.354 104.397C149.255 104.577 149.23 104.789 149.284 104.987C149.339 105.185 149.469 105.353 149.646 105.457C149.824 105.56 150.035 105.59 150.234 105.54C157.403 103.401 164.629 101.464 171.911 99.7297C172.893 99.4947 172.478 97.9777 171.493 98.2127Z"
            fill="#A5613C" />
        <path
            d="M171.694 97.9377C171.953 97.9435 172.2 98.045 172.388 98.2225C172.576 98.3999 172.692 98.6409 172.713 98.8987C172.75 99.139 172.693 99.3842 172.554 99.584C172.416 99.7837 172.206 99.9228 171.968 99.9727C164.723 101.699 157.434 103.653 150.305 105.78C150.204 105.81 150.099 105.826 149.993 105.827C149.75 105.81 149.52 105.71 149.343 105.542C149.166 105.375 149.053 105.151 149.023 104.909C148.994 104.667 149.05 104.422 149.181 104.217C149.313 104.012 149.512 103.859 149.744 103.785C156.87 101.657 164.168 99.6997 171.434 97.9697C171.519 97.9489 171.606 97.9382 171.694 97.9377ZM149.994 105.327C150.051 105.326 150.108 105.317 150.163 105.301C157.301 103.172 164.599 101.216 171.853 99.4867C171.971 99.4643 172.076 99.3962 172.144 99.2972C172.212 99.1982 172.239 99.0762 172.218 98.9577C172.21 98.822 172.152 98.694 172.056 98.5981C171.96 98.5022 171.832 98.4451 171.696 98.4377C171.647 98.4381 171.599 98.4441 171.552 98.4557C164.295 100.185 157.007 102.139 149.889 104.264C149.771 104.303 149.671 104.382 149.603 104.486C149.536 104.59 149.506 104.714 149.519 104.838C149.531 104.961 149.585 105.077 149.672 105.166C149.759 105.255 149.873 105.311 149.996 105.327H149.994Z"
            fill="#FCB895" />
        <path
            d="M168.856 134.328C166.655 134.3 164.455 134.44 162.276 134.745C162.075 134.801 161.905 134.934 161.802 135.115C161.699 135.296 161.672 135.51 161.727 135.711C161.786 135.909 161.92 136.077 162.101 136.179C162.281 136.281 162.494 136.31 162.695 136.26C164.737 135.987 166.797 135.867 168.857 135.901C169.06 135.893 169.253 135.807 169.395 135.661C169.536 135.514 169.616 135.318 169.616 135.114C169.616 134.91 169.536 134.714 169.395 134.568C169.253 134.421 169.059 134.335 168.856 134.328Z"
            fill="#A5613C" />
        <path
            d="M168.263 134.075C168.463 134.075 168.662 134.075 168.862 134.075C168.999 134.074 169.134 134.101 169.26 134.154C169.386 134.207 169.499 134.286 169.594 134.385C169.688 134.483 169.761 134.601 169.808 134.729C169.856 134.857 169.876 134.993 169.869 135.13C169.873 135.263 169.851 135.396 169.803 135.521C169.754 135.645 169.681 135.758 169.588 135.854C169.494 135.949 169.382 136.024 169.258 136.074C169.135 136.125 169.002 136.149 168.869 136.147H168.852C168.642 136.147 168.43 136.147 168.221 136.147C166.383 136.143 164.548 136.264 162.727 136.508C162.66 136.517 162.593 136.522 162.526 136.522C162.294 136.537 162.063 136.471 161.874 136.335C161.685 136.198 161.548 136.001 161.489 135.776C161.452 135.626 161.447 135.47 161.474 135.319C161.501 135.167 161.559 135.023 161.645 134.895C161.71 134.789 161.797 134.698 161.901 134.629C162.004 134.56 162.122 134.514 162.245 134.495C164.239 134.219 166.249 134.078 168.263 134.075ZM168.87 135.652C168.938 135.654 169.006 135.643 169.069 135.617C169.132 135.592 169.19 135.553 169.237 135.504C169.284 135.455 169.32 135.396 169.343 135.332C169.366 135.267 169.375 135.199 169.37 135.131C169.375 135.06 169.366 134.989 169.343 134.922C169.319 134.855 169.282 134.794 169.234 134.742C169.186 134.69 169.127 134.649 169.062 134.621C168.997 134.593 168.927 134.578 168.857 134.579C168.657 134.579 168.463 134.579 168.267 134.579C166.275 134.583 164.286 134.723 162.314 134.998C162.261 135.008 162.212 135.029 162.169 135.06C162.126 135.09 162.089 135.13 162.063 135.176C162.016 135.244 161.985 135.322 161.969 135.403C161.953 135.484 161.954 135.568 161.971 135.649C162.006 135.766 162.08 135.868 162.182 135.937C162.283 136.006 162.405 136.038 162.527 136.027C162.573 136.027 162.618 136.023 162.664 136.017C164.507 135.77 166.365 135.647 168.226 135.651C168.437 135.651 168.652 135.651 168.864 135.651L168.87 135.652Z"
            fill="#FCB895" />
        <path
            d="M219.412 112.702C222.085 119.135 219.998 125.588 216.89 131.824C210.65 144.374 207.374 158.188 207.312 172.204C209.75 164.826 216.774 160.169 222.539 154.96C232.954 145.501 240.097 132.981 242.94 119.203C237.925 119.576 232.656 117.303 228.578 114.368C226.361 112.768 221.914 111.036 219.415 112.702"
            fill="#8E8E8D" />
        <path
            d="M232.27 119.52C232.617 123.424 232.487 127.357 231.882 131.23C231.127 134.734 229.518 137.997 227.198 140.73C225.083 143.344 222.684 145.714 220.619 148.37C218.393 151.38 216.662 154.726 215.493 158.283C213.848 162.842 212.231 167.409 210.6 171.973C210.259 172.928 211.78 173.339 212.117 172.391C213.584 168.29 215.051 164.19 216.517 160.091C217.645 156.434 219.319 152.969 221.481 149.813C223.557 147.034 226.059 144.613 228.246 141.922C230.557 139.241 232.241 136.079 233.173 132.665C234.234 128.372 234.049 123.9 233.843 119.52C233.796 118.513 232.222 118.506 232.27 119.52Z"
            fill="#4C4D4D" />
        <path
            d="M149.657 132.759C148.377 135.219 147.468 137.854 146.957 140.58C146.857 141.129 147.311 141.752 147.925 141.548C150.296 140.764 152.533 139.621 154.557 138.159C154.733 138.05 154.86 137.878 154.913 137.678C154.966 137.478 154.94 137.265 154.841 137.084C154.735 136.905 154.562 136.775 154.361 136.722C154.159 136.669 153.945 136.698 153.764 136.802C151.854 138.191 149.743 139.28 147.503 140.03C147.826 140.351 148.149 140.675 148.471 140.996C148.947 138.402 149.805 135.892 151.017 133.55C151.482 132.65 150.125 131.857 149.658 132.756"
            fill="#24282F" />
        <path
            d="M146.715 122.908C147.516 127.203 147.107 131.637 145.533 135.713C145.143 136.713 144.387 137.866 143.325 137.706C142.807 137.58 142.355 137.265 142.057 136.823C139.222 133.27 146.713 122.908 146.713 122.908"
            fill="#24282F" />
        <path
            d="M158.241 98.5037L158.347 98.5787L158.187 98.4567C158.333 98.5705 158.465 98.7014 158.58 98.8467L158.456 98.6887C158.582 98.8526 158.688 99.0317 158.77 99.2217C158.743 99.1587 158.716 99.0977 158.691 99.0347C158.77 99.2271 158.825 99.4287 158.853 99.6347L158.826 99.4267C158.851 99.6209 158.851 99.8175 158.826 100.012C158.835 99.9417 158.846 99.8737 158.855 99.8037C158.801 100.018 158.827 100.245 158.929 100.441C158.981 100.53 159.05 100.608 159.133 100.671C159.215 100.734 159.309 100.78 159.409 100.806C159.509 100.832 159.613 100.839 159.715 100.825C159.818 100.811 159.917 100.777 160.006 100.725C160.095 100.675 160.172 100.607 160.234 100.526C160.296 100.446 160.341 100.353 160.367 100.255C160.395 100.082 160.412 99.9069 160.416 99.7317C160.413 99.5584 160.397 99.3856 160.368 99.2147C160.322 98.9381 160.238 98.669 160.12 98.4147C159.883 97.8984 159.506 97.4588 159.032 97.1457C158.852 97.0424 158.638 97.0145 158.438 97.068C158.237 97.1215 158.066 97.2521 157.961 97.4314C157.856 97.6106 157.827 97.8241 157.878 98.0251C157.93 98.2261 158.06 98.3985 158.238 98.5047"
            fill="#A5613C" />
        <path
            d="M158.639 96.7887C158.829 96.7842 159.015 96.8357 159.176 96.9367C159.689 97.2753 160.096 97.7505 160.353 98.3087C160.48 98.5838 160.57 98.8747 160.619 99.1737C160.687 99.5284 160.687 99.893 160.619 100.248V100.282C160.588 100.415 160.53 100.541 160.448 100.652C160.367 100.762 160.265 100.856 160.147 100.926C160.029 100.996 159.899 101.043 159.763 101.063C159.627 101.082 159.489 101.075 159.356 101.041C159.223 101.007 159.098 100.947 158.989 100.864C158.879 100.782 158.787 100.678 158.718 100.56C158.616 100.382 158.57 100.176 158.588 99.9717H158.582V99.9437C158.597 99.8153 158.6 99.6857 158.59 99.5567C158.569 99.4422 158.538 99.3295 158.499 99.2197C158.447 99.1152 158.387 99.0149 158.32 98.9197C158.256 98.8483 158.187 98.7815 158.114 98.7197L158.099 98.7097C157.872 98.5657 157.709 98.3408 157.642 98.0807C157.576 97.8207 157.611 97.545 157.74 97.3097C157.829 97.15 157.96 97.0173 158.119 96.9255C158.277 96.8336 158.457 96.786 158.64 96.7877L158.639 96.7887ZM159.619 100.575C159.707 100.578 159.794 100.555 159.87 100.51C159.988 100.445 160.077 100.338 160.118 100.21V100.176C160.143 100.027 160.159 99.8759 160.164 99.7247C160.16 99.5645 160.145 99.4047 160.118 99.2467C160.074 98.9919 159.997 98.7441 159.888 98.5097C159.67 98.0363 159.323 97.6335 158.888 97.3467C158.81 97.3031 158.721 97.2816 158.632 97.2847C158.584 97.2841 158.536 97.2898 158.49 97.3017C158.392 97.3286 158.303 97.3831 158.235 97.4588C158.167 97.5344 158.121 97.628 158.104 97.7286C158.088 97.8291 158.1 97.9323 158.14 98.0261C158.18 98.1199 158.246 98.2002 158.33 98.2577L158.49 98.3797L158.484 98.3877C158.537 98.4357 158.588 98.486 158.636 98.5387L158.643 98.5337L158.705 98.6137L158.762 98.6857L158.755 98.6907C158.808 98.7701 158.856 98.8523 158.9 98.9367H158.908L158.918 98.9617C158.933 98.9977 158.949 99.0357 158.966 99.0747L158.985 99.1187H158.976C159.004 99.2058 159.028 99.2942 159.048 99.3837H159.058L159.085 99.5917H159.075C159.078 99.6697 159.078 99.7464 159.075 99.8217H159.085C159.085 99.8507 159.077 99.8797 159.073 99.9097C159.044 100.043 159.063 100.182 159.127 100.302C159.198 100.418 159.308 100.505 159.438 100.547C159.496 100.563 159.556 100.573 159.617 100.575H159.619Z"
            fill="#FCB895" />
        <path
            d="M128.77 94.2317C124.411 91.3897 118.642 93.4527 114.516 95.7457C112.13 96.9162 110.251 98.9158 109.232 101.371C108.853 102.456 108.755 103.619 108.946 104.752C109.137 105.885 109.612 106.952 110.325 107.853C112 109.802 114.072 111.371 116.403 112.453C116.536 111.965 116.667 111.476 116.803 110.988C114.331 110.898 111.86 111.204 109.485 111.895C107.494 112.479 105.203 113.308 104.122 115.222C103.67 116.131 103.462 117.141 103.519 118.155C103.576 119.168 103.895 120.15 104.445 121.003C105.67 122.788 107.416 124.151 109.445 124.908C112.055 126.033 114.791 126.839 117.595 127.308C118.584 127.477 119.01 125.961 118.013 125.791C115.849 125.425 113.723 124.862 111.661 124.11C109.793 123.539 108.073 122.564 106.625 121.253C105.991 120.661 105.528 119.908 105.286 119.075C105.044 118.242 105.032 117.359 105.25 116.52C105.857 114.699 108.015 113.983 109.67 113.477C111.98 112.778 114.389 112.468 116.8 112.558C116.971 112.554 117.136 112.495 117.27 112.39C117.405 112.285 117.502 112.139 117.547 111.975C117.592 111.81 117.582 111.635 117.52 111.476C117.457 111.317 117.345 111.183 117.2 111.093C114.114 109.443 109.594 106.793 110.517 102.604C110.832 101.502 111.368 100.475 112.093 99.5867C112.818 98.6984 113.716 97.9669 114.732 97.4367C116.665 96.2576 118.764 95.3757 120.959 94.8207C122.118 94.4572 123.34 94.338 124.547 94.4705C125.755 94.603 126.921 94.9845 127.974 95.5907C128.823 96.1437 129.613 94.7827 128.768 94.2317"
            fill="#24282F" />
        <path
            d="M66.3381 190.011L66.2461 209.826C66.2459 212.262 65.2778 214.599 63.555 216.321C61.8321 218.044 59.4955 219.012 57.0591 219.012H43.4671C41.9423 219.012 40.4413 218.633 39.0997 217.908C37.7581 217.183 36.6179 216.136 35.7821 214.861L35.5611 214.523C34.582 213.026 34.0607 211.277 34.0611 209.489L33.8281 190.012L66.3381 190.011Z"
            fill="#D3D3D3" />
        <path
            d="M33.8262 190.187C33.8262 191.736 41.1032 192.993 50.0822 192.993C59.0612 192.993 66.3352 191.734 66.3352 190.187C66.3352 188.64 59.0602 187.381 50.0822 187.381C41.1042 187.381 33.8262 188.638 33.8262 190.187Z"
            fill="#3D5A77" />
    </g>
    <mask id="mask1_251_7056" style="mask-type:luminance" maskUnits="userSpaceOnUse" x="33" y="187"
        width="34" height="6">
        <path
            d="M33.8281 190.186C33.8281 191.737 41.1051 192.994 50.0821 192.994C59.0591 192.994 66.3361 191.737 66.3361 190.186C66.3361 188.635 59.0571 187.386 50.0821 187.386C41.1071 187.386 33.8281 188.641 33.8281 190.186Z"
            fill="white" />
    </mask>
    <g mask="url(#mask1_251_7056)">
        <path
            d="M63.1849 194.577C59.6342 191.282 54.9735 189.445 50.13 189.431C45.2864 189.417 40.615 191.226 37.0449 194.5C44.7737 196.086 52.6684 196.716 60.5509 196.374L63.1849 194.577Z"
            fill="#DBDBDB" />
    </g>
    <mask id="mask2_251_7056" style="mask-type:luminance" maskUnits="userSpaceOnUse" x="0" y="0"
        width="330" height="360">
        <path d="M329.208 0.0297089H0.859375V359.639H329.208V0.0297089Z" fill="white" />
    </mask>
    <g mask="url(#mask2_251_7056)">
        <path
            d="M65.875 201.904C64.5664 200.715 63.0949 199.718 61.505 198.945C61.3234 198.847 61.1115 198.822 60.912 198.874C60.7125 198.926 60.5402 199.052 60.43 199.227L57.586 203.08L58.821 202.922L53.727 198.812C53.5761 198.67 53.3772 198.592 53.1705 198.592C52.9638 198.592 52.7648 198.67 52.614 198.812C51.2681 200.041 50.0367 201.39 48.935 202.843L50.17 202.685C48.4919 200.945 46.5633 199.466 44.448 198.297C44.2971 198.211 44.1227 198.177 43.9508 198.2C43.7789 198.222 43.619 198.3 43.495 198.421C42.3311 199.742 41.2647 201.145 40.304 202.621L41.539 202.463C40.151 201.183 38.7626 199.904 37.374 198.626C37.2249 198.482 37.0257 198.401 36.8185 198.401C36.6113 198.401 36.4121 198.482 36.263 198.626C35.3816 199.408 34.5006 200.192 33.62 200.978C32.862 201.653 33.979 202.761 34.733 202.089C35.613 201.306 36.4933 200.522 37.374 199.737H36.262C37.65 201.015 39.0383 202.294 40.427 203.574C40.5133 203.656 40.617 203.718 40.7305 203.756C40.8439 203.793 40.9643 203.804 41.0827 203.789C41.2012 203.774 41.3147 203.732 41.4149 203.667C41.5151 203.602 41.5996 203.516 41.662 203.414C42.5477 202.051 43.5313 200.754 44.605 199.534L43.652 199.658C45.6496 200.759 47.47 202.155 49.052 203.798C49.1383 203.88 49.242 203.942 49.3555 203.98C49.4689 204.017 49.5893 204.028 49.7077 204.013C49.8262 203.998 49.9397 203.956 50.0399 203.891C50.1401 203.826 50.2246 203.74 50.287 203.638C51.3182 202.3 52.4679 201.058 53.722 199.927H52.614C54.3127 201.297 56.0106 202.666 57.708 204.035C57.7946 204.116 57.8982 204.178 58.0115 204.215C58.1247 204.252 58.2447 204.263 58.3629 204.248C58.481 204.233 58.5943 204.192 58.6946 204.128C58.7949 204.063 58.8798 203.978 58.943 203.877L61.787 200.022C61.428 200.122 61.071 200.211 60.712 200.304C62.1844 201.012 63.5487 201.926 64.764 203.019C65.513 203.696 66.629 202.586 65.875 201.906"
            fill="#3D5A77" />
        <path
            d="M64.2352 205.097C54.7436 206.128 45.1421 205.319 35.9572 202.713C34.9842 202.438 34.5132 203.939 35.4882 204.213C44.9465 206.885 54.8323 207.703 64.6012 206.621C65.6012 206.511 65.2312 204.982 64.2352 205.091"
            fill="#3D5A77" />
        <path
            d="M64.2707 193.599C55.0059 195.039 45.562 194.87 36.3547 193.099C35.3657 192.909 34.9417 194.424 35.9367 194.616C45.4206 196.438 55.1482 196.608 64.6897 195.116C65.6897 194.96 65.2617 193.444 64.2707 193.599Z"
            fill="#3D5A77" />
        <path
            d="M34.0716 194.385C34.1076 194.441 34.1396 194.496 34.1716 194.556C34.2616 194.743 34.1486 194.475 34.1786 194.565C34.2184 194.675 34.2518 194.788 34.2786 194.903C34.2786 194.928 34.3036 194.973 34.2946 195.003C34.3036 194.974 34.2726 194.791 34.2856 194.931C34.2906 194.988 34.2926 195.048 34.2946 195.107C34.2982 195.165 34.2982 195.224 34.2946 195.283C34.2946 195.317 34.2946 195.349 34.2896 195.383C34.2826 195.516 34.3166 195.214 34.3026 195.311C34.2821 195.427 34.2544 195.543 34.2196 195.656C34.2016 195.712 34.1796 195.766 34.1636 195.821C34.2406 195.579 34.1776 195.78 34.1416 195.848C34.0851 195.951 34.0226 196.051 33.9546 196.148C34.0986 195.936 33.9766 196.116 33.9256 196.168C33.8746 196.22 33.8326 196.26 33.7836 196.303C33.6369 196.451 33.5547 196.651 33.5547 196.859C33.5547 197.068 33.6369 197.268 33.7836 197.416C33.9334 197.558 34.1323 197.638 34.3391 197.638C34.5458 197.638 34.7447 197.558 34.8946 197.416C35.4062 196.937 35.7388 196.297 35.837 195.603C35.9352 194.909 35.7932 194.203 35.4346 193.601C35.3284 193.422 35.156 193.293 34.955 193.241C34.7539 193.189 34.5405 193.219 34.3612 193.324C34.1819 193.428 34.0513 193.6 33.9978 193.8C33.9443 194.001 33.9723 194.215 34.0756 194.395"
            fill="#3D5A77" />
        <path
            d="M34.3513 209.239C34.4918 209.35 34.6184 209.479 34.7283 209.621C34.6873 209.569 34.6453 209.515 34.6043 209.461C34.7199 209.615 34.8163 209.783 34.8913 209.961C34.8643 209.898 34.8373 209.835 34.8123 209.772C34.8894 209.961 34.9438 210.159 34.9743 210.361C34.9653 210.291 34.9563 210.223 34.9453 210.153C34.9713 210.355 34.9713 210.56 34.9453 210.762C34.9563 210.692 34.9653 210.622 34.9743 210.552C34.9529 210.706 34.915 210.858 34.8613 211.004C34.8063 211.205 34.8332 211.42 34.936 211.601C35.0389 211.782 35.2094 211.916 35.4103 211.972C35.6112 212.022 35.8238 211.993 36.004 211.891C36.1842 211.789 36.3182 211.621 36.3783 211.423C36.5737 210.844 36.5909 210.22 36.4278 209.632C36.2647 209.044 35.9287 208.518 35.4633 208.123C35.3125 207.981 35.1151 207.899 34.9083 207.893C34.6997 207.894 34.4998 207.976 34.3513 208.123C34.2782 208.196 34.2203 208.283 34.1808 208.378C34.1414 208.474 34.1211 208.576 34.1213 208.68C34.1191 208.783 34.1384 208.886 34.178 208.982C34.2176 209.078 34.2766 209.165 34.3513 209.237"
            fill="#3D5A77" />
        <path
            d="M51.5534 185.451C49.3634 183.717 50.5404 180.122 52.5754 178.208C54.6104 176.294 57.3924 175.36 59.5314 173.56C61.2072 172.141 62.415 170.248 62.9964 168.131C63.6354 165.783 63.0144 162.642 60.6694 161.991C57.6814 161.16 55.4424 164.961 52.4244 165.681C52.1304 165.775 51.8132 165.767 51.5244 165.658C50.9424 165.383 50.8974 164.577 50.9984 163.94C51.3894 161.46 52.6344 159.213 53.5044 156.861C54.3744 154.509 54.8514 151.792 53.7274 149.55C53.5807 149.192 53.3567 148.872 53.0714 148.612C52.7861 148.351 52.4466 148.157 52.0774 148.044C50.4884 147.712 49.4324 149.608 48.9354 151.152C47.8994 154.373 46.8627 157.593 45.8254 160.812C45.7824 159.085 43.1344 158.512 41.8664 159.683C40.5984 160.854 40.4944 162.823 40.7444 164.534C41.0304 166.494 41.6568 168.389 42.5954 170.134C42.2234 169.328 40.9314 169.391 40.3614 170.071C40.113 170.44 39.9443 170.857 39.8662 171.295C39.788 171.733 39.802 172.182 39.9074 172.615C40.7784 178.443 46.5474 182.357 51.5584 185.458"
            fill="#DBDBDB" />
        <path
            d="M164.627 344.464C148.264 340.851 132.499 333.251 116.69 327.197C116.255 327.029 115.887 326.725 115.639 326.331C115.391 325.937 115.277 325.474 115.313 325.009C115.35 324.545 115.536 324.105 115.843 323.755C116.15 323.405 116.561 323.163 117.017 323.066L181.151 309.35L231.551 314.307L164.627 344.464Z"
            fill="#CCCAC6" />
        <path
            d="M169.997 322.157C160.858 324.272 145.457 328.096 136.318 330.211L158.431 338.267L181.977 330.006L176.607 322.982L169.997 322.157Z"
            fill="#24282F" />
        <path
            d="M275.348 257.504C259.191 260.143 195.802 270.289 185.471 271.943C185.041 272.011 184.64 272.198 184.31 272.483C183.981 272.767 183.737 273.137 183.607 273.552L162.078 341.604C161.956 341.988 161.936 342.398 162.019 342.792C162.101 343.187 162.284 343.554 162.55 343.857C162.815 344.16 163.155 344.39 163.535 344.525C163.915 344.659 164.323 344.693 164.721 344.624L256.151 328.603C256.579 328.528 256.979 328.335 257.304 328.046C257.63 327.757 257.869 327.383 257.995 326.967L277.973 260.497C278.088 260.115 278.104 259.711 278.02 259.322C277.935 258.933 277.753 258.571 277.491 258.272C277.228 257.973 276.893 257.745 276.519 257.611C276.144 257.476 275.741 257.439 275.348 257.504Z"
            fill="#CCCAC6" />
        <path
            d="M229.673 295.239C231.219 297.203 230.409 300.356 228.393 301.839C227.337 302.514 226.136 302.931 224.889 303.055C223.641 303.18 222.382 303.008 221.213 302.554C220.36 302.308 219.582 301.852 218.951 301.227C217.52 299.66 217.899 297.076 219.127 295.345C219.739 294.46 220.551 293.733 221.497 293.221C222.443 292.71 223.496 292.429 224.571 292.402C225.647 292.402 226.699 292.72 227.595 293.315C228.492 293.91 229.193 294.756 229.611 295.747L229.673 295.239Z"
            fill="white" />
        <path
            d="M174.152 299.667C170.424 310.637 167.006 321.706 163.898 332.876C163.016 336.046 162.16 339.225 161.329 342.412C161.278 342.611 161.308 342.822 161.411 342.999C161.515 343.177 161.684 343.307 161.882 343.361C162.08 343.416 162.291 343.391 162.471 343.292C162.651 343.192 162.784 343.026 162.844 342.83C165.772 331.619 169.013 320.496 172.565 309.461C173.574 306.327 174.607 303.202 175.665 300.085C175.992 299.124 174.473 298.711 174.148 299.667"
            fill="#24282F" />
        <path
            d="M121.143 322.425C120.824 322.5 120.533 322.666 120.304 322.901C120.075 323.137 119.919 323.433 119.853 323.755C119.776 324.062 119.768 324.383 119.83 324.694C119.891 325.005 120.02 325.299 120.208 325.555C120.438 325.865 120.774 326.078 121.152 326.155C121.357 326.204 121.573 326.175 121.757 326.074C121.847 326.022 121.925 325.953 121.988 325.871C122.05 325.789 122.096 325.695 122.123 325.595C122.149 325.495 122.155 325.391 122.141 325.289C122.127 325.186 122.093 325.088 122.041 324.999C121.991 324.91 121.923 324.833 121.842 324.771C121.762 324.709 121.669 324.664 121.571 324.638C121.503 324.626 121.436 324.607 121.371 324.581C121.434 324.608 121.497 324.635 121.56 324.66C121.493 324.632 121.43 324.595 121.373 324.551L121.533 324.675C121.477 324.63 121.426 324.579 121.382 324.522C121.423 324.576 121.463 324.63 121.504 324.682C121.448 324.608 121.401 324.528 121.364 324.443C121.391 324.506 121.416 324.569 121.443 324.632C121.395 324.518 121.361 324.398 121.343 324.275C121.352 324.345 121.363 324.415 121.372 324.483C121.356 324.35 121.356 324.216 121.372 324.083L121.345 324.293C121.361 324.177 121.391 324.063 121.435 323.955C121.408 324.018 121.381 324.081 121.356 324.144C121.391 324.058 121.437 323.977 121.492 323.903C121.452 323.955 121.411 324.009 121.37 324.061C121.418 324 121.473 323.944 121.533 323.896L121.375 324.02C121.433 323.976 121.496 323.94 121.562 323.912C121.499 323.939 121.436 323.964 121.375 323.991C121.433 323.968 121.494 323.951 121.555 323.941C121.704 323.9 121.838 323.816 121.94 323.699C122.042 323.582 122.107 323.438 122.127 323.284C122.147 323.131 122.121 322.975 122.053 322.836C121.985 322.697 121.878 322.581 121.744 322.503C121.558 322.405 121.342 322.377 121.137 322.424"
            fill="#24282F" />
        <path
            d="M188.64 273.775C188.101 273.678 187.547 273.712 187.024 273.876C186.502 274.039 186.027 274.327 185.64 274.714C184.867 275.445 184.413 276.451 184.376 277.514C184.364 278.123 184.532 278.722 184.859 279.236C184.911 279.325 184.98 279.403 185.062 279.465C185.144 279.528 185.238 279.573 185.338 279.599C185.438 279.625 185.542 279.632 185.644 279.617C185.746 279.603 185.845 279.569 185.934 279.517C186.023 279.465 186.101 279.396 186.163 279.314C186.226 279.231 186.271 279.138 186.298 279.038C186.324 278.938 186.33 278.834 186.316 278.732C186.302 278.629 186.268 278.531 186.216 278.442C186.178 278.383 186.142 278.325 186.11 278.264C186.094 278.233 186.079 278.205 186.065 278.174C186.029 278.097 186.036 278.113 186.083 278.222C186.058 278.109 186.024 277.999 185.983 277.892C185.976 277.86 185.969 277.827 185.963 277.792C185.949 277.706 185.95 277.727 185.968 277.855C185.968 277.805 185.963 277.756 185.955 277.708C185.948 277.576 185.95 277.444 185.96 277.313C185.969 277.137 185.924 277.496 185.96 277.324C185.973 277.258 185.983 277.193 185.998 277.124C186.025 277.009 186.058 276.896 186.098 276.785C186.111 276.754 186.121 276.722 186.134 276.685C186.166 276.608 186.159 276.622 186.114 276.733C186.114 276.733 186.195 276.562 186.204 276.548C186.258 276.441 186.318 276.338 186.385 276.239C186.401 276.214 186.477 276.074 186.503 276.07C186.46 276.075 186.397 276.201 186.508 276.07C186.595 275.966 186.689 275.867 186.79 275.776C186.828 275.74 186.865 275.708 186.903 275.676L186.982 275.611C186.888 275.683 186.876 275.693 186.944 275.643C187.044 275.58 187.138 275.514 187.244 275.458C187.271 275.444 187.415 275.393 187.424 275.37L187.372 275.392C187.403 275.381 187.435 275.369 187.465 275.36C187.575 275.322 187.686 275.299 187.799 275.272C187.952 275.236 187.609 275.279 187.81 275.272C187.867 275.272 187.925 275.265 187.984 275.263C188.043 275.261 188.117 275.268 188.184 275.27C188.324 275.275 188.003 275.236 188.229 275.279C188.329 275.309 188.435 275.319 188.539 275.308C188.643 275.297 188.744 275.265 188.836 275.214C188.928 275.164 189.009 275.095 189.074 275.013C189.139 274.93 189.187 274.836 189.215 274.734C189.243 274.633 189.25 274.527 189.236 274.423C189.223 274.319 189.188 274.219 189.136 274.128C189.083 274.038 189.012 273.959 188.928 273.896C188.844 273.833 188.748 273.787 188.647 273.762"
            fill="#24282F" />
        <path
            d="M16.243 215.372C14.8997 215.33 13.5716 215.666 12.4106 216.343C11.2495 217.02 10.3023 218.01 9.67697 219.2C8.95527 220.454 8.50882 221.848 8.36726 223.288C8.22571 224.729 8.3923 226.183 8.85597 227.554C9.87397 230.827 11.996 233.599 14.102 236.246C16.5853 239.366 19.074 242.481 21.568 245.591L51.974 283.657L82.219 321.518C84.7523 324.69 87.2856 327.862 89.819 331.034C92.035 333.81 94.212 336.625 96.575 339.279C98.7198 341.761 101.149 343.983 103.813 345.899C105.724 347.349 107.926 348.368 110.268 348.887C114.606 349.672 119.168 349.316 123.527 348.887C126.958 348.551 130.382 348.087 133.777 347.487L134.332 347.387C135.327 347.202 134.905 345.687 133.914 345.87C131.564 346.31 129.192 346.653 126.82 346.947C122.422 347.585 117.976 347.829 113.534 347.678C111.794 347.657 110.07 347.344 108.434 346.752C105.669 345.467 103.147 343.713 100.981 341.568C98.6538 339.318 96.4847 336.911 94.489 334.363C92.114 331.426 89.769 328.47 87.419 325.526L57.828 288.48L28.402 251.642L20.963 242.331C18.589 239.358 16.133 236.431 13.857 233.382C11.957 230.838 10.09 227.909 9.88197 224.651C9.79792 223.362 10.0295 222.071 10.5566 220.892C11.0837 219.712 11.8905 218.679 12.907 217.882C13.8665 217.171 15.0537 216.837 16.243 216.945C17.252 217.031 17.243 215.457 16.243 215.372Z"
            fill="#C1C1C1" />
        <path
            d="M269.225 329.816C272.143 329.954 273.974 333.389 273.36 336.043C272.602 339.322 269.119 341.243 265.973 341.483C264.973 341.56 264.962 343.133 265.973 343.056C267.571 342.983 269.129 342.537 270.523 341.754C271.918 340.97 273.11 339.872 274.004 338.546C274.763 337.281 275.109 335.811 274.991 334.341C274.874 332.871 274.3 331.474 273.35 330.346C272.848 329.725 272.222 329.218 271.511 328.856C270.8 328.494 270.021 328.286 269.224 328.246C268.211 328.198 268.215 329.77 269.224 329.819"
            fill="#C1C1C1" />
        <path
            d="M200.78 347.655H236.124C236.328 347.647 236.521 347.561 236.663 347.415C236.804 347.268 236.883 347.072 236.883 346.868C236.883 346.664 236.804 346.468 236.663 346.322C236.521 346.175 236.328 346.089 236.124 346.082H200.78C200.577 346.089 200.384 346.175 200.242 346.322C200.101 346.468 200.021 346.664 200.021 346.868C200.021 347.072 200.101 347.268 200.242 347.415C200.384 347.561 200.577 347.647 200.78 347.655Z"
            fill="#C1C1C1" />
        <path
            d="M63.9123 267.331C73.2416 278.888 82.2603 290.688 90.9683 302.731C93.4349 306.147 95.8786 309.581 98.2993 313.031C98.8753 313.853 100.24 313.069 99.6563 312.237C91.0563 299.961 82.1353 287.921 72.8933 276.116C70.2933 272.798 67.6706 269.498 65.0253 266.216C64.3883 265.43 63.2823 266.548 63.9123 267.329"
            fill="#C1C1C1" />
        <path
            d="M84.3141 281.22L100.387 300.493C101.037 301.27 102.143 300.154 101.5 299.38L85.4271 280.109C84.7771 279.33 83.6691 280.448 84.3141 281.22Z"
            fill="#C1C1C1" />
        <path
            d="M110.28 275.398L124.845 294.998C125.445 295.798 126.807 295.018 126.204 294.204L111.637 274.604C111.037 273.804 109.675 274.584 110.28 275.398Z"
            fill="#C1C1C1" />
        <path
            d="M123.208 284.158C126.03 287.752 128.855 291.347 131.683 294.942C131.83 295.088 132.03 295.171 132.238 295.171C132.446 295.171 132.645 295.088 132.793 294.942C132.937 294.793 133.017 294.593 133.017 294.386C133.017 294.179 132.937 293.98 132.793 293.831L124.322 283.047C124.174 282.9 123.974 282.818 123.765 282.818C123.557 282.818 123.357 282.9 123.209 283.047C123.065 283.196 122.984 283.395 122.984 283.602C122.984 283.809 123.064 284.009 123.208 284.158Z"
            fill="#C1C1C1" />
        <path
            d="M36.4746 240.504C40.3268 243.241 43.576 246.74 46.0206 250.785C46.0731 250.874 46.1427 250.952 46.2254 251.014C46.308 251.077 46.4022 251.122 46.5024 251.148C46.6027 251.174 46.707 251.18 46.8096 251.166C46.9121 251.151 47.0108 251.117 47.1001 251.064C47.1893 251.012 47.2673 250.942 47.3297 250.859C47.392 250.777 47.4374 250.683 47.4634 250.582C47.4893 250.482 47.4953 250.378 47.4809 250.275C47.4665 250.173 47.4321 250.074 47.3796 249.985C44.7874 245.716 41.3455 242.026 37.2676 239.144C36.4396 238.559 35.6536 239.921 36.4736 240.503"
            fill="#C1C1C1" />
        <path
            d="M223.897 0.805709C219.463 17.1575 213.916 33.1872 207.297 48.7827C211.765 46.5756 216.36 44.6336 221.057 42.9667C217.779 54.2817 207.27 88.3827 207.27 88.3827L243.97 19.1697L223.258 33.0697L239.521 0.0297089L223.897 0.805709Z"
            fill="#5FCBA9" />
        <path
            d="M166.33 26.1977C167.952 33.5231 169.071 40.9507 169.68 48.4287C170.978 46.6443 172.381 44.938 173.88 43.3187C174.92 48.4317 177.807 63.9687 177.807 63.9687L177.979 29.2687L172.711 38.9767L172.298 22.6767L166.33 26.1977Z"
            fill="#5FCBA9" />
        <path
            d="M75.2898 47.9977C79.7238 64.3495 85.2701 80.3792 91.8898 95.9747C87.4214 93.7676 82.8268 91.8259 78.1298 90.1597C81.4098 101.475 91.9168 135.576 91.9168 135.576L55.2168 66.3627L75.9288 80.2627L59.6658 47.2217L75.2898 47.9977Z"
            fill="#5FCBA9" />
    </g>
</svg>