<svg width="463" height="320" viewBox="0 0 463 320" fill="none" xmlns="http://www.w3.org/2000/svg">
    <mask id="mask0_387_4981" style="mask-type:luminance" maskUnits="userSpaceOnUse" x="0" y="0"
        width="463" height="320">
        <path d="M462.333 0.946045H0.324219V319.717H462.333V0.946045Z" fill="white" />
    </mask>
    <g mask="url(#mask0_387_4981)">
        <mask id="mask1_387_4981" style="mask-type:luminance" maskUnits="userSpaceOnUse" x="0" y="0"
            width="463" height="320">
            <path d="M462.333 0.946045H0.324219V319.717H462.333V0.946045Z" fill="white" />
        </mask>
        <g mask="url(#mask1_387_4981)">
            <path
                d="M456.888 285.642C447.001 266.755 440.637 256.056 425.7 241.825C420.481 236.852 415.041 231.745 408.5 229.745C403.949 228.354 399.162 228.565 394.46 228.786C372.817 229.805 110.379 227.748 81.0241 227.408C74.0091 227.326 58.6171 230.208 49.7491 237.677C42.2921 243.957 34.3581 256.097 28.0801 264.468C18.5911 277.127 8.95509 288.713 2.34009 303.612C2.34009 303.612 -11.6649 319.483 34.0821 319.483C79.8291 319.483 429.46 320.417 445.331 318.549C461.202 316.681 467.931 306.749 456.885 285.64"
                fill="#666C75" />
            <path
                d="M427.176 307.665H393.184C392.933 307.673 392.695 307.778 392.52 307.959C392.346 308.139 392.248 308.38 392.248 308.632C392.248 308.883 392.346 309.124 392.52 309.304C392.695 309.485 392.933 309.59 393.184 309.598H427.176C427.427 309.59 427.665 309.485 427.84 309.304C428.014 309.124 428.112 308.883 428.112 308.632C428.112 308.38 428.014 308.139 427.84 307.959C427.665 307.778 427.427 307.673 427.176 307.665Z"
                fill="#C1C1C1" />
            <path
                d="M445.363 309.332C446.69 309.695 448.304 309.141 449.626 308.641C452.763 307.456 453.347 303.792 452.912 300.93C452.586 299.232 452.107 297.568 451.479 295.957C450.975 294.499 450.45 293.046 449.904 291.597C448.811 288.696 447.634 285.823 446.372 282.98C441.413 271.488 434.699 260.835 426.472 251.402C421.781 246.13 416.495 241.419 410.72 237.364C409.88 236.775 409.071 238.102 409.9 238.683C419.886 245.834 428.406 254.838 434.994 265.204C441.514 275.42 446.709 286.423 450.455 297.949C451.071 299.787 451.739 301.827 451.29 303.767C450.982 305.094 450.065 306.947 448.672 307.467C448.672 307.467 441.836 308.367 445.363 309.333"
                fill="#C1C1C1" />
            <path
                d="M48.6683 310.057H336.495C336.746 310.049 336.984 309.944 337.159 309.763C337.334 309.583 337.431 309.342 337.431 309.091C337.431 308.839 337.334 308.598 337.159 308.418C336.984 308.237 336.746 308.132 336.495 308.124H48.6683C48.4174 308.132 48.1794 308.237 48.0047 308.418C47.8301 308.598 47.7324 308.839 47.7324 309.091C47.7324 309.342 47.8301 309.583 48.0047 309.763C48.1794 309.944 48.4174 310.049 48.6683 310.057Z"
                fill="#C1C1C1" />
            <path
                d="M8.45192 299.691C7.4752 300.781 6.85777 302.146 6.68351 303.599C6.50926 305.052 6.78662 306.524 7.47792 307.814C8.20872 309.053 9.29698 310.041 10.5998 310.65C11.9026 311.259 13.3591 311.459 14.7779 311.225C15.0236 311.155 15.2321 310.992 15.3585 310.77C15.4849 310.548 15.5192 310.285 15.4539 310.038C15.3806 309.794 15.216 309.588 14.9944 309.462C14.7727 309.336 14.5111 309.3 14.2639 309.362C13.2441 309.515 12.202 309.349 11.2802 308.887C10.3585 308.424 9.60221 307.688 9.11504 306.78C8.62787 305.871 8.43362 304.833 8.55892 303.81C8.68421 302.786 9.12291 301.827 9.81492 301.062C10.6449 300.14 9.28292 298.762 8.44892 299.696"
                fill="#C1C1C1" />
            <path
                d="M116.563 288.57H142.052C142.303 288.562 142.541 288.457 142.715 288.276C142.89 288.096 142.988 287.855 142.988 287.604C142.988 287.352 142.89 287.111 142.715 286.931C142.541 286.75 142.303 286.645 142.052 286.637H116.563C116.312 286.645 116.074 286.75 115.899 286.931C115.725 287.111 115.627 287.352 115.627 287.604C115.627 287.855 115.725 288.096 115.899 288.276C116.074 288.457 116.312 288.562 116.563 288.57Z"
                fill="#C1C1C1" />
            <path
                d="M117.625 280.074H131.432C131.683 280.066 131.921 279.961 132.096 279.78C132.271 279.6 132.368 279.359 132.368 279.108C132.368 278.856 132.271 278.615 132.096 278.435C131.921 278.254 131.683 278.149 131.432 278.141H117.625C117.374 278.149 117.136 278.254 116.962 278.435C116.787 278.615 116.689 278.856 116.689 279.108C116.689 279.359 116.787 279.6 116.962 279.78C117.136 279.961 117.374 280.066 117.625 280.074Z"
                fill="#C1C1C1" />
            <path
                d="M405.815 304.083H415.374C415.625 304.075 415.863 303.97 416.037 303.789C416.212 303.609 416.31 303.368 416.31 303.117C416.31 302.865 416.212 302.624 416.037 302.444C415.863 302.263 415.625 302.158 415.374 302.15H405.815C405.564 302.158 405.326 302.263 405.151 302.444C404.977 302.624 404.879 302.865 404.879 303.117C404.879 303.368 404.977 303.609 405.151 303.789C405.326 303.97 405.564 304.075 405.815 304.083Z"
                fill="#C1C1C1" />
            <path
                d="M409.002 292.4H421.748C421.999 292.392 422.237 292.287 422.412 292.106C422.587 291.926 422.684 291.685 422.684 291.434C422.684 291.182 422.587 290.941 422.412 290.761C422.237 290.58 421.999 290.475 421.748 290.467H409.002C408.751 290.475 408.513 290.58 408.339 290.761C408.164 290.941 408.066 291.182 408.066 291.434C408.066 291.685 408.164 291.926 408.339 292.106C408.513 292.287 408.751 292.392 409.002 292.4Z"
                fill="#C1C1C1" />
            <path
                d="M372.467 267.527H387.337C387.588 267.519 387.826 267.414 388.001 267.233C388.175 267.053 388.273 266.812 388.273 266.561C388.273 266.309 388.175 266.068 388.001 265.888C387.826 265.707 387.588 265.602 387.337 265.594H372.467C372.216 265.602 371.978 265.707 371.804 265.888C371.629 266.068 371.531 266.309 371.531 266.561C371.531 266.812 371.629 267.053 371.804 267.233C371.978 267.414 372.216 267.519 372.467 267.527Z"
                fill="#C1C1C1" />
            <path
                d="M372.23 275.384H388.941C389.229 275.384 389.505 275.27 389.709 275.066C389.913 274.862 390.028 274.585 390.028 274.297C390.028 274.009 389.913 273.732 389.709 273.528C389.505 273.325 389.229 273.21 388.941 273.21H372.23C371.941 273.21 371.665 273.325 371.461 273.528C371.257 273.732 371.143 274.009 371.143 274.297C371.143 274.585 371.257 274.862 371.461 275.066C371.665 275.27 371.941 275.384 372.23 275.384Z"
                fill="#C1C1C1" />
            <path
                d="M290.27 231.726C270.939 191.819 230.334 180.934 186.231 176.301C185.864 176.261 185.499 176.202 185.138 176.122C156.621 169.949 127.092 180.189 109.808 203.691C105.627 209.377 100.026 222.091 96.8984 227.176"
                fill="#F59F18" />
            <path
                d="M120.326 203.521L125.408 197.88C125.572 197.715 125.665 197.492 125.664 197.259C125.664 197.027 125.572 196.803 125.407 196.639C125.242 196.475 125.019 196.382 124.786 196.383C124.553 196.383 124.33 196.475 124.166 196.64L119.086 202.281C118.926 202.448 118.836 202.67 118.836 202.901C118.836 203.132 118.926 203.354 119.086 203.521C119.251 203.683 119.474 203.775 119.706 203.775C119.938 203.775 120.16 203.683 120.326 203.521Z"
                fill="#B23E32" />
            <path
                d="M127.628 203.31C127.928 202.71 128.228 202.118 128.528 201.519C128.642 201.313 128.673 201.072 128.617 200.843C128.555 200.624 128.412 200.437 128.217 200.319C128.116 200.26 128.004 200.222 127.888 200.208C127.772 200.193 127.654 200.201 127.541 200.232C127.321 200.292 127.133 200.435 127.017 200.632C126.717 201.232 126.417 201.824 126.117 202.423C126.004 202.629 125.973 202.871 126.03 203.099C126.061 203.21 126.113 203.314 126.184 203.405C126.254 203.496 126.342 203.572 126.442 203.629C126.543 203.685 126.653 203.722 126.767 203.736C126.882 203.75 126.998 203.741 127.108 203.71C127.329 203.65 127.517 203.507 127.632 203.31"
                fill="#B23E32" />
            <path
                d="M128.302 210.613L130.991 207.926C131.075 207.845 131.142 207.748 131.188 207.641C131.235 207.534 131.259 207.419 131.26 207.302C131.262 207.186 131.239 207.07 131.195 206.962C131.151 206.854 131.086 206.756 131.003 206.673C130.921 206.591 130.823 206.525 130.715 206.481C130.607 206.437 130.491 206.415 130.374 206.416C130.258 206.417 130.142 206.442 130.035 206.488C129.928 206.535 129.831 206.602 129.751 206.686C128.854 207.58 127.958 208.476 127.063 209.374C126.904 209.54 126.816 209.761 126.818 209.99C126.821 210.22 126.913 210.439 127.075 210.601C127.237 210.764 127.457 210.856 127.686 210.858C127.916 210.861 128.137 210.773 128.303 210.614"
                fill="#B23E32" />
            <path
                d="M138.79 188.227L141.45 186.396C141.642 186.275 141.784 186.089 141.85 185.872C141.911 185.644 141.879 185.401 141.761 185.196C141.642 184.997 141.45 184.853 141.225 184.795C141.001 184.736 140.763 184.767 140.561 184.881L137.901 186.712C137.71 186.833 137.568 187.019 137.501 187.236C137.456 187.404 137.461 187.582 137.517 187.747C137.572 187.912 137.676 188.057 137.814 188.163C137.952 188.27 138.119 188.332 138.293 188.344C138.466 188.355 138.64 188.314 138.79 188.227Z"
                fill="#B23E32" />
            <path
                d="M56.0617 249.497C54.8743 240.485 53.6877 231.474 52.5017 222.463C46.6417 226.641 37.6447 223.188 34.3017 216.817C30.9587 210.446 32.2017 202.504 35.3897 196.052C35.7433 195.172 36.3245 194.402 37.0737 193.821C39.0487 192.532 41.7907 194.199 42.7397 196.357C43.6887 198.515 43.5247 200.975 43.9467 203.295C44.3687 205.615 45.7747 208.112 48.1127 208.407C51.9307 208.894 53.5707 203.744 53.7717 199.901L54.7477 181.124C54.9417 177.403 55.7477 172.842 59.2837 171.684C62.0207 170.79 65.0417 172.69 66.4007 175.231C67.7597 177.772 67.8637 180.771 67.9387 183.65C68.1993 193.777 68.461 203.907 68.7237 214.038C68.7837 216.353 68.9847 218.974 70.7807 220.438C74.0047 223.069 78.8687 219.328 79.8807 215.293C80.8927 211.258 80.0397 206.817 81.6887 202.993C81.8877 202.398 82.2908 201.893 82.8267 201.567C83.3715 201.348 83.9793 201.344 84.5266 201.557C88.3176 202.779 88.8887 207.824 88.7567 211.804C88.6 216.608 88.4436 221.411 88.2877 226.214C88.384 228.032 88.0048 229.843 87.1877 231.47C85.6207 234.004 82.2197 234.724 79.2537 234.456C76.2877 234.188 73.3967 233.177 70.4177 233.224C70.2507 239.253 70.6188 245.285 71.5177 251.249L56.0617 249.497Z"
                fill="#396650" />
            <path
                d="M80.4623 256.247H49.4113C47.0774 256.247 44.8391 255.32 43.1888 253.67C41.5385 252.019 40.6113 249.781 40.6113 247.447V247.119C40.6113 244.785 41.5385 242.547 43.1888 240.897C44.8391 239.246 47.0774 238.319 49.4113 238.319H80.4623C82.7962 238.319 85.0345 239.246 86.6849 240.897C88.3352 242.547 89.2623 244.785 89.2623 247.119V247.447C89.2623 249.781 88.3352 252.019 86.6849 253.67C85.0345 255.32 82.7962 256.247 80.4623 256.247Z"
                fill="#E0E0E0" />
            <path d="M82.2202 254.967H47.6562L54.0562 285.69H75.8182L82.2202 254.967Z"
                fill="#E0E0E0" />
            <path
                d="M48.6329 257.34H79.0959C79.3285 257.34 79.5515 257.248 79.716 257.083C79.8805 256.919 79.9729 256.696 79.9729 256.463C79.9729 256.23 79.8805 256.007 79.716 255.843C79.5515 255.678 79.3285 255.586 79.0959 255.586H48.6329C48.4003 255.586 48.1772 255.678 48.0127 255.843C47.8483 256.007 47.7559 256.23 47.7559 256.463C47.7559 256.696 47.8483 256.919 48.0127 257.083C48.1772 257.248 48.4003 257.34 48.6329 257.34Z"
                fill="#F59F18" />
            <path
                d="M88.6088 289.491H41.2648C39.9478 289.491 38.6846 288.968 37.7533 288.037C36.822 287.105 36.2988 285.842 36.2988 284.525H93.5748C93.5748 285.842 93.0516 287.105 92.1203 288.037C91.189 288.968 89.9259 289.491 88.6088 289.491Z"
                fill="#CCCAC6" />
            <path
                d="M62.8018 202.888L71.8218 197.617C72.0112 197.494 72.146 197.303 72.1982 197.084C72.2505 196.864 72.2162 196.633 72.1024 196.438C71.9887 196.243 71.8042 196.099 71.5874 196.037C71.3705 195.974 71.1379 195.998 70.9378 196.102C67.9298 197.858 64.9232 199.615 61.9178 201.373C61.7285 201.496 61.5937 201.687 61.5414 201.906C61.4892 202.126 61.5235 202.357 61.6372 202.552C61.751 202.747 61.9354 202.891 62.1523 202.953C62.3691 203.016 62.6017 202.992 62.8018 202.888Z"
                fill="#619B80" />
            <path
                d="M65.2497 190.468C67.8262 189.9 70.1449 188.502 71.8497 186.488C72.0093 186.321 72.0983 186.098 72.0983 185.867C72.0983 185.636 72.0093 185.413 71.8497 185.246C71.684 185.084 71.4614 184.993 71.2297 184.993C70.998 184.993 70.7754 185.084 70.6097 185.246C69.1212 187.044 67.0696 188.288 64.7867 188.776C64.5623 188.838 64.3718 188.986 64.2569 189.189C64.142 189.391 64.1123 189.631 64.1742 189.856C64.2361 190.08 64.3847 190.27 64.5871 190.385C64.7896 190.5 65.0293 190.53 65.2537 190.468"
                fill="#619B80" />
            <path
                d="M49.5095 189.484C52.3791 189.963 55.095 191.113 57.4365 192.84C57.6377 192.956 57.8765 192.988 58.1012 192.929C58.3259 192.87 58.5182 192.725 58.6365 192.525C58.7479 192.323 58.7774 192.085 58.7188 191.862C58.6601 191.639 58.5179 191.446 58.3215 191.325C55.8543 189.512 52.9966 188.302 49.9775 187.793C49.753 187.738 49.516 187.771 49.315 187.885C49.1141 188 48.9644 188.186 48.8965 188.407C48.8373 188.631 48.8685 188.87 48.9833 189.071C49.0981 189.273 49.2874 189.421 49.5105 189.485"
                fill="#619B80" />
            <path
                d="M52.6606 173.754C53.9983 176.555 56.3763 178.724 59.2886 179.798C59.5129 179.859 59.7521 179.828 59.954 179.713C60.1559 179.598 60.3042 179.408 60.3666 179.184C60.424 178.96 60.3924 178.723 60.2785 178.522C60.1645 178.321 59.9771 178.172 59.7556 178.106C59.1634 177.879 58.5942 177.596 58.0556 177.261C57.7646 177.082 57.4846 176.891 57.2136 176.685C57.3136 176.76 57.1136 176.61 57.0996 176.596C57.0276 176.536 56.9556 176.477 56.8856 176.417C56.7566 176.308 56.6296 176.196 56.5056 176.079C55.5206 175.178 54.7286 174.086 54.1776 172.87C54.059 172.67 53.8666 172.526 53.6421 172.467C53.4176 172.408 53.1789 172.439 52.9776 172.555C52.7812 172.676 52.6389 172.869 52.5803 173.092C52.5216 173.315 52.5511 173.553 52.6626 173.755"
                fill="#619B80" />
            <path
                d="M66.4916 177.55C68.2576 175.439 70.0242 173.327 71.7916 171.216C71.9505 171.049 72.0392 170.827 72.0392 170.596C72.0392 170.365 71.9505 170.143 71.7916 169.976C71.626 169.813 71.403 169.722 71.1706 169.722C70.9382 169.722 70.7151 169.813 70.5496 169.976C68.7836 172.087 67.0169 174.199 65.2496 176.31C65.0906 176.477 65.002 176.699 65.002 176.93C65.002 177.161 65.0906 177.383 65.2496 177.55C65.4147 177.713 65.6374 177.805 65.8696 177.805C66.1017 177.805 66.3245 177.713 66.4896 177.55"
                fill="#619B80" />
            <path
                d="M69.3464 209.645C70.5052 207.507 72.2548 205.746 74.3864 204.575C74.5856 204.456 74.7301 204.264 74.789 204.039C74.8479 203.815 74.8165 203.576 74.7014 203.375C74.5797 203.179 74.3873 203.037 74.1639 202.979C73.9406 202.921 73.7034 202.95 73.5014 203.062C71.113 204.391 69.1481 206.366 67.8324 208.762C67.7744 208.862 67.7365 208.971 67.7209 209.086C67.7054 209.2 67.7124 209.316 67.7417 209.427C67.771 209.539 67.822 209.643 67.8917 209.735C67.9614 209.826 68.0484 209.903 68.1479 209.962C68.2474 210.02 68.3573 210.057 68.4714 210.073C68.5856 210.089 68.7016 210.082 68.813 210.052C68.9244 210.023 69.0289 209.972 69.1206 209.902C69.2123 209.833 69.2894 209.746 69.3474 209.646"
                fill="#619B80" />
            <path
                d="M49.4053 200.856L56.6053 206.192C56.8063 206.308 57.045 206.341 57.2696 206.282C57.4943 206.223 57.6867 206.079 57.8053 205.879C57.9168 205.677 57.9463 205.439 57.8876 205.216C57.829 204.993 57.6867 204.8 57.4903 204.679C55.0903 202.9 52.6903 201.122 50.2903 199.343C50.0891 199.227 49.8502 199.195 49.6256 199.254C49.4009 199.313 49.2086 199.458 49.0903 199.658C48.9788 199.86 48.9494 200.098 49.008 200.321C49.0666 200.544 49.2089 200.737 49.4053 200.858"
                fill="#619B80" />
            <path
                d="M48.1632 205.777C49.0302 207.916 49.2655 210.258 48.8412 212.526C48.7848 212.751 48.8172 212.988 48.9316 213.19C49.0459 213.391 49.2335 213.54 49.4552 213.607C49.6795 213.666 49.918 213.635 50.1196 213.52C50.3212 213.405 50.4697 213.216 50.5332 212.993C51.0447 210.42 50.8094 207.754 49.8552 205.31C49.788 205.09 49.6387 204.903 49.4381 204.789C49.2375 204.676 49.0009 204.643 48.7772 204.699C48.5534 204.761 48.3633 204.91 48.2483 205.112C48.1333 205.314 48.1027 205.553 48.1632 205.777Z"
                fill="#619B80" />
            <path
                d="M27.0865 204.766C30.4051 205.861 33.7232 206.958 37.0405 208.055C38.1135 208.408 38.5755 206.716 37.5075 206.361L27.5505 203.076C26.4745 202.721 26.0155 204.415 27.0835 204.768"
                fill="#619B80" />
            <path
                d="M31.2339 191.866L38.3929 198.148C38.5576 198.312 38.7809 198.405 39.0136 198.405C39.2464 198.404 39.4695 198.312 39.6339 198.147C39.7984 197.982 39.8907 197.759 39.8905 197.526C39.8903 197.294 39.7976 197.07 39.6329 196.906L32.4739 190.626C32.3067 190.467 32.0847 190.378 31.8539 190.378C31.6232 190.378 31.4012 190.467 31.2339 190.626C31.0715 190.792 30.9805 191.014 30.9805 191.246C30.9805 191.478 31.0715 191.701 31.2339 191.866Z"
                fill="#619B80" />
            <path
                d="M38.7234 220.562L43.2024 216.086C43.3671 215.922 43.4597 215.698 43.4599 215.466C43.4601 215.233 43.3678 215.01 43.2034 214.845C43.122 214.763 43.0253 214.699 42.9188 214.655C42.8124 214.61 42.6983 214.588 42.5831 214.588C42.3503 214.587 42.1271 214.68 41.9624 214.844C40.4697 216.337 38.9767 217.83 37.4834 219.325C37.3189 219.489 37.2266 219.713 37.2266 219.945C37.2266 220.178 37.3189 220.401 37.4834 220.565C37.6478 220.729 37.8708 220.822 38.1034 220.822C38.3359 220.822 38.5589 220.729 38.7234 220.565"
                fill="#619B80" />
            <path
                d="M84.6964 222.532C87.6786 222.702 90.6165 223.333 93.4054 224.403C93.6301 224.463 93.8693 224.432 94.0715 224.317C94.2737 224.202 94.4227 224.013 94.4864 223.789C94.5419 223.565 94.5091 223.328 94.3948 223.127C94.2806 222.927 94.0935 222.778 93.8724 222.711C90.9316 221.598 87.8364 220.947 84.6964 220.781C83.5684 220.719 83.5714 222.473 84.6964 222.535"
                fill="#619B80" />
            <path
                d="M82.4565 228.768C84.2458 229.665 86.0378 230.56 87.8325 231.455C88.0334 231.572 88.2727 231.605 88.4976 231.546C88.7226 231.487 88.9148 231.34 89.032 231.14C89.1492 230.939 89.1818 230.699 89.1227 230.474C89.0635 230.25 88.9174 230.057 88.7165 229.94C86.9252 229.046 85.1332 228.15 83.3405 227.252C83.241 227.194 83.1311 227.156 83.017 227.141C82.9029 227.125 82.7868 227.132 82.6754 227.161C82.564 227.191 82.4595 227.242 82.3678 227.311C82.2761 227.381 82.1991 227.468 82.141 227.568C82.083 227.667 82.0451 227.777 82.0295 227.891C82.014 228.005 82.021 228.121 82.0503 228.233C82.0796 228.344 82.1306 228.449 82.2003 228.54C82.27 228.632 82.357 228.71 82.4565 228.768Z"
                fill="#619B80" />
            <path
                d="M77.0444 210.01L83.2674 213.674C83.468 213.786 83.7042 213.814 83.9255 213.754C84.1469 213.693 84.3357 213.548 84.4516 213.35C84.5676 213.152 84.6014 212.917 84.5458 212.694C84.4903 212.471 84.3498 212.279 84.1544 212.159L77.9284 208.494C77.8289 208.436 77.719 208.398 77.6049 208.383C77.4908 208.367 77.3747 208.374 77.2633 208.403C77.1519 208.433 77.0474 208.484 76.9557 208.553C76.864 208.623 76.7869 208.71 76.7289 208.81C76.6709 208.909 76.633 209.019 76.6174 209.133C76.6019 209.247 76.6089 209.363 76.6382 209.475C76.6675 209.586 76.7185 209.691 76.7882 209.782C76.8579 209.874 76.9449 209.952 77.0444 210.01Z"
                fill="#619B80" />
            <path
                d="M79.5582 201.787C81.0508 202.982 82.5445 204.176 84.0392 205.369C84.2064 205.528 84.4284 205.617 84.6592 205.617C84.8899 205.617 85.1119 205.528 85.2792 205.369C85.4416 205.204 85.5326 204.981 85.5326 204.749C85.5326 204.517 85.4416 204.295 85.2792 204.129C83.7858 202.935 82.2922 201.741 80.7982 200.546C80.6316 200.386 80.4094 200.296 80.1782 200.296C79.947 200.296 79.7247 200.386 79.5582 200.546C79.3957 200.712 79.3047 200.934 79.3047 201.166C79.3047 201.398 79.3957 201.622 79.5582 201.787Z"
                fill="#619B80" />
            <path
                d="M68.4427 216.916L74.5317 209.598C74.6907 209.431 74.7794 209.209 74.7794 208.978C74.7794 208.747 74.6907 208.525 74.5317 208.358C74.3666 208.195 74.1439 208.103 73.9117 208.103C73.6796 208.103 73.4568 208.195 73.2917 208.358C71.2597 210.797 69.2294 213.237 67.2007 215.676C67.0418 215.843 66.9531 216.065 66.9531 216.296C66.9531 216.527 67.0418 216.749 67.2007 216.916C67.3658 217.079 67.5886 217.171 67.8207 217.171C68.0529 217.171 68.2756 217.079 68.4407 216.916"
                fill="#619B80" />
            <path
                d="M73.4872 226.074L77.9662 223.386C78.1671 223.269 78.3132 223.077 78.3723 222.852C78.4315 222.627 78.3989 222.387 78.2817 222.187C78.1644 221.986 77.9722 221.84 77.7472 221.78C77.5223 221.721 77.2831 221.754 77.0822 221.871C75.5895 222.768 74.0958 223.664 72.6012 224.559C72.4058 224.679 72.2653 224.871 72.2097 225.094C72.1542 225.317 72.188 225.552 72.3039 225.75C72.4198 225.948 72.6087 226.093 72.83 226.154C73.0514 226.214 73.2866 226.186 73.4872 226.074Z"
                fill="#619B80" />
            <path
                d="M57.184 219.01C55.3032 218.382 53.2768 218.336 51.3694 218.878C49.462 219.419 47.7622 220.524 46.492 222.046C46.334 222.214 46.2461 222.436 46.2461 222.667C46.2461 222.898 46.334 223.12 46.492 223.288C46.658 223.45 46.8809 223.541 47.113 223.541C47.3452 223.541 47.5681 223.45 47.734 223.288C48.7859 221.989 50.2116 221.044 51.818 220.581C53.4245 220.119 55.1343 220.161 56.716 220.702C57.784 221.077 58.245 219.383 57.184 219.01Z"
                fill="#619B80" />
            <path
                d="M58.3807 224.708L50.2007 230.826C50.0046 230.948 49.8628 231.14 49.8045 231.364C49.7463 231.587 49.7761 231.824 49.8877 232.026C50.0065 232.225 50.1989 232.37 50.4235 232.429C50.6481 232.487 50.8867 232.455 51.0877 232.339C53.8124 230.302 56.538 228.264 59.2647 226.223C59.4611 226.102 59.6034 225.909 59.662 225.686C59.7206 225.463 59.6912 225.225 59.5797 225.023C59.4616 224.823 59.2693 224.677 59.0445 224.619C58.8198 224.56 58.5808 224.592 58.3797 224.708"
                fill="#619B80" />
            <path
                d="M87.1623 206.284C88.2823 201.969 92.5553 194.179 95.3503 196.926C97.8343 199.368 94.3413 205.218 92.1503 207.918C93.9538 207.2 95.958 207.169 97.7829 207.831C99.6077 208.493 101.126 209.801 102.05 211.508C102.284 211.826 102.399 212.216 102.375 212.61C102.35 213.005 102.188 213.377 101.916 213.664C101.628 213.923 101.28 214.104 100.903 214.192C100.526 214.279 100.133 214.269 99.7603 214.164L91.2253 211.973C92.8012 214.713 93.8455 217.726 94.3033 220.854C94.3568 221.249 94.2935 221.65 94.1213 222.009C93.9491 222.368 93.6755 222.668 93.3343 222.873C92.9932 223.079 92.5994 223.179 92.2016 223.163C91.8039 223.147 91.4196 223.014 91.0963 222.782C89.6913 221.777 88.5325 220.467 87.7073 218.949C86.8821 217.432 86.412 215.747 86.3323 214.021C84.5783 215.812 80.4973 217.797 76.7613 218.646C76.1875 218.771 75.5883 218.699 75.0603 218.442C74.5323 218.185 74.1064 217.757 73.8512 217.228C73.5961 216.699 73.5266 216.1 73.654 215.526C73.7814 214.953 74.0982 214.439 74.5533 214.068C77.2333 211.917 80.6763 210.101 82.7113 210.026C80.2793 209.326 75.4723 200.435 80.1523 197.509C81.8713 196.436 87.1703 206.283 87.1703 206.283"
                fill="#F5E6DF" />
            <path
                d="M89.8212 209.667C89.6929 209.262 89.416 208.92 89.0462 208.711C88.8929 208.622 88.727 208.556 88.5542 208.517C88.38 208.476 88.2007 208.461 88.0222 208.472L87.9152 208.487L87.8382 208.477C87.6828 208.476 87.5301 208.517 87.3962 208.596C87.3183 208.637 87.245 208.687 87.1772 208.743C87.1055 208.793 87.0385 208.85 86.9772 208.912C86.9001 209.002 86.8302 209.099 86.7682 209.2C86.7532 209.225 86.7312 209.247 86.7162 209.272C86.4964 209.705 86.3904 210.187 86.4082 210.672C86.407 210.898 86.4941 211.116 86.6509 211.279C86.8077 211.443 87.022 211.538 87.2482 211.546C87.2702 211.561 87.2902 211.581 87.3132 211.596C87.5067 211.707 87.7212 211.777 87.9431 211.801C88.165 211.825 88.3894 211.802 88.6022 211.735C89.0253 211.6 89.3887 211.323 89.6302 210.95C89.7344 210.793 89.8061 210.616 89.8412 210.431C89.8951 210.178 89.8865 209.917 89.8162 209.668"
                fill="#B23E32" />
            <path
                d="M385.958 286.637H268.967L295.303 211.585C296.273 208.82 298.077 206.425 300.467 204.731C302.858 203.036 305.715 202.126 308.645 202.126H405.686C407.945 202.126 410.172 202.667 412.179 203.704C414.186 204.742 415.916 206.245 417.223 208.088C418.53 209.931 419.376 212.061 419.69 214.298C420.005 216.536 419.779 218.816 419.031 220.948L399.3 277.178C398.33 279.943 396.525 282.338 394.135 284.032C391.745 285.727 388.888 286.637 385.958 286.637Z"
                fill="#CCCAC6" />
            <path d="M282.31 282.185H203.236V286.634H282.31V282.185Z" fill="#CCCAC6" />
            <path
                d="M360.269 244.523C360.27 246.086 359.807 247.614 358.94 248.914C358.072 250.214 356.839 251.228 355.395 251.827C353.951 252.425 352.362 252.582 350.829 252.278C349.296 251.973 347.888 251.22 346.783 250.115C345.677 249.01 344.925 247.602 344.62 246.069C344.316 244.536 344.473 242.947 345.071 241.503C345.67 240.059 346.683 238.826 347.983 237.958C349.284 237.09 350.812 236.628 352.375 236.629C354.468 236.629 356.476 237.461 357.956 238.941C359.437 240.422 360.268 242.43 360.269 244.523Z"
                fill="white" />
            <path
                d="M407.821 207.533C413.194 210.777 414.342 219.173 410.021 223.733C409.243 224.553 410.483 225.795 411.261 224.975C416.361 219.594 415.061 209.857 408.71 206.019C408.51 205.915 408.277 205.891 408.06 205.954C407.844 206.016 407.659 206.16 407.545 206.355C407.432 206.55 407.397 206.781 407.45 207.001C407.502 207.22 407.637 207.411 407.826 207.534"
                fill="#4F657F" />
            <path
                d="M292.699 282.888H362.582C362.815 282.888 363.038 282.796 363.202 282.631C363.367 282.467 363.459 282.244 363.459 282.011C363.459 281.778 363.367 281.555 363.202 281.391C363.038 281.226 362.815 281.134 362.582 281.134H292.699C292.467 281.134 292.244 281.226 292.079 281.391C291.915 281.555 291.822 281.778 291.822 282.011C291.822 282.244 291.915 282.467 292.079 282.631C292.244 282.796 292.467 282.888 292.699 282.888Z"
                fill="#4F657F" />
            <path
                d="M158.931 272.37C158.415 271.212 157.619 270.201 156.614 269.428C155.609 268.656 154.427 268.146 153.175 267.946C151.888 267.782 150.581 268.015 149.429 268.614V265.814H111.246V285.068C111.246 286.374 111.503 287.667 112.003 288.874C112.502 290.08 113.235 291.176 114.158 292.1C115.082 293.023 116.178 293.756 117.385 294.255C118.591 294.755 119.884 295.012 121.19 295.012H139.49C142.127 295.012 144.656 293.964 146.52 292.099C148.384 290.234 149.431 287.705 149.431 285.068V281.983C150.53 282.668 151.805 283.017 153.1 282.989C154.268 282.974 155.41 282.646 156.408 282.041C157.407 281.435 158.225 280.574 158.779 279.546C159.343 278.439 159.649 277.219 159.676 275.978C159.703 274.736 159.449 273.504 158.933 272.374M156.148 275.174C156.158 275.254 156.163 275.326 156.148 275.174V275.174ZM155.847 277.586C155.782 277.765 155.815 277.67 155.847 277.586V277.586ZM156.147 276.443C156.081 276.819 155.985 277.188 155.859 277.548C155.822 277.623 155.787 277.697 155.75 277.772C155.65 277.958 155.524 278.13 155.422 278.314C155.362 278.386 155.31 278.448 155.256 278.508C155.202 278.568 155.127 278.647 155.056 278.708C155.039 278.725 154.956 278.795 154.897 278.852C154.838 278.909 154.624 279.038 154.584 279.061C154.484 279.118 153.928 279.352 154.375 279.19C154.087 279.31 153.789 279.401 153.483 279.463C153.49 279.463 153.463 279.463 153.354 279.463C153.245 279.463 153.14 279.475 153.034 279.478C152.843 279.478 152.654 279.456 152.463 279.451C152.371 279.424 152.272 279.414 152.177 279.389C151.971 279.339 151.777 279.262 151.577 279.2C152.012 279.332 151.458 279.13 151.324 279.053C151.254 279.011 151.185 278.961 151.115 278.919L151.088 278.904C150.946 278.772 150.827 278.623 150.688 278.504C150.626 278.397 150.556 278.293 150.494 278.181C150.258 277.784 149.875 277.497 149.428 277.381V274.062C149.634 273.863 149.777 273.607 149.838 273.327C149.855 273.233 149.875 273.136 149.9 273.041L149.97 272.835C149.99 272.79 150.012 272.741 150.022 272.723C150.067 272.636 150.116 272.554 150.169 272.472C150.193 272.437 150.219 272.404 150.246 272.372L150.39 272.208C150.46 272.138 150.532 272.074 150.601 272.008L150.643 271.966C150.843 271.847 151.028 271.732 151.219 271.621L151.291 271.586C151.356 271.564 151.418 271.539 151.485 271.519C151.635 271.474 151.787 271.437 151.94 271.407C151.808 271.434 151.913 271.407 151.997 271.392C152.018 271.389 152.039 271.385 152.059 271.38L151.999 271.392H152.031C152.183 271.392 152.331 271.382 152.481 271.392C152.561 271.392 152.64 271.402 152.717 271.409L152.779 271.421C152.979 271.471 153.179 271.521 153.37 271.585C153.435 271.605 153.497 271.63 153.561 271.655C153.596 271.672 153.64 271.695 153.661 271.707C153.885 271.839 154.108 271.96 154.327 272.102L154.387 272.139C154.454 272.196 154.521 272.251 154.587 272.308C154.763 272.465 154.93 272.632 155.087 272.808C155.157 272.885 155.221 272.962 155.287 273.039C155.421 273.282 155.573 273.481 155.687 273.702C155.732 273.786 155.769 273.876 155.814 273.958C155.881 274.158 155.956 274.348 156.014 274.549C156.072 274.75 156.101 274.924 156.141 275.113C156.146 275.13 156.15 275.147 156.151 275.165C156.161 275.279 156.173 275.391 156.178 275.503C156.188 275.694 156.19 275.886 156.178 276.079C156.178 276.168 156.151 276.392 156.148 276.454"
                fill="#F59F18" />
            <path
                d="M129.731 262.334C131.02 260.282 132.59 256.387 131.659 254.151C131.247 253.296 130.658 252.539 129.93 251.93C125.474 247.796 119.171 244.674 117.885 238.73C117.705 238.064 117.702 237.363 117.878 236.696C118.405 235.052 120.546 234.416 122.193 234.93C123.795 235.591 125.198 236.657 126.264 238.023C121.815 230.69 118.24 221.976 120.451 213.689C120.843 212.221 121.728 210.557 123.246 210.489C123.988 210.514 124.704 210.773 125.29 211.229C131.483 215.329 133.438 223.366 134.901 230.647C134.408 228.814 134.426 226.881 134.953 225.058C135.479 223.234 136.495 221.589 137.889 220.301C138.612 219.547 139.6 219.102 140.644 219.059C142.765 219.151 143.801 221.687 144.067 223.794C144.639 228.424 143.976 233.122 142.144 237.412C143.09 235.343 144.744 232.891 146.963 233.38C149.298 233.892 149.656 237.074 149.226 239.424C147.691 247.579 143.13 254.852 136.458 259.784C134.51 261.21 132.258 262.457 129.843 262.375L129.731 262.334Z"
                fill="white" />
        </g>
        <mask id="mask2_387_4981" style="mask-type:luminance" maskUnits="userSpaceOnUse" x="111"
            y="265" width="49" height="31">
            <path
                d="M155.846 277.586L155.809 277.686C155.809 277.686 155.826 277.634 155.846 277.586ZM156.146 275.171C156.153 275.218 156.156 275.26 156.156 275.26L156.146 275.171ZM151.312 271.571C151.367 271.549 151.401 271.541 151.312 271.571V271.571ZM152 271.387L152.06 271.372L152.003 271.387H152.033C152.185 271.387 152.333 271.375 152.483 271.387C152.565 271.387 152.642 271.397 152.721 271.404L152.781 271.419C152.981 271.466 153.181 271.513 153.372 271.578C153.437 271.6 153.501 271.625 153.563 271.65C153.597 271.666 153.631 271.683 153.663 271.702C153.887 271.834 154.113 271.955 154.331 272.097C154.353 272.114 154.373 272.124 154.391 272.137C154.458 272.192 154.523 272.249 154.591 272.306C154.767 272.463 154.934 272.63 155.091 272.806C155.158 272.881 155.223 272.96 155.291 273.035C155.425 273.281 155.577 273.48 155.691 273.701C155.736 273.783 155.773 273.872 155.818 273.954C155.885 274.154 155.96 274.346 156.018 274.548C156.07 274.732 156.107 274.921 156.147 275.109C156.151 275.126 156.153 275.144 156.154 275.161C156.166 275.275 156.176 275.387 156.184 275.499C156.194 275.693 156.194 275.884 156.184 276.075C156.184 276.164 156.157 276.388 156.154 276.453C156.087 276.827 155.991 277.195 155.866 277.553C155.829 277.63 155.794 277.705 155.757 277.777C155.657 277.966 155.531 278.135 155.429 278.319C155.377 278.387 155.322 278.452 155.263 278.513C155.201 278.583 155.134 278.652 155.063 278.713C155.046 278.73 154.963 278.8 154.904 278.857C154.845 278.914 154.631 279.043 154.591 279.066C154.491 279.123 153.935 279.357 154.382 279.195C154.094 279.315 153.796 279.407 153.49 279.468C153.447 279.466 153.404 279.466 153.361 279.468C153.254 279.468 153.15 279.478 153.041 279.48C152.852 279.48 152.661 279.458 152.472 279.453C152.378 279.426 152.281 279.416 152.184 279.393C151.984 279.341 151.784 279.264 151.584 279.202C152.019 279.334 151.462 279.132 151.331 279.055C151.259 279.013 151.192 278.966 151.12 278.923L151.093 278.906C150.954 278.774 150.832 278.625 150.698 278.506C150.633 278.399 150.564 278.295 150.498 278.186C150.383 277.989 150.229 277.817 150.047 277.679C149.864 277.542 149.656 277.442 149.435 277.386V274.067C149.642 273.867 149.783 273.61 149.842 273.329C149.862 273.235 149.882 273.14 149.907 273.046C149.907 273.046 149.949 272.919 149.974 272.837L150.026 272.725C150.071 272.64 150.121 272.557 150.175 272.477C150.198 272.44 150.223 272.404 150.25 272.37C150.31 272.305 150.397 272.206 150.397 272.206C150.464 272.136 150.536 272.072 150.608 272.006L150.648 271.966C150.848 271.844 151.033 271.732 151.224 271.621C151.247 271.608 151.271 271.596 151.296 271.586C151.361 271.561 151.425 271.536 151.49 271.516C151.642 271.469 151.79 271.439 151.945 271.404L151.885 271.414C151.923 271.401 151.963 271.394 152.004 271.392M111.252 265.813V285.07C111.252 287.707 112.299 290.235 114.164 292.099C116.028 293.964 118.556 295.011 121.193 295.011H139.493C142.13 295.011 144.659 293.964 146.524 292.1C148.388 290.236 149.436 287.707 149.437 285.07V281.982C150.535 282.669 151.811 283.019 153.106 282.988C154.274 282.973 155.416 282.645 156.414 282.04C157.413 281.435 158.231 280.573 158.785 279.545C159.348 278.439 159.654 277.219 159.681 275.978C159.707 274.737 159.453 273.505 158.937 272.376C158.422 271.218 157.626 270.206 156.622 269.433C155.617 268.66 154.435 268.15 153.184 267.949C151.896 267.785 150.589 268.019 149.438 268.62V265.813H111.252Z"
                fill="white" />
        </mask>
        <g mask="url(#mask2_387_4981)">
            <path
                d="M109.172 282.154C111.147 280.421 113.123 278.683 115.099 276.942C115.282 276.75 115.483 276.576 115.699 276.423C115.962 276.284 115.945 276.271 116.186 276.475C116.6 276.846 116.99 277.243 117.354 277.662C118.18 278.566 118.936 279.531 119.617 280.549C119.687 280.663 119.781 280.759 119.893 280.832C120.005 280.904 120.132 280.951 120.264 280.968C120.396 280.985 120.531 280.972 120.657 280.931C120.784 280.889 120.9 280.82 120.996 280.728C122.787 279.228 124.563 277.71 126.367 276.228C126.779 275.888 127.03 275.609 127.443 276.064C127.801 276.456 128.116 276.899 128.443 277.313L130.619 280.058C130.755 280.196 130.934 280.285 131.126 280.309C131.318 280.334 131.513 280.294 131.68 280.195C133.727 278.623 135.677 276.927 137.518 275.118H136.271C137.631 276.586 138.681 278.313 139.359 280.195C139.404 280.34 139.484 280.472 139.594 280.577C139.703 280.682 139.838 280.758 139.985 280.796C140.132 280.835 140.286 280.835 140.433 280.797C140.58 280.759 140.715 280.685 140.825 280.58C142.862 278.896 144.9 277.21 146.938 275.522C146.481 275.463 146.022 275.404 145.562 275.346C146.944 277.182 148.326 279.018 149.708 280.853C150.379 281.745 151.901 280.87 151.223 279.969C149.84 278.133 148.458 276.296 147.077 274.459C147.006 274.347 146.912 274.251 146.8 274.18C146.688 274.108 146.561 274.062 146.429 274.045C146.297 274.029 146.163 274.041 146.037 274.082C145.911 274.123 145.795 274.192 145.698 274.283L139.582 279.341L141.05 279.728C140.277 277.56 139.074 275.57 137.513 273.878C137.347 273.716 137.124 273.626 136.892 273.626C136.66 273.626 136.437 273.716 136.271 273.878C134.543 275.587 132.713 277.19 130.791 278.678L131.854 278.817L129.246 275.517C128.481 274.556 127.594 273.629 126.268 274.198C125.727 274.477 125.23 274.833 124.792 275.256L123.144 276.638L119.744 279.485L121.12 279.664C120.31 278.448 119.402 277.299 118.405 276.231C117.555 275.324 116.517 274.085 115.146 274.716C114.587 275.035 114.077 275.432 113.631 275.896C113.01 276.443 112.388 276.989 111.765 277.535C110.486 278.66 109.206 279.786 107.925 280.913C107.075 281.658 108.32 282.895 109.165 282.153"
                fill="#F5E6DF" />
            <path
                d="M115.758 285.144C115.99 285.144 116.214 285.052 116.378 284.887C116.542 284.723 116.635 284.5 116.635 284.267C116.635 284.034 116.542 283.811 116.378 283.647C116.214 283.482 115.99 283.39 115.758 283.39C115.525 283.39 115.302 283.482 115.138 283.647C114.973 283.811 114.881 284.034 114.881 284.267C114.881 284.5 114.973 284.723 115.138 284.887C115.302 285.052 115.525 285.144 115.758 285.144Z"
                fill="#F5E6DF" />
            <path
                d="M121.133 273.943C121.365 273.943 121.589 273.851 121.753 273.686C121.917 273.522 122.01 273.299 122.01 273.066C122.01 272.833 121.917 272.61 121.753 272.446C121.589 272.281 121.365 272.189 121.133 272.189C120.9 272.189 120.677 272.281 120.513 272.446C120.348 272.61 120.256 272.833 120.256 273.066C120.256 273.299 120.348 273.522 120.513 273.686C120.677 273.851 120.9 273.943 121.133 273.943Z"
                fill="#F5E6DF" />
            <path
                d="M126.955 285.144C127.188 285.144 127.411 285.052 127.575 284.887C127.74 284.723 127.832 284.5 127.832 284.267C127.832 284.034 127.74 283.811 127.575 283.647C127.411 283.482 127.188 283.39 126.955 283.39C126.723 283.39 126.499 283.482 126.335 283.647C126.171 283.811 126.078 284.034 126.078 284.267C126.078 284.5 126.171 284.723 126.335 284.887C126.499 285.052 126.723 285.144 126.955 285.144Z"
                fill="#F5E6DF" />
            <path
                d="M133.654 273.513V273.066C133.661 272.949 133.636 272.832 133.582 272.728C133.545 272.619 133.481 272.522 133.396 272.445C133.322 272.36 133.226 272.298 133.118 272.264C133.014 272.21 132.896 272.184 132.778 272.19L132.547 272.22C132.4 272.26 132.266 272.338 132.157 272.446C132.115 272.506 132.068 272.565 132.02 272.622C131.943 272.758 131.902 272.911 131.901 273.067V273.514C131.895 273.632 131.922 273.749 131.978 273.852C132.012 273.96 132.074 274.058 132.157 274.135C132.236 274.218 132.334 274.28 132.443 274.316C132.546 274.371 132.662 274.397 132.778 274.391L133.014 274.361C133.159 274.319 133.291 274.241 133.397 274.135C133.447 274.075 133.489 274.016 133.536 273.956C133.616 273.823 133.657 273.67 133.655 273.514"
                fill="#F5E6DF" />
            <path
                d="M136.363 285.591C136.596 285.591 136.819 285.499 136.983 285.334C137.148 285.17 137.24 284.947 137.24 284.714C137.24 284.481 137.148 284.258 136.983 284.094C136.819 283.929 136.596 283.837 136.363 283.837C136.131 283.837 135.908 283.929 135.743 284.094C135.579 284.258 135.486 284.481 135.486 284.714C135.486 284.947 135.579 285.17 135.743 285.334C135.908 285.499 136.131 285.591 136.363 285.591Z"
                fill="#F5E6DF" />
            <path
                d="M142.635 273.943H143.082C143.199 273.949 143.316 273.923 143.42 273.868C143.528 273.832 143.626 273.769 143.703 273.684C143.787 273.608 143.849 273.511 143.884 273.403C143.938 273.299 143.964 273.182 143.959 273.065L143.929 272.831C143.889 272.684 143.811 272.551 143.703 272.443C143.643 272.398 143.584 272.351 143.527 272.306C143.392 272.227 143.238 272.186 143.082 272.187H142.635C142.404 272.193 142.184 272.287 142.021 272.45C141.858 272.614 141.764 272.833 141.758 273.064L141.788 273.298C141.829 273.444 141.907 273.576 142.014 273.683L142.193 273.822C142.327 273.901 142.479 273.942 142.635 273.941"
                fill="#F5E6DF" />
        </g>
        <mask id="mask3_387_4981" style="mask-type:luminance" maskUnits="userSpaceOnUse" x="0" y="0"
            width="463" height="320">
            <path d="M462.333 0.946045H0.324219V319.717H462.333V0.946045Z" fill="white" />
        </mask>
        <g mask="url(#mask3_387_4981)">
            <path
                d="M250.012 0.951043C248.054 0.989396 246.134 1.50423 244.418 2.45104C237.413 5.81125 231.331 10.8271 226.699 17.065C227.037 14.165 229.558 11.065 227.822 8.71804C227.305 8.13342 226.621 7.72113 225.862 7.53649C225.103 7.35184 224.306 7.40368 223.577 7.68504C222.13 8.27541 220.837 9.19184 219.801 10.363C212.875 17.2311 207.374 25.4007 203.615 34.402C202.701 32.616 203.024 29.98 201.243 29.059C199.733 28.277 197.822 29.618 197.368 31.259C196.914 32.9 197.457 34.63 197.996 36.245C197.286 35.8843 196.508 35.6762 195.713 35.6343C194.917 35.5923 194.122 35.7174 193.378 36.0015C192.634 36.2857 191.957 36.7225 191.392 37.2839C190.827 37.8452 190.385 38.5188 190.096 39.261C189.885 40.0291 189.838 40.8328 189.956 41.6204C190.074 42.4081 190.356 43.1623 190.783 43.8345C191.21 44.5067 191.774 45.0821 192.437 45.5236C193.099 45.9651 193.847 46.2629 194.632 46.398C194.925 58.217 197.901 69.922 202.017 81.006C202.56 79.8331 203.483 78.8783 204.638 78.2972C205.792 77.7162 207.109 77.543 208.374 77.806C210.54 80.9214 212.565 84.1284 214.448 87.427C215.176 87.3812 215.875 87.1279 216.463 86.697C213.853 76.5697 211.243 66.442 208.633 56.314C219.677 52.108 230.098 46.405 240.469 40.724C243.976 38.9648 247.281 36.831 250.328 34.36C254.058 30.9041 257.08 26.7566 259.228 22.148C259.837 21.1692 260.129 20.0268 260.065 18.876C259.685 16.429 256.443 15.542 254.071 16.245C251.699 16.948 249.694 18.62 247.307 19.273C250.197 16.0916 252.476 12.4051 254.029 8.39804C254.698 7.03808 254.889 5.49275 254.571 4.01104C254.201 3.10563 253.569 2.33104 252.757 1.78604C251.945 1.24105 250.989 0.950358 250.01 0.951043"
                fill="#24282F" />
            <path
                d="M219.719 28.047C219.647 25.5309 220.116 23.0286 221.093 20.709C221.975 18.3748 223.458 16.3154 225.393 14.74C226.173 14.191 227.48 13.548 228.217 14.504C228.775 15.5396 229.074 16.6942 229.091 17.87C229.722 23.1962 228.284 28.5613 225.072 32.857L226.672 33.066C226.255 31.1885 226.41 29.2292 227.116 27.4402C227.822 25.6513 229.047 24.1146 230.634 23.028C231.071 22.6716 231.577 22.41 232.12 22.2599C232.663 22.1098 233.232 22.0744 233.789 22.156C234.202 22.3025 234.576 22.5393 234.885 22.8492C235.194 23.1591 235.43 23.5342 235.575 23.947C236.487 26.18 235.18 28.565 234.154 30.507C234.688 30.736 235.222 30.957 235.754 31.185C236.283 29.0849 237.295 27.137 238.708 25.4962C240.122 23.8554 241.899 22.5669 243.897 21.733C244.824 21.2683 245.844 21.0178 246.88 21C247.38 21.045 247.471 21.206 247.424 21.7C247.354 22.2604 247.243 22.8149 247.091 23.359C246.496 25.6505 245.402 27.7821 243.887 29.6012C242.372 31.4204 240.473 32.8822 238.327 33.882C237.304 34.361 238.193 35.877 239.211 35.397C241.618 34.2496 243.738 32.577 245.413 30.5024C247.088 28.4277 248.277 26.0038 248.892 23.409C249.155 22.254 249.545 20.773 248.557 19.849C247.645 18.999 246.224 19.206 245.129 19.486C242.455 20.2071 240.02 21.6277 238.077 23.6016C236.133 25.5755 234.75 28.0315 234.07 30.717C233.841 31.658 235.193 32.299 235.67 31.395C236.741 29.373 237.888 27.137 237.583 24.772C237.501 23.8441 237.164 22.9569 236.61 22.208C236.056 21.4591 235.306 20.8774 234.443 20.527C232.361 19.807 230.136 21.069 228.59 22.39C227.134 23.6683 226.026 25.296 225.371 27.12C224.612 29.173 224.477 31.4045 224.983 33.534C225.034 33.6962 225.13 33.8406 225.259 33.95C225.389 34.0594 225.548 34.1292 225.716 34.1512C225.885 34.1732 226.056 34.1465 226.21 34.0741C226.363 34.0018 226.493 33.8869 226.583 33.743C230.067 29.0118 231.567 23.1084 230.766 17.288C230.716 15.8549 230.266 14.4644 229.466 13.274C229.045 12.8149 228.497 12.4912 227.892 12.3443C227.286 12.1974 226.651 12.2339 226.066 12.449C223.423 13.299 221.503 16.088 220.253 18.423C218.668 21.3787 217.879 24.6962 217.965 28.049C217.965 28.2816 218.058 28.5047 218.222 28.6692C218.387 28.8336 218.61 28.926 218.842 28.926C219.075 28.926 219.298 28.8336 219.462 28.6692C219.627 28.5047 219.719 28.2816 219.719 28.049"
                fill="#474A4F" />
            <path
                d="M206.777 37.75C206.919 36.337 207.058 34.677 208.012 33.539C208.636 32.796 210.024 32.239 210.894 32.901C211.325 33.3701 211.554 33.9902 211.532 34.627C211.61 35.434 211.613 36.2465 211.542 37.054C211.387 38.7333 210.9 40.365 210.109 41.854L211.616 42.738C212.498 40.9128 213.893 39.3839 215.63 38.338C216.493 37.8179 217.428 37.427 218.405 37.178C219.005 37.024 220.631 36.537 220.969 37.29C221.096 37.7679 221.125 38.2668 221.053 38.756C221.035 39.3039 220.974 39.8495 220.872 40.388C220.669 41.4696 220.314 42.5168 219.816 43.498C219.319 44.4806 218.681 45.3852 217.923 46.183C217.675 46.4819 217.358 46.7148 216.999 46.861C216.878 46.9114 216.749 46.9382 216.619 46.94C216.472 46.933 216.629 47.074 216.604 46.965C216.343 45.865 214.651 46.332 214.91 47.432C215.012 47.8321 215.257 48.1807 215.599 48.4118C215.942 48.6429 216.357 48.7405 216.766 48.686C217.697 48.585 218.555 48.1339 219.166 47.424C220.765 45.7456 221.895 43.6766 222.443 41.424C222.878 39.624 223.543 36.118 221.243 35.324C220.221 35.0774 219.152 35.1144 218.15 35.431C216.421 35.8476 214.805 36.6383 213.415 37.7474C212.025 38.8565 210.896 40.2569 210.106 41.85C209.614 42.856 211.09 43.75 211.619 42.737C212.655 40.7839 213.241 38.6239 213.336 36.415C213.406 34.624 213.336 32.125 211.48 31.215C210.709 30.889 209.858 30.8048 209.038 30.9738C208.219 31.1427 207.47 31.5568 206.892 32.161C205.464 33.637 205.215 35.803 205.021 37.748C204.909 38.871 206.663 38.863 206.775 37.748"
                fill="#474A4F" />
            <path
                d="M199.552 42.903C199.314 44.3594 199.164 45.8287 199.102 47.303C199.066 47.9203 199.192 48.5363 199.468 49.0894C199.745 49.6425 200.161 50.1134 200.677 50.455C201.118 50.7376 201.647 50.8494 202.165 50.7693C202.683 50.6892 203.154 50.4227 203.489 50.02C203.814 49.645 203.985 49.1601 203.967 48.6638C203.948 48.1674 203.742 47.6967 203.389 47.347C203.25 47.2121 203.072 47.1258 202.88 47.1011C202.688 47.0764 202.494 47.1146 202.326 47.21C200.863 48.2721 199.732 49.729 199.067 51.41C198.426 53.037 198.108 55.124 199.233 56.61C199.726 57.2052 200.361 57.6678 201.078 57.9557C201.796 58.2437 202.574 58.348 203.342 58.259C205.201 57.9316 206.936 57.1047 208.362 55.867C209.262 55.204 208.387 53.681 207.475 54.352C206.403 55.2588 205.169 55.954 203.838 56.401C203.3 56.5686 202.728 56.5892 202.179 56.4609C201.631 56.3325 201.127 56.0598 200.72 55.671C199.843 54.657 200.295 52.981 200.757 51.871C201.278 50.6202 202.126 49.5328 203.213 48.723L202.152 48.584C202.318 48.736 202.135 49.021 201.876 49.039C201.243 49.081 200.937 48.152 200.882 47.695C200.842 46.9412 200.889 46.1853 201.021 45.442C201.121 44.595 201.212 43.75 201.309 42.903C201.438 41.783 199.682 41.793 199.555 42.903"
                fill="#474A4F" />
            <path
                d="M198.487 65.972C198.348 67.1982 198.617 68.4361 199.252 69.494C199.902 70.5978 200.899 71.4556 202.087 71.934C202.312 71.9954 202.552 71.9653 202.754 71.8502C202.957 71.7352 203.106 71.5445 203.168 71.32C203.223 71.0959 203.191 70.859 203.076 70.6583C202.962 70.4577 202.775 70.3087 202.554 70.242C202.745 70.319 202.524 70.225 202.499 70.212C202.457 70.192 202.412 70.17 202.37 70.147C202.253 70.087 202.139 70.02 202.027 69.947L201.878 69.847C201.861 69.832 201.699 69.715 201.794 69.787C201.889 69.859 201.732 69.735 201.715 69.72C201.66 69.673 201.606 69.626 201.554 69.578C201.379 69.4134 201.214 69.2373 201.062 69.051C200.955 68.924 201.099 69.116 201.045 69.029C201.013 68.979 200.975 68.929 200.945 68.88C200.87 68.7707 200.801 68.659 200.736 68.545C200.676 68.438 200.619 68.334 200.567 68.225L200.492 68.061C200.569 68.232 200.499 68.073 200.485 68.036C200.395 67.8002 200.324 67.5578 200.271 67.311C200.259 67.251 200.249 67.194 200.239 67.135C200.222 67.035 200.222 66.998 200.239 67.118C200.227 66.999 200.214 66.882 200.209 66.76C200.2 66.4961 200.213 66.2318 200.249 65.97C200.249 65.7374 200.157 65.5144 199.992 65.3499C199.828 65.1854 199.605 65.093 199.372 65.093C199.142 65.1001 198.923 65.1947 198.76 65.3577C198.597 65.5207 198.502 65.7397 198.495 65.97"
                fill="#474A4F" />
            <path
                d="M205.035 71.518C205.439 72.1987 205.845 72.8784 206.252 73.557C206.37 73.7513 206.557 73.8941 206.776 73.957C206.944 74.0027 207.122 73.9974 207.287 73.9418C207.452 73.8861 207.597 73.7827 207.703 73.6446C207.809 73.5064 207.872 73.3398 207.883 73.166C207.894 72.9921 207.854 72.8188 207.767 72.668C207.359 71.99 206.954 71.3104 206.55 70.629C206.43 70.4358 206.243 70.2934 206.026 70.229C205.857 70.1834 205.679 70.1887 205.514 70.2443C205.349 70.2999 205.204 70.4034 205.098 70.5415C204.992 70.6797 204.929 70.8462 204.918 71.0201C204.907 71.194 204.947 71.3673 205.035 71.518Z"
                fill="#474A4F" />
            <path
                d="M204.945 66.73L206.465 69.279C206.521 69.3813 206.598 69.4711 206.69 69.5433C206.782 69.6155 206.888 69.6686 207 69.6994C207.113 69.7302 207.231 69.7382 207.347 69.7229C207.463 69.7076 207.575 69.6693 207.676 69.6102C207.777 69.5511 207.865 69.4724 207.935 69.3788C208.005 69.2852 208.056 69.1785 208.084 69.0651C208.112 68.9516 208.118 68.8336 208.1 68.718C208.082 68.6025 208.041 68.4916 207.98 68.392L206.46 65.843C206.339 65.6477 206.147 65.5072 205.925 65.4516C205.702 65.3961 205.466 65.4299 205.268 65.5458C205.07 65.6617 204.926 65.8506 204.865 66.0719C204.805 66.2932 204.833 66.5295 204.945 66.73Z"
                fill="#474A4F" />
            <path
                d="M264.975 112.107C264.975 112.107 265.295 112.122 265.904 112.174C270.867 112.614 294.951 115.701 320.154 135.487C322.489 134.787 317.111 120.523 311.032 106.028C304.953 91.533 298.408 82.415 300.279 77.506C302.15 72.597 311.502 69.323 316.647 66.283C321.792 63.243 323.896 58.334 327.634 63.483C331.372 68.632 360.134 125.205 363.402 132.683C366.67 140.161 378.602 174.766 343.768 173.599C322.27 172.78 300.97 169.164 280.406 162.843C280.406 162.843 281.916 220.104 275.14 231.56C214.116 230.16 172.5 228.753 172.5 228.753C172.5 228.753 177.068 200.017 176.837 183.418C174.028 182.718 167.017 191.367 150.18 196.745C133.343 202.123 104.589 213.811 97.3434 195.345C90.0974 176.879 101.551 103.463 102.018 99.255C102.485 95.047 107.163 95.28 114.175 95.28C121.187 95.28 132.88 94.343 134.281 96.214C135.682 98.085 133.581 149.053 133.814 156.533C134.047 164.013 136.621 159.34 141.53 154.662C146.439 149.984 164.441 132.218 183.146 125.206C194.077 121.061 205.339 117.855 216.813 115.62C216.813 115.62 216.286 130.348 224.002 131.752C231.718 133.156 250.01 131.752 245.802 112.113L264.975 112.107Z"
                fill="#62E0C1" />
            <path
                d="M105.586 97.902C105.586 97.902 107.866 64.585 111.198 62.658C114.53 60.731 116.107 61.431 116.107 61.431C116.107 61.431 120.668 55.469 124.349 57.923C124.349 57.396 127.857 55.123 132.065 55.993C136.273 56.863 141.534 56.346 141.885 61.254C142.236 66.162 142.235 75.808 136.974 76.154C131.713 76.5 142.762 67.211 146.443 71.419C150.124 75.627 146.97 91.058 129.611 86.319C128.734 89.65 129.961 99.119 129.961 99.119L105.586 97.902Z"
                fill="#E5A37F" />
            <path
                d="M324.654 61.138C324.654 61.138 315.771 38.694 311.56 33.55C307.349 28.406 303.377 25.834 298.702 25.834C294.027 25.834 287.479 23.034 284.674 26.068C281.869 29.102 279.062 39.395 280.933 42.436C282.804 45.477 278.595 50.619 280.933 54.827C283.271 59.035 295.897 61.84 298.933 59.969C301.969 58.098 303.141 74.933 303.141 74.933L324.654 61.138Z"
                fill="#E5A37F" />
            <path
                d="M217.107 121.223L214.536 93.635C214.536 93.635 203.546 94.571 201.209 87.79C199.798 83.701 201.025 77.379 205.993 77.262C209.593 77.178 210.993 80.698 213.125 83.107C218.501 89.186 208.331 56.222 208.331 56.222C208.331 56.222 250.074 38.458 251.008 32.146C249.608 38.694 254.516 53.422 257.32 58.8C260.124 64.178 271.348 94.248 260.361 97.989C260.361 97.989 253.579 103.689 239.785 100.18C243.059 106.259 246.01 112.28 246.01 112.28C246.01 112.28 247.856 119.772 244.959 125.257C242.698 129.535 236.717 131.832 230.668 132.446C216.161 133.917 217.107 121.223 217.107 121.223Z"
                fill="#E5A37F" />
            <path
                d="M213.159 128.104L208.559 130.591C208.357 130.705 208.208 130.895 208.145 131.12C208.083 131.344 208.112 131.583 208.226 131.786C208.341 131.989 208.531 132.138 208.755 132.2C208.979 132.262 209.219 132.233 209.421 132.119L214.021 129.632C214.223 129.516 214.37 129.326 214.433 129.103C214.495 128.879 214.467 128.64 214.354 128.437C214.237 128.238 214.047 128.091 213.824 128.029C213.601 127.967 213.363 127.994 213.159 128.104Z"
                fill="#2E5943" />
            <path
                d="M214.112 123.255L208.898 122.94C208.668 122.934 208.445 123.019 208.277 123.176C208.109 123.333 208.009 123.549 207.999 123.779C207.989 124.009 208.069 124.234 208.223 124.405C208.377 124.576 208.591 124.68 208.821 124.694C210.56 124.798 212.299 124.903 214.038 125.009C214.155 125.017 214.272 125.001 214.382 124.962C214.492 124.924 214.594 124.864 214.681 124.786C214.768 124.708 214.838 124.613 214.888 124.507C214.938 124.402 214.966 124.287 214.971 124.17C214.976 124.054 214.958 123.937 214.917 123.827C214.877 123.718 214.815 123.618 214.735 123.532C214.655 123.447 214.559 123.379 214.452 123.331C214.345 123.283 214.229 123.258 214.112 123.255Z"
                fill="#2E5943" />
            <path
                d="M215.429 133.13C214.535 134.143 213.64 135.156 212.746 136.168C212.577 136.353 212.485 136.596 212.488 136.846C212.492 137.096 212.59 137.336 212.763 137.517C212.854 137.597 212.959 137.658 213.074 137.697C213.189 137.736 213.31 137.752 213.431 137.744C213.551 137.736 213.669 137.704 213.778 137.65C213.886 137.596 213.983 137.521 214.063 137.43C214.957 136.417 215.851 135.404 216.746 134.392C216.914 134.207 217.005 133.964 217.002 133.714C216.999 133.464 216.901 133.224 216.729 133.043C216.638 132.963 216.532 132.902 216.417 132.863C216.303 132.824 216.181 132.808 216.061 132.816C215.94 132.824 215.822 132.856 215.713 132.91C215.605 132.964 215.508 133.039 215.429 133.13Z"
                fill="#2E5943" />
            <path
                d="M219.841 134.461C219.468 136.538 219.096 138.615 218.726 140.694C218.67 140.918 218.703 141.154 218.816 141.355C218.93 141.556 219.116 141.705 219.337 141.772C219.561 141.832 219.8 141.801 220.002 141.687C220.204 141.573 220.353 141.384 220.418 141.161C220.79 139.082 221.162 137.004 221.533 134.928C221.589 134.703 221.557 134.466 221.442 134.264C221.328 134.063 221.141 133.914 220.919 133.847C220.694 133.788 220.456 133.819 220.254 133.934C220.053 134.048 219.904 134.238 219.841 134.461Z"
                fill="#2E5943" />
            <path
                d="M225.111 136.473V140.952C225.111 141.185 225.204 141.408 225.368 141.572C225.533 141.737 225.756 141.829 225.988 141.829C226.221 141.829 226.444 141.737 226.608 141.572C226.773 141.408 226.865 141.185 226.865 140.952V136.473C226.865 136.24 226.773 136.017 226.608 135.853C226.444 135.688 226.221 135.596 225.988 135.596C225.756 135.596 225.533 135.688 225.368 135.853C225.204 136.017 225.111 136.24 225.111 136.473Z"
                fill="#2E5943" />
            <path
                d="M232.283 135.817L233.183 139.399C233.246 139.622 233.395 139.812 233.596 139.927C233.798 140.041 234.037 140.072 234.261 140.013C234.483 139.946 234.67 139.797 234.785 139.596C234.899 139.394 234.931 139.157 234.875 138.932C234.574 137.739 234.274 136.545 233.975 135.35C233.911 135.127 233.762 134.938 233.561 134.824C233.36 134.709 233.121 134.677 232.897 134.736C232.675 134.803 232.488 134.952 232.373 135.153C232.259 135.355 232.227 135.592 232.283 135.817Z"
                fill="#2E5943" />
            <path
                d="M239.704 133.51L242.389 136.198C242.554 136.362 242.777 136.455 243.009 136.455C243.242 136.455 243.465 136.362 243.629 136.198C243.794 136.034 243.886 135.811 243.886 135.578C243.886 135.346 243.794 135.122 243.629 134.958C242.736 134.061 241.841 133.165 240.943 132.27C240.863 132.186 240.766 132.119 240.659 132.072C240.552 132.026 240.436 132.001 240.32 132C240.203 131.999 240.087 132.021 239.979 132.065C239.871 132.109 239.773 132.175 239.69 132.257C239.608 132.34 239.543 132.438 239.499 132.546C239.455 132.654 239.432 132.77 239.434 132.886C239.435 133.003 239.459 133.118 239.506 133.225C239.552 133.332 239.62 133.429 239.704 133.51Z"
                fill="#2E5943" />
            <path
                d="M244.337 129.208L247.899 131.044C247.999 131.102 248.109 131.14 248.223 131.156C248.337 131.171 248.453 131.164 248.564 131.135C248.676 131.105 248.78 131.054 248.872 130.985C248.964 130.915 249.041 130.828 249.099 130.729C249.157 130.629 249.195 130.519 249.21 130.405C249.226 130.291 249.219 130.175 249.19 130.063C249.16 129.952 249.109 129.848 249.04 129.756C248.97 129.664 248.883 129.587 248.783 129.529L245.221 127.693C245.122 127.635 245.012 127.597 244.898 127.582C244.784 127.566 244.668 127.573 244.556 127.602C244.445 127.632 244.34 127.683 244.249 127.752C244.157 127.822 244.08 127.909 244.022 128.009C243.964 128.108 243.926 128.218 243.91 128.332C243.895 128.446 243.902 128.562 243.931 128.674C243.96 128.785 244.011 128.89 244.081 128.981C244.151 129.073 244.238 129.15 244.337 129.208Z"
                fill="#2E5943" />
            <path
                d="M248.156 123.881C249.053 124.179 249.949 124.479 250.844 124.781C251.068 124.84 251.307 124.809 251.509 124.695C251.71 124.58 251.859 124.39 251.922 124.167C251.977 123.943 251.945 123.706 251.83 123.505C251.716 123.305 251.529 123.156 251.308 123.089C250.411 122.788 249.516 122.488 248.623 122.189C248.398 122.128 248.159 122.159 247.956 122.274C247.754 122.389 247.605 122.579 247.542 122.803C247.487 123.027 247.519 123.264 247.634 123.465C247.748 123.665 247.935 123.814 248.156 123.881Z"
                fill="#2E5943" />
            <path
                d="M249.543 117.4C250.135 117.935 250.851 118.312 251.627 118.498C252.402 118.684 253.212 118.672 253.982 118.463C254.206 118.401 254.397 118.253 254.512 118.051C254.627 117.849 254.657 117.609 254.595 117.385C254.534 117.16 254.385 116.969 254.183 116.854C253.981 116.739 253.741 116.709 253.517 116.771C253.375 116.81 253.232 116.841 253.087 116.865C252.965 116.887 253.122 116.855 253.157 116.858C253.112 116.86 253.067 116.864 253.023 116.87C252.948 116.87 252.876 116.88 252.802 116.88C252.656 116.883 252.51 116.877 252.365 116.863C252.335 116.863 252.204 116.843 252.345 116.863C252.486 116.883 252.355 116.863 252.325 116.863C252.243 116.851 252.164 116.833 252.082 116.816C251.94 116.782 251.799 116.741 251.662 116.692L251.562 116.655C251.453 116.613 251.584 116.655 251.619 116.68C251.557 116.643 251.485 116.618 251.419 116.586C251.281 116.516 251.147 116.437 251.019 116.35L250.93 116.288C250.908 116.271 250.801 116.194 250.908 116.273C251.015 116.352 250.908 116.273 250.891 116.256L250.791 116.167C250.625 116.008 250.404 115.921 250.175 115.923C249.945 115.925 249.726 116.017 249.564 116.18C249.401 116.342 249.309 116.561 249.307 116.791C249.304 117.02 249.392 117.241 249.551 117.407"
                fill="#2E5943" />
            <path
                d="M213.278 142.612C221.284 143.571 229.578 144.172 237.456 142.063C243.929 140.449 249.614 136.578 253.486 131.145C255.525 128.197 256.717 124.747 256.934 121.169C256.996 120.041 255.242 120.046 255.18 121.169C254.845 127.287 251.037 132.638 246.16 136.116C240.375 140.242 233.285 141.633 226.29 141.725C221.938 141.723 217.592 141.434 213.278 140.858C212.16 140.724 212.17 142.48 213.278 142.612Z"
                fill="#2E5943" />
            <path
                d="M211.664 224.902C211.498 224.902 211.335 224.857 211.191 224.772C211.048 224.687 210.93 224.566 210.85 224.42C210.77 224.274 210.73 224.11 210.735 223.943C210.74 223.777 210.789 223.615 210.877 223.474C211.077 223.149 231.552 190.888 251.815 176.912C251.916 176.843 252.029 176.794 252.149 176.768C252.268 176.742 252.392 176.74 252.512 176.762C252.633 176.785 252.747 176.83 252.85 176.896C252.953 176.963 253.041 177.049 253.111 177.15C253.18 177.25 253.229 177.364 253.255 177.483C253.281 177.603 253.282 177.726 253.26 177.846C253.238 177.967 253.193 178.082 253.126 178.184C253.06 178.287 252.974 178.376 252.873 178.445C232.926 192.204 212.653 224.145 212.452 224.468C212.369 224.601 212.253 224.711 212.115 224.787C211.977 224.863 211.823 224.903 211.665 224.903"
                fill="#2E5943" />
            <path
                d="M227.796 217.191C227.605 217.191 227.419 217.133 227.262 217.025C227.059 216.883 226.921 216.666 226.878 216.423C226.834 216.179 226.889 215.928 227.031 215.725C227.667 214.818 242.641 193.44 249.706 188.492C249.806 188.422 249.919 188.372 250.039 188.346C250.158 188.319 250.282 188.317 250.403 188.338C250.523 188.36 250.638 188.404 250.741 188.47C250.845 188.536 250.934 188.622 251.004 188.722C251.074 188.822 251.124 188.936 251.15 189.055C251.176 189.175 251.179 189.298 251.158 189.419C251.136 189.539 251.091 189.654 251.026 189.758C250.96 189.861 250.874 189.95 250.774 190.02C243.974 194.78 228.713 216.572 228.561 216.794C228.475 216.917 228.36 217.018 228.227 217.087C228.094 217.157 227.946 217.194 227.796 217.194"
                fill="#2E5943" />
            <path
                d="M180.448 179.312C180.396 179.313 180.344 179.309 180.294 179.3C180.051 179.259 179.834 179.123 179.69 178.923C179.547 178.722 179.489 178.473 179.529 178.23C185.64 141.241 176.086 132.53 175.989 132.449C175.802 132.289 175.686 132.062 175.665 131.817C175.645 131.572 175.721 131.329 175.879 131.14C176.036 130.953 176.26 130.835 176.504 130.813C176.748 130.79 176.99 130.865 177.179 131.021C177.609 131.379 187.689 140.221 181.36 178.532C181.324 178.75 181.212 178.948 181.044 179.091C180.875 179.234 180.661 179.312 180.441 179.312"
                fill="#2E5943" />
            <path
                d="M277.595 163.18H277.553C277.306 163.169 277.074 163.06 276.907 162.878C276.741 162.696 276.653 162.456 276.664 162.209C278.033 130.738 265.433 115.309 265.309 115.153C265.15 114.964 265.072 114.719 265.093 114.473C265.114 114.227 265.233 113.999 265.422 113.84C265.611 113.681 265.855 113.603 266.102 113.625C266.348 113.646 266.576 113.764 266.735 113.953C267.274 114.594 279.926 130.03 278.527 162.286C278.516 162.526 278.414 162.753 278.24 162.919C278.066 163.086 277.835 163.178 277.595 163.178"
                fill="#2E5943" />
            <path
                d="M128.548 185.273C128.376 185.273 128.208 185.226 128.061 185.137C127.914 185.047 127.795 184.919 127.717 184.766C127.639 184.613 127.605 184.441 127.618 184.27C127.631 184.098 127.692 183.934 127.793 183.795C137.615 170.232 132.013 136.719 131.956 136.381C131.934 136.26 131.936 136.136 131.962 136.016C131.988 135.895 132.037 135.781 132.108 135.68C132.178 135.58 132.268 135.494 132.372 135.428C132.476 135.362 132.592 135.317 132.713 135.296C132.834 135.275 132.958 135.279 133.078 135.306C133.198 135.334 133.312 135.385 133.412 135.456C133.512 135.528 133.597 135.619 133.661 135.723C133.726 135.828 133.769 135.945 133.789 136.066C134.032 137.472 139.582 170.689 129.303 184.888C129.216 185.007 129.103 185.104 128.971 185.171C128.84 185.238 128.695 185.273 128.548 185.273Z"
                fill="#2E5943" />
            <path
                d="M338.614 154.413C338.581 154.415 338.548 154.415 338.514 154.413C328.302 153.313 319.896 136.381 319.54 135.661C319.432 135.439 319.415 135.183 319.496 134.949C319.576 134.715 319.745 134.523 319.967 134.414C320.189 134.305 320.445 134.289 320.679 134.369C320.913 134.449 321.106 134.619 321.214 134.841C321.296 135.007 329.514 151.574 338.714 152.56C338.95 152.587 339.167 152.703 339.321 152.884C339.474 153.066 339.552 153.299 339.54 153.536C339.527 153.773 339.424 153.997 339.252 154.161C339.08 154.325 338.852 154.417 338.614 154.418"
                fill="#2E5943" />
            <path
                d="M232.507 48.947C233.22 50.688 233.898 52.8 232.807 54.33C232.504 54.7132 232.153 55.0554 231.761 55.348C228.781 57.7927 225.8 60.2364 222.818 62.679C223.292 60.5447 224.037 58.4801 225.037 56.536C226.644 53.136 228.897 49.419 232.606 48.801L232.507 48.947Z"
                fill="#24282F" />
            <path
                d="M243.452 44.904C243.825 46.747 244.433 48.881 246.194 49.544C246.659 49.6957 247.142 49.7858 247.63 49.812L259.136 50.945C257.557 49.4326 255.789 48.1302 253.877 47.07C250.655 45.135 246.715 43.292 243.287 44.837L243.452 44.904Z"
                fill="#24282F" />
            <path
                d="M225.224 71.139C225.177 71.1391 225.13 71.1368 225.082 71.132C224.757 71.0948 224.459 70.9305 224.255 70.6748C224.05 70.4191 223.955 70.0928 223.989 69.767C224.117 68.8344 224.435 67.938 224.924 67.1339C225.413 66.3299 226.063 65.6354 226.833 65.094C228.713 63.874 231.207 63.76 234.255 64.744C234.564 64.8495 234.819 65.0722 234.965 65.364C235.111 65.6557 235.136 65.9931 235.035 66.3033C234.934 66.6135 234.715 66.8716 234.426 67.0218C234.136 67.172 233.799 67.2022 233.487 67.106C231.204 66.368 229.423 66.383 228.203 67.166C227.737 67.5059 227.342 67.9349 227.043 68.4282C226.743 68.9216 226.544 69.4694 226.457 70.04C226.421 70.3425 226.276 70.6214 226.048 70.824C225.821 71.0266 225.527 71.139 225.222 71.14"
                fill="#24282F" />
            <path
                d="M250.943 62.492C250.898 62.4922 250.852 62.4899 250.806 62.485C250.479 62.4496 250.18 62.2858 249.974 62.0296C249.767 61.7735 249.671 61.446 249.706 61.119C249.834 60.1862 250.152 59.2896 250.641 58.4852C251.131 57.6809 251.78 56.986 252.55 56.444C254.428 55.227 256.924 55.11 259.975 56.094C260.284 56.1995 260.539 56.4222 260.685 56.714C260.83 57.0057 260.856 57.3431 260.755 57.6533C260.654 57.9635 260.435 58.2216 260.145 58.3718C259.856 58.522 259.519 58.5522 259.207 58.456C256.907 57.716 255.123 57.738 253.901 58.528C253.44 58.8668 253.05 59.2933 252.754 59.783C252.458 60.2728 252.261 60.8162 252.175 61.382C252.143 61.6865 252 61.9684 251.772 62.1733C251.545 62.3782 251.249 62.4918 250.943 62.492Z"
                fill="#24282F" />
            <path
                d="M253.921 76.949C251.457 70.597 246.598 65.741 241.799 61.081C241.629 60.9413 241.412 60.871 241.192 60.8844C240.972 60.8978 240.766 60.9938 240.614 61.1532C240.462 61.3125 240.376 61.5235 240.373 61.7436C240.37 61.9638 240.451 62.1768 240.599 62.34C244.819 66.44 249.199 70.734 251.678 76.152L246.466 75.563C245.351 75.439 245.38 77.183 246.481 77.307L253.094 78.052C253.227 78.0502 253.357 78.018 253.476 77.9579C253.595 77.8978 253.698 77.8115 253.778 77.7054C253.859 77.5993 253.914 77.4763 253.939 77.3457C253.965 77.2152 253.96 77.0805 253.926 76.952"
                fill="#A5613C" />
            <path
                d="M253.152 78.368C253.119 78.3682 253.085 78.3659 253.052 78.361L246.439 77.616C246.272 77.5958 246.111 77.5426 245.965 77.4595C245.818 77.3764 245.69 77.265 245.587 77.1318C245.484 76.9987 245.409 76.8464 245.366 76.6838C245.322 76.5213 245.312 76.3517 245.334 76.185C245.344 76.0456 245.382 75.9096 245.446 75.7857C245.511 75.6618 245.601 75.5527 245.71 75.4654C245.819 75.378 245.945 75.3143 246.08 75.2783C246.215 75.2422 246.356 75.2347 246.494 75.256L251.154 75.78C248.62 70.58 244.246 66.326 240.376 62.565C240.229 62.4292 240.121 62.2563 240.063 62.0644C240.005 61.8725 240 61.6686 240.048 61.474C240.104 61.2599 240.214 61.0639 240.369 60.905C240.523 60.7461 240.715 60.6297 240.927 60.567C241.118 60.5109 241.32 60.5086 241.512 60.5603C241.703 60.612 241.877 60.7158 242.013 60.86C246.301 65.023 251.636 70.205 254.207 76.838C254.269 77.0187 254.282 77.2121 254.247 77.3997C254.212 77.5873 254.13 77.7627 254.007 77.909C253.909 78.0463 253.781 78.1591 253.632 78.2389C253.484 78.3187 253.319 78.3632 253.15 78.369M246.35 75.869C246.298 75.867 246.247 75.8755 246.198 75.8939C246.15 75.9124 246.106 75.9404 246.068 75.9764C246.031 76.0123 246.001 76.0554 245.981 76.1032C245.961 76.1509 245.95 76.2022 245.95 76.254C245.925 76.4265 245.97 76.6019 246.074 76.7415C246.178 76.8812 246.334 76.9738 246.506 76.999L253.121 77.744C253.2 77.7446 253.277 77.7253 253.346 77.6879C253.415 77.6505 253.474 77.5962 253.516 77.53C253.571 77.4664 253.61 77.3907 253.629 77.3092C253.649 77.2277 253.65 77.1427 253.63 77.061C251.104 70.555 245.822 65.426 241.58 61.304C241.52 61.2382 241.444 61.1901 241.358 61.165C241.273 61.14 241.182 61.1389 241.096 61.162C240.99 61.1965 240.893 61.2567 240.816 61.3373C240.738 61.4179 240.682 61.5164 240.651 61.624C240.628 61.7124 240.631 61.8055 240.658 61.8926C240.686 61.9796 240.737 62.0571 240.807 62.116C244.844 66.036 249.414 70.48 251.956 76.022L252.185 76.522L246.424 75.871C246.399 75.8698 246.373 75.8698 246.347 75.871"
                fill="#E5A37F" />
            <path
                d="M241 87.656C241 87.656 253.42 87.574 256.747 82.633C260.074 77.692 259.425 90.833 252.947 92.376C246.469 93.919 241.003 87.656 241.003 87.656"
                fill="white" />
            <path
                d="M250.821 92.934C245.262 92.934 240.967 88.09 240.765 87.859L240.318 87.35H240.996C241.12 87.35 253.29 87.211 256.489 82.464C257.152 81.478 257.734 81.085 258.24 81.264C258.796 81.445 259.072 82.264 259.02 83.577C258.886 86.796 256.936 91.75 253.02 92.686C252.3 92.8581 251.561 92.9447 250.82 92.944M241.711 87.958C243.162 89.384 247.718 93.314 252.87 92.082C256.437 91.23 258.278 86.488 258.4 83.552C258.445 82.414 258.211 81.905 258.05 81.852C257.911 81.815 257.571 81.971 257.004 82.816C254.053 87.198 244.441 87.859 241.711 87.958Z"
                fill="#A5613C" />
            <path
                d="M212.985 88.513C211.196 86.0361 208.789 84.0709 206.005 82.813C205.801 82.708 205.565 82.6849 205.345 82.7488C205.125 82.8126 204.938 82.9584 204.823 83.156C204.713 83.359 204.687 83.5971 204.751 83.8188C204.816 84.0405 204.964 84.2281 205.166 84.341C206.322 84.8627 207.414 85.5178 208.418 86.293C207.638 86.7838 206.959 87.4196 206.418 88.166C206.309 88.3656 206.281 88.5996 206.341 88.819C206.388 88.985 206.483 89.1333 206.614 89.2453C206.745 89.3572 206.906 89.4278 207.078 89.448C207.249 89.4682 207.422 89.4372 207.576 89.3589C207.73 89.2806 207.857 89.1585 207.941 89.008L207.978 88.951C208.015 88.906 208.05 88.862 208.087 88.814C208.174 88.714 208.263 88.605 208.355 88.506C208.537 88.3175 208.729 88.1383 208.929 87.969L208.956 87.949L209.098 87.849C209.21 87.77 209.324 87.695 209.441 87.623C209.541 87.563 209.647 87.523 209.747 87.464C210.381 88.062 210.961 88.7145 211.481 89.414C211.603 89.6078 211.796 89.7469 212.018 89.8028C212.241 89.8586 212.476 89.8268 212.676 89.714C212.873 89.5943 213.015 89.4018 213.071 89.1781C213.127 88.9544 213.093 88.7177 212.976 88.519"
                fill="#A5613C" />
            <path
                d="M212.253 90.138C212.052 90.1338 211.854 90.0822 211.677 89.9873C211.499 89.8924 211.347 89.757 211.232 89.592C210.768 88.9649 210.253 88.3775 209.692 87.836C209.664 87.8502 209.636 87.8659 209.61 87.883C209.496 87.953 209.386 88.022 209.282 88.097L209.148 88.197C208.95 88.3596 208.764 88.5346 208.589 88.721C208.497 88.815 208.413 88.912 208.333 89.012L208.258 89.104L207.965 88.977L208.206 89.177C208.048 89.4394 207.797 89.6323 207.503 89.7167C207.209 89.8011 206.893 89.7709 206.621 89.632C206.479 89.5556 206.355 89.4516 206.255 89.3263C206.154 89.2009 206.08 89.0566 206.037 88.902C205.995 88.7501 205.984 88.5913 206.005 88.4351C206.026 88.2789 206.078 88.1286 206.159 87.993C206.631 87.3303 207.213 86.7531 207.88 86.286C206.991 85.6367 206.036 85.0814 205.033 84.629C204.899 84.567 204.781 84.4777 204.684 84.3669C204.588 84.2562 204.515 84.1264 204.472 83.986C204.417 83.8269 204.395 83.6581 204.408 83.4903C204.421 83.3224 204.468 83.1589 204.547 83.01C204.699 82.743 204.948 82.5446 205.243 82.4559C205.537 82.3671 205.854 82.3947 206.129 82.533C208.96 83.8151 211.407 85.8144 213.229 88.333C213.313 88.4527 213.372 88.589 213.4 88.733C213.428 88.8769 213.426 89.0252 213.393 89.168C213.36 89.3341 213.294 89.4917 213.198 89.6313C213.103 89.7709 212.98 89.8896 212.837 89.98C212.659 90.0851 212.457 90.1407 212.251 90.141M209.802 87.081L209.963 87.237C210.609 87.8473 211.201 88.5132 211.732 89.227C211.809 89.3583 211.933 89.4545 212.08 89.4954C212.226 89.5362 212.383 89.5185 212.517 89.446C212.586 89.4005 212.645 89.3417 212.691 89.273C212.737 89.2043 212.769 89.1272 212.785 89.046C212.799 88.9881 212.802 88.9279 212.793 88.8689C212.783 88.8099 212.762 88.7535 212.73 88.703C210.971 86.2713 208.608 84.3409 205.874 83.103C205.741 83.0309 205.586 83.0121 205.44 83.0504C205.294 83.0886 205.169 83.1812 205.089 83.309C205.052 83.3828 205.03 83.4632 205.025 83.5455C205.02 83.6278 205.031 83.7103 205.059 83.788C205.075 83.8467 205.104 83.9012 205.143 83.9482C205.182 83.9952 205.23 84.0336 205.285 84.061C206.463 84.5937 207.576 85.2615 208.601 86.051L208.946 86.319L208.581 86.557C207.833 87.0251 207.183 87.6333 206.666 88.348C206.612 88.4716 206.601 88.6097 206.636 88.74C206.675 88.8805 206.766 89.0005 206.892 89.075C207.029 89.1443 207.188 89.1579 207.336 89.113C207.483 89.0681 207.608 88.9683 207.684 88.834L207.86 88.613C207.942 88.513 208.039 88.399 208.138 88.295C208.325 88.0954 208.526 87.908 208.738 87.734C208.827 87.664 208.88 87.627 208.932 87.592C209.049 87.508 209.168 87.431 209.292 87.356C209.357 87.314 209.434 87.277 209.506 87.239L209.802 87.081Z"
                fill="#E5A37F" />
            <g opacity="0.79">
                <mask id="mask4_387_4981" style="mask-type:luminance" maskUnits="userSpaceOnUse"
                    x="227" y="96" width="15" height="9">
                    <path d="M241.982 96.085H227.779V104.278H241.982V96.085Z" fill="white" />
                </mask>
                <g mask="url(#mask4_387_4981)">
                    <path
                        d="M239.783 100.186L227.777 96.086C227.777 96.086 237.246 103.101 241.541 104.241C241.63 104.328 241.981 104.241 241.981 104.241L239.783 100.186Z"
                        fill="#A5613C" />
                </g>
            </g>
            <path d="M108.834 69.169C108.834 69.169 109.564 78.902 114.709 76.798L108.834 69.169Z"
                fill="#E5A37F" />
            <path
                d="M113.327 77.404C112.765 77.4057 112.214 77.2479 111.737 76.949C109.014 75.262 108.545 69.437 108.525 69.189L109.146 69.144C109.146 69.201 109.608 74.902 112.065 76.42C112.446 76.6451 112.878 76.7709 113.32 76.7861C113.762 76.8013 114.201 76.7054 114.596 76.507L114.827 77.083C114.353 77.2862 113.843 77.3959 113.327 77.404Z"
                fill="#A5613C" stroke="#A5613C" stroke-width="0.2" />
            <path
                d="M118.481 67.212C118.481 67.212 116.844 78.435 122.689 77.032C128.534 75.629 125.73 65.108 125.73 65.108C125.73 65.108 127.161 76.008 129.235 75.862C135.572 75.417 134.146 63.471 134.146 63.471"
                fill="#E5A37F" />
            <path
                d="M121.732 77.461C120.984 77.4786 120.259 77.2042 119.71 76.696C117.156 74.366 118.13 67.458 118.172 67.167L118.786 67.254C118.786 67.321 117.817 74.13 120.127 76.241C120.464 76.5306 120.87 76.7278 121.306 76.8131C121.742 76.8985 122.193 76.8692 122.614 76.728C123.136 76.61 123.628 76.3848 124.058 76.0666C124.488 75.7485 124.848 75.3444 125.114 74.88C126.093 73.243 126.185 70.866 126.026 68.88C125.703 67.226 125.502 65.77 125.417 65.146L126.026 65.029C126.338 66.2763 126.547 67.5473 126.649 68.829C127.374 72.496 128.366 75.553 129.185 75.553H129.212C129.758 75.5208 130.291 75.3741 130.777 75.1224C131.262 74.8707 131.69 74.5196 132.031 74.092C134.682 70.892 133.842 63.582 133.831 63.505L134.445 63.433C134.485 63.744 135.322 71.079 132.507 74.487C132.113 74.9806 131.619 75.3857 131.058 75.6758C130.497 75.966 129.881 76.1347 129.25 76.171H129.195C128.137 76.171 127.282 74.079 126.651 71.695C126.578 72.922 126.233 74.1174 125.642 75.195C125.335 75.7319 124.92 76.1991 124.423 76.5668C123.926 76.9346 123.358 77.1948 122.755 77.331C122.418 77.4146 122.071 77.4579 121.724 77.46"
                fill="#A5613C" />
            <path
                d="M121.732 77.461C120.984 77.4786 120.259 77.2042 119.71 76.696C117.156 74.366 118.13 67.458 118.172 67.167L118.786 67.254C118.786 67.321 117.817 74.13 120.127 76.241C120.464 76.5306 120.87 76.7278 121.306 76.8131C121.742 76.8985 122.193 76.8692 122.614 76.728C123.136 76.61 123.628 76.3848 124.058 76.0666C124.488 75.7485 124.848 75.3444 125.114 74.88C126.093 73.243 126.185 70.866 126.026 68.88C125.703 67.226 125.502 65.77 125.417 65.146L126.026 65.029C126.338 66.2763 126.547 67.5473 126.649 68.829C127.374 72.496 128.366 75.553 129.185 75.553H129.212C129.758 75.5208 130.291 75.3741 130.777 75.1224C131.262 74.8707 131.69 74.5196 132.031 74.092C134.682 70.892 133.842 63.582 133.831 63.505L134.445 63.433C134.485 63.744 135.322 71.079 132.507 74.487C132.113 74.9806 131.619 75.3857 131.058 75.6758C130.497 75.966 129.881 76.1347 129.25 76.171H129.195C128.137 76.171 127.282 74.079 126.651 71.695C126.578 72.922 126.233 74.1174 125.642 75.195C125.335 75.7319 124.92 76.1991 124.423 76.5668C123.926 76.9346 123.358 77.1948 122.755 77.331C122.418 77.4146 122.071 77.4579 121.724 77.46"
                stroke="#A5613C" stroke-width="0.2" />
            <path
                d="M141.491 62.944C143.128 73.231 137.283 74.634 137.283 74.634C137.283 74.634 134.783 75.086 134.17 74.517"
                fill="#E5A37F" />
            <path
                d="M135.511 75.116C134.968 75.1685 134.422 75.0383 133.961 74.746L134.383 74.289C134.723 74.607 136.283 74.498 137.227 74.329C137.436 74.277 142.752 72.844 141.187 62.992L141.798 62.892C142.662 68.315 141.433 71.292 140.248 72.833C139.535 73.8257 138.521 74.5621 137.357 74.933C136.748 75.0447 136.13 75.1052 135.511 75.114"
                fill="#A5613C" />
            <path
                d="M135.511 75.116C134.968 75.1685 134.422 75.0383 133.961 74.746L134.383 74.289C134.723 74.607 136.283 74.498 137.227 74.329C137.436 74.277 142.752 72.844 141.187 62.992L141.798 62.892C142.662 68.315 141.433 71.292 140.248 72.833C139.535 73.8257 138.521 74.5621 137.357 74.933C136.748 75.0447 136.13 75.1052 135.511 75.114"
                stroke="#A5613C" stroke-width="0.2" />
            <path
                d="M136.102 80.038C136.102 80.038 138.556 70.395 143.991 70.395C146.622 70.745 147.499 74.163 147.499 74.163"
                fill="#E5A37F" />
            <path
                d="M136.403 80.117L135.803 79.963C135.903 79.563 138.381 70.086 143.996 70.086C146.84 70.464 147.762 73.941 147.802 74.086L147.202 74.242C147.195 74.21 146.343 71.02 143.955 70.702C138.86 70.702 136.431 80.02 136.406 80.114"
                fill="#A5613C" />
            <path
                d="M136.403 80.117L135.803 79.963C135.903 79.563 138.381 70.086 143.996 70.086C146.84 70.464 147.762 73.941 147.802 74.086L147.202 74.242C147.195 74.21 146.343 71.02 143.955 70.702C138.86 70.702 136.431 80.02 136.406 80.114"
                stroke="#A5613C" stroke-width="0.2" />
            <path
                d="M106.186 113.774V102.126C106.186 101.893 106.093 101.67 105.929 101.506C105.764 101.341 105.541 101.249 105.309 101.249C105.076 101.249 104.853 101.341 104.689 101.506C104.524 101.67 104.432 101.893 104.432 102.126V113.774C104.432 114.007 104.524 114.23 104.689 114.394C104.853 114.559 105.076 114.651 105.309 114.651C105.541 114.651 105.764 114.559 105.929 114.394C106.093 114.23 106.186 114.007 106.186 113.774Z"
                fill="#2E5943" />
            <path
                d="M112.188 112.708C111.357 109.632 111.156 106.419 111.599 103.263C111.653 103.039 111.619 102.803 111.505 102.603C111.391 102.402 111.205 102.253 110.985 102.185C110.761 102.124 110.522 102.154 110.32 102.269C110.118 102.383 109.97 102.573 109.907 102.796C109.398 106.26 109.599 109.791 110.496 113.175C110.563 113.393 110.713 113.577 110.913 113.687C111.114 113.797 111.349 113.824 111.569 113.763C111.789 113.703 111.977 113.558 112.093 113.361C112.208 113.164 112.243 112.93 112.188 112.708Z"
                fill="#2E5943" />
            <path
                d="M126.835 103.36C127.905 106.361 128.358 109.548 128.166 112.728C128.13 112.956 128.182 113.19 128.312 113.381C128.443 113.572 128.641 113.706 128.866 113.756C129.095 113.798 129.331 113.748 129.524 113.617C129.716 113.486 129.849 113.284 129.894 113.056C130.127 109.563 129.649 106.059 128.488 102.756C128.402 102.546 128.239 102.377 128.031 102.284C127.823 102.192 127.588 102.184 127.375 102.262C127.161 102.34 126.986 102.497 126.886 102.701C126.786 102.905 126.77 103.14 126.839 103.356"
                fill="#2E5943" />
            <path
                d="M116.063 111.737C115.631 109.156 116.218 106.509 117.7 104.352C117.816 104.151 117.849 103.912 117.79 103.688C117.731 103.463 117.587 103.271 117.387 103.152C117.185 103.039 116.948 103.008 116.724 103.066C116.5 103.125 116.308 103.268 116.187 103.465C114.471 106.032 113.82 109.166 114.371 112.204C114.434 112.427 114.583 112.617 114.784 112.731C114.986 112.845 115.225 112.876 115.449 112.815C115.671 112.75 115.859 112.601 115.973 112.4C116.088 112.199 116.12 111.961 116.063 111.737Z"
                fill="#2E5943" />
            <path
                d="M120.52 111.086V103.024C120.52 102.791 120.427 102.568 120.263 102.404C120.098 102.239 119.875 102.147 119.643 102.147C119.41 102.147 119.187 102.239 119.022 102.404C118.858 102.568 118.766 102.791 118.766 103.024V111.087C118.766 111.32 118.858 111.543 119.022 111.707C119.187 111.872 119.41 111.964 119.643 111.964C119.875 111.964 120.098 111.872 120.263 111.707C120.427 111.543 120.52 111.319 120.52 111.086Z"
                fill="#2E5943" />
            <path
                d="M123.34 111.354C123.857 108.947 124.375 106.54 124.895 104.133C124.952 103.908 124.919 103.671 124.805 103.469C124.691 103.268 124.503 103.119 124.281 103.052C124.057 102.993 123.819 103.024 123.617 103.139C123.416 103.254 123.267 103.443 123.203 103.666C122.684 106.073 122.166 108.48 121.65 110.885C121.594 111.109 121.626 111.347 121.74 111.548C121.853 111.749 122.04 111.899 122.261 111.966C122.486 112.026 122.725 111.995 122.927 111.88C123.129 111.765 123.278 111.576 123.342 111.352"
                fill="#2E5943" />
            <path
                d="M309.513 86.677L304.413 76.207C304.306 76.0061 304.125 75.8545 303.909 75.7843C303.692 75.714 303.457 75.7306 303.253 75.8304C303.048 75.9303 302.89 76.1057 302.813 76.3196C302.735 76.5335 302.743 76.7692 302.836 76.977C304.537 80.467 306.237 83.9564 307.936 87.445C308.044 87.6431 308.225 87.7919 308.44 87.8605C308.655 87.9291 308.888 87.9122 309.091 87.8134C309.294 87.7146 309.451 87.5414 309.529 87.3298C309.608 87.1182 309.602 86.8844 309.513 86.677Z"
                fill="#2E5943" />
            <path
                d="M314.439 83.09C312.345 80.6889 310.758 77.8896 309.771 74.86C309.721 74.6355 309.588 74.4383 309.398 74.3083C309.208 74.1784 308.976 74.1254 308.748 74.16C308.521 74.2054 308.321 74.3378 308.19 74.529C308.059 74.7201 308.008 74.9549 308.048 75.183C309.11 78.5185 310.837 81.6038 313.125 84.252C313.282 84.4178 313.496 84.5165 313.724 84.5271C313.951 84.5377 314.174 84.4594 314.345 84.3089C314.516 84.1583 314.622 83.9472 314.64 83.7202C314.658 83.4931 314.587 83.2679 314.442 83.092"
                fill="#2E5943" />
            <path
                d="M323.511 68.27C325.787 70.499 327.59 73.1646 328.811 76.107C328.878 76.3277 329.027 76.5144 329.228 76.6293C329.428 76.7442 329.664 76.7788 329.889 76.726C330.112 76.6635 330.302 76.5158 330.418 76.3146C330.534 76.1133 330.566 75.8747 330.508 75.65C329.185 72.4093 327.22 69.4697 324.732 67.008C323.932 66.218 322.704 67.475 323.511 68.27Z"
                fill="#2E5943" />
            <path
                d="M317.498 80.519C315.98 78.3869 315.348 75.7496 315.734 73.161C315.75 72.9298 315.674 72.7016 315.522 72.5263C315.371 72.3509 315.156 72.2427 314.925 72.2253C314.694 72.2078 314.465 72.2826 314.289 72.4332C314.113 72.5838 314.003 72.798 313.985 73.029C313.566 76.0887 314.355 79.1912 316.185 81.679C316.34 81.8522 316.557 81.9576 316.789 81.9723C317.02 81.9871 317.249 81.9102 317.425 81.758C317.594 81.6009 317.697 81.3844 317.711 81.1535C317.726 80.9226 317.651 80.695 317.502 80.518"
                fill="#2E5943" />
            <path
                d="M321.22 77.977L317.688 70.728C317.581 70.5271 317.401 70.3755 317.184 70.3053C316.968 70.235 316.732 70.2516 316.528 70.3514C316.323 70.4513 316.166 70.6267 316.088 70.8406C316.01 71.0545 316.019 71.2902 316.111 71.498L319.643 78.744C319.752 78.9421 319.932 79.0909 320.147 79.1595C320.362 79.2281 320.595 79.2112 320.798 79.1124C321.001 79.0136 321.158 78.8404 321.237 78.6287C321.315 78.4171 321.309 78.1844 321.22 77.977Z"
                fill="#2E5943" />
            <path
                d="M323.871 76.984C323.282 74.594 322.693 72.2044 322.102 69.815C322.054 69.5895 321.92 69.3911 321.73 69.2609C321.54 69.1306 321.307 69.0784 321.079 69.115C320.851 69.1599 320.651 69.2922 320.52 69.4835C320.389 69.6748 320.338 69.9098 320.379 70.138L322.145 77.307C322.193 77.5326 322.326 77.731 322.517 77.8612C322.707 77.9915 322.94 78.0437 323.168 78.007C323.395 77.9619 323.596 77.8296 323.727 77.6383C323.857 77.4471 323.908 77.2122 323.868 76.984"
                fill="#2E5943" />
            <path
                d="M280.207 53.139C280.294 52.963 279.025 45.995 284.241 46.169C289.457 46.343 296.734 51.562 299.275 52.439"
                fill="#E5A37F" />
            <path
                d="M280.488 53.275L279.929 52.999L280.21 53.136L279.904 53.096C279.904 53.051 279.897 52.954 279.884 52.815C279.805 51.787 279.559 48.657 281.176 46.965C281.575 46.5648 282.058 46.2577 282.591 46.0658C283.123 45.8739 283.691 45.8019 284.254 45.855C287.945 45.979 292.573 48.538 295.954 50.406C297.055 51.0603 298.198 51.6402 299.377 52.142L299.177 52.728C297.962 52.2175 296.786 51.6223 295.655 50.947C292.331 49.111 287.778 46.595 284.236 46.476C283.76 46.422 283.278 46.4766 282.826 46.6358C282.374 46.795 281.965 47.0546 281.628 47.395C280.202 48.885 280.433 51.809 280.508 52.768C280.535 53.106 280.54 53.175 280.491 53.275"
                fill="#A5613C" />
            <path
                d="M280.488 53.275L279.929 52.999L280.21 53.136L279.904 53.096C279.904 53.051 279.897 52.954 279.884 52.815C279.805 51.787 279.559 48.657 281.176 46.965C281.575 46.5648 282.058 46.2577 282.591 46.0658C283.123 45.8739 283.691 45.8019 284.254 45.855C287.945 45.979 292.573 48.538 295.954 50.406C297.055 51.0603 298.198 51.6402 299.377 52.142L299.177 52.728C297.962 52.2175 296.786 51.6223 295.655 50.947C292.331 49.111 287.778 46.595 284.236 46.476C283.76 46.422 283.278 46.4766 282.826 46.6358C282.374 46.795 281.965 47.0546 281.628 47.395C280.202 48.885 280.433 51.809 280.508 52.768C280.535 53.106 280.54 53.175 280.491 53.275"
                stroke="#A5613C" stroke-width="0.4" />
            <path
                d="M280.607 35.984C280.607 35.984 279.114 53.402 287.095 51.065C288.2 50.74 288.787 49.552 289.057 48C289.765 43.953 288.322 37.445 288.322 37.445C288.322 37.445 289.067 49.632 293.622 49.105C298.177 48.578 295.86 44.624 294.981 36.334C295.113 37.576 298.116 52.707 302.081 47.396C304.799 43.757 302.65 34.727 302.65 34.727C302.65 34.727 303.835 47.222 307.342 47.527C310.489 47.803 311.813 44.927 310.586 38.788"
                fill="#E5A37F" />
            <path
                d="M280.607 35.984C280.607 35.984 279.114 53.402 287.095 51.065C288.2 50.74 288.787 49.552 289.057 48C289.765 43.953 288.322 37.445 288.322 37.445C288.322 37.445 289.067 49.632 293.622 49.105C298.177 48.578 295.86 44.624 294.981 36.334C295.113 37.576 298.116 52.707 302.081 47.396C304.799 43.757 302.65 34.727 302.65 34.727C302.65 34.727 303.835 47.222 307.342 47.527C310.489 47.803 311.813 44.927 310.586 38.788"
                stroke="#A5613C" stroke-width="0.4" />
            <path
                d="M285.692 51.585C284.806 51.594 283.945 51.2886 283.263 50.723C279.348 47.523 280.255 36.423 280.292 35.953L280.913 36.008C280.903 36.117 279.994 47.246 283.658 50.242C284.123 50.6103 284.676 50.8517 285.262 50.9426C285.848 51.0336 286.447 50.971 287.002 50.761C287.881 50.505 288.465 49.561 288.746 47.944C288.972 46.3164 289.001 44.6674 288.83 43.033C288.416 41.1985 288.141 39.3351 288.008 37.459L288.622 37.375C289.01 39.2123 289.288 41.0714 289.452 42.942C289.952 45.078 290.731 47.252 291.934 48.258C292.155 48.4612 292.417 48.6144 292.703 48.707C292.988 48.7997 293.29 48.8297 293.588 48.795C293.968 48.7935 294.344 48.7133 294.692 48.5594C295.039 48.4056 295.351 48.1814 295.608 47.901C296.366 46.887 296.023 44.935 295.508 41.979C295.225 40.362 294.908 38.529 294.676 36.367L295.292 36.302V36.314C295.461 37.839 297.548 47.468 300.114 48.173C300.675 48.322 301.237 48.012 301.833 47.209C303.133 45.473 303.269 42.397 303.078 39.744C302.611 37.372 302.395 35.27 302.345 34.756L302.956 34.656C303.324 36.2929 303.573 37.9542 303.701 39.627C304.421 43.227 305.629 47.067 307.372 47.218C307.802 47.2895 308.242 47.2544 308.655 47.1158C309.068 46.9772 309.44 46.7393 309.739 46.423C310.839 45.193 311.028 42.575 310.281 38.851L310.895 38.729C311.69 42.706 311.456 45.429 310.202 46.835C309.841 47.2258 309.388 47.5215 308.885 47.696C308.382 47.8704 307.844 47.9181 307.318 47.835C305.671 47.691 304.526 45.294 303.751 42.584C303.764 44.3517 303.272 46.0862 302.333 47.584C301.573 48.602 300.768 48.997 299.948 48.776C298.44 48.361 297.218 45.795 296.329 43.102C296.739 45.541 296.898 47.218 296.105 48.279C295.801 48.6301 295.426 48.9129 295.005 49.109C294.583 49.3051 294.126 49.4101 293.661 49.417C293.279 49.4632 292.891 49.4267 292.525 49.3101C292.158 49.1935 291.82 48.9994 291.535 48.741C290.621 47.849 289.943 46.7435 289.563 45.524C289.565 46.3727 289.498 47.2202 289.363 48.058C289.04 49.924 288.305 51.036 287.182 51.364C286.7 51.5101 286.2 51.5872 285.696 51.593"
                fill="#A5613C" />
            <path
                d="M285.692 51.585C284.806 51.594 283.945 51.2886 283.263 50.723C279.348 47.523 280.255 36.423 280.292 35.953L280.913 36.008C280.903 36.117 279.994 47.246 283.658 50.242C284.123 50.6103 284.676 50.8517 285.262 50.9426C285.848 51.0336 286.447 50.971 287.002 50.761C287.881 50.505 288.465 49.561 288.746 47.944C288.972 46.3164 289.001 44.6674 288.83 43.033C288.416 41.1985 288.141 39.3351 288.008 37.459L288.622 37.375C289.01 39.2123 289.288 41.0714 289.452 42.942C289.952 45.078 290.731 47.252 291.934 48.258C292.155 48.4612 292.417 48.6144 292.703 48.707C292.988 48.7997 293.29 48.8297 293.588 48.795C293.968 48.7935 294.344 48.7133 294.692 48.5594C295.039 48.4056 295.351 48.1814 295.608 47.901C296.366 46.887 296.023 44.935 295.508 41.979C295.225 40.362 294.908 38.529 294.676 36.367L295.292 36.302V36.314C295.461 37.839 297.548 47.468 300.114 48.173C300.675 48.322 301.237 48.012 301.833 47.209C303.133 45.473 303.269 42.397 303.078 39.744C302.611 37.372 302.395 35.27 302.345 34.756L302.956 34.656C303.324 36.2929 303.573 37.9542 303.701 39.627C304.421 43.227 305.629 47.067 307.372 47.218C307.802 47.2895 308.242 47.2544 308.655 47.1158C309.068 46.9772 309.44 46.7393 309.739 46.423C310.839 45.193 311.028 42.575 310.281 38.851L310.895 38.729C311.69 42.706 311.456 45.429 310.202 46.835C309.841 47.2258 309.388 47.5215 308.885 47.696C308.382 47.8704 307.844 47.9181 307.318 47.835C305.671 47.691 304.526 45.294 303.751 42.584C303.764 44.3517 303.272 46.0862 302.333 47.584C301.573 48.602 300.768 48.997 299.948 48.776C298.44 48.361 297.218 45.795 296.329 43.102C296.739 45.541 296.898 47.218 296.105 48.279C295.801 48.6301 295.426 48.9129 295.005 49.109C294.583 49.3051 294.126 49.4101 293.661 49.417C293.279 49.4632 292.891 49.4267 292.525 49.3101C292.158 49.1935 291.82 48.9994 291.535 48.741C290.621 47.849 289.943 46.7435 289.563 45.524C289.565 46.3727 289.498 47.2202 289.363 48.058C289.04 49.924 288.305 51.036 287.182 51.364C286.7 51.5101 286.2 51.5872 285.696 51.593"
                stroke="#A5613C" stroke-width="0.3" />
            <path d="M100.9 115.942C106.512 116.292 132.113 116.469 132.113 116.469"
                stroke="#2E5943" stroke-width="0.75" stroke-miterlimit="10" stroke-linecap="round" />
            <path
                d="M105.519 95.603C105.519 95.603 102.362 96.303 103.328 97.794C104.294 99.285 124.281 100.775 129.366 99.983C134.451 99.191 134.627 96.125 134.627 96.125L129.453 95.076L129.542 97.794C129.542 97.794 112.884 100.337 105.519 95.603Z"
                fill="#2E5943" />
        </g>
    </g>
</svg>