<?xml version="1.0" encoding="UTF-8" standalone="no"?>
<svg
   width="583"
   height="292"
   viewBox="0 0 583 292"
   fill="none"
   version="1.1"
   id="svg387"
   sodipodi:docname="Zakladni.svg"
   inkscape:version="1.3.2 (091e20e, 2023-11-25)"
   xmlns:inkscape="http://www.inkscape.org/namespaces/inkscape"
   xmlns:sodipodi="http://sodipodi.sourceforge.net/DTD/sodipodi-0.dtd"
   xmlns="http://www.w3.org/2000/svg"
   xmlns:svg="http://www.w3.org/2000/svg">
  <sodipodi:namedview
     id="namedview387"
     pagecolor="#ffffff"
     bordercolor="#000000"
     borderopacity="0.25"
     inkscape:showpageshadow="2"
     inkscape:pageopacity="0.0"
     inkscape:pagecheckerboard="0"
     inkscape:deskcolor="#d1d1d1"
     inkscape:zoom="1.1451958"
     inkscape:cx="236.20416"
     inkscape:cy="131.85519"
     inkscape:window-width="1312"
     inkscape:window-height="789"
     inkscape:window-x="0"
     inkscape:window-y="38"
     inkscape:window-maximized="0"
     inkscape:current-layer="svg387" />
  <path
     d="m 136.047,186.283 v -17.707 h -8.149 v 9.993 z"
     fill="#ffffff"
     id="path1" />
  <path
     d="m 127.832,168.411 v 1.018 h 8.226 v -1.018 z"
     fill="#dbdbdb"
     id="path2" />
  <path
     d="m 71.5838,201.11 h -3.838 c -1.4372,0 -2.098,-1.784 -1.0132,-2.72 l 41.4194,-35.804 c 0.584,-0.501 1.443,-0.501 2.026,0 l 40.643,35.132 c 1.085,0.936 0.424,2.72 -1.013,2.72 l -78.2242,0.666 z"
     fill="#ea4b6d"
     id="path3" />
  <path
     d="m 143.575,199.733 v 41.15 H 73.7368 v -41.15 l 34.9162,-29.048 z"
     fill="#ffffff"
     id="path4" />
  <path
     d="m 75.1467,234.094 h 67.0403 c 0.782,0 1.415,0.634 1.415,1.415 v 3.557 H 73.7261 v -3.557 c 0,-0.781 0.6332,-1.415 1.4151,-1.415 z"
     fill="#e8da9a"
     id="path5" />
  <path
     d="m 113.581,210.635 h 14.339 c 0.562,0 1.019,0.457 1.019,1.018 v 28.207 c 0,0.561 -0.457,1.018 -1.019,1.018 h -14.482 c -0.567,0 -1.024,-0.462 -1.019,-1.024 l 0.144,-28.206 c 0,-0.562 0.457,-1.019 1.018,-1.019 z"
     fill="#bf8a6b"
     id="path6" />
  <path
     d="m 115.442,212.65 h 10.584 c 0.418,0 0.754,0.407 0.754,0.903 v 25.001 c 0,0.501 -0.336,0.903 -0.754,0.903 h -10.683 c -0.418,0 -0.754,-0.407 -0.754,-0.908 l 0.104,-25.002 c 0,-0.495 0.342,-0.903 0.755,-0.903 z"
     fill="#7c451c"
     id="path7" />
  <path
     d="m 101.346,225.99 h -7.4725 -7.4502 v -14.92 h 6.7013 8.2214 z"
     fill="url(#paint0_linear_1214_83305)"
     stroke="#bf8a6b"
     stroke-width="3.58"
     stroke-linecap="round"
     stroke-linejoin="round"
     id="path8"
     style="fill:url(#paint0_linear_1214_83305)" />
  <path
     d="m 89.5455,217.286 c -0.1927,0 -0.3855,-0.072 -0.5341,-0.221 -0.2919,-0.291 -0.2919,-0.77 0,-1.068 l 2.3402,-2.34 c 0.2918,-0.291 0.7709,-0.291 1.0682,0 0.2919,0.292 0.2919,0.771 0,1.068 l -2.3402,2.34 c -0.1487,0.149 -0.3414,0.221 -0.5341,0.221 z"
     fill="#afe8f3"
     id="path9" />
  <path
     d="m 89.5455,220.765 c -0.1927,0 -0.3855,-0.071 -0.5341,-0.22 -0.2919,-0.292 -0.2919,-0.771 0,-1.068 l 5.4458,-5.445 c 0.2918,-0.292 0.7709,-0.292 1.0682,0 0.2919,0.292 0.2919,0.771 0,1.068 l -5.4458,5.445 c -0.1487,0.149 -0.3414,0.22 -0.5341,0.22 z"
     fill="#afe8f3"
     id="path10" />
  <path
     d="m 136.934,164.023 h -9.939 c -0.423,0 -0.766,0.343 -0.766,0.765 v 3.012 c 0,0.423 0.343,0.765 0.766,0.765 h 9.939 c 0.423,0 0.765,-0.342 0.765,-0.765 v -3.012 c 0,-0.422 -0.342,-0.765 -0.765,-0.765 z"
     fill="#ea4b6d"
     id="path11" />
  <path
     d="m 127.942,226.194 c 0,0.545 -0.441,0.986 -0.986,0.986 h -2.043 c -0.545,0 -0.985,-0.441 -0.985,-0.986 0,-0.545 0.44,-0.986 0.985,-0.986 h 2.043 c 0.545,0 0.986,0.441 0.986,0.986 z"
     fill="#ffec3b"
     id="path12" />
  <path
     d="m 46.3644,242.81 c 0,0 -0.1652,-1.569 -0.1652,-2.384 0,-7.961 5.4293,-14.414 12.1306,-14.414 0.6278,0 1.2445,0.055 1.8447,0.171 1.0627,-6.668 5.991,-11.705 11.9104,-11.705 0.5396,0 1.0737,0.038 1.5968,0.132 v 28.206 H 46.3699 Z"
     fill="#1ea581"
     id="path13" />
  <path
     d="m 51.3037,242.81 c 0,0 -0.0991,-0.941 -0.0991,-1.431 0,-4.785 3.1882,-8.666 7.1198,-8.666 0.3689,0 0.7323,0.033 1.0847,0.099 0.6223,-4.008 3.5186,-7.037 6.9932,-7.037 0.3194,0 0.6277,0.022 0.9361,0.077 v 16.953 H 51.3037 Z"
     fill="#336a75"
     id="path14" />
  <path
     d="m 132.352,174.054 h -3.078 c -0.545,0 -0.985,-0.594 -0.985,-1.327 0,-0.732 0.44,-1.327 0.985,-1.327 h 3.078 c 0.545,0 0.986,0.595 0.986,1.327 0,0.733 -0.441,1.327 -0.986,1.327 z"
     fill="#dbdbdb"
     id="path15" />
  <path
     d="M 145.507,239.105 H 71.3742 c -0.7056,0 -1.2775,0.572 -1.2775,1.277 v 1.14 c 0,0.705 0.5719,1.277 1.2775,1.277 h 74.1328 c 0.706,0 1.277,-0.572 1.277,-1.277 v -1.14 c 0,-0.705 -0.571,-1.277 -1.277,-1.277 z"
     fill="#b2b2b2"
     id="path16" />
  <path
     d="m 134.693,177.418 h -3.078 c -0.545,0 -0.986,-0.594 -0.986,-1.326 0,-0.733 0.441,-1.327 0.986,-1.327 h 3.078 c 0.545,0 0.986,0.594 0.986,1.327 0,0.732 -0.441,1.326 -0.986,1.326 z"
     fill="#dbdbdb"
     id="path17" />
  <path
     d="m 134.869,204.259 h -3.078 c -0.545,0 -0.986,-0.595 -0.986,-1.327 0,-0.732 0.441,-1.327 0.986,-1.327 h 3.078 c 0.545,0 0.986,0.595 0.986,1.327 0,0.732 -0.441,1.327 -0.986,1.327 z"
     fill="#dbdbdb"
     id="path18" />
  <path
     d="M 87.4861,202.717 H 84.408 c -0.5451,0 -0.9856,-0.594 -0.9856,-1.327 0,-0.732 0.4405,-1.327 0.9856,-1.327 h 3.0781 c 0.5451,0 0.9856,0.595 0.9856,1.327 0,0.733 -0.4405,1.327 -0.9856,1.327 z"
     fill="#dbdbdb"
     id="path19" />
  <path
     d="m 90.1516,199.072 h -3.0781 c -0.5451,0 -0.9856,-0.594 -0.9856,-1.327 0,-0.732 0.4405,-1.327 0.9856,-1.327 h 3.0781 c 0.5452,0 0.9857,0.595 0.9857,1.327 0,0.733 -0.4405,1.327 -0.9857,1.327 z"
     fill="#dbdbdb"
     id="path20" />
  <path
     d="m 132.055,207.678 h -3.078 c -0.545,0 -0.985,-0.594 -0.985,-1.327 0,-0.732 0.44,-1.327 0.985,-1.327 h 3.078 c 0.546,0 0.986,0.595 0.986,1.327 0,0.733 -0.44,1.327 -0.986,1.327 z"
     fill="#dbdbdb"
     id="path21" />
  <path
     d="m 138.095,207.59 h -3.078 c -0.545,0 -0.985,-0.595 -0.985,-1.327 0,-0.733 0.44,-1.327 0.985,-1.327 h 3.078 c 0.546,0 0.986,0.594 0.986,1.327 0,0.732 -0.44,1.327 -0.986,1.327 z"
     fill="#dbdbdb"
     id="path22" />
  <path
     d="M 131.003,238.632 H 110.53 c -0.827,0 -1.497,0.67 -1.497,1.497 v 2.384 c 0,0.827 0.67,1.498 1.497,1.498 h 20.473 c 0.827,0 1.498,-0.671 1.498,-1.498 v -2.384 c 0,-0.827 -0.671,-1.497 -1.498,-1.497 z"
     fill="#727272"
     id="path23" />
  <path
     d="M 102.954,224.883 H 84.8652 c -0.6903,0 -1.25,0.56 -1.25,1.25 v 1.751 c 0,0.69 0.5597,1.25 1.25,1.25 h 18.0888 c 0.69,0 1.25,-0.56 1.25,-1.25 v -1.751 c 0,-0.69 -0.56,-1.25 -1.25,-1.25 z"
     fill="#7c451c"
     id="path24" />
  <path
     d="m 73.5605,199.788 35.0645,-29.257 34.95,29.202"
     stroke="#bf8a6b"
     stroke-width="3.58"
     stroke-linecap="round"
     stroke-linejoin="round"
     id="path25" />
  <path
     d="m 108.388,198.957 c 3.075,0 5.567,-2.492 5.567,-5.566 0,-3.074 -2.492,-5.567 -5.567,-5.567 -3.074,0 -5.567,2.493 -5.567,5.567 0,3.074 2.493,5.566 5.567,5.566 z"
     fill="url(#paint1_linear_1214_83305)"
     stroke="#bf8a6b"
     stroke-width="3.58"
     stroke-linecap="round"
     stroke-linejoin="round"
     id="path26"
     style="fill:url(#paint1_linear_1214_83305)" />
  <path
     d="m 106.037,192.978 c -0.193,0 -0.385,-0.072 -0.534,-0.221 -0.292,-0.292 -0.292,-0.771 0,-1.068 l 1.002,-1.002 c 0.292,-0.292 0.771,-0.292 1.068,0 0.292,0.292 0.292,0.771 0,1.068 l -1.002,1.002 c -0.148,0.149 -0.341,0.221 -0.534,0.221 z"
     fill="#afe8f3"
     id="path27" />
  <path
     d="m 106.681,195.786 c -0.192,0 -0.385,-0.072 -0.534,-0.22 -0.292,-0.292 -0.292,-0.771 0,-1.069 l 3.304,-3.303 c 0.292,-0.292 0.771,-0.292 1.068,0 0.292,0.292 0.292,0.771 0,1.068 l -3.304,3.304 c -0.148,0.148 -0.341,0.22 -0.534,0.22 z"
     fill="#afe8f3"
     id="path28" />
  <path
     opacity="0.62"
     d="m 74.5737,223.381 h -9.025 c -1.7425,0 -3.1551,1.412 -3.1551,3.154 v 13.132 c 0,1.742 1.4126,3.155 3.1551,3.155 h 9.025 c 1.7426,0 3.1552,-1.413 3.1552,-3.155 v -13.132 c 0,-1.742 -1.4126,-3.154 -3.1552,-3.154 z"
     fill="#b2b2b2"
     id="path29" />
  <path
     d="m 72.3545,223.381 h -9.025 c -1.7426,0 -3.1552,1.412 -3.1552,3.154 v 13.132 c 0,1.742 1.4126,3.155 3.1552,3.155 h 9.025 c 1.7426,0 3.1552,-1.413 3.1552,-3.155 v -13.132 c 0,-1.742 -1.4126,-3.154 -3.1552,-3.154 z"
     fill="#ffffff"
     id="path30" />
  <path
     d="m 71.3138,225.104 h -6.9381 c -1.256,0 -2.2741,1.018 -2.2741,2.274 v 8.969 c 0,1.256 1.0181,2.274 2.2741,2.274 h 6.9381 c 1.256,0 2.2741,-1.018 2.2741,-2.274 v -8.969 c 0,-1.256 -1.0181,-2.274 -2.2741,-2.274 z"
     fill="url(#paint2_linear_1214_83305)"
     id="path31"
     style="fill:url(#paint2_linear_1214_83305)" />
  <path
     fill-rule="evenodd"
     clip-rule="evenodd"
     d="m 69.4255,227.389 -0.9691,3.7 h 2.2576 l -4.7245,5.186 1.4813,-3.782 h -2.2081 z"
     fill="#ffffff"
     id="path32" />
  <path
     d="m 73.4397,233.478 c -0.424,0 -0.7654,-0.254 -0.7654,-0.562 v -1.162 c 0,-0.308 0.3414,-0.561 0.7654,-0.561 0.424,0 0.7654,0.253 0.7654,0.561 v 1.162 c 0,0.308 -0.3414,0.562 -0.7654,0.562 z"
     fill="#b2b2b2"
     id="path33" />
  <path
     d="M 168.246,232.921 H 145.854"
     stroke="#5b2c01"
     stroke-width="4.6886"
     stroke-linecap="round"
     stroke-linejoin="round"
     id="path34" />
  <path
     d="M 168.246,222.162 H 145.854"
     stroke="#5b2c01"
     stroke-width="4.6886"
     stroke-linecap="round"
     stroke-linejoin="round"
     id="path35" />
  <path
     d="m 157.98,241.321 c 1.258,0 2.279,-1.028 2.279,-2.295 v -23.025 c 0,-1.267 -1.021,-2.295 -2.279,-2.295 -1.259,0 -2.28,1.028 -2.28,2.295 v 23.025 c 0,1.267 1.021,2.295 2.28,2.295 z"
     fill="#c47233"
     id="path36" />
  <path
     d="m 145.854,241.321 c 1.258,0 2.279,-1.028 2.279,-2.295 v -23.025 c 0,-1.267 -1.021,-2.295 -2.279,-2.295 -1.259,0 -2.28,1.028 -2.28,2.295 v 23.025 c 0,1.267 1.021,2.295 2.28,2.295 z"
     fill="#c47233"
     id="path37" />
  <path
     d="m 170.034,241.121 c 1.258,0 2.279,-1.028 2.279,-2.295 v -23.025 c 0,-1.267 -1.021,-2.295 -2.279,-2.295 -1.259,0 -2.28,1.028 -2.28,2.295 v 23.025 c 0,1.267 1.021,2.295 2.28,2.295 z"
     fill="#c47233"
     id="path38" />
  <path
     d="m 164.04,213.704 c -1.259,0 -2.28,1.028 -2.28,2.294 v 23.026 c 0,1.266 1.021,2.295 2.28,2.295 1.258,0 2.279,-1.029 2.279,-2.295 v -23.026 c 0,-1.266 -1.021,-2.294 -2.279,-2.294 z m 0,4.005 c -0.472,0 -0.856,-0.381 -0.856,-0.85 0,-0.468 0.384,-0.85 0.856,-0.85 0.472,0 0.855,0.382 0.855,0.85 0,0.469 -0.383,0.85 -0.855,0.85 z"
     fill="#c47233"
     id="path39" />
  <path
     d="m 151.917,213.704 c -1.259,0 -2.28,1.028 -2.28,2.294 v 23.026 c 0,1.266 1.021,2.295 2.28,2.295 1.258,0 2.279,-1.029 2.279,-2.295 v -23.026 c 0,-1.266 -1.021,-2.294 -2.279,-2.294 z m -0.124,16.547 c -0.472,0 -0.856,-0.381 -0.856,-0.85 0,-0.469 0.384,-0.85 0.856,-0.85 0.471,0 0.855,0.381 0.855,0.85 0,0.469 -0.384,0.85 -0.855,0.85 z"
     fill="#c47233"
     id="path40" />
  <path
     d="m 339.707,103.949 h -4.443 v 8.116 h 4.443 z"
     fill="#4c5562"
     id="path41" />
  <path
     opacity="0.07"
     d="M 530.323,235.119 H 10.7104 c -5.84804,0 -10.588818,4.74 -10.588818,10.588 v 4.355 c 0,5.847 4.740778,10.587 10.588818,10.587 H 530.323 c 5.848,0 10.589,-4.74 10.589,-10.587 v -4.355 c 0,-5.848 -4.741,-10.588 -10.589,-10.588 z"
     fill="#4c5562"
     id="path42" />
  <path
     opacity="0.07"
     d="m 120.359,260.649 h 115.58 c 0,3.419 -2.775,6.194 -6.195,6.194 H 126.56 c -3.42,0 -6.195,-2.775 -6.195,-6.194 z"
     fill="#4c5562"
     id="path43" />
  <path
     d="M 575.255,225.109 H 263.301 c -3.796,0 -6.872,3.077 -6.872,6.872 v 4.112 c 0,3.795 3.076,6.872 6.872,6.872 h 311.954 c 3.796,0 6.872,-3.077 6.872,-6.872 v -4.112 c 0,-3.795 -3.076,-6.872 -6.872,-6.872 z"
     fill="#4c5562"
     id="path44" />
  <path
     d="m 557.243,213.41 c 0,0 -0.512,-0.645 -1.09,-1.388 l 1.905,-7.785 1.289,-0.319 c 0,0 -0.485,-0.606 -0.92,-1.179 l 1.751,-7.152 2.891,12.019 c -0.71,0.452 -1.448,0.892 -1.448,0.892 l 1.988,1.36 1.498,6.227 c -0.881,0.331 -1.581,0.584 -1.581,0.584 l 2.28,2.307 1.09,4.52 h -13.535 l 2.374,-9.712 1.519,-0.374 z"
     fill="#1ea581"
     id="path45" />
  <path
     d="m 557.244,213.41 -2.329,3.711 0.815,-3.337 z"
     fill="#26b28a"
     id="path46" />
  <path
     d="m 524.97,225.11 c -0.457,0 33.135,0 39.479,0 -3.59,-7.571 -51.262,-24.226 -56.003,-31.136 -12.632,-18.427 -30.087,-34.857 -52.218,-40.599 -6.844,-1.773 -14.503,-0.848 -20.329,-5.346 -3.469,-2.682 -6.046,-6.326 -8.469,-9.982 -6.503,-9.828 -12.615,-20.091 -22.973,-26.312 -11.624,-6.982 -24.212,-11.342 -37.9,-11.342 -0.331,0 -0.661,0.011 -0.992,0.016 -0.269,0 -0.545,-0.016 -0.815,-0.016 -15.621,0 -31.408,8.077 -40.262,21.026 -4.009,5.859 -7.588,12.113 -12.874,16.953 -5.209,4.762 -11.421,8.479 -17.566,11.887 -7.423,4.118 -15.583,6.739 -22.29,12.145 -4.873,3.926 -9.074,8.611 -12.51,13.836 -7.467,11.359 -11.189,24.952 -11.189,38.508 0,3.573 0.754,10.494 0.754,10.494 h 123.134 v -0.011 c 40.296,-0.028 156.39,-0.121 156.406,-0.121 z"
     fill="#1ea581"
     id="path47" />
  <path
     d="m 469.058,225.28 c -1.057,-42.851 -35.797,-77.262 -78.505,-77.262 -21.122,0 -45.35,8.869 -58.136,26.631 -9.097,12.636 -10.391,29.494 -21.156,41.266 -5.705,6.238 -13.419,9.371 -21.833,9.371 h 179.63 z"
     fill="#188165"
     id="path48" />
  <g
     clip-path="url(#clip0_1214_83305)"
     id="g95">
    <path
       d="m 290.772,179.75 h -29.177 c -0.937,0 -1.696,0.753 -1.696,1.682 v 59.766 c 0,0.929 0.759,1.682 1.696,1.682 h 29.177 c 0.936,0 1.695,-0.753 1.695,-1.682 v -59.766 c 0,-0.929 -0.759,-1.682 -1.695,-1.682 z"
       fill="#c1b89a"
       id="path49" />
    <path
       d="m 266.188,146.177 h -55.606 c -0.937,0 -1.696,0.753 -1.696,1.681 v 95.549 c 0,0.929 0.759,1.682 1.696,1.682 h 55.606 c 0.937,0 1.696,-0.753 1.696,-1.682 v -95.549 c 0,-0.928 -0.759,-1.681 -1.696,-1.681 z"
       fill="#dbd2b2"
       id="path50" />
    <path
       d="M 303.855,242.88 H 196.388 c -0.699,0 -1.266,0.562 -1.266,1.256 v 1.107 c 0,0.694 0.567,1.256 1.266,1.256 h 107.467 c 0.7,0 1.267,-0.562 1.267,-1.256 v -1.107 c 0,-0.694 -0.567,-1.256 -1.267,-1.256 z"
       fill="#9e957a"
       id="path51" />
    <path
       d="m 268.233,146.991 h -62.631 l -2.146,-7.186 h 68.534 z"
       fill="#4c5562"
       id="path52" />
    <g
       opacity="0.13"
       id="g54">
      <path
         d="m 220.719,233.992 h 3.166 c 0.559,0 1.015,-0.607 1.015,-1.358 0,-0.75 -0.456,-1.357 -1.015,-1.357 h -3.166 c -0.558,0 -1.014,0.607 -1.014,1.357 0,0.751 0.456,1.358 1.014,1.358 z"
         fill="#4c5562"
         id="path53" />
      <path
         d="m 217.977,230.276 h 3.166 c 0.558,0 1.015,-0.606 1.015,-1.357 0,-0.75 -0.457,-1.357 -1.015,-1.357 h -3.166 c -0.558,0 -1.014,0.607 -1.014,1.357 0,0.751 0.456,1.357 1.014,1.357 z"
         fill="#4c5562"
         id="path54" />
    </g>
    <g
       opacity="0.13"
       id="g56">
      <path
         d="m 257.688,173.614 h -3.166 c -0.558,0 -1.014,-0.607 -1.014,-1.358 0,-0.75 0.456,-1.357 1.014,-1.357 h 3.166 c 0.558,0 1.014,0.607 1.014,1.357 0,0.751 -0.456,1.358 -1.014,1.358 z"
         fill="#4c5562"
         id="path55" />
      <path
         d="m 260.43,169.899 h -3.166 c -0.558,0 -1.014,-0.607 -1.014,-1.358 0,-0.75 0.456,-1.357 1.014,-1.357 h 3.166 c 0.559,0 1.015,0.607 1.015,1.357 0,0.751 -0.456,1.358 -1.015,1.358 z"
         fill="#4c5562"
         id="path56" />
    </g>
    <path
       d="m 238.117,212.595 c 5.441,0 9.863,4.386 9.863,9.783 v 20.497 h -19.727 v -20.497 c 0,-5.397 4.422,-9.783 9.864,-9.783 z"
       fill="#89826e"
       id="path57" />
    <path
       d="m 219.909,194.611 h 7.159 c 0.246,0 0.45,0.202 0.45,0.447 v 11.07 h -8.06 v -11.07 c 0,-0.245 0.204,-0.447 0.451,-0.447 z"
       fill="url(#paint3_linear_1214_83305)"
       stroke="#c1b89a"
       stroke-width="2.83"
       stroke-miterlimit="10"
       id="path58"
       style="fill:url(#paint3_linear_1214_83305)" />
    <path
       d="m 233.513,194.611 h 7.159 c 0.246,0 0.45,0.202 0.45,0.447 v 11.07 h -8.06 v -11.07 c 0,-0.245 0.204,-0.447 0.451,-0.447 z"
       fill="url(#paint4_linear_1214_83305)"
       stroke="#c1b89a"
       stroke-width="2.83"
       stroke-miterlimit="10"
       id="path59"
       style="fill:url(#paint4_linear_1214_83305)" />
    <path
       d="m 246.531,194.611 h 7.159 c 0.247,0 0.451,0.202 0.451,0.447 v 11.07 h -8.06 v -11.07 c 0,-0.245 0.203,-0.447 0.45,-0.447 z"
       fill="url(#paint5_linear_1214_83305)"
       stroke="#c1b89a"
       stroke-width="2.83"
       stroke-miterlimit="10"
       id="path60"
       style="fill:url(#paint5_linear_1214_83305)" />
    <path
       d="m 219.909,179.623 h 7.159 c 0.246,0 0.45,0.202 0.45,0.447 v 11.071 h -8.06 V 180.07 c 0,-0.245 0.204,-0.447 0.451,-0.447 z"
       fill="url(#paint6_linear_1214_83305)"
       stroke="#c1b89a"
       stroke-width="2.83"
       stroke-miterlimit="10"
       id="path61"
       style="fill:url(#paint6_linear_1214_83305)" />
    <path
       d="m 233.513,179.623 h 7.159 c 0.246,0 0.45,0.202 0.45,0.447 v 11.071 h -8.06 V 180.07 c 0,-0.245 0.204,-0.447 0.451,-0.447 z"
       fill="url(#paint7_linear_1214_83305)"
       stroke="#c1b89a"
       stroke-width="2.83"
       stroke-miterlimit="10"
       id="path62"
       style="fill:url(#paint7_linear_1214_83305)" />
    <path
       d="m 246.531,179.623 h 7.159 c 0.247,0 0.451,0.202 0.451,0.447 v 11.071 h -8.06 V 180.07 c 0,-0.245 0.203,-0.447 0.45,-0.447 z"
       fill="url(#paint8_linear_1214_83305)"
       stroke="#c1b89a"
       stroke-width="2.83"
       stroke-miterlimit="10"
       id="path63"
       style="fill:url(#paint8_linear_1214_83305)" />
    <path
       d="m 275.966,203.212 h 7.159 c 0.247,0 0.45,0.202 0.45,0.447 v 11.071 h -8.06 v -11.071 c 0,-0.245 0.204,-0.447 0.451,-0.447 z"
       fill="url(#paint9_linear_1214_83305)"
       stroke="#aa9f81"
       stroke-width="2.83"
       stroke-miterlimit="10"
       id="path64"
       style="fill:url(#paint9_linear_1214_83305)" />
    <path
       d="m 275.966,188.224 h 7.159 c 0.247,0 0.45,0.202 0.45,0.447 v 11.071 h -8.06 v -11.071 c 0,-0.245 0.204,-0.447 0.451,-0.447 z"
       fill="url(#paint10_linear_1214_83305)"
       stroke="#aa9f81"
       stroke-width="2.83"
       stroke-miterlimit="10"
       id="path65"
       style="fill:url(#paint10_linear_1214_83305)" />
    <path
       d="m 230.4,240.746 v -18.368 c 0,-4.221 3.462,-7.654 7.717,-7.654 4.256,0 7.717,3.433 7.717,7.654 v 18.368 z"
       fill="#938a70"
       id="path66" />
    <path
       d="m 267.884,174.071 v 7.186 h 24.541 l 2.597,-7.186 z"
       fill="#4c5562"
       id="path67" />
    <path
       d="m 250.293,87.4592 -11.87,3.0977 v -6.4402 z"
       fill="#ea4b6d"
       id="path68" />
    <path
       d="m 238.423,84.1167 v 6.4401 l -2.195,0.5749 v -7.6324 z"
       fill="#ce204e"
       id="path69" />
    <path
       d="m 236.228,91.1317 2.195,-0.5748 v 6.4135 h -2.195 z"
       fill="#4c5562"
       id="path70" />
    <path
       opacity="0.5"
       d="m 234.645,229.084 c 0.839,0 1.519,-0.674 1.519,-1.506 0,-0.832 -0.68,-1.506 -1.519,-1.506 -0.839,0 -1.519,0.674 -1.519,1.506 0,0.832 0.68,1.506 1.519,1.506 z"
       fill="#4c5562"
       id="path71" />
    <path
       d="m 237.071,173.635 c 8.778,0 15.895,-7.058 15.895,-15.765 0,-8.707 -7.117,-15.765 -15.895,-15.765 -8.779,0 -15.896,7.058 -15.896,15.765 0,8.707 7.117,15.765 15.896,15.765 z"
       fill="#ffffff"
       id="path72" />
    <path
       d="m 237.07,160.009 c 1.192,0 2.158,-0.957 2.158,-2.139 0,-1.182 -0.966,-2.14 -2.158,-2.14 -1.191,0 -2.157,0.958 -2.157,2.14 0,1.182 0.966,2.139 2.157,2.139 z"
       fill="#4c5562"
       id="path73" />
    <path
       d="m 237.071,146.772 c 0.762,0 1.384,0.618 1.384,1.374 v 9.724 h -2.769 v -9.724 c 0,-0.756 0.623,-1.374 1.385,-1.374 z"
       fill="#4c5562"
       id="path74" />
    <path
       d="m 245.222,157.939 c 0,0.756 -0.622,1.373 -1.384,1.373 h -6.767 v -2.746 h 6.767 c 0.762,0 1.384,0.617 1.384,1.373 z"
       fill="#4c5562"
       id="path75" />
    <path
       d="m 237.07,171.149 c 7.395,0 13.389,-5.945 13.389,-13.279 0,-7.334 -5.994,-13.28 -13.389,-13.28 -7.394,0 -13.389,5.946 -13.389,13.28 0,7.334 5.995,13.279 13.389,13.279 z"
       stroke="#c1b89a"
       stroke-width="1.5"
       stroke-miterlimit="10"
       id="path76" />
    <path
       d="m 259.282,134.627 h -46.103 v 5.178 h 46.103 z"
       fill="#10664b"
       id="path77" />
    <path
       d="m 237.452,191.199 v -11.3 h -0.827 v 11.3 z"
       fill="#c1b89a"
       id="path78" />
    <path
       d="m 250.535,191.199 v -11.3 h -0.827 v 11.3 z"
       fill="#c1b89a"
       id="path79" />
    <path
       d="m 250.535,205.511 v -11.3 h -0.827 v 11.3 z"
       fill="#c1b89a"
       id="path80" />
    <path
       d="m 279.958,214.431 v -11.299 h -0.826 v 11.299 z"
       fill="#aa9f81"
       id="path81" />
    <path
       d="m 279.958,198.79 v -11.3 h -0.826 v 11.3 z"
       fill="#aa9f81"
       id="path82" />
    <path
       d="m 237.452,205.506 v -11.3 h -0.827 v 11.3 z"
       fill="#c1b89a"
       id="path83" />
    <path
       d="m 223.907,205.511 v -11.3 h -0.827 v 11.3 z"
       fill="#c1b89a"
       id="path84" />
    <path
       d="m 223.901,191.029 v -11.3 h -0.826 v 11.3 z"
       fill="#c1b89a"
       id="path85" />
    <path
       d="m 244.498,105.492 h -14.86 v 18.681 h 14.86 z"
       fill="#10664b"
       id="path86" />
    <path
       d="m 235.096,107.381 h -1.106 c -0.59,0 -1.068,0.474 -1.068,1.059 v 8.234 c 0,0.585 0.478,1.059 1.068,1.059 h 1.106 c 0.59,0 1.068,-0.474 1.068,-1.059 v -8.234 c 0,-0.585 -0.478,-1.059 -1.068,-1.059 z"
       fill="#4c5562"
       id="path87" />
    <path
       d="m 240.596,107.381 h -1.105 c -0.59,0 -1.068,0.474 -1.068,1.059 v 8.234 c 0,0.585 0.478,1.059 1.068,1.059 h 1.105 c 0.59,0 1.068,-0.474 1.068,-1.059 v -8.234 c 0,-0.585 -0.478,-1.059 -1.068,-1.059 z"
       fill="#4c5562"
       id="path88" />
    <path
       d="m 256.255,134.403 v 0.224 h -40.189 v -0.224 c 0,-11.001 9,-19.927 20.092,-19.927 11.092,0 20.097,8.926 20.097,19.927 z"
       fill="#108261"
       id="path89" />
    <path
       d="m 244.498,105.38 v 0.112 h -14.86 v -0.112 c 0,-5.5035 3.327,-9.9637 7.427,-9.9637 4.1,0 7.433,4.4602 7.433,9.9637 z"
       fill="#108261"
       id="path90" />
    <path
       opacity="0.05"
       d="m 278.346,112.471 h -15.064 c -1.179,0 -2.141,0.968 -2.141,2.153 v 10.859 l 9.673,8.023 9.672,-8.023 v -10.859 c 0,-1.185 -0.962,-2.153 -2.14,-2.153 z"
       fill="#4c5562"
       id="path91" />
    <path
       opacity="0.1"
       d="m 278.346,107.7 h -15.064 c -1.179,0 -2.141,0.967 -2.141,2.152 v 10.86 l 9.673,8.022 9.672,-8.022 v -10.86 c 0,-1.185 -0.962,-2.152 -2.14,-2.152 z"
       fill="#4c5562"
       id="path92" />
    <path
       d="m 278.346,103.699 h -15.064 c -1.179,0 -2.141,0.967 -2.141,2.152 v 10.86 l 9.673,8.022 9.672,-8.022 v -10.86 c 0,-1.185 -0.962,-2.152 -2.14,-2.152 z"
       fill="#4c5562"
       id="path93" />
    <path
       d="m 269.264,113.961 h -2.227 l -0.508,1.032 h -2.198 l 3.614,-6.83 h 2.415 l 1.265,6.83 h -2.209 z m -0.234,-1.613 -0.274,-1.898 -0.933,1.898 z"
       fill="url(#paint11_linear_1214_83305)"
       id="path94"
       style="fill:url(#paint11_linear_1214_83305)" />
    <path
       d="m 277.051,112.696 h -1.405 l -0.256,1.475 h -2.011 l 0.256,-1.475 h -1.406 l 0.339,-1.956 h 1.406 l 0.256,-1.486 h 2.011 l -0.256,1.486 h 1.405 z"
       fill="url(#paint12_linear_1214_83305)"
       id="path95"
       style="fill:url(#paint12_linear_1214_83305)" />
  </g>
  <path
     fill-rule="evenodd"
     clip-rule="evenodd"
     d="m 561.318,225.495 v 0 -1.993 h -2.4 v 1.985 c 0,0.003 -10e-4,0.005 -10e-4,0.008 0,0.273 0.538,0.495 1.201,0.495 0.663,0 1.2,-0.222 1.2,-0.495 z"
     fill="#7c451c"
     id="path96" />
  <g
     opacity="0.65"
     id="g99">
    <path
       d="m 302.091,235.452 h 1.415 v -2.83 h -1.415 z m -2.412,0 h 0.603 v -2.83 h -0.603 z m 1.809,0 h 0.603 v -2.83 h -0.603 z"
       fill="#ffffff"
       id="path97" />
    <path
       d="m 563.82,235.452 h 1.415 v -2.83 h -1.415 z m -256.928,0 h 2.792 v -2.83 h -2.792 z m 8.378,0 h 5.585 v -2.83 h -5.585 z m 11.171,0 h 5.585 v -2.83 h -5.585 z m 11.17,0 h 5.586 v -2.83 h -5.586 z m 11.171,0 h 5.586 v -2.83 h -5.586 z m 11.171,0 h 5.585 v -2.83 h -5.585 z m 11.171,0 h 5.585 v -2.83 h -5.585 z m 11.171,0 h 5.585 v -2.83 h -5.585 z m 11.17,0 h 5.586 v -2.83 h -5.586 z m 11.171,0 h 5.586 v -2.83 h -5.586 z m 11.171,0 h 5.585 v -2.83 h -5.585 z m 11.171,0 h 5.585 v -2.83 h -5.585 z m 11.171,0 h 5.585 v -2.83 h -5.585 z m 11.171,0 h 5.585 v -2.83 h -5.585 z m 11.17,0 h 5.586 v -2.83 h -5.586 z m 11.171,0 h 5.586 v -2.83 h -5.586 z m 11.171,0 h 5.585 v -2.83 h -5.585 z m 11.171,0 h 5.585 v -2.83 h -5.585 z m 11.171,0 h 5.585 v -2.83 h -5.585 z m 11.17,0 h 5.586 v -2.83 h -5.586 z m 11.171,0 h 5.586 v -2.83 h -5.586 z m 11.171,0 h 5.585 v -2.83 h -5.585 z m 11.171,0 h 5.585 v -2.83 h -5.585 z m 11.171,0 h 2.792 v -2.83 h -2.792 z"
       fill="#ffffff"
       id="path98" />
    <path
       d="m 568.633,235.453 h 1.415 v -2.83 h -1.415 z m -2.412,0 h 0.603 v -2.83 h -0.603 z m 1.809,0 h 0.603 v -2.83 h -0.603 z"
       fill="#ffffff"
       id="path99" />
  </g>
  <path
     d="m 531.925,79.2727 c 2.362,0 4.719,0 7.081,0 1.272,0 2.55,0 3.822,-0.011 0.958,-0.011 1.905,-0.1487 2.819,-0.446 1.063,-0.3414 2.054,-0.8314 2.951,-1.5031 0.87,-0.6497 1.625,-1.415 2.253,-2.3014 0.545,-0.7653 0.963,-1.5967 1.272,-2.4831 0.457,-1.3214 0.644,-2.6813 0.528,-4.0688 -0.077,-0.8699 -0.259,-1.7288 -0.562,-2.5601 -0.77,-2.1198 -2.119,-3.7825 -3.997,-5.0103 -0.964,-0.6276 -2.01,-1.0791 -3.133,-1.3434 -0.375,-0.0881 -0.755,-0.1431 -1.124,-0.2312 -0.082,-0.0166 -0.176,-0.0881 -0.214,-0.1597 -0.408,-0.7433 -0.859,-1.4535 -1.399,-2.1032 -1.233,-1.4921 -2.753,-2.6208 -4.526,-3.3916 -1.784,-0.7708 -3.656,-1.0901 -5.606,-1.002 -1.646,0.0771 -3.216,0.446 -4.702,1.1397 -1.476,0.6827 -2.775,1.6187 -3.888,2.8189 -1.101,1.1838 -1.955,2.5217 -2.533,4.0303 -0.214,0.5615 -0.363,1.1507 -0.523,1.7288 -0.049,0.1872 -0.143,0.2698 -0.33,0.2863 -1.746,0.1817 -3.254,0.9139 -4.554,2.0646 -1.2,1.0626 -2.043,2.384 -2.505,3.9201 -0.303,0.9966 -0.424,2.0262 -0.314,3.0613 0.137,1.2883 0.512,2.5106 1.206,3.6227 0.941,1.5196 2.241,2.6153 3.876,3.3035 1.057,0.446 2.181,0.6277 3.326,0.6277 2.098,0 4.201,0 6.299,0 1.487,0 2.979,0 4.466,0 z"
     fill="#ffffff"
     id="path100" />
  <path
     d="m 386.925,207.519 c 0,0.501 -4.389,5.984 -4.389,5.984 l 8.882,2.197 -4.488,-8.181 z"
     fill="#188165"
     id="path101" />
  <path
     d="m 373.49,211.362 h -3.508 v 2.918 h 3.508 z"
     fill="#7c451c"
     id="path102" />
  <path
     d="m 371.733,215.001 c 0.967,0 1.751,-0.323 1.751,-0.721 0,-0.399 -0.784,-0.722 -1.751,-0.722 -0.967,0 -1.751,0.323 -1.751,0.722 0,0.398 0.784,0.721 1.751,0.721 z"
     fill="#7c451c"
     id="path103" />
  <path
     d="m 375.939,196.606 c 0,0 0.749,-0.941 1.592,-2.026 l -2.786,-11.386 -1.884,-0.463 c 0,0 0.705,-0.88 1.344,-1.723 l -2.555,-10.455 -4.229,17.574 c 1.041,0.655 2.12,1.3 2.12,1.3 l -2.907,1.987 -2.192,9.101 c 1.289,0.485 2.313,0.854 2.313,0.854 l -3.332,3.375 -1.591,6.612 h 19.796 l -3.475,-14.205 -2.219,-0.55 z"
     fill="#1ea581"
     id="path104" />
  <path
     d="m 375.939,196.606 3.409,5.423 -1.189,-4.872 z"
     fill="#26b28a"
     id="path105" />
  <path
     d="m 366.761,201.369 -4.923,9.993 1.586,-6.618 z"
     fill="#26b28a"
     id="path106" />
  <path
     d="m 369.541,189.427 -5.099,11.088 2.192,-9.101 z"
     fill="#26b28a"
     id="path107" />
  <path
     d="m 372.862,182.732 3.271,6.15 -1.388,-5.688 z"
     fill="#26b28a"
     id="path108" />
  <path
     d="m 415.74,200.224 h -3.094 v 2.571 h 3.094 z"
     fill="#7c451c"
     id="path109" />
  <path
     d="m 414.193,203.433 c 0.854,0 1.547,-0.286 1.547,-0.639 0,-0.352 -0.693,-0.638 -1.547,-0.638 -0.855,0 -1.547,0.286 -1.547,0.638 0,0.353 0.692,0.639 1.547,0.639 z"
     fill="#7c451c"
     id="path110" />
  <path
     d="m 417.898,187.213 c 0,0 0.661,-0.826 1.404,-1.784 l -2.456,-10.037 -1.657,-0.407 c 0,0 0.622,-0.776 1.184,-1.52 l -2.252,-9.222 -3.728,15.493 c 0.919,0.579 1.866,1.146 1.866,1.146 l -2.566,1.75 -1.932,8.028 c 1.134,0.429 2.043,0.754 2.043,0.754 l -2.941,2.979 -1.404,5.83 h 17.455 l -3.061,-12.52 -1.961,-0.484 z"
     fill="#1ea581"
     id="path111" />
  <path
     d="m 417.898,187.213 3.012,4.785 -1.052,-4.3 z"
     fill="#26b28a"
     id="path112" />
  <path
     d="m 409.809,191.414 -4.344,8.81 1.404,-5.831 z"
     fill="#26b28a"
     id="path113" />
  <path
     d="m 412.26,180.881 -4.493,9.779 1.927,-8.028 z"
     fill="#26b28a"
     id="path114" />
  <path
     d="m 415.189,174.979 2.885,5.424 -1.228,-5.011 z"
     fill="#26b28a"
     id="path115" />
  <path
     d="m 354.151,203.395 h -2.164 v 1.8 h 2.164 z"
     fill="#7c451c"
     id="path116" />
  <path
     d="m 353.071,205.641 c 0.596,0 1.08,-0.2 1.08,-0.446 0,-0.246 -0.484,-0.446 -1.08,-0.446 -0.596,0 -1.079,0.2 -1.079,0.446 0,0.246 0.483,0.446 1.079,0.446 z"
     fill="#7c451c"
     id="path117" />
  <path
     d="m 355.665,194.294 c 0,0 0.462,-0.578 0.98,-1.25 l -1.718,-7.025 -1.162,-0.287 c 0,0 0.435,-0.545 0.832,-1.062 l -1.575,-6.453 -2.605,10.841 c 0.644,0.407 1.305,0.804 1.305,0.804 l -1.795,1.228 -1.349,5.615 c 0.793,0.298 1.426,0.529 1.426,0.529 l -2.054,2.081 -0.98,4.08 h 12.208 l -2.142,-8.76 -1.371,-0.336 z"
     fill="#1ea581"
     id="path118" />
  <path
     d="m 355.665,194.293 2.103,3.348 -0.737,-3.006 z"
     fill="#26b28a"
     id="path119" />
  <path
     d="m 349.999,197.233 -3.034,6.161 0.98,-4.079 z"
     fill="#26b28a"
     id="path120" />
  <path
     d="m 351.716,189.861 -3.144,6.844 1.349,-5.616 z"
     fill="#26b28a"
     id="path121" />
  <path
     d="m 353.765,185.738 2.021,3.793 -0.859,-3.507 z"
     fill="#26b28a"
     id="path122" />
  <path
     d="m 388.241,201.33 h -2.164 v 1.8 h 2.164 z"
     fill="#7c451c"
     id="path123" />
  <path
     d="m 387.162,203.571 c 0.596,0 1.079,-0.2 1.079,-0.446 0,-0.246 -0.483,-0.446 -1.079,-0.446 -0.596,0 -1.079,0.2 -1.079,0.446 0,0.246 0.483,0.446 1.079,0.446 z"
     fill="#7c451c"
     id="path124" />
  <path
     d="m 389.755,192.229 c 0,0 0.463,-0.578 0.98,-1.25 l -1.718,-7.025 -1.162,-0.287 c 0,0 0.435,-0.545 0.832,-1.062 l -1.575,-6.453 -2.604,10.841 c 0.644,0.407 1.305,0.804 1.305,0.804 l -1.796,1.227 -1.349,5.616 c 0.793,0.298 1.427,0.529 1.427,0.529 l -2.054,2.081 -0.98,4.08 h 12.207 l -2.142,-8.76 -1.371,-0.336 z"
     fill="#1ea581"
     id="path125" />
  <path
     d="m 389.755,192.229 2.104,3.342 -0.738,-3.006 z"
     fill="#26b28a"
     id="path126" />
  <path
     d="m 384.095,195.164 -3.04,6.166 0.98,-4.079 z"
     fill="#26b28a"
     id="path127" />
  <path
     d="m 385.807,187.797 -3.144,6.844 1.349,-5.616 z"
     fill="#26b28a"
     id="path128" />
  <path
     d="m 387.855,183.667 2.021,3.794 -0.859,-3.507 z"
     fill="#26b28a"
     id="path129" />
  <path
     d="m 396.693,211.764 h -2.367 v 1.971 h 2.367 z"
     fill="#7c451c"
     id="path130" />
  <path
     d="m 395.51,214.224 c 0.653,0 1.183,-0.219 1.183,-0.49 0,-0.27 -0.53,-0.49 -1.183,-0.49 -0.654,0 -1.184,0.22 -1.184,0.49 0,0.271 0.53,0.49 1.184,0.49 z"
     fill="#7c451c"
     id="path131" />
  <path
     d="m 398.351,201.798 c 0,0 0.506,-0.633 1.073,-1.371 l -1.883,-7.691 -1.272,-0.314 c 0,0 0.479,-0.595 0.909,-1.167 l -1.729,-7.064 -2.858,11.87 c 0.705,0.446 1.432,0.881 1.432,0.881 l -1.966,1.343 -1.481,6.15 c 0.87,0.325 1.563,0.579 1.563,0.579 l -2.252,2.279 -1.074,4.465 h 13.376 l -2.346,-9.596 -1.498,-0.369 z"
     fill="#1ea581"
     id="path132" />
  <path
     d="m 398.351,201.798 2.307,3.661 -0.809,-3.287 z"
     fill="#26b28a"
     id="path133" />
  <path
     d="m 392.151,205.019 -3.326,6.744 1.073,-4.465 z"
     fill="#26b28a"
     id="path134" />
  <path
     d="m 394.034,196.947 -3.447,7.494 1.481,-6.15 z"
     fill="#26b28a"
     id="path135" />
  <path
     d="m 396.274,192.427 2.208,4.152 -0.936,-3.838 z"
     fill="#26b28a"
     id="path136" />
  <path
     opacity="0.6"
     d="m 403.923,53.5659 c -3.678,0 -7.357,0 -11.029,0 -1.988,0 -3.971,0.0055 -5.958,-0.0165 -1.498,-0.0166 -2.968,-0.2368 -4.394,-0.6938 -1.658,-0.534 -3.2,-1.2938 -4.604,-2.3399 -1.36,-1.0131 -2.533,-2.2023 -3.513,-3.5843 -0.848,-1.1947 -1.503,-2.4886 -1.988,-3.8705 -0.716,-2.0537 -1.007,-4.1734 -0.82,-6.3372 0.115,-1.3599 0.402,-2.6923 0.875,-3.9862 1.201,-3.3034 3.299,-5.8911 6.223,-7.8071 1.497,-0.9801 3.133,-1.6793 4.878,-2.0977 0.578,-0.1377 1.173,-0.2258 1.751,-0.3634 0.127,-0.0276 0.276,-0.1377 0.336,-0.2533 0.633,-1.1562 1.338,-2.2629 2.181,-3.2759 1.921,-2.329 4.284,-4.0853 7.053,-5.2801 2.781,-1.2002 5.7,-1.7012 8.734,-1.5581 2.56,0.1211 5.01,0.6992 7.323,1.7729 2.296,1.0626 4.323,2.5271 6.057,4.3881 1.718,1.8444 3.045,3.9311 3.943,6.2821 0.336,0.8754 0.567,1.7893 0.815,2.6923 0.082,0.2918 0.22,0.4184 0.512,0.4459 2.72,0.2863 5.066,1.426 7.092,3.2154 1.872,1.6572 3.183,3.7109 3.904,6.1059 0.468,1.5526 0.661,3.1603 0.485,4.7735 -0.215,2.0096 -0.799,3.9091 -1.878,5.6489 -1.465,2.3675 -3.491,4.0743 -6.041,5.1479 -1.651,0.6993 -3.397,0.9746 -5.187,0.9801 -3.27,0.0055 -6.541,0 -9.818,0 -2.318,0 -4.641,0 -6.96,0 z"
     fill="#ffffff"
     id="path137" />
  <path
     opacity="0.4"
     d="m 290.001,67.281 c -1.751,0 -3.497,0 -5.248,0 -0.941,0 -1.888,0 -2.83,-0.0055 -0.71,-0.0055 -1.41,-0.1101 -2.087,-0.3304 -0.787,-0.2532 -1.52,-0.6166 -2.186,-1.1121 -0.644,-0.479 -1.206,-1.0461 -1.668,-1.7068 -0.402,-0.5671 -0.716,-1.1837 -0.942,-1.8389 -0.341,-0.9746 -0.479,-1.9821 -0.391,-3.0117 0.055,-0.6442 0.193,-1.2828 0.413,-1.894 0.573,-1.5691 1.569,-2.8024 2.957,-3.7109 0.71,-0.468 1.487,-0.7983 2.318,-0.9965 0.275,-0.0661 0.556,-0.1101 0.832,-0.1707 0.06,-0.0165 0.132,-0.0661 0.159,-0.1211 0.303,-0.5506 0.639,-1.0736 1.035,-1.5582 0.915,-1.1066 2.038,-1.9435 3.354,-2.5106 1.321,-0.5726 2.709,-0.8093 4.152,-0.7433 1.217,0.0551 2.384,0.3304 3.485,0.8424 1.091,0.5066 2.054,1.2003 2.88,2.0867 0.815,0.8754 1.448,1.872 1.872,2.9841 0.16,0.4185 0.27,0.8534 0.386,1.2829 0.038,0.1376 0.104,0.1982 0.242,0.2147 1.294,0.1377 2.412,0.6772 3.375,1.5306 0.893,0.7873 1.515,1.7619 1.856,2.9071 0.226,0.7377 0.314,1.503 0.231,2.2683 -0.104,0.9525 -0.38,1.8555 -0.892,2.6869 -0.693,1.1286 -1.657,1.938 -2.874,2.45 -0.787,0.3304 -1.613,0.4625 -2.467,0.468 -1.558,0 -3.111,0 -4.669,0 -1.102,0 -2.208,0 -3.31,0 z"
     fill="#ffffff"
     id="path138" />
  <path
     opacity="0.4"
     d="m 41.789,122.01 c -1.7511,0 -3.4966,0 -5.2477,0 -0.9415,0 -1.8887,0 -2.8302,-0.005 -0.7104,-0.006 -1.4097,-0.11 -2.087,-0.33 -0.7874,-0.254 -1.5197,-0.617 -2.186,-1.113 -0.6443,-0.479 -1.2059,-1.046 -1.6685,-1.706 -0.4019,-0.567 -0.7158,-1.184 -0.9416,-1.839 -0.3414,-0.975 -0.479,-1.982 -0.3909,-3.012 0.055,-0.644 0.1927,-1.283 0.413,-1.894 0.5726,-1.569 1.5693,-2.802 2.9569,-3.711 0.7103,-0.468 1.4867,-0.798 2.3182,-0.996 0.2753,-0.066 0.5562,-0.11 0.8315,-0.171 0.0605,-0.017 0.1321,-0.066 0.1597,-0.121 0.3028,-0.551 0.6387,-1.074 1.0352,-1.558 0.914,-1.107 2.0373,-1.944 3.3534,-2.511 1.3215,-0.572 2.7091,-0.809 4.1518,-0.743 1.2169,0.055 2.3843,0.33 3.4856,0.842 1.0902,0.507 2.0538,1.2 2.8798,2.087 0.815,0.875 1.4482,1.872 1.8722,2.984 0.1597,0.418 0.2698,0.853 0.3854,1.283 0.0386,0.138 0.1047,0.198 0.2423,0.215 1.294,0.137 2.4118,0.677 3.3755,1.53 0.892,0.788 1.5142,1.762 1.8556,2.907 0.2258,0.738 0.3139,1.503 0.2313,2.269 -0.1046,0.952 -0.38,1.855 -0.8921,2.686 -0.6938,1.129 -1.6574,1.938 -2.8743,2.451 -0.7874,0.33 -1.6134,0.462 -2.4669,0.468 -1.5583,0 -3.1111,0 -4.6694,0 -1.1013,0 -2.2081,0 -3.3094,0 z"
     fill="#ffffff"
     id="path139" />
  <path
     opacity="0.6"
     d="m 99.4095,40.0263 c -3.2819,0 -6.5637,0 -9.8455,0 -1.7731,0 -3.5461,0 -5.3192,-0.0165 -1.3325,-0.0165 -2.6486,-0.2092 -3.9205,-0.6166 -1.4758,-0.4735 -2.8579,-1.1562 -4.1078,-2.0867 -1.2114,-0.903 -2.2577,-1.9656 -3.1332,-3.1989 -0.7544,-1.0681 -1.3435,-2.2188 -1.773,-3.4576 -0.6388,-1.8334 -0.8976,-3.7274 -0.7324,-5.6544 0.1046,-1.2113 0.3579,-2.406 0.7819,-3.5568 1.0738,-2.951 2.9459,-5.258 5.556,-6.9648 1.338,-0.8754 2.7972,-1.4975 4.3556,-1.8719 0.5176,-0.1211 1.0462,-0.2037 1.5638,-0.3249 0.1156,-0.0275 0.2478,-0.1211 0.3028,-0.2257 0.5672,-1.0296 1.1949,-2.0206 1.9493,-2.92906 1.718,-2.08118 3.827,-3.64482 6.2938,-4.71294 2.4834,-1.07363 5.0879,-1.5196 7.7971,-1.39296 2.2848,0.10461 4.4708,0.62215 6.5358,1.58015 2.049,0.9525 3.86,2.25186 5.408,3.92011 1.53,1.6462 2.72,3.5072 3.518,5.6049 0.298,0.7818 0.507,1.5967 0.727,2.406 0.072,0.2588 0.198,0.3744 0.457,0.4019 2.428,0.2533 4.526,1.2719 6.332,2.8685 1.674,1.4811 2.842,3.3145 3.486,5.4507 0.418,1.3875 0.589,2.819 0.435,4.2615 -0.193,1.7949 -0.716,3.4907 -1.674,5.0433 -1.305,2.1142 -3.117,3.6338 -5.391,4.5973 -1.475,0.6222 -3.034,0.8699 -4.625,0.8754 -2.918,0.0055 -5.842,0 -8.761,0 -2.07,0 -4.141,0 -6.211,0 z"
     fill="#ffffff"
     id="path140" />
  <path
     opacity="0.13"
     d="m 139.406,242.733 h -4.658 v -59.809 l 4.658,3.964 z"
     fill="#4c5562"
     id="path141" />
  <path
     opacity="0.13"
     d="m 226.338,136.668 h -8.961 v 107.64 h 8.961 z"
     fill="#4c5562"
     id="path142" />
  <path
     d="m 18.5346,243.306 h -3.0781 v 2.56 h 3.0781 z"
     fill="#7c451c"
     id="path143" />
  <path
     d="m 16.9928,246.499 c 0.8485,0 1.5363,-0.283 1.5363,-0.633 0,-0.35 -0.6878,-0.633 -1.5363,-0.633 -0.8484,0 -1.5363,0.283 -1.5363,0.633 0,0.35 0.6879,0.633 1.5363,0.633 z"
     fill="#7c451c"
     id="path144" />
  <path
     d="m 20.6825,230.362 c 0,0 0.6607,-0.826 1.3931,-1.778 l -2.4449,-9.988 -1.6519,-0.407 c 0,0 0.6167,-0.777 1.1784,-1.514 l -2.2411,-9.173 -3.7058,15.416 c 0.914,0.578 1.8611,1.14 1.8611,1.14 l -2.5549,1.745 -1.9218,7.984 c 1.1288,0.423 2.0319,0.748 2.0319,0.748 L 9.70269,237.497 8.30957,243.3 H 25.6713 l -3.0451,-12.459 -1.9492,-0.479 z"
     fill="#188165"
     id="path145" />
  <path
     d="m 20.6821,230.362 2.99,4.757 -1.0462,-4.273 z"
     fill="#1ea581"
     id="path146" />
  <path
     d="m 12.6266,234.541 -4.31703,8.765 1.39863,-5.803 z"
     fill="#1ea581"
     id="path147" />
  <path
     d="m 15.0718,224.063 -4.4712,9.729 1.9162,-7.983 z"
     fill="#1ea581"
     id="path148" />
  <path
     d="m 17.9844,218.189 2.8688,5.401 -1.2169,-4.994 z"
     fill="#1ea581"
     id="path149" />
  <path
     d="m 546.451,222.147 h -3.959 v 3.292 h 3.959 z"
     fill="#7c451c"
     id="path150" />
  <path
     d="m 544.474,226.255 c 1.092,0 1.977,-0.365 1.977,-0.815 0,-0.45 -0.885,-0.815 -1.977,-0.815 -1.091,0 -1.976,0.365 -1.976,0.815 0,0.45 0.885,0.815 1.976,0.815 z"
     fill="#7c451c"
     id="path151" />
  <path
     d="m 549.215,205.498 c 0,0 0.848,-1.063 1.795,-2.285 l -3.144,-12.851 -2.12,-0.523 c 0,0 0.799,-0.996 1.52,-1.949 l -2.885,-11.804 -4.769,19.837 c 1.178,0.744 2.39,1.47 2.39,1.47 l -3.282,2.247 -2.472,10.273 c 1.453,0.545 2.615,0.964 2.615,0.964 l -3.761,3.81 -1.795,7.466 h 22.345 l -3.92,-16.033 -2.506,-0.617 z"
     fill="#188165"
     id="path152" />
  <path
     d="m 549.215,205.498 3.855,6.116 -1.344,-5.5 z"
     fill="#1ea581"
     id="path153" />
  <path
     d="m 538.858,210.872 -5.556,11.275 1.795,-7.465 z"
     fill="#1ea581"
     id="path154" />
  <path
     d="m 542.002,197.388 -5.754,12.52 2.467,-10.274 z"
     fill="#1ea581"
     id="path155" />
  <path
     d="m 545.747,189.834 3.694,6.943 -1.569,-6.42 z"
     fill="#1ea581"
     id="path156" />
  <path
     d="m 299.224,151.69 h -2.814 v 2.34 h 2.814 z"
     fill="#7c451c"
     id="path157" />
  <path
     d="m 297.82,154.608 c 0.778,0 1.409,-0.258 1.409,-0.578 0,-0.319 -0.631,-0.578 -1.409,-0.578 -0.779,0 -1.41,0.259 -1.41,0.578 0,0.32 0.631,0.578 1.41,0.578 z"
     fill="#7c451c"
     id="path158" />
  <path
     d="m 301.19,139.853 c 0,0 0.601,-0.755 1.278,-1.625 l -2.236,-9.134 -1.509,-0.374 c 0,0 0.568,-0.71 1.08,-1.382 l -2.054,-8.391 -3.392,14.101 c 0.837,0.528 1.701,1.046 1.701,1.046 l -2.334,1.596 -1.757,7.301 c 1.03,0.391 1.856,0.688 1.856,0.688 l -2.676,2.709 -1.278,5.308 h 15.881 l -2.787,-11.397 -1.778,-0.441 z"
     fill="#188165"
     id="path159" />
  <path
     d="m 301.19,139.852 2.737,4.35 -0.952,-3.909 z"
     fill="#1ea581"
     id="path160" />
  <path
     d="m 293.828,143.674 -3.953,8.016 1.277,-5.307 z"
     fill="#1ea581"
     id="path161" />
  <path
     d="m 296.058,134.093 -4.091,8.898 1.756,-7.307 z"
     fill="#1ea581"
     id="path162" />
  <path
     d="m 298.723,128.72 2.627,4.939 -1.118,-4.564 z"
     fill="#1ea581"
     id="path163" />
  <path
     d="m 289.07,162.173 h -2.048 v 1.701 h 2.048 z"
     fill="#7c451c"
     id="path164" />
  <path
     d="m 288.046,164.298 c 0.566,0 1.024,-0.19 1.024,-0.424 0,-0.234 -0.458,-0.424 -1.024,-0.424 -0.565,0 -1.024,0.19 -1.024,0.424 0,0.234 0.459,0.424 1.024,0.424 z"
     fill="#7c451c"
     id="path165" />
  <path
     d="m 290.502,153.556 c 0,0 0.441,-0.55 0.931,-1.183 l -1.624,-6.651 -1.096,-0.27 c 0,0 0.413,-0.518 0.787,-1.008 l -1.492,-6.106 -2.467,10.263 c 0.611,0.386 1.239,0.76 1.239,0.76 l -1.701,1.162 -1.278,5.318 c 0.749,0.281 1.355,0.501 1.355,0.501 l -1.944,1.971 -0.931,3.865 h 11.558 l -2.026,-8.297 -1.294,-0.319 z"
     fill="#188165"
     id="path166" />
  <path
     d="m 290.502,153.556 1.993,3.166 -0.699,-2.846 z"
     fill="#1ea581"
     id="path167" />
  <path
     d="m 285.139,156.337 -2.874,5.836 0.93,-3.865 z"
     fill="#1ea581"
     id="path168" />
  <path
     d="m 286.769,149.361 -2.979,6.475 1.277,-5.313 z"
     fill="#1ea581"
     id="path169" />
  <path
     d="m 288.707,145.452 1.911,3.59 -0.815,-3.32 z"
     fill="#1ea581"
     id="path170" />
  <path
     d="m 317.021,156.48 h -1.812 v 1.509 h 1.812 z"
     fill="#7c451c"
     id="path171" />
  <path
     d="m 316.118,158.357 c 0.502,0 0.909,-0.167 0.909,-0.374 0,-0.207 -0.407,-0.374 -0.909,-0.374 -0.502,0 -0.909,0.167 -0.909,0.374 0,0.207 0.407,0.374 0.909,0.374 z"
     fill="#7c451c"
     id="path172" />
  <path
     d="m 318.287,148.854 c 0,0 0.391,-0.484 0.821,-1.046 l -1.437,-5.885 -0.969,-0.243 c 0,0 0.363,-0.457 0.693,-0.892 l -1.321,-5.401 -2.186,9.079 c 0.539,0.342 1.096,0.672 1.096,0.672 l -1.504,1.03 -1.128,4.701 c 0.666,0.248 1.194,0.441 1.194,0.441 l -1.723,1.745 -0.821,3.419 h 10.226 l -1.795,-7.339 z"
     fill="#188165"
     id="path173" />
  <path
     d="m 318.288,148.855 1.762,2.802 -0.612,-2.516 z"
     fill="#1ea581"
     id="path174" />
  <path
     d="m 313.546,151.316 -2.544,5.164 0.821,-3.419 z"
     fill="#1ea581"
     id="path175" />
  <path
     d="m 314.984,145.144 -2.632,5.731 1.128,-4.702 z"
     fill="#1ea581"
     id="path176" />
  <path
     d="m 316.702,141.686 1.69,3.177 -0.721,-2.935 z"
     fill="#1ea581"
     id="path177" />
  <path
     opacity="0.2"
     d="m 427.436,138.041 c -6.503,-9.827 -12.615,-20.09 -22.973,-26.312 -11.624,-6.981 -24.212,-11.342 -37.901,-11.342 -0.33,0 -0.66,0.011 -0.991,0.017 -0.27,0 -0.545,-0.017 -0.815,-0.017 -7.389,0 -14.823,1.812 -21.535,5.088 37.113,-4.691 65.526,4.575 84.215,32.572 z"
     fill="#ffffff"
     id="path178" />
  <path
     opacity="0.1"
     d="m 368.264,151.161 c 7.4,-2.097 15.027,-3.143 22.284,-3.143 23.105,0 43.875,10.07 58.247,26.102 -16.178,-14.243 -37.493,-25.321 -80.531,-22.959 z"
     fill="#ffffff"
     id="path179" />
  <path
     opacity="0.13"
     d="M 524.97,225.11 H 298.415 v -1.316 h 225.806 c 0.331,0.715 0.623,1.294 0.755,1.316 z"
     fill="#4c5562"
     id="path180" />
  <path
     d="m 464.038,202.156 c 5.292,0 9.581,-1.777 9.581,-3.97 0,-2.192 -4.289,-3.969 -9.581,-3.969 -5.291,0 -9.581,1.777 -9.581,3.969 0,2.193 4.29,3.97 9.581,3.97 z"
     fill="#188165"
     id="path181" />
  <path
     d="m 462.092,130.62 c 1.805,-0.587 0.577,-9.337 -2.742,-19.545 -3.319,-10.208 -7.473,-18.0078 -9.278,-17.4212 -1.804,0.5867 -0.577,9.3372 2.742,19.5452 3.32,10.208 7.473,18.008 9.278,17.421 z"
     fill="#dce7ea"
     id="path182" />
  <path
     d="m 505.156,146.768 c 0.545,-1.817 -7.351,-5.787 -17.635,-8.866 -10.284,-3.079 -19.062,-4.102 -19.606,-2.284 -0.545,1.818 7.351,5.787 17.635,8.866 10.284,3.079 19.062,4.102 19.606,2.284 z"
     fill="#dce7ea"
     id="path183" />
  <path
     d="m 451.66,155.459 c 6.506,-8.538 10.558,-16.391 9.048,-17.541 -1.509,-1.15 -8.007,4.839 -14.514,13.376 -6.507,8.537 -10.558,16.391 -9.049,17.541 1.509,1.15 8.008,-4.839 14.515,-13.376 z"
     fill="#dce7ea"
     id="path184" />
  <path
     d="m 469.593,196.826 c 0,0 0,-0.006 0,-0.011 0,-0.011 0,-0.022 0,-0.028 l -3.727,-57.799 -1.95,1.459 -1.949,-1.459 -3.728,57.799 c 0,0 0,0.022 0,0.028 0,0 0,0.005 0,0.011 v 0.022 c 0.044,1.206 2.566,2.18 5.672,2.18 3.105,0 5.627,-0.974 5.671,-2.18 v -0.022 z"
     fill="#ffffff"
     id="path185" />
  <path
     d="m 463.917,140.535 c 3.199,0 5.792,-2.593 5.792,-5.792 0,-3.199 -2.593,-5.792 -5.792,-5.792 -3.199,0 -5.793,2.593 -5.793,5.792 0,3.199 2.594,5.792 5.793,5.792 z"
     fill="#ffffff"
     id="path186" />
  <path
     d="m 463.917,137.408 c 1.471,0 2.665,-1.193 2.665,-2.665 0,-1.472 -1.194,-2.665 -2.665,-2.665 -1.472,0 -2.666,1.193 -2.666,2.665 0,1.472 1.194,2.665 2.666,2.665 z"
     fill="#57cbe1"
     id="path187" />
  <path
     d="m 466.549,149.587 c -0.672,0.137 -1.482,0.225 -2.429,0.225 -1.068,0 -2.026,-0.121 -2.825,-0.28 l 0.116,-1.872 c 0.738,0.165 1.663,0.297 2.709,0.297 0.942,0 1.713,-0.105 2.307,-0.242 z"
     fill="#ea4b6d"
     id="path188" />
  <path
     d="m 466.741,152.593 c -0.71,0.154 -1.58,0.259 -2.621,0.259 -1.156,0 -2.186,-0.143 -3.023,-0.32 l 0.121,-1.872 c 0.766,0.182 1.762,0.342 2.902,0.342 1.052,0 1.883,-0.127 2.5,-0.281 z"
     fill="#ea4b6d"
     id="path189" />
  <path
     d="m 424.677,160.023 c 3.71,0 6.718,-1.245 6.718,-2.78 0,-1.536 -3.008,-2.781 -6.718,-2.781 -3.71,0 -6.718,1.245 -6.718,2.781 0,1.535 3.008,2.78 6.718,2.78 z"
     fill="#188165"
     id="path190" />
  <path
     d="m 433.522,98.1147 c 2.877,-6.9578 4.211,-13.0107 2.98,-13.5195 -1.231,-0.5088 -4.561,4.7191 -7.438,11.6769 -2.877,6.9579 -4.211,13.0109 -2.98,13.5199 1.231,0.508 4.561,-4.719 7.438,-11.6773 z"
     fill="#dce7ea"
     id="path191" />
  <path
     d="m 441.689,137.952 c 1.118,-0.723 -1.288,-6.435 -5.374,-12.758 -4.087,-6.324 -8.307,-10.864 -9.426,-10.141 -1.118,0.722 1.288,6.435 5.374,12.758 4.087,6.324 8.307,10.864 9.426,10.141 z"
     fill="#dce7ea"
     id="path192" />
  <path
     d="m 409.187,118.314 c 7.359,-1.594 13.097,-3.941 12.815,-5.243 -0.282,-1.301 -6.477,-1.065 -13.836,0.529 -7.359,1.593 -13.096,3.941 -12.814,5.242 0.282,1.302 6.476,1.065 13.835,-0.528 z"
     fill="#dce7ea"
     id="path193" />
  <path
     d="m 428.576,156.284 c 0,0 0,0 0,-0.005 0,-0.006 0,-0.017 0,-0.022 l -2.616,-40.539 -1.366,1.024 -1.365,-1.024 -2.616,40.539 c 0,0 0,0.016 0,0.022 0,0 0,0 0,0.005 v 0.017 c 0.028,0.848 1.801,1.53 3.981,1.53 2.181,0 3.948,-0.682 3.982,-1.53 z"
     fill="#ffffff"
     id="path194" />
  <path
     d="m 424.594,116.803 c 2.245,0 4.064,-1.82 4.064,-4.064 0,-2.244 -1.819,-4.063 -4.064,-4.063 -2.244,0 -4.063,1.819 -4.063,4.063 0,2.244 1.819,4.064 4.063,4.064 z"
     fill="#ffffff"
     id="path195" />
  <path
     d="m 424.594,114.611 c 1.034,0 1.873,-0.838 1.873,-1.872 0,-1.034 -0.839,-1.872 -1.873,-1.872 -1.034,0 -1.872,0.838 -1.872,1.872 0,1.034 0.838,1.872 1.872,1.872 z"
     fill="#57cbe1"
     id="path196" />
  <path
     d="m 426.356,121.719 c -0.451,0.094 -0.991,0.149 -1.624,0.149 -0.716,0 -1.355,-0.083 -1.889,-0.188 l 0.077,-1.249 c 0.496,0.11 1.113,0.198 1.812,0.198 0.628,0 1.145,-0.072 1.542,-0.16 z"
     fill="#ea4b6d"
     id="path197" />
  <path
     d="m 426.483,123.729 c -0.474,0.104 -1.057,0.17 -1.751,0.17 -0.771,0 -1.465,-0.093 -2.021,-0.214 l 0.083,-1.25 c 0.512,0.121 1.178,0.226 1.938,0.226 0.705,0 1.261,-0.083 1.674,-0.188 l 0.082,1.25 z"
     fill="#ea4b6d"
     id="path198" />
  <path
     d="m 464.742,214.814 c -0.331,0 -0.661,0.027 -0.98,0.088 -0.562,-3.535 -3.172,-6.205 -6.311,-6.205 -0.148,0 -0.292,0.005 -0.435,0.016 -0.143,-0.011 -0.286,-0.016 -0.435,-0.016 -3.138,0 -5.748,2.67 -6.31,6.205 -0.319,-0.061 -0.644,-0.088 -0.98,-0.088 -3.552,0 -6.426,3.419 -6.426,7.636 0,0.43 0.088,1.261 0.088,1.261 h 28.127 c 0,0 0.088,-0.831 0.088,-1.261 0,-4.217 -2.875,-7.636 -6.426,-7.636 z"
     fill="#1ea581"
     id="path199" />
  <path
     d="m 465.254,219.669 c -0.193,0 -0.386,0.011 -0.573,0.039 -0.33,-1.608 -1.861,-2.824 -3.706,-2.824 -0.022,0 -0.038,0 -0.06,0 -0.022,0 -0.039,0 -0.061,0 -1.839,0 -3.375,1.216 -3.706,2.824 -0.187,-0.028 -0.38,-0.039 -0.572,-0.039 -2.087,0 -3.772,1.559 -3.772,3.48 0,0.198 0.049,0.573 0.049,0.573 h 16.123 c 0,0 0.05,-0.38 0.05,-0.573 0,-1.921 -1.691,-3.48 -3.772,-3.48 z"
     fill="#157058"
     id="path200" />
  <path
     d="m 324.499,218.491 c 0.193,0 0.385,0.017 0.573,0.055 0.33,-2.075 1.861,-3.639 3.705,-3.639 0.089,0 0.171,0 0.254,0.011 0.082,-0.006 0.17,-0.011 0.253,-0.011 1.839,0 3.375,1.569 3.706,3.639 0.187,-0.033 0.38,-0.055 0.572,-0.055 2.087,0 3.772,2.01 3.772,4.482 0,0.253 -0.049,0.743 -0.049,0.743 h -16.508 c 0,0 -0.05,-0.49 -0.05,-0.743 0,-2.478 1.691,-4.482 3.772,-4.482 z"
     fill="#1ea581"
     id="path201" />
  <path
     d="m 215.329,90.0476 h -73.874 c -1.132,0 -2.049,0.917 -2.049,2.0482 V 249.275 c 0,1.131 0.917,2.048 2.049,2.048 h 73.874 c 1.131,0 2.048,-0.917 2.048,-2.048 V 92.0958 c 0,-1.1312 -0.917,-2.0482 -2.048,-2.0482 z"
     fill="#ffffff"
     id="path202" />
  <path
     d="m 182.417,72.5994 h -8.546 v 15.6253 h 8.546 z"
     fill="#4c5562"
     id="path203" />
  <path
     d="M 210.978,76.8059 H 145.81 c -1.299,0 -2.015,-0.9966 -1.613,-2.1913 l 5.264,-15.6805 c 0.281,-0.8424 1.365,-1.5086 2.417,-1.5086 h 53.032 c 1.058,0 2.137,0.6717 2.418,1.5086 l 5.264,15.6805 c 0.402,1.2002 -0.314,2.1913 -1.614,2.1913 z"
     fill="#2f5566"
     id="path204" />
  <path
     d="M 206.072,74.6091 H 150.71 c -1.101,0 -1.784,-0.7322 -1.525,-1.6242 l 3.513,-12.1347 c 0.198,-0.6772 1.118,-1.2223 2.06,-1.2223 h 47.272 c 0.942,0 1.861,0.5396 2.06,1.2223 l 3.513,12.1347 c 0.258,0.892 -0.424,1.6242 -1.526,1.6242 z"
     fill="#2e7d99"
     id="path205" />
  <path
     d="m 151.112,66.3286 h 54.47"
     stroke="#2f5566"
     stroke-width="2.32"
     stroke-miterlimit="10"
     id="path206" />
  <path
     d="M 178.391,59.6333 V 74.609"
     stroke="#2f5566"
     stroke-width="2.32"
     stroke-miterlimit="10"
     id="path207" />
  <path
     d="M 169.421,59.6333 167.775,74.609"
     stroke="#2f5566"
     stroke-width="2.32"
     stroke-miterlimit="10"
     id="path208" />
  <path
     d="M 161.046,59.6333 158.453,74.609"
     stroke="#2f5566"
     stroke-width="2.32"
     stroke-miterlimit="10"
     id="path209" />
  <path
     d="m 186.898,59.6333 1.647,14.9757"
     stroke="#2f5566"
     stroke-width="2.32"
     stroke-miterlimit="10"
     id="path210" />
  <path
     d="m 195.279,59.6333 2.588,14.9757"
     stroke="#2f5566"
     stroke-width="2.32"
     stroke-miterlimit="10"
     id="path211" />
  <path
     d="m 186.607,79.5757 h -15.925 c -0.48,0 -0.87,0.3895 -0.87,0.8699 v 5.6985 c 0,0.4804 0.39,0.8699 0.87,0.8699 h 15.925 c 0.48,0 0.87,-0.3895 0.87,-0.8699 v -5.6985 c 0,-0.4804 -0.39,-0.8699 -0.87,-0.8699 z"
     fill="#b2b2b2"
     id="path212" />
  <path
     d="m 219.21,82.0972 h -83.356 c -1.234,0 -2.235,1.0008 -2.235,2.2353 v 5.3681 c 0,1.2346 1.001,2.2354 2.235,2.2354 h 83.356 c 1.235,0 2.236,-1.0008 2.236,-2.2354 v -5.3681 c 0,-1.2345 -1.001,-2.2353 -2.236,-2.2353 z"
     fill="#dbdbdb"
     id="path213" />
  <path
     d="m 176.013,110.512 h -13.568 -13.54 V 99.3354 h 12.18 14.928 z"
     fill="url(#paint13_linear_1214_83305)"
     id="path214"
     style="fill:url(#paint13_linear_1214_83305)" />
  <path
     d="m 207.878,110.512 h -13.573 -13.54 V 99.3354 h 12.18 14.933 z"
     fill="url(#paint14_linear_1214_83305)"
     id="path215"
     style="fill:url(#paint14_linear_1214_83305)" />
  <path
     d="m 176.013,126.385 h -13.568 -13.54 v -11.182 h 12.18 14.928 z"
     fill="#afe8f3"
     id="path216" />
  <path
     d="m 207.652,126.385 h -13.457 -13.43 v -11.182 h 12.081 14.806 z"
     fill="url(#paint15_linear_1214_83305)"
     id="path217"
     style="fill:url(#paint15_linear_1214_83305)" />
  <path
     d="m 148.905,131.071 h 13.568 13.54 v 11.182 h -12.175 -14.933 z"
     fill="url(#paint16_linear_1214_83305)"
     id="path218"
     style="fill:url(#paint16_linear_1214_83305)" />
  <path
     d="m 207.878,142.253 h -13.573 -13.54 v -11.182 h 12.18 14.933 z"
     fill="#afe8f3"
     id="path219" />
  <path
     d="m 176.013,158.12 h -13.568 -13.54 v -11.182 h 12.18 14.928 z"
     fill="#afe8f3"
     id="path220" />
  <path
     d="m 180.765,146.938 h 13.573 13.54 v 11.182 h -12.18 -14.933 z"
     fill="url(#paint17_linear_1214_83305)"
     id="path221"
     style="fill:url(#paint17_linear_1214_83305)" />
  <path
     d="m 176.013,173.988 h -13.568 -13.54 v -11.182 h 12.18 14.928 z"
     fill="url(#paint18_linear_1214_83305)"
     id="path222"
     style="fill:url(#paint18_linear_1214_83305)" />
  <path
     d="m 207.878,173.988 h -13.573 -13.54 v -11.182 h 12.18 14.933 z"
     fill="url(#paint19_linear_1214_83305)"
     id="path223"
     style="fill:url(#paint19_linear_1214_83305)" />
  <path
     d="m 176.013,189.856 h -13.568 -13.54 v -11.182 h 12.18 14.928 z"
     fill="url(#paint20_linear_1214_83305)"
     id="path224"
     style="fill:url(#paint20_linear_1214_83305)" />
  <path
     d="m 207.878,189.856 h -13.573 -13.54 v -11.182 h 12.18 14.933 z"
     fill="#afe8f3"
     id="path225" />
  <path
     d="m 176.013,205.723 h -13.568 -13.54 v -11.182 h 12.18 14.928 z"
     fill="url(#paint21_linear_1214_83305)"
     id="path226"
     style="fill:url(#paint21_linear_1214_83305)" />
  <path
     d="m 207.878,205.723 h -13.573 -13.54 v -11.182 h 12.18 14.933 z"
     fill="url(#paint22_linear_1214_83305)"
     id="path227"
     style="fill:url(#paint22_linear_1214_83305)" />
  <path
     d="m 164.857,218.706 h 12.874 c 0.506,0 0.914,0.413 0.914,0.914 v 25.321 c 0,0.507 -0.413,0.914 -0.914,0.914 H 164.73 c -0.507,0 -0.92,-0.413 -0.914,-0.919 l 0.127,-25.321 c 0,-0.507 0.413,-0.914 0.914,-0.914 z"
     fill="#dbdbdb"
     id="path228" />
  <path
     d="m 177.747,218.706 h 12.874 c 0.507,0 0.914,0.413 0.914,0.914 v 25.321 c 0,0.507 -0.413,0.914 -0.914,0.914 h -13 c -0.507,0 -0.92,-0.413 -0.914,-0.919 l 0.126,-25.321 c 0,-0.507 0.413,-0.914 0.914,-0.914 z"
     fill="#dbdbdb"
     id="path229" />
  <path
     d="m 218.963,248.939 h -81.104 c -0.76,0 -1.377,0.616 -1.377,1.376 v 1.145 c 0,0.761 0.617,1.377 1.377,1.377 h 81.104 c 0.76,0 1.377,-0.616 1.377,-1.377 v -1.145 c 0,-0.76 -0.617,-1.376 -1.377,-1.376 z"
     fill="#b2b2b2"
     id="path230" />
  <path
     d="m 166.531,220.512 h 9.498 c 0.375,0 0.678,0.364 0.678,0.815 v 22.442 c 0,0.451 -0.303,0.814 -0.678,0.814 h -9.592 c -0.374,0 -0.677,-0.368 -0.677,-0.814 l 0.093,-22.442 c 0,-0.446 0.303,-0.809 0.678,-0.809 z"
     fill="#dbdbdb"
     id="path231" />
  <path
     d="m 179.416,220.512 h 9.498 c 0.375,0 0.678,0.364 0.678,0.815 v 22.442 c 0,0.451 -0.303,0.814 -0.678,0.814 h -9.592 c -0.374,0 -0.677,-0.368 -0.677,-0.814 l 0.094,-22.442 c 0,-0.446 0.302,-0.809 0.677,-0.809 z"
     fill="#dbdbdb"
     id="path232" />
  <path
     d="m 166.509,220.457 h 11.217 c 0.44,0 0.798,0.358 0.798,0.799 v 22.056 c 0,0.44 -0.358,0.798 -0.798,0.798 h -11.327 c -0.44,0 -0.798,-0.358 -0.798,-0.804 l 0.11,-22.056 c 0,-0.44 0.358,-0.793 0.798,-0.793 z"
     fill="#7c451c"
     id="path233" />
  <path
     d="m 167.968,222.032 h 8.276 c 0.325,0 0.589,0.319 0.589,0.71 v 19.551 c 0,0.391 -0.264,0.71 -0.589,0.71 h -8.353 c -0.325,0 -0.589,-0.319 -0.589,-0.71 l 0.082,-19.551 c 0,-0.391 0.265,-0.705 0.59,-0.705 z"
     fill="url(#paint23_linear_1214_83305)"
     id="path234"
     style="fill:url(#paint23_linear_1214_83305)" />
  <path
     d="m 177.736,220.457 h 11.217 c 0.44,0 0.798,0.358 0.798,0.799 v 22.056 c 0,0.44 -0.358,0.798 -0.798,0.798 h -11.327 c -0.44,0 -0.798,-0.358 -0.798,-0.804 l 0.11,-22.056 c 0,-0.44 0.358,-0.793 0.798,-0.793 z"
     fill="#7c451c"
     id="path235" />
  <path
     d="m 179.196,222.032 h 8.276 c 0.325,0 0.589,0.319 0.589,0.71 v 19.551 c 0,0.391 -0.264,0.71 -0.589,0.71 h -8.354 c -0.324,0 -0.589,-0.319 -0.589,-0.71 l 0.083,-19.551 c 0,-0.391 0.264,-0.705 0.589,-0.705 z"
     fill="url(#paint24_linear_1214_83305)"
     id="path236"
     style="fill:url(#paint24_linear_1214_83305)" />
  <path
     d="m 158.53,251.725 4.499,-6.817 h 30.219 l 4.702,6.817 z"
     fill="#b2b2b2"
     id="path237" />
  <path
     d="m 194.096,244.11 h -31.894 c -0.544,0 -0.985,0.441 -0.985,0.986 v 0.071 c 0,0.545 0.441,0.986 0.985,0.986 h 31.894 c 0.544,0 0.985,-0.441 0.985,-0.986 v -0.071 c 0,-0.545 -0.441,-0.986 -0.985,-0.986 z"
     fill="#dbdbdb"
     id="path238" />
  <path
     d="m 196.133,247.441 h -35.968 c -0.565,0 -1.024,0.457 -1.024,1.021 0,0.564 0.459,1.021 1.024,1.021 h 35.968 c 0.566,0 1.024,-0.457 1.024,-1.021 0,-0.564 -0.458,-1.021 -1.024,-1.021 z"
     fill="#dbdbdb"
     id="path239" />
  <path
     d="m 198.953,250.7 h -41.612 c -0.566,0 -1.025,0.458 -1.025,1.022 0,0.564 0.459,1.021 1.025,1.021 h 41.612 c 0.565,0 1.024,-0.457 1.024,-1.021 0,-0.564 -0.459,-1.022 -1.024,-1.022 z"
     fill="#dbdbdb"
     id="path240" />
  <path
     d="m 179.322,233.176 c 0.648,0 1.173,-0.525 1.173,-1.173 0,-0.648 -0.525,-1.173 -1.173,-1.173 -0.648,0 -1.173,0.525 -1.173,1.173 0,0.648 0.525,1.173 1.173,1.173 z"
     fill="#bf8a6b"
     id="path241" />
  <path
     d="m 176.354,233.176 c 0.648,0 1.173,-0.525 1.173,-1.173 0,-0.648 -0.525,-1.173 -1.173,-1.173 -0.647,0 -1.172,0.525 -1.172,1.173 0,0.648 0.525,1.173 1.172,1.173 z"
     fill="#bf8a6b"
     id="path242" />
  <path
     d="m 202.504,225.351 h -3.249 c -0.573,0 -1.041,-0.627 -1.041,-1.404 0,-0.776 0.468,-1.404 1.041,-1.404 h 3.249 c 0.573,0 1.041,0.628 1.041,1.404 0,0.777 -0.468,1.404 -1.041,1.404 z"
     fill="#dbdbdb"
     id="path243" />
  <path
     d="m 205.318,221.509 h -3.249 c -0.573,0 -1.041,-0.628 -1.041,-1.404 0,-0.776 0.468,-1.404 1.041,-1.404 h 3.249 c 0.572,0 1.041,0.628 1.041,1.404 0,0.776 -0.469,1.404 -1.041,1.404 z"
     fill="#dbdbdb"
     id="path244" />
  <path
     d="m 154.692,233.176 h -3.248 c -0.573,0 -1.041,-0.628 -1.041,-1.404 0,-0.777 0.468,-1.404 1.041,-1.404 h 3.248 c 0.573,0 1.041,0.627 1.041,1.404 0,0.776 -0.468,1.404 -1.041,1.404 z"
     fill="#dbdbdb"
     id="path245" />
  <path
     d="m 151.724,236.787 h -3.249 c -0.572,0 -1.04,-0.628 -1.04,-1.404 0,-0.776 0.468,-1.404 1.04,-1.404 h 3.249 c 0.573,0 1.041,0.628 1.041,1.404 0,0.776 -0.468,1.404 -1.041,1.404 z"
     fill="#dbdbdb"
     id="path246" />
  <path
     d="m 158.101,236.694 h -3.249 c -0.573,0 -1.041,-0.628 -1.041,-1.404 0,-0.777 0.468,-1.404 1.041,-1.404 h 3.249 c 0.572,0 1.04,0.627 1.04,1.404 0,0.776 -0.468,1.404 -1.04,1.404 z"
     fill="#dbdbdb"
     id="path247" />
  <path
     d="m 327.032,120.929 h -3.905 v 7.136 h 3.905 z"
     fill="#4c5562"
     id="path248" />
  <path
     d="m 340.076,122.851 h -29.767 c -0.595,0 -0.92,-0.451 -0.738,-1.002 l 2.406,-7.163 c 0.127,-0.385 0.622,-0.688 1.107,-0.688 h 24.223 c 0.484,0 0.974,0.308 1.106,0.688 l 2.407,7.163 c 0.181,0.551 -0.143,1.002 -0.738,1.002 z"
     fill="#2f5566"
     id="path249" />
  <path
     d="m 337.835,121.849 h -25.286 c -0.501,0 -0.814,-0.336 -0.699,-0.744 l 1.603,-5.544 c 0.088,-0.308 0.512,-0.556 0.941,-0.556 h 21.591 c 0.429,0 0.848,0.248 0.941,0.556 l 1.603,5.544 c 0.115,0.408 -0.193,0.744 -0.7,0.744 z"
     fill="#2e7d99"
     id="path250" />
  <path
     d="m 312.737,118.061 h 24.878"
     stroke="#2f5566"
     stroke-width="1.06"
     stroke-miterlimit="10"
     id="path251" />
  <path
     d="m 325.192,115.005 v 6.844"
     stroke="#2f5566"
     stroke-width="1.06"
     stroke-miterlimit="10"
     id="path252" />
  <path
     d="m 321.096,115.005 -0.749,6.844"
     stroke="#2f5566"
     stroke-width="1.06"
     stroke-miterlimit="10"
     id="path253" />
  <path
     d="m 317.269,115.005 -1.184,6.844"
     stroke="#2f5566"
     stroke-width="1.06"
     stroke-miterlimit="10"
     id="path254" />
  <path
     d="m 329.08,115.005 0.749,6.844"
     stroke="#2f5566"
     stroke-width="1.06"
     stroke-miterlimit="10"
     id="path255" />
  <path
     d="m 332.907,115.005 1.184,6.844"
     stroke="#2f5566"
     stroke-width="1.06"
     stroke-miterlimit="10"
     id="path256" />
  <path
     d="m 325.083,128.411 c 1.076,0 1.949,-0.155 1.949,-0.346 0,-0.192 -0.873,-0.347 -1.949,-0.347 -1.077,0 -1.95,0.155 -1.95,0.347 0,0.191 0.873,0.346 1.95,0.346 z"
     fill="#4c5562"
     id="path257" />
  <path
     d="m 354.542,106.135 h -33.859 c -0.672,0 -1.046,-0.517 -0.837,-1.139 l 2.737,-8.1489 c 0.148,-0.4349 0.71,-0.7873 1.255,-0.7873 h 27.554 c 0.551,0 1.113,0.3469 1.256,0.7873 l 2.736,8.1489 c 0.21,0.622 -0.165,1.139 -0.837,1.139 z"
     fill="#2f5566"
     id="path258" />
  <path
     d="m 351.992,104.996 h -28.765 c -0.573,0 -0.925,-0.38 -0.793,-0.843 l 1.823,-6.3038 c 0.104,-0.3523 0.578,-0.6331 1.068,-0.6331 h 24.558 c 0.491,0 0.97,0.2808 1.069,0.6331 l 1.822,6.3038 c 0.132,0.463 -0.22,0.843 -0.793,0.843 z"
     fill="#2e7d99"
     id="path259" />
  <path
     d="m 323.441,100.69 h 28.298"
     stroke="#2f5566"
     stroke-width="1.21"
     stroke-miterlimit="10"
     id="path260" />
  <path
     d="m 337.615,97.2104 v 7.7856"
     stroke="#2f5566"
     stroke-width="1.21"
     stroke-miterlimit="10"
     id="path261" />
  <path
     d="m 332.951,97.2102 -0.853,7.7848"
     stroke="#2f5566"
     stroke-width="1.21"
     stroke-miterlimit="10"
     id="path262" />
  <path
     d="m 328.601,97.2102 -1.349,7.7848"
     stroke="#2f5566"
     stroke-width="1.21"
     stroke-miterlimit="10"
     id="path263" />
  <path
     d="m 342.037,97.2104 0.853,7.7856"
     stroke="#2f5566"
     stroke-width="1.21"
     stroke-miterlimit="10"
     id="path264" />
  <path
     d="m 346.387,97.2102 1.349,7.7848"
     stroke="#2f5566"
     stroke-width="1.21"
     stroke-miterlimit="10"
     id="path265" />
  <path
     opacity="0.13"
     d="m 482.922,181.49 h -13.197 c -2.542,0 -4.603,2.061 -4.603,4.604 v 19.187 c 0,2.542 2.061,4.603 4.603,4.603 h 13.197 c 2.542,0 4.604,-2.061 4.604,-4.603 v -19.187 c 0,-2.543 -2.062,-4.604 -4.604,-4.604 z"
     fill="#4c5562"
     id="path266" />
  <path
     d="m 485.942,181.49 h -13.196 c -2.543,0 -4.604,2.061 -4.604,4.604 v 19.187 c 0,2.542 2.061,4.603 4.604,4.603 h 13.196 c 2.543,0 4.604,-2.061 4.604,-4.603 v -19.187 c 0,-2.543 -2.061,-4.604 -4.604,-4.604 z"
     fill="#ffffff"
     id="path267" />
  <path
     d="m 484.408,184.013 h -10.127 c -1.837,0 -3.325,1.489 -3.325,3.325 v 13.098 c 0,1.836 1.488,3.324 3.325,3.324 h 10.127 c 1.836,0 3.325,-1.488 3.325,-3.324 v -13.098 c 0,-1.836 -1.489,-3.325 -3.325,-3.325 z"
     fill="#57cbe1"
     id="path268" />
  <path
     fill-rule="evenodd"
     clip-rule="evenodd"
     d="m 481.664,187.352 -1.417,5.405 h 3.297 l -6.906,7.568 2.171,-5.522 h -3.228 z"
     fill="#ffffff"
     id="path269" />
  <path
     d="m 487.733,195.688 c -0.616,0 -1.12,-0.367 -1.12,-0.816 v -1.693 c 0,-0.45 0.498,-0.816 1.12,-0.816 0.622,0 1.119,0.366 1.119,0.816 v 1.693 c 0,0.449 -0.497,0.816 -1.119,0.816 z"
     fill="#b2b2b2"
     id="path270" />
  <path
     opacity="0.05"
     d="m 189.9,22.9094 h -23.017 c -1.8,0 -3.271,1.4701 -3.271,3.2705 v 16.5008 l 14.78,12.1897 14.779,-12.1897 V 26.1799 c 0,-1.8004 -1.47,-3.2705 -3.271,-3.2705 z"
     fill="#4c5562"
     id="path271" />
  <path
     opacity="0.1"
     d="m 189.9,15.6594 h -23.017 c -1.8,0 -3.271,1.4701 -3.271,3.2705 v 16.5008 l 14.78,12.1897 14.779,-12.1897 V 18.9299 c 0,-1.8004 -1.47,-3.2705 -3.271,-3.2705 z"
     fill="#4c5562"
     id="path272" />
  <path
     d="m 189.9,9.58008 h -23.017 c -1.8,0 -3.271,1.47002 -3.271,3.27042 v 16.5008 l 14.78,12.1898 14.779,-12.1898 V 12.8505 c 0,-1.8004 -1.47,-3.27042 -3.271,-3.27042 z"
     fill="#4c5562"
     id="path273" />
  <path
     d="m 176.024,25.1725 h -3.403 l -0.777,1.5692 h -3.359 l 5.523,-10.3784 h 3.69 l 1.932,10.3784 h -3.375 z m -0.358,-2.4501 -0.419,-2.885 -1.426,2.885 z"
     fill="url(#paint25_linear_1214_83305)"
     id="path274"
     style="fill:url(#paint25_linear_1214_83305)" />
  <path
     d="m 187.923,23.2512 h -2.148 l -0.391,2.2409 h -3.072 l 0.391,-2.2409 h -2.148 l 0.518,-2.9731 h 2.147 l 0.391,-2.2573 h 3.073 l -0.391,2.2573 h 2.147 z"
     fill="url(#paint26_linear_1214_83305)"
     id="path275"
     style="fill:url(#paint26_linear_1214_83305)" />
  <path
     opacity="0.05"
     d="M 88.5629,157.752 H 75.8564 c -0.994,0 -1.8056,0.834 -1.8056,1.855 v 9.357 l 8.1589,6.913 8.1588,-6.913 v -9.357 c 0,-1.021 -0.8116,-1.855 -1.8056,-1.855 z"
     fill="#4c5562"
     id="path276" />
  <path
     opacity="0.1"
     d="M 88.5629,153.64 H 75.8564 c -0.994,0 -1.8056,0.834 -1.8056,1.855 v 9.358 l 8.1589,6.912 8.1588,-6.912 v -9.358 c 0,-1.021 -0.8116,-1.855 -1.8056,-1.855 z"
     fill="#4c5562"
     id="path277" />
  <path
     d="M 88.5629,150.193 H 75.8564 c -0.994,0 -1.8056,0.834 -1.8056,1.855 v 9.357 l 8.1589,6.913 8.1588,-6.913 v -9.357 c 0,-1.021 -0.8116,-1.855 -1.8056,-1.855 z"
     fill="#4c5562"
     id="path278" />
  <path
     d="m 80.9027,159.035 h -1.8786 l -0.4286,0.89 h -1.8543 l 3.049,-5.885 h 2.0366 l 1.067,5.885 h -1.8634 z m -0.1976,-1.389 -0.231,-1.636 -0.7873,1.636 z"
     fill="url(#paint27_linear_1214_83305)"
     id="path279"
     style="fill:url(#paint27_linear_1214_83305)" />
  <path
     d="M 87.4716,157.946 H 86.286 l -0.2158,1.27 H 84.374 l 0.2158,-1.27 H 83.4043 L 83.69,156.26 h 1.1856 l 0.2158,-1.281 h 1.6962 l -0.2158,1.281 h 1.1855 z"
     fill="url(#paint28_linear_1214_83305)"
     id="path280"
     style="fill:url(#paint28_linear_1214_83305)" />
  <path
     d="m 63.7015,195.044 c -33.0888,47.7 -22.4271,76.942 38.2315,79.145 25.551,1.113 51.641,-0.974 76.323,-7.328 33.089,-8.557 64.182,-24.627 92.409,-43.735 19.14,-13.334 44.22,-32.998 35.414,-58.901 -2.677,-7.977 -8.29,-15.119 -13.949,-21.357 6.88,5.357 13.385,11.71 17.354,19.966 13.316,27.201 -12.305,53.219 -32.642,68.547 -41.896,32.651 -94.547,54.982 -148.771,55.191 -26.067,-0.255 -58.2402,-0.511 -78.8121,-18.83 -23.0142,-21.914 -3.5461,-54.587 14.4426,-72.698 z"
     fill="url(#paint29_linear_1214_83305)"
     id="path281"
     style="fill:url(#paint29_linear_1214_83305)" />
  <path
     d="m 65.7557,196.469 -3.8279,-3.187 c -9.1548,9.217 -18.8016,22.241 -23.2035,35.919 -4.4368,13.786 -3.5928,28.541 8.8107,40.352 l 0.0302,0.028 0.0311,0.028 c 10.7697,9.59 24.4681,14.358 38.5842,16.786 13.9815,2.404 28.6105,2.547 41.5245,2.673 l 0.341,0.004 h 0.018 0.017 c 54.886,-0.212 108.052,-22.801 150.281,-55.706 10.26,-7.735 22.029,-18.289 29.549,-30.495 7.558,-12.267 10.978,-26.503 3.823,-41.128 -4.212,-8.755 -11.06,-15.392 -18.069,-20.848 l -3.387,3.653 c 5.618,6.192 10.928,13.014 13.431,20.473 l 0.003,0.009 c 4.045,11.898 0.405,22.423 -6.841,31.834 -7.3,9.48 -18.056,17.537 -27.621,24.201 -28.068,18.998 -58.893,34.912 -91.617,43.375 -24.404,6.282 -50.243,8.355 -75.591,7.251 h -0.009 l -0.009,-10e-4 c -30.249,-1.098 -46.6233,-8.937 -52.0831,-21.04 -2.7394,-6.073 -2.9518,-13.625 -0.3511,-22.74 2.6036,-9.126 7.9822,-19.644 16.1659,-31.441 z"
     stroke="url(#paint30_linear_1214_83305)"
     stroke-opacity="0.2"
     stroke-width="5"
     id="path282"
     style="stroke:url(#paint30_linear_1214_83305)" />
  <path
     d="m 33.7327,247.48 h -5.0384 v 4.189 h 5.0384 z"
     fill="#7c451c"
     id="path283" />
  <path
     d="m 31.2109,252.71 c 1.3928,0 2.5219,-0.466 2.5219,-1.041 0,-0.575 -1.1291,-1.04 -2.5219,-1.04 -1.3928,0 -2.5219,0.465 -2.5219,1.04 0,0.575 1.1291,1.041 2.5219,1.041 z"
     fill="#7c451c"
     id="path284" />
  <path
     d="m 37.2516,226.288 c 0,0 1.0793,-1.349 2.2852,-2.913 l -3.9977,-16.357 -2.7036,-0.666 c 0,0 1.0131,-1.267 1.9327,-2.478 l -3.6728,-15.02 -6.0735,25.244 c 1.4977,0.947 3.045,1.872 3.045,1.872 l -4.1794,2.858 -3.1441,13.076 c 1.8501,0.694 3.3259,1.228 3.3259,1.228 l -4.7851,4.85 -2.2852,9.503 h 28.4351 l -4.9888,-20.404 -3.1882,-0.788 z"
     fill="#1ea581"
     id="path285" />
  <path
     d="m 37.2515,226.288 4.9007,7.791 -1.7125,-6.998 z"
     fill="#26b28a"
     id="path286" />
  <path
     d="m 24.0634,233.131 -7.0702,14.348 2.2851,-9.497 z"
     fill="#26b28a"
     id="path287" />
  <path
     d="m 28.0668,215.97 -7.329,15.933 3.1497,-13.076 z"
     fill="#26b28a"
     id="path288" />
  <path
     d="m 32.8354,206.357 4.697,8.836 -1.9988,-8.17 z"
     fill="#26b28a"
     id="path289" />
  <path
     d="m 310.069,260.649 h 17.301 v 23.471 c 0,3.463 -2.814,6.282 -6.283,6.282 h -4.741 c -3.463,0 -6.283,-2.813 -6.283,-6.282 v -23.471 z"
     fill="#bf8a6b"
     id="path290" />
  <path
     d="m 321.511,290.491 h -5.583 c -3.222,0 -5.859,-3.029 -5.859,-6.734 v -10.571 l 1.878,-3.623 1.767,3.623 1.9,-1.608 2.39,1.608 3.937,-3.777 3.777,3.777 h 1.652 v 10.571 c 0,3.7 -2.638,6.734 -5.859,6.734 z"
     fill="#a6785d"
     id="path291" />
  <path
     opacity="0.27"
     d="m 318.72,286.572 c 2.895,0 5.242,-2.347 5.242,-5.242 0,-2.894 -2.347,-5.241 -5.242,-5.241 -2.895,0 -5.242,2.347 -5.242,5.241 0,2.895 2.347,5.242 5.242,5.242 z"
     fill="#4c5562"
     id="path292" />
  <path
     opacity="0.27"
     d="m 327.365,242.965 h -18.887 l -5.771,10.466 h 7.362 v 7.218 h 17.301 z"
     fill="#4c5562"
     id="path293" />
  <path
     d="m 303.781,246.158 h 14.856 v 34.318"
     stroke="#ea4b6d"
     stroke-width="5.1"
     stroke-miterlimit="10"
     stroke-linecap="round"
     id="path294" />
  <path
     d="m 318.643,285.311 c 2.198,0 3.981,-1.782 3.981,-3.981 0,-2.198 -1.783,-3.981 -3.981,-3.981 -2.199,0 -3.981,1.783 -3.981,3.981 0,2.199 1.782,3.981 3.981,3.981 z"
     fill="#ea4b6d"
     id="path295" />
  <path
     opacity="0.13"
     d="m 318.637,283.615 c 1.262,0 2.285,-1.023 2.285,-2.285 0,-1.262 -1.023,-2.285 -2.285,-2.285 -1.262,0 -2.285,1.023 -2.285,2.285 0,1.262 1.023,2.285 2.285,2.285 z"
     fill="#4c5562"
     id="path296" />
  <path
     opacity="0.13"
     d="m 299.249,219.119 h -15.935 c -3.075,0 -5.567,2.492 -5.567,5.566 v 23.18 c 0,3.074 2.492,5.566 5.567,5.566 h 15.935 c 3.075,0 5.567,-2.492 5.567,-5.566 v -23.18 c 0,-3.074 -2.492,-5.566 -5.567,-5.566 z"
     fill="#4c5562"
     id="path297" />
  <path
     d="m 303.219,219.119 h -15.935 c -3.075,0 -5.567,2.492 -5.567,5.566 v 23.18 c 0,3.074 2.492,5.566 5.567,5.566 h 15.935 c 3.075,0 5.567,-2.492 5.567,-5.566 v -23.18 c 0,-3.074 -2.492,-5.566 -5.567,-5.566 z"
     fill="#ffffff"
     id="path298" />
  <path
     d="m 301.374,222.164 h -12.246 c -2.217,0 -4.014,1.797 -4.014,4.013 v 15.829 c 0,2.217 1.797,4.014 4.014,4.014 h 12.246 c 2.217,0 4.014,-1.797 4.014,-4.014 v -15.829 c 0,-2.216 -1.797,-4.013 -4.014,-4.013 z"
     fill="#ea4b6d"
     id="path299" />
  <path
     d="m 305.13,236.941 c -0.744,0 -1.349,-0.44 -1.349,-0.991 v -2.048 c 0,-0.545 0.605,-0.991 1.349,-0.991 0.743,0 1.349,0.441 1.349,0.991 v 2.048 c 0,0.545 -0.606,0.991 -1.349,0.991 z"
     fill="#b2b2b2"
     id="path300" />
  <path
     d="m 293.258,226.023 c 1.823,1.493 3.172,4.267 1.74,6.459 -0.363,0.666 -0.986,1.178 -1.459,1.729 -0.705,0.88 -1.591,1.849 -1.817,2.967 -0.127,1.211 0.622,2.483 1.217,3.612 -4.328,-2.186 -3.293,-5.99 -0.199,-8.804 1.917,-1.541 1.019,-3.931 0.518,-5.963 z"
     fill="#ffffff"
     id="path301" />
  <path
     d="m 298.621,226.023 c 1.823,1.493 3.172,4.267 1.74,6.459 -0.363,0.666 -0.985,1.178 -1.459,1.729 -0.705,0.88 -1.591,1.849 -1.817,2.967 -0.127,1.211 0.622,2.483 1.217,3.612 -4.328,-2.186 -3.293,-5.99 -0.198,-8.804 1.916,-1.541 1.018,-3.931 0.517,-5.963 z"
     fill="#ffffff"
     id="path302" />
  <path
     d="m 327.532,126.52 c -0.684,1.139 -3.409,1.628 -4.687,1.73 l -0.262,0.986 4.927,-0.197 c 0.292,-1.314 0.705,-3.658 0.022,-2.519 z"
     fill="#1ea581"
     id="path303" />
  <path
     opacity="0.6"
     d="M 503.984,97.921 498.223,64.7183 H 511.02 Z"
     fill="#ffec3b"
     id="path304" />
  <path
     opacity="0.6"
     d="m 505.265,3.9209 5.755,33.2028 h -12.797 z"
     fill="#ffec3b"
     id="path305" />
  <path
     opacity="0.6"
     d="m 458.124,50.2735 32.85,-5.8231 v 12.9408 z"
     fill="#ffec3b"
     id="path306" />
  <path
     opacity="0.6"
     d="m 551.124,51.5681 -32.85,5.8231 V 44.4504 Z"
     fill="#ffec3b"
     id="path307" />
  <g
     opacity="0.3"
     id="g311">
    <path
       opacity="0.6"
       d="m 480.729,91.3018 11.5,-31.6546 11.082,6.4423 z"
       fill="#ffec3b"
       id="path308" />
    <path
       opacity="0.6"
       d="M 528.52,10.5403 517.015,42.1921 505.932,35.7498 Z"
       fill="#ffec3b"
       id="path309" />
    <path
       opacity="0.6"
       d="m 464.676,26.9521 31.34,11.4937 -6.427,11.207 z"
       fill="#ffec3b"
       id="path310" />
    <path
       opacity="0.6"
       d="m 544.573,74.8899 -31.34,-11.4937 6.426,-11.207 z"
       fill="#ffec3b"
       id="path311" />
  </g>
  <g
     opacity="0.3"
     id="g315">
    <path
       opacity="0.6"
       d="m 463.876,73.8624 25.679,-21.6246 6.399,11.1584 z"
       fill="#ffec3b"
       id="path312" />
    <path
       opacity="0.6"
       d="M 545.372,27.9794 519.69,49.5992 513.291,38.4407 Z"
       fill="#ffec3b"
       id="path313" />
    <path
       opacity="0.6"
       d="m 481.931,10.0526 21.433,25.7307 -11.131,6.4704 z"
       fill="#ffec3b"
       id="path314" />
    <path
       opacity="0.6"
       d="M 527.317,91.7887 505.883,66.058 517.015,59.5876 Z"
       fill="#ffec3b"
       id="path315" />
  </g>
  <path
     opacity="0.75"
     d="m 473.438,81.5879 17.921,-25.8193 8.469,8.5593 z"
     fill="#ffec3b"
     id="path316" />
  <path
     opacity="0.75"
     d="M 535.81,20.2537 517.889,46.073 509.42,37.5137 Z"
     fill="#ffec3b"
     id="path317" />
  <path
     opacity="0.75"
     d="m 474.283,19.4001 25.545,18.1137 -8.468,8.5594 z"
     fill="#ffec3b"
     id="path318" />
  <path
     opacity="0.75"
     d="M 534.965,82.4416 509.42,64.3279 517.889,55.7686 Z"
     fill="#ffec3b"
     id="path319" />
  <path
     opacity="0.3"
     d="m 504.621,77.2537 c 14.387,0 26.05,-11.7884 26.05,-26.3301 0,-14.5417 -11.663,-26.3301 -26.05,-26.3301 -14.387,0 -26.05,11.7884 -26.05,26.3301 0,14.5417 11.663,26.3301 26.05,26.3301 z"
     fill="#ffec3b"
     id="path320" />
  <path
     opacity="0.15"
     d="m 504.621,82.4474 c 17.225,0 31.189,-14.1136 31.189,-31.5236 0,-17.41 -13.964,-31.5237 -31.189,-31.5237 -17.224,0 -31.188,14.1137 -31.188,31.5237 0,17.41 13.964,31.5236 31.188,31.5236 z"
     fill="#ffec3b"
     id="path321" />
  <path
     d="m 504.621,71.1517 c 11.053,0 20.013,-9.0564 20.013,-20.2281 0,-11.1716 -8.96,-20.228 -20.013,-20.228 -11.053,0 -20.013,9.0564 -20.013,20.228 0,11.1717 8.96,20.2281 20.013,20.2281 z"
     fill="#ffec3b"
     id="path322" />
  <path
     d="m 539.064,47.6245 c -20.28,8.0237 -29.409,16.6172 -38.187,36.2664 -4.648,-4.7486 -7.514,-11.2489 -7.514,-18.4184 0,-14.5435 11.792,-26.3333 26.337,-26.3333 7.658,0 14.552,3.268 19.364,8.4853 z"
     fill="#fff27a"
     id="path323" />
  <path
     opacity="0.5"
     fill-rule="evenodd"
     clip-rule="evenodd"
     d="m 491.311,62.4999 c -5.084,-6.633 -3.998,-16.6099 2.731,-22.9392 6.728,-6.3289 16.688,-6.7423 22.916,-1.1864 -0.288,-0.3752 -0.595,-0.7397 -0.922,-1.0922 -6.111,-6.5849 -16.827,-6.502 -23.937,0.1853 -7.109,6.6872 -7.919,17.4465 -1.809,24.0314 0.327,0.3528 0.668,0.6865 1.021,1.0011 z"
     fill="#ffffff"
     id="path324" />
  <path
     opacity="0.1"
     fill-rule="evenodd"
     clip-rule="evenodd"
     d="m 517.509,38.8968 c 5.304,6.4553 4.555,16.4631 -1.956,23.0186 -6.511,6.5557 -16.452,7.3093 -22.863,1.9689 0.3,0.3654 0.619,0.7194 0.959,1.0608 6.329,6.3721 17.036,5.9226 23.916,-1.004 6.88,-6.9266 7.326,-17.7073 0.997,-24.0794 -0.339,-0.3412 -0.69,-0.6628 -1.053,-0.9649 z"
     fill="#000000"
     id="path325" />
  <defs
     id="defs387">
    <linearGradient
       id="paint0_linear_1214_83305"
       x1="86.437698"
       y1="225.987"
       x2="101.326"
       y2="211.05"
       gradientUnits="userSpaceOnUse">
      <stop
         stop-color="#56BED9"
         id="stop325" />
      <stop
         offset="1"
         stop-color="#77EBEC"
         id="stop326" />
    </linearGradient>
    <linearGradient
       id="paint1_linear_1214_83305"
       x1="102.832"
       y1="198.95399"
       x2="113.941"
       y2="187.81"
       gradientUnits="userSpaceOnUse">
      <stop
         stop-color="#56BED9"
         id="stop327" />
      <stop
         offset="1"
         stop-color="#77EBEC"
         id="stop328" />
    </linearGradient>
    <linearGradient
       id="paint2_linear_1214_83305"
       x1="62.112598"
       y1="238.617"
       x2="75.43"
       y2="227.265"
       gradientUnits="userSpaceOnUse">
      <stop
         stop-color="#56BED9"
         id="stop329" />
      <stop
         offset="1"
         stop-color="#77EBEC"
         id="stop330" />
    </linearGradient>
    <linearGradient
       id="paint3_linear_1214_83305"
       x1="219.466"
       y1="206.12601"
       x2="230.27499"
       y2="198.537"
       gradientUnits="userSpaceOnUse">
      <stop
         stop-color="#56BED9"
         id="stop331" />
      <stop
         offset="1"
         stop-color="#77EBEC"
         id="stop332" />
    </linearGradient>
    <linearGradient
       id="paint4_linear_1214_83305"
       x1="233.07001"
       y1="206.12601"
       x2="243.879"
       y2="198.537"
       gradientUnits="userSpaceOnUse">
      <stop
         stop-color="#56BED9"
         id="stop333" />
      <stop
         offset="1"
         stop-color="#77EBEC"
         id="stop334" />
    </linearGradient>
    <linearGradient
       id="paint5_linear_1214_83305"
       x1="246.088"
       y1="206.12601"
       x2="256.89801"
       y2="198.537"
       gradientUnits="userSpaceOnUse">
      <stop
         stop-color="#56BED9"
         id="stop335" />
      <stop
         offset="1"
         stop-color="#77EBEC"
         id="stop336" />
    </linearGradient>
    <linearGradient
       id="paint6_linear_1214_83305"
       x1="219.466"
       y1="191.138"
       x2="230.27499"
       y2="183.55"
       gradientUnits="userSpaceOnUse">
      <stop
         stop-color="#56BED9"
         id="stop337" />
      <stop
         offset="1"
         stop-color="#77EBEC"
         id="stop338" />
    </linearGradient>
    <linearGradient
       id="paint7_linear_1214_83305"
       x1="233.07001"
       y1="191.138"
       x2="243.879"
       y2="183.55"
       gradientUnits="userSpaceOnUse">
      <stop
         stop-color="#56BED9"
         id="stop339" />
      <stop
         offset="1"
         stop-color="#77EBEC"
         id="stop340" />
    </linearGradient>
    <linearGradient
       id="paint8_linear_1214_83305"
       x1="246.088"
       y1="191.138"
       x2="256.89801"
       y2="183.55"
       gradientUnits="userSpaceOnUse">
      <stop
         stop-color="#56BED9"
         id="stop341" />
      <stop
         offset="1"
         stop-color="#77EBEC"
         id="stop342" />
    </linearGradient>
    <linearGradient
       id="paint9_linear_1214_83305"
       x1="275.52301"
       y1="214.72701"
       x2="286.332"
       y2="207.13901"
       gradientUnits="userSpaceOnUse">
      <stop
         stop-color="#56BED9"
         id="stop343" />
      <stop
         offset="1"
         stop-color="#77EBEC"
         id="stop344" />
    </linearGradient>
    <linearGradient
       id="paint10_linear_1214_83305"
       x1="275.52301"
       y1="199.739"
       x2="286.332"
       y2="192.151"
       gradientUnits="userSpaceOnUse">
      <stop
         stop-color="#56BED9"
         id="stop345" />
      <stop
         offset="1"
         stop-color="#77EBEC"
         id="stop346" />
    </linearGradient>
    <linearGradient
       id="paint11_linear_1214_83305"
       x1="264.33801"
       y1="114.992"
       x2="271.13699"
       y2="107.708"
       gradientUnits="userSpaceOnUse">
      <stop
         stop-color="#56BED9"
         id="stop347" />
      <stop
         offset="1"
         stop-color="#77EBEC"
         id="stop348" />
    </linearGradient>
    <linearGradient
       id="paint12_linear_1214_83305"
       x1="272.23401"
       y1="114.17"
       x2="277.134"
       y2="109.011"
       gradientUnits="userSpaceOnUse">
      <stop
         stop-color="#56BED9"
         id="stop349" />
      <stop
         offset="1"
         stop-color="#77EBEC"
         id="stop350" />
    </linearGradient>
    <linearGradient
       id="paint13_linear_1214_83305"
       x1="148.931"
       y1="110.509"
       x2="156.774"
       y2="91.427803"
       gradientUnits="userSpaceOnUse">
      <stop
         stop-color="#56BED9"
         id="stop351" />
      <stop
         offset="1"
         stop-color="#77EBEC"
         id="stop352" />
    </linearGradient>
    <linearGradient
       id="paint14_linear_1214_83305"
       x1="180.791"
       y1="110.509"
       x2="188.632"
       y2="91.426697"
       gradientUnits="userSpaceOnUse">
      <stop
         stop-color="#56BED9"
         id="stop353" />
      <stop
         offset="1"
         stop-color="#77EBEC"
         id="stop354" />
    </linearGradient>
    <linearGradient
       id="paint15_linear_1214_83305"
       x1="180.791"
       y1="126.383"
       x2="188.685"
       y2="107.34"
       gradientUnits="userSpaceOnUse">
      <stop
         stop-color="#56BED9"
         id="stop355" />
      <stop
         offset="1"
         stop-color="#77EBEC"
         id="stop356" />
    </linearGradient>
    <linearGradient
       id="paint16_linear_1214_83305"
       x1="148.931"
       y1="142.25"
       x2="156.78"
       y2="123.162"
       gradientUnits="userSpaceOnUse">
      <stop
         stop-color="#56BED9"
         id="stop357" />
      <stop
         offset="1"
         stop-color="#77EBEC"
         id="stop358" />
    </linearGradient>
    <linearGradient
       id="paint17_linear_1214_83305"
       x1="180.791"
       y1="158.118"
       x2="188.63901"
       y2="139.028"
       gradientUnits="userSpaceOnUse">
      <stop
         stop-color="#56BED9"
         id="stop359" />
      <stop
         offset="1"
         stop-color="#77EBEC"
         id="stop360" />
    </linearGradient>
    <linearGradient
       id="paint18_linear_1214_83305"
       x1="148.931"
       y1="173.985"
       x2="156.78"
       y2="154.897"
       gradientUnits="userSpaceOnUse">
      <stop
         stop-color="#56BED9"
         id="stop361" />
      <stop
         offset="1"
         stop-color="#77EBEC"
         id="stop362" />
    </linearGradient>
    <linearGradient
       id="paint19_linear_1214_83305"
       x1="180.791"
       y1="173.985"
       x2="188.63901"
       y2="154.896"
       gradientUnits="userSpaceOnUse">
      <stop
         stop-color="#56BED9"
         id="stop363" />
      <stop
         offset="1"
         stop-color="#77EBEC"
         id="stop364" />
    </linearGradient>
    <linearGradient
       id="paint20_linear_1214_83305"
       x1="148.931"
       y1="189.853"
       x2="156.78"
       y2="170.765"
       gradientUnits="userSpaceOnUse">
      <stop
         stop-color="#56BED9"
         id="stop365" />
      <stop
         offset="1"
         stop-color="#77EBEC"
         id="stop366" />
    </linearGradient>
    <linearGradient
       id="paint21_linear_1214_83305"
       x1="148.931"
       y1="205.72099"
       x2="156.78"
       y2="186.632"
       gradientUnits="userSpaceOnUse">
      <stop
         stop-color="#56BED9"
         id="stop367" />
      <stop
         offset="1"
         stop-color="#77EBEC"
         id="stop368" />
    </linearGradient>
    <linearGradient
       id="paint22_linear_1214_83305"
       x1="180.791"
       y1="205.72099"
       x2="188.63901"
       y2="186.631"
       gradientUnits="userSpaceOnUse">
      <stop
         stop-color="#56BED9"
         id="stop369" />
      <stop
         offset="1"
         stop-color="#77EBEC"
         id="stop370" />
    </linearGradient>
    <linearGradient
       id="paint23_linear_1214_83305"
       x1="167.311"
       y1="242.998"
       x2="183.10899"
       y2="235.79601"
       gradientUnits="userSpaceOnUse">
      <stop
         stop-color="#56BED9"
         id="stop371" />
      <stop
         offset="1"
         stop-color="#77EBEC"
         id="stop372" />
    </linearGradient>
    <linearGradient
       id="paint24_linear_1214_83305"
       x1="178.53799"
       y1="242.998"
       x2="194.336"
       y2="235.79601"
       gradientUnits="userSpaceOnUse">
      <stop
         stop-color="#56BED9"
         id="stop373" />
      <stop
         offset="1"
         stop-color="#77EBEC"
         id="stop374" />
    </linearGradient>
    <linearGradient
       id="paint25_linear_1214_83305"
       x1="168.496"
       y1="26.7391"
       x2="178.823"
       y2="15.6142"
       gradientUnits="userSpaceOnUse">
      <stop
         stop-color="#56BED9"
         id="stop375" />
      <stop
         offset="1"
         stop-color="#77EBEC"
         id="stop376" />
    </linearGradient>
    <linearGradient
       id="paint26_linear_1214_83305"
       x1="180.563"
       y1="25.490299"
       x2="188.006"
       y2="17.6103"
       gradientUnits="userSpaceOnUse">
      <stop
         stop-color="#56BED9"
         id="stop377" />
      <stop
         offset="1"
         stop-color="#77EBEC"
         id="stop378" />
    </linearGradient>
    <linearGradient
       id="paint27_linear_1214_83305"
       x1="76.747101"
       y1="159.924"
       x2="82.613297"
       y2="153.772"
       gradientUnits="userSpaceOnUse">
      <stop
         stop-color="#56BED9"
         id="stop379" />
      <stop
         offset="1"
         stop-color="#77EBEC"
         id="stop380" />
    </linearGradient>
    <linearGradient
       id="paint28_linear_1214_83305"
       x1="83.408501"
       y1="159.215"
       x2="87.634399"
       y2="154.86"
       gradientUnits="userSpaceOnUse">
      <stop
         stop-color="#56BED9"
         id="stop381" />
      <stop
         offset="1"
         stop-color="#77EBEC"
         id="stop382" />
    </linearGradient>
    <linearGradient
       id="paint29_linear_1214_83305"
       x1="39.036499"
       y1="286.53699"
       x2="156.694"
       y2="61.1777"
       gradientUnits="userSpaceOnUse">
      <stop
         stop-color="#56BED9"
         id="stop383" />
      <stop
         offset="1"
         stop-color="#77EBEC"
         id="stop384" />
    </linearGradient>
    <linearGradient
       id="paint30_linear_1214_83305"
       x1="313.16101"
       y1="157.383"
       x2="54.805801"
       y2="251.57001"
       gradientUnits="userSpaceOnUse">
      <stop
         stop-opacity="0"
         id="stop385" />
      <stop
         offset="0.511388"
         stop-opacity="0.71"
         id="stop386" />
      <stop
         offset="1"
         stop-opacity="0"
         id="stop387" />
    </linearGradient>
    <clipPath
       id="clip0_1214_83305">
      <rect
         width="110"
         height="163"
         fill="#ffffff"
         transform="translate(195.122,83.4993)"
         id="rect387"
         x="0"
         y="0" />
    </clipPath>
  </defs>
</svg>
