<svg xmlns="http://www.w3.org/2000/svg" width="531" height="551" viewBox="0 0 531 551" fill="none">
    <g opacity="0.0481668">
        <path fill-rule="evenodd" clip-rule="evenodd"
            d="M55.8828 298.43L191.035 298.747L132.266 493.5L262.134 340.751L392.002 188.001L226.425 181.514L225.944 182.78L280.229 1L55.8828 298.43Z"
            fill="#4C5562"></path>
    </g>
    <path fill-rule="evenodd" clip-rule="evenodd"
        d="M1.50391 298.43L136.656 298.747L77.8874 493.5L337.623 188.001L172.046 181.514L171.565 182.78L225.85 1L1.50391 298.43Z"
        stroke="#8DBF00"></path>
    <g opacity="0.0481668">
        <path fill-rule="evenodd" clip-rule="evenodd"
            d="M324 430.159L407.228 430.354L371.037 550.285L530.984 362.157L429.021 358.162L428.725 358.941L462.154 247L324 430.159Z"
            fill="#4C5562"></path>
    </g>
    <path fill-rule="evenodd" clip-rule="evenodd"
        d="M292 430.409L375.228 430.604L339.037 550.535L498.984 362.407L397.021 358.412L396.725 359.191L430.154 247.25L292 430.409Z"
        stroke="#8DBF00"></path>
</svg>