<svg xmlns="http://www.w3.org/2000/svg" width="176" height="41" viewBox="0 0 176 41" fill="none">
    <g clip-path="url(#clip0_308_1131)">
        <mask id="mask0_308_1131" style="mask-type:luminance" maskUnits="userSpaceOnUse" x="0" y="0"
            width="176" height="41">
            <path d="M175.72 0H0V40.7823H175.72V0Z" fill="white"></path>
        </mask>
        <g mask="url(#mask0_308_1131)">
            <path
                d="M71.4048 2.48169V8.1406H58.7861V11.7774H66.4351V17.0249H58.7861V20.8347H71.5724V26.4936H52.2881V2.48169H71.4048Z"
                fill="white"></path>
            <path
                d="M74.6025 7.93681H81.0969V10.5433C81.3867 10.155 81.7143 9.77825 82.0725 9.40919C82.4309 9.04398 82.8347 8.72107 83.2806 8.44809C83.7265 8.17515 84.222 7.95219 84.7595 7.7792C85.2968 7.60618 85.8915 7.52161 86.5392 7.52161C88.5211 7.52161 90.0684 8.12903 91.1737 9.34C92.2788 10.551 92.8314 12.2233 92.8314 14.3492V26.4935H86.3374V16.4405C86.3374 15.4102 86.1008 14.6337 85.6323 14.107C85.1634 13.5803 84.546 13.3189 83.7876 13.3189C83.0292 13.3189 82.3622 13.5803 81.8553 14.107C81.3522 14.6337 81.1008 15.4102 81.1008 16.4405V26.4935H74.6065V7.93296L74.6025 7.93681Z"
                fill="white"></path>
            <path
                d="M105.283 26.9434C103.831 26.9434 102.504 26.7089 101.304 26.2399C100.103 25.7709 99.0627 25.1173 98.19 24.2831C97.3173 23.4489 96.6352 22.4378 96.1512 21.246C95.6633 20.0581 95.4194 18.7434 95.4194 17.3017V17.2325C95.4194 15.8832 95.6442 14.6184 96.1016 13.442C96.555 12.2656 97.1954 11.2353 98.0224 10.355C98.8495 9.4746 99.829 8.78263 100.965 8.27901C102.096 7.77541 103.347 7.52551 104.707 7.52551C106.293 7.52551 107.672 7.79846 108.839 8.34823C110.005 8.89797 110.969 9.63608 111.731 10.5626C112.49 11.4891 113.058 12.5655 113.431 13.788C113.804 15.0105 113.991 16.3099 113.991 17.6823V18.3359C113.991 18.5665 113.98 18.7933 113.957 19.024H101.647C101.894 20.0543 102.367 20.8193 103.057 21.3229C103.747 21.8265 104.604 22.0764 105.626 22.0764C106.396 22.0764 107.104 21.9265 107.752 21.6305C108.4 21.3345 109.052 20.8539 109.707 20.1889L113.279 23.1721C112.394 24.3177 111.301 25.2288 109.997 25.917C108.694 26.6012 107.123 26.9472 105.287 26.9472L105.283 26.9434ZM107.935 15.6909C107.821 14.6606 107.482 13.8456 106.914 13.2382C106.346 12.6308 105.622 12.3271 104.738 12.3271C103.853 12.3271 103.171 12.6308 102.63 13.2382C102.085 13.8456 101.723 14.6606 101.54 15.6909H107.935Z"
                fill="white"></path>
            <path
                d="M116.743 7.93681H123.237V11.6774C123.759 10.4203 124.472 9.41304 125.379 8.65955C126.286 7.90605 127.509 7.56007 129.053 7.62926V14.4914H128.508C126.808 14.4914 125.505 14.9951 124.597 16.0023C123.69 17.0095 123.237 18.5857 123.237 20.7385V26.5012H116.743V7.93681Z"
                fill="white"></path>
            <path
                d="M143.135 26.978C141.435 26.978 139.834 26.6704 138.34 26.0515C136.843 25.4325 135.547 24.5714 134.445 23.4604C133.344 22.3532 132.471 21.0346 131.827 19.5161C131.179 17.9937 130.859 16.3445 130.859 14.5568V14.4876C130.859 12.75 131.175 11.12 131.812 9.59761C132.448 8.07524 133.321 6.74893 134.43 5.61869C135.539 4.48847 136.862 3.60041 138.394 2.95841C139.926 2.3164 141.595 1.99731 143.409 1.99731C144.633 1.99731 145.745 2.11649 146.744 2.35869C147.743 2.59703 148.653 2.94303 149.48 3.38897C150.307 3.83491 151.054 4.36545 151.725 4.98438C152.392 5.60334 152.991 6.2761 153.513 7.00653L148.547 10.8816C147.864 10.0128 147.118 9.32851 146.302 8.82489C145.486 8.3213 144.499 8.07139 143.345 8.07139C142.506 8.07139 141.74 8.23672 141.05 8.56732C140.356 8.89795 139.762 9.35158 139.267 9.9244C138.767 10.4972 138.375 11.1699 138.093 11.9465C137.811 12.7231 137.666 13.5496 137.666 14.4184V14.4876C137.666 15.3795 137.807 16.2215 138.093 17.0095C138.375 17.7976 138.767 18.4781 139.267 19.0509C139.766 19.6237 140.36 20.0735 141.05 20.408C141.74 20.7386 142.506 20.9039 143.345 20.9039C143.958 20.9039 144.518 20.8347 145.029 20.6963C145.54 20.5579 146.005 20.358 146.424 20.0966C146.843 19.8351 147.24 19.5238 147.613 19.1701C147.986 18.8164 148.356 18.4204 148.718 17.986L153.684 21.5536C153.116 22.3301 152.499 23.0529 151.832 23.7141C151.165 24.3792 150.403 24.9482 149.553 25.4287C148.703 25.9092 147.75 26.286 146.694 26.5628C145.639 26.8396 144.453 26.9741 143.139 26.9741L143.135 26.978Z"
                fill="white"></path>
            <path
                d="M165.514 26.9434C164.039 26.9434 162.686 26.6896 161.452 26.1899C160.217 25.6863 159.146 24.9943 158.239 24.1139C157.332 23.2336 156.631 22.211 156.131 21.0423C155.632 19.8736 155.384 18.628 155.384 17.3017V17.2325C155.384 15.9062 155.64 14.653 156.15 13.4766C156.661 12.3002 157.37 11.2699 158.277 10.3896C159.184 9.50921 160.262 8.81339 161.509 8.29824C162.755 7.78311 164.116 7.52551 165.591 7.52551C167.065 7.52551 168.418 7.78311 169.653 8.29824C170.888 8.81339 171.959 9.50536 172.866 10.3742C173.773 11.243 174.474 12.2618 174.974 13.4266C175.473 14.5915 175.721 15.8409 175.721 17.1672V17.2364C175.721 18.5627 175.465 19.8159 174.954 20.9923C174.444 22.1725 173.735 23.199 172.828 24.0793C171.921 24.9597 170.842 25.6555 169.596 26.1707C168.35 26.6858 166.989 26.9434 165.514 26.9434ZM165.583 21.3844C166.174 21.3844 166.703 21.2768 167.18 21.0615C167.656 20.8462 168.056 20.5502 168.388 20.1773C168.716 19.8044 168.971 19.3661 169.154 18.8664C169.337 18.3666 169.424 17.8438 169.424 17.3017V17.2325C169.424 16.6636 169.329 16.1331 169.135 15.6333C168.94 15.1335 168.67 14.6991 168.319 14.3224C167.969 13.9494 167.553 13.6496 167.077 13.4189C166.6 13.1921 166.078 13.0806 165.514 13.0806C164.95 13.0806 164.39 13.1883 163.917 13.4036C163.445 13.6188 163.037 13.9148 162.709 14.2877C162.381 14.6606 162.126 15.0989 161.943 15.5987C161.76 16.0984 161.673 16.6174 161.673 17.1633V17.2325C161.673 17.8015 161.768 18.332 161.962 18.8318C162.153 19.3316 162.427 19.766 162.778 20.1427C163.129 20.5156 163.544 20.8155 164.02 21.0423C164.497 21.2691 165.019 21.3844 165.587 21.3844H165.583Z"
                fill="white"></path>
            <path fill-rule="evenodd" clip-rule="evenodd"
                d="M43.0976 19.7478C42.4533 18.4791 41.4472 17.4411 40.3421 16.5646C41.2605 17.6065 42.0646 18.7367 42.4802 19.963C43.7377 23.5652 40.9556 26.6292 38.0743 28.8551V9.7524C38.0743 8.28387 37.1444 7.03444 35.8524 6.55774L34.3012 8.42225L34.7053 8.5299C35.376 8.5299 35.9172 9.07579 35.9172 9.7524V30.4043C33.9621 31.7307 31.9118 32.9647 29.7737 34.0372V31.9883C30.3264 31.6767 30.7722 31.1771 31.0236 30.5505C31.4771 29.4279 31.2181 28.163 30.3645 27.325L29.7356 26.706L29.7507 22.3158H25.265V7.57265C25.265 6.89606 25.8062 6.35014 26.477 6.35014L26.8085 6.43856L28.1995 4.55485L27.0258 4.24345L26.7552 4.17041H26.477C24.6171 4.17041 23.1041 5.6966 23.1041 7.57265V20.1898L22.9897 20.0784C22.4562 19.5555 21.7588 19.2672 21.0194 19.2672C20.5582 19.2672 20.1123 19.3787 19.7159 19.5901V15.173C19.7159 13.2969 18.2029 11.7707 16.3431 11.7707H16.0915L15.8476 11.8284L9.12854 13.9658C7.41349 14.1235 6.06815 15.5843 6.06815 17.3527V37.6356C-0.285062 36.0131 0.198957 31.008 4.05206 25.1568C1.22797 28.1477 -1.71044 32.8762 1.20129 36.6208C4.20449 40.0729 9.72688 40.1883 14.1288 40.2344C23.2336 40.2344 31.8812 36.217 38.4669 30.7657C41.7826 28.1323 45.2393 23.9035 43.0976 19.7478ZM21.0194 21.447C21.1871 21.447 21.351 21.5123 21.4843 21.6392L25.5852 25.6719V24.4955H27.5822L27.5708 27.6248L28.855 28.8859C29.32 29.3434 29.019 30.1736 28.3901 30.1736H27.6127V35.0523C26.4922 35.5443 25.3489 35.9862 24.1826 36.3708V34.0296C24.1826 33.4259 23.6986 32.9415 23.1041 32.9415C22.5096 32.9415 22.0255 33.4298 22.0255 34.0296V37.0127C19.5749 37.6588 17.0138 38.0314 14.4413 38.1623V30.143H13.6791C13.0502 30.143 12.753 29.3086 13.2179 28.8551L20.5582 21.643C20.6878 21.5123 20.8555 21.4508 21.0232 21.4508L21.0194 21.447ZM8.22909 38.0201V17.3489C8.22909 16.6761 8.77029 16.1263 9.44105 16.1263L16.3431 13.9466C17.01 13.9466 17.555 14.4925 17.555 15.1691V21.5431L11.7087 27.2904C10.8588 28.1285 10.5958 29.3932 11.0455 30.512C11.2933 31.131 11.7354 31.6306 12.2766 31.9419V38.2084C11.4495 38.2084 10.6263 38.1929 9.80692 38.1468C9.25047 38.1199 8.72455 38.0738 8.22909 38.0162V38.0201Z"
                fill="url(#paint0_linear_308_1131)"></path>
            <path fill-rule="evenodd" clip-rule="evenodd"
                d="M33.6152 19.2326L31.8202 18.6829C31.2485 18.5099 30.6465 18.8328 30.471 19.4095C30.2995 19.9861 30.6198 20.5935 31.1916 20.7704L32.9866 21.3201C33.0894 21.3509 33.1962 21.3662 33.2991 21.3662C33.764 21.3662 34.1908 21.0625 34.3318 20.5935C34.5033 20.0169 34.1833 19.4095 33.6116 19.2326H33.6152Z"
                fill="url(#paint1_linear_308_1131)"></path>
            <path fill-rule="evenodd" clip-rule="evenodd"
                d="M33.6152 14.95L31.8202 14.4003C31.2485 14.2273 30.6465 14.5502 30.471 15.1268C30.2995 15.7035 30.6198 16.3109 31.1916 16.4878L32.9866 17.0375C33.0894 17.0682 33.1962 17.0836 33.2991 17.0836C33.764 17.0836 34.1908 16.7799 34.3318 16.3109C34.5033 15.7343 34.1833 15.1268 33.6116 14.95H33.6152Z"
                fill="url(#paint2_linear_308_1131)"></path>
            <path fill-rule="evenodd" clip-rule="evenodd"
                d="M13.3934 18.7751C13.4963 18.7751 13.603 18.7597 13.7059 18.729L15.501 18.1792C16.0727 18.0062 16.3928 17.395 16.2213 16.8183C16.0498 16.2417 15.4438 15.9149 14.8721 16.0917L13.0771 16.6415C12.5054 16.8145 12.1853 17.4257 12.3568 18.0024C12.4978 18.4714 12.9285 18.7751 13.3896 18.7751H13.3934Z"
                fill="url(#paint3_linear_308_1131)"></path>
            <path fill-rule="evenodd" clip-rule="evenodd"
                d="M13.233 22.7848C13.0577 22.2081 12.4555 21.8813 11.8839 22.0582L10.0888 22.6079C9.51712 22.7809 9.19699 23.3922 9.3685 23.9688C9.5095 24.4378 9.94017 24.7416 10.4013 24.7416C10.5042 24.7416 10.6109 24.7262 10.7138 24.6954L12.5089 24.1457C13.0806 23.9727 13.4007 23.3614 13.2292 22.7848H13.233Z"
                fill="url(#paint4_linear_308_1131)"></path>
            <path fill-rule="evenodd" clip-rule="evenodd"
                d="M17.3071 31.2232H19.4413C20.0397 31.2232 20.5199 30.7349 20.5199 30.1351C20.5199 29.5354 20.0359 29.0474 19.4413 29.0474H17.3071C16.7087 29.0474 16.2285 29.5354 16.2285 30.1351C16.2285 30.7349 16.7125 31.2232 17.3071 31.2232Z"
                fill="url(#paint5_linear_308_1131)"></path>
            <path fill-rule="evenodd" clip-rule="evenodd"
                d="M27.8262 7.24205L31.0427 7.24974L29.6439 11.9822L35.8218 4.55867L31.8848 4.40106L31.8736 4.43182L33.1656 0.0146484L27.8262 7.24205Z"
                fill="url(#paint6_linear_308_1131)"></path>
            <path
                d="M53.4325 35.354C53.4325 35.6125 53.5034 35.8265 53.6447 35.9964C53.7862 36.1664 53.9681 36.2919 54.1903 36.3737C54.4129 36.4551 54.6587 36.5266 54.9283 36.5877C55.2043 36.6488 55.4773 36.7203 55.7466 36.8017C56.0229 36.8767 56.2721 36.9751 56.4946 37.0975C56.7168 37.2199 56.8987 37.4035 57.0403 37.648C57.1815 37.8926 57.2524 38.1952 57.2524 38.5554C57.2524 39.1059 57.0436 39.5852 56.6258 39.993C56.2082 40.401 55.6424 40.6048 54.9283 40.6048C54.2209 40.6048 53.6447 40.4417 53.2002 40.1154C52.7554 39.7823 52.5332 39.3336 52.5332 38.7695H53.5135C53.5404 39.089 53.6649 39.3474 53.8874 39.5445C54.1164 39.7416 54.4532 39.84 54.898 39.84C55.3425 39.84 55.6962 39.7246 55.959 39.4933C56.2216 39.2623 56.3531 38.994 56.3531 38.688C56.3531 38.3753 56.2822 38.1375 56.1409 37.9743C55.9994 37.8044 55.8175 37.6786 55.595 37.5971C55.3727 37.5154 55.1236 37.4476 54.8473 37.3933C54.5779 37.3319 54.305 37.2607 54.0289 37.1789C53.7593 37.0975 53.5135 36.9954 53.291 36.8733C53.0688 36.7441 52.8869 36.5572 52.7454 36.3123C52.6038 36.0609 52.5332 35.7516 52.5332 35.3846C52.5332 34.7865 52.742 34.3072 53.1599 33.947C53.5842 33.58 54.1332 33.3965 54.8069 33.3965C55.4874 33.3965 56.0263 33.5562 56.4237 33.8758C56.8278 34.1882 57.0604 34.6234 57.121 35.1807H56.1003C56.0734 34.9019 55.9419 34.6641 55.7062 34.467C55.4773 34.2699 55.164 34.1712 54.7666 34.1712C54.3759 34.1712 54.0558 34.2733 53.8064 34.4772C53.5573 34.6743 53.4325 34.9666 53.4325 35.354Z"
                fill="white"></path>
            <path
                d="M72.4902 39.0143C72.9818 38.5045 73.2278 37.8316 73.2278 36.9954C73.2278 36.1596 72.9818 35.49 72.4902 34.987C71.9984 34.4772 71.3683 34.2224 70.6005 34.2224C69.839 34.2224 69.2093 34.4772 68.7107 34.987C68.2188 35.49 67.9731 36.1596 67.9731 36.9954C67.9731 37.8316 68.2222 38.5045 68.7208 39.0143C69.2194 39.5241 69.8491 39.7789 70.6105 39.7789C71.3717 39.7789 71.9984 39.5241 72.4902 39.0143ZM70.6105 40.6048C69.6067 40.6048 68.7611 40.265 68.074 39.5852C67.3868 38.8987 67.0435 38.0354 67.0435 36.9954C67.0435 35.9487 67.3868 35.0891 68.074 34.4161C68.7611 33.7364 69.6067 33.3965 70.6105 33.3965C71.6144 33.3965 72.4563 33.7364 73.1368 34.4161C73.8239 35.0891 74.1675 35.9487 74.1675 36.9954C74.1675 38.0422 73.8239 38.9055 73.1368 39.5852C72.4563 40.265 71.6144 40.6048 70.6105 40.6048Z"
                fill="white"></path>
            <path d="M84.1035 33.4678H85.023V39.8197H87.4786V40.5333H84.1035V33.4678Z" fill="white"></path>
            <path
                d="M97.2173 38.0558V33.4678H98.1469V38.0558C98.1469 38.6406 98.2985 39.0788 98.6017 39.3712C98.9117 39.6565 99.336 39.7993 99.8749 39.7993C100.414 39.7993 100.838 39.6565 101.148 39.3712C101.458 39.0788 101.613 38.6406 101.613 38.0558V33.4678H102.533V38.0558C102.533 38.8851 102.28 39.5174 101.775 39.9523C101.276 40.3872 100.639 40.6049 99.8649 40.6049C99.097 40.6049 98.4636 40.3872 97.965 39.9523C97.4664 39.5174 97.2173 38.8851 97.2173 38.0558Z"
                fill="white"></path>
            <path
                d="M112.505 34.2123V33.4678H117.123V34.2123H115.274V40.5333H114.354V34.2123H112.505Z"
                fill="white"></path>
            <path d="M127.126 40.5333V33.4678H128.046V40.5333H127.126Z" fill="white"></path>
            <path
                d="M143.438 39.0143C143.93 38.5045 144.176 37.8316 144.176 36.9954C144.176 36.1596 143.93 35.49 143.438 34.987C142.947 34.4772 142.317 34.2224 141.549 34.2224C140.787 34.2224 140.158 34.4772 139.659 34.987C139.167 35.49 138.921 36.1596 138.921 36.9954C138.921 37.8316 139.17 38.5045 139.669 39.0143C140.168 39.5241 140.798 39.7789 141.559 39.7789C142.32 39.7789 142.947 39.5241 143.438 39.0143ZM141.559 40.6048C140.555 40.6048 139.709 40.265 139.022 39.5852C138.335 38.8987 137.992 38.0354 137.992 36.9954C137.992 35.9487 138.335 35.0891 139.022 34.4161C139.709 33.7364 140.555 33.3965 141.559 33.3965C142.563 33.3965 143.405 33.7364 144.085 34.4161C144.772 35.0891 145.116 35.9487 145.116 36.9954C145.116 38.0422 144.772 38.9055 144.085 39.5852C143.405 40.265 142.563 40.6048 141.559 40.6048Z"
                fill="white"></path>
            <path
                d="M159.67 33.4678H160.589V40.5333H159.67L155.971 34.926V40.5333H155.052V33.4678H155.971L159.67 39.0754V33.4678Z"
                fill="white"></path>
            <path
                d="M171.647 35.354C171.647 35.6125 171.718 35.8265 171.859 35.9964C172.001 36.1664 172.182 36.2919 172.405 36.3737C172.627 36.4551 172.873 36.5266 173.143 36.5877C173.419 36.6488 173.692 36.7203 173.961 36.8017C174.237 36.8767 174.486 36.9751 174.709 37.0975C174.931 37.2199 175.113 37.4035 175.255 37.648C175.396 37.8926 175.467 38.1952 175.467 38.5554C175.467 39.1059 175.258 39.5852 174.84 39.993C174.423 40.401 173.857 40.6048 173.143 40.6048C172.435 40.6048 171.859 40.4417 171.415 40.1154C170.97 39.7823 170.748 39.3336 170.748 38.7695H171.728C171.755 39.089 171.879 39.3474 172.102 39.5445C172.331 39.7416 172.668 39.84 173.112 39.84C173.557 39.84 173.911 39.7246 174.173 39.4933C174.436 39.2623 174.567 38.994 174.567 38.688C174.567 38.3753 174.497 38.1375 174.355 37.9743C174.214 37.8044 174.032 37.6786 173.809 37.5971C173.587 37.5154 173.338 37.4476 173.062 37.3933C172.792 37.3319 172.519 37.2607 172.243 37.1789C171.974 37.0975 171.728 36.9954 171.505 36.8733C171.283 36.7441 171.101 36.5572 170.96 36.3123C170.818 36.0609 170.748 35.7516 170.748 35.3846C170.748 34.7865 170.956 34.3072 171.374 33.947C171.799 33.58 172.348 33.3965 173.021 33.3965C173.702 33.3965 174.241 33.5562 174.638 33.8758C175.042 34.1882 175.275 34.6234 175.335 35.1807H174.315C174.288 34.9019 174.156 34.6641 173.921 34.467C173.692 34.2699 173.378 34.1712 172.981 34.1712C172.59 34.1712 172.27 34.2733 172.021 34.4772C171.772 34.6743 171.647 34.9666 171.647 35.354Z"
                fill="white"></path>
        </g>
    </g>
    <defs>
        <linearGradient id="paint0_linear_308_1131" x1="-0.00146582" y1="40.2344" x2="49.6357"
            y2="9.5068" gradientUnits="userSpaceOnUse">
            <stop stop-color="#57CBE1"></stop>
            <stop offset="1" stop-color="#7FE092"></stop>
        </linearGradient>
        <linearGradient id="paint1_linear_308_1131" x1="-0.00141568" y1="40.2344" x2="49.6358"
            y2="9.50679" gradientUnits="userSpaceOnUse">
            <stop stop-color="#57CBE1"></stop>
            <stop offset="1" stop-color="#7FE092"></stop>
        </linearGradient>
        <linearGradient id="paint2_linear_308_1131" x1="-0.00141417" y1="40.2344" x2="49.6358"
            y2="9.50683" gradientUnits="userSpaceOnUse">
            <stop stop-color="#57CBE1"></stop>
            <stop offset="1" stop-color="#7FE092"></stop>
        </linearGradient>
        <linearGradient id="paint3_linear_308_1131" x1="-0.00125598" y1="40.2344" x2="49.6359"
            y2="9.50678" gradientUnits="userSpaceOnUse">
            <stop stop-color="#57CBE1"></stop>
            <stop offset="1" stop-color="#7FE092"></stop>
        </linearGradient>
        <linearGradient id="paint4_linear_308_1131" x1="-0.00158931" y1="40.2344" x2="49.6356"
            y2="9.50677" gradientUnits="userSpaceOnUse">
            <stop stop-color="#57CBE1"></stop>
            <stop offset="1" stop-color="#7FE092"></stop>
        </linearGradient>
        <linearGradient id="paint5_linear_308_1131" x1="-0.00168079" y1="40.2344" x2="49.6355"
            y2="9.50683" gradientUnits="userSpaceOnUse">
            <stop stop-color="#57CBE1"></stop>
            <stop offset="1" stop-color="#7FE092"></stop>
        </linearGradient>
        <linearGradient id="paint6_linear_308_1131" x1="-0.00150181" y1="40.2344" x2="49.6357"
            y2="9.5068" gradientUnits="userSpaceOnUse">
            <stop stop-color="#57CBE1"></stop>
            <stop offset="1" stop-color="#7FE092"></stop>
        </linearGradient>
        <clipPath id="clip0_308_1131">
            <rect width="175.72" height="40.7823" fill="white"></rect>
        </clipPath>
    </defs>
</svg>