<svg xmlns="http://www.w3.org/2000/svg" width="44" height="41" viewBox="0 0 44 41" fill="none">
    <g clip-path="url(#clip0_308_1131)">
        <mask id="mask0_308_1131" style="mask-type:luminance" maskUnits="userSpaceOnUse" x="0" y="0"
            width="176" height="41">
            <path d="M175.72 0H0V40.7823H175.72V0Z" fill="white"></path>
        </mask>
        <g mask="url(#mask0_308_1131)">
            <path fill-rule="evenodd" clip-rule="evenodd"
                d="M43.0976 19.7478C42.4533 18.4791 41.4472 17.4411 40.3421 16.5646C41.2605 17.6065 42.0646 18.7367 42.4802 19.963C43.7377 23.5652 40.9556 26.6292 38.0743 28.8551V9.7524C38.0743 8.28387 37.1444 7.03444 35.8524 6.55774L34.3012 8.42225L34.7053 8.5299C35.376 8.5299 35.9172 9.07579 35.9172 9.7524V30.4043C33.9621 31.7307 31.9118 32.9647 29.7737 34.0372V31.9883C30.3264 31.6767 30.7722 31.1771 31.0236 30.5505C31.4771 29.4279 31.2181 28.163 30.3645 27.325L29.7356 26.706L29.7507 22.3158H25.265V7.57265C25.265 6.89606 25.8062 6.35014 26.477 6.35014L26.8085 6.43856L28.1995 4.55485L27.0258 4.24345L26.7552 4.17041H26.477C24.6171 4.17041 23.1041 5.6966 23.1041 7.57265V20.1898L22.9897 20.0784C22.4562 19.5555 21.7588 19.2672 21.0194 19.2672C20.5582 19.2672 20.1123 19.3787 19.7159 19.5901V15.173C19.7159 13.2969 18.2029 11.7707 16.3431 11.7707H16.0915L15.8476 11.8284L9.12854 13.9658C7.41349 14.1235 6.06815 15.5843 6.06815 17.3527V37.6356C-0.285062 36.0131 0.198957 31.008 4.05206 25.1568C1.22797 28.1477 -1.71044 32.8762 1.20129 36.6208C4.20449 40.0729 9.72688 40.1883 14.1288 40.2344C23.2336 40.2344 31.8812 36.217 38.4669 30.7657C41.7826 28.1323 45.2393 23.9035 43.0976 19.7478ZM21.0194 21.447C21.1871 21.447 21.351 21.5123 21.4843 21.6392L25.5852 25.6719V24.4955H27.5822L27.5708 27.6248L28.855 28.8859C29.32 29.3434 29.019 30.1736 28.3901 30.1736H27.6127V35.0523C26.4922 35.5443 25.3489 35.9862 24.1826 36.3708V34.0296C24.1826 33.4259 23.6986 32.9415 23.1041 32.9415C22.5096 32.9415 22.0255 33.4298 22.0255 34.0296V37.0127C19.5749 37.6588 17.0138 38.0314 14.4413 38.1623V30.143H13.6791C13.0502 30.143 12.753 29.3086 13.2179 28.8551L20.5582 21.643C20.6878 21.5123 20.8555 21.4508 21.0232 21.4508L21.0194 21.447ZM8.22909 38.0201V17.3489C8.22909 16.6761 8.77029 16.1263 9.44105 16.1263L16.3431 13.9466C17.01 13.9466 17.555 14.4925 17.555 15.1691V21.5431L11.7087 27.2904C10.8588 28.1285 10.5958 29.3932 11.0455 30.512C11.2933 31.131 11.7354 31.6306 12.2766 31.9419V38.2084C11.4495 38.2084 10.6263 38.1929 9.80692 38.1468C9.25047 38.1199 8.72455 38.0738 8.22909 38.0162V38.0201Z"
                fill="url(#paint0_linear_308_1131)"></path>
            <path fill-rule="evenodd" clip-rule="evenodd"
                d="M33.6152 19.2326L31.8202 18.6829C31.2485 18.5099 30.6465 18.8328 30.471 19.4095C30.2995 19.9861 30.6198 20.5935 31.1916 20.7704L32.9866 21.3201C33.0894 21.3509 33.1962 21.3662 33.2991 21.3662C33.764 21.3662 34.1908 21.0625 34.3318 20.5935C34.5033 20.0169 34.1833 19.4095 33.6116 19.2326H33.6152Z"
                fill="url(#paint1_linear_308_1131)"></path>
            <path fill-rule="evenodd" clip-rule="evenodd"
                d="M33.6152 14.95L31.8202 14.4003C31.2485 14.2273 30.6465 14.5502 30.471 15.1268C30.2995 15.7035 30.6198 16.3109 31.1916 16.4878L32.9866 17.0375C33.0894 17.0682 33.1962 17.0836 33.2991 17.0836C33.764 17.0836 34.1908 16.7799 34.3318 16.3109C34.5033 15.7343 34.1833 15.1268 33.6116 14.95H33.6152Z"
                fill="url(#paint2_linear_308_1131)"></path>
            <path fill-rule="evenodd" clip-rule="evenodd"
                d="M13.3934 18.7751C13.4963 18.7751 13.603 18.7597 13.7059 18.729L15.501 18.1792C16.0727 18.0062 16.3928 17.395 16.2213 16.8183C16.0498 16.2417 15.4438 15.9149 14.8721 16.0917L13.0771 16.6415C12.5054 16.8145 12.1853 17.4257 12.3568 18.0024C12.4978 18.4714 12.9285 18.7751 13.3896 18.7751H13.3934Z"
                fill="url(#paint3_linear_308_1131)"></path>
            <path fill-rule="evenodd" clip-rule="evenodd"
                d="M13.233 22.7848C13.0577 22.2081 12.4555 21.8813 11.8839 22.0582L10.0888 22.6079C9.51712 22.7809 9.19699 23.3922 9.3685 23.9688C9.5095 24.4378 9.94017 24.7416 10.4013 24.7416C10.5042 24.7416 10.6109 24.7262 10.7138 24.6954L12.5089 24.1457C13.0806 23.9727 13.4007 23.3614 13.2292 22.7848H13.233Z"
                fill="url(#paint4_linear_308_1131)"></path>
            <path fill-rule="evenodd" clip-rule="evenodd"
                d="M17.3071 31.2232H19.4413C20.0397 31.2232 20.5199 30.7349 20.5199 30.1351C20.5199 29.5354 20.0359 29.0474 19.4413 29.0474H17.3071C16.7087 29.0474 16.2285 29.5354 16.2285 30.1351C16.2285 30.7349 16.7125 31.2232 17.3071 31.2232Z"
                fill="url(#paint5_linear_308_1131)"></path>
            <path fill-rule="evenodd" clip-rule="evenodd"
                d="M27.8262 7.24205L31.0427 7.24974L29.6439 11.9822L35.8218 4.55867L31.8848 4.40106L31.8736 4.43182L33.1656 0.0146484L27.8262 7.24205Z"
                fill="url(#paint6_linear_308_1131)"></path>
        </g>
    </g>
    <defs>
        <linearGradient id="paint0_linear_308_1131" x1="-0.00146582" y1="40.2344" x2="49.6357"
            y2="9.5068" gradientUnits="userSpaceOnUse">
            <stop stop-color="#57CBE1"></stop>
            <stop offset="1" stop-color="#7FE092"></stop>
        </linearGradient>
        <linearGradient id="paint1_linear_308_1131" x1="-0.00141568" y1="40.2344" x2="49.6358"
            y2="9.50679" gradientUnits="userSpaceOnUse">
            <stop stop-color="#57CBE1"></stop>
            <stop offset="1" stop-color="#7FE092"></stop>
        </linearGradient>
        <linearGradient id="paint2_linear_308_1131" x1="-0.00141417" y1="40.2344" x2="49.6358"
            y2="9.50683" gradientUnits="userSpaceOnUse">
            <stop stop-color="#57CBE1"></stop>
            <stop offset="1" stop-color="#7FE092"></stop>
        </linearGradient>
        <linearGradient id="paint3_linear_308_1131" x1="-0.00125598" y1="40.2344" x2="49.6359"
            y2="9.50678" gradientUnits="userSpaceOnUse">
            <stop stop-color="#57CBE1"></stop>
            <stop offset="1" stop-color="#7FE092"></stop>
        </linearGradient>
        <linearGradient id="paint4_linear_308_1131" x1="-0.00158931" y1="40.2344" x2="49.6356"
            y2="9.50677" gradientUnits="userSpaceOnUse">
            <stop stop-color="#57CBE1"></stop>
            <stop offset="1" stop-color="#7FE092"></stop>
        </linearGradient>
        <linearGradient id="paint5_linear_308_1131" x1="-0.00168079" y1="40.2344" x2="49.6355"
            y2="9.50683" gradientUnits="userSpaceOnUse">
            <stop stop-color="#57CBE1"></stop>
            <stop offset="1" stop-color="#7FE092"></stop>
        </linearGradient>
        <linearGradient id="paint6_linear_308_1131" x1="-0.00150181" y1="40.2344" x2="49.6357"
            y2="9.5068" gradientUnits="userSpaceOnUse">
            <stop stop-color="#57CBE1"></stop>
            <stop offset="1" stop-color="#7FE092"></stop>
        </linearGradient>
        <clipPath id="clip0_308_1131">
            <rect width="175.72" height="40.7823" fill="white"></rect>
        </clipPath>
    </defs>
</svg>