<svg preserveAspectRatio="xMidYMid meet" data-bbox="208.6 118.9 1556.8 471.3" viewBox="0 0 1986.8 676" xmlns="http://www.w3.org/2000/svg" data-type="ugc" role="presentation" aria-hidden="true" aria-label="">
    <g>
        <linearGradient y2="354.547" x2="732.215" y1="354.547" x1="208.642" gradientUnits="userSpaceOnUse" id="3908261f-33d8-485a-b0f1-0e5c2d8dee06_comp-js8yu8hv">
            <stop offset="0" stop-color="#4f76d1"></stop>
            <stop offset="1" stop-color="#50305d"></stop>
        </linearGradient>
        <path d="M732.1 460.7c0-7.7.1-15 .1-21.5 0-23.1-7.4-42.9-21.1-57.7 11-8.6 18.1-22 18.1-37.1v-127c0-27.4-9.7-52.3-27.4-70.3-17.8-18.2-42.7-28.2-69.9-28.2H311.2c-30.2 0-55.8 9.5-74.2 27.4-18.6 18.2-28.4 43.6-28.4 73.6v191.5c0 64.1 38.1 107.1 94.9 107.1h234.4c2.8 0 5 0 24.9 15.7 17.4 13.7 41.3 32.5 58.1 43.8 11.9 8 25.8 12.2 40.2 12.2 11.9 0 23.6-2.9 33.9-8.5 23.7-12.8 37.6-38 37.2-67.3-.2-18-.2-37-.1-53.7zm-33.2 54.1c.2 17-6.9 30.6-19.7 37.6-5.6 3-11.8 4.5-18 4.5-7.6 0-15.2-2.2-21.6-6.5-15.7-10.6-39-28.9-56.1-42.3-22.5-17.7-31.2-22.9-45.6-22.9H303.5c-37.9 0-61.5-28.3-61.5-73.8V219.9c0-42.4 25.9-67.6 69.2-67.6h320.7c37.7 0 64 26.8 64 65.2v127.1c0 7.5-6.1 13.6-13.6 13.6s-13.6-6.1-13.6-13.6V217.4c0-17.5-9.6-37.9-36.7-37.9H311.2c-28.2 0-41.9 13.2-41.9 40.4v191.5c0 17.4 4.4 46.5 34.2 46.5h234.4c24.7 0 39.8 10.9 62.4 28.7 15.8 12.4 39.6 31.1 54.4 41.1 1.8 1.2 4.1 1.9 6.4 1.9 1.8 0 3.5-.4 5-1.2 4.6-2.5 5.5-8.5 5.4-13.2-.3-18.4-.2-37.7-.1-54.8 0-7.6.1-14.8.1-21.1 0-12.2-2.8-25.3-36.7-25.3h-76.7c-18.1 0-35.7-9.9-49-25.1-53.8 43.6-109.1 15.5-147.2-22.2l36.8-36.8-21.2-21.2c-4.8-4.8-4.8-12.6 0-17.4l2.7-2.7c4.8-4.8 12.6-4.8 17.4 0l21.2 21.2 37.2-37.2-21.2-21.2c-4.8-4.8-4.8-12.6 0-17.4l2.7-2.7c4.8-4.8 12.6-4.8 17.4 0l21.2 21.2 34.1-34.1c38.7 39.2 67.8 93.3 18.5 151.2 8.4 10.3 19.1 17.1 29.5 17.1h76.7c23.9 0 64 6.8 64 52.5 0 6.4 0 13.6-.1 21.3-.1 17-.2 36.2.1 54.3z" fill="url(#3908261f-33d8-485a-b0f1-0e5c2d8dee06_comp-js8yu8hv)"></path>
        <path d="M807.6 212.9h78.9v22.8h-44.7v19.8h37.6V276h-37.6v22h44.5v23.2h-78.7V212.9z" fill="#301f4e"></path>
        <path d="M988.3 249.8c.6 5.6.9 14.1.9 25.5v46h-32.5v-53.4c0-4.1-.3-6.6-.9-7.6-1-1.3-3.4-1.9-7-1.9-1.8 0-3.1.1-4 .2-3.5.1-7.2.9-11 2.5v60.3h-32.5V234h26.4l3.6 14.6c9.1-11 20-16.5 32.7-16.5 4.6 0 8.8.6 12.8 1.9 4 1.3 7 3.1 9 5.5 1.1 1.2 1.9 4.7 2.5 10.3z" fill="#301f4e"></path>
        <path d="M1076.8 297.5c1.1 0 3.2-.1 6.3-.4l2.9 19.6c-9.8 4.6-22.4 6.8-38 6.8-14.6 0-25.8-3.7-33.5-11-7.8-7.4-11.7-18.4-11.7-33.3 0-7.6 1-15 2.9-22 2-7.1 4.2-12 6.7-14.8 2.7-2.8 7.6-5.2 14.8-7.2 7.2-2 14.4-3 21.5-3 11.4 0 20 2 25.7 6.1 5.7 4.1 9.4 9.7 11.2 16.8 1.8 7.2 2.7 16.8 2.7 28.8-8.6.5-17 .8-25.3.8h-27c0 4.1.9 7.1 2.6 9.1 1.7 2 4.1 3.3 7.3 3.9 3.2.6 7.6.9 13.3.9 3-.2 8.9-.5 17.6-1.1zm-40.7-37.8c-.4 2.9-.6 6.2-.8 9.9h9.9c6 0 10.3-.1 12.9-.2 0-6.1-.9-10.4-2.6-12.9-1.7-2.5-4.7-3.8-8.8-3.8-3.4 0-6.4.7-8.9 2.1-.8.3-1.3 1.9-1.7 4.9z" fill="#301f4e"></path>
        <path d="M1160.9 232.5c1.8.4 3.2.8 4.1 1.3 0 2.8-.3 7.4-.9 13.8-.6 6.4-1.2 10.9-1.7 13.6-1.3-.1-3.6-.2-7-.2-8 0-15.1.4-21.3 1.3v58.9h-32.5v-87.4h27.2l3.8 14.1h.2c3.7-4.8 7.6-8.7 11.8-11.6 4.2-2.9 7.9-4.4 11.2-4.4 1.5 0 3.2.2 5.1.6z" fill="#301f4e"></path>
        <path d="M1239.6 233.5c6.5.8 14 1.9 22.6 3.3v75.7c0 18.1-6 32.2-18.1 42.2-1.5 1.3-4.9 2.3-10.3 3.2-5.3.9-11.3 1.3-18.1 1.3-14.6 0-26.1-1.9-34.6-5.7-.1-2.8.1-6.5.7-11 .6-4.6 1.2-8.2 1.8-10.8 9.1 1.4 18.1 2.1 26.8 2.1 4.4 0 8.2-.2 11.3-.7 3.1-.4 5-1.1 5.8-2 1-1 1.8-4.8 2.3-11.4.1-1.8.2-4.4.2-7.8v-4.8c-3.2 4.7-7.2 8-12.2 10.1-4.9 2-9.4 3-13.3 3-10.6 0-18.7-3.5-24.1-10.5-5.4-7-8.2-17.2-8.2-30.6 0-8.9 1.2-17.2 3.7-25s5.9-13.2 10.2-16.3c2.8-1.9 7.3-3.3 13.6-4.3 6.3-.9 13.3-1.4 21.2-1.4 6.1.2 12.3.6 18.7 1.4zm-9.8 60.7v-39.7c-1.4-.3-3.5-.5-6.3-.8-1.3-.1-3.2-.2-5.7-.2-3.9 0-6.4.4-7.4 1.1-1.4 1-2.5 3.8-3.3 8.5-.8 4.6-1.2 9.5-1.2 14.5 0 7 .8 11.9 2.4 14.6 1.6 2.8 4.5 4.2 8.8 4.2 4.6.1 8.9-.6 12.7-2.2z" fill="#301f4e"></path>
        <path d="M1350.3 297.5c1.1 0 3.2-.1 6.3-.4l2.9 19.6c-9.8 4.6-22.4 6.8-38 6.8-14.6 0-25.8-3.7-33.5-11-7.8-7.4-11.7-18.4-11.7-33.3 0-7.6 1-15 2.9-22 2-7.1 4.2-12 6.7-14.8 2.7-2.8 7.6-5.2 14.8-7.2 7.2-2 14.4-3 21.5-3 11.4 0 20 2 25.7 6.1 5.7 4.1 9.4 9.7 11.2 16.8 1.8 7.2 2.7 16.8 2.7 28.8-8.6.5-17 .8-25.3.8h-27c0 4.1.9 7.1 2.6 9.1 1.7 2 4.2 3.3 7.3 3.9 3.2.6 7.6.9 13.3.9 3.1-.2 8.9-.5 17.6-1.1zm-40.7-37.8c-.4 2.9-.6 6.2-.8 9.9h9.9c6 0 10.3-.1 12.9-.2 0-6.1-.9-10.4-2.6-12.9-1.7-2.5-4.7-3.8-8.8-3.8-3.4 0-6.4.7-8.9 2.1-.8.3-1.3 1.9-1.7 4.9z" fill="#301f4e"></path>
        <path d="M1415.3 285.3c0 2.3.1 4.7.2 7.1.1 2.5.5 4 1.1 4.7.9.9 4 1.3 9.3 1.3l6.5-.2c1.1 6.1 1.7 13.1 1.7 21.1-2.4.9-5.9 1.7-10.5 2.5s-9 1.1-13.2 1.1c-8.7 0-15.5-1.9-20.2-5.8-4.8-3.9-7.1-9.9-7.1-18v-46.8h-14.3V235l14.3-1.3 8.6-20.9 23.8-1.3v22.2h20.1v18.6h-20.1v33z" fill="#301f4e"></path>
        <path d="M1447.6 233.8h32.5v87.4h-32.5v-87.4zm5.2-15.2c-3.1-2.9-4.7-6.4-4.7-10.5s1.6-7.5 4.7-10.5c3.1-2.9 6.8-4.4 11.1-4.4s8 1.5 11 4.4c3 2.9 4.6 6.4 4.6 10.5s-1.5 7.5-4.6 10.5c-3 2.9-6.7 4.4-11 4.4s-8-1.5-11.1-4.4z" fill="#301f4e"></path>
        <path d="M1571.7 318.6c-10.3 3.4-21.7 5.1-34.4 5.1-14.2 0-24.8-3.6-31.8-10.7-7-7.2-10.5-18.3-10.5-33.5 0-7.5 1-14.9 3-22.1 2-7.3 4.2-12.2 6.5-14.7 2.7-2.9 7.9-5.4 15.7-7.4 7.8-2 15.9-3 24.2-3 8.7 0 17.5.8 26.4 2.3-.3 3.2-.7 6.9-1.2 11.1-.6 4.2-1.2 8-1.8 11.3-7.9-.5-15.3-.8-22.2-.8-6.8 0-11.2.4-13.1 1.1-1 .4-1.9 3-2.8 7.8-.8 4.8-1.2 9.3-1.2 13.5 0 5.6.8 9.9 2.4 12.8 1.6 3 4.1 5 7.5 6.2 3.4 1.1 8 1.7 13.9 1.7 2.5 0 8.1-.3 16.7-.8l2.7 20.1z" fill="#301f4e"></path>
        <path d="M1677.4 321.2H1642l-18.1-35.5c-1.8-3.7-4.1-6-7-7v42.6h-32.5v-114l32.5-1.3v64.8c3-1.3 5.6-3.9 7.8-7.8l16.2-29.1 35.5-.2-18.4 29.7c-2.9 4.7-6.1 8.4-9.5 11.2 2.9 3.2 6.2 8 9.9 14.4l19 32.2z" fill="#301f4e"></path>
        <path d="m1738.2 321.2-3-12c-5.8 9.5-13.9 14.3-24.3 14.3-8.5 0-15.4-2.4-20.8-7.1-5.4-4.8-8.1-11.4-8.1-20.1 0-5.3 1.5-10 4.7-14 3.1-4 7.4-6.8 12.8-8.5 7.1-2 18.1-3.2 32.9-3.4 0-8.4-.4-12.8-1.1-13.3-.6-.5-2.7-.8-6.1-.8-2.2 0-5.1.1-8.9.4-6.1.3-14.3 1-24.7 2.1-1-6.8-1.8-14.2-2.3-22 6.7-1.4 13.7-2.6 21.1-3.5 7.3-1 13.9-1.4 19.8-1.4 10.1 0 17.7 1.7 22.8 5 5.1 3.4 8.4 7.8 9.9 13.2 1.5 5.4 2.2 12.4 2.1 20.7l-.2 27.9.6 22.4h-27.2zm-13.3-116.5c6-4.7 11.9-9.1 17.9-13.1l10.1 14.8c-4.1 2.8-9.4 6.3-16.2 10.5-6.7 4.2-12.5 7.7-17.5 10.6l-7.6-11c2.9-3.2 7.3-7.1 13.3-11.8zm7.4 95.6v-14.1h-1.5c-9.4 0-14.6.5-15.6 1.5-.6.6-1.1 1.6-1.4 2.9-.3 1.3-.5 2.5-.5 3.6 0 3 .7 5.1 2.1 6.3 1.4 1.1 3.5 1.7 6.5 1.7 3.2 0 6.7-.6 10.4-1.9z" fill="#301f4e"></path>
        <path d="M877.4 391.9c6.5.8 14 1.9 22.6 3.3v75.7c0 18.1-6 32.2-18.1 42.2-1.5 1.3-4.9 2.3-10.3 3.2-5.3.9-11.3 1.3-18.1 1.3-14.6 0-26.1-1.9-34.6-5.7-.1-2.8.1-6.5.7-11 .6-4.6 1.2-8.2 1.8-10.8 9.1 1.4 18.1 2.1 26.8 2.1 4.4 0 8.2-.2 11.3-.7 3.1-.4 5-1.1 5.8-2 1-1 1.8-4.8 2.3-11.4.1-1.8.2-4.4.2-7.8v-4.8c-3.2 4.7-7.2 8-12.2 10.1-4.9 2-9.4 3-13.3 3-10.6 0-18.7-3.5-24.1-10.5-5.4-7-8.2-17.2-8.2-30.6 0-8.9 1.2-17.2 3.7-25 2.5-7.8 5.9-13.2 10.2-16.3 2.8-1.9 7.3-3.3 13.6-4.3 6.3-.9 13.3-1.4 21.2-1.4 6 .2 12.2.6 18.7 1.4zm-9.9 60.7v-39.7c-1.4-.3-3.5-.5-6.3-.8-1.3-.1-3.2-.2-5.7-.2-3.9 0-6.4.4-7.4 1.1-1.4 1-2.5 3.8-3.3 8.5-.8 4.6-1.2 9.5-1.2 14.5 0 7 .8 11.9 2.4 14.6 1.6 2.8 4.5 4.2 8.8 4.2 4.6.1 8.9-.6 12.7-2.2z" fill="#301f4e"></path>
        <path d="M976.7 390.9c1.8.4 3.2.8 4.1 1.3 0 2.8-.3 7.4-.9 13.8-.6 6.4-1.2 10.9-1.7 13.6-1.3-.1-3.6-.2-7-.2-8 0-15.1.4-21.3 1.3v58.9h-32.5v-87.4h27.2l3.8 14.1h.2c3.7-4.8 7.6-8.7 11.8-11.6 4.2-2.9 7.9-4.4 11.2-4.4 1.5 0 3.2.2 5.1.6z" fill="#301f4e"></path>
        <path d="m1037.6 479.6-3-12c-5.8 9.5-13.9 14.3-24.3 14.3-8.5 0-15.4-2.4-20.8-7.1-5.4-4.8-8.1-11.4-8.1-20.1 0-5.3 1.5-10 4.7-14 3.1-4 7.4-6.8 12.8-8.5 7.1-2 18.1-3.2 32.9-3.4 0-8.4-.4-12.8-1.1-13.3-.6-.5-2.7-.8-6.1-.8-2.2 0-5.1.1-8.9.4-6.1.3-14.3 1-24.7 2.1-1-6.8-1.8-14.2-2.3-22 6.7-1.4 13.7-2.6 21.1-3.5 7.3-1 13.9-1.4 19.8-1.4 10.1 0 17.7 1.7 22.8 5 5.1 3.4 8.4 7.8 9.9 13.2 1.5 5.4 2.2 12.4 2.1 20.7l-.2 27.9.6 22.4h-27.2zm-5.9-20.9v-14.1h-1.5c-9.4 0-14.6.5-15.6 1.5-.6.6-1.1 1.6-1.4 2.9-.3 1.3-.5 2.5-.5 3.6 0 3 .7 5.1 2.1 6.3 1.4 1.1 3.5 1.7 6.5 1.7 3.2 0 6.7-.6 10.4-1.9z" fill="#301f4e"></path>
        <path d="M1220.4 433.6v46h-32.5v-53.1c0-4.7-.4-7.5-1.3-8.4-1-1-3.2-1.5-6.5-1.5l-2.3.2c-3.9.3-7.7 1.1-11.2 2.7.1 2.7.2 7.3.2 14.1v46h-32.5v-54.2c0-3.9-.4-6.3-1.3-7.2-1-1-3.2-1.5-6.5-1.5l-2.3.2c-3.5.1-7.2.9-11 2.5v60.3h-32.5v-87.4h26.4l3.4 14.3c4.2-5.6 9-9.7 14.4-12.3 5.4-2.6 11-3.9 16.5-3.9 4.7 0 9.2.7 13.4 2.1 4.2 1.4 7.2 3.4 8.8 5.9.8 1.1 1.4 3.2 1.9 6.3 4.1-4.9 8.7-8.6 13.9-10.8 5.2-2.3 10.4-3.4 15.6-3.4 4.7 0 9.2.7 13.4 2.1 4.2 1.4 7.2 3.4 8.8 5.9 2.2 2.8 3.2 14.6 3.2 35.1z" fill="#301f4e"></path>
        <path d="M1245.4 471.4c-7.5-7.2-11.3-18.5-11.3-33.9 0-8.5.8-15.9 2.4-22.3 1.6-6.4 3.5-10.9 5.8-13.4 2.9-3.3 8.3-6 16.1-8.2 7.8-2.2 15.1-3.2 22-3.2 16.3 0 28 3.5 35 10.5s10.5 18.1 10.5 33.5c0 16.5-3.7 28.6-11.2 36.3-7.5 7.7-19.1 11.6-35 11.6-15.3-.2-26.7-3.8-34.3-10.9zm44.4-16.8c1.5-3.5 2.3-9.7 2.3-18.5 0-6.2-.3-11-1-14.3-.6-3.4-1.8-5.8-3.5-7.4-1.7-1.6-4.3-2.4-7.9-2.4-5.1 0-8 .4-8.7 1.3-1 .9-1.8 3.7-2.5 8.4-.6 4.7-1 9.6-1 14.6 0 8.6.9 14.7 2.6 18.2 1.7 3.5 5 5.3 10 5.3 5 .1 8.2-1.7 9.7-5.2z" fill="#301f4e"></path>
        <path d="M1380.3 443.7c0 2.3.1 4.7.2 7.1.1 2.5.5 4 1.1 4.7.9.9 4 1.3 9.3 1.3l6.5-.2c1.1 6.1 1.7 13.1 1.7 21.1-2.4.9-5.9 1.7-10.5 2.5s-9 1.1-13.2 1.1c-8.7 0-15.5-1.9-20.2-5.8-4.8-3.9-7.1-9.9-7.1-18v-46.8h-14.3v-17.3l14.3-1.3 8.6-20.9 23.8-1.3v22.2h20.1v18.6h-20.1v33z" fill="#301f4e"></path>
        <path d="M1499.2 408.2c.6 5.6.9 14.1.9 25.5v46h-32.5v-53.5c0-4.1-.3-6.6-.9-7.6-1-1.3-3.4-1.9-7-1.9-1.8 0-3.1.1-4 .2-3.5.1-7.2.9-11 2.5v60.3H1412v-87.4h26.4l3.6 14.6c9.1-11 20-16.5 32.7-16.5 4.6 0 8.8.6 12.8 1.9 4 1.3 7 3.1 9 5.5 1.3 1.3 2.1 4.8 2.7 10.4z" fill="#301f4e"></path>
        <path d="M1525 471.4c-7.5-7.2-11.3-18.5-11.3-33.9 0-8.5.8-15.9 2.4-22.3 1.6-6.4 3.5-10.9 5.8-13.4 2.9-3.3 8.3-6 16.1-8.2 7.8-2.2 15.1-3.2 22-3.2 16.3 0 28 3.5 35 10.5s10.5 18.1 10.5 33.5c0 16.5-3.7 28.6-11.2 36.3-7.5 7.7-19.1 11.6-35 11.6-15.4-.2-26.7-3.8-34.3-10.9zm44.4-16.8c1.5-3.5 2.3-9.7 2.3-18.5 0-6.2-.3-11-1-14.3-.6-3.4-1.8-5.8-3.5-7.4-1.7-1.6-4.3-2.4-7.9-2.4-5.1 0-8 .4-8.7 1.3-1 .9-1.8 3.7-2.5 8.4-.6 4.7-.9 9.6-.9 14.6 0 8.6.9 14.7 2.6 18.2 1.7 3.5 5 5.3 10 5.3 4.9.1 8.1-1.7 9.6-5.2z" fill="#301f4e"></path>
        <path d="M1679.6 474.3c-7.2 4.9-17.3 7.4-30.5 7.4-9.3 0-19.9-1.3-31.9-4 .3-2.5.9-6.2 1.8-10.9.9-4.8 1.7-8.4 2.4-10.9 4.6.8 9.6 1.4 15.2 1.8 5.6.4 10.3.7 14.3.7 3.4 0 5.5-.2 6.3-.6.1-.1.3-.5.5-1 .2-.6.3-1.2.3-1.8 0-2.5-1.6-4.2-4.8-5.1-1-.3-4.9-1.3-11.6-3.2-6.7-1.9-12.2-5.4-16.4-10.4-4.2-5-6.4-11.2-6.4-18.7 0-3.9.9-8.3 2.7-13.1 1.8-4.8 3.7-7.9 5.7-9.1 1.5-1 5.2-2.1 11-3.1 5.8-1.1 11.2-1.6 16.2-1.6 10.5 0 21.1.8 31.7 2.3 0 2.3-.3 6.1-1 11.5-.6 5.4-1.2 8.8-1.7 10.2-10.8-1.4-19.5-2.1-26-2.1-3.4 0-5.6.2-6.7.6-.3.1-.5.5-.8 1-.3.6-.4 1.3-.4 2.2 0 1.8.6 3 1.7 3.8 1.1.9 4.1 2 8.9 3.2 5.7 1.6 10.6 3.4 14.7 5.1 4.1 1.8 7.7 4.4 10.8 8 3.1 3.5 4.7 8.1 4.7 13.7 0 11.1-3.6 19.2-10.7 24.1z" fill="#301f4e"></path>
        <path d="M1743.3 443.7c0 2.3.1 4.7.2 7.1.1 2.5.5 4 1.1 4.7.9.9 4 1.3 9.3 1.3l6.5-.2c1.1 6.1 1.7 13.1 1.7 21.1-2.4.9-5.9 1.7-10.5 2.5s-9 1.1-13.2 1.1c-8.7 0-15.5-1.9-20.2-5.8-4.8-3.9-7.1-9.9-7.1-18v-46.8h-14.3v-17.3l14.3-1.3 8.6-20.9 23.8-1.3v22.2h20.1v18.6h-20.1v33z" fill="#301f4e"></path>
    </g>
</svg>