<svg id="Vrstva_1" data-name="Vrstva 1" xmlns="http://www.w3.org/2000/svg" viewBox="0 0 382.14 135.18"><defs><style>.cls-1{fill:#083344;}</style></defs><path class="cls-1" d="M68.72,74a86.76,86.76,0,0,0-7.86,36.22c0,1.86.06,3.7.18,5.53a13.5,13.5,0,0,1,10.06,19.4,67.47,67.47,0,0,0,46.17-21.62A87.51,87.51,0,0,0,68.72,74Z"/><path class="cls-1" d="M45.71,131.61a13.31,13.31,0,0,1,3.22-11.47,87.56,87.56,0,0,0-9.83-11.72A87,87,0,0,0,2.72,86.61,67.75,67.75,0,0,0,45.71,131.61Z"/><path class="cls-1" d="M34.09,75.21A8.06,8.06,0,0,1,27,71,86.46,86.46,0,0,0,1.1,79.71l0,.21a93.1,93.1,0,0,1,42.21,24.25,93.15,93.15,0,0,1,10.44,12.49,11.63,11.63,0,0,1,1.29-.46c-.12-2-.21-4-.21-6a92.9,92.9,0,0,1,8-37.9,87.19,87.19,0,0,0-21.14-2.62A8.09,8.09,0,0,1,34.09,75.21Z"/><path class="cls-1" d="M36.24,35A87,87,0,0,0,5.68,40.5,67.44,67.44,0,0,0,0,67.63c0,2,.1,3.87.26,5.77a93.11,93.11,0,0,1,26-8.4,8.07,8.07,0,0,1,15.13-1.27h.19a93.17,93.17,0,0,1,23.95,3.12,93.54,93.54,0,0,1,6.81-11,17.11,17.11,0,0,1-3.8-10.78A17.62,17.62,0,0,1,69,41.36,86.94,86.94,0,0,0,36.24,35Z"/><path class="cls-1" d="M107.51,91a93.57,93.57,0,0,1,13.85,17.68l.84-1.12A87,87,0,0,0,97.89,60.52c-.58-.57-1.17-1.12-1.76-1.67a17.14,17.14,0,0,1-19.21,1,88.9,88.9,0,0,0-5.49,8.77A93.36,93.36,0,0,1,107.51,91Z"/><path class="cls-1" d="M85.8,27.87a17.13,17.13,0,0,1,11.37,4.31,92.73,92.73,0,0,1,20.51-10A67.48,67.48,0,0,0,67.63,0c-1.27,0-2.53,0-3.78.11A86.82,86.82,0,0,0,78.2,29.65,17.17,17.17,0,0,1,85.8,27.87Z"/><path class="cls-1" d="M36.24,29A92.73,92.73,0,0,1,71.3,35.82a17.14,17.14,0,0,1,2.08-2.64A92.91,92.91,0,0,1,57.8.72,67.65,67.65,0,0,0,9.63,32.85,92.81,92.81,0,0,1,36.24,29Z"/><path class="cls-1" d="M135.14,63.68a67.33,67.33,0,0,0-13.35-36.57A86.37,86.37,0,0,0,101,36.88a17.23,17.23,0,0,1,.88,14.48A86.64,86.64,0,0,0,135.14,63.68Z"/><path class="cls-1" d="M106.37,60.81a93.06,93.06,0,0,1,20.47,39.52,67.27,67.27,0,0,0,8.37-30.58A92.5,92.5,0,0,1,106.37,60.81Z"/><path class="cls-1" d="M188.57,32.59c0,8.79-4.37,13.21-13.12,13.21s-12.94-4.42-12.94-13.21V15.41h6.67V32.14c0,5.09,2.21,7.71,6.45,7.71s6.49-2.62,6.49-7.71V15.41h6.45Z"/><path class="cls-1" d="M214.19,32.77V45.35h-5.9V33.49c0-2.93-1.45-4.55-3.93-4.55-2.75,0-4.37,1.85-4.37,5.14V45.35h-5.91V24.16H199l.22,3h.09a7.19,7.19,0,0,1,6.63-3.47C211.13,23.71,214.19,27,214.19,32.77Z"/><path class="cls-1" d="M226,17.57a3.65,3.65,0,1,1-7.3,0,3.65,3.65,0,0,1,7.3,0Zm-6.62,6.59h5.9V45.35h-5.9Z"/><path class="cls-1" d="M235.35,36.24c.63,2.89,3.24,4.47,6.89,4.47a10.49,10.49,0,0,0,7.4-2.57h.22v5.68c-1.75,1.26-4.59,2-7.89,2-7.48,0-12.58-4.51-12.58-11a10.6,10.6,0,0,1,11.05-11c6.58,0,10.69,3.92,10.69,10.14v2.39Zm0-3.56h10.46c-.41-2.57-2.39-3.88-5.19-3.88A5.13,5.13,0,0,0,235.35,32.68Z"/><path class="cls-1" d="M162.6,84.13V52.56h5.91v19l7.3-8.66h7.31l-9.2,10.33,9.65,10.87H176l-7.44-8.89v8.89Z"/><path class="cls-1" d="M206.89,73.53c0,6.45-4.69,11-11.31,11s-11.37-4.6-11.37-11,4.69-11.05,11.37-11.05S206.89,67,206.89,73.53Zm-16.73,0c0,3.43,2.21,5.82,5.42,5.82s5.36-2.39,5.36-5.82-2.21-5.82-5.36-5.82S190.16,70.1,190.16,73.53Z"/><path class="cls-1" d="M244.06,71.5V84.13h-5.91V72.18c0-2.93-1.26-4.47-3.56-4.47-2.62,0-4,1.76-4,5.5V84.13h-5.9V72.18c0-2.93-1.27-4.47-3.61-4.47-2.62,0-4,1.76-4,5.05V84.13h-5.91V62.93h4.92l.22,2.85h.09a6.72,6.72,0,0,1,6.23-3.3A7.07,7.07,0,0,1,229.13,66h.09c1.31-2.35,3.52-3.48,6.95-3.48C241.22,62.48,244.06,65.73,244.06,71.5Z"/><path class="cls-1" d="M264.11,84.13l-.22-3h-.09a7.11,7.11,0,0,1-6.59,3.47c-5.18,0-8.25-3.38-8.25-9.11V62.93h5.91V74.79c0,2.93,1.44,4.56,3.92,4.56,2.71,0,4.33-1.85,4.33-5.14V62.93H269v21.2Z"/><path class="cls-1" d="M294.62,71.55V84.13h-5.91V72.27c0-2.93-1.44-4.56-3.92-4.56-2.75,0-4.37,1.85-4.37,5.14V84.13h-5.91V62.93h4.92l.22,3h.09a7.19,7.19,0,0,1,6.63-3.48C291.55,62.48,294.62,65.82,294.62,71.55Z"/><path class="cls-1" d="M306.43,56.35a3.65,3.65,0,1,1-3.65-3.61A3.5,3.5,0,0,1,306.43,56.35Zm-6.63,6.58h5.91v21.2H299.8Z"/><path class="cls-1" d="M324.51,83.86a9.6,9.6,0,0,1-4.15.72c-5.14,0-7.89-2.8-7.89-8.16V67.94H309v-5h3.7l.77-6h5v6h6.08v5h-6.08v8.25c0,2,1.08,3.16,2.93,3.16a3.8,3.8,0,0,0,3-1.22h.23Z"/><path class="cls-1" d="M349.2,71.55V84.13h-5.9V72.27c0-2.93-1.45-4.56-3.93-4.56-2.75,0-4.37,1.85-4.37,5.14V84.13h-5.91V62.93H334l.22,3h.09A7.21,7.21,0,0,1,341,62.48C346.14,62.48,349.2,65.82,349.2,71.55Z"/><path class="cls-1" d="M359.36,52.2h6.22l-5.81,7.67h-5.41Zm.95,31.93H354.4V62.93h5.91Z"/><path class="cls-1" d="M167.34,113.79c.63,2.89,3.24,4.47,6.89,4.47a10.44,10.44,0,0,0,7.4-2.57h.22v5.68c-1.75,1.26-4.59,2-7.89,2-7.48,0-12.58-4.5-12.58-11a10.61,10.61,0,0,1,11.05-11c6.58,0,10.69,3.92,10.69,10.15v2.38Zm0-3.56H177.8c-.41-2.57-2.39-3.87-5.19-3.87A5.12,5.12,0,0,0,167.34,110.23Z"/><path class="cls-1" d="M207.67,110.32V122.9h-5.91V111c0-2.93-1.44-4.55-3.92-4.55-2.75,0-4.38,1.85-4.38,5.14V122.9h-5.9V101.71h4.91l.23,3h.09a7.18,7.18,0,0,1,6.63-3.47C204.6,101.26,207.67,104.6,207.67,110.32Z"/><path class="cls-1" d="M217.56,113.79c.64,2.89,3.25,4.47,6.9,4.47a10.46,10.46,0,0,0,7.4-2.57h.22v5.68c-1.75,1.26-4.6,2-7.89,2-7.48,0-12.58-4.5-12.58-11a10.61,10.61,0,0,1,11-11c6.58,0,10.69,3.92,10.69,10.15v2.38Zm0-3.56H228c-.41-2.57-2.39-3.87-5.19-3.87A5.13,5.13,0,0,0,217.56,110.23Z"/><path class="cls-1" d="M252.49,102.07v5.77h-.23a5.74,5.74,0,0,0-3.34-1c-3.6,0-5.23,2.21-5.23,6.94v9.11h-5.9V101.71h4.91L243,105h.09c1.18-2.48,3.25-3.74,6.32-3.74A5.28,5.28,0,0,1,252.49,102.07Z"/><path class="cls-1" d="M277.3,121.19c0,6.63-4.46,10.73-11.81,10.73-3.56,0-6.63-.86-8.52-2.3v-6h.22a10,10,0,0,0,7.58,3c4.24,0,6.63-2.12,6.63-5.86v-.14h-.09a8.14,8.14,0,0,1-6.09,2.3c-6,0-10.37-4.46-10.37-10.86s4.37-10.87,10.37-10.87c3.16,0,5.5,1.17,6.9,3.25h.09l.18-2.8h4.91Zm-5.72-9.06c0-3.43-2.21-5.64-5.37-5.64s-5.41,2.21-5.41,5.64,2.21,5.63,5.41,5.63S271.58,115.55,271.58,112.13Z"/><path class="cls-1" d="M287.55,113.79c.63,2.89,3.25,4.47,6.9,4.47a10.41,10.41,0,0,0,7.39-2.57h.23v5.68a14,14,0,0,1-7.89,2c-7.49,0-12.58-4.5-12.58-11a10.61,10.61,0,0,1,11-11c6.58,0,10.68,3.92,10.68,10.15v2.38Zm0-3.56H298c-.4-2.57-2.39-3.87-5.18-3.87A5.13,5.13,0,0,0,287.55,110.23Z"/><path class="cls-1" d="M321.2,122.63a9.46,9.46,0,0,1-4.15.72c-5.14,0-7.89-2.79-7.89-8.16v-8.47h-3.52v-5h3.7l.77-5.95h5v5.95h6.09v5h-6.09V115c0,2,1.08,3.15,2.93,3.15a3.86,3.86,0,0,0,3-1.21h.22Z"/><path class="cls-1" d="M332.16,95.13a3.65,3.65,0,1,1-3.65-3.61A3.5,3.5,0,0,1,332.16,95.13Zm-6.63,6.58h5.91V122.9h-5.91Z"/><path class="cls-1" d="M336.93,122.9V91.34h5.91v19l7.31-8.66h7.3L348.25,112l9.65,10.86h-7.62L342.84,114v8.88Z"/><path class="cls-1" d="M363.92,131.47l4-9.24-8.16-20.52h6.31l5,14h.09l4.91-14h6.09L370,131.47Z"/></svg>