<svg width="2579" height="422" viewBox="0 0 2579 422" fill="none" xmlns="http://www.w3.org/2000/svg">
<path d="M449.11 0H9.1655C4.10615 0 0 4.10615 0 9.1655V412.448C0 417.516 4.10615 421.613 9.1655 421.613H449.11C454.178 421.613 458.275 417.516 458.275 412.448V9.1655C458.275 4.10615 454.178 0 449.11 0ZM217.287 217.287L125.632 308.942C123.844 310.729 121.498 311.627 119.152 311.627C116.805 311.627 114.459 310.729 112.672 308.942C109.088 305.358 109.088 299.565 112.672 295.982L197.847 210.807L112.672 125.632C109.088 122.048 109.088 116.255 112.672 112.672C116.255 109.088 122.048 109.088 125.632 112.672L217.287 204.327C220.87 207.91 220.87 213.703 217.287 217.287ZM339.124 311.627H247.469C242.4 311.627 238.303 307.53 238.303 302.462C238.303 297.393 242.4 293.296 247.469 293.296H339.124C344.192 293.296 348.289 297.393 348.289 302.462C348.289 307.53 344.192 311.627 339.124 311.627Z" fill="white"/>
<path d="M580.604 300L652.854 125H683.855L755.355 300H726.854L706.604 248.75H628.354L607.854 300H580.604ZM636.854 227H698.104L667.604 150L636.854 227ZM810.897 300V125H837.147V300H810.897ZM904.159 240.25V218.5H994.159V240.25H904.159ZM1099.67 300V148.25H1038.17V125H1187.42V148.25H1125.92V300H1099.67ZM1318.42 302.75C1305.75 302.75 1293.92 300.5 1282.92 296C1271.92 291.333 1262.17 284.917 1253.67 276.75C1245.34 268.417 1238.84 258.833 1234.17 248C1229.67 237 1227.42 225.167 1227.42 212.5C1227.42 199.833 1229.67 188.083 1234.17 177.25C1238.84 166.25 1245.34 156.667 1253.67 148.5C1262.17 140.167 1271.92 133.75 1282.92 129.25C1293.92 124.583 1305.75 122.25 1318.42 122.25C1331.09 122.25 1342.92 124.583 1353.92 129.25C1365.09 133.75 1374.84 140.167 1383.17 148.5C1391.5 156.667 1398 166.25 1402.67 177.25C1407.34 188.083 1409.67 199.833 1409.67 212.5C1409.67 225.167 1407.34 237 1402.67 248C1398 258.833 1391.5 268.417 1383.17 276.75C1374.84 284.917 1365.09 291.333 1353.92 296C1342.92 300.5 1331.09 302.75 1318.42 302.75ZM1318.67 278.5C1327.67 278.5 1336 276.833 1343.67 273.5C1351.5 270.167 1358.34 265.583 1364.17 259.75C1370 253.75 1374.59 246.75 1377.92 238.75C1381.25 230.583 1382.92 221.833 1382.92 212.5C1382.92 203 1381.25 194.25 1377.92 186.25C1374.59 178.25 1370 171.333 1364.17 165.5C1358.34 159.5 1351.5 154.833 1343.67 151.5C1336 148.167 1327.67 146.5 1318.67 146.5C1309.5 146.5 1301 148.167 1293.17 151.5C1285.34 154.833 1278.5 159.5 1272.67 165.5C1266.84 171.333 1262.25 178.25 1258.92 186.25C1255.75 194.25 1254.17 203 1254.17 212.5C1254.17 221.833 1255.75 230.583 1258.92 238.75C1262.25 246.75 1266.84 253.75 1272.67 259.75C1278.5 265.583 1285.34 270.167 1293.17 273.5C1301 276.833 1309.5 278.5 1318.67 278.5ZM1474.81 300V125H1510.06L1564.81 237L1619.56 125H1654.56V300H1629.81V157L1564.56 287.5L1499.31 157V300H1474.81ZM1710.15 300L1782.4 125H1813.4L1884.9 300H1856.4L1836.15 248.75H1757.9L1737.4 300H1710.15ZM1766.4 227H1827.65L1797.15 150L1766.4 227ZM1956.94 300V148.25H1895.44V125H2044.69V148.25H1983.19V300H1956.94ZM2104.16 300V125H2130.41V300H2104.16ZM2287.92 302.75C2274.92 302.75 2262.84 300.5 2251.67 296C2240.67 291.333 2230.92 284.917 2222.42 276.75C2214.09 268.417 2207.59 258.833 2202.92 248C2198.42 237 2196.17 225.167 2196.17 212.5C2196.17 199.833 2198.42 188.083 2202.92 177.25C2207.59 166.25 2214.09 156.667 2222.42 148.5C2230.92 140.167 2240.75 133.75 2251.92 129.25C2263.09 124.583 2275.09 122.25 2287.92 122.25C2297.09 122.25 2306 123.5 2314.67 126C2323.5 128.333 2331.59 131.75 2338.92 136.25C2346.42 140.75 2352.92 146.167 2358.42 152.5L2340.92 170.5C2334.42 162.667 2326.5 156.75 2317.17 152.75C2307.84 148.583 2298.09 146.5 2287.92 146.5C2278.59 146.5 2269.92 148.167 2261.92 151.5C2254.09 154.833 2247.25 159.5 2241.42 165.5C2235.59 171.333 2231 178.25 2227.67 186.25C2224.5 194.25 2222.92 203 2222.92 212.5C2222.92 221.833 2224.5 230.5 2227.67 238.5C2231 246.5 2235.67 253.5 2241.67 259.5C2247.67 265.5 2254.67 270.167 2262.67 273.5C2270.67 276.833 2279.34 278.5 2288.67 278.5C2298.84 278.5 2308.42 276.5 2317.42 272.5C2326.59 268.333 2334.34 262.5 2340.67 255L2357.92 272.5C2352.09 278.667 2345.42 284.083 2337.92 288.75C2330.59 293.25 2322.59 296.75 2313.92 299.25C2305.42 301.583 2296.75 302.75 2287.92 302.75ZM2403.6 300L2475.85 125H2506.85L2578.35 300H2549.85L2529.6 248.75H2451.35L2430.85 300H2403.6ZM2459.85 227H2521.1L2490.6 150L2459.85 227Z" fill="white"/>
</svg>
