<?xml version="1.0" encoding="UTF-8"?> <svg xmlns="http://www.w3.org/2000/svg" width="306" height="58" viewBox="0 0 306 58" fill="none"><g clip-path="url(#clip0_2059_14870)"><path d="M85.9207 39.2488H85.0573C84.6558 39.2488 84.3947 39.0682 84.2783 38.703L82.9651 34.7456H74.271L72.9659 38.6789C72.8535 39.0602 72.5965 39.2488 72.1989 39.2488H71.3476C70.9661 39.2488 70.7773 39.1003 70.7773 38.8073C70.7773 38.711 70.8135 38.5424 70.8938 38.3096L77.331 19.3053C77.4636 18.8558 77.7567 18.6311 78.2105 18.6311H79.0618C79.5156 18.6311 79.8088 18.8639 79.9413 19.3254L86.3785 38.3297C86.4548 38.5585 86.495 38.723 86.495 38.8194C86.495 39.1083 86.3022 39.2528 85.9207 39.2528V39.2488ZM78.6201 21.6413L74.9577 32.6866H82.2825L78.6201 21.6413ZM101.1 37.8722C100.225 38.7913 98.6466 39.2528 96.3737 39.2528H89.2899C88.8844 39.2528 88.6836 39.0481 88.6836 38.6347V19.2492C88.6836 18.8398 88.8844 18.6311 89.2899 18.6311H96.3737C98.6466 18.6311 100.225 19.0926 101.1 20.0117C101.976 20.9308 102.417 22.6928 102.417 25.2976V32.5823C102.417 35.1871 101.98 36.949 101.1 37.8681V37.8722ZM100.225 25.3016C100.225 23.3631 99.9638 22.1108 99.4458 21.5449C98.9237 20.979 97.8555 20.694 96.2332 20.694H90.8802V37.1899H96.2332C97.8555 37.1899 98.9237 36.9049 99.4458 36.339C99.9678 35.7731 100.225 34.5208 100.225 32.5823V25.3016ZM119.557 19.5622L113.119 38.5665C112.987 39.0241 112.69 39.2528 112.232 39.2528H111.373C110.915 39.2528 110.622 39.0281 110.485 38.5786L104.048 19.5743C103.972 19.3375 103.931 19.1729 103.931 19.0726C103.931 18.7796 104.124 18.6311 104.514 18.6311H105.389C105.795 18.6311 106.06 18.8157 106.176 19.1809L111.83 35.6888L117.48 19.189C117.593 18.8157 117.85 18.6271 118.247 18.6271H119.099C119.48 18.6271 119.669 18.7715 119.669 19.0645C119.669 19.1609 119.629 19.3254 119.553 19.5582L119.557 19.5622ZM133.29 39.2488H132.427C132.026 39.2488 131.765 39.0682 131.652 38.703L130.339 34.7456H121.645L120.34 38.6789C120.227 39.0602 119.97 39.2488 119.573 39.2488H118.721C118.34 39.2488 118.151 39.1003 118.151 38.8073C118.151 38.711 118.187 38.5424 118.268 38.3096L124.705 19.3053C124.837 18.8558 125.13 18.6311 125.584 18.6311H126.436C126.889 18.6311 127.183 18.8639 127.315 19.3254L133.752 38.3297C133.829 38.5585 133.869 38.723 133.869 38.8194C133.869 39.1083 133.676 39.2528 133.295 39.2528L133.29 39.2488ZM125.99 21.6413L122.327 32.6866H129.652L125.99 21.6413ZM148.679 39.2488H147.924C147.575 39.2488 147.305 39.0963 147.113 38.7873L138.246 23.2427V38.6347C138.246 39.0481 138.045 39.2528 137.64 39.2528H136.66C136.254 39.2528 136.053 39.0481 136.053 38.6347V19.2492C136.053 18.8398 136.254 18.6311 136.652 18.6311H137.395C137.736 18.6311 138.005 18.7956 138.194 19.1247L147.093 34.7255V19.2532C147.093 18.8398 147.293 18.6351 147.699 18.6351H148.679C149.08 18.6351 149.285 18.8398 149.285 19.2532V38.6388C149.285 39.0522 149.084 39.2568 148.675 39.2568L148.679 39.2488ZM165.384 31.5909H166.364C166.766 31.5909 166.971 31.7956 166.971 32.205V32.8191C166.971 35.4118 166.533 37.1698 165.657 38.0849C164.782 39 163.208 39.4615 160.935 39.4615H158.738C156.465 39.4615 154.891 39 154.016 38.0809C153.14 37.1618 152.703 35.3958 152.703 32.791V25.0929C152.703 22.4881 153.14 20.7262 154.016 19.803C154.891 18.8839 156.465 18.4224 158.738 18.4224H160.935C163.208 18.4224 164.782 18.8799 165.657 19.795C166.533 20.7101 166.971 22.468 166.971 25.0608V25.6749C166.971 26.0843 166.77 26.289 166.364 26.289H165.384C164.983 26.289 164.778 26.0843 164.778 25.6749V25.0608C164.778 23.1343 164.517 21.8901 163.999 21.3242C163.477 20.7583 162.409 20.4773 160.79 20.4773H158.883C157.265 20.4773 156.196 20.7623 155.674 21.3282C155.152 21.8941 154.895 23.1504 154.895 25.0889V32.7829C154.895 34.7215 155.156 35.9737 155.674 36.5437C156.196 37.1136 157.265 37.3945 158.883 37.3945H160.79C162.409 37.3945 163.477 37.1136 163.999 36.5477C164.521 35.9818 164.778 34.7376 164.778 32.811V32.197C164.778 31.7876 164.979 31.5829 165.384 31.5829V31.5909ZM181.483 37.1858C181.889 37.1858 182.09 37.3905 182.09 37.8039V38.6267C182.09 39.0401 181.889 39.2448 181.483 39.2448H170.95C170.545 39.2448 170.344 39.0401 170.344 38.6267V19.2411C170.344 18.8317 170.545 18.623 170.95 18.623H181.339C181.745 18.623 181.945 18.8277 181.945 19.2411V20.0639C181.945 20.4773 181.745 20.682 181.339 20.682H172.536V27.8784H180.247C180.648 27.8784 180.849 28.083 180.849 28.4964V29.3192C180.849 29.7326 180.648 29.9373 180.247 29.9373H172.536V37.1738H181.483V37.1858ZM197.277 37.8681C196.402 38.7873 194.824 39.2488 192.551 39.2488H185.467C185.062 39.2488 184.861 39.0441 184.861 38.6307V19.2451C184.861 18.8358 185.062 18.6271 185.467 18.6271H192.551C194.824 18.6271 196.398 19.0886 197.277 20.0077C198.153 20.9268 198.595 22.6888 198.595 25.2936V32.5783C198.595 35.1831 198.157 36.945 197.277 37.8641V37.8681ZM196.402 25.2976C196.402 23.3591 196.141 22.1068 195.619 21.5409C195.097 20.975 194.029 20.69 192.406 20.69H187.053V37.1858H192.406C194.029 37.1858 195.097 36.9009 195.619 36.335C196.141 35.769 196.402 34.5168 196.402 32.5783V25.2976Z" fill="#3C7FA2"></path><path d="M29.1945 57.94C45.3182 57.94 58.389 44.9697 58.389 28.97C58.389 12.9703 45.3182 0 29.1945 0C13.0708 0 0 12.9703 0 28.97C0 44.9697 13.0708 57.94 29.1945 57.94Z" fill="#3C7FA2"></path><path fill-rule="evenodd" clip-rule="evenodd" d="M31.6249 28.3882L29.1191 25.8877H29.1151L26.6133 28.3882L26.6173 28.3922L15.2246 39.7787L17.7264 42.2791L29.1191 30.8926L40.5118 42.2791L43.0136 39.7787L31.6209 28.3922L31.6249 28.3882Z" fill="white"></path><path fill-rule="evenodd" clip-rule="evenodd" d="M29.3311 10.6882L29.283 10.7364L29.2388 10.6882L8.30469 31.6351L10.8587 34.1958L29.283 15.7614L47.7072 34.1958L50.2652 31.6351L29.3311 10.6882Z" fill="white"></path><path d="M219.373 26.1724C219.654 26.4454 220.361 26.7223 221.493 27.0032L225.14 27.9063C227.332 28.4401 228.738 29.1064 229.356 29.897C229.975 30.6877 230.284 32.1366 230.284 34.2317V35.1307C230.284 37.4225 229.79 38.9958 228.802 39.8547C227.814 40.7096 225.943 41.1391 223.184 41.1391H221.618C218.859 41.1391 216.988 40.7096 215.996 39.8547C215.008 38.9958 214.514 37.4225 214.514 35.1267V34.7093C214.514 33.9387 214.904 33.5534 215.683 33.5534H218.152C218.931 33.5534 219.321 33.9387 219.321 34.7053V35.3475C219.321 36.094 219.49 36.6077 219.827 36.8847C220.164 37.1616 220.803 37.3021 221.742 37.3021H223.052C223.991 37.3021 224.63 37.1616 224.967 36.8847C225.304 36.6037 225.477 36.09 225.477 35.3354V34.1755C225.477 33.4009 225.337 32.8831 225.051 32.6142C224.77 32.3453 224.064 32.0724 222.935 31.7914L219.289 30.8884C217.092 30.3506 215.687 29.6843 215.068 28.8896C214.45 28.0949 214.141 26.642 214.141 24.5349V23.9529C214.141 21.6531 214.635 20.0718 215.622 19.2089C216.61 18.35 218.482 17.9165 221.236 17.9165H222.766C225.521 17.9165 227.393 18.346 228.38 19.2008C229.368 20.0598 229.862 21.6331 229.862 23.9288V24.3463C229.862 25.1169 229.473 25.5022 228.694 25.5022H226.224C225.445 25.5022 225.055 25.1169 225.055 24.3503V23.7081C225.055 22.9616 224.887 22.4478 224.549 22.1709C224.212 21.894 223.574 21.7535 222.638 21.7535H221.365C220.429 21.7535 219.791 21.894 219.453 22.1789C219.116 22.4599 218.947 22.9816 218.947 23.7442V24.5911C218.947 25.3737 219.088 25.8995 219.373 26.1724ZM248.7 39.5778C247.668 40.6213 245.668 41.1431 242.697 41.1431H240.484C237.512 41.1431 235.512 40.6213 234.48 39.5778C233.448 38.5343 232.934 36.5716 232.934 33.6899V25.3697C232.934 22.488 233.448 20.5253 234.48 19.4818C235.512 18.4383 237.512 17.9165 240.484 17.9165H242.697C245.668 17.9165 247.668 18.4383 248.7 19.4818C249.728 20.5253 250.246 22.488 250.246 25.3697V33.6899C250.246 36.5716 249.732 38.5343 248.7 39.5778ZM245.439 25.4299C245.439 24.0292 245.239 23.098 244.837 22.6365C244.435 22.1749 243.636 21.9421 242.44 21.9421H240.745C239.548 21.9421 238.749 22.1749 238.348 22.6365C237.946 23.098 237.745 24.0292 237.745 25.4299V33.6297C237.745 35.0304 237.946 35.9615 238.348 36.4231C238.749 36.8847 239.548 37.1175 240.745 37.1175H242.44C243.636 37.1175 244.435 36.8847 244.837 36.4231C245.239 35.9615 245.439 35.0304 245.439 33.6297V25.4299ZM266.538 40.8661H254.744C253.965 40.8661 253.575 40.4768 253.575 39.7022V19.3574C253.575 18.5828 253.965 18.1934 254.744 18.1934H257.214C257.993 18.1934 258.382 18.5828 258.382 19.3574V36.7924H266.542C267.321 36.7924 267.715 37.1817 267.715 37.9563V39.7022C267.715 40.4768 267.325 40.8661 266.546 40.8661H266.538ZM286.641 40.8661H283.89C283.22 40.8661 282.798 40.5651 282.629 39.9631L281.718 36.6559H274.537L273.634 39.9591C273.453 40.5651 273.016 40.8661 272.317 40.8661H269.445C268.819 40.8661 268.506 40.5892 268.506 40.0273C268.506 39.8467 268.55 39.6019 268.634 39.2888L274.69 19.2972C274.935 18.5587 275.525 18.1934 276.457 18.1934H279.593C280.529 18.1934 281.115 18.5828 281.36 19.3654L287.416 39.3891C287.5 39.6902 287.544 39.9149 287.544 40.0634C287.544 40.5972 287.243 40.8661 286.637 40.8661H286.641ZM278.136 23.6519L275.561 32.9072H280.682L278.136 23.6519ZM305.202 31.4985C304.672 32.5018 303.772 33.1962 302.515 33.5815L305.386 39.4253C305.515 39.6821 305.579 39.8949 305.579 40.0634C305.579 40.5972 305.246 40.8621 304.575 40.8621H301.921C301.339 40.8621 300.917 40.5611 300.66 39.9591L297.957 34.015H294.612V39.6982C294.612 40.4728 294.223 40.8621 293.444 40.8621H290.974C290.195 40.8621 289.805 40.4728 289.805 39.6982V19.3534C289.805 18.5787 290.195 18.1894 290.974 18.1894H298.451C301.335 18.1894 303.31 18.6831 304.382 19.6745C305.455 20.6658 305.993 22.4639 305.993 25.0727V27.1437C305.993 29.0421 305.728 30.491 305.194 31.4904L305.202 31.4985ZM301.194 25.169C301.194 24.0934 300.993 23.3429 300.592 22.9094C300.19 22.4799 299.467 22.2632 298.427 22.2632H294.616V29.9452H298.427C299.467 29.9452 300.19 29.7285 300.592 29.299C300.993 28.8696 301.194 28.115 301.194 27.0394V25.169Z" fill="#3C7FA2"></path></g><defs><clipPath id="clip0_2059_14870"><rect width="306" height="57.936" fill="white"></rect></clipPath></defs></svg> 